<svg width="24" height="24" viewBox="0 0 24 24" fill="none" xmlns="http://www.w3.org/2000/svg">
<path d="M6 7C4.346 7 3 8.346 3 10C3 11.302 3.839 12.402 5 12.816V21H7V12.816C8.161 12.402 9 11.302 9 10C9 8.346 7.654 7 6 7Z" fill="#17191A"/>
<path d="M7 3H5V6H7V3Z" fill="#17191A"/>
<path d="M12 13C10.346 13 9 14.346 9 16C9 17.302 9.839 18.402 11 18.816V21H13V18.816C14.161 18.402 15 17.302 15 16C15 14.346 13.654 13 12 13Z" fill="#17191A"/>
<path d="M13 3H11V12H13V3Z" fill="#17191A"/>
<path d="M19 4.184V3H17V4.184C15.839 4.598 15 5.698 15 7C15 8.654 16.346 10 18 10C19.654 10 21 8.654 21 7C21 5.698 20.161 4.598 19 4.184Z" fill="#17191A"/>
<path d="M19 11H17V21H19V11Z" fill="#17191A"/>
</svg>
