<svg width="24" height="24" viewBox="0 0 24 24" fill="none" xmlns="http://www.w3.org/2000/svg">
<path fill-rule="evenodd" clip-rule="evenodd" d="M3 10C3 8.48079 4.23079 7.25 5.75 7.25C7.26921 7.25 8.5 8.48079 8.5 10C8.5 11.5192 7.26921 12.75 5.75 12.75C4.23079 12.75 3 11.5192 3 10ZM5.75 8.75C5.05921 8.75 4.5 9.30921 4.5 10C4.5 10.6908 5.05921 11.25 5.75 11.25C6.44079 11.25 7 10.6908 7 10C7 9.30921 6.44079 8.75 5.75 8.75Z" fill="#17191A"/>
<path fill-rule="evenodd" clip-rule="evenodd" d="M5 6V3H6.5V6H5Z" fill="#17191A"/>
<path fill-rule="evenodd" clip-rule="evenodd" d="M5 21V12H6.5V21H5Z" fill="#17191A"/>
<path fill-rule="evenodd" clip-rule="evenodd" d="M9 16C9 14.4808 10.2308 13.25 11.75 13.25C13.2692 13.25 14.5 14.4808 14.5 16C14.5 17.5192 13.2692 18.75 11.75 18.75C10.2308 18.75 9 17.5192 9 16ZM11.75 14.75C11.0592 14.75 10.5 15.3092 10.5 16C10.5 16.6908 11.0592 17.25 11.75 17.25C12.4408 17.25 13 16.6908 13 16C13 15.3092 12.4408 14.75 11.75 14.75Z" fill="#17191A"/>
<path fill-rule="evenodd" clip-rule="evenodd" d="M11 12V3H12.5V12H11Z" fill="#17191A"/>
<path fill-rule="evenodd" clip-rule="evenodd" d="M11 21V18H12.5V21H11Z" fill="#17191A"/>
<path fill-rule="evenodd" clip-rule="evenodd" d="M15 7C15 5.48079 16.2308 4.25 17.75 4.25C19.2692 4.25 20.5 5.48079 20.5 7C20.5 8.51921 19.2692 9.75 17.75 9.75C16.2308 9.75 15 8.51921 15 7ZM17.75 5.75C17.0592 5.75 16.5 6.30921 16.5 7C16.5 7.69079 17.0592 8.25 17.75 8.25C18.4408 8.25 19 7.69079 19 7C19 6.30921 18.4408 5.75 17.75 5.75Z" fill="#17191A"/>
<path fill-rule="evenodd" clip-rule="evenodd" d="M17 5V3H18.5V5H17Z" fill="#17191A"/>
<path fill-rule="evenodd" clip-rule="evenodd" d="M17 21V11H18.5V21H17Z" fill="#17191A"/>
</svg>
