<svg width="24" height="24" viewBox="0 0 24 24" fill="none" xmlns="http://www.w3.org/2000/svg">
<path fill-rule="evenodd" clip-rule="evenodd" d="M11.25 5.75C11.25 4.23079 12.4808 3 14 3C15.5192 3 16.75 4.23079 16.75 5.75C16.75 7.26921 15.5192 8.5 14 8.5C12.4808 8.5 11.25 7.26921 11.25 5.75ZM14 4.5C13.3092 4.5 12.75 5.05921 12.75 5.75C12.75 6.44079 13.3092 7 14 7C14.6908 7 15.25 6.44079 15.25 5.75C15.25 5.05921 14.6908 4.5 14 4.5Z" fill="#17191A"/>
<path fill-rule="evenodd" clip-rule="evenodd" d="M18 5H21V6.5H18V5Z" fill="#17191A"/>
<path fill-rule="evenodd" clip-rule="evenodd" d="M3 5H12V6.5H3V5Z" fill="#17191A"/>
<path fill-rule="evenodd" clip-rule="evenodd" d="M5.25 11.75C5.25 10.2308 6.48079 9 8 9C9.51921 9 10.75 10.2308 10.75 11.75C10.75 13.2692 9.51921 14.5 8 14.5C6.48079 14.5 5.25 13.2692 5.25 11.75ZM8 10.5C7.30921 10.5 6.75 11.0592 6.75 11.75C6.75 12.4408 7.30921 13 8 13C8.69079 13 9.25 12.4408 9.25 11.75C9.25 11.0592 8.69079 10.5 8 10.5Z" fill="#17191A"/>
<path fill-rule="evenodd" clip-rule="evenodd" d="M12 11H21V12.5H12V11Z" fill="#17191A"/>
<path fill-rule="evenodd" clip-rule="evenodd" d="M3 11H6V12.5H3V11Z" fill="#17191A"/>
<path fill-rule="evenodd" clip-rule="evenodd" d="M14.25 17.75C14.25 16.2308 15.4808 15 17 15C18.5192 15 19.75 16.2308 19.75 17.75C19.75 19.2692 18.5192 20.5 17 20.5C15.4808 20.5 14.25 19.2692 14.25 17.75ZM17 16.5C16.3092 16.5 15.75 17.0592 15.75 17.75C15.75 18.4408 16.3092 19 17 19C17.6908 19 18.25 18.4408 18.25 17.75C18.25 17.0592 17.6908 16.5 17 16.5Z" fill="#17191A"/>
<path fill-rule="evenodd" clip-rule="evenodd" d="M19 17H21V18.5H19V17Z" fill="#17191A"/>
<path fill-rule="evenodd" clip-rule="evenodd" d="M3 17H13V18.5H3V17Z" fill="#17191A"/>
</svg>
