<svg width="24" height="24" viewBox="0 0 24 24" fill="none" xmlns="http://www.w3.org/2000/svg">
<path d="M14 9C15.654 9 17 7.654 17 6C17 4.346 15.654 3 14 3C12.698 3 11.598 3.839 11.184 5H3V7H11.184C11.598 8.161 12.698 9 14 9Z" fill="#17191A"/>
<path d="M21 5H18V7H21V5Z" fill="#17191A"/>
<path d="M8 15C9.654 15 11 13.654 11 12C11 10.346 9.654 9 8 9C6.698 9 5.598 9.839 5.184 11H3V13H5.184C5.598 14.161 6.698 15 8 15Z" fill="#17191A"/>
<path d="M21 11H12V13H21V11Z" fill="#17191A"/>
<path d="M17 15C15.346 15 14 16.346 14 18C14 19.654 15.346 21 17 21C18.302 21 19.402 20.161 19.816 19H21V17H19.816C19.402 15.839 18.302 15 17 15Z" fill="#17191A"/>
<path d="M13 17H3V19H13V17Z" fill="#17191A"/>
</svg>
