<svg width="24" height="24" viewBox="0 0 24 24" fill="none" xmlns="http://www.w3.org/2000/svg">
<path d="M18 2C15.368 2 13.125 4.132 13 6.8V16.5C13 17.855 14.145 19 15.5 19C16.855 19 18 17.855 18 16.5V12C20.632 12 22.875 9.868 23 7.2V7C23 4.243 20.757 2 18 2ZM18 10H17C16.447 10 16 10.448 16 11V14H15V6.847C15.073 5.277 16.42 4 18 4C19.654 4 21 5.346 21 7V7.153C20.927 8.723 19.58 10 18 10Z" fill="#17191A"/>
<path d="M11 9.752C10.874 7.132 8.631 5 6 5C3.243 5 1 7.243 1 10V10.248C1.126 12.868 3.369 15 6 15V19.5C6 20.855 7.145 22 8.5 22C9.855 22 11 20.855 11 19.5V9.752ZM9 17H8V14C8 13.447 7.552 13 7 13H6C4.42 13 3.074 11.723 3 10.2V10C3 8.346 4.346 7 6 7C7.58 7 8.926 8.277 9 9.8V17Z" fill="#17191A"/>
</svg>
