<svg width="24" height="24" viewBox="0 0 24 24" fill="none" xmlns="http://www.w3.org/2000/svg">
<path fill-rule="evenodd" clip-rule="evenodd" d="M6 6.75C4.21421 6.75 2.75 8.21421 2.75 10V10.1812C2.83965 11.8698 4.30218 13.25 6 13.25H7C7.41421 13.25 7.75 13.5858 7.75 14V19.5C7.75 19.8858 8.11421 20.25 8.5 20.25C8.88579 20.25 9.25 19.8858 9.25 19.5V9.81882C9.16035 8.13016 7.69782 6.75 6 6.75ZM1.25 10C1.25 7.38579 3.38579 5.25 6 5.25C8.49654 5.25 10.6299 7.26064 10.7492 9.76433C10.7497 9.77621 10.75 9.7881 10.75 9.8V19.5C10.75 20.7142 9.71421 21.75 8.5 21.75C7.28579 21.75 6.25 20.7142 6.25 19.5V14.75H6C3.50346 14.75 1.37007 12.7394 1.25085 10.2357C1.25028 10.2238 1.25 10.2119 1.25 10.2V10Z" fill="#17191A"/>
<path fill-rule="evenodd" clip-rule="evenodd" d="M13.2508 6.76433C13.3701 4.26064 15.5035 2.25 18 2.25C20.6142 2.25 22.75 4.38579 22.75 7V7.2C22.75 7.2119 22.7497 7.22379 22.7492 7.23567C22.6299 9.73936 20.4965 11.75 18 11.75H17.75V16.5C17.75 17.7142 16.7142 18.75 15.5 18.75C14.2858 18.75 13.25 17.7142 13.25 16.5V6.8C13.25 6.7881 13.2503 6.77621 13.2508 6.76433ZM14.75 6.81882V16.5C14.75 16.8858 15.1142 17.25 15.5 17.25C15.8858 17.25 16.25 16.8858 16.25 16.5V11C16.25 10.5858 16.5858 10.25 17 10.25H18C19.6978 10.25 21.1603 8.86984 21.25 7.18118V7C21.25 5.21421 19.7858 3.75 18 3.75C16.3022 3.75 14.8397 5.13016 14.75 6.81882Z" fill="#17191A"/>
<path fill-rule="evenodd" clip-rule="evenodd" d="M6.25 18C6.25 17.5858 6.58579 17.25 7 17.25H10C10.4142 17.25 10.75 17.5858 10.75 18C10.75 18.4142 10.4142 18.75 10 18.75H7C6.58579 18.75 6.25 18.4142 6.25 18Z" fill="#17191A"/>
<path fill-rule="evenodd" clip-rule="evenodd" d="M13.25 15C13.25 14.5858 13.5858 14.25 14 14.25H17C17.4142 14.25 17.75 14.5858 17.75 15C17.75 15.4142 17.4142 15.75 17 15.75H14C13.5858 15.75 13.25 15.4142 13.25 15Z" fill="#17191A"/>
</svg>
