<svg width="24" height="24" viewBox="0 0 24 24" fill="none" xmlns="http://www.w3.org/2000/svg">
<path fill-rule="evenodd" clip-rule="evenodd" d="M11.9991 4.75006C7.99502 4.75006 4.74908 7.996 4.74908 12.0001C4.74908 16.0041 7.99502 19.2501 11.9991 19.2501C16.0031 19.2501 19.2491 16.0041 19.2491 12.0001C19.2491 7.996 16.0031 4.75006 11.9991 4.75006ZM3.24908 12.0001C3.24908 7.16757 7.16659 3.25006 11.9991 3.25006C16.8316 3.25006 20.7491 7.16757 20.7491 12.0001C20.7491 16.8326 16.8316 20.7501 11.9991 20.7501C7.16659 20.7501 3.24908 16.8326 3.24908 12.0001Z" fill="#17191A"/>
<path fill-rule="evenodd" clip-rule="evenodd" d="M21.4688 5.53039L18.4688 2.53039L19.5294 1.46973L22.5294 4.46973L21.4688 5.53039Z" fill="#17191A"/>
<path fill-rule="evenodd" clip-rule="evenodd" d="M5.52941 2.53039L2.52941 5.53039L1.46875 4.46973L4.46875 1.46973L5.52941 2.53039Z" fill="#17191A"/>
<path fill-rule="evenodd" clip-rule="evenodd" d="M15.9991 12.7501H7.99908V11.2501H15.9991V12.7501Z" fill="#17191A"/>
<path fill-rule="evenodd" clip-rule="evenodd" d="M11.2491 16.0001V8.00006H12.7491V16.0001H11.2491Z" fill="#17191A"/>
</svg>
