<svg width="24" height="24" viewBox="0 0 24 24" fill="none" xmlns="http://www.w3.org/2000/svg">
<path fill-rule="evenodd" clip-rule="evenodd" d="M12.2803 11.7803V8.53033H10.7803V13.2803H15.5303V11.7803H12.2803Z" fill="#17191A"/>
<path fill-rule="evenodd" clip-rule="evenodd" d="M11.5303 5.28033C7.52627 5.28033 4.28033 8.52627 4.28033 12.5303C4.28033 16.5344 7.52627 19.7803 11.5303 19.7803C15.5344 19.7803 18.7803 16.5344 18.7803 12.5303C18.7803 8.52627 15.5344 5.28033 11.5303 5.28033ZM2.78033 12.5303C2.78033 7.69784 6.69784 3.78033 11.5303 3.78033C16.3628 3.78033 20.2803 7.69784 20.2803 12.5303C20.2803 17.3628 16.3628 21.2803 11.5303 21.2803C6.69784 21.2803 2.78033 17.3628 2.78033 12.5303Z" fill="#17191A"/>
<path fill-rule="evenodd" clip-rule="evenodd" d="M21 6.06066L18 3.06066L19.0607 2L22.0607 5L21 6.06066Z" fill="#17191A"/>
<path fill-rule="evenodd" clip-rule="evenodd" d="M5.06066 3.06066L2.06066 6.06066L1 5L4 2L5.06066 3.06066Z" fill="#17191A"/>
</svg>
