<svg width="24" height="24" viewBox="0 0 24 24" fill="none" xmlns="http://www.w3.org/2000/svg">
<path d="M18.8535 2.0009L17.4393 3.41511L20.4395 6.41536L21.8537 5.00115L18.8535 2.0009Z" fill="#17191A"/>
<path d="M3.43971 2L0.439453 5.00025L1.85367 6.41447L4.85392 3.41421L3.43971 2Z" fill="#17191A"/>
<path d="M11.1466 3.70759C6.18459 3.70759 2.14659 7.74559 2.14659 12.7076C2.14659 17.6696 6.18459 21.7076 11.1466 21.7076C16.1086 21.7076 20.1466 17.6706 20.1466 12.7076C20.1466 7.74459 16.1096 3.70759 11.1466 3.70759ZM15.1466 13.7076H12.1466V16.7076H10.1466V13.7076H7.14659V11.7076H10.1466V8.70759H12.1466V11.7076H15.1466V13.7076Z" fill="#17191A"/>
</svg>
