<svg width="24" height="24" viewBox="0 0 24 24" fill="none" xmlns="http://www.w3.org/2000/svg">
<path fill-rule="evenodd" clip-rule="evenodd" d="M18.65 18.649C18.113 19.416 17.672 19.946 17.334 20.241C16.809 20.723 16.245 20.971 15.642 20.985C15.21 20.985 14.688 20.862 14.08 20.612C13.47 20.363 12.91 20.241 12.397 20.241C11.86 20.241 11.284 20.363 10.667 20.612C10.051 20.862 9.553 20.993 9.172 21.005C8.595 21.03 8.018 20.776 7.443 20.241C7.076 19.921 6.617 19.371 6.066 18.593C5.476 17.764 4.991 16.799 4.611 15.702C4.204 14.515 4 13.367 4 12.255C4 10.982 4.275 9.883 4.826 8.963C5.26 8.223 5.836 7.64 6.556 7.212C7.277 6.783 8.057 6.564 8.896 6.55C9.356 6.55 9.959 6.692 10.706 6.972C11.453 7.252 11.933 7.394 12.142 7.394C12.3 7.394 12.831 7.227 13.735 6.896C14.588 6.589 15.308 6.462 15.898 6.512C17.498 6.641 18.699 7.271 19.498 8.407C18.068 9.274 17.361 10.487 17.375 12.044C17.387 13.257 17.828 14.266 18.692 15.067C19.084 15.439 19.521 15.726 20.007 15.93C19.901 16.237 19.789 16.53 19.671 16.812C19.384 17.476 19.044 18.087 18.65 18.649ZM14.965 5.04C14.129 6.016 13.119 6.581 12.024 6.492C12.01 6.378 12.003 6.258 12.003 6.132C12.003 5.219 12.399 4.243 13.106 3.444C13.458 3.04 13.906 2.703 14.449 2.435C14.991 2.171 15.503 2.025 15.985 2C15.998 2.128 16.004 2.255 16.004 2.381C16.004 3.331 15.656 4.219 14.965 5.04Z" fill="#17191A"/>
</svg>
