<svg width="24" height="24" viewBox="0 0 24 24" fill="none" xmlns="http://www.w3.org/2000/svg">
<path fill-rule="evenodd" clip-rule="evenodd" d="M4.5 7.75V17.75C4.5 18.4408 5.05921 19 5.75 19H17.75C18.4408 19 19 18.4408 19 17.75V7.75H20.5V17.75C20.5 19.2692 19.2692 20.5 17.75 20.5H5.75C4.23079 20.5 3 19.2692 3 17.75V7.75H4.5Z" fill="#17191A"/>
<path fill-rule="evenodd" clip-rule="evenodd" d="M14.75 12.5H8.75V11H14.75V12.5Z" fill="#17191A"/>
<path fill-rule="evenodd" clip-rule="evenodd" d="M3.75 4.5C3.61193 4.5 3.5 4.61193 3.5 4.75V6.75C3.5 6.88807 3.61193 7 3.75 7H19.75C19.8881 7 20 6.88807 20 6.75V4.75C20 4.61193 19.8881 4.5 19.75 4.5H3.75ZM2 4.75C2 3.7835 2.7835 3 3.75 3H19.75C20.7165 3 21.5 3.7835 21.5 4.75V6.75C21.5 7.7165 20.7165 8.5 19.75 8.5H3.75C2.7835 8.5 2 7.7165 2 6.75V4.75Z" fill="#17191A"/>
</svg>
