<svg width="24" height="24" viewBox="0 0 24 24" fill="none" xmlns="http://www.w3.org/2000/svg">
<path d="M19.5069 10.493C18.5449 9.52997 17.2989 8.99997 15.9999 8.99997H6.91394L10.2069 5.70697L8.79294 4.29297L3.08594 9.99997L8.79294 15.707L10.2069 14.293L6.91394 11H15.9999C16.7649 11 17.5079 11.322 18.1419 11.953C18.6709 12.416 18.9999 13.201 18.9999 14C18.9999 14.765 18.6779 15.508 18.0479 16.141C17.4259 16.851 16.5909 17 15.9999 17H13.9999V19H15.9999C17.4209 19 18.6819 18.452 19.5069 17.507C20.4699 16.544 20.9999 15.299 20.9999 14C20.9999 12.62 20.4239 11.292 19.5069 10.493Z" fill="#17191A"/>
</svg>
