<svg width="24" height="24" viewBox="0 0 24 24" fill="none" xmlns="http://www.w3.org/2000/svg">
<path fill-rule="evenodd" clip-rule="evenodd" d="M1.25 12C1.25 6.08579 6.08579 1.25 12 1.25C17.9142 1.25 22.75 6.08579 22.75 12C22.75 17.9142 17.9142 22.75 12 22.75C6.08579 22.75 1.25 17.9142 1.25 12ZM12 2.75C6.91421 2.75 2.75 6.91421 2.75 12C2.75 17.0858 6.91421 21.25 12 21.25C17.0858 21.25 21.25 17.0858 21.25 12C21.25 6.91421 17.0858 2.75 12 2.75Z" fill="#17191A"/>
<path fill-rule="evenodd" clip-rule="evenodd" d="M12 6.93945L16.5303 11.4698L15.4697 12.5304L12 9.06077L8.53033 12.5304L7.46967 11.4698L12 6.93945Z" fill="#17191A"/>
<path fill-rule="evenodd" clip-rule="evenodd" d="M12.75 8V16H11.25V8H12.75Z" fill="#17191A"/>
</svg>
