<svg width="24" height="24" viewBox="0 0 24 24" fill="none" xmlns="http://www.w3.org/2000/svg">
<path fill-rule="evenodd" clip-rule="evenodd" d="M14.0001 5.25H16.0001C17.1978 5.25 18.3796 5.72754 19.313 6.65235C20.2918 7.5204 20.7501 8.83315 20.7501 10C20.7501 11.1977 20.2726 12.3794 19.3479 13.3128C18.4872 14.2847 17.2771 14.75 16.0001 14.75H4.50011V13.25H16.0001C16.9149 13.25 17.6974 12.9214 18.2357 12.3061L18.2521 12.2873L18.2698 12.2697C18.9336 11.6058 19.2501 10.7948 19.2501 10C19.2501 9.17439 18.9144 8.29658 18.3062 7.76443L18.2874 7.74799L18.2698 7.73033C17.6059 7.06649 16.7949 6.75 16.0001 6.75H14.0001V5.25Z" fill="#17191A"/>
<path fill-rule="evenodd" clip-rule="evenodd" d="M5.56077 14L10.0304 9.53033L8.96978 8.46967L3.43945 14L8.96978 19.5303L10.0304 18.4697L5.56077 14Z" fill="#17191A"/>
</svg>
