<svg width="24" height="24" viewBox="0 0 24 24" fill="none" xmlns="http://www.w3.org/2000/svg">
<path d="M19.5069 6.493C18.5449 5.53 17.2989 5 15.9999 5H13.9999V7H15.9999C16.7649 7 17.5079 7.322 18.1419 7.953C18.6709 8.416 18.9999 9.201 18.9999 10C18.9999 10.765 18.6779 11.508 18.0479 12.141C17.4259 12.851 16.5909 13 15.9999 13H6.91394L10.2069 9.707L8.79294 8.293L3.08594 14L8.79294 19.707L10.2069 18.293L6.91394 15H15.9999C17.4209 15 18.6819 14.452 19.5069 13.507C20.4699 12.544 20.9999 11.299 20.9999 10C20.9999 8.62 20.4239 7.292 19.5069 6.493Z" fill="#17191A"/>
</svg>
