<svg width="24" height="24" viewBox="0 0 24 24" fill="none" xmlns="http://www.w3.org/2000/svg">
<path d="M10.0303 5.53027L6.31055 9.25H16C17.1228 9.25 18.2314 9.66995 19.1348 10.4844L19.4902 10.8203C20.347 11.684 20.75 12.9061 20.75 14C20.75 15.1976 20.2723 16.3791 19.3477 17.3125C18.487 18.2844 17.2769 18.75 16 18.75H14V17.25H16C16.9146 17.25 17.697 16.9216 18.2354 16.3066L18.252 16.2871L18.2695 16.2695C18.9333 15.6057 19.25 14.7948 19.25 14C19.25 13.1744 18.9138 12.2968 18.3057 11.7646L18.2871 11.748L18.2695 11.7305C17.6057 11.0667 16.7948 10.75 16 10.75H6.31055L10.0303 14.4697L8.96973 15.5303L3.43945 10L8.96973 4.46973L10.0303 5.53027Z" fill="#17191A"/>
</svg>
