<svg width="24" height="24" viewBox="0 0 24 24" fill="none" xmlns="http://www.w3.org/2000/svg">
<path d="M18.728 2.65175L12.729 1.15175C12.253 1.03275 11.749 1.03275 11.272 1.15175L5.272 2.65175C3.934 2.98675 3 4.18375 3 5.56175V14.9998C3 15.9388 3.449 16.8358 4.2 17.3988L10.2 21.8988C10.73 22.2957 11.365 22.4948 12 22.4948C12.635 22.4948 13.271 22.2968 13.8 21.8988L19.8 17.3988C20.552 16.8358 21 15.9388 21 14.9998V5.56175C21 4.18275 20.065 2.98575 18.728 2.65175ZM13.114 10.6617L13.667 12.7438C13.836 13.3788 13.358 14.0008 12.701 14.0008H11.28C10.63 14.0008 10.152 13.3907 10.309 12.7598L10.839 10.6237C10.333 10.2607 10 9.67075 10 9.00075C10 7.74975 11.148 6.76775 12.447 7.04875C13.152 7.20075 13.743 7.75675 13.928 8.45375C14.169 9.36375 13.786 10.2107 13.114 10.6617Z" fill="#17191A"/>
</svg>
