<svg width="24" height="24" viewBox="0 0 24 24" fill="none" xmlns="http://www.w3.org/2000/svg">
<path fill-rule="evenodd" clip-rule="evenodd" d="M12.668 1.395L18.6665 2.89463C19.8905 3.20013 20.75 4.30031 20.75 5.56233V15.0003C20.75 15.8664 20.3429 16.6807 19.65 17.2003L13.65 21.7003C12.6724 22.4332 11.3277 22.4333 10.3501 21.7004L4.35 17.2003C3.65715 16.6807 3.25 15.8664 3.25 15.0003V5.56233C3.25 4.3008 4.10954 3.2013 5.33271 2.89482L11.332 1.395C11.7697 1.285 12.2303 1.285 12.668 1.395ZM12.302 2.84967C12.1041 2.79989 11.8959 2.79989 11.698 2.84967L5.69729 4.34984C5.14046 4.48936 4.75 4.98986 4.75 5.56233V15.0003C4.75 15.3943 4.93485 15.764 5.25 16.0003L11.2499 20.5002C11.6942 20.8333 12.3058 20.8333 12.7501 20.5002L18.75 16.0003C19.0651 15.764 19.25 15.3943 19.25 15.0003V5.56233C19.25 4.98849 18.8593 4.48867 18.3035 4.35004L12.302 2.84967Z" fill="#17191A"/>
<path fill-rule="evenodd" clip-rule="evenodd" d="M12.6051 6.31618C10.8303 5.93257 9.25 7.28139 9.25 9.00133L12.6051 6.31618ZM12.2884 7.78238C11.4654 7.60435 10.75 8.21944 10.75 9.00133C10.75 9.41546 10.9547 9.78431 11.2762 10.0149L11.6894 10.3114L11.0369 12.941C10.9979 13.0977 11.1164 13.2513 11.28 13.2513H12.701C12.8652 13.2513 12.9846 13.0963 12.9422 12.9372L12.2518 10.3377L12.6961 10.0396C13.1157 9.75794 13.3579 9.23098 13.2031 8.64674M12.6051 6.31618C13.5808 6.52676 14.3944 7.28816 14.6529 8.26193C14.9252 9.28881 14.6079 10.271 13.9609 10.9292L14.3918 12.5514C14.6874 13.6623 13.8508 14.7513 12.701 14.7513H11.28C10.1437 14.7513 9.30642 13.6848 9.58107 12.5797L10.0017 10.8844C9.53892 10.395 9.25 9.73408 9.25 9.00133M12.2884 7.78238C12.7224 7.87594 13.0915 8.22676 13.2031 8.64674L12.2884 7.78238Z" fill="#17191A"/>
</svg>
