<svg width="24" height="24" viewBox="0 0 24 24" fill="none" xmlns="http://www.w3.org/2000/svg">
<path d="M16.9533 4.05C15.6313 2.728 13.8733 2 12.0043 2C10.1353 2 8.37727 2.728 7.05427 4.05C5.73227 5.373 5.00427 7.131 5.00427 9C5.00427 10.869 5.73227 12.627 7.05427 13.949C8.37627 15.271 10.1343 16 12.0043 16C13.8743 16 15.6323 15.271 16.9533 13.949C18.2753 12.628 19.0043 10.87 19.0043 9C19.0043 7.13 18.2753 5.372 16.9533 4.05Z" fill="#17191A"/>
<path d="M5.64027 15.363C5.39727 15.12 5.17427 14.862 4.96227 14.597C4.95027 14.582 4.94027 14.567 4.92827 14.552C4.72427 14.293 4.53827 14.024 4.36527 13.747L2.14127 17.48C1.95127 17.8 1.95127 18.2 2.15127 18.52C2.34127 18.84 2.70127 19.02 3.07127 18.99L6.18127 18.77L7.55127 21.46C7.72127 21.78 8.05127 21.99 8.41127 22H8.44127C8.79127 22 9.12127 21.82 9.30127 21.51L11.4183 17.971C9.23527 17.831 7.20127 16.924 5.64027 15.363Z" fill="#17191A"/>
<path d="M21.8613 17.49L19.6463 13.742C19.4733 14.02 19.2863 14.29 19.0813 14.55C19.0693 14.565 19.0593 14.581 19.0473 14.596C18.8353 14.862 18.6113 15.12 18.3673 15.364C18.3503 15.381 18.3313 15.396 18.3133 15.413C16.7643 16.939 14.7563 17.83 12.6013 17.971L14.7103 21.51C14.8903 21.82 15.2103 22 15.5603 22H15.6003C15.9603 21.99 16.2903 21.78 16.4503 21.46L17.8303 18.77L20.9303 18.99C21.3003 19.02 21.6503 18.84 21.8503 18.52C22.0403 18.21 22.0513 17.81 21.8613 17.49Z" fill="#17191A"/>
</svg>
