<svg width="24" height="24" viewBox="0 0 24 24" fill="none" xmlns="http://www.w3.org/2000/svg">
<path d="M11.7525 15.5C9.9525 15.5 8.2525 14.8 6.9825 13.52C5.7125 12.24 5.0025 10.55 5.0025 8.75C5.0025 6.95 5.7025 5.25 6.9825 3.98C8.2625 2.71 9.9525 2 11.7525 2C13.5525 2 15.2525 2.7 16.5225 3.98C17.7925 5.26 18.5025 6.95 18.5025 8.75C18.5025 10.55 17.8025 12.25 16.5225 13.52C15.2425 14.79 13.5525 15.5 11.7525 15.5ZM11.7525 3.5C10.3525 3.5 9.0325 4.05 8.0425 5.04C7.0525 6.03 6.5025 7.35 6.5025 8.75C6.5025 10.15 7.0525 11.47 8.0425 12.46C9.0325 13.45 10.3525 14 11.7525 14C13.1525 14 14.4725 13.45 15.4625 12.46C16.4525 11.47 17.0025 10.15 17.0025 8.75C17.0025 7.35 16.4525 6.03 15.4625 5.04C14.4725 4.05 13.1525 3.5 11.7525 3.5Z" fill="#17191A"/>
<path d="M15.3125 21.5C15.0525 21.5 14.8025 21.36 14.6725 21.13L11.1125 15.17C10.9025 14.81 11.0125 14.35 11.3725 14.14C11.7225 13.93 12.1925 14.04 12.4025 14.4L15.2625 19.2L16.3225 17.13C16.4625 16.86 16.7325 16.71 17.0425 16.72L19.3725 16.89L16.4225 11.9C16.2125 11.54 16.3325 11.08 16.6825 10.87C17.0425 10.66 17.5025 10.78 17.7125 11.13L21.3925 17.35C21.5325 17.59 21.5325 17.89 21.3925 18.13C21.2525 18.37 20.9925 18.5 20.7025 18.48L17.4325 18.25L15.9825 21.08C15.8625 21.32 15.6125 21.48 15.3425 21.49H15.3225L15.3125 21.5Z" fill="#17191A"/>
<path d="M8.1925 21.5H8.1725C7.9025 21.5 7.6525 21.33 7.5325 21.09L6.0825 18.26L2.8025 18.49C2.5225 18.51 2.2525 18.37 2.1125 18.14C1.9625 17.9 1.9625 17.6 2.1125 17.36L5.8025 11.18C6.0125 10.82 6.4725 10.71 6.8325 10.92C7.1925 11.13 7.3025 11.59 7.0925 11.95L4.1425 16.9L6.4825 16.73C6.7925 16.72 7.0625 16.87 7.2025 17.14L8.2625 19.21L11.1225 14.41C11.3325 14.05 11.7925 13.94 12.1525 14.15C12.5125 14.36 12.6225 14.82 12.4125 15.18L8.8525 21.14C8.7125 21.37 8.4725 21.51 8.2125 21.51L8.1925 21.5Z" fill="#17191A"/>
</svg>
