<svg width="24" height="24" viewBox="0 0 24 24" fill="none" xmlns="http://www.w3.org/2000/svg">
<path d="M12 2.25C13.7665 2.25 15.204 3.66111 15.248 5.41699C17.2652 5.96552 18.75 7.80975 18.75 10V12.25H20C21.5182 12.25 22.75 13.4818 22.75 15V19C22.75 20.5182 21.5182 21.75 20 21.75H18.75V22C18.75 22.4142 18.4142 22.75 18 22.75H6C5.58579 22.75 5.25 22.4142 5.25 22V21.75H4C2.48179 21.75 1.25 20.5182 1.25 19V15C1.25 13.4818 2.48179 12.25 4 12.25H5.25V10C5.25 7.81008 6.73427 5.96583 8.75098 5.41699C8.79505 3.6611 10.2335 2.25 12 2.25ZM10 6.75C8.20621 6.75 6.75 8.20621 6.75 10V21.25H17.25V10C17.25 8.20621 15.7938 6.75 14 6.75H10ZM4 13.75C3.31021 13.75 2.75 14.3102 2.75 15V19C2.75 19.6898 3.31021 20.25 4 20.25H5.25V13.75H4ZM18.75 20.25H20C20.6898 20.25 21.25 19.6898 21.25 19V15C21.25 14.3102 20.6898 13.75 20 13.75H18.75V20.25ZM15.0771 13.2539C15.4551 13.2925 15.75 13.6118 15.75 14V18C15.75 18.4142 15.4142 18.75 15 18.75H9C8.58579 18.75 8.25 18.4142 8.25 18V14L8.25391 13.9229C8.29253 13.5449 8.61183 13.25 9 13.25H15L15.0771 13.2539ZM9.75 17.25H14.25V14.75H9.75V17.25ZM14 9.25C14.4142 9.25 14.75 9.58579 14.75 10C14.75 10.4142 14.4142 10.75 14 10.75H10C9.58579 10.75 9.25 10.4142 9.25 10C9.25 9.58579 9.58579 9.25 10 9.25H14ZM12 3.75C11.1192 3.75 10.3921 4.40263 10.2705 5.25H13.7305C13.6089 4.40256 12.8808 3.75 12 3.75Z" fill="#17191A"/>
</svg>
