<svg width="24" height="24" viewBox="0 0 24 24" fill="none" xmlns="http://www.w3.org/2000/svg">
<path d="M15 13H9C8.448 13 8 13.447 8 14V18C8 18.553 8.448 19 9 19H15C15.553 19 16 18.553 16 18V14C16 13.447 15.553 13 15 13ZM14 17H10V15H14V17Z" fill="#17191A"/>
<path d="M20 12H19V8C20.103 8 21 7.103 21 6V3C21 1.897 20.103 1 19 1H5C3.897 1 3 1.897 3 3V6C3 7.103 3.897 8 5 8V12H4C2.346 12 1 13.346 1 15V19C1 20.654 2.346 22 4 22H5C5 22.553 5.448 23 6 23H18C18.553 23 19 22.553 19 22H20C21.654 22 23 20.654 23 19V15C23 13.346 21.654 12 20 12ZM19 6H16V3H19V6ZM14 9H10V8H14V9ZM10 6V3H14V6H10ZM4.999 3H8V6H5L4.999 3ZM4 20C3.449 20 3 19.552 3 19V15C3 14.448 3.449 14 4 14H5V20H4ZM7 21V8H8V12H10V11H14V12H16V8H17V21H7ZM21 19C21 19.552 20.552 20 20 20H19V14H20C20.552 14 21 14.448 21 15V19Z" fill="#17191A"/>
</svg>
