<svg width="24" height="24" viewBox="0 0 24 24" fill="none" xmlns="http://www.w3.org/2000/svg">
<path d="M14 9.25C14.4142 9.25 14.75 9.58579 14.75 10C14.75 10.4142 14.4142 10.75 14 10.75H10C9.58579 10.75 9.25 10.4142 9.25 10C9.25 9.58579 9.58579 9.25 10 9.25H14Z" fill="#17191A"/>
<path d="M18 6.25L18.0771 6.25391C18.4551 6.29253 18.75 6.61183 18.75 7V22C18.75 22.4142 18.4142 22.75 18 22.75H6C5.58579 22.75 5.25 22.4142 5.25 22V7L5.25391 6.92285C5.29253 6.54488 5.61183 6.25 6 6.25H18ZM6.75 21.25H17.25V7.75H6.75V21.25Z" fill="#17191A"/>
<path d="M15 13.25L15.0771 13.2539C15.4551 13.2925 15.75 13.6118 15.75 14V18C15.75 18.4142 15.4142 18.75 15 18.75H9C8.58579 18.75 8.25 18.4142 8.25 18V14L8.25391 13.9229C8.29253 13.5449 8.61183 13.25 9 13.25H15ZM9.75 17.25H14.25V14.75H9.75V17.25Z" fill="#17191A"/>
<path d="M19.25 3C19.25 2.86193 19.1381 2.75 19 2.75H5C4.86193 2.75 4.75 2.86193 4.75 3V6C4.75 6.13807 4.86193 6.25 5 6.25H19C19.1381 6.25 19.25 6.13807 19.25 6V3ZM20.75 6C20.75 6.9665 19.9665 7.75 19 7.75H5C4.0335 7.75 3.25 6.9665 3.25 6V3C3.25 2.0335 4.0335 1.25 5 1.25H19C19.9665 1.25 20.75 2.0335 20.75 3V6Z" fill="#17191A"/>
<path d="M6 12.25L6.07715 12.2539C6.45512 12.2925 6.75 12.6118 6.75 13V21C6.75 21.4142 6.41421 21.75 6 21.75H4C2.48179 21.75 1.25 20.5182 1.25 19V15C1.25 13.4818 2.48179 12.25 4 12.25H6ZM2.75 19C2.75 19.6898 3.31021 20.25 4 20.25H5.25V13.75H4C3.31021 13.75 2.75 14.3102 2.75 15V19Z" fill="#17191A"/>
<path d="M21.25 15C21.25 14.3102 20.6898 13.75 20 13.75H18.75V20.25H20C20.6898 20.25 21.25 19.6898 21.25 19V15ZM22.75 19C22.75 20.5182 21.5182 21.75 20 21.75H18C17.5858 21.75 17.25 21.4142 17.25 21V13L17.2539 12.9229C17.2925 12.5449 17.6118 12.25 18 12.25H20C21.5182 12.25 22.75 13.4818 22.75 15V19Z" fill="#17191A"/>
<path d="M9.75 2V12H8.25V2H9.75Z" fill="#17191A"/>
<path d="M15.75 2V12H14.25V2H15.75Z" fill="#17191A"/>
</svg>
