<svg width="24" height="24" viewBox="0 0 24 24" fill="none" xmlns="http://www.w3.org/2000/svg">
<path d="M10 11H14C14.553 11 15 10.552 15 10C15 9.448 14.553 9 14 9H10C9.448 9 9 9.448 9 10C9 10.552 9.448 11 10 11Z" fill="#17191A"/>
<path d="M15 13H9C8.448 13 8 13.447 8 14V18C8 18.553 8.448 19 9 19H15C15.553 19 16 18.553 16 18V14C16 13.447 15.553 13 15 13Z" fill="#17191A"/>
<path d="M20 12H19V10C19 7.76 17.509 5.881 15.474 5.247C15.342 3.437 13.843 2 12 2C10.157 2 8.658 3.437 8.526 5.247C6.492 5.881 5 7.759 5 10V12H4C2.346 12 1 13.346 1 15V19C1 20.654 2.346 22 4 22H5C5 22.553 5.448 23 6 23H18C18.553 23 19 22.553 19 22H20C21.654 22 23 20.654 23 19V15C23 13.346 21.654 12 20 12ZM12 4C12.652 4 13.208 4.418 13.414 5H10.585C10.792 4.418 11.348 4 12 4ZM4 20C3.449 20 3 19.552 3 19V15C3 14.448 3.449 14 4 14H5V20H4ZM7 21V10C7 8.346 8.346 7 10 7H14C15.654 7 17 8.346 17 10V21H7ZM21 19C21 19.552 20.552 20 20 20H19V14H20C20.552 14 21 14.448 21 15V19Z" fill="#17191A"/>
</svg>
