<svg width="24" height="24" viewBox="0 0 24 24" fill="none" xmlns="http://www.w3.org/2000/svg">
<path fill-rule="evenodd" clip-rule="evenodd" d="M12 3.75C9.89197 3.75 7.95896 4.54688 6.50153 5.85765L6.49903 5.85989C4.81261 7.36301 3.75 9.56189 3.75 12C3.75 14.4381 4.81261 16.637 6.49903 18.1401L6.50153 18.1424C7.95896 19.4531 9.89197 20.25 12 20.25C14.108 20.25 16.041 19.4531 17.4985 18.1424L17.501 18.1401C19.1874 16.637 20.25 14.4381 20.25 12C20.25 9.56189 19.1874 7.363 17.501 5.85989L17.4985 5.85765C16.041 4.54688 14.108 3.75 12 3.75ZM5.49973 4.74122C7.22215 3.19267 9.50864 2.25 12 2.25C14.4914 2.25 16.7779 3.19267 18.5003 4.74123C20.4931 6.51809 21.75 9.11871 21.75 12C21.75 14.8813 20.4932 17.4819 18.5003 19.2587C16.7779 20.8073 14.4914 21.75 12 21.75C9.50863 21.75 7.22215 20.8073 5.49972 19.2588C3.50687 17.4819 2.25 14.8813 2.25 12C2.25 9.11871 3.50687 6.51808 5.49973 4.74122Z" fill="#17191A"/>
<path fill-rule="evenodd" clip-rule="evenodd" d="M9.34867 14.6513C7.62468 12.9273 5.31876 12.1245 3.0629 12.2538C2.64936 12.2775 2.29492 11.9614 2.27123 11.5479C2.24753 11.1344 2.56356 10.7799 2.9771 10.7562C5.64324 10.6035 8.37132 11.5527 10.4093 13.5907C12.4472 15.6285 13.3976 18.3566 13.2438 21.0232C13.2199 21.4367 12.8653 21.7526 12.4518 21.7288C12.0383 21.7049 11.7224 21.3503 11.7462 20.9368C11.8764 18.6814 11.0728 16.3755 9.34867 14.6513Z" fill="#17191A"/>
<path fill-rule="evenodd" clip-rule="evenodd" d="M11.5482 2.27125C11.9617 2.29511 12.2776 2.64968 12.2538 3.0632C12.1236 5.31863 12.9272 7.62453 14.6513 9.34867C16.3753 11.0727 18.6812 11.8755 20.9371 11.7462C21.3506 11.7225 21.7051 12.0386 21.7288 12.4521C21.7525 12.8656 21.4364 13.2201 21.0229 13.2438C18.3568 13.3965 15.6287 12.4473 13.5907 10.4093C11.5528 8.37147 10.6024 5.64337 10.7562 2.9768C10.7801 2.56327 11.1347 2.24738 11.5482 2.27125Z" fill="#17191A"/>
</svg>
