<svg width="24" height="24" viewBox="0 0 24 24" fill="none" xmlns="http://www.w3.org/2000/svg">
<path d="M21.977 12.432C21.983 12.288 22 12.145 22 12C22 9.157 20.784 6.442 18.669 4.556C16.836 2.908 14.467 2 12 2C9.533 2 7.165 2.908 5.334 4.553C3.329 6.34 2.147 8.867 2.024 11.542C2.024 11.549 2.021 11.555 2.021 11.562C2.021 11.564 2.022 11.566 2.023 11.568C2.017 11.712 2 11.855 2 12C2 14.843 3.215 17.557 5.332 19.443C7.165 21.091 9.533 22 12 22C12.153 22 12.303 21.986 12.455 21.979C12.469 21.979 12.482 21.98 12.496 21.98C12.504 21.98 12.51 21.976 12.518 21.976C14.796 21.858 16.965 20.976 18.666 19.446C20.669 17.659 21.852 15.132 21.976 12.458C21.976 12.451 21.979 12.445 21.979 12.437C21.979 12.435 21.978 12.433 21.977 12.431V12.432ZM19.973 11.49C18.05 11.37 16.209 10.552 14.828 9.172C13.445 7.789 12.629 5.951 12.51 4.024C14.297 4.138 15.994 4.841 17.335 6.047C18.901 7.443 19.839 9.406 19.973 11.491V11.49ZM4.027 12.51C5.95 12.63 7.79 13.447 9.172 14.828C10.555 16.211 11.371 18.049 11.49 19.976C9.703 19.862 8.006 19.159 6.666 17.954C5.1 16.557 4.161 14.595 4.027 12.51ZM17.331 17.957C16.239 18.939 14.909 19.591 13.486 19.86C13.338 17.446 12.317 15.145 10.586 13.414C8.858 11.685 6.556 10.665 4.148 10.515C4.473 8.801 5.347 7.222 6.669 6.043C7.761 5.061 9.091 4.409 10.515 4.14C10.663 6.554 11.684 8.855 13.415 10.586C15.144 12.315 17.442 13.329 19.854 13.479C19.53 15.195 18.655 16.776 17.332 17.957H17.331Z" fill="#17191A"/>
</svg>
