<svg width="24" height="24" viewBox="0 0 24 24" fill="none" xmlns="http://www.w3.org/2000/svg">
<path d="M21.1791 13.2002C19.4091 13.2002 17.6891 13.7902 16.2991 14.8902L19.7391 18.3302C20.9291 16.8602 21.6891 15.1002 21.9091 13.2402C21.8191 13.2202 21.7291 13.2202 21.6391 13.2102C21.4891 13.2102 21.3291 13.2002 21.1791 13.2002Z" fill="#17191A"/>
<path d="M14.8591 13.4499C16.7891 11.8799 19.2391 11.0799 21.7491 11.2199C21.8191 11.2199 21.8891 11.2299 21.9591 11.2299C21.8091 9.18992 21.0291 7.24992 19.7391 5.66992L13.4091 11.9999L14.8591 13.4499Z" fill="#17191A"/>
<path d="M10.7891 2.36984C10.7791 2.27984 10.7791 2.17984 10.7591 2.08984C8.89906 2.30984 7.13906 3.06984 5.66906 4.25984L9.10906 7.69984C10.2991 6.18984 10.8991 4.28984 10.7891 2.36984Z" fill="#17191A"/>
<path d="M10.5491 9.14004L11.9991 10.59L18.3291 4.26004C16.7491 2.97004 14.8191 2.19004 12.7691 2.04004C12.7691 2.11004 12.7791 2.19004 12.7791 2.26004C12.9191 4.76004 12.1191 7.21004 10.5491 9.14004Z" fill="#17191A"/>
<path d="M13.4491 14.8602L11.9991 13.4102L5.66906 19.7402C7.24906 21.0302 9.17906 21.8102 11.2291 21.9602C11.2291 21.8902 11.2191 21.8102 11.2191 21.7402C11.0791 19.2402 11.8791 16.7902 13.4491 14.8602Z" fill="#17191A"/>
<path d="M13.2091 21.6298C13.2191 21.7198 13.2191 21.8198 13.2391 21.9098C15.0991 21.6898 16.8691 20.9398 18.3291 19.7398L14.8891 16.2998C13.6991 17.8098 13.0991 19.7098 13.2091 21.6298Z" fill="#17191A"/>
<path d="M7.69906 9.10992L4.25906 5.66992C3.06906 7.13992 2.30906 8.89992 2.08906 10.7599C2.17906 10.7799 2.26906 10.7799 2.35906 10.7899C4.29906 10.8999 6.18906 10.2999 7.69906 9.10992Z" fill="#17191A"/>
<path d="M9.13906 10.5498C8.37906 11.1698 7.53906 11.6698 6.63906 12.0398C5.43906 12.5398 4.13906 12.7998 2.81906 12.7998C2.62906 12.7998 2.43906 12.7898 2.24906 12.7798C2.17906 12.7798 2.10906 12.7698 2.03906 12.7698C2.18906 14.8098 2.96906 16.7498 4.25906 18.3298L10.5891 11.9998L9.13906 10.5498Z" fill="#17191A"/>
</svg>
