<svg width="24" height="24" viewBox="0 0 24 24" fill="none" xmlns="http://www.w3.org/2000/svg">
<path fill-rule="evenodd" clip-rule="evenodd" d="M12.4523 3.76848C10.1969 3.63834 7.89099 4.44191 6.16685 6.16605C4.44286 7.89004 3.64004 10.196 3.76929 12.4518L3.76948 12.4551C3.87305 14.412 4.67662 16.3432 6.16685 17.8334C7.65708 19.3236 9.58819 20.1272 11.5452 20.2308L11.5487 20.231C13.8042 20.3611 16.11 19.5575 17.8342 17.8334C19.5582 16.1094 20.361 13.8035 20.2317 11.5476L20.2316 11.5444C20.128 9.5874 19.3244 7.65628 17.8342 6.16605C16.344 4.67582 14.4128 3.87225 12.4559 3.76867L12.4523 3.76848ZM12.5369 2.27086C9.87094 2.11753 7.14359 3.06799 5.10619 5.10539C3.06859 7.14298 2.11938 9.87037 2.27165 12.536C2.39443 14.8485 3.34483 17.1327 5.10619 18.8941C6.86747 20.6553 9.15157 21.6057 11.464 21.7286C14.13 21.8819 16.8574 20.9315 18.8948 18.8941C20.9324 16.8565 21.8817 14.1291 21.7294 11.4635C21.6066 9.15097 20.6562 6.86675 18.8948 5.10539C17.1335 3.34407 14.8494 2.39368 12.5369 2.27086Z" fill="#17191A"/>
<path fill-rule="evenodd" clip-rule="evenodd" d="M11.8096 2.26285C12.2238 2.27064 12.5532 2.61268 12.5454 3.02682C12.4999 5.4478 11.5489 7.85596 9.70285 9.70205C7.85738 11.5475 5.4425 12.5061 3.02062 12.5516C2.60647 12.5594 2.26444 12.23 2.25665 11.8158C2.24886 11.4017 2.57828 11.0596 2.99242 11.0519C5.03854 11.0134 7.07965 10.2039 8.64219 8.64139C10.2041 7.07948 11.0072 5.04565 11.0456 2.99862C11.0534 2.58448 11.3955 2.25507 11.8096 2.26285Z" fill="#17191A"/>
<path fill-rule="evenodd" clip-rule="evenodd" d="M21.7374 12.1906C21.7452 12.6048 21.4157 12.9468 21.0016 12.9546C18.9536 12.9931 16.9208 13.7961 15.3588 15.3581C13.7963 16.9206 12.9869 18.9617 12.9484 21.0078C12.9406 21.422 12.5986 21.7514 12.1844 21.7436C11.7703 21.7358 11.4409 21.3938 11.4486 20.9796C11.4942 18.5577 12.4527 16.1429 14.2982 14.2974C16.1442 12.4513 18.5514 11.5004 20.9734 11.4549C21.3876 11.4471 21.7296 11.7765 21.7374 12.1906Z" fill="#17191A"/>
<path fill-rule="evenodd" clip-rule="evenodd" d="M5.10619 5.10539C5.39908 4.8125 5.87395 4.8125 6.16685 5.10539L18.8948 17.8334C19.1877 18.1263 19.1877 18.6012 18.8948 18.8941C18.602 19.1869 18.1271 19.1869 17.8342 18.8941L5.10619 6.16605C4.81329 5.87316 4.81329 5.39828 5.10619 5.10539Z" fill="#17191A"/>
<path fill-rule="evenodd" clip-rule="evenodd" d="M18.8948 5.10539C19.1877 5.39828 19.1877 5.87316 18.8948 6.16605L6.16685 18.8941C5.87395 19.1869 5.39908 19.1869 5.10619 18.8941C4.81329 18.6012 4.81329 18.1263 5.10619 17.8334L17.8342 5.10539C18.1271 4.8125 18.602 4.8125 18.8948 5.10539Z" fill="#17191A"/>
</svg>
