<svg width="24" height="24" viewBox="0 0 24 24" fill="none" xmlns="http://www.w3.org/2000/svg">
<path d="M21.0004 19.25V20.75H3.00038V19.25H21.0004Z" fill="#17191A"/>
<path d="M10.6673 12.3421C9.57436 13.7699 9.09394 15.6435 8.89977 17.221C8.80381 18.0005 8.78033 18.6871 8.78063 19.177C8.78064 19.202 8.78245 19.2264 8.78258 19.2503H11.9974C11.8538 18.8418 11.6819 18.332 11.513 17.7542C11.0842 16.2866 10.6418 14.3353 10.6498 12.5159L11.3998 12.5188L12.1498 12.5227C12.1428 14.128 12.5386 15.9168 12.9525 17.3333C13.1576 18.0353 13.3639 18.6333 13.5179 19.0549C13.5948 19.2654 13.6583 19.4318 13.7025 19.5442C13.7245 19.6002 13.7419 19.643 13.7533 19.6712C13.7589 19.685 13.7632 19.6958 13.766 19.7024C13.7673 19.7057 13.7683 19.7088 13.7689 19.7102L13.7699 19.7112L14.2035 20.7503H7.36559L7.30895 20.0618V20.0589C7.30886 20.0578 7.30809 20.0565 7.30797 20.0549C7.3077 20.0515 7.30742 20.0461 7.30699 20.0403C7.30614 20.0287 7.30539 20.012 7.30406 19.9915C7.30138 19.9499 7.29771 19.8902 7.2943 19.8147C7.28746 19.6633 7.2808 19.4466 7.28063 19.178C7.2803 18.641 7.30648 17.8916 7.41149 17.0383C7.61932 15.3498 8.14695 13.1661 9.47594 11.4299L10.6673 12.3421Z" fill="#17191A"/>
<path d="M10.2504 10.5C10.2504 10.0858 9.91459 9.75 9.50038 9.75C9.08617 9.75 8.75038 10.0858 8.75038 10.5C8.75038 10.9142 9.08617 11.25 9.50038 11.25C9.91459 11.25 10.2504 10.9142 10.2504 10.5ZM11.7504 10.5C11.7504 11.7426 10.743 12.75 9.50038 12.75C8.25774 12.75 7.25038 11.7426 7.25038 10.5C7.25038 9.25736 8.25774 8.25 9.50038 8.25C10.743 8.25 11.7504 9.25736 11.7504 10.5Z" fill="#17191A"/>
<path d="M13.2504 11.5C13.2504 11.0858 12.9146 10.75 12.5004 10.75C12.0862 10.75 11.7504 11.0858 11.7504 11.5C11.7504 11.9142 12.0862 12.25 12.5004 12.25C12.9146 12.25 13.2504 11.9142 13.2504 11.5ZM14.7504 11.5C14.7504 12.7426 13.743 13.75 12.5004 13.75C11.2577 13.75 10.2504 12.7426 10.2504 11.5C10.2504 10.2574 11.2577 9.25 12.5004 9.25C13.743 9.25 14.7504 10.2574 14.7504 11.5Z" fill="#17191A"/>
<path d="M15.0004 3.25C16.0971 3.25 17.4215 3.51983 18.432 3.77246C18.9458 3.9009 19.3953 4.02874 19.7162 4.125C19.8767 4.17316 20.0057 4.21373 20.0951 4.24219C20.1397 4.25638 20.1746 4.26754 20.1986 4.27539C20.2107 4.27932 20.2204 4.28301 20.2269 4.28516C20.2297 4.28608 20.2321 4.28654 20.2338 4.28711L20.2367 4.28809L20.3568 4.33984C20.6209 4.48228 20.7792 4.77334 20.7465 5.08008C20.7089 5.43036 20.4317 5.70584 20.0814 5.74414L20.0824 5.74512H20.0844C20.084 5.74516 20.082 5.74578 20.0795 5.74609C20.0744 5.74672 20.0652 5.7472 20.0521 5.74902C20.0258 5.75271 19.9836 5.75975 19.9271 5.76953C19.8141 5.7891 19.6445 5.82237 19.431 5.87598C19.0032 5.98344 18.4035 6.17144 17.7328 6.49023C16.3935 7.12682 14.7815 8.27889 13.6605 10.3564L12.3402 9.64355C13.6472 7.22131 15.5356 5.87317 17.0892 5.13477C17.1546 5.10371 17.2194 5.07388 17.2836 5.04492C16.4978 4.8774 15.6734 4.75 15.0004 4.75C13.4986 4.75 12.6796 5.83529 12.2123 7.2373C11.9844 7.92084 11.8669 8.61504 11.808 9.14551C11.7788 9.40874 11.7644 9.62762 11.7572 9.77832C11.7536 9.85333 11.7522 9.91125 11.7514 9.94922C11.7509 9.96823 11.7505 9.98263 11.7504 9.99121V10C11.7491 9.99981 11.7184 10 11.0004 10L10.2504 9.99902V9.97461C10.2505 9.96051 10.2508 9.94085 10.2514 9.91602C10.2525 9.86617 10.2549 9.79484 10.2592 9.70605C10.2676 9.5287 10.2845 9.2784 10.3178 8.97949C10.3838 8.38498 10.5163 7.57906 10.7885 6.7627C11.3211 5.16471 12.5022 3.25 15.0004 3.25Z" fill="#17191A"/>
<path d="M6.00038 4.25C8.37315 4.25 9.82615 5.75129 10.6439 7.11426C11.0549 7.7993 11.3257 8.47787 11.4935 8.98145C11.5779 9.23458 11.6372 9.44729 11.6762 9.59863C11.6956 9.67425 11.7103 9.73518 11.7201 9.77832C11.7249 9.79954 11.7282 9.81663 11.7308 9.8291C11.7322 9.83531 11.733 9.84083 11.7338 9.84473C11.7342 9.84657 11.7345 9.8483 11.7348 9.84961L11.7357 9.85156L10.265 10.1475L10.2641 10.1416C10.2627 10.1352 10.2596 10.1243 10.2562 10.1094C10.2494 10.0793 10.2386 10.0324 10.223 9.97168C10.1916 9.8496 10.1415 9.6715 10.0697 9.45605C9.9251 9.0222 9.69574 8.4506 9.35682 7.88574C8.6746 6.74883 7.62748 5.75 6.00038 5.75C5.37627 5.75 4.73875 5.86118 4.16737 6.00977C4.29879 6.0703 4.43415 6.13504 4.57265 6.2041C5.88345 6.8578 7.52498 7.92567 8.69765 9.56348L7.47792 10.4365C6.50259 9.07433 5.0994 8.1422 3.9037 7.5459C3.31081 7.25023 2.78085 7.04347 2.40175 6.91113C2.21272 6.84515 2.06184 6.7977 1.96034 6.76758C1.90988 6.75261 1.87163 6.74209 1.84706 6.73535C1.83504 6.73205 1.82595 6.7299 1.82069 6.72852C1.81845 6.72792 1.8167 6.72679 1.81581 6.72656L1.70546 6.68945C1.45896 6.58409 1.28369 6.3525 1.25429 6.08008C1.22086 5.76869 1.38528 5.46917 1.66542 5.3291L1.6664 5.32812L1.66835 5.32715C1.67003 5.32631 1.67253 5.32552 1.67518 5.32422C1.68048 5.32162 1.68764 5.31785 1.69667 5.31348C1.7148 5.3047 1.74036 5.2925 1.77284 5.27734C1.83795 5.24696 1.93114 5.20449 2.04823 5.1543C2.28238 5.05395 2.61486 4.92082 3.01307 4.78809C3.80051 4.52561 4.88694 4.25 6.00038 4.25Z" fill="#17191A"/>
<path d="M14.7855 8.30806C16.024 7.87557 17.771 7.5466 19.3363 8.32955L19.3353 8.33052C20.5369 8.93137 21.3795 10.0894 21.9017 11.0034C22.17 11.4729 22.3707 11.9077 22.5043 12.2251C22.5712 12.384 22.6221 12.5151 22.6566 12.6079C22.6739 12.6542 22.6875 12.691 22.6967 12.7172C22.7013 12.7303 22.7048 12.7409 22.7074 12.7485C22.7087 12.7523 22.7095 12.7559 22.7103 12.7583C22.7107 12.7593 22.7111 12.7605 22.7113 12.7612C22.7077 12.7626 22.6588 12.781 22.0004 13.0004L22.7123 12.7631C22.8169 13.0775 22.7022 13.4233 22.431 13.6137C22.1598 13.804 21.7957 13.7945 21.5355 13.5893C21.5325 13.587 21.5267 13.5823 21.5189 13.5766C21.5015 13.5638 21.4723 13.5425 21.432 13.5151C21.3514 13.4602 21.2261 13.3793 21.059 13.2846C20.7234 13.0946 20.2216 12.8501 19.5766 12.6469C18.2915 12.2423 16.4277 11.9969 14.143 12.6801L13.7133 11.2436C16.3275 10.4618 18.5005 10.7357 20.0267 11.2163C20.1328 11.2496 20.2357 11.2838 20.3353 11.3188C19.8894 10.6361 19.3264 10.0009 18.6654 9.67037C17.6518 9.16364 16.3972 9.33418 15.2807 9.72408C14.7387 9.91332 14.2674 10.1415 13.931 10.3227C13.7636 10.4129 13.631 10.4904 13.5424 10.5444C13.4982 10.5713 13.4649 10.5923 13.4437 10.6059C13.4332 10.6127 13.4257 10.6176 13.4213 10.6206C13.4193 10.6218 13.4181 10.623 13.4174 10.6235L13.0004 10.0004C12.59 9.38732 12.5833 9.37672 12.5834 9.37642L12.5853 9.37544C12.5861 9.37491 12.5871 9.37424 12.5883 9.37349C12.5909 9.37177 12.5948 9.36939 12.599 9.36665C12.6077 9.36099 12.6201 9.35287 12.6351 9.34322C12.6652 9.32393 12.7079 9.29714 12.7621 9.26412C12.8706 9.19798 13.0257 9.10662 13.2191 9.0024C13.6047 8.79461 14.15 8.53004 14.7855 8.30806Z" fill="#17191A"/>
<path d="M2.96815 13.2408C4.20725 12.4096 5.49987 11.9285 6.57655 11.649C7.34177 11.4505 8.0087 11.3514 8.48671 11.3014C8.72605 11.2763 8.91932 11.2629 9.05507 11.2565C9.12276 11.2532 9.17628 11.2515 9.21425 11.2506C9.23299 11.2502 9.24817 11.2507 9.25917 11.2506C9.26455 11.2505 9.26941 11.2496 9.27284 11.2496H9.27968C9.27997 11.2496 9.28065 11.25 9.28065 11.9996C9.28065 12.6898 9.28045 12.7452 9.28065 12.7496H9.27675C9.27141 12.7497 9.26149 12.7503 9.24843 12.7506C9.22227 12.7512 9.18115 12.7529 9.12636 12.7555C9.01636 12.7607 8.85164 12.7708 8.64296 12.7926C8.22472 12.8363 7.63325 12.9248 6.9535 13.1012C5.58793 13.4556 3.90513 14.1555 2.53065 15.5299C2.31615 15.7444 1.99353 15.8091 1.71327 15.693C1.43305 15.5769 1.25038 15.303 1.25038 14.9996C1.25044 13.3776 1.63697 12.1326 2.26698 11.192C2.89591 10.2533 3.73216 9.66979 4.54628 9.31212C5.35541 8.95671 6.15378 8.81892 6.74061 8.7672C7.03589 8.74118 7.28351 8.73576 7.46034 8.73791C7.54874 8.73898 7.62029 8.74208 7.67128 8.74474C7.6968 8.74608 7.71768 8.74758 7.7328 8.74865C7.74031 8.74918 7.74654 8.74924 7.75136 8.74962C7.75361 8.7498 7.75557 8.75046 7.75722 8.7506H7.76112L7.63222 10.2447C7.63122 10.2447 7.62956 10.2449 7.62733 10.2447C7.6209 10.2443 7.60934 10.2436 7.59315 10.2428C7.56077 10.2411 7.50974 10.2387 7.44276 10.2379C7.30817 10.2363 7.11082 10.2403 6.87245 10.2613C6.39129 10.3037 5.76466 10.4161 5.14979 10.6861C4.54014 10.954 3.95198 11.3718 3.51307 12.027C3.29446 12.3534 3.10412 12.752 2.96815 13.2408Z" fill="#17191A"/>
</svg>
