<svg width="24" height="24" viewBox="0 0 24 24" fill="none" xmlns="http://www.w3.org/2000/svg">
<path d="M22.949 12.684C22.903 12.545 21.792 9.27798 19.448 8.10598C18.4 7.58198 17.271 7.53298 16.229 7.69398C18.098 6.25198 19.997 6.00798 20.109 5.99498C20.577 5.94398 20.945 5.57498 20.995 5.10698C21.045 4.63898 20.763 4.19998 20.317 4.05198C20.188 4.00898 17.138 3.00098 15.001 3.00098C12.589 3.00098 11.263 4.70498 10.593 6.58298C9.62195 5.18698 8.13095 4.00098 6.00095 4.00098C3.79095 4.00098 1.64395 5.06198 1.55395 5.10598C1.18095 5.29298 0.963953 5.69098 1.00795 6.10598C1.05195 6.52098 1.34995 6.86498 1.75395 6.96898C1.77995 6.97598 3.65495 7.47698 5.41095 8.75098C4.58695 8.97198 3.67395 9.36998 2.88595 10.092C1.63595 11.238 1.00195 12.889 1.00195 15C1.00195 15.404 1.24595 15.77 1.61895 15.924C1.74295 15.976 1.87295 16 2.00195 16C2.26195 16 2.51795 15.898 2.70895 15.707C4.50795 13.908 6.86295 13.306 8.20995 13.103C7.22995 15.283 7.04395 17.656 7.03295 19H3.00095V21H21.001V19H13.765C13.407 18.021 12.742 16.011 12.496 14H12.501C13.396 14 14.176 13.524 14.617 12.816C18.686 11.773 21.274 13.702 21.381 13.785C21.562 13.928 21.78 14 22 14C22.201 14 22.402 13.939 22.575 13.818C22.936 13.564 23.089 13.103 22.948 12.683L22.949 12.684ZM10.001 10.5C10.001 10.776 9.77695 11 9.50095 11C9.22495 11 9.00095 10.776 9.00095 10.5C9.00095 10.224 9.22495 9.99998 9.50095 9.99998C9.77695 9.99998 10.001 10.224 10.001 10.5ZM9.03395 19C9.04995 17.669 9.25095 15.147 10.415 13.166C10.521 15.336 11.168 17.598 11.643 19H9.03395ZM12.501 12C12.226 12 12.001 11.776 12.001 11.5C12.001 11.224 12.226 11 12.501 11C12.776 11 13.001 11.224 13.001 11.5C13.001 11.776 12.776 12 12.501 12Z" fill="#17191A"/>
</svg>
