<svg width="24" height="24" viewBox="0 0 24 24" fill="none" xmlns="http://www.w3.org/2000/svg">
<path fill-rule="evenodd" clip-rule="evenodd" d="M9.408 6.155C9.891 6.258 10.303 6.428 10.651 6.663C10.994 6.898 11.262 7.21 11.455 7.602C11.642 7.989 11.735 8.473 11.735 9.045C11.735 9.665 11.595 10.183 11.314 10.596C11.031 11.01 10.614 11.349 10.058 11.611C10.815 11.83 11.376 12.213 11.748 12.757C12.122 13.306 12.305 13.963 12.305 14.733C12.305 15.358 12.186 15.895 11.947 16.346C11.707 16.804 11.378 17.175 10.973 17.46C10.565 17.749 10.097 17.961 9.574 18.1C9.055 18.237 8.517 18.306 7.965 18.306H2V6H7.803C8.392 6 8.922 6.051 9.408 6.155ZM8.644 10.627C8.956 10.399 9.107 10.023 9.107 9.508C9.107 9.222 9.056 8.986 8.956 8.801C8.853 8.618 8.714 8.474 8.539 8.373C8.365 8.268 8.17 8.197 7.942 8.158C7.719 8.114 7.485 8.097 7.245 8.097H4.71V10.972H7.452C7.932 10.972 8.33 10.858 8.644 10.627ZM8.363 16.134C8.604 16.082 8.818 15.998 9 15.873C9.182 15.753 9.332 15.59 9.44 15.382C9.549 15.176 9.602 14.907 9.602 14.584C9.602 13.95 9.423 13.499 9.069 13.226C8.714 12.956 8.238 12.822 7.655 12.822H4.71V16.212L7.603 16.211C7.87 16.211 8.124 16.188 8.363 16.134ZM17.752 16.708C18.245 16.708 18.671 16.583 19.03 16.335C19.384 16.086 19.6 15.82 19.683 15.545H21.838C21.492 16.617 20.967 17.383 20.249 17.844C19.54 18.307 18.677 18.537 17.669 18.537C16.967 18.537 16.335 18.424 15.769 18.2C15.202 17.973 14.727 17.656 14.33 17.242C13.941 16.826 13.64 16.335 13.425 15.757C13.212 15.183 13.105 14.547 13.105 13.858C13.105 13.192 13.216 12.569 13.434 11.994C13.657 11.417 13.963 10.919 14.368 10.501C14.773 10.081 15.253 9.75 15.812 9.507C16.371 9.266 16.987 9.145 17.67 9.145C18.424 9.145 19.083 9.291 19.649 9.585C20.212 9.877 20.675 10.272 21.039 10.767C21.402 11.26 21.661 11.825 21.822 12.458C21.983 13.09 22.039 13.75 21.993 14.441H15.562C15.563 15.145 15.8 15.812 16.168 16.17C16.535 16.528 17.064 16.708 17.752 16.708ZM17.595 10.993C17.204 10.993 16.881 11.058 16.621 11.192C16.367 11.325 16.16 11.489 16.001 11.683C15.844 11.88 15.736 12.088 15.673 12.311C15.611 12.528 15.573 12.724 15.562 12.898H19.544C19.486 12.274 19.272 11.813 18.98 11.489C18.689 11.167 18.197 10.993 17.595 10.993ZM20.051 6.826V8.041H15.062V6.826H20.051Z" fill="#17191A"/>
</svg>
