<svg width="24" height="24" viewBox="0 0 24 24" fill="none" xmlns="http://www.w3.org/2000/svg">
<path d="M19.0002 14V10.953C18.8562 7.889 16.5552 4.61 13.0002 4.082V3C13.0002 2.448 12.5522 2 12.0002 2C11.4482 2 11.0002 2.448 11.0002 3V4.082C7.44519 4.611 5.14519 7.893 5.00019 11V14C5.00019 15.586 4.24719 16.339 3.29319 17.293C3.00719 17.579 2.92119 18.009 3.07619 18.383C3.23119 18.757 3.59619 19 4.00019 19H8.00019C8.00019 21.206 9.79419 23 12.0002 23C14.2062 23 16.0002 21.206 16.0002 19H20.0002C20.4042 19 20.7702 18.757 20.9242 18.383C21.0792 18.009 20.9932 17.579 20.7072 17.293C19.7532 16.339 19.0002 15.586 19.0002 14ZM12.0002 21C10.8972 21 10.0002 20.103 10.0002 19H14.0002C14.0002 20.103 13.1032 21 12.0002 21Z" fill="#17191A"/>
<path d="M21.9082 7.58198C21.1942 6.02898 19.9482 4.36698 18.6562 3.24498C18.2392 2.88398 17.6072 2.92698 17.2452 3.34398C16.8832 3.76098 16.9282 4.39198 17.3442 4.75498C18.4192 5.68898 19.4972 7.12698 20.0922 8.41798C20.2602 8.78398 20.6222 8.99998 21.0012 8.99998C21.1412 8.99998 21.2822 8.97098 21.4182 8.90898C21.9202 8.67798 22.1402 8.08398 21.9082 7.58198Z" fill="#17191A"/>
<path d="M3.90919 8.41703C4.50019 7.12803 5.57919 5.69103 6.65619 4.75503C7.07319 4.39303 7.11719 3.76103 6.75519 3.34403C6.39219 2.92803 5.76019 2.88203 5.34419 3.24503C4.04919 4.37003 2.80219 6.03303 2.09119 7.58303C1.86119 8.08503 2.08119 8.67903 2.58319 8.90903C2.71819 8.97103 2.86019 9.00003 3.00019 9.00003C3.37819 9.00003 3.74119 8.78403 3.90919 8.41703Z" fill="#17191A"/>
</svg>
