<svg width="24" height="24" viewBox="0 0 24 24" fill="none" xmlns="http://www.w3.org/2000/svg">
<path d="M20.995 21.0039L17.991 17.9999H18.006L6.24403 6.23693C6.24403 6.23693 6.24103 6.24293 6.23903 6.24593L2.99603 3.00293L1.58203 4.41693L5.33703 8.17193C5.14803 8.77293 5.02803 9.38893 5.00003 9.99893V12.9989C5.00003 14.5849 4.24703 15.3379 3.29303 16.2919C3.00703 16.5779 2.92103 17.0079 3.07603 17.3819C3.23103 17.7559 3.59603 17.9989 4.00003 17.9989H8.00003C8.00003 20.2049 9.79403 21.9989 12 21.9989C13.946 21.9989 15.567 20.6009 15.923 18.7579L19.582 22.4169L20.996 21.0029L20.995 21.0039ZM11.999 19.9999C10.896 19.9999 9.99903 19.1029 9.99903 17.9999H13.999C13.999 19.1029 13.102 19.9999 11.999 19.9999Z" fill="#17191A"/>
<path d="M20.923 17.383C21.078 17.009 20.992 16.579 20.706 16.293C19.752 15.339 18.999 14.586 18.999 13V9.953C18.855 6.889 16.554 3.61 12.999 3.082V2C12.999 1.448 12.551 1 11.999 1C11.447 1 10.999 1.448 10.999 2V3.082C9.65104 3.283 8.48504 3.88 7.54704 4.713L20.613 17.779C20.745 17.675 20.856 17.545 20.923 17.383Z" fill="#17191A"/>
</svg>
