<svg width="24" height="24" viewBox="0 0 24 24" fill="none" xmlns="http://www.w3.org/2000/svg">
<path fill-rule="evenodd" clip-rule="evenodd" d="M6.50002 10.7682V13.75C6.50002 15.195 6.03383 16.2026 5.43927 17H18.0608C17.4662 16.2026 17 15.195 17 13.75V10.7682C16.9434 9.65112 16.4442 8.31869 15.5377 7.27097C14.639 6.23228 13.3664 5.5 11.75 5.5C10.1336 5.5 8.861 6.23228 7.96233 7.27097C7.05585 8.31868 6.55664 9.65111 6.50002 10.7682ZM6.82797 6.28953C7.96554 4.97472 9.63242 4 11.75 4C13.8676 4 15.5345 4.97472 16.6721 6.28953C17.7973 7.59005 18.4306 9.2495 18.4992 10.7149C18.4997 10.7266 18.5 10.7383 18.5 10.75V13.75C18.5 15.4202 19.2882 16.2275 20.2804 17.2197C20.4949 17.4342 20.559 17.7568 20.4429 18.037C20.3268 18.3173 20.0534 18.5 19.75 18.5H3.75002C3.44668 18.5 3.1732 18.3173 3.05711 18.037C2.94103 17.7568 3.00519 17.4342 3.21969 17.2197C4.21181 16.2275 5.00002 15.4202 5.00002 13.75V10.75C5.00002 10.7383 5.0003 10.7266 5.00084 10.7149C5.06941 9.2495 5.70275 7.59005 6.82797 6.28953Z" fill="#17191A"/>
<path fill-rule="evenodd" clip-rule="evenodd" d="M8.75 17C9.16421 17 9.5 17.3358 9.5 17.75V18.75C9.5 19.9928 10.5072 21 11.75 21C12.9928 21 14 19.9928 14 18.75V17.75C14 17.3358 14.3358 17 14.75 17C15.1642 17 15.5 17.3358 15.5 17.75V18.75C15.5 20.8212 13.8212 22.5 11.75 22.5C9.67879 22.5 8 20.8212 8 18.75V17.75C8 17.3358 8.33579 17 8.75 17Z" fill="#17191A"/>
<path fill-rule="evenodd" clip-rule="evenodd" d="M11.75 2C12.1642 2 12.5 2.33579 12.5 2.75V4.75C12.5 5.16421 12.1642 5.5 11.75 5.5C11.3358 5.5 11 5.16421 11 4.75V2.75C11 2.33579 11.3358 2 11.75 2Z" fill="#17191A"/>
</svg>
