<svg width="24" height="24" viewBox="0 0 24 24" fill="none" xmlns="http://www.w3.org/2000/svg">
<path fill-rule="evenodd" clip-rule="evenodd" d="M6.75002 10.0182V13C6.75002 14.445 6.28383 15.4526 5.68927 16.25H18.3108C17.7162 15.4526 17.25 14.445 17.25 13V10.0182C17.1934 8.90112 16.6942 7.56869 15.7877 6.52097C14.889 5.48228 13.6164 4.75 12 4.75C10.3836 4.75 9.111 5.48228 8.21233 6.52097C7.30585 7.56868 6.80664 8.90111 6.75002 10.0182ZM7.07797 5.53953C8.21554 4.22472 9.88242 3.25 12 3.25C14.1176 3.25 15.7845 4.22472 16.9221 5.53953C18.0473 6.84005 18.6806 8.4995 18.7492 9.96494C18.7497 9.97662 18.75 9.98831 18.75 10V13C18.75 14.6702 19.5382 15.4775 20.5304 16.4697C20.7449 16.6842 20.809 17.0068 20.6929 17.287C20.5768 17.5673 20.3034 17.75 20 17.75H4.00002C3.69668 17.75 3.4232 17.5673 3.30711 17.287C3.19103 17.0068 3.25519 16.6842 3.46969 16.4697C4.46181 15.4775 5.25002 14.6702 5.25002 13V10C5.25002 9.98831 5.2503 9.97662 5.25084 9.96494C5.31941 8.4995 5.95275 6.84005 7.07797 5.53953Z" fill="#17191A"/>
<path fill-rule="evenodd" clip-rule="evenodd" d="M9.00003 16.25C9.41424 16.25 9.75003 16.5858 9.75003 17V18C9.75003 19.2428 10.7572 20.25 12 20.25C13.2428 20.25 14.25 19.2428 14.25 18V17C14.25 16.5858 14.5858 16.25 15 16.25C15.4142 16.25 15.75 16.5858 15.75 17V18C15.75 20.0712 14.0712 21.75 12 21.75C9.92882 21.75 8.25003 20.0712 8.25003 18V17C8.25003 16.5858 8.58582 16.25 9.00003 16.25Z" fill="#17191A"/>
<path fill-rule="evenodd" clip-rule="evenodd" d="M12 1.25C12.4142 1.25 12.75 1.58579 12.75 2V4C12.75 4.41421 12.4142 4.75 12 4.75C11.5858 4.75 11.25 4.41421 11.25 4V2C11.25 1.58579 11.5858 1.25 12 1.25Z" fill="#17191A"/>
<path fill-rule="evenodd" clip-rule="evenodd" d="M15 11.75H9.00003V10.25H15V11.75Z" fill="#17191A"/>
</svg>
