<svg width="24" height="24" viewBox="0 0 24 24" fill="none" xmlns="http://www.w3.org/2000/svg">
<path fill-rule="evenodd" clip-rule="evenodd" d="M6.50014 10.765V13.75C6.50014 15.195 6.03396 16.2026 5.43939 17H18.0609C17.4663 16.2026 17.0001 15.195 17.0001 13.75V10.765C16.9535 9.64759 16.4493 8.31613 15.535 7.26803C14.6287 6.22911 13.3498 5.5 11.7501 5.5C10.1505 5.5 8.87161 6.22911 7.96532 7.26803C7.05101 8.31613 6.54683 9.64759 6.50014 10.765ZM6.83497 6.28197C7.97868 4.97089 9.64983 4 11.7501 4C13.8505 4 15.5216 4.97089 16.6653 6.28197C17.7972 7.57955 18.4427 9.24142 18.4996 10.7212C18.5 10.7308 18.5001 10.7404 18.5001 10.75V13.75C18.5001 15.4202 19.2884 16.2275 20.2805 17.2197C20.495 17.4342 20.5591 17.7568 20.4431 18.037C20.327 18.3173 20.0535 18.5 19.7501 18.5H3.75014C3.4468 18.5 3.17332 18.3173 3.05723 18.037C2.94115 17.7568 3.00532 17.4342 3.21981 17.2197C4.21193 16.2275 5.00014 15.4202 5.00014 13.75V10.75C5.00014 10.7404 5.00033 10.7308 5.0007 10.7212C5.05761 9.24142 5.70304 7.57955 6.83497 6.28197Z" fill="#17191A"/>
<path fill-rule="evenodd" clip-rule="evenodd" d="M8.75012 17C9.16434 17 9.50012 17.3358 9.50012 17.75V18.75C9.50012 20.0358 10.4643 21 11.7501 21C13.0359 21 14.0001 20.0358 14.0001 18.75V17.75C14.0001 17.3358 14.3359 17 14.7501 17C15.1643 17 15.5001 17.3358 15.5001 17.75V18.75C15.5001 20.8642 13.8643 22.5 11.7501 22.5C9.63591 22.5 8.00012 20.8642 8.00012 18.75V17.75C8.00012 17.3358 8.33591 17 8.75012 17Z" fill="#17191A"/>
<path fill-rule="evenodd" clip-rule="evenodd" d="M17.174 3.26988C17.4391 2.95167 17.9121 2.90868 18.2303 3.17385C19.5368 4.26262 20.6936 5.9598 21.421 7.41461C21.6062 7.78509 21.456 8.2356 21.0856 8.42084C20.7151 8.60608 20.2646 8.45591 20.0793 8.08543C19.4067 6.74024 18.3635 5.23742 17.27 4.32618C16.9518 4.06101 16.9088 3.58809 17.174 3.26988Z" fill="#17191A"/>
<path fill-rule="evenodd" clip-rule="evenodd" d="M6.32633 3.26988C6.5915 3.58809 6.54851 4.06101 6.2303 4.32618C5.13682 5.23742 4.09358 6.74024 3.42098 8.08543C3.23574 8.45591 2.78524 8.60608 2.41475 8.42084C2.04427 8.2356 1.8941 7.78509 2.07934 7.41461C2.80675 5.9598 3.96351 4.26262 5.27003 3.17385C5.58823 2.90868 6.06116 2.95167 6.32633 3.26988Z" fill="#17191A"/>
<path fill-rule="evenodd" clip-rule="evenodd" d="M11.7501 2C12.1643 2 12.5001 2.33579 12.5001 2.75V4.75C12.5001 5.16421 12.1644 5.5 11.7501 5.5C11.3359 5.5 11.0001 5.16421 11.0001 4.75V2.75C11.0001 2.33579 11.3359 2 11.7501 2Z" fill="#17191A"/>
</svg>
