<svg width="24" height="24" viewBox="0 0 24 24" fill="none" xmlns="http://www.w3.org/2000/svg">
<path fill-rule="evenodd" clip-rule="evenodd" d="M11.9991 4.75C10.8501 4.75 9.88316 5.11907 9.09894 5.69683C8.76546 5.94251 8.29595 5.87134 8.05026 5.53785C7.80457 5.20437 7.87575 4.73486 8.20923 4.48917C9.23301 3.73493 10.508 3.25 11.9991 3.25C14.1167 3.25 15.7836 4.22472 16.9211 5.53953C18.0464 6.84005 18.6797 8.4995 18.7483 9.96494C18.7488 9.97662 18.7491 9.98831 18.7491 10V13C18.7491 13.4142 18.4133 13.75 17.9991 13.75C17.5849 13.75 17.2491 13.4142 17.2491 13V10.0182C17.1925 8.90112 16.6933 7.56869 15.7868 6.52097C14.8881 5.48228 13.6155 4.75 11.9991 4.75Z" fill="#17191A"/>
<path fill-rule="evenodd" clip-rule="evenodd" d="M6.77329 7.22216C7.15593 7.38077 7.33754 7.81955 7.17892 8.20219C6.92028 8.82614 6.77765 9.45378 6.74909 10.0182V13C6.74909 14.445 6.2829 15.4526 5.68834 16.25H15.5761C15.9903 16.25 16.3261 16.5858 16.3261 17C16.3261 17.4142 15.9903 17.75 15.5761 17.75H3.99909C3.69574 17.75 3.42227 17.5673 3.30618 17.287C3.1901 17.0067 3.25426 16.6842 3.46876 16.4697C4.46088 15.4775 5.24909 14.6702 5.24909 13V9.99999C5.24909 9.98833 5.24936 9.97667 5.24991 9.96501C5.28535 9.20575 5.47247 8.40165 5.79326 7.62779C5.95188 7.24515 6.39065 7.06354 6.77329 7.22216Z" fill="#17191A"/>
<path fill-rule="evenodd" clip-rule="evenodd" d="M8.99908 16.25C9.4133 16.25 9.74908 16.5858 9.74908 17V18C9.74908 19.2428 10.7563 20.25 11.9991 20.25C13.2419 20.25 14.2491 19.2428 14.2491 18V17C14.2491 16.5858 14.5849 16.25 14.9991 16.25C15.4133 16.25 15.7491 16.5858 15.7491 17V18C15.7491 20.0712 14.0703 21.75 11.9991 21.75C9.92787 21.75 8.24908 20.0712 8.24908 18V17C8.24908 16.5858 8.58487 16.25 8.99908 16.25Z" fill="#17191A"/>
<path fill-rule="evenodd" clip-rule="evenodd" d="M11.9991 1.25C12.4133 1.25 12.7491 1.58579 12.7491 2V4C12.7491 4.41421 12.4133 4.75 11.9991 4.75C11.5849 4.75 11.2491 4.41421 11.2491 4V2C11.2491 1.58579 11.5849 1.25 11.9991 1.25Z" fill="#17191A"/>
<path fill-rule="evenodd" clip-rule="evenodd" d="M1.75781 4.24145L2.81835 3.18066L20.8184 21.1807L19.7577 22.2414L1.75781 4.24145Z" fill="#17191A"/>
</svg>
