<svg width="24" height="24" viewBox="0 0 24 24" fill="none" xmlns="http://www.w3.org/2000/svg">
<path d="M20.7072 16.293C19.7532 15.339 19.0002 14.586 19.0002 13V9.953C18.8562 6.889 16.5552 3.61 13.0002 3.082V2C13.0002 1.448 12.5522 1 12.0002 1C11.4482 1 11.0002 1.448 11.0002 2V3.082C7.44619 3.611 5.14519 6.893 5.00019 10V13C5.00019 14.586 4.24719 15.339 3.29319 16.293C3.00719 16.579 2.92119 17.009 3.07619 17.383C3.23119 17.757 3.59619 18 4.00019 18H8.00019C8.00019 20.206 9.79419 22 12.0002 22C14.2062 22 16.0002 20.206 16.0002 18H20.0002C20.4042 18 20.7702 17.757 20.9242 17.383C21.0792 17.009 20.9932 16.579 20.7072 16.293ZM12.0002 20C10.8972 20 10.0002 19.103 10.0002 18H14.0002C14.0002 19.103 13.1032 20 12.0002 20ZM15.0002 12H9.00019V10H15.0002V12Z" fill="#17191A"/>
</svg>
