<svg width="24" height="24" viewBox="0 0 24 24" fill="none" xmlns="http://www.w3.org/2000/svg">
<path d="M9 5.25C9.4142 5.25 9.74997 5.58581 9.75 6C9.75 6.34523 9.51576 6.63246 9.19824 6.71973L10.4639 9.25H14.2861L12.8291 6.33496C12.7131 6.10256 12.7257 5.82644 12.8623 5.60547C12.999 5.38456 13.2402 5.25 13.5 5.25H18.1729C18.9018 5.25 19.5996 5.53912 20.1152 6.05469C21.1879 7.12738 21.1875 8.86615 20.1143 9.93848L20.1152 9.93945L19.5342 10.5273C19.243 10.8217 18.7682 10.8243 18.4736 10.5332C18.1793 10.242 18.1767 9.7672 18.4678 9.47266L19.0488 8.88477L19.0527 8.87988L19.1387 8.78613C19.5398 8.29696 19.5122 7.57272 19.0547 7.11523C18.8203 6.88088 18.5038 6.75 18.1729 6.75H14.7139L17.2998 11.9229C17.6805 11.811 18.0831 11.75 18.5 11.75C20.8472 11.75 22.75 13.6528 22.75 16C22.75 18.3472 20.8472 20.25 18.5 20.25C16.1528 20.25 14.25 18.3472 14.25 16C14.25 14.6058 14.9209 13.3677 15.958 12.5928L15.0361 10.75H10.375L8.6084 13.1035C9.31608 13.8626 9.74999 14.8803 9.75 16C9.75 18.3472 7.84721 20.25 5.5 20.25C3.15279 20.25 1.25 18.3472 1.25 16C1.25003 13.6528 3.15281 11.75 5.5 11.75C6.18677 11.75 6.83503 11.9139 7.40918 12.2031L9.12109 9.91992L7.53613 6.75H6C5.58579 6.75 5.25 6.41421 5.25 6C5.25003 5.58581 5.5858 5.25 6 5.25H9ZM5.5 13.25C3.98123 13.25 2.75003 14.4812 2.75 16C2.75 17.5188 3.98122 18.75 5.5 18.75C7.01878 18.75 8.25 17.5188 8.25 16C8.24999 15.3732 8.03763 14.7975 7.68457 14.335L6.09961 16.4502C5.85102 16.7813 5.38107 16.8481 5.0498 16.5996C4.71873 16.351 4.65195 15.8811 4.90039 15.5498L6.48535 13.4346C6.1792 13.3169 5.84759 13.25 5.5 13.25ZM18.5 13.25C18.3247 13.25 18.1535 13.2675 17.9873 13.2988L19.1709 15.665L19.2012 15.7354C19.3358 16.0907 19.1822 16.4973 18.835 16.6709C18.4878 16.8442 18.0706 16.7232 17.8672 16.4023L17.8291 16.335L16.6475 13.9717C16.0972 14.4745 15.75 15.1959 15.75 16C15.75 17.5188 16.9812 18.75 18.5 18.75C20.0188 18.75 21.25 17.5188 21.25 16C21.25 14.4812 20.0188 13.25 18.5 13.25Z" fill="#17191A"/>
</svg>
