<svg width="24" height="24" viewBox="0 0 24 24" fill="none" xmlns="http://www.w3.org/2000/svg">
<path d="M18.499 11.5C18.132 11.5 17.779 11.557 17.437 11.64L15.117 6.99998H18.172C18.439 6.99998 18.689 7.10398 18.877 7.29198C19.065 7.48098 19.17 7.73198 19.169 7.99898C19.169 8.26598 19.065 8.51598 18.87 8.70898L18.289 9.29698C17.9 9.68998 17.904 10.323 18.297 10.712C18.691 11.1 19.323 11.096 19.711 10.704L20.286 10.122C20.854 9.55698 21.168 8.80398 21.169 8.00198C21.17 7.19998 20.858 6.44598 20.291 5.87898C19.724 5.31198 18.973 5.00098 18.172 5.00098H13.499C13.152 5.00098 12.831 5.18098 12.648 5.47498C12.465 5.76998 12.449 6.13798 12.604 6.44798L13.88 9.00098H10.616L9.52905 6.82698C9.80505 6.64898 9.99805 6.35398 9.99805 6.00098C9.99805 5.44898 9.55005 5.00098 8.99805 5.00098H5.99805C5.44605 5.00098 4.99805 5.44898 4.99805 6.00098C4.99805 6.55298 5.44605 7.00098 5.99805 7.00098H7.38005L8.82705 9.89598L7.32605 11.898C6.76605 11.648 6.15005 11.502 5.49805 11.502C3.01705 11.502 0.998047 13.521 0.998047 16.002C0.998047 18.483 3.01705 20.502 5.49805 20.502C7.97905 20.502 9.99805 18.483 9.99805 16.002C9.99805 14.896 9.58105 13.895 8.91705 13.11L10.498 11.002H14.88L15.652 12.546C14.651 13.372 13.998 14.606 13.998 16.002C13.998 18.483 16.017 20.502 18.498 20.502C20.979 20.502 22.998 18.483 22.998 16.002C22.998 13.521 20.979 11.502 18.498 11.502L18.499 11.5ZM7.99905 16C7.99905 17.379 6.87705 18.5 5.49905 18.5C4.12105 18.5 2.99905 17.379 2.99905 16C2.99905 14.621 4.12105 13.5 5.49905 13.5C5.69605 13.5 5.88605 13.529 6.07005 13.572L4.69905 15.4C4.36705 15.841 4.45705 16.468 4.89905 16.799C5.07905 16.934 5.29005 16.999 5.49805 16.999C5.80205 16.999 6.10205 16.861 6.29905 16.599L7.66605 14.776C7.87205 15.139 7.99905 15.553 7.99905 15.999V16ZM18.499 18.5C17.12 18.5 15.999 17.379 15.999 16C15.999 15.393 16.225 14.843 16.586 14.41L17.605 16.447C17.781 16.798 18.133 17 18.501 17C18.651 17 18.804 16.966 18.947 16.895C19.441 16.648 19.641 16.047 19.394 15.553L18.374 13.513C18.416 13.511 18.457 13.5 18.499 13.5C19.878 13.5 20.999 14.621 20.999 16C20.999 17.379 19.878 18.5 18.499 18.5Z" fill="#17191A"/>
</svg>
