<svg width="24" height="24" viewBox="0 0 24 24" fill="none" xmlns="http://www.w3.org/2000/svg">
<path d="M18.804 15.0196C18.773 15.0266 15.667 15.6416 12.001 15.6416C8.94295 15.6416 5.20395 15.0206 5.16695 15.0136C4.87595 14.9666 4.58095 15.0466 4.35495 15.2366C4.12995 15.4266 4.00095 15.7066 4.00095 16.0006V18.5686C4.00095 19.1196 4.44795 19.5666 4.99995 19.5686C5.04395 19.5686 9.43295 19.6126 10.446 22.1506C10.662 22.6906 11.231 23.0006 12.006 23.0006H12.008C12.782 23.0006 13.35 22.6896 13.567 22.1476C14.572 19.6126 18.959 19.5686 19.004 19.5686C19.555 19.5666 20.002 19.1196 20.002 18.5686V16.0006C20.002 15.7006 19.867 15.4166 19.636 15.2276C19.403 15.0386 19.098 14.9636 18.805 15.0206L18.804 15.0196Z" fill="#17191A"/>
<path d="M7.33495 12.9996C9.06895 12.9996 10.655 12.0396 11.327 10.9996H12.675C13.347 12.0396 14.932 12.9996 16.667 12.9996C19.299 12.9996 21 11.5606 21 9.3326C21 7.5666 19.921 5.2246 18.689 4.5366L16.858 1.4856C16.574 1.0116 15.96 0.8576 15.486 1.1426C15.012 1.4266 14.859 2.0406 15.143 2.5146L16.459 4.7066C15.477 5.1506 14.659 5.8786 14.269 6.2686C13.809 6.7286 12.878 7.7806 12.503 8.9996H11.497C10.963 7.3136 9.24295 5.4846 7.53895 4.7136L8.85895 2.5146C9.14295 2.0406 8.98995 1.4266 8.51595 1.1426C8.04195 0.8566 7.42695 1.0116 7.14395 1.4856L5.31295 4.5366C4.08095 5.2246 3.00195 7.5666 3.00195 9.3326C3.00195 11.5606 4.70295 12.9996 7.33495 12.9996ZM14.333 9.9736C14.333 9.9816 14.333 9.9906 14.333 9.9996V9.9736Z" fill="#17191A"/>
</svg>
