<svg width="24" height="24" viewBox="0 0 24 24" fill="none" xmlns="http://www.w3.org/2000/svg">
<path d="M18.9355 15.2532C19.1294 15.2362 19.3233 15.2956 19.4756 15.4202C19.6496 15.5627 19.751 15.7754 19.751 16.0003V18.5686C19.7509 18.7674 19.6718 18.9584 19.5312 19.0989C19.4259 19.2042 19.2923 19.2751 19.1484 19.304L19.001 19.3186H18.959C18.9269 19.3193 18.8771 19.3207 18.8125 19.3235C18.683 19.3293 18.4933 19.3411 18.2607 19.3645C17.793 19.4117 17.1618 19.506 16.499 19.6917C15.134 20.0742 13.8376 20.785 13.334 22.055C13.1728 22.4591 12.7937 22.6076 12.6357 22.6585C12.428 22.7253 12.2034 22.7504 12.0049 22.7503C11.8063 22.7502 11.5823 22.7252 11.375 22.6585C11.2373 22.6142 10.9297 22.4958 10.747 22.1966L10.6777 22.0569C10.17 20.7858 8.87084 20.0742 7.50486 19.6917C6.84127 19.5059 6.20915 19.4117 5.74119 19.3645C5.50848 19.3411 5.3189 19.3293 5.18943 19.3235C5.12484 19.3207 5.07506 19.3193 5.04295 19.3186H5.00095C4.80213 19.3186 4.61131 19.2395 4.47068 19.0989C4.33011 18.9584 4.25105 18.7674 4.25095 18.5686V16.0003C4.25095 15.7797 4.34822 15.5705 4.51658 15.428C4.68497 15.2856 4.90746 15.2245 5.12498 15.261H5.12693C5.12851 15.2613 5.13137 15.2614 5.13474 15.262C5.14152 15.2631 5.15218 15.2646 5.16599 15.2669C5.19361 15.2714 5.23509 15.2788 5.28904 15.2874C5.39722 15.3046 5.55604 15.3291 5.75681 15.3587C6.15892 15.418 6.72862 15.4972 7.39646 15.5765C8.73698 15.7356 10.4535 15.8919 12.001 15.8919C13.8703 15.8919 15.5876 15.7352 16.8388 15.5774C17.4637 15.4986 17.9713 15.4193 18.3203 15.3606C18.4945 15.3313 18.6293 15.3071 18.7197 15.2903C18.7649 15.2819 18.7989 15.2751 18.8213 15.2708C18.8321 15.2687 18.8404 15.2679 18.8457 15.2669C18.8483 15.2664 18.8504 15.2652 18.8515 15.2649L18.9355 15.2532ZM5.75095 17.8597C5.79618 17.8637 5.84313 17.8675 5.89158 17.8724C6.41824 17.9255 7.13975 18.0319 7.90916 18.2474C9.34186 18.6486 11.127 19.4828 11.959 21.2464C11.9741 21.2472 11.9898 21.2503 12.0058 21.2503C12.0213 21.2503 12.0362 21.2471 12.0508 21.2464C12.8785 19.4825 14.6625 18.6485 16.0937 18.2474C16.8626 18.0319 17.5838 17.9255 18.1103 17.8724C18.1588 17.8675 18.2057 17.8637 18.251 17.8597V16.8899C17.9198 16.9423 17.5068 17.0052 17.0273 17.0657C15.7334 17.2289 13.9504 17.3919 12.001 17.3919C10.3674 17.3919 8.58393 17.2276 7.2197 17.0657C6.64548 16.9976 6.1423 16.9276 5.75095 16.8714V17.8597Z" fill="#17191A"/>
<path d="M13.334 9.25029V10.7503H10.668V9.25029H13.334Z" fill="#17191A"/>
<path d="M6.00195 4.58329C6.64013 4.58329 7.2921 4.82287 7.875 5.14969C8.46791 5.48219 9.04801 5.93794 9.55664 6.44657C10.0651 6.95508 10.5202 7.53451 10.8525 8.12723C11.1794 8.71013 11.4189 9.3621 11.4189 10.0003V10.7503H11.2002C11.138 10.861 11.0689 10.9626 11 11.052C10.776 11.3425 10.4709 11.6231 10.1172 11.8675C9.41121 12.355 8.43234 12.7503 7.33496 12.7503C6.31739 12.7503 5.31156 12.5241 4.53906 11.9651C3.73446 11.3828 3.25195 10.4862 3.25195 9.33329C3.25195 8.25258 3.63572 7.12935 4.0918 6.28641C4.32182 5.86135 4.58757 5.47522 4.86328 5.18387C5.00078 5.03858 5.15633 4.89993 5.32715 4.79325C5.49031 4.69136 5.72398 4.58329 6.00195 4.58329ZM4.75195 9.33329C4.75195 10.0212 5.01623 10.4584 5.41797 10.7493C5.85191 11.0634 6.51271 11.2503 7.33496 11.2503C8.07742 11.2503 8.76512 10.9788 9.26562 10.6331C9.51494 10.4609 9.6991 10.2831 9.8125 10.136C9.88499 10.042 9.90943 9.9859 9.91699 9.96805C9.90871 9.68857 9.79551 9.30868 9.54492 8.86161C9.29003 8.407 8.923 7.935 8.49512 7.50712C8.06723 7.07923 7.59523 6.71318 7.14062 6.45829C6.72337 6.22435 6.36503 6.10839 6.0918 6.08719C6.05923 6.11185 6.01239 6.1525 5.95312 6.21512C5.79131 6.38612 5.59773 6.65547 5.41113 7.00028C5.0342 7.69696 4.75195 8.57338 4.75195 9.33329Z" fill="#17191A"/>
<path d="M7.40037 1.55107C7.62775 1.24631 8.05362 1.15708 8.3867 1.35673C8.71967 1.55654 8.8423 1.9746 8.68064 2.31865L8.64451 2.38603L6.64451 5.71904C6.43144 6.07411 5.97034 6.18972 5.61521 5.97685C5.26014 5.76379 5.14453 5.30269 5.3574 4.94755L7.3574 1.61455L7.40037 1.55107Z" fill="#17191A"/>
<path d="M19.2499 9.33329C19.2499 8.57338 18.9677 7.69696 18.5908 7.00028C18.4042 6.65547 18.2106 6.38612 18.0488 6.21512C17.9891 6.1521 17.9417 6.1118 17.9091 6.08719C17.636 6.10859 17.278 6.22463 16.8613 6.45829C16.4067 6.71318 15.9347 7.07923 15.5068 7.50712C15.0789 7.935 14.7128 8.407 14.458 8.86161C14.2072 9.30888 14.0922 9.68848 14.0839 9.96805C14.0913 9.98551 14.1164 10.0414 14.1894 10.136C14.3028 10.2831 14.487 10.4609 14.7363 10.6331C15.2368 10.9788 15.9245 11.2503 16.6669 11.2503C17.4892 11.2503 18.15 11.0634 18.5839 10.7493C18.9857 10.4584 19.2499 10.0212 19.2499 9.33329ZM20.7499 9.33329C20.7499 10.4862 20.2674 11.3828 19.4628 11.9651C18.6903 12.5241 17.6845 12.7503 16.6669 12.7503C15.5696 12.7503 14.5907 12.355 13.8847 11.8675C13.531 11.6231 13.2259 11.3425 13.0019 11.052C12.933 10.9626 12.8639 10.861 12.8017 10.7503H12.583V10.0003C12.583 9.3621 12.8225 8.71013 13.1494 8.12723C13.4819 7.53433 13.9376 6.9552 14.4462 6.44657C14.9549 5.93794 15.534 5.48219 16.1269 5.14969C16.7098 4.82287 17.3618 4.58329 17.9999 4.58329L18.1025 4.58817C18.3354 4.61037 18.5321 4.70415 18.6747 4.79325C18.8456 4.89993 19.0011 5.03858 19.1386 5.18387C19.4143 5.47522 19.6801 5.86135 19.9101 6.28641C20.3662 7.12935 20.7499 8.25258 20.7499 9.33329Z" fill="#17191A"/>
<path d="M15.6152 1.35673C15.9483 1.15708 16.3742 1.24631 16.6015 1.55107L16.6445 1.61455L18.6445 4.94755L18.6806 5.01494C18.8423 5.35898 18.7197 5.77705 18.3867 5.97685C18.0536 6.1765 17.6277 6.08727 17.4004 5.78251L17.3574 5.71904L15.3574 2.38603L15.3213 2.31865C15.1596 1.9746 15.2822 1.55654 15.6152 1.35673Z" fill="#17191A"/>
</svg>
