<svg width="24" height="24" viewBox="0 0 24 24" fill="none" xmlns="http://www.w3.org/2000/svg">
<path d="M9.25 15C9.25 13.2051 7.79493 11.75 6 11.75C4.20507 11.75 2.75 13.2051 2.75 15C2.75 16.7949 4.20507 18.25 6 18.25C7.79493 18.25 9.25 16.7949 9.25 15ZM10.75 15C10.75 17.6233 8.62335 19.75 6 19.75C3.37665 19.75 1.25 17.6233 1.25 15C1.25 12.3766 3.37665 10.25 6 10.25C8.62335 10.25 10.75 12.3766 10.75 15Z" fill="#17191A"/>
<path d="M21.25 15C21.25 13.2051 19.7949 11.75 18 11.75C16.2051 11.75 14.75 13.2051 14.75 15C14.75 16.7949 16.2051 18.25 18 18.25C19.7949 18.25 21.25 16.7949 21.25 15ZM22.75 15C22.75 17.6233 20.6234 19.75 18 19.75C15.3766 19.75 13.25 17.6233 13.25 15C13.25 12.3766 15.3766 10.25 18 10.25C20.6234 10.25 22.75 12.3766 22.75 15Z" fill="#17191A"/>
<path d="M14.5363 12.25V13.75H9.464V12.25H14.5363Z" fill="#17191A"/>
<path d="M14.5363 16.25V17.75H9.464V16.25H14.5363Z" fill="#17191A"/>
<path d="M16.4994 3.25098C18.1254 3.25113 19.5038 4.2807 20.0257 5.72363L20.0755 5.85156L20.0902 5.89551L22.3656 13.1406L20.9349 13.5898L18.6673 6.37012L18.6253 6.25977C18.6234 6.25457 18.6214 6.24938 18.6195 6.24414C18.3088 5.37214 17.4787 4.75113 16.4994 4.75098C15.2536 4.75098 14.2494 5.75519 14.2494 7.00098C14.2494 7.41507 13.9134 7.75078 13.4994 7.75098H10.4994C10.0852 7.75098 9.74937 7.41519 9.74937 7.00098C9.74937 5.75531 8.74498 4.75117 7.49937 4.75098C6.52957 4.75098 5.70454 5.36098 5.38804 6.21973L5.33726 6.37012L5.33823 6.37109L3.06382 13.6152L1.63218 13.166L3.90757 5.9209L3.9105 5.91211L3.97105 5.72656L3.97984 5.7002C4.5074 4.26906 5.88325 3.25098 7.49937 3.25098C9.31649 3.25115 10.8276 4.53746 11.1742 6.25098H12.8246C13.1712 4.53741 14.6821 3.25098 16.4994 3.25098Z" fill="#17191A"/>
</svg>
