<svg width="24" height="24" viewBox="0 0 24 24" fill="none" xmlns="http://www.w3.org/2000/svg">
<path d="M22.595 13.034L20.31 5.76398L20.269 5.65698C19.703 4.06898 18.188 3.00098 16.499 3.00098C14.639 3.00098 13.07 4.27798 12.626 6.00098H11.373C10.928 4.27798 9.36 3.00098 7.499 3.00098C5.83 3.00098 4.322 4.05098 3.734 5.64798L1.421 13.005C1.153 13.617 1 14.29 1 15C1 17.757 3.243 20 6 20C7.627 20 9.061 19.207 9.974 18H14.025C14.939 19.207 16.373 20 17.999 20C20.756 20 22.999 17.757 22.999 15C22.999 14.302 22.854 13.638 22.595 13.034ZM6 18C4.346 18 3 16.654 3 15C3 13.346 4.346 12 6 12C7.654 12 9 13.346 9 15C9 16.654 7.654 18 6 18ZM13.101 16H10.899C10.965 15.677 11 15.342 11 15C11 14.658 10.965 14.323 10.899 14H13.101C13.035 14.323 13 14.658 13 15C13 15.342 13.035 15.677 13.101 16ZM18 18C16.346 18 15 16.654 15 15C15 13.346 16.346 12 18 12C19.654 12 21 13.346 21 15C21 16.654 19.654 18 18 18Z" fill="#17191A"/>
</svg>
