<svg width="24" height="24" viewBox="0 0 24 24" fill="none" xmlns="http://www.w3.org/2000/svg">
<path fill-rule="evenodd" clip-rule="evenodd" d="M21 14.7497H3V13.2497H21V14.7497Z" fill="#17191A"/>
<path fill-rule="evenodd" clip-rule="evenodd" d="M3 17.2497H21V18.7497H3V17.2497Z" fill="#17191A"/>
<path fill-rule="evenodd" clip-rule="evenodd" d="M21 10.7497H13V9.24965H21V10.7497Z" fill="#17191A"/>
<path fill-rule="evenodd" clip-rule="evenodd" d="M13 5.24965H21V6.74965H13V5.24965Z" fill="#17191A"/>
<path fill-rule="evenodd" clip-rule="evenodd" d="M5.66404 4.32911C5.66432 4.32897 5.66459 4.32883 6 4.99965C6.33541 5.67047 6.33566 5.67034 6.33591 5.67022L6.33715 5.6696L6.3382 5.66907L6.33048 5.67314C6.32193 5.6777 6.30684 5.68589 6.28617 5.69771C6.24471 5.7214 6.1814 5.75927 6.10353 5.81119C5.94652 5.91586 5.73742 6.07289 5.53033 6.27998C5.26777 6.54254 5.02735 6.86508 4.88474 7.24965H5C5.96621 7.24965 6.75 8.03344 6.75 8.99965C6.75 9.96587 5.96621 10.7497 5 10.7497C4.03379 10.7497 3.25 9.96587 3.25 8.99965V7.99965C3.25 6.73058 3.88792 5.80107 4.46967 5.21932C4.76258 4.92641 5.05348 4.70844 5.27147 4.56311C5.3811 4.49003 5.47404 4.43416 5.54196 4.39534C5.57597 4.37591 5.60386 4.36067 5.6246 4.34961L5.65028 4.33612L5.6589 4.3317L5.66212 4.33007L5.66404 4.32911ZM4.75 8.74965V8.99965C4.75 9.13744 4.86221 9.24965 5 9.24965C5.13779 9.24965 5.25 9.13744 5.25 8.99965C5.25 8.86187 5.13779 8.74965 5 8.74965H4.75ZM6.3382 5.66907C6.33863 5.66885 6.33867 5.66883 6.3382 5.66907V5.66907Z" fill="#17191A"/>
<path fill-rule="evenodd" clip-rule="evenodd" d="M10.664 4.32911C10.6643 4.32897 10.6646 4.32883 11 4.99965C11.3354 5.67047 11.3357 5.67034 11.3359 5.67022L11.3372 5.6696L11.3382 5.66907L11.3305 5.67314C11.3219 5.6777 11.3068 5.68589 11.2862 5.69771C11.2447 5.7214 11.1814 5.75927 11.1035 5.81119C10.9465 5.91586 10.7374 6.07289 10.5303 6.27998C10.2678 6.54254 10.0274 6.86508 9.88474 7.24965H10C10.9662 7.24965 11.75 8.03344 11.75 8.99965C11.75 9.96587 10.9662 10.7497 10 10.7497C9.03379 10.7497 8.25 9.96587 8.25 8.99965V7.99965C8.25 6.73058 8.88792 5.80107 9.46967 5.21932C9.76258 4.92641 10.0535 4.70844 10.2715 4.56311C10.3811 4.49003 10.474 4.43416 10.542 4.39534C10.576 4.37591 10.6039 4.36067 10.6246 4.34961L10.6503 4.33612L10.6589 4.3317L10.6621 4.33007L10.664 4.32911ZM9.75 8.74965V8.99965C9.75 9.13744 9.86221 9.24965 10 9.24965C10.1378 9.24965 10.25 9.13744 10.25 8.99965C10.25 8.86187 10.1378 8.74965 10 8.74965H9.75ZM11.3382 5.66907C11.3386 5.66885 11.3387 5.66883 11.3382 5.66907V5.66907Z" fill="#17191A"/>
</svg>
