<svg width="24" height="24" viewBox="0 0 24 24" fill="none" xmlns="http://www.w3.org/2000/svg">
<path d="M21 13.0005H3V15.0005H21V13.0005Z" fill="#17191A"/>
<path d="M21 17.0005H3V19.0005H21V17.0005Z" fill="#17191A"/>
<path d="M21 9.00049H13V11.0005H21V9.00049Z" fill="#17191A"/>
<path d="M21 5.00049H13V7.00049H21V5.00049Z" fill="#17191A"/>
<path d="M5 11.0005C6.103 11.0005 7 10.1035 7 9.00047C7 7.99047 6.247 7.15247 5.272 7.01947C5.69 6.29447 6.442 5.89747 6.453 5.89247L6 5.00047L5.553 4.10547C5.449 4.15747 3 5.41147 3 8.00047V9.00047C3 10.1035 3.897 11.0005 5 11.0005Z" fill="#17191A"/>
<path d="M10 11.0005C11.103 11.0005 12 10.1035 12 9.00047C12 7.99047 11.247 7.15247 10.272 7.01947C10.69 6.29447 11.442 5.89747 11.453 5.89247L11 5.00047L10.553 4.10547C10.449 4.15747 8 5.41147 8 8.00047V9.00047C8 10.1035 8.897 11.0005 10 11.0005Z" fill="#17191A"/>
</svg>
