<svg width="24" height="24" viewBox="0 0 24 24" fill="none" xmlns="http://www.w3.org/2000/svg">
<path d="M11.9992 23.0002C11.8992 23.0002 11.6992 23.0002 11.5992 23.0002C11.2992 22.8002 10.9992 22.5002 10.9992 22.1002V14.2002L6.39922 17.9002L5.19922 16.3002L10.4992 12.1002L5.19922 7.90023L6.39922 6.30023L10.9992 10.0002V2.00023C10.9992 1.60023 11.1992 1.30023 11.5992 1.10023C11.8992 0.900228 12.3992 1.00023 12.6992 1.20023L18.9992 6.20023C19.1992 6.40023 19.3992 6.70023 19.3992 7.00023C19.3992 7.30023 19.2992 7.60023 18.9992 7.80023L13.6992 12.0002L18.9992 16.2002C19.1992 16.4002 19.3992 16.7002 19.3992 17.0002C19.3992 17.3002 19.2992 17.6002 18.9992 17.8002L12.6992 22.8002C12.4992 22.9002 12.2992 23.0002 12.0992 23.0002H11.9992ZM12.9992 14.1002V19.9002L16.5992 17.0002L12.9992 14.1002ZM12.9992 4.10023V9.90023L16.5992 7.00023L12.9992 4.10023Z" fill="#17191A"/>
</svg>
