<svg width="24" height="24" viewBox="0 0 24 24" fill="none" xmlns="http://www.w3.org/2000/svg">
<path fill-rule="evenodd" clip-rule="evenodd" d="M11.6749 1.32403C11.9347 1.19914 12.2432 1.23425 12.4683 1.41436L18.7183 6.41436C18.8962 6.55668 18.9998 6.77217 18.9998 7.00001C18.9998 7.22784 18.8962 7.44333 18.7183 7.58566L13.2004 12L18.7183 16.4144C18.8962 16.5567 18.9998 16.7722 18.9998 17C18.9998 17.2278 18.8962 17.4433 18.7183 17.5857L12.4683 22.5857C12.2432 22.7658 11.9347 22.8009 11.6749 22.676C11.415 22.5511 11.2498 22.2883 11.2498 22V13.5605L6.21829 17.5857L5.28125 16.4144L10.7992 12L5.28125 7.58566L6.21829 6.41436L11.2498 10.4395V2.00001C11.2498 1.7117 11.415 1.44892 11.6749 1.32403ZM12.7498 13.5605L17.0492 17L12.7498 20.4395V13.5605ZM12.7498 10.4395V3.56048L17.0492 7.00001L12.7498 10.4395Z" fill="#17191A"/>
</svg>
