<svg width="24" height="24" viewBox="0 0 24 24" fill="none" xmlns="http://www.w3.org/2000/svg">
<path fill-rule="evenodd" clip-rule="evenodd" d="M20.4697 9.53039L16.4697 5.53039L17.5303 4.46973L21.5303 8.46973L20.4697 9.53039Z" fill="#17191A"/>
<path fill-rule="evenodd" clip-rule="evenodd" d="M16.4697 8.46973L20.4697 4.46973L21.5303 5.53039L17.5303 9.53039L16.4697 8.46973Z" fill="#17191A"/>
<path fill-rule="evenodd" clip-rule="evenodd" d="M6.23276 16.4569L14.4828 8.59985L15.5172 9.68607L7.26723 17.5431L6.23276 16.4569Z" fill="#17191A"/>
<path fill-rule="evenodd" clip-rule="evenodd" d="M11.7046 1.31066C11.9803 1.19248 12.3 1.25 12.5172 1.4569L15.5172 4.3139L14.4828 5.40013L12.75 3.74996V11.6786L17.7672 16.4569C17.9159 16.5985 18 16.7948 18 17C18 17.2053 17.9159 17.4016 17.7672 17.5431L12.5172 22.5431C12.3 22.75 11.9803 22.8076 11.7046 22.6894C11.4288 22.5712 11.25 22.3 11.25 22V12.3214L6.23276 7.54312L7.26724 6.45691L11.25 10.25V2.00002C11.25 1.7 11.4288 1.42885 11.7046 1.31066ZM12.75 13.75V20.25L16.1625 17L12.75 13.75Z" fill="#17191A"/>
</svg>
