<svg width="24" height="24" viewBox="0 0 24 24" fill="none" xmlns="http://www.w3.org/2000/svg">
<path d="M21.7 5.70029L20.3 4.30029L19 5.60029L17.7 4.30029L16.3 5.70029L17.6 7.00029L16.3 8.30029L17.7 9.70029L19 8.40029L20.3 9.70029L21.7 8.30029L20.4 7.00029L21.7 5.70029Z" fill="#17191A"/>
<path d="M13.5 12.0001L15.7 9.90015L14.3 8.50015L13 9.70015V4.40015L14.3 5.60015L15.7 4.20015L12.7 1.30015C12.4 1.00015 12 0.900146 11.6 1.10015C11.2 1.30015 11 1.60015 11 2.00015V9.70015L7.4 6.30015L6 7.70015L10.5 12.0001L6 16.3001L7.4 17.7001L11 14.3001V22.0001C11 22.4001 11.2 22.8001 11.6 22.9001C11.7 22.9001 11.9 22.9001 12 22.9001C12.3 22.9001 12.5 22.9001 12.7 22.6001L17.9 17.6001C18.1 17.4001 18.2 17.1001 18.2 16.9001C18.2 16.7001 18.1 16.4001 17.9 16.2001L13.4 11.9001L13.5 12.0001ZM13 14.4001L15.8 17.1001L13 19.8001V14.4001Z" fill="#17191A"/>
</svg>
