<svg width="24" height="24" viewBox="0 0 24 24" fill="none" xmlns="http://www.w3.org/2000/svg">
<path d="M17.554 12.542C17.204 12.142 16.778 11.837 16.317 11.588C16.33 11.575 16.347 11.566 16.36 11.553C17.326 10.709 17.902 9.38098 17.902 8.00098C17.902 6.70198 17.372 5.45698 16.455 4.54298C15.585 3.54898 14.323 3.00098 12.902 3.00098H5.00195V21.001H14.002C15.301 21.001 16.546 20.471 17.461 19.553C18.426 18.708 19.002 17.38 19.002 16.001C19.002 14.837 18.487 13.609 17.555 12.543L17.554 12.542ZM7.00095 4.99998H12.901C13.492 4.99998 14.327 5.14898 14.994 5.90698C15.579 6.49198 15.901 7.23498 15.901 7.99998C15.901 8.79898 15.572 9.58398 14.994 10.093C14.409 10.678 13.666 11 12.901 11H7.00095V4.99998ZM16.094 18.093C15.509 18.678 14.766 19 14.001 19H7.00095V13H14.001C14.592 13 15.428 13.149 16.049 13.859C16.653 14.55 17.001 15.331 17.001 16C17.001 16.799 16.672 17.584 16.094 18.093Z" fill="#17191A"/>
</svg>
