<svg width="24" height="24" viewBox="0 0 24 24" fill="none" xmlns="http://www.w3.org/2000/svg">
<path fill-rule="evenodd" clip-rule="evenodd" d="M5 3H12.65C13.9269 3 15.1371 3.46531 15.9978 4.43719C16.9225 5.37064 17.4 6.55233 17.4 7.75C17.4 8.91684 16.9417 10.2296 15.9629 11.0977C15.0295 12.0225 13.8477 12.5 12.65 12.5H5V3ZM6.5 4.5V11H12.65C13.4448 11 14.2558 10.6835 14.9197 10.0197L14.9373 10.002L14.9561 9.98557C15.5643 9.45342 15.9 8.57561 15.9 7.75C15.9 6.95517 15.5835 6.14417 14.9197 5.48033L14.902 5.46267L14.8856 5.44388C14.3472 4.82864 13.5648 4.5 12.65 4.5H6.5Z" fill="#17191A"/>
<path fill-rule="evenodd" clip-rule="evenodd" d="M13.75 12.5H12.65V11H13.75C15.0352 11 16.2528 11.4714 17.1144 12.4561C17.8875 13.3396 18.5 14.5083 18.5 15.75C18.5 16.9168 18.0417 18.2296 17.0629 19.0977C16.1295 20.0225 14.9477 20.5 13.75 20.5H5V11.75H6.5V19H13.75C14.5448 19 15.3558 18.6835 16.0197 18.0197L16.0373 18.002L16.0561 17.9856C16.6643 17.4534 17 16.5756 17 15.75C17 14.9917 16.6125 14.1604 15.9856 13.4439C15.4472 12.8286 14.6648 12.5 13.75 12.5Z" fill="#17191A"/>
</svg>
