<svg width="24" height="24" viewBox="0 0 24 24" fill="none" xmlns="http://www.w3.org/2000/svg">
<path fill-rule="evenodd" clip-rule="evenodd" d="M12 5.4502C12.4142 5.4502 12.75 5.78598 12.75 6.2002V19.0002C12.75 19.4144 12.4142 19.7502 12 19.7502C11.5858 19.7502 11.25 19.4144 11.25 19.0002V6.2002C11.25 5.78598 11.5858 5.4502 12 5.4502Z" fill="#17191A"/>
<path fill-rule="evenodd" clip-rule="evenodd" d="M2.75 6.66247V17.8295C4.07619 17.3079 5.51109 17.05 7 17.05C8.77421 17.05 10.4717 17.4162 12 18.1585C13.5283 17.4162 15.2258 17.05 17 17.05C18.4889 17.05 19.9238 17.3079 21.25 17.8295V6.66247C19.9659 6.05722 18.5285 5.75 17 5.75C15.312 5.75 13.7349 6.12471 12.3529 6.86176C12.1324 6.97941 11.8676 6.97941 11.6471 6.86176C10.2651 6.12471 8.68801 5.75 7 5.75C5.47155 5.75 4.03406 6.05722 2.75 6.66247ZM1.64706 5.53824C3.26509 4.67529 5.08801 4.25 7 4.25C8.77421 4.25 10.4717 4.6162 12 5.35849C13.5283 4.6162 15.2258 4.25 17 4.25C18.912 4.25 20.7349 4.67529 22.3529 5.53824C22.5973 5.66858 22.75 5.92302 22.75 6.2V19C22.75 19.2634 22.6118 19.5076 22.3859 19.6431C22.16 19.7787 21.8795 19.7857 21.6471 19.6618C20.2651 18.9247 18.688 18.55 17 18.55C15.312 18.55 13.7349 18.9247 12.3529 19.6618C12.1324 19.7794 11.8676 19.7794 11.6471 19.6618C10.2651 18.9247 8.68801 18.55 7 18.55C5.31199 18.55 3.73491 18.9247 2.35294 19.6618C2.12049 19.7857 1.84003 19.7787 1.61413 19.6431C1.38822 19.5076 1.25 19.2634 1.25 19V6.2C1.25 5.92302 1.40266 5.66858 1.64706 5.53824Z" fill="#17191A"/>
</svg>
