<svg width="24" height="24" viewBox="0 0 24 24" fill="none" xmlns="http://www.w3.org/2000/svg">
<path d="M13 6H7C5.346 6 4 7.346 4 9V21C4 21.36 4.194 21.692 4.507 21.87C4.82 22.048 5.205 22.043 5.514 21.857L9.999 19.166L14.484 21.857C14.642 21.952 14.821 22 14.999 22C15.169 22 15.339 21.957 15.492 21.87C15.805 21.692 15.999 21.36 15.999 21V9C15.999 7.346 14.653 6 12.999 6H13Z" fill="#17191A"/>
<path d="M15 2H11V4H15C16.654 4 18 5.346 18 7V17H20V7C20 4.243 17.757 2 15 2Z" fill="#17191A"/>
</svg>
