<svg width="24" height="24" viewBox="0 0 24 24" fill="none" xmlns="http://www.w3.org/2000/svg">
<path d="M6.3 1.90039C5.494 1.90039 4.651 2.25639 4.032 2.85539C3.366 3.41039 3 4.24039 3 5.20039V18.7004C3 18.7174 3.005 18.7334 3.005 18.7504C3.005 18.7674 3 18.7834 3 18.8004H3.011C3.039 19.5764 3.381 20.3764 3.956 20.9694C4.511 21.6354 5.341 22.0004 6.3 22.0004H21V1.90039H6.3ZM8 7.00039H16V9.00039H8V7.00039ZM19 20.0004H6.3C6.045 20.0004 5.696 19.9434 5.481 19.6754L5.406 19.5924C5.176 19.3634 5.023 19.0324 5.006 18.7504C5.023 18.4684 5.176 18.1374 5.406 17.9084L5.481 17.8254C5.696 17.5564 6.045 17.5004 6.3 17.5004H19V20.0004Z" fill="#17191A"/>
</svg>
