<svg width="24" height="24" viewBox="0 0 24 24" fill="none" xmlns="http://www.w3.org/2000/svg">
<path fill-rule="evenodd" clip-rule="evenodd" d="M7.5 3.75C6.81421 3.75 6.25 4.31421 6.25 5V19.6578L11.6069 16.3613C11.848 16.2129 12.152 16.2129 12.3931 16.3613L17.75 19.6578V5C17.75 4.31421 17.1858 3.75 16.5 3.75H7.5ZM4.75 5C4.75 3.48579 5.98579 2.25 7.5 2.25H16.5C18.0142 2.25 19.25 3.48579 19.25 5V21C19.25 21.2717 19.103 21.5222 18.8659 21.6547C18.6287 21.7873 18.3383 21.7811 18.1069 21.6387L12 17.8806L5.89307 21.6387C5.66167 21.7811 5.37134 21.7873 5.13415 21.6547C4.89696 21.5222 4.75 21.2717 4.75 21V5Z" fill="#17191A"/>
<path fill-rule="evenodd" clip-rule="evenodd" d="M11.25 13V7H12.75V13H11.25Z" fill="#17191A"/>
<path fill-rule="evenodd" clip-rule="evenodd" d="M15 10.75H9V9.25H15V10.75Z" fill="#17191A"/>
</svg>
