<svg width="24" height="24" viewBox="0 0 24 24" fill="none" xmlns="http://www.w3.org/2000/svg">
<path d="M22.47 5.32C20.83 4.45 18.99 4 17 4C15.58 4 14.25 4.23 13 4.68V17C13 17.55 12.55 18 12 18C11.45 18 11 17.55 11 17V4.68C9.75 4.24 8.42 4 7 4C5.01 4 3.17 4.44 1.53 5.32C1.2 5.49 1 5.83 1 6.2V19C1 19.35 1.18 19.68 1.49 19.86C1.79 20.04 2.17 20.05 2.48 19.89C3.83 19.17 5.35 18.81 7.01 18.81C8.67 18.81 10.19 19.17 11.54 19.89C11.83 20.05 12.19 20.05 12.48 19.89C13.83 19.17 15.35 18.81 17.01 18.81C18.67 18.81 20.19 19.17 21.54 19.89C21.69 19.97 21.85 20.01 22.01 20.01C22.19 20.01 22.37 19.96 22.52 19.87C22.82 19.69 23.01 19.36 23.01 19.01V6.2C23.01 5.83 22.81 5.49 22.48 5.32H22.47Z" fill="#17191A"/>
</svg>
