<svg width="24" height="24" viewBox="0 0 24 24" fill="none" xmlns="http://www.w3.org/2000/svg">
<path fill-rule="evenodd" clip-rule="evenodd" d="M7.75 3.5C7.06421 3.5 6.5 4.06421 6.5 4.75V19.4078L11.8569 16.1113C12.098 15.9629 12.402 15.9629 12.6431 16.1113L18 19.4078V4.75C18 4.06421 17.4358 3.5 16.75 3.5H7.75ZM5 4.75C5 3.23579 6.23579 2 7.75 2H16.75C18.2642 2 19.5 3.23579 19.5 4.75V20.75C19.5 21.0217 19.353 21.2722 19.1159 21.4047C18.8787 21.5373 18.5883 21.5311 18.3569 21.3887L12.25 17.6306L6.14307 21.3887C5.91167 21.5311 5.62134 21.5373 5.38415 21.4047C5.14696 21.2722 5 21.0217 5 20.75V4.75Z" fill="#17191A"/>
</svg>
