<svg width="24" height="24" viewBox="0 0 24 24" fill="none" xmlns="http://www.w3.org/2000/svg">
<path fill-rule="evenodd" clip-rule="evenodd" d="M7 7.75C6.31421 7.75 5.75 8.31421 5.75 9V19.6754L9.61413 17.3569C9.85164 17.2144 10.1484 17.2144 10.3859 17.3569L14.25 19.6754V9C14.25 8.31421 13.6858 7.75 13 7.75H7ZM4.25 9C4.25 7.48579 5.48579 6.25 7 6.25H13C14.5142 6.25 15.75 7.48579 15.75 9V21C15.75 21.2702 15.6047 21.5195 15.3695 21.6526C15.1344 21.7858 14.8458 21.7821 14.6141 21.6431L10 18.8746L5.38587 21.6431C5.15417 21.7821 4.86561 21.7858 4.63048 21.6526C4.39534 21.5195 4.25 21.2702 4.25 21V9Z" fill="#17191A"/>
<path fill-rule="evenodd" clip-rule="evenodd" d="M15 3.75H11V2.25H15C17.6142 2.25 19.75 4.38579 19.75 7V17H18.25V7C18.25 5.21421 16.7858 3.75 15 3.75Z" fill="#17191A"/>
</svg>
