<svg width="24" height="24" viewBox="0 0 24 24" fill="none" xmlns="http://www.w3.org/2000/svg">
<path fill-rule="evenodd" clip-rule="evenodd" d="M9.25 9C9.25 8.58579 9.58579 8.25 10 8.25H14C14.4142 8.25 14.75 8.58579 14.75 9C14.75 9.41421 14.4142 9.75 14 9.75H10C9.58579 9.75 9.25 9.41421 9.25 9Z" fill="#17191A"/>
<path fill-rule="evenodd" clip-rule="evenodd" d="M8.25 5C8.25 2.92879 9.92879 1.25 12 1.25C14.0712 1.25 15.75 2.92879 15.75 5C15.75 5.86209 15.473 6.47745 15.2428 6.98896C15.2232 7.03239 15.204 7.07508 15.1854 7.1171C14.954 7.63762 14.75 8.15117 14.75 9C14.75 10.0215 15.139 10.8473 15.6335 11.8974C15.6485 11.9291 15.6635 11.961 15.6786 11.9932C16.1832 13.0654 16.75 14.3209 16.75 16C16.75 17.6678 16.1945 19.0463 15.6512 19.9971C15.3786 20.4741 15.1055 20.8499 14.8982 21.1091C14.7943 21.239 14.7064 21.3402 14.6425 21.4109C14.6106 21.4463 14.5846 21.4741 14.5656 21.494L14.5424 21.5181L14.5349 21.5257L14.5323 21.5284L14.5312 21.5295C14.531 21.5297 14.5303 21.5303 14 21L14.5303 21.5303L14.3107 21.75H9.68934L9.46967 21.5303L10 21C9.46967 21.5303 9.46988 21.5305 9.46967 21.5303L9.46775 21.5284L9.46509 21.5257L9.45763 21.5181L9.43444 21.494C9.41542 21.4741 9.38943 21.4463 9.35749 21.4109C9.29362 21.3402 9.20571 21.239 9.10185 21.1091C8.89449 20.8499 8.62137 20.4741 8.34882 19.9971C7.8055 19.0463 7.25 17.6678 7.25 16C7.25 14.3209 7.8168 13.0654 8.32139 11.9932C8.3365 11.961 8.35153 11.9291 8.36646 11.8974C8.86105 10.8473 9.25 10.0215 9.25 9C9.25 8.15117 9.04598 7.63762 8.81464 7.1171C8.79596 7.07508 8.77675 7.03239 8.7572 6.98896C8.52697 6.47745 8.25 5.86209 8.25 5ZM10.3365 20.25H13.6635C13.6834 20.2259 13.7046 20.1999 13.7268 20.1721C13.8945 19.9626 14.1214 19.6509 14.3488 19.2529C14.8055 18.4537 15.25 17.3322 15.25 16C15.25 14.6791 14.8168 13.6846 14.3214 12.6318C14.2942 12.574 14.2666 12.5158 14.2389 12.4571C13.773 11.4721 13.25 10.3662 13.25 9C13.25 7.84883 13.546 7.11238 13.8146 6.5079C13.8299 6.47364 13.8448 6.44018 13.8594 6.40742C14.0957 5.87774 14.25 5.53181 14.25 5C14.25 3.75721 13.2428 2.75 12 2.75C10.7572 2.75 9.75 3.75721 9.75 5C9.75 5.53181 9.90431 5.87774 10.1406 6.40742C10.1552 6.44018 10.1701 6.47364 10.1854 6.5079C10.454 7.11238 10.75 7.84883 10.75 9C10.75 10.3662 10.227 11.4721 9.76113 12.4571C9.73338 12.5158 9.70583 12.574 9.67861 12.6318C9.1832 13.6846 8.75 14.6791 8.75 16C8.75 17.3322 9.1945 18.4537 9.65118 19.2529C9.87863 19.6509 10.1055 19.9626 10.2732 20.1721C10.2954 20.1999 10.3166 20.2259 10.3365 20.25Z" fill="#17191A"/>
<path fill-rule="evenodd" clip-rule="evenodd" d="M5 10C5 9.58579 5.33579 9.25 5.75 9.25H8C8.41421 9.25 8.75 9.58579 8.75 10C8.75 10.4142 8.41421 10.75 8 10.75H5.75C5.33579 10.75 5 10.4142 5 10Z" fill="#17191A"/>
<path fill-rule="evenodd" clip-rule="evenodd" d="M4.125 7C4.125 5.13579 5.63579 3.625 7.5 3.625C7.91421 3.625 8.25 3.96079 8.25 4.375C8.25 4.78921 7.91421 5.125 7.5 5.125C6.46421 5.125 5.625 5.96421 5.625 7C5.625 7.44464 5.75236 7.73033 5.96047 8.19718C5.97266 8.22453 5.98513 8.25251 5.99787 8.28118C6.23528 8.81541 6.5 9.47385 6.5 10.5C6.5 11.7169 6.03387 12.7022 5.62724 13.5617C5.60244 13.6141 5.57786 13.6661 5.55362 13.7176C5.12071 14.6376 4.75 15.4916 4.75 16.625C4.75 17.7783 5.11549 18.7487 5.49019 19.4391C5.67681 19.783 5.86272 20.0518 5.9995 20.2318C6.00419 20.238 6.00881 20.244 6.01337 20.25H8C8.41421 20.25 8.75 20.5858 8.75 21C8.75 21.4142 8.41421 21.75 8 21.75H5.33995L5.11817 21.5165L5.662 21C5.11817 21.5165 5.11837 21.5167 5.11817 21.5165L5.11635 21.5146L5.11393 21.512L5.10728 21.5049L5.08711 21.4828C5.0707 21.4647 5.0485 21.4397 5.02133 21.408C4.96703 21.3447 4.89271 21.2545 4.80513 21.1393C4.63028 20.9091 4.40069 20.5764 4.17181 20.1546C3.71551 19.3138 3.25 18.0967 3.25 16.625C3.25 15.1334 3.75429 14.0184 4.19638 13.0789C4.20833 13.0535 4.22021 13.0283 4.23202 13.0032C4.66795 12.0774 5 11.3723 5 10.5C5 9.77615 4.82722 9.34059 4.62713 8.89032C4.61075 8.85348 4.59384 8.81591 4.57656 8.77756C4.37506 8.33014 4.125 7.77488 4.125 7Z" fill="#17191A"/>
<path fill-rule="evenodd" clip-rule="evenodd" d="M15.25 10C15.25 9.58579 15.5858 9.25 16 9.25H18.25C18.6642 9.25 19 9.58579 19 10C19 10.4142 18.6642 10.75 18.25 10.75H16C15.5858 10.75 15.25 10.4142 15.25 10Z" fill="#17191A"/>
<path fill-rule="evenodd" clip-rule="evenodd" d="M15.75 4.375C15.75 3.96079 16.0858 3.625 16.5 3.625C18.3642 3.625 19.875 5.13579 19.875 7C19.875 7.77547 19.6249 8.33076 19.4233 8.77825C19.4061 8.81652 19.3892 8.854 19.3728 8.89076C19.1728 9.3409 19 9.77619 19 10.5C19 11.3723 19.332 12.0774 19.768 13.0032C19.7798 13.0283 19.7917 13.0535 19.8036 13.0789C20.2457 14.0184 20.75 15.1334 20.75 16.625C20.75 18.0967 20.2845 19.3138 19.8282 20.1546C19.5993 20.5764 19.3697 20.9091 19.1949 21.1393C19.1073 21.2545 19.033 21.3447 18.9787 21.408C18.9515 21.4397 18.9293 21.4647 18.9129 21.4828L18.8927 21.5049L18.8861 21.512L18.8836 21.5146L18.8827 21.5156C18.8825 21.5158 18.8818 21.5165 18.338 21L18.8818 21.5165L18.66 21.75H16C15.5858 21.75 15.25 21.4142 15.25 21C15.25 20.5858 15.5858 20.25 16 20.25H17.9866C17.9912 20.244 17.9958 20.238 18.0005 20.2318C18.1373 20.0518 18.3232 19.783 18.5098 19.4391C18.8845 18.7487 19.25 17.7783 19.25 16.625C19.25 15.4916 18.8793 14.6376 18.4464 13.7176C18.4221 13.6661 18.3976 13.6141 18.3728 13.5617C17.9661 12.7022 17.5 11.7169 17.5 10.5C17.5 9.47381 17.7647 8.8156 18.0022 8.28149C18.0149 8.25293 18.0273 8.22505 18.0394 8.19779C18.2476 7.73103 18.375 7.44521 18.375 7C18.375 5.96421 17.5358 5.125 16.5 5.125C16.0858 5.125 15.75 4.78921 15.75 4.375Z" fill="#17191A"/>
</svg>
