<svg width="24" height="24" viewBox="0 0 24 24" fill="none" xmlns="http://www.w3.org/2000/svg">
<path d="M19.97 12.845C19.583 12.027 19.25 11.32 19.25 10.5C19.25 9.776 19.434 9.365 19.647 8.89C19.871 8.39 20.125 7.823 20.125 7C20.125 5.001 18.499 3.375 16.5 3.375C16.207 3.375 15.95 3.506 15.767 3.707C15.226 2.138 13.751 1 12 1C10.249 1 8.774 2.138 8.233 3.707C8.05 3.506 7.793 3.375 7.5 3.375C5.501 3.375 3.875 5.001 3.875 7C3.875 7.823 4.129 8.389 4.353 8.889C4.566 9.365 4.75 9.776 4.75 10.5C4.75 11.319 4.417 12.026 4.03 12.845C3.547 13.868 3 15.029 3 16.625C3 19.615 4.858 21.605 4.937 21.688L5.233 22H8C8.445 22 8.809 21.704 8.939 21.302C9.131 21.538 9.271 21.685 9.293 21.707L9.586 22H14.414L14.707 21.707C14.729 21.685 14.869 21.538 15.061 21.302C15.191 21.704 15.555 22 16 22H18.768L19.063 21.688C19.142 21.605 21.001 19.615 21.001 16.625C21.001 15.028 20.453 13.868 19.971 12.845H19.97ZM15.467 7.101C15.696 6.589 15.943 6.004 15.984 5.211C16.137 5.306 16.307 5.375 16.5 5.375C17.396 5.375 18.125 6.104 18.125 7C18.125 7.396 18.005 7.665 17.822 8.072C17.703 8.338 17.571 8.641 17.463 9H15.999C15.561 9 15.199 9.286 15.064 9.677C15.024 9.457 14.999 9.233 14.999 9C14.999 8.142 15.215 7.66 15.466 7.101H15.467ZM12 3C13.103 3 14 3.897 14 5C14 5.482 13.85 5.818 13.642 6.283C13.44 6.734 13.208 7.273 13.086 8H10.914C10.793 7.274 10.561 6.734 10.359 6.283C10.151 5.818 10 5.482 10 5C10 3.897 10.897 3 12 3ZM7.5 5.375C7.693 5.375 7.863 5.306 8.016 5.211C8.057 6.004 8.304 6.59 8.534 7.101C8.784 7.66 9 8.142 9 9C9 9.233 8.975 9.458 8.935 9.678C8.8 9.286 8.438 9 8 9H6.536C6.428 8.641 6.297 8.338 6.178 8.071C5.995 7.664 5.875 7.395 5.875 7C5.875 6.104 6.604 5.375 7.5 5.375ZM8 20H6.14C5.74 19.449 5 18.216 5 16.625C5 15.477 5.408 14.612 5.839 13.698C6.225 12.88 6.603 12.027 6.706 11H8C8.224 11 8.42 10.912 8.587 10.788C8.46 11.098 8.32 11.411 8.164 11.741C7.618 12.897 7 14.208 7 16C7 17.652 7.528 19.026 8.077 20.016C8.05 20.014 8.027 20 8 20ZM13.543 20H10.457C9.981 19.397 9 17.923 9 16C9 14.655 9.473 13.654 9.973 12.594C10.353 11.789 10.742 10.963 10.912 10H13.089C13.259 10.963 13.648 11.789 14.028 12.594C14.528 13.654 15.001 14.655 15.001 16C15.001 17.923 14.019 19.397 13.543 20ZM17.86 20H16C15.973 20 15.95 20.013 15.923 20.016C16.472 19.027 17 17.653 17 16C17 14.208 16.382 12.897 15.836 11.741C15.681 11.411 15.54 11.099 15.413 10.789C15.58 10.913 15.776 11.001 16 11.001H17.294C17.397 12.029 17.775 12.882 18.161 13.699C18.593 14.613 19 15.477 19 16.626C19 18.218 18.259 19.451 17.86 20Z" fill="#17191A"/>
</svg>
