<svg width="24" height="24" viewBox="0 0 24 24" fill="none" xmlns="http://www.w3.org/2000/svg">
<path fill-rule="evenodd" clip-rule="evenodd" d="M19.851 6.5C16.8843 6.5 14.5 8.86203 14.5 11.75C14.5 14.6379 16.8842 17 19.852 17H20V6.5H19.851ZM13 11.75C13 8.00997 16.0797 5 19.851 5H21.5V18.5H19.852C16.0798 18.5 13 15.4901 13 11.75Z" fill="#17191A"/>
<path fill-rule="evenodd" clip-rule="evenodd" d="M2 5H3.649C7.4203 5 10.5 8.00997 10.5 11.75C10.5 15.49 7.42138 18.5 3.649 18.5H2V5ZM3.5 6.5V17H3.649C6.61662 17 9 14.638 9 11.75C9 8.86203 6.6157 6.5 3.649 6.5H3.5Z" fill="#17191A"/>
</svg>
