<svg width="24" height="24" viewBox="0 0 24 24" fill="none" xmlns="http://www.w3.org/2000/svg">
<path fill-rule="evenodd" clip-rule="evenodd" d="M22 21.75H2V20.25H22V21.75Z" fill="#17191A"/>
<path fill-rule="evenodd" clip-rule="evenodd" d="M6 3.75C5.30921 3.75 4.75 4.30921 4.75 5V20.25H14.25V5C14.25 4.30921 13.6908 3.75 13 3.75H6ZM3.25 5C3.25 3.48079 4.48079 2.25 6 2.25H13C14.5192 2.25 15.75 3.48079 15.75 5V21.75H3.25V5Z" fill="#17191A"/>
<path fill-rule="evenodd" clip-rule="evenodd" d="M8 11.25H11V12.75H8V11.25Z" fill="#17191A"/>
<path fill-rule="evenodd" clip-rule="evenodd" d="M8 17.75C7.86221 17.75 7.75 17.8622 7.75 18V20.25H11.25V18C11.25 17.8622 11.1378 17.75 11 17.75H8ZM6.25 18C6.25 17.0338 7.03379 16.25 8 16.25H11C11.9662 16.25 12.75 17.0338 12.75 18V21.75H6.25V18Z" fill="#17191A"/>
<path fill-rule="evenodd" clip-rule="evenodd" d="M8 7.25H11V8.75H8V7.25Z" fill="#17191A"/>
<path fill-rule="evenodd" clip-rule="evenodd" d="M20.75 17V21H19.25V17H20.75Z" fill="#17191A"/>
<path fill-rule="evenodd" clip-rule="evenodd" d="M20 13.75C19.3096 13.75 18.75 14.3096 18.75 15C18.75 15.6904 19.3096 16.25 20 16.25C20.6904 16.25 21.25 15.6904 21.25 15C21.25 14.3096 20.6904 13.75 20 13.75ZM17.25 15C17.25 13.4812 18.4812 12.25 20 12.25C21.5188 12.25 22.75 13.4812 22.75 15C22.75 16.5188 21.5188 17.75 20 17.75C18.4812 17.75 17.25 16.5188 17.25 15Z" fill="#17191A"/>
<path fill-rule="evenodd" clip-rule="evenodd" d="M20 9.75C19.3096 9.75 18.75 10.3096 18.75 11C18.75 11.6904 19.3096 12.25 20 12.25C20.6904 12.25 21.25 11.6904 21.25 11C21.25 10.3096 20.6904 9.75 20 9.75ZM17.25 11C17.25 9.48122 18.4812 8.25 20 8.25C21.5188 8.25 22.75 9.48122 22.75 11C22.75 12.5188 21.5188 13.75 20 13.75C18.4812 13.75 17.25 12.5188 17.25 11Z" fill="#17191A"/>
</svg>
