<svg width="24" height="24" viewBox="0 0 24 24" fill="none" xmlns="http://www.w3.org/2000/svg">
<path fill-rule="evenodd" clip-rule="evenodd" d="M22 21.75H2V20.25H22V21.75Z" fill="#17191A"/>
<path fill-rule="evenodd" clip-rule="evenodd" d="M6 3.75C5.31021 3.75 4.75 4.31021 4.75 5V20.25H19.25V5C19.25 4.31021 18.6898 3.75 18 3.75H6ZM3.25 5C3.25 3.48179 4.48179 2.25 6 2.25H18C19.5182 2.25 20.75 3.48179 20.75 5V21.75H3.25V5Z" fill="#17191A"/>
<path fill-rule="evenodd" clip-rule="evenodd" d="M8 11.25H11V12.75H8V11.25Z" fill="#17191A"/>
<path fill-rule="evenodd" clip-rule="evenodd" d="M11 17.75C10.8622 17.75 10.75 17.8622 10.75 18V20.25H13.25V18C13.25 17.8622 13.1378 17.75 13 17.75H11ZM9.25 18C9.25 17.0338 10.0338 16.25 11 16.25H13C13.9662 16.25 14.75 17.0338 14.75 18V21.75H9.25V18Z" fill="#17191A"/>
<path fill-rule="evenodd" clip-rule="evenodd" d="M8 7.25H11V8.75H8V7.25Z" fill="#17191A"/>
<path fill-rule="evenodd" clip-rule="evenodd" d="M13 11.25H16V12.75H13V11.25Z" fill="#17191A"/>
<path fill-rule="evenodd" clip-rule="evenodd" d="M13 7.25H16V8.75H13V7.25Z" fill="#17191A"/>
</svg>
