<svg width="24" height="24" viewBox="0 0 24 24" fill="none" xmlns="http://www.w3.org/2000/svg">
<path d="M11 11H8V13H11V11Z" fill="#17191A"/>
<path d="M11 7H8V9H11V7Z" fill="#17191A"/>
<path d="M23 11C23 9.346 21.654 8 20 8C18.346 8 17 9.346 17 11C17 11.771 17.301 12.468 17.78 13C17.3 13.532 17 14.229 17 15C17 16.302 17.839 17.402 19 17.816V20H16V5C16 3.346 14.654 2 13 2H6C4.346 2 3 3.346 3 5V20H2V22H22V20H21V17.816C22.161 17.402 23 16.302 23 15C23 14.229 22.699 13.532 22.22 13C22.7 12.468 23 11.771 23 11ZM13 20V18C13 16.897 12.103 16 11 16H8C6.897 16 6 16.897 6 18V20H5V5C5 4.449 5.449 4 6 4H13C13.552 4 14 4.449 14 5V20H13Z" fill="#17191A"/>
</svg>
