<svg width="24" height="24" viewBox="0 0 24 24" fill="none" xmlns="http://www.w3.org/2000/svg">
<path d="M15.5 17.5H8V16.75C8 16.75 7.98 14.96 6.94 13.54L6.65 13.15C5.88 12.12 5 10.95 5 8.93C5 5.11 8.03 2 11.75 2C15.47 2 18.5 5.11 18.5 8.93C18.5 10.93 17.63 12.1 16.85 13.13L16.56 13.52C15.51 14.97 15.5 16.73 15.5 16.75V17.5ZM9.44 16H14.06C14.17 15.19 14.48 13.84 15.35 12.64L15.66 12.23C16.35 11.3 17.01 10.43 17.01 8.92C17.01 5.93 14.65 3.49 11.76 3.49C8.87 3.49 6.5 5.93 6.5 8.93C6.5 10.45 7.16 11.33 7.85 12.25L8.16 12.66C9.02 13.85 9.33 15.19 9.44 16Z" fill="#17191A"/>
<path d="M15.75 20H7.75V21.5H15.75V20Z" fill="#17191A"/>
</svg>
