<svg width="24" height="24" viewBox="0 0 24 24" fill="none" xmlns="http://www.w3.org/2000/svg">
<path d="M20.767 5.93898C19.985 5.64198 18.556 4.43898 17.825 2.34698C17.545 1.54198 16.801 1.00098 15.972 1.00098H8.095C7.211 1.00098 6.436 1.54798 6.166 2.36298C5.662 3.88998 4.015 5.52498 3.147 5.93598C2.439 6.26998 2 6.95898 2 7.73298V23.001H22V7.78498C22 6.96298 21.505 6.22098 20.767 5.93898ZM20 7.78498V11.875H14.487C14.432 11.002 13.82 10.284 13 10.071V8.36998L15.799 3.00498H15.936C16.838 5.58398 18.656 7.27698 20 7.78498ZM13 15.071V14.929C13.568 14.781 14.036 14.392 14.29 13.875H20V17.125H14.5V17C14.5 16.071 13.86 15.295 13 15.071ZM9.5 17V17.125H4.001V13.875H9.711C9.965 14.392 10.432 14.781 11.001 14.929V15.071C10.141 15.295 9.501 16.071 9.501 17H9.5ZM12 5.96298L10.455 3.00198L13.543 3.00398L11.999 5.96298H12ZM12.5 12V13H11.5V12H12.5ZM11.499 17H12.5V18H11.5V17H11.499ZM8.094 3.00098H8.198L10.999 8.36998V10.071C10.178 10.284 9.567 11.002 9.512 11.875H4.001V7.74398C5.428 7.06798 7.401 4.99698 8.094 3.00098ZM4 19.125H9.848C10.117 19.519 10.526 19.806 11 19.929V21.001H4V19.125ZM13 21.001V19.929C13.474 19.806 13.882 19.519 14.152 19.125H20V21.001H13Z" fill="#17191A"/>
<path d="M18 8H15V10H18V8Z" fill="#17191A"/>
</svg>
