<svg width="24" height="24" viewBox="0 0 24 24" fill="none" xmlns="http://www.w3.org/2000/svg">
<path d="M2.25 7.7334C2.25 7.04274 2.65083 6.44704 3.25293 6.16211L3.43164 6.06738C3.86959 5.81464 4.44584 5.33865 4.99902 4.71582C5.62601 4.00987 6.15497 3.19287 6.40332 2.44141L6.45508 2.30371C6.74273 1.63435 7.41797 1.25107 8.09375 1.25098H15.9717C16.7479 1.25098 17.3576 1.76844 17.5879 2.42871L17.7383 2.8252C18.5287 4.75227 19.8749 5.86783 20.6777 6.17285L20.8066 6.22852C21.4265 6.52803 21.75 7.17396 21.75 7.78516V22.75L2.25 22.751V7.7334ZM3.75 21.25H20.25V7.78516C20.25 7.72745 20.2328 7.67316 20.208 7.63379C20.1845 7.59655 20.1603 7.58161 20.1436 7.5752C18.8102 7.06805 17.0527 5.44369 16.1719 2.92383C16.1495 2.85954 16.1129 2.81347 16.0781 2.78711C16.0456 2.76257 16.0107 2.75098 15.9717 2.75098H8.09375C7.9447 2.75108 7.8511 2.84108 7.82715 2.91309C7.49344 3.92234 6.82918 4.91357 6.12012 5.71191C5.50424 6.40532 4.80119 7.01278 4.16406 7.37695L3.89453 7.51758C3.79485 7.56472 3.75 7.64621 3.75 7.7334V21.25Z" fill="#17191A"/>
<path d="M10.5 12.125V13.625H3V12.125H10.5Z" fill="#17191A"/>
<path d="M10.5 17.375V18.875H3V17.375H10.5Z" fill="#17191A"/>
<path d="M12.75 12C12.75 11.8619 12.6381 11.75 12.5 11.75H11.5C11.3619 11.75 11.25 11.8619 11.25 12V13C11.25 13.138 11.3619 13.25 11.5 13.25H12.5C12.6381 13.25 12.75 13.138 12.75 13V12ZM14.25 13C14.25 13.9665 13.4665 14.75 12.5 14.75H11.5C10.5335 14.75 9.75 13.9665 9.75 13V12C9.75 11.0335 10.5335 10.25 11.5 10.25H12.5C13.4665 10.25 14.25 11.0335 14.25 12V13Z" fill="#17191A"/>
<path d="M12.75 17C12.75 16.8619 12.6381 16.75 12.5 16.75H11.5C11.3619 16.75 11.25 16.8619 11.25 17V18C11.25 18.138 11.3619 18.25 11.5 18.25H12.5C12.6381 18.25 12.75 18.138 12.75 18V17ZM14.25 18C14.25 18.9665 13.4665 19.75 12.5 19.75H11.5C10.5335 19.75 9.75 18.9665 9.75 18V17C9.75 16.0335 10.5335 15.25 11.5 15.25H12.5C13.4665 15.25 14.25 16.0335 14.25 17V18Z" fill="#17191A"/>
<path d="M12.665 7.7783L11.335 8.47166L8.33496 2.72166L9.66504 2.0283L12.665 7.7783Z" fill="#17191A"/>
<path d="M15.665 2.72166L12.665 8.47166L11.335 7.7783L14.335 2.0283L15.665 2.72166Z" fill="#17191A"/>
<path d="M12.75 8.12498V11H11.25V8.12498H12.75Z" fill="#17191A"/>
<path d="M12.75 14V16H11.25V14H12.75Z" fill="#17191A"/>
<path d="M12.75 19V22H11.25V19H12.75Z" fill="#17191A"/>
<path d="M21 12.125V13.625H13.5V12.125H21Z" fill="#17191A"/>
<path d="M21 17.375V18.875H13.5V17.375H21Z" fill="#17191A"/>
<path d="M18 8.24998V9.74998H15V8.24998H18Z" fill="#17191A"/>
</svg>
