<svg width="24" height="24" viewBox="0 0 24 24" fill="none" xmlns="http://www.w3.org/2000/svg">
<path d="M23 12C23 10.611 22.047 9.45 20.763 9.111C19.471 5.483 15.96 3 12 3C8.04 3 4.529 5.483 3.237 9.111C1.953 9.451 1 10.611 1 12C1 13.302 1.839 14.402 3 14.816V15.004C3 18.311 5.69 21 8.996 21H15.004C18.311 21 21 18.311 21 15.004V14.816C22.161 14.402 23 13.302 23 12ZM12 5C14.812 5 17.337 6.585 18.543 8.985L5.455 8.988C6.661 6.586 9.186 5 12 5ZM19 15.004C19 17.207 17.207 19 15.004 19H8.996C6.792 19 5 17.207 5 15.004V15H19V15.004ZM20 13H4C3.449 13 3 12.551 3 12C3 11.449 3.449 11 4 11H4.044C4.049 11 4.054 11.003 4.059 11.003C4.069 11.003 4.08 11 4.09 11H20C20.552 11 21 11.449 21 12C21 12.551 20.552 13 20 13Z" fill="#17191A"/>
</svg>
