<svg width="24" height="24" viewBox="0 0 24 24" fill="none" xmlns="http://www.w3.org/2000/svg">
<path fill-rule="evenodd" clip-rule="evenodd" d="M5.06441 9.235H18.9356C17.7871 6.60048 15.1154 4.75 12 4.75C8.88463 4.75 6.21294 6.60048 5.06441 9.235ZM3.277 9.80056C4.32191 6.01263 7.84329 3.25 12 3.25C16.1567 3.25 19.6781 6.01263 20.723 9.80056C20.792 10.0506 20.7269 10.3184 20.5509 10.5089C20.3749 10.6994 20.113 10.7855 19.8584 10.7365C19.8449 10.7339 19.8343 10.7326 19.8268 10.7321C19.8228 10.7319 19.8203 10.7318 19.8191 10.7318C19.8179 10.732 19.8181 10.7319 19.8191 10.7318C19.7961 10.734 19.7732 10.735 19.75 10.735H4.25C4.22681 10.735 4.20363 10.7339 4.18053 10.7318C4.1812 10.7318 4.18154 10.7319 4.18154 10.7319C4.18154 10.7319 4.17885 10.7317 4.17322 10.7321C4.16566 10.7326 4.15508 10.7339 4.14164 10.7365C3.88697 10.7855 3.62507 10.6994 3.4491 10.5089C3.27312 10.3184 3.20804 10.0506 3.277 9.80056Z" fill="#17191A"/>
<path fill-rule="evenodd" clip-rule="evenodd" d="M3.25 13.25H20.75V15.004C20.75 18.1752 18.1752 20.75 15.004 20.75H8.996C5.82479 20.75 3.25 18.1752 3.25 15.004V13.25ZM4.75 14.75V15.004C4.75 17.3468 6.65321 19.25 8.996 19.25H15.004C17.3468 19.25 19.25 17.3468 19.25 15.004V14.75H4.75Z" fill="#17191A"/>
<path fill-rule="evenodd" clip-rule="evenodd" d="M4 10.75C3.30964 10.75 2.75 11.3096 2.75 12C2.75 12.6904 3.30964 13.25 4 13.25H20C20.6904 13.25 21.25 12.6904 21.25 12C21.25 11.3096 20.6904 10.75 20 10.75H4ZM1.25 12C1.25 10.4812 2.48122 9.25 4 9.25H20C21.5188 9.25 22.75 10.4812 22.75 12C22.75 13.5188 21.5188 14.75 20 14.75H4C2.48122 14.75 1.25 13.5188 1.25 12Z" fill="#17191A"/>
</svg>
