<svg width="24" height="24" viewBox="0 0 24 24" fill="none" xmlns="http://www.w3.org/2000/svg">
<path d="M15 17.25V18.75H8V17.25H15Z" fill="#17191A"/>
<path d="M1.25 7C1.25 6.03379 2.03379 5.25 3 5.25H19.3057C20.5666 5.25 21.6537 6.10466 21.9668 7.30371L22.0186 7.54785L22.7402 11.877L22.75 11.9375V18.75H19V17.25H21.25V12.0635L20.5391 7.79492L20.5156 7.68359C20.3732 7.13836 19.8787 6.75 19.3057 6.75H3C2.86221 6.75 2.75 6.86221 2.75 7V17.25H4V18.75H1.25V7Z" fill="#17191A"/>
<path d="M21 14.25V15.75H18V14.25H21Z" fill="#17191A"/>
<path d="M22 11.25V12.75H2V11.25H22Z" fill="#17191A"/>
<path d="M8.75 6V12H7.25V6H8.75Z" fill="#17191A"/>
<path d="M14.75 6V12H13.25V6H14.75Z" fill="#17191A"/>
<path d="M7.25 18C7.25 17.3096 6.69036 16.75 6 16.75C5.30964 16.75 4.75 17.3096 4.75 18C4.75 18.6904 5.30964 19.25 6 19.25C6.69036 19.25 7.25 18.6904 7.25 18ZM8.75 18C8.75 19.5188 7.51878 20.75 6 20.75C4.48122 20.75 3.25 19.5188 3.25 18C3.25 16.4812 4.48122 15.25 6 15.25C7.51878 15.25 8.75 16.4812 8.75 18Z" fill="#17191A"/>
<path d="M18.25 18C18.25 17.3096 17.6904 16.75 17 16.75C16.3096 16.75 15.75 17.3096 15.75 18C15.75 18.6904 16.3096 19.25 17 19.25C17.6904 19.25 18.25 18.6904 18.25 18ZM19.75 18C19.75 19.5188 18.5188 20.75 17 20.75C15.4812 20.75 14.25 19.5188 14.25 18C14.25 16.4812 15.4812 15.25 17 15.25C18.5188 15.25 19.75 16.4812 19.75 18Z" fill="#17191A"/>
</svg>
