<svg width="24" height="24" viewBox="0 0 24 24" fill="none" xmlns="http://www.w3.org/2000/svg">
<path d="M11.993 11.026L22 8.94398V8.00098C22 6.34698 20.654 5.00098 19 5.00098H16.5V4.00098C16.5 2.89798 15.603 2.00098 14.5 2.00098H9.5C8.397 2.00098 7.5 2.89798 7.5 4.00098V5.00098H5C3.346 5.00098 2 6.34698 2 8.00098V9.08398L11.993 11.026ZM9.5 3.99998H14.5V4.99998H9.5V3.99998Z" fill="#17191A"/>
<path d="M12.007 13.0658L2 11.1198V15.9988C2 17.6528 3.346 18.9988 5 18.9988H19C20.654 18.9988 22 17.6528 22 15.9988V10.9858L12.007 13.0658Z" fill="#17191A"/>
</svg>
