<svg width="24" height="24" viewBox="0 0 24 24" fill="none" xmlns="http://www.w3.org/2000/svg">
<path fill-rule="evenodd" clip-rule="evenodd" d="M9.5 3.75C9.36221 3.75 9.25 3.86221 9.25 4V5.25H14.75V4C14.75 3.86221 14.6378 3.75 14.5 3.75H9.5ZM16.25 5.25V4C16.25 3.03379 15.4662 2.25 14.5 2.25H9.5C8.53379 2.25 7.75 3.03379 7.75 4V5.25H5C3.48122 5.25 2.25 6.48122 2.25 8V16C2.25 17.5188 3.48122 18.75 5 18.75H19C20.5188 18.75 21.75 17.5188 21.75 16V8C21.75 6.48122 20.5188 5.25 19 5.25H16.25ZM5 6.75C4.30964 6.75 3.75 7.30964 3.75 8V9.56301L12 11.2799L20.25 9.56301V8C20.25 7.30964 19.6904 6.75 19 6.75H5ZM20.25 11.0952L12 12.8121L3.75 11.0952V16C3.75 16.6904 4.30964 17.25 5 17.25H19C19.6904 17.25 20.25 16.6904 20.25 16V11.0952Z" fill="#17191A"/>
</svg>
