<svg width="24" height="24" viewBox="0 0 24 24" fill="none" xmlns="http://www.w3.org/2000/svg">
<path d="M20 7H13V6H15C15.929 6 16.705 5.36 16.929 4.5H22V2.5H16.929C16.705 1.64 15.929 1 15 1H9C8.071 1 7.295 1.64 7.071 2.5H2V4.5H7.071C7.295 5.36 8.071 6 9 6H11V7H4C2.346 7 1 8.346 1 10V19C1 20.654 2.346 22 4 22H20C21.654 22 23 20.654 23 19V10C23 8.346 21.654 7 20 7ZM4 9H20C20.552 9 21 9.449 21 10H3C3 9.449 3.449 9 4 9ZM3 17V12H6V17H3ZM8 12H16V17H8V12ZM18 12H21V17H18V12ZM20 20H4C3.449 20 3 19.552 3 19H21C21 19.552 20.552 20 20 20Z" fill="#17191A"/>
</svg>
