<svg width="24" height="24" viewBox="0 0 24 24" fill="none" xmlns="http://www.w3.org/2000/svg">
<path d="M8 2.75V4.25H2V2.75H8Z" fill="#17191A"/>
<path d="M22 10.25V11.75H2V10.25H22Z" fill="#17191A"/>
<path d="M21.25 10C21.25 9.30964 20.6904 8.75 20 8.75H4C3.30964 8.75 2.75 9.30964 2.75 10V19C2.75 19.6904 3.30964 20.25 4 20.25H20C20.6904 20.25 21.25 19.6904 21.25 19V10ZM22.75 19C22.75 20.5188 21.5188 21.75 20 21.75H4C2.48122 21.75 1.25 20.5188 1.25 19V10C1.25 8.48122 2.48122 7.25 4 7.25H20C21.5188 7.25 22.75 8.48122 22.75 10V19Z" fill="#17191A"/>
<path d="M22 17.25V18.75H2V17.25H22Z" fill="#17191A"/>
<path d="M7.75 11V18H6.25V11H7.75Z" fill="#17191A"/>
<path d="M17.75 11V18H16.25V11H17.75Z" fill="#17191A"/>
<path d="M12.75 5V8H11.25V5H12.75Z" fill="#17191A"/>
<path d="M15.25 3C15.25 2.86193 15.1381 2.75 15 2.75H9C8.86193 2.75 8.75 2.86193 8.75 3V4C8.75 4.13807 8.86193 4.25 9 4.25H15C15.1381 4.25 15.25 4.13807 15.25 4V3ZM16.75 4C16.75 4.9665 15.9665 5.75 15 5.75H9C8.0335 5.75 7.25 4.9665 7.25 4V3C7.25 2.0335 8.0335 1.25 9 1.25H15C15.9665 1.25 16.75 2.0335 16.75 3V4Z" fill="#17191A"/>
<path d="M22 2.75V4.25H16V2.75H22Z" fill="#17191A"/>
</svg>
