<svg width="24" height="24" viewBox="0 0 24 24" fill="none" xmlns="http://www.w3.org/2000/svg">
<path fill-rule="evenodd" clip-rule="evenodd" d="M3.25 11C3.25 9.48079 4.48079 8.25 6 8.25H18C19.5192 8.25 20.75 9.48079 20.75 11V20H19.25V11C19.25 10.3092 18.6908 9.75 18 9.75H6C5.30921 9.75 4.75 10.3092 4.75 11V20H3.25V11Z" fill="#17191A"/>
<path fill-rule="evenodd" clip-rule="evenodd" d="M7.53497 16.1007C7.14914 16.4314 6.63546 16.75 6 16.75C4.96418 16.75 4.27017 16.2207 3.86133 15.7301C3.65923 15.4876 3.51992 15.2481 3.43074 15.0698C3.38573 14.9798 3.35232 14.9029 3.3292 14.8458C3.31762 14.8172 3.30854 14.7934 3.30182 14.775L3.29347 14.7517L3.29056 14.7433L3.28942 14.74L3.28893 14.7385C3.28893 14.7385 3.28849 14.7372 4 14.5C4.71151 14.2628 4.71131 14.2622 4.71131 14.2622L4.71076 14.2606L4.71017 14.2589C4.71151 14.2625 4.71461 14.2707 4.71962 14.2831C4.72971 14.308 4.74708 14.3484 4.77238 14.399C4.82383 14.5019 4.90327 14.6374 5.01367 14.7699C5.22983 15.0293 5.53582 15.25 6 15.25C6.11454 15.25 6.28836 15.1936 6.55878 14.9618C6.8298 14.7295 7.10086 14.4074 7.42383 14.0199C7.43078 14.0115 7.43775 14.0032 7.44475 13.9948C7.74216 13.6378 8.08866 13.2219 8.46503 12.8993C8.85086 12.5686 9.36454 12.25 10 12.25C10.6355 12.25 11.1491 12.5686 11.535 12.8993C11.9113 13.2219 12.2578 13.6378 12.5553 13.9948L12.5762 14.0199C12.8991 14.4074 13.1702 14.7295 13.4412 14.9618C13.7116 15.1936 13.8855 15.25 14 15.25C14.1145 15.25 14.2884 15.1936 14.5588 14.9618C14.8298 14.7295 15.1009 14.4074 15.4238 14.0199L15.4447 13.9948C15.7422 13.6378 16.0887 13.2219 16.465 12.8993C16.8509 12.5686 17.3645 12.25 18 12.25C19.0358 12.25 19.7298 12.7793 20.1387 13.2699C20.3408 13.5124 20.4801 13.7519 20.5693 13.9302C20.6143 14.0202 20.6477 14.0971 20.6708 14.1542C20.6824 14.1828 20.6915 14.2066 20.6982 14.225L20.7065 14.2483L20.7094 14.2567L20.7106 14.26L20.7111 14.2615C20.7111 14.2615 20.7115 14.2628 20 14.5C19.2885 14.7372 19.2887 14.7378 19.2887 14.7378L19.2892 14.7394L19.2898 14.7411C19.2885 14.7375 19.2854 14.7293 19.2804 14.7169C19.2703 14.692 19.2529 14.6516 19.2276 14.601C19.1762 14.4981 19.0967 14.3626 18.9863 14.2301C18.7702 13.9707 18.4642 13.75 18 13.75C17.8855 13.75 17.7116 13.8064 17.4412 14.0382C17.1702 14.2705 16.8991 14.5926 16.5762 14.9801L16.5553 15.0052C16.2578 15.3622 15.9113 15.7781 15.535 16.1007C15.1491 16.4314 14.6355 16.75 14 16.75C13.3645 16.75 12.8509 16.4314 12.465 16.1007C12.0887 15.7781 11.7422 15.3622 11.4447 15.0052L11.4238 14.9801C11.1009 14.5926 10.8298 14.2705 10.5588 14.0382C10.2884 13.8064 10.1145 13.75 10 13.75C9.88546 13.75 9.71164 13.8064 9.44122 14.0382C9.1702 14.2705 8.89914 14.5926 8.57617 14.9801C8.56922 14.9885 8.56225 14.9968 8.55525 15.0052C8.25784 15.3622 7.91134 15.7781 7.53497 16.1007Z" fill="#17191A"/>
<path fill-rule="evenodd" clip-rule="evenodd" d="M22 20.75H2V19.25H22V20.75Z" fill="#17191A"/>
<path fill-rule="evenodd" clip-rule="evenodd" d="M11.25 9V6H12.75V9H11.25Z" fill="#17191A"/>
<path d="M13.5 4C13.5 4.828 12.828 5.5 12 5.5C11.172 5.5 10.5 4.828 10.5 4C10.5 3.172 12 1 12 1C12 1 13.5 3.172 13.5 4Z" fill="#17191A"/>
</svg>
