<svg width="24" height="24" viewBox="0 0 24 24" fill="none" xmlns="http://www.w3.org/2000/svg">
<path d="M21 19V11C21 9.346 19.654 8 18 8H13V6H11V8H6C4.346 8 3 9.346 3 11V19H2V21H22V19H21ZM19 19H5V16.823C5.3 16.929 5.627 17 6 17C7.218 17 8.042 16.012 8.768 15.141C9.123 14.714 9.718 14 10 14C10.282 14 10.876 14.714 11.232 15.141C11.958 16.012 12.782 17 14 17C15.218 17 16.042 16.012 16.769 15.141C17.124 14.714 17.719 14 18 14C18.589 14 18.889 14.474 19 14.701V19Z" fill="#17191A"/>
<path d="M12 5.5C12.828 5.5 13.5 4.828 13.5 4C13.5 3.172 12 1 12 1C12 1 10.5 3.172 10.5 4C10.5 4.828 11.172 5.5 12 5.5Z" fill="#17191A"/>
</svg>
