<svg width="24" height="24" viewBox="0 0 24 24" fill="none" xmlns="http://www.w3.org/2000/svg">
<path fill-rule="evenodd" clip-rule="evenodd" d="M16.25 8V2H17.75V8H16.25Z" fill="#17191A"/>
<path fill-rule="evenodd" clip-rule="evenodd" d="M6.25 8V2H7.75V8H6.25Z" fill="#17191A"/>
<path fill-rule="evenodd" clip-rule="evenodd" d="M21 11.75H3V10.25H21V11.75Z" fill="#17191A"/>
<path fill-rule="evenodd" clip-rule="evenodd" d="M4 5.75C3.86193 5.75 3.75 5.86193 3.75 6V20C3.75 20.1381 3.86193 20.25 4 20.25H20C20.1381 20.25 20.25 20.1381 20.25 20V6C20.25 5.86193 20.1381 5.75 20 5.75H4ZM2.25 6C2.25 5.0335 3.0335 4.25 4 4.25H20C20.9665 4.25 21.75 5.0335 21.75 6V20C21.75 20.9665 20.9665 21.75 20 21.75H4C3.0335 21.75 2.25 20.9665 2.25 20V6Z" fill="#17191A"/>
<path fill-rule="evenodd" clip-rule="evenodd" d="M15 16.75H9V15.25H15V16.75Z" fill="#17191A"/>
<path fill-rule="evenodd" clip-rule="evenodd" d="M11.25 19V13H12.75V19H11.25Z" fill="#17191A"/>
</svg>
