<svg width="24" height="24" viewBox="0 0 24 24" fill="none" xmlns="http://www.w3.org/2000/svg">
<path d="M16.1113 13.25C18.2364 13.2502 19.9717 14.9862 19.9717 17.1113C19.9716 17.9039 19.7294 18.6415 19.3164 19.2559L21.5303 21.4697L20.4697 22.5303L18.2559 20.3164C17.6415 20.7294 16.9039 20.9716 16.1113 20.9717C13.9862 20.9717 12.2502 19.2364 12.25 17.1113C12.25 14.9861 13.9861 13.25 16.1113 13.25ZM7.75 4.25H16.25V2H17.75V4.25H20C20.9662 4.25 21.75 5.03379 21.75 6V13H20.25V11.75H3.75V20C3.75 20.1378 3.86221 20.25 4 20.25H12V21.75H4C3.03379 21.75 2.25 20.9662 2.25 20V6C2.25 5.03379 3.03379 4.25 4 4.25H6.25V2H7.75V4.25ZM16.1113 14.75C14.8145 14.75 13.75 15.8145 13.75 17.1113C13.7502 18.408 14.8147 19.4717 16.1113 19.4717C17.4079 19.4715 18.4715 18.4079 18.4717 17.1113C18.4717 15.8147 17.408 14.7502 16.1113 14.75ZM4 5.75C3.86221 5.75 3.75 5.86221 3.75 6V10.25H20.25V6C20.25 5.86221 20.1378 5.75 20 5.75H17.75V8H16.25V5.75H7.75V8H6.25V5.75H4Z" fill="#17191A"/>
</svg>
