<svg width="24" height="24" viewBox="0 0 24 24" fill="none" xmlns="http://www.w3.org/2000/svg">
<path d="M7.75 4.25H16.25V2H17.75V4.25H20C20.9665 4.25 21.75 5.0335 21.75 6V20C21.75 20.9665 20.9665 21.75 20 21.75H4C3.0335 21.75 2.25 20.9665 2.25 20V6C2.25 5.0335 3.0335 4.25 4 4.25H6.25V2H7.75V4.25ZM3.75 20C3.75 20.1381 3.86193 20.25 4 20.25H20C20.1381 20.25 20.25 20.1381 20.25 20V11.75H3.75V20ZM14.6514 14.4092L13.0605 16L14.6523 17.5918L13.5918 18.6523L12 17.0605L10.4082 18.6523L9.34766 17.5918L10.9395 16L9.34863 14.4092L10.4092 13.3486L12 14.9395L13.5908 13.3486L14.6514 14.4092ZM4 5.75C3.86193 5.75 3.75 5.86193 3.75 6V10.25H20.25V6C20.25 5.86193 20.1381 5.75 20 5.75H17.75V8H16.25V5.75H7.75V8H6.25V5.75H4Z" fill="#17191A"/>
</svg>
