<svg width="24" height="24" viewBox="0 0 24 24" fill="none" xmlns="http://www.w3.org/2000/svg">
<path d="M11 17.111C11 13.741 13.742 11 17.111 11C19.111 11 20.884 11.97 22 13.461V6C22 4.897 21.103 4 20 4H18V2H16V4H8V2H6V4H4C2.897 4 2 4.897 2 6V20C2 21.103 2.897 22 4 22H13.461C11.971 20.885 11 19.111 11 17.111ZM3.999 10V6H6V8H8V6H16V8H18V6H20V10H3.999Z" fill="#17191A"/>
<path d="M17.222 17.111C17.222 17.051 17.17 17 17.112 17C17.052 17 17.001 17.052 17.001 17.111C17.001 17.17 17.053 17.221 17.112 17.221C17.171 17.221 17.222 17.17 17.222 17.111Z" fill="#17191A"/>
<path d="M22.708 21.293L20.627 19.212C20.997 18.595 21.223 17.882 21.223 17.112C21.223 14.845 19.379 13.001 17.113 13.001C14.847 13.001 13.002 14.846 13.002 17.112C13.002 19.378 14.847 21.222 17.113 21.222C17.883 21.222 18.596 20.996 19.213 20.626L21.294 22.707L22.708 21.293ZM15.001 17.111C15.001 15.947 15.948 15 17.112 15C18.276 15 19.222 15.947 19.222 17.111C19.222 18.275 18.276 19.221 17.112 19.221C15.948 19.221 15.001 18.275 15.001 17.111Z" fill="#17191A"/>
</svg>
