<svg width="24" height="24" viewBox="0 0 24 24" fill="none" xmlns="http://www.w3.org/2000/svg">
<path fill-rule="evenodd" clip-rule="evenodd" d="M16 8V2H17.5V8H16Z" fill="#17191A"/>
<path fill-rule="evenodd" clip-rule="evenodd" d="M6 8V2H7.5V8H6Z" fill="#17191A"/>
<path fill-rule="evenodd" clip-rule="evenodd" d="M20.75 11.75H2.75V10.25H20.75V11.75Z" fill="#17191A"/>
<path fill-rule="evenodd" clip-rule="evenodd" d="M3.75 5.75C3.61193 5.75 3.5 5.86193 3.5 6V20C3.5 20.1381 3.61193 20.25 3.75 20.25H19.75C19.8881 20.25 20 20.1381 20 20V6C20 5.86193 19.8881 5.75 19.75 5.75H3.75ZM2 6C2 5.0335 2.7835 4.25 3.75 4.25H19.75C20.7165 4.25 21.5 5.0335 21.5 6V20C21.5 20.9665 20.7165 21.75 19.75 21.75H3.75C2.7835 21.75 2 20.9665 2 20V6Z" fill="#17191A"/>
<path fill-rule="evenodd" clip-rule="evenodd" d="M15.2833 13.5273L10.8039 18.0577L8.22559 15.5362L9.27438 14.4638L10.7861 15.9422L14.2167 12.4727L15.2833 13.5273Z" fill="#17191A"/>
</svg>
