<svg width="24" height="24" viewBox="0 0 24 24" fill="none" xmlns="http://www.w3.org/2000/svg">
<path d="M20 7.5C20 5.42893 18.3211 3.75 16.25 3.75C14.1789 3.75 12.5 5.42893 12.5 7.5C12.5 9.57107 14.1789 11.25 16.25 11.25C18.3211 11.25 20 9.57107 20 7.5ZM21.5 7.5C21.5 10.3995 19.1495 12.75 16.25 12.75C13.3505 12.75 11 10.3995 11 7.5C11 4.6005 13.3505 2.25 16.25 2.25C19.1495 2.25 21.5 4.6005 21.5 7.5Z" fill="#17191A"/>
<path d="M9.25 11.5C9.25 11.3619 9.13807 11.25 9 11.25H3C2.86193 11.25 2.75 11.3619 2.75 11.5V17.5C2.75 17.6381 2.86193 17.75 3 17.75H9C9.13807 17.75 9.25 17.6381 9.25 17.5V11.5ZM10.75 17.5C10.75 18.4665 9.9665 19.25 9 19.25H3C2.0335 19.25 1.25 18.4665 1.25 17.5V11.5C1.25 10.5335 2.0335 9.75 3 9.75H9C9.9665 9.75 10.75 10.5335 10.75 11.5V17.5Z" fill="#17191A"/>
<path d="M10.25 19V18.0791C9.65935 17.798 9.25 17.1975 9.25 16.5V12.5C9.25 11.8024 9.65915 11.201 10.25 10.9199V10C10.25 9.03379 11.0338 8.25 12 8.25V9.75C11.8622 9.75 11.75 9.86221 11.75 10V12.25H11C10.8622 12.25 10.75 12.3622 10.75 12.5V16.5C10.75 16.6378 10.8622 16.75 11 16.75H11.75V19C11.75 19.1378 11.8622 19.25 12 19.25H20C20.1378 19.25 20.25 19.1378 20.25 19V10C20.25 9.86221 20.1378 9.75 20 9.75V8.25C20.9662 8.25 21.75 9.03379 21.75 10V19C21.75 19.9662 20.9662 20.75 20 20.75H12C11.0338 20.75 10.25 19.9662 10.25 19Z" fill="#17191A"/>
<path d="M18 15.25V16.75H14V15.25H18Z" fill="#17191A"/>
</svg>
