<svg width="24" height="24" viewBox="0 0 24 24" fill="none" xmlns="http://www.w3.org/2000/svg">
<path d="M21.589 8.799C21.691 8.382 21.75 7.948 21.75 7.5C21.75 4.467 19.282 2 16.25 2C13.218 2 10.75 4.467 10.75 7.5C10.75 7.803 10.781 8.097 10.828 8.387C10.383 8.711 10.082 9.214 10.021 9.79C9.721 9.61 9.374 9.5 9 9.5H3C1.897 9.5 1 10.397 1 11.5V17.5C1 18.603 1.897 19.5 3 19.5H9C9.375 19.5 9.721 19.39 10.021 19.21C10.128 20.213 10.969 21 12 21H20C21.103 21 22 20.103 22 19V10C22 9.547 21.843 9.134 21.589 8.799ZM16.25 4C18.18 4 19.75 5.57 19.75 7.5C19.75 9.43 18.18 11 16.25 11C14.32 11 12.75 9.43 12.75 7.5C12.75 5.57 14.32 4 16.25 4ZM9 17.5H3V11.5H9V17.5ZM12 19V16.5H11V12.5H12V10.987C13.01 12.215 14.54 13 16.25 13C17.7 13 19.016 12.432 20 11.512V19H12Z" fill="#17191A"/>
<path d="M18 15H14V17H18V15Z" fill="#17191A"/>
</svg>
