<svg width="24" height="24" viewBox="0 0 24 24" fill="none" xmlns="http://www.w3.org/2000/svg">
<path d="M20.001 6H17.536L16.427 4.336C15.869 3.5 14.936 3 13.931 3H10.072C9.06695 3 8.13395 3.5 7.57595 4.336L6.46695 6H4.00195C2.34795 6 1.00195 7.346 1.00195 9V16C1.00195 17.654 2.34795 19 4.00195 19H20.002C21.656 19 23.002 17.654 23.002 16V9C23.002 7.346 21.655 6 20.001 6ZM12.001 16C9.79495 16 8.00095 14.206 8.00095 12C8.00095 9.794 9.79495 8 12.001 8C14.207 8 16.001 9.794 16.001 12C16.001 14.206 14.207 16 12.001 16Z" fill="#17191A"/>
<path d="M12.001 14C13.1055 14 14.001 13.1046 14.001 12C14.001 10.8954 13.1055 10 12.001 10C10.8964 10 10.001 10.8954 10.001 12C10.001 13.1046 10.8964 14 12.001 14Z" fill="#17191A"/>
</svg>
