<svg width="24" height="24" viewBox="0 0 24 24" fill="none" xmlns="http://www.w3.org/2000/svg">
<path fill-rule="evenodd" clip-rule="evenodd" d="M7.99712 4.47202C8.31983 4.17049 8.74974 3.99742 9.20331 4.00003L14.2245 4.03303C14.8061 4.03667 15.3472 4.32924 15.669 4.81199L17.1514 7.03602H19.75C21.2692 7.03602 22.5 8.2668 22.5 9.78602V16.786C22.5 18.3052 21.2692 19.536 19.75 19.536H3.75C2.23079 19.536 1 18.3052 1 16.786V9.78602C1 8.2668 2.23079 7.03602 3.75 7.03602H6.33287L7.92487 4.47202H7.99712ZM9.19445 5.5C9.10743 5.49959 9.02581 5.54447 8.97936 5.61893L8.75913 5.97202L7.16713 8.53602H3.75C3.05921 8.53602 2.5 9.09523 2.5 9.78602V16.786C2.5 17.4768 3.05921 18.036 3.75 18.036H19.75C20.4408 18.036 21 17.4768 21 16.786V9.78602C21 9.09523 20.4408 8.53602 19.75 8.53602H16.3486L14.421 5.64404C14.3749 5.57491 14.2978 5.5335 14.2155 5.533L9.19445 5.5Z" fill="#17191A"/>
<path fill-rule="evenodd" clip-rule="evenodd" d="M11.75 10.036C10.5074 10.036 9.5 11.0434 9.5 12.286C9.5 13.5287 10.5074 14.536 11.75 14.536C12.9926 14.536 14 13.5287 14 12.286C14 11.0434 12.9926 10.036 11.75 10.036ZM8 12.286C8 10.2149 9.67893 8.53601 11.75 8.53601C13.8211 8.53601 15.5 10.2149 15.5 12.286C15.5 14.3571 13.8211 16.036 11.75 16.036C9.67893 16.036 8 14.3571 8 12.286Z" fill="#17191A"/>
</svg>
