<svg width="24" height="24" viewBox="0 0 24 24" fill="none" xmlns="http://www.w3.org/2000/svg">
<path d="M21.6548 7.46536C20.7748 6.50136 19.3898 5.91936 17.9998 5.86636C18.0208 4.85436 17.8018 3.60036 16.6998 2.45136C15.8198 1.53236 14.5668 1.01736 13.1718 1.00036C11.6808 0.967362 10.2428 1.54636 9.22883 2.55736C7.05883 4.78036 6.72183 8.39436 6.87283 11.2754H6.62583C5.02283 11.2754 3.71883 12.5454 3.71883 14.1054C3.71883 15.4174 4.52583 16.4964 5.72583 16.8754L1.29583 21.2914C0.904829 21.6814 0.903829 22.3134 1.29383 22.7054C1.48883 22.9014 1.74583 22.9994 2.00183 22.9994C2.25783 22.9994 2.51283 22.9014 2.70783 22.7074L7.12183 18.3074C7.42583 19.5404 8.43183 20.2934 9.84483 20.2934C11.4498 20.2934 12.7558 18.9894 12.7558 17.3884V16.8264C12.8478 16.8264 12.9348 16.8304 13.0268 16.8304C15.8138 16.8304 19.1838 16.4024 21.2528 14.6424C22.3068 13.7464 22.9418 12.4204 22.9978 11.0074C23.0518 9.63836 22.5628 8.36836 21.6558 7.46536H21.6548ZM6.62583 13.2754H7.05583C7.16983 14.1344 7.30183 14.8214 7.39283 15.2474L6.43983 15.0094C5.99483 14.9104 5.71883 14.5654 5.71883 14.1064C5.71883 13.7134 6.09183 13.2764 6.62583 13.2764V13.2754ZM10.7548 17.3894C10.7548 17.8254 10.4068 18.2944 9.84383 18.2944C9.15483 18.2944 9.06083 17.9774 9.01483 17.5934L8.80083 16.5304C9.23283 16.5924 9.91783 16.6764 10.7548 16.7404V17.3894Z" fill="#17191A"/>
</svg>
