<svg width="24" height="24" viewBox="0 0 24 24" fill="none" xmlns="http://www.w3.org/2000/svg">
<path d="M20.0072 3.99347C17.4412 1.42547 13.5293 0.791474 10.3073 2.35647C9.19525 1.87047 7.76425 2.08147 6.93425 2.93347C6.00125 3.86647 5.80525 5.26147 6.34025 6.33947C4.94025 9.25447 5.34025 12.7245 7.33325 15.2535L2.29325 20.2935C1.90225 20.6845 1.90225 21.3165 2.29325 21.7075C2.48825 21.9025 2.74425 22.0005 3.00025 22.0005C3.25625 22.0005 3.51225 21.9025 3.70725 21.7075L8.74625 16.6685C10.2683 17.8675 12.1293 18.4945 14.0083 18.4945C15.2543 18.4945 16.5023 18.2025 17.6653 17.6425C18.0633 17.8315 18.5013 17.9415 18.9503 17.9415C19.7533 17.9415 20.5252 17.6225 21.0712 17.0645C21.9982 16.1335 22.1932 14.7445 21.6602 13.6635C23.2052 10.4475 22.5662 6.55247 20.0072 3.99347ZM19.6523 15.6535C19.6523 15.6535 19.6472 15.6595 19.6442 15.6625C19.4712 15.8395 19.2183 15.9405 18.9503 15.9405C18.7893 15.9405 18.5532 15.9045 18.3372 15.7305C18.3153 15.7125 18.2712 15.6685 18.2472 15.6535L8.34725 5.75347C8.32525 5.73147 8.29225 5.68247 8.26825 5.66247C7.95825 5.27947 7.99325 4.70247 8.35625 4.33847C8.52825 4.16147 8.78125 4.06047 9.04925 4.06047C9.21025 4.06047 9.44725 4.09647 9.66225 4.26947C9.68725 4.28947 9.72525 4.33047 9.75225 4.34747L19.6523 14.2475C19.6733 14.2685 19.7083 14.3195 19.7302 14.3385C20.0402 14.7225 20.0052 15.3005 19.6512 15.6535H19.6523Z" fill="#17191A"/>
</svg>
