<svg width="24" height="24" viewBox="0 0 24 24" fill="none" xmlns="http://www.w3.org/2000/svg">
<path fill-rule="evenodd" clip-rule="evenodd" d="M18.7697 5.23042C16.8281 3.28884 13.9925 2.77544 11.5834 3.70287L20.2972 12.4166C21.2246 10.0075 20.7112 7.17199 18.7697 5.23042ZM21.3802 13.6736C22.9228 10.5884 22.3998 6.73923 19.8303 4.16976C17.2605 1.59991 13.4105 1.07716 10.3251 2.62056C9.92417 2.41055 9.48421 2.31009 9.05 2.31009C8.36092 2.31009 7.64155 2.56585 7.10625 3.11319C6.24603 3.97641 6.07117 5.28898 6.61978 6.32659C5.18454 9.19712 5.53744 12.7291 7.66314 15.2763L2.46967 20.4698C2.17678 20.7626 2.17678 21.2375 2.46967 21.5304C2.76256 21.8233 3.23744 21.8233 3.53033 21.5304L8.7238 16.3369C11.2714 18.463 14.8041 18.8157 17.6749 17.3796C18.0758 17.5896 18.5158 17.6901 18.95 17.6901C19.6391 17.6901 20.3584 17.4343 20.8937 16.887C21.754 16.0238 21.9288 14.7112 21.3802 13.6736ZM16.4166 16.2973L7.70279 7.58353C6.77535 9.99263 7.28876 12.8282 9.23033 14.7698C11.1719 16.7113 14.0075 17.2247 16.4166 16.2973ZM9.05 3.81009C8.72055 3.81009 8.40152 3.93324 8.17717 4.16349L8.17037 4.17046L8.17033 4.17042C7.7194 4.62135 7.68629 5.33949 8.07346 5.81883C8.08782 5.83662 8.10136 5.85504 8.11404 5.87406C8.11822 5.88033 8.12155 5.88451 8.12345 5.8867C8.13968 5.90038 8.15532 5.91475 8.17033 5.92976L18.0703 15.8298C18.0853 15.8448 18.0997 15.8604 18.1134 15.8766C18.1156 15.8785 18.1198 15.8819 18.126 15.8861C18.1448 15.8985 18.1629 15.9119 18.1805 15.926C18.3975 16.1008 18.6683 16.1901 18.95 16.1901C19.2795 16.1901 19.5985 16.0669 19.8228 15.8367L19.8296 15.8297L19.8297 15.8298C20.2806 15.3788 20.3137 14.6607 19.9265 14.1813C19.9122 14.1636 19.8986 14.1451 19.886 14.1261C19.8843 14.1235 19.8827 14.1213 19.8813 14.1195C19.8793 14.1168 19.8777 14.1148 19.8766 14.1135C19.8603 14.0998 19.8447 14.0854 19.8297 14.0704L9.92967 4.17042C9.91466 4.15541 9.90029 4.13976 9.88661 4.12353C9.88442 4.12163 9.88024 4.1183 9.87397 4.11413C9.85523 4.10163 9.83705 4.08829 9.8195 4.07415C9.60251 3.89936 9.33173 3.81009 9.05 3.81009Z" fill="#17191A"/>
</svg>
