<svg width="24" height="24" viewBox="0 0 24 24" fill="none" xmlns="http://www.w3.org/2000/svg">
<path fill-rule="evenodd" clip-rule="evenodd" d="M10.4771 3.78313C8.90173 5.40086 8.51551 8.16665 8.59811 10.7278C8.61459 11.2387 8.64934 11.7317 8.69427 12.1928C8.69492 12.1987 8.6955 12.2046 8.69601 12.2106C8.76093 12.8719 8.84664 13.4672 8.92909 13.9552C8.98667 14.2961 9.04242 14.5833 9.08794 14.8026C9.308 14.8333 9.59511 14.8702 9.93517 14.9069C10.4492 14.9624 11.0817 15.0173 11.7847 15.0501C11.7878 15.0503 11.791 15.0504 11.7942 15.0506C12.2308 15.0708 12.6945 15.0825 13.1737 15.0804C14.4317 15.0751 15.7773 14.9755 17.0143 14.698C18.2577 14.4191 19.3387 13.9721 20.1168 13.3095C21.4901 12.1401 21.6568 9.93704 20.3855 8.66971C20.3771 8.66133 20.3689 8.65274 20.3609 8.64396C19.5672 7.77379 18.1397 7.44354 17.0503 7.69443C16.8079 7.75025 16.5537 7.68227 16.3715 7.51296C16.1893 7.34365 16.1028 7.09503 16.1408 6.84922C16.3338 5.59798 16.3494 4.61603 15.4353 3.66123C14.847 3.04664 13.9594 2.72859 13.0109 2.7511C12.0645 2.77355 11.1294 3.13499 10.4771 3.78313ZM11.004 16.5072C10.5478 16.4756 10.1329 16.437 9.77405 16.3982C9.33644 16.351 8.98051 16.3032 8.73263 16.2671C8.63199 16.2524 8.54908 16.2397 8.48567 16.2296L8.76842 17.6424C8.77264 17.6635 8.77596 17.6848 8.77835 17.7062C8.81237 18.0103 8.92083 18.199 9.0539 18.3151C9.18811 18.4322 9.4255 18.5436 9.843 18.5436C10.5122 18.5436 11.004 18.0004 11.004 17.3886V16.5072ZM8.38788 15.9217C8.40663 15.8151 8.43245 15.6684 8.468 15.4666C8.25587 15.5201 8.10561 15.5579 7.99917 15.5847C7.99915 15.5847 7.9992 15.5847 7.99917 15.5847L8.468 15.4666L8.38788 15.9217C8.38789 15.9218 8.38787 15.9217 8.38788 15.9217ZM7.70872 15.5161C7.69345 15.4504 7.67333 15.3615 7.64971 15.2517C7.59611 15.0025 7.52433 14.6449 7.45004 14.2051C7.39168 13.8596 7.33155 13.4621 7.27745 13.0256H6.625C5.93892 13.0256 5.468 13.585 5.468 14.1046C5.468 14.681 5.82309 15.1251 6.37811 15.2507L7.70872 15.5161ZM7.13535 11.5256C7.11956 11.2812 7.10711 11.0309 7.09889 10.7761C7.01455 8.16094 7.36567 4.8235 9.40727 2.73171L9.41445 2.72435C10.371 1.77074 11.6898 1.28202 12.9753 1.25152C14.2605 1.22103 15.5851 1.64852 16.5187 2.62389M7.13535 11.5256H6.625C5.09908 11.5256 3.968 12.7681 3.968 14.1046C3.968 15.3818 4.81004 16.4404 6.06116 16.7169L6.07629 16.7201L6.20753 16.7462L1.4705 21.4684C1.17715 21.7608 1.1764 22.2357 1.46884 22.5291C1.76127 22.8224 2.23614 22.8232 2.5295 22.5307L7.27103 17.8041L7.29169 17.9073C7.36403 18.4933 7.60668 19.043 8.0676 19.4453C8.53639 19.8544 9.1535 20.0436 9.843 20.0436C11.3878 20.0436 12.504 18.7808 12.504 17.3886V16.575C12.725 16.5794 12.9507 16.5814 13.18 16.5804C14.503 16.5749 15.9647 16.4708 17.3426 16.1617C18.7141 15.854 20.0558 15.3315 21.0892 14.4516C23.0656 12.7687 23.3898 9.5619 21.457 7.61993C20.4961 6.57569 19.0481 6.09854 17.7339 6.11428C17.8026 4.99355 17.6175 3.77152 16.5187 2.62389" fill="#17191A"/>
</svg>
