<svg width="24" height="24" viewBox="0 0 24 24" fill="none" xmlns="http://www.w3.org/2000/svg">
<path fill-rule="evenodd" clip-rule="evenodd" d="M15.5047 1.27793C15.7664 1.35139 15.9678 1.56066 16.0313 1.82493L16.5803 4.11155L18.8507 4.58373C19.1436 4.64463 19.3723 4.87374 19.4326 5.16672L19.8992 7.43207L22.1527 7.90073C22.4222 7.95677 22.6393 8.15593 22.7184 8.41957C22.7975 8.68322 22.7258 8.969 22.5316 9.16409L19.3816 12.3291C19.3481 12.3627 19.3123 12.3925 19.2745 12.4185C19.3552 13.4718 18.9928 14.5527 18.1872 15.3583L15.3588 18.1868C14.5569 18.9886 13.4823 19.3514 12.4336 19.2752C12.399 19.3422 12.3536 19.4051 12.2973 19.4613L9.22835 22.5303C9.0333 22.7254 8.74694 22.7976 8.48271 22.7185C8.21849 22.6393 8.01905 22.4214 7.96343 22.1513L7.49753 19.8885L5.15418 19.4173C4.85915 19.358 4.62815 19.1281 4.56744 18.8333L4.10085 16.568L1.84731 16.0993C1.57752 16.0432 1.36022 15.8437 1.28137 15.5796C1.20253 15.3156 1.27483 15.0295 1.46969 14.8347L4.61669 11.6877C4.65107 11.6533 4.68796 11.623 4.72677 11.5967C4.64115 10.5383 5.00317 9.45049 5.81283 8.64082L8.64126 5.8124C9.44161 5.01205 10.5137 4.6491 11.5606 4.72355C11.59 4.67611 11.6253 4.63125 11.6664 4.58997L14.7704 1.47097C14.9621 1.27833 15.2431 1.20447 15.5047 1.27793ZM13.163 5.21256C13.4425 5.37353 13.7056 5.57347 13.9446 5.8124L18.1872 10.055C18.4196 10.2874 18.615 10.5427 18.7737 10.8135L20.4917 9.08737L19.1113 8.80031C18.8184 8.7394 18.5898 8.5103 18.5294 8.21732L18.0628 5.95197L15.8093 5.48331C15.5251 5.4242 15.3005 5.20638 15.2327 4.92411L14.8863 3.481L13.163 5.21256ZM5.23144 13.1943L3.51223 14.9135L4.88873 15.1997C5.18159 15.2606 5.41026 15.4897 5.4706 15.7827L5.93647 18.0446L8.27986 18.5157C8.5749 18.5751 8.80592 18.805 8.86661 19.0998L9.15191 20.4855L10.8458 18.7916C10.563 18.6298 10.2969 18.4282 10.0555 18.1868L5.81283 13.9441C5.58295 13.7142 5.38915 13.4619 5.23144 13.1943ZM12.8839 6.87306C12.0052 5.99438 10.5806 5.99438 9.70192 6.87306L6.87349 9.70148C5.99481 10.5802 5.99481 12.0048 6.87349 12.8835L11.1161 17.1261C11.9948 18.0048 13.4194 18.0048 14.2981 17.1261L17.1265 14.2977C18.0052 13.419 18.0052 11.9944 17.1265 11.1157L12.8839 6.87306Z" fill="#17191A"/>
</svg>
