<svg width="24" height="24" viewBox="0 0 24 24" fill="none" xmlns="http://www.w3.org/2000/svg">
<path d="M22.9578 8.34816C22.8528 7.99616 22.5618 7.73116 22.2028 7.65616L20.1098 7.22116L19.6768 5.11716C19.5968 4.72616 19.2908 4.42116 18.9008 4.34016L16.7858 3.90016L16.2738 1.76816C16.1888 1.41516 15.9198 1.13716 15.5718 1.03916C15.2198 0.941157 14.8468 1.04016 14.5928 1.29616L11.4888 4.41516C11.4688 4.43516 11.4618 4.46116 11.4448 4.48216C10.3698 4.44116 9.28282 4.81916 8.46382 5.63716L5.63582 8.46616C4.87982 9.22116 4.46382 10.2262 4.46382 11.2942C4.46382 11.3582 4.47982 11.4202 4.48282 11.4842C4.46982 11.4962 4.45282 11.5002 4.43982 11.5132L1.29282 14.6602C1.03282 14.9202 0.936822 15.3022 1.04182 15.6532C1.14682 16.0062 1.43682 16.2712 1.79582 16.3462L3.88882 16.7812L4.32182 18.8852C4.40282 19.2782 4.71082 19.5842 5.10382 19.6632L7.28582 20.1012L7.71882 22.2032C7.79282 22.5622 8.05882 22.8532 8.41082 22.9592C8.50582 22.9872 8.60182 23.0012 8.69782 23.0012C8.95882 23.0012 9.21482 22.8982 9.40482 22.7082L12.4738 19.6392C12.5088 19.6042 12.5238 19.5602 12.5518 19.5212C12.6038 19.5232 12.6538 19.5362 12.7068 19.5362C13.7748 19.5362 14.7798 19.1202 15.5348 18.3642L18.3638 15.5362C19.1868 14.7122 19.5628 13.6162 19.5158 12.5342C19.5288 12.5222 19.5458 12.5182 19.5578 12.5062L22.7078 9.34116C22.9668 9.08116 23.0628 8.70016 22.9578 8.34816ZM16.9498 14.1212L14.1208 16.9492C13.3648 17.7052 12.0488 17.7052 11.2928 16.9492L7.04982 12.7072C6.67182 12.3292 6.46382 11.8272 6.46382 11.2922C6.46382 10.7572 6.67182 10.2562 7.04982 9.87816L9.87782 7.04916C10.2678 6.65916 10.7798 6.46516 11.2928 6.46516C11.8058 6.46516 12.3168 6.66016 12.7068 7.04916L16.9498 11.2922C17.7288 12.0722 17.7288 13.3402 16.9498 14.1212Z" fill="#17191A"/>
</svg>
