<svg width="24" height="24" viewBox="0 0 24 24" fill="none" xmlns="http://www.w3.org/2000/svg">
<path d="M23 8.72775C23 7.88975 21.533 7.88975 20.708 7.88975C20.341 7.88975 20.158 7.98275 19.975 8.16875C19.7 7.14375 19.333 6.21275 19.15 5.74675C18.692 4.72175 17.775 4.16275 16.675 4.06975C16.125 3.97675 7.967 3.97675 7.417 4.06975C6.225 4.25575 5.309 4.81475 4.85 5.74675C4.667 6.21275 4.392 7.14375 4.025 8.16875C3.933 7.98275 3.658 7.98275 3.292 7.98275C2.467 7.98275 1 7.88975 1 8.72775C1 9.56575 2.008 10.1247 2.833 10.1247H3.291L3.016 10.4977C2.191 11.6157 1.916 12.4538 1.916 13.8518V18.8827C1.916 19.5347 2.374 20.0007 3.016 20.0007H4.024C4.666 20.0007 5.124 19.5347 5.124 18.8827V18.5788H18.691V18.8827C18.691 19.5347 19.149 20.0007 19.791 20.0007H20.799C21.441 20.0007 21.899 19.5347 21.899 18.8827V13.8518C21.899 12.3608 21.624 11.6157 20.799 10.4977L20.707 10.1247H21.165C21.99 10.1247 22.998 9.56575 22.998 8.72775H23ZM5.217 14.7828C4.025 14.7828 3.109 14.2238 3.109 12.9198C3.109 11.6158 3.476 11.0567 4.667 11.0567C5.858 11.0567 7.875 12.9198 7.875 13.9447C7.875 14.9697 6.408 14.7828 5.217 14.7828ZM5.4 8.91375C5.583 7.98175 6.042 6.67775 6.317 6.21175C6.592 5.83875 6.775 5.65275 7.234 5.55975C7.876 5.46675 16.126 5.46675 16.767 5.55975C17.225 5.65275 17.5 5.83875 17.684 6.21175C17.959 6.67775 18.326 7.98175 18.601 8.91375C18.601 9.19275 5.4 9.19275 5.4 8.91375ZM18.508 14.7828C17.316 14.7828 15.941 14.9688 15.941 13.9447C15.941 12.9207 17.958 11.0567 19.149 11.0567C20.34 11.0567 20.707 11.6158 20.707 12.9198C20.707 14.2238 19.7 14.7828 18.508 14.7828Z" fill="#17191A"/>
</svg>
