<svg width="24" height="24" viewBox="0 0 24 24" fill="none" xmlns="http://www.w3.org/2000/svg">
<path fill-rule="evenodd" clip-rule="evenodd" d="M18.541 11.25H21C21.9662 11.25 22.75 12.0338 22.75 13V18.75H19.6436C19.3168 19.9039 18.2585 20.75 17 20.75C15.7415 20.75 14.6832 19.9039 14.3564 18.75H8.64355C8.31684 19.9039 7.2585 20.75 6 20.75C4.7415 20.75 3.68316 19.9039 3.35645 18.75H1.25V11.8779L1.28809 11.7627L3.45898 5.25H16.542L18.541 11.25ZM6 16.75C5.30964 16.75 4.75 17.3096 4.75 18C4.75 18.6904 5.30964 19.25 6 19.25C6.69036 19.25 7.25 18.6904 7.25 18C7.25 17.3096 6.69036 16.75 6 16.75ZM17 16.75C16.3096 16.75 15.75 17.3096 15.75 18C15.75 18.6904 16.3096 19.25 17 19.25C17.6904 19.25 18.25 18.6904 18.25 18C18.25 17.3096 17.6904 16.75 17 16.75ZM2.75 17.25H3.35645C3.68316 16.0961 4.7415 15.25 6 15.25C7.2585 15.25 8.31684 16.0961 8.64355 17.25H14.3564C14.6832 16.0961 15.7415 15.25 17 15.25C17.353 15.25 17.6899 15.3182 18 15.4395V14.25H21V15.75H18.5781C19.0882 16.1084 19.4694 16.635 19.6436 17.25H21.25V13C21.25 12.8622 21.1378 12.75 21 12.75H2.75V17.25ZM3.04102 11.25H9.25V6.75H4.54102L3.04102 11.25ZM10.75 11.25H16.959L15.46 6.75H10.75V11.25Z" fill="#17191A"/>
</svg>
