<svg width="24" height="24" viewBox="0 0 24 24" fill="none" xmlns="http://www.w3.org/2000/svg">
<path d="M8.5 20.75C9.3 20.75 10 20.05 10 19.25C10 18.45 9.3 17.75 8.5 17.75C7.7 17.75 7 18.45 7 19.25C7 20.05 7.7 20.75 8.5 20.75Z" fill="#17191A"/>
<path d="M17.5 20.75C18.3 20.75 19 20.05 19 19.25C19 18.45 18.3 17.75 17.5 17.75C16.7 17.75 16 18.45 16 19.25C16 20.05 16.7 20.75 17.5 20.75Z" fill="#17191A"/>
<path fill-rule="evenodd" clip-rule="evenodd" d="M4.36465 4.5H2V3H5C5.36663 3 5.67952 3.26506 5.7398 3.6267L6.13535 6H20C20.2133 6 20.4166 6.09085 20.5588 6.24981C20.7011 6.40877 20.769 6.6208 20.7454 6.83282L19.7454 15.8328C19.7032 16.2126 19.3822 16.5 19 16.5H7C6.63337 16.5 6.32048 16.2349 6.2602 15.8733L4.36465 4.5ZM6.38535 7.5L7.63534 15H18.3287L19.1621 7.5H6.38535Z" fill="#17191A"/>
</svg>
