<svg width="24" height="24" viewBox="0 0 24 24" fill="none" xmlns="http://www.w3.org/2000/svg">
<path d="M20.745 6.333C20.556 6.121 20.284 6 20 6H6.347L5.986 3.835C5.906 3.353 5.488 3 5 3H2V5H4.153L6.014 16.164C6.094 16.646 6.512 17 7 17H19C19.51 17 19.938 16.617 19.994 16.11L20.994 7.11C21.025 6.827 20.934 6.545 20.745 6.333Z" fill="#17191A"/>
<path d="M8.5 18C7.7 18 7 18.7 7 19.5C7 20.3 7.7 21 8.5 21C9.3 21 10 20.3 10 19.5C10 18.7 9.3 18 8.5 18Z" fill="#17191A"/>
<path d="M17.5 18C16.7 18 16 18.7 16 19.5C16 20.3 16.7 21 17.5 21C18.3 21 19 20.3 19 19.5C19 18.7 18.3 18 17.5 18Z" fill="#17191A"/>
</svg>
