<svg width="24" height="24" viewBox="0 0 24 24" fill="none" xmlns="http://www.w3.org/2000/svg">
<path fill-rule="evenodd" clip-rule="evenodd" d="M1 20.75V17.75C2.7 17.75 4 19.05 4 20.75H1Z" fill="#17191A"/>
<path d="M8 20.75H6C6 17.95 3.8 15.75 1 15.75V13.75C4.9 13.75 8 16.85 8 20.75Z" fill="#17191A"/>
<path d="M12 20.75H10C10 15.75 6 11.75 1 11.75V9.75C7.1 9.75 12 14.65 12 20.75Z" fill="#17191A"/>
<path fill-rule="evenodd" clip-rule="evenodd" d="M4 4.5C3.31421 4.5 2.75 5.06421 2.75 5.75V7.75H1.25V5.75C1.25 4.23579 2.48579 3 4 3H20C21.5142 3 22.75 4.23579 22.75 5.75V17.75C22.75 19.2642 21.5142 20.5 20 20.5H14V19H20C20.6858 19 21.25 18.4358 21.25 17.75V5.75C21.25 5.06421 20.6858 4.5 20 4.5H4Z" fill="#17191A"/>
</svg>
