<svg width="24" height="24" viewBox="0 0 24 24" fill="none" xmlns="http://www.w3.org/2000/svg">
<path fill-rule="evenodd" clip-rule="evenodd" d="M1 21V18C2.7 18 4 19.3 4 21H1Z" fill="#17191A"/>
<path d="M8 21H6C6 18.2 3.8 16 1 16V14C4.9 14 8 17.1 8 21Z" fill="#17191A"/>
<path d="M12 21H10C10 16 6 12 1 12V10C7.1 10 12 14.9 12 21Z" fill="#17191A"/>
<path d="M20 21H14V19H20C20.6 19 21 18.6 21 18V6C21 5.4 20.6 5 20 5H4C3.4 5 3 5.4 3 6V8H1V6C1 4.3 2.3 3 4 3H20C21.7 3 23 4.3 23 6V18C23 19.7 21.7 21 20 21Z" fill="#17191A"/>
</svg>
