<svg width="24" height="24" viewBox="0 0 24 24" fill="none" xmlns="http://www.w3.org/2000/svg">
<path d="M14 9C14.6 9 15 8.6 15 8C15 7.4 14.6 7 14 7C13.4 7 13 7.4 13 8C13 8.6 13.4 9 14 9Z" fill="#17191A"/>
<path fill-rule="evenodd" clip-rule="evenodd" d="M5 4.75C4.30964 4.75 3.75 5.30964 3.75 6V12C3.75 12.6904 4.30964 13.25 5 13.25H16C16.6904 13.25 17.25 12.6904 17.25 12V6C17.25 5.30964 16.6904 4.75 16 4.75H5ZM2.25 6C2.25 4.48122 3.48122 3.25 5 3.25H16C17.5188 3.25 18.75 4.48122 18.75 6V12C18.75 13.5188 17.5188 14.75 16 14.75H5C3.48122 14.75 2.25 13.5188 2.25 12V6Z" fill="#17191A"/>
<path fill-rule="evenodd" clip-rule="evenodd" d="M22.75 5.03942V12.9606L17.25 11.5856V6.41442L22.75 5.03942ZM18.75 7.58558V10.4144L21.25 11.0394V6.96058L18.75 7.58558Z" fill="#17191A"/>
<path fill-rule="evenodd" clip-rule="evenodd" d="M6.333 17.917C7.93579 17.917 9.25 16.6028 9.25 15H10.75C10.75 17.4312 8.76421 19.417 6.333 19.417H3V17.917H6.333Z" fill="#17191A"/>
<path fill-rule="evenodd" clip-rule="evenodd" d="M2.25 22V16H3.75V22H2.25Z" fill="#17191A"/>
</svg>
