<svg width="24" height="24" viewBox="0 0 24 24" fill="none" xmlns="http://www.w3.org/2000/svg">
<path d="M16.25 17.5352C15.8588 17.6736 15.4383 17.75 15 17.75C14.5615 17.75 14.1411 17.6734 13.75 17.5352V19.5L14.5498 18.9004L14.6543 18.834C14.9067 18.7028 15.2169 18.7254 15.4502 18.9004L16.25 19.5V17.5352ZM2.25 16V6C2.25 4.99926 2.78522 4.12561 3.58398 3.64453L2.46973 2.53027L3.53027 1.46973L21.5303 19.4697L20.4697 20.5303L17.75 17.8105V21C17.75 21.2841 17.589 21.5439 17.335 21.6709C17.081 21.7977 16.777 21.77 16.5498 21.5996L15 20.4365L13.4502 21.5996C13.223 21.77 12.919 21.7977 12.665 21.6709C12.411 21.5439 12.25 21.2841 12.25 21V16.5479C11.6299 15.8789 11.25 14.9842 11.25 14C11.25 13.2361 11.4785 12.5243 11.8711 11.9316L8.68945 8.75H6V7.25H7.18945L4.72168 4.78223C4.16516 4.9087 3.75 5.40498 3.75 6V16C3.75 16.6908 4.30921 17.25 5 17.25H11V18.75H5C3.48079 18.75 2.25 17.5192 2.25 16ZM20.25 6C20.25 5.70517 20.134 5.39372 19.8701 5.12988C19.6063 4.86605 19.2948 4.75 19 4.75H9V3.25H19C19.0882 3.25 19.1762 3.25485 19.2637 3.26367C20.5719 3.38807 21.6105 4.42728 21.7354 5.73535C21.7442 5.82317 21.75 5.9114 21.75 6V16H20.25V6ZM9 11.25V12.75H6V11.25H9ZM18 7.25V8.75H13V7.25H18ZM12.75 14C12.75 15.2428 13.7572 16.25 15 16.25C15.347 16.25 15.6742 16.1688 15.9678 16.0283L12.9707 13.0312C12.8301 13.3249 12.75 13.6528 12.75 14Z" fill="#17191A"/>
</svg>
