<svg width="24" height="24" viewBox="0 0 24 24" fill="none" xmlns="http://www.w3.org/2000/svg">
<path d="M17.25 14C17.25 12.7574 16.2426 11.75 15 11.75C13.7574 11.75 12.75 12.7574 12.75 14C12.75 15.2426 13.7574 16.25 15 16.25C16.2426 16.25 17.25 15.2426 17.25 14ZM16.25 17.5352C15.8589 17.6734 15.4385 17.75 15 17.75C14.5615 17.75 14.1411 17.6734 13.75 17.5352V19.5L14.5498 18.9004L14.6543 18.834C14.9067 18.7028 15.2169 18.7254 15.4502 18.9004L16.25 19.5V17.5352ZM20.25 16V6C20.25 5.30921 19.6908 4.75 19 4.75H5C4.30921 4.75 3.75 5.30921 3.75 6V16C3.75 16.6908 4.30921 17.25 5 17.25H10.9629V18.75H5C3.48079 18.75 2.25 17.5192 2.25 16V6C2.25 4.48079 3.48079 3.25 5 3.25H19C20.5192 3.25 21.75 4.48079 21.75 6V16C21.75 17.5192 20.5192 18.75 19 18.75V17.25C19.6908 17.25 20.25 16.6908 20.25 16ZM9 11.25V12.75H6V11.25H9ZM18 7.25V8.75H6V7.25H18ZM18.75 14C18.75 14.9841 18.3701 15.8789 17.75 16.5479V21C17.75 21.2841 17.589 21.5439 17.335 21.6709C17.081 21.7977 16.777 21.77 16.5498 21.5996L15 20.4365L13.4502 21.5996C13.223 21.77 12.919 21.7977 12.665 21.6709C12.411 21.5439 12.25 21.2841 12.25 21V16.5479C11.6299 15.8789 11.25 14.9841 11.25 14C11.25 11.9289 12.9289 10.25 15 10.25C17.0711 10.25 18.75 11.9289 18.75 14Z" fill="#17191A"/>
</svg>
