<svg width="24" height="24" viewBox="0 0 24 24" fill="none" xmlns="http://www.w3.org/2000/svg">
<path d="M18 7H6V9H18V7Z" fill="#17191A"/>
<path d="M9 11H6V13H9V11Z" fill="#17191A"/>
<path d="M19 3H5C3.346 3 2 4.346 2 6V16C2 17.654 3.346 19 5 19H10.963V17H5C4.449 17 4 16.552 4 16V6C4 5.449 4.449 5 5 5H19C19.552 5 20 5.449 20 6V16C20 16.552 19.552 17 19 17V19C20.654 19 22 17.654 22 16V6C22 4.346 20.654 3 19 3Z" fill="#17191A"/>
<path d="M19 14C19 11.794 17.206 10 15 10C12.794 10 11 11.794 11 14C11 15.005 11.385 15.914 12 16.618V21C12 21.379 12.214 21.725 12.553 21.895C12.892 22.063 13.298 22.029 13.6 21.8L15 20.75L16.4 21.8C16.576 21.933 16.788 22 17 22C17.152 22 17.306 21.965 17.447 21.895C17.786 21.725 18 21.379 18 21V16.618C18.615 15.915 19 15.006 19 14ZM15.6 18.7C15.245 18.432 14.756 18.432 14.401 18.7L14.001 19V17.858C14.323 17.942 14.654 18 15.001 18C15.348 18 15.679 17.942 16.001 17.858V19L15.6 18.7Z" fill="#17191A"/>
</svg>
