<svg width="24" height="24" viewBox="0 0 24 24" fill="none" xmlns="http://www.w3.org/2000/svg">
<path d="M21.942 5.421C21.671 4.043 20.457 3 19 3H9V5H19C19.252 5 19.492 5.106 19.692 5.307C19.892 5.508 20 5.748 20 6V16H22V6C22 5.804 21.98 5.611 21.942 5.421Z" fill="#17191A"/>
<path d="M18 7H13V9H18V7Z" fill="#17191A"/>
<path d="M9 11H6V13H9V11Z" fill="#17191A"/>
<path d="M2.293 2.70697L3.201 3.61497C2.476 4.16297 2 5.02397 2 5.99997V16C2 17.654 3.346 19 5 19H11V17H5C4.449 17 4 16.552 4 16V5.99997C4 5.57097 4.275 5.21097 4.656 5.06997L6.586 6.99997H6V8.99997H8.586L11.565 11.979C11.206 12.587 11 13.275 11 14C11 15.005 11.385 15.914 12 16.618V21C12 21.379 12.214 21.725 12.553 21.895C12.892 22.063 13.298 22.029 13.6 21.8L15 20.75L16.4 21.8C16.576 21.933 16.788 22 17 22C17.152 22 17.306 21.965 17.447 21.895C17.786 21.725 18 21.379 18 21V18.414L20.293 20.707L21.707 19.293L3.707 1.29297L2.293 2.70697ZM15.6 18.7C15.245 18.432 14.756 18.432 14.401 18.7L14.001 19V17.858C14.323 17.942 14.654 18 15.001 18C15.345 18 15.677 17.942 16.001 17.858V19L15.6 18.7Z" fill="#17191A"/>
</svg>
