<svg width="24" height="24" viewBox="0 0 24 24" fill="none" xmlns="http://www.w3.org/2000/svg">
<path fill-rule="evenodd" clip-rule="evenodd" d="M11.9992 1.08496L22.8519 8.68187L19.5848 21.7505H4.41363L1.14648 8.68187L11.9992 1.08496ZM2.85194 9.31903L5.58479 20.2505H18.4136L21.1465 9.31903L11.9992 2.91594L2.85194 9.31903Z" fill="#17191A"/>
<path fill-rule="evenodd" clip-rule="evenodd" d="M11.9895 6.11035L18.3273 10.0873L16.2329 17.4636H7.75881L5.88623 10.0882L11.9895 6.11035ZM12.0048 7.89083L7.60414 10.759L8.92556 15.9636H15.0995L16.5771 10.7599L12.0048 7.89083Z" fill="#17191A"/>
<path fill-rule="evenodd" clip-rule="evenodd" d="M1.78369 9.71897L2.21471 8.28223L11.9992 11.2176L21.7837 8.28223L22.2147 9.71897L11.9992 12.7836L1.78369 9.71897Z" fill="#17191A"/>
<path fill-rule="evenodd" clip-rule="evenodd" d="M11.2492 2.00049H12.7492V11.7432L19.5912 20.54L18.4072 21.4609L11.2492 12.2578V2.00049Z" fill="#17191A"/>
<path fill-rule="evenodd" clip-rule="evenodd" d="M12.5912 12.4609L5.59119 21.461L4.40717 20.54L11.4072 11.54L12.5912 12.4609Z" fill="#17191A"/>
</svg>
