<svg width="24" height="24" viewBox="0 0 24 24" fill="none" xmlns="http://www.w3.org/2000/svg">
<path d="M12.0003 0.779297L0.863281 8.5753L4.21928 22.0003H19.7813L23.1363 8.5753L12.0003 0.779297ZM17.5373 9.2953L13.0003 6.4483V3.9213L19.7353 8.6363L17.5373 9.2953ZM11.0003 10.6563L9.09628 10.0853L11.0003 8.8443V10.6563ZM10.3143 12.5383L8.80628 14.4763L8.14928 11.8883L10.3143 12.5373V12.5383ZM12.0003 13.6293L13.6213 15.7133H10.3793L12.0003 13.6293ZM13.6863 12.5383L16.0113 11.8413L15.2443 14.5423L13.6863 12.5383ZM13.0003 10.6563V8.8093L14.9913 10.0583L13.0003 10.6553V10.6563ZM11.0003 6.4573L6.58828 9.3333L4.26528 8.6363L11.0003 3.9213V6.4573ZM5.91728 11.2193L7.25128 16.4763L5.47228 18.7643L3.39728 10.4633L5.91728 11.2193ZM8.82428 17.7133H15.1773L16.9563 20.0003H7.04528L8.82428 17.7133ZM16.7673 16.5003L18.2843 11.1593L20.6043 10.4633L18.5283 18.7643L16.7673 16.5003Z" fill="#17191A"/>
</svg>
