<svg width="24" height="24" viewBox="0 0 24 24" fill="none" xmlns="http://www.w3.org/2000/svg">
<path d="M19.75 8.68945V20C19.75 20.9662 18.9662 21.75 18 21.75H6C5.03379 21.75 4.25 20.9662 4.25 20V4C4.25 3.03379 5.03379 2.25 6 2.25H13.3105L19.75 8.68945ZM6 3.75C5.86221 3.75 5.75 3.86221 5.75 4V20C5.75 20.1378 5.86221 20.25 6 20.25H18C18.1378 20.25 18.25 20.1378 18.25 20V9.75H12.25V3.75H6ZM17.5303 14.5303L14 18.0605L11.4697 15.5303L12.5303 14.4697L14 15.9395L16.4697 13.4697L17.5303 14.5303ZM10 16.75H7V15.25H10V16.75ZM12 13.75H7V12.25H12V13.75ZM13.75 8.25H17.1895L13.75 4.81055V8.25Z" fill="#17191A"/>
</svg>
