<svg width="24" height="24" viewBox="0 0 24 24" fill="none" xmlns="http://www.w3.org/2000/svg">
<path fill-rule="evenodd" clip-rule="evenodd" d="M4.25 17C4.25 16.5858 4.58579 16.25 5 16.25H19C19.4142 16.25 19.75 16.5858 19.75 17C19.75 17.4142 19.4142 17.75 19 17.75H5C4.58579 17.75 4.25 17.4142 4.25 17Z" fill="#17191A"/>
<path fill-rule="evenodd" clip-rule="evenodd" d="M7.28353 5.43273C7.56392 3.07691 9.56875 1.25 12 1.25C14.4313 1.25 16.4361 3.07691 16.7165 5.43274C17.1223 5.31512 17.5522 5.25 18 5.25C20.6232 5.25 22.75 7.37679 22.75 10C22.75 12.008 21.5014 13.7067 19.75 14.4016V22C19.75 22.4142 19.4142 22.75 19 22.75H5C4.58579 22.75 4.25 22.4142 4.25 22V14.4016C2.49864 13.7067 1.25 12.008 1.25 10C1.25 7.37679 3.37679 5.25 6 5.25C6.4478 5.25 6.87771 5.31512 7.28353 5.43273ZM12 2.75C10.2052 2.75 8.75 4.20521 8.75 6C8.75 6.12701 8.76812 6.25163 8.79601 6.44336C8.79771 6.45509 8.79945 6.46707 8.80123 6.47932C8.84289 6.76646 8.71518 7.05188 8.47332 7.21217C8.23146 7.37246 7.91885 7.37886 7.67063 7.22861C7.17288 6.92732 6.60582 6.75 6 6.75C4.20521 6.75 2.75 8.20521 2.75 10C2.75 11.5072 3.7841 12.7693 5.18805 13.133C5.51892 13.2187 5.75 13.5172 5.75 13.859V21.25H18.25V13.859C18.25 13.5172 18.4811 13.2187 18.812 13.133C20.2159 12.7693 21.25 11.5072 21.25 10C21.25 8.20521 19.7948 6.75 18 6.75C17.3942 6.75 16.8271 6.92732 16.3294 7.22861C16.0806 7.37922 15.7671 7.3724 15.5251 7.21112C15.2831 7.04983 15.1561 6.76317 15.1993 6.47556C15.2301 6.27063 15.25 6.13479 15.25 6C15.25 4.20521 13.7948 2.75 12 2.75Z" fill="#17191A"/>
</svg>
