<svg width="24" height="24" viewBox="0 0 24 24" fill="none" xmlns="http://www.w3.org/2000/svg">
<path d="M17 2H7C5.346 2 4 3.346 4 5V19C4 20.654 5.346 22 7 22H17C18.654 22 20 20.654 20 19V5C20 3.346 18.654 2 17 2ZM10 4H14V5H10V4ZM18 19C18 19.552 17.552 20 17 20H7C6.449 20 6 19.552 6 19V5C6 4.449 6.449 4 7 4H8V5C8 6.103 8.897 7 10 7H14C15.103 7 16 6.103 16 5V4H17C17.552 4 18 4.449 18 5V19Z" fill="#17191A"/>
<path d="M16 9H8V11H16V9Z" fill="#17191A"/>
<path d="M16 13H8V15H16V13Z" fill="#17191A"/>
</svg>
