<svg width="24" height="24" viewBox="0 0 24 24" fill="none" xmlns="http://www.w3.org/2000/svg">
<path d="M17 2.25C18.5188 2.25 19.75 3.48122 19.75 5V19C19.75 20.5188 18.5188 21.75 17 21.75H7C5.48122 21.75 4.25 20.5188 4.25 19V5C4.25 3.48122 5.48122 2.25 7 2.25H17ZM7 3.75C6.30964 3.75 5.75 4.30964 5.75 5V19C5.75 19.6904 6.30964 20.25 7 20.25H17C17.6904 20.25 18.25 19.6904 18.25 19V5C18.25 4.30964 17.6904 3.75 17 3.75H15.75V5C15.75 5.96621 14.9662 6.75 14 6.75H10C9.03379 6.75 8.25 5.96621 8.25 5V3.75H7ZM16 14.75H8V13.25H16V14.75ZM16 10.75H8V9.25H16V10.75ZM9.75 5C9.75 5.13779 9.86221 5.25 10 5.25H14C14.1378 5.25 14.25 5.13779 14.25 5V3.75H9.75V5Z" fill="#17191A"/>
</svg>
