<svg width="24" height="24" viewBox="0 0 24 24" fill="none" xmlns="http://www.w3.org/2000/svg">
<path d="M20.324 10.354C19.557 6.689 16.303 4 12.5 4C9.205 4 6.232 6.065 5.048 9.099C2.448 9.551 0.5 11.803 0.5 14.5C0.5 17.532 2.967 20 6 20H18.5C21.257 20 23.5 17.757 23.5 15C23.5 12.919 22.224 11.094 20.324 10.354ZM15.707 14.293L14.293 15.707L12.5 13.914L10.707 15.707L9.293 14.293L11.086 12.5L9.293 10.707L10.707 9.293L12.5 11.086L14.293 9.293L15.707 10.707L13.914 12.5L15.707 14.293Z" fill="#17191A"/>
</svg>
