<svg width="24" height="24" viewBox="0 0 24 24" fill="none" xmlns="http://www.w3.org/2000/svg">
<path d="M21.296 10.159C21.758 9.343 22 8.439 22 7.5C22 4.467 19.532 2 16.5 2C15.208 2 13.955 2.473 12.967 3.309C12.359 3.114 11.704 3 11 3C7.218 3 4.127 6.015 4.004 9.768C2.379 10.606 1 11.926 1 15C1 18.364 3.636 21 7 21H16.5C20.084 21 23 18.084 23 14.5C23 12.872 22.37 11.319 21.296 10.159ZM14.983 4.364C15.452 4.132 15.963 4 16.5 4C18.43 4 20 5.57 20 7.5C20 7.959 19.896 8.404 19.716 8.825C19.091 8.435 18.406 8.164 17.679 8.057C17.249 6.798 16.324 5.379 14.983 4.364Z" fill="#17191A"/>
</svg>
