<svg width="24" height="24" viewBox="0 0 24 24" fill="none" xmlns="http://www.w3.org/2000/svg">
<path fill-rule="evenodd" clip-rule="evenodd" d="M11 4.75C8.11421 4.75 5.75 7.11421 5.75 10V10.8874L5.3046 11.0854C4.44298 11.4683 3.83435 11.8542 3.425 12.4C3.0253 12.9329 2.75 13.7086 2.75 15C2.75 17.3858 4.61421 19.25 7 19.25H16.5C19.0947 19.25 21.25 17.1769 21.25 14.5C21.25 13.0427 20.5649 11.7471 19.5199 10.8762L19.4937 10.8544L19.4697 10.8303C18.8009 10.1615 17.8881 9.75 16.9 9.75H16.2794L16.1632 9.14033C15.9944 8.25398 15.426 7.1391 14.5138 6.24942C13.6118 5.36963 12.4165 4.75 11 4.75ZM4.25044 9.92277C4.29217 6.2438 7.31156 3.25 11 3.25C12.8835 3.25 14.4382 4.08037 15.5612 5.17558C16.5015 6.09274 17.1697 7.224 17.4937 8.28495C18.6587 8.42277 19.71 8.9598 20.506 9.74551C21.8467 10.8747 22.75 12.5697 22.75 14.5C22.75 18.0231 19.9053 20.75 16.5 20.75H7C3.78579 20.75 1.25 18.2142 1.25 15C1.25 13.4914 1.5747 12.3671 2.225 11.5C2.76339 10.7822 3.47883 10.3045 4.25044 9.92277Z" fill="#17191A"/>
<path fill-rule="evenodd" clip-rule="evenodd" d="M12.6469 3.95537C13.6012 2.91751 14.9662 2.25 16.5 2.25C19.3992 2.25 21.75 4.60079 21.75 7.5C21.75 8.75036 21.2965 9.87784 20.5833 10.768L19.4127 9.83002C19.9334 9.18016 20.25 8.37764 20.25 7.5C20.25 5.42921 18.5708 3.75 16.5 3.75C15.4138 3.75 14.4408 4.22049 13.7511 4.97063L12.6469 3.95537Z" fill="#17191A"/>
</svg>
