<svg width="24" height="24" viewBox="0 0 24 24" fill="none" xmlns="http://www.w3.org/2000/svg">
<path fill-rule="evenodd" clip-rule="evenodd" d="M10.9933 12.9365L14.4704 9.46899L15.5296 10.5311L10.9847 15.0636L8.46611 12.5108L9.5339 11.4573L10.9933 12.9365Z" fill="#17191A"/>
<path fill-rule="evenodd" clip-rule="evenodd" d="M5.22957 9.32257C6.31915 6.36398 9.16005 4.25 12.5 4.25C16.2817 4.25 19.4234 6.95987 20.1061 10.5411C21.9345 11.1984 23.25 12.9383 23.25 15C23.25 17.6232 21.1232 19.75 18.5 19.75H6C3.10079 19.75 0.75 17.3992 0.75 14.5C0.75 11.8596 2.70003 9.69526 5.22957 9.32257ZM12.5 5.75C9.66436 5.75 7.27031 7.64147 6.50747 10.2328L6.35672 10.7449L5.82349 10.7702C3.83212 10.8645 2.25 12.4937 2.25 14.5C2.25 16.5708 3.92921 18.25 6 18.25H18.5C20.2948 18.25 21.75 16.7948 21.75 15C21.75 13.474 20.6916 12.1974 19.2628 11.852L18.7592 11.7303L18.6948 11.2162C18.3091 8.13467 15.684 5.75 12.5 5.75Z" fill="#17191A"/>
</svg>
