<svg width="24" height="24" viewBox="0 0 24 24" fill="none" xmlns="http://www.w3.org/2000/svg">
<path d="M19.753 7.65929C20.011 7.36429 20.073 6.94429 19.91 6.58729C19.748 6.23029 19.392 6.00029 19 6.00029H15.357L15.708 4.92529L18.351 3.93629C18.869 3.74329 19.13 3.16629 18.937 2.64929C18.744 2.13229 18.166 1.86829 17.65 2.06329L14.557 3.22029C14.272 3.32629 14.051 3.55729 13.957 3.84629L13.254 5.99929H10.899C10.434 3.72029 8.415 1.99929 6 1.99929C3.243 2.00029 1 4.24329 1 7.00029C1 9.75729 3.243 12.0003 6 12.0003C6.593 12.0003 7.185 11.8793 7.75 11.6623L11 15.3763V20.0013H8V22.0013H16V20.0013H13V15.3773L19.753 7.65929ZM16.796 8.00029L15.002 10.0503C14.639 10.0953 14.313 10.1073 14.023 10.0893L14.705 8.00029H16.796ZM12.055 9.67329C11.631 9.56729 11.184 9.49129 10.677 9.53329C9.834 9.53329 9.309 9.77029 8.918 9.96029L7.203 8.00029H12.601L12.055 9.67329ZM6 10.0003C4.346 10.0003 3 8.65429 3 7.00029C3 5.34629 4.346 4.00029 6 4.00029C7.302 4.00029 8.402 4.83929 8.816 6.00029H5C4.607 6.00029 4.251 6.22929 4.089 6.58729C3.927 6.94429 3.989 7.36329 4.247 7.65929L6.264 9.96429C6.175 9.97229 6.089 10.0013 6 10.0013V10.0003Z" fill="#17191A"/>
</svg>
