<svg width="24" height="24" viewBox="0 0 24 24" fill="none" xmlns="http://www.w3.org/2000/svg">
<path d="M6 2.25C8.36796 2.25 10.3307 3.98318 10.6904 6.25H13.4355L14.1943 3.92383L14.2246 3.84473C14.3067 3.66536 14.4576 3.52401 14.6445 3.4541L17.7373 2.29785L17.8105 2.27441C18.1781 2.17798 18.5661 2.37373 18.7021 2.7373C18.8382 3.10105 18.6738 3.50343 18.333 3.67188L18.2627 3.70215L15.5078 4.73242L15.0127 6.25H19C19.2943 6.25 19.561 6.42247 19.6826 6.69043C19.8041 6.95837 19.7582 7.27271 19.5645 7.49414L16.0576 11.5C16.0548 11.5031 16.0526 11.5067 16.0498 11.5098L12.75 15.2812V20.25H16V21.75H8V20.25H11.25V15.2812L7.82715 11.3691C7.27006 11.6077 6.6556 11.75 6 11.75C3.37679 11.75 1.25 9.62321 1.25 7C1.25003 4.37681 3.3768 2.25 6 2.25ZM10.7979 11.2793C10.7694 11.2822 10.7405 11.2835 10.7119 11.2832C10.3311 11.2786 10.0959 11.3496 9.88281 11.4414L12 13.8604L13.7695 11.8369C13.2816 11.7963 12.8613 11.7067 12.4844 11.6064C11.7621 11.4144 11.3908 11.2688 10.9785 11.2695L10.7979 11.2793ZM13.7129 10.2324C13.703 10.2627 13.69 10.2913 13.6768 10.3193C14.084 10.3714 14.5494 10.3785 15.1152 10.2988L17.3467 7.75H14.5234L13.7129 10.2324ZM8.85547 10.2666C8.95239 10.2191 9.06824 10.1612 9.23242 10.0879C9.60332 9.9223 10.0472 9.78276 10.6865 9.78418C11.2542 9.7339 11.7858 9.85144 12.2539 9.98145C12.2557 9.91053 12.264 9.83847 12.2871 9.76758L12.9453 7.75H6.65332L8.85547 10.2666ZM6 3.75C4.20523 3.75 2.75003 5.20524 2.75 7C2.75 8.79479 4.20521 10.25 6 10.25C6.26197 10.25 6.51619 10.2142 6.76172 10.1514L4.43555 7.49414C4.24182 7.27271 4.19587 6.95837 4.31738 6.69043C4.43899 6.42247 4.70573 6.25 5 6.25H9.16211C8.82339 4.81686 7.53657 3.75 6 3.75Z" fill="#17191A"/>
</svg>
