<svg width="24" height="24" viewBox="0 0 24 24" fill="none" xmlns="http://www.w3.org/2000/svg">
<path d="M7.5 4.99968C7.5 5.07468 7.451 5.15568 7.363 5.22868C6.937 5.58068 6.878 6.21068 7.23 6.63668C7.428 6.87568 7.713 6.99968 8.001 6.99968C8.226 6.99968 8.451 6.92468 8.638 6.77068C9.186 6.31668 9.501 5.67168 9.501 4.99968C9.501 4.32768 9.187 3.68268 8.638 3.22868C8.55 3.15568 8.501 3.07368 8.501 2.99968C8.501 2.92568 8.55 2.84368 8.638 2.77068C9.064 2.41868 9.123 1.78868 8.771 1.36268C8.418 0.936682 7.788 0.877682 7.363 1.22968C6.815 1.68368 6.5 2.32868 6.5 3.00068C6.5 3.67268 6.814 4.31768 7.363 4.77168C7.451 4.84468 7.5 4.92568 7.5 4.99968Z" fill="#17191A"/>
<path d="M11.5 4.99968C11.5 5.07468 11.451 5.15568 11.363 5.22868C10.937 5.58068 10.878 6.21068 11.23 6.63668C11.428 6.87568 11.713 6.99968 12.001 6.99968C12.226 6.99968 12.451 6.92468 12.638 6.77068C13.186 6.31668 13.501 5.67168 13.501 4.99968C13.501 4.32768 13.187 3.68268 12.638 3.22868C12.55 3.15568 12.501 3.07368 12.501 2.99968C12.501 2.92568 12.55 2.84368 12.638 2.77068C13.063 2.41868 13.124 1.78868 12.771 1.36268C12.419 0.936682 11.789 0.877682 11.363 1.22968C10.815 1.68368 10.5 2.32868 10.5 3.00068C10.5 3.67268 10.814 4.31768 11.363 4.77168C11.451 4.84468 11.5 4.92568 11.5 4.99968Z" fill="#17191A"/>
<path d="M18.5 8.99951H18C18 8.44751 17.553 7.99951 17 7.99951H4C3.448 7.99951 3 8.44751 3 8.99951V17.9995C3 20.7565 5.243 22.9995 8 22.9995H13C15.757 22.9995 18 20.7565 18 17.9995H18.5C20.981 17.9995 23 15.9805 23 13.4995C23 11.0185 20.981 8.99951 18.5 8.99951ZM18.5 15.9995H18V10.9995H18.5C19.879 10.9995 21 12.1215 21 13.4995C21 14.8775 19.879 15.9995 18.5 15.9995Z" fill="#17191A"/>
</svg>
