<svg width="24" height="24" viewBox="0 0 24 24" fill="none" xmlns="http://www.w3.org/2000/svg">
<path fill-rule="evenodd" clip-rule="evenodd" d="M3.25 9.00002C3.25 8.58581 3.58579 8.25002 4 8.25002H17C17.4142 8.25002 17.75 8.58581 17.75 9.00002V18C17.75 20.6222 15.6222 22.75 13 22.75H8C5.37779 22.75 3.25 20.6222 3.25 18V9.00002ZM4.75 9.75002V18C4.75 19.7938 6.20621 21.25 8 21.25H13C14.7938 21.25 16.25 19.7938 16.25 18V9.75002H4.75Z" fill="#17191A"/>
<path fill-rule="evenodd" clip-rule="evenodd" d="M8.5778 1.52184C8.84189 1.84095 8.79728 2.31373 8.47818 2.57782C8.30329 2.72255 8.24975 2.87852 8.24975 3.00002C8.24975 3.12152 8.30329 3.27749 8.47818 3.42222C8.97029 3.82949 9.25025 4.39752 9.25025 5.00002C9.25025 5.60252 8.97029 6.17055 8.47818 6.57782C8.15907 6.84191 7.68629 6.7973 7.4222 6.4782C7.15812 6.15909 7.20272 5.68631 7.52182 5.42222C7.69671 5.27749 7.75025 5.12152 7.75025 5.00002C7.75025 4.87852 7.69671 4.72255 7.52182 4.57782C7.02971 4.17055 6.74975 3.60252 6.74975 3.00002C6.74975 2.39752 7.02971 1.82949 7.52182 1.42222C7.84093 1.15814 8.31371 1.20274 8.5778 1.52184Z" fill="#17191A"/>
<path fill-rule="evenodd" clip-rule="evenodd" d="M12.5778 1.52184C12.8419 1.84095 12.7973 2.31373 12.4782 2.57782C12.3033 2.72255 12.2498 2.87852 12.2498 3.00002C12.2498 3.12152 12.3033 3.27749 12.4782 3.42222C12.9703 3.82949 13.2502 4.39752 13.2502 5.00002C13.2502 5.60252 12.9703 6.17055 12.4782 6.57782C12.1591 6.84191 11.6863 6.7973 11.4222 6.4782C11.1581 6.15909 11.2027 5.68631 11.5218 5.42222C11.6967 5.27749 11.7502 5.12152 11.7502 5.00002C11.7502 4.87852 11.6967 4.72255 11.5218 4.57782C11.0297 4.17055 10.7498 3.60252 10.7498 3.00002C10.7498 2.39752 11.0297 1.82949 11.5218 1.42222C11.8409 1.15814 12.3137 1.20274 12.5778 1.52184Z" fill="#17191A"/>
<path fill-rule="evenodd" clip-rule="evenodd" d="M16.25 10C16.25 9.58581 16.5858 9.25002 17 9.25002H18.5C20.8472 9.25002 22.75 11.1528 22.75 13.5C22.75 15.8472 20.8472 17.75 18.5 17.75H17C16.5858 17.75 16.25 17.4142 16.25 17C16.25 16.5858 16.5858 16.25 17 16.25H18.5C20.0188 16.25 21.25 15.0188 21.25 13.5C21.25 11.9812 20.0188 10.75 18.5 10.75H17C16.5858 10.75 16.25 10.4142 16.25 10Z" fill="#17191A"/>
</svg>
