<svg width="24" height="24" viewBox="0 0 24 24" fill="none" xmlns="http://www.w3.org/2000/svg">
<path fill-rule="evenodd" clip-rule="evenodd" d="M12 3.75C7.44365 3.75 3.75 7.44365 3.75 12C3.75 16.5563 7.44365 20.25 12 20.25C16.5563 20.25 20.25 16.5563 20.25 12C20.25 7.44365 16.5563 3.75 12 3.75ZM2.25 12C2.25 6.61522 6.61522 2.25 12 2.25C17.3848 2.25 21.75 6.61522 21.75 12C21.75 17.3848 17.3848 21.75 12 21.75C6.61522 21.75 2.25 17.3848 2.25 12ZM14.1517 9.70233C12.8826 8.43322 10.8244 8.43322 9.55533 9.70233C8.28622 10.9714 8.28622 13.0296 9.55533 14.2987C10.8244 15.5678 12.8826 15.5678 14.1517 14.2987C14.4446 14.0058 14.9194 14.0058 15.2123 14.2987C15.5052 14.5916 15.5052 15.0664 15.2123 15.3593C13.3574 17.2142 10.3496 17.2142 8.49467 15.3593C6.63978 13.5044 6.63978 10.4966 8.49467 8.64167C10.3496 6.78678 13.3574 6.78678 15.2123 8.64167C15.5052 8.93456 15.5052 9.40944 15.2123 9.70233C14.9194 9.99522 14.4446 9.99522 14.1517 9.70233Z" fill="#17191A"/>
</svg>
