<svg width="24" height="24" viewBox="0 0 24 24" fill="none" xmlns="http://www.w3.org/2000/svg">
<path d="M12 2C6.486 2 2 6.486 2 12C2 17.514 6.486 22 12 22C17.514 22 22 17.514 22 12C22 6.486 17.514 2 12 2ZM9.732 14.122C10.902 15.292 12.805 15.292 13.975 14.122C14.366 13.731 14.998 13.731 15.389 14.122C15.78 14.513 15.78 15.145 15.389 15.536C14.414 16.511 13.134 16.998 11.854 16.998C10.574 16.998 9.293 16.511 8.318 15.536C6.369 13.586 6.369 10.414 8.318 8.465C9.262 7.521 10.518 7.001 11.854 7.001C13.19 7.001 14.445 7.521 15.389 8.465C15.78 8.856 15.78 9.489 15.389 9.879C14.998 10.27 14.366 10.27 13.975 9.879C12.842 8.746 10.866 8.746 9.732 9.879C8.563 11.049 8.563 12.952 9.732 14.122Z" fill="#17191A"/>
</svg>
