<svg width="24" height="24" viewBox="0 0 24 24" fill="none" xmlns="http://www.w3.org/2000/svg">
<path fill-rule="evenodd" clip-rule="evenodd" d="M10.25 11.6893L15.7197 6.21967L16.7803 7.28033L10.25 13.8107L6.71967 10.2803L7.78033 9.21967L10.25 11.6893Z" fill="#17191A"/>
<path fill-rule="evenodd" clip-rule="evenodd" d="M3.75 3.5C3.06421 3.5 2.5 4.06421 2.5 4.75V19.1895L6.28148 16.1643C6.41446 16.058 6.5797 16 6.75 16H19.75C20.4358 16 21 15.4358 21 14.75V4.75C21 4.06421 20.4358 3.5 19.75 3.5H3.75ZM1 4.75C1 3.23579 2.23579 2 3.75 2H19.75C21.2642 2 22.5 3.23579 22.5 4.75V14.75C22.5 16.2642 21.2642 17.5 19.75 17.5H7.01309L2.21852 21.3357C1.99339 21.5158 1.68496 21.5509 1.42511 21.426C1.16526 21.3011 1 21.0383 1 20.75V4.75Z" fill="#17191A"/>
</svg>
