<svg width="24" height="24" viewBox="0 0 24 24" fill="none" xmlns="http://www.w3.org/2000/svg">
<path fill-rule="evenodd" clip-rule="evenodd" d="M2 11.75C2 6.33579 6.33579 2 11.75 2C17.1642 2 21.5 6.33579 21.5 11.75C21.5 17.1642 17.1642 21.5 11.75 21.5C6.33579 21.5 2 17.1642 2 11.75ZM11.75 3.5C7.16421 3.5 3.5 7.16421 3.5 11.75C3.5 16.3358 7.16421 20 11.75 20C16.3358 20 20 16.3358 20 11.75C20 7.16421 16.3358 3.5 11.75 3.5Z" fill="#17191A"/>
<path fill-rule="evenodd" clip-rule="evenodd" d="M16.2803 7.21967C16.4812 7.42054 16.5513 7.71767 16.4615 7.98717L14.4615 13.9872C14.3869 14.2111 14.2111 14.3869 13.9872 14.4615L7.98717 16.4615C7.71767 16.5513 7.42054 16.4812 7.21967 16.2803C7.0188 16.0795 6.94865 15.7823 7.03849 15.5128L9.03849 9.51283C9.11314 9.28888 9.28888 9.11314 9.51283 9.03849L15.5128 7.03849C15.7823 6.94865 16.0795 7.0188 16.2803 7.21967ZM10.3429 10.3429L8.93585 14.5641L13.1571 13.1571L14.5641 8.93585L10.3429 10.3429Z" fill="#17191A"/>
</svg>
