<svg width="24" height="24" viewBox="0 0 24 24" fill="none" xmlns="http://www.w3.org/2000/svg">
<path fill-rule="evenodd" clip-rule="evenodd" d="M8 3.75C7.86193 3.75 7.75 3.86193 7.75 4V16C7.75 16.1381 7.86193 16.25 8 16.25H20C20.1381 16.25 20.25 16.1381 20.25 16V4C20.25 3.86193 20.1381 3.75 20 3.75H8ZM6.25 4C6.25 3.0335 7.0335 2.25 8 2.25H20C20.9665 2.25 21.75 3.0335 21.75 4V16C21.75 16.9665 20.9665 17.75 20 17.75H8C7.0335 17.75 6.25 16.9665 6.25 16V4Z" fill="#17191A"/>
<path fill-rule="evenodd" clip-rule="evenodd" d="M3.75 9V18C3.75 19.2428 4.75721 20.25 6 20.25H15V21.75H6C3.92879 21.75 2.25 20.0712 2.25 18V9H3.75Z" fill="#17191A"/>
</svg>
