<svg width="24" height="24" viewBox="0 0 24 24" fill="none" xmlns="http://www.w3.org/2000/svg">
<path fill-rule="evenodd" clip-rule="evenodd" d="M15.25 8V5H16.75V8H15.25Z" fill="#17191A"/>
<path fill-rule="evenodd" clip-rule="evenodd" d="M15.25 13V10H16.75V13H15.25Z" fill="#17191A"/>
<path fill-rule="evenodd" clip-rule="evenodd" d="M15.25 18V15H16.75V18H15.25Z" fill="#17191A"/>
<path fill-rule="evenodd" clip-rule="evenodd" d="M1.25 7C1.25 5.48079 2.48079 4.25 4 4.25H20C21.5192 4.25 22.75 5.48079 22.75 7V8.149C22.75 8.99627 22.1528 9.61299 21.4663 9.83239C20.7603 10.0579 20.25 10.7205 20.25 11.5C20.25 12.2795 20.7602 12.942 21.4662 13.1676C22.1547 13.3873 22.75 14.0046 22.75 14.851V16C22.75 17.5192 21.5192 18.75 20 18.75H4C2.48079 18.75 1.25 17.5192 1.25 16V14.851C1.25 14.0037 1.84725 13.387 2.53366 13.1676C3.23966 12.9421 3.75 12.2795 3.75 11.5C3.75 10.7206 3.23995 10.0582 2.53413 9.83254M4 5.75C3.30921 5.75 2.75 6.30921 2.75 7V8.149C2.75 8.19632 2.76471 8.23893 2.79891 8.28111C2.8359 8.32673 2.89943 8.37461 2.98987 8.40346C4.29987 8.82193 5.25 10.0495 5.25 11.5C5.25 12.9505 4.30022 14.178 2.99022 14.5964C2.99018 14.5964 2.99026 14.5964 2.99022 14.5964C2.90018 14.6252 2.83638 14.6732 2.79908 14.7191C2.76456 14.7617 2.75 14.8043 2.75 14.851V16C2.75 16.6908 3.30921 17.25 4 17.25H20C20.6908 17.25 21.25 16.6908 21.25 16V14.851C21.25 14.8037 21.2353 14.7611 21.2011 14.7189C21.1641 14.6733 21.1006 14.6254 21.0101 14.5965C19.7001 14.1781 18.75 12.9505 18.75 11.5C18.75 10.0496 19.6997 8.82212 21.0097 8.40361C21.0998 8.3748 21.1636 8.32683 21.2009 8.28085C21.2354 8.23833 21.25 8.19574 21.25 8.149V7C21.25 6.30921 20.6908 5.75 20 5.75H4ZM1.25 8.149C1.25 8.99543 1.84567 9.61285 2.53413 9.83254L1.25 8.149Z" fill="#17191A"/>
</svg>
