<svg width="24" height="24" viewBox="0 0 24 24" fill="none" xmlns="http://www.w3.org/2000/svg">
<path d="M21.543 11.07C22.414 10.791 23 10.019 23 9.149V8C23 6.346 21.654 5 20 5H17V9H15V5H4C2.346 5 1 6.346 1 8V9.149C1 10.02 1.585 10.792 2.458 11.07C3.082 11.269 3.5 11.843 3.5 12.499C3.5 13.155 3.081 13.729 2.458 13.928C1.586 14.206 1 14.978 1 15.849V16.998C1 18.652 2.346 19.998 4 19.998H15V15.998H17V19.998H20C21.654 19.998 23 18.652 23 16.998V15.849C23 14.978 22.414 14.205 21.543 13.928C20.919 13.729 20.5 13.154 20.5 12.499C20.5 11.844 20.919 11.269 21.543 11.07ZM17 13.999H15V10.999H17V13.999Z" fill="#17191A"/>
</svg>
