<svg width="24" height="24" viewBox="0 0 24 24" fill="none" xmlns="http://www.w3.org/2000/svg">
<path fill-rule="evenodd" clip-rule="evenodd" d="M1 6.75C1 5.23579 2.23579 4 3.75 4H19.75C21.2642 4 22.5 5.23579 22.5 6.75V16.75C22.5 18.2642 21.2642 19.5 19.75 19.5H3.75C2.23579 19.5 1 18.2642 1 16.75V6.75ZM3.75 5.5C3.06421 5.5 2.5 6.06421 2.5 6.75V16.75C2.5 17.4358 3.06421 18 3.75 18H19.75C20.4358 18 21 17.4358 21 16.75V6.75C21 6.06421 20.4358 5.5 19.75 5.5H3.75Z" fill="#17191A"/>
<path fill-rule="evenodd" clip-rule="evenodd" d="M21.75 10.5H1.75V9H21.75V10.5Z" fill="#17191A"/>
<path fill-rule="evenodd" clip-rule="evenodd" d="M8.75 14.5H4.75V13H8.75V14.5Z" fill="#17191A"/>
<path fill-rule="evenodd" clip-rule="evenodd" d="M14.75 14.5H10.75V13H14.75V14.5Z" fill="#17191A"/>
</svg>
