<svg width="24" height="24" viewBox="0 0 24 24" fill="none" xmlns="http://www.w3.org/2000/svg">
<path d="M16.2307 10.1803L11.0002 15.4107L7.76973 12.1803L8.83027 11.1197L11.0002 13.2896L15.1701 9.11973L16.2307 10.1803Z" fill="#17191A"/>
<path d="M1.25 13C1.25001 10.5798 2.05136 8.34502 3.40137 6.5478L4.60059 7.4482C3.43868 8.99493 2.75001 10.9162 2.75 13C2.75 15.5219 3.76093 17.8046 5.39941 19.4746L4.3291 20.5253C2.42762 18.5873 1.25 15.9319 1.25 13Z" fill="#17191A"/>
<path d="M21.2503 13C21.2502 10.9161 20.5614 8.99374 19.3997 7.4482L20.5989 6.5478C21.949 8.34416 22.7502 10.5801 22.7503 13C22.7503 15.9319 21.5726 18.5873 19.6712 20.5253L18.6008 19.4746C20.2393 17.8046 21.2503 15.5219 21.2503 13Z" fill="#17191A"/>
<path d="M11.9999 2.25C14.9998 2.25 17.7206 3.48735 19.6659 5.47559L18.5936 6.52441C16.9189 4.81278 14.5799 3.75 11.9999 3.75C9.41989 3.75003 7.08083 4.81274 5.40613 6.52441L4.33387 5.47559C6.27912 3.48735 9 2.25003 11.9999 2.25Z" fill="#17191A"/>
</svg>
