<svg width="24" height="24" viewBox="0 0 24 24" fill="none" xmlns="http://www.w3.org/2000/svg">
<path d="M10.999 12.936L9.00605 10.943L7.59205 12.357L10.999 15.764L16.406 10.357L14.992 8.943L10.999 12.936Z" fill="#17191A"/>
<path d="M4.79905 7.599L3.20005 6.398C1.76005 8.315 0.998047 10.598 0.998047 13.001C0.998047 15.897 2.11705 18.631 4.14805 20.701L5.57605 19.301C3.91405 17.607 2.99805 15.369 2.99805 13.001C2.99805 11.036 3.62105 9.168 4.79805 7.6L4.79905 7.599Z" fill="#17191A"/>
<path d="M20.798 6.397L19.198 7.598C20.377 9.165 20.999 11.033 20.999 12.999C20.999 15.368 20.084 17.604 18.421 19.299L19.849 20.699C21.88 18.63 22.999 15.894 22.999 12.999C22.999 10.596 22.237 8.313 20.798 6.397Z" fill="#17191A"/>
<path d="M11.999 2C9.02305 2 6.23705 3.172 4.15405 5.301L5.58405 6.699C7.28705 4.958 9.56505 4 11.999 4C14.433 4 16.712 4.958 18.414 6.699L19.844 5.301C17.762 3.173 14.976 2 11.999 2Z" fill="#17191A"/>
</svg>
