<svg width="24" height="24" viewBox="0 0 24 24" fill="none" xmlns="http://www.w3.org/2000/svg">
<path d="M12 2.25C16.2802 2.25 19.75 5.71979 19.75 10C19.75 12.472 18.5905 14.6708 16.7881 16.0898L18.502 20.25H20C20.4142 20.25 20.75 20.5858 20.75 21C20.75 21.4142 20.4142 21.75 20 21.75H4C3.58579 21.75 3.25 21.4142 3.25 21C3.25 20.5858 3.58579 20.25 4 20.25H5.50977L7.2998 16.1602C5.44665 14.744 4.25 12.5124 4.25 10C4.25 5.71979 7.71979 2.25 12 2.25ZM15.5039 16.9111C14.4513 17.4459 13.2615 17.75 12 17.75C10.7753 17.75 9.61757 17.4648 8.58789 16.959L7.14648 20.25H16.8799L15.5039 16.9111ZM12 3.75C8.54822 3.75 5.75 6.54822 5.75 10C5.75 13.4518 8.54822 16.25 12 16.25C15.4518 16.25 18.25 13.4518 18.25 10C18.25 6.54822 15.4518 3.75 12 3.75ZM8.19043 11.4648C8.51884 11.2582 8.94664 11.3376 9.18066 11.6367L9.22461 11.7002L9.33398 11.8633C9.40845 11.9687 9.48665 12.0683 9.57031 12.1621L9.7002 12.2988L9.75195 12.3564C9.99195 12.651 9.97459 13.0858 9.7002 13.3604C9.42552 13.6348 8.9908 13.6516 8.69629 13.4111L8.63965 13.3604L8.4502 13.1592C8.32849 13.0226 8.21533 12.8794 8.10938 12.7295L7.95508 12.499L7.91797 12.4326C7.74892 12.0921 7.8618 11.6718 8.19043 11.4648ZM12 5.25C12.4142 5.25006 12.75 5.58583 12.75 6C12.75 6.41417 12.4142 6.74994 12 6.75C10.4825 6.75005 9.19802 7.79735 8.84863 9.21875C8.74983 9.62087 8.34352 9.86713 7.94141 9.76855C7.53926 9.66974 7.29297 9.26347 7.3916 8.86133C7.9023 6.78295 9.77775 5.25005 12 5.25Z" fill="#17191A"/>
</svg>
