<svg width="24" height="24" viewBox="0 0 24 24" fill="none" xmlns="http://www.w3.org/2000/svg">
<path d="M8.11998 10.04C8.56998 10.04 8.97998 9.73 9.08998 9.28C9.41998 7.94 10.62 7 12 7C12.55 7 13 6.55 13 6C13 5.45 12.55 5 12 5C9.68998 5 7.69998 6.56 7.14998 8.8C7.01998 9.34 7.34998 9.88 7.87998 10.01C7.95998 10.03 8.03998 10.04 8.11998 10.04Z" fill="#17191A"/>
<path d="M9.16999 13.8301C9.42999 13.8301 9.67999 13.7301 9.87999 13.5401C10.27 13.1501 10.27 12.5201 9.87999 12.1301C9.70999 11.9601 9.56999 11.7801 9.43999 11.5701C9.14999 11.1001 8.52999 10.9601 8.05999 11.2601C7.58999 11.5501 7.44999 12.1701 7.74999 12.6401C7.95999 12.9801 8.19999 13.2701 8.46999 13.5401C8.66999 13.7401 8.91999 13.8301 9.17999 13.8301H9.16999Z" fill="#17191A"/>
<path d="M20 20H18.67L17.09 16.17C18.87 14.7 20 12.48 20 10C20 5.59 16.41 2 12 2C7.59 2 4 5.59 4 10C4 12.52 5.17 14.76 7 16.23L5.35 20H4C3.45 20 3 20.45 3 21C3 21.55 3.45 22 4 22H20C20.55 22 21 21.55 21 21C21 20.45 20.55 20 20 20ZM6 10C6 6.69 8.69 4 12 4C15.31 4 18 6.69 18 10C18 13.31 15.31 16 12 16C8.69 16 6 13.31 6 10Z" fill="#17191A"/>
</svg>
