<svg width="24" height="24" viewBox="0 0 24 24" fill="none" xmlns="http://www.w3.org/2000/svg">
<path d="M21 9C21 7.698 20.161 6.598 19 6.184V5.5C19 4.122 17.879 3 16.5 3H11V1H9V3H7.5C6.122 3 5 4.122 5 5.5V6.184C3.839 6.598 3 7.698 3 9C3 10.498 4.106 11.731 5.542 11.954L6.044 23H17.956L18.458 11.954C19.894 11.732 21 10.498 21 9ZM7.5 5H16.5C16.775 5 17 5.224 17 5.5V6H7V5.5C7 5.224 7.224 5 7.5 5ZM18 10H6C5.449 10 5 9.551 5 9C5 8.449 5.449 8 6 8H18C18.552 8 19 8.449 19 9C19 9.551 18.552 10 18 10Z" fill="#17191A"/>
</svg>
