<svg width="24" height="24" viewBox="0 0 24 24" fill="none" xmlns="http://www.w3.org/2000/svg">
<path fill-rule="evenodd" clip-rule="evenodd" d="M7.71668 21.25L7.24923 10.9659L5.75077 11.0341L6.28332 22.75H17.7167L18.2492 11.0341L16.7508 10.9659L16.2833 21.25H7.71668Z" fill="#17191A"/>
<path fill-rule="evenodd" clip-rule="evenodd" d="M10.75 1V4H9.25V1H10.75Z" fill="#17191A"/>
<path fill-rule="evenodd" clip-rule="evenodd" d="M6 7.75C5.30964 7.75 4.75 8.30964 4.75 9C4.75 9.69036 5.30964 10.25 6 10.25H18C18.6904 10.25 19.25 9.69036 19.25 9C19.25 8.30964 18.6904 7.75 18 7.75H6ZM3.25 9C3.25 7.48122 4.48122 6.25 6 6.25H18C19.5188 6.25 20.75 7.48122 20.75 9C20.75 10.5188 19.5188 11.75 18 11.75H6C4.48122 11.75 3.25 10.5188 3.25 9Z" fill="#17191A"/>
<path fill-rule="evenodd" clip-rule="evenodd" d="M7.5 4.75C7.08621 4.75 6.75 5.08621 6.75 5.5V7H5.25V5.5C5.25 4.25779 6.25779 3.25 7.5 3.25H16.5C17.7422 3.25 18.75 4.25779 18.75 5.5V7H17.25V5.5C17.25 5.08621 16.9138 4.75 16.5 4.75H7.5Z" fill="#17191A"/>
</svg>
