<svg width="24" height="24" viewBox="0 0 24 24" fill="none" xmlns="http://www.w3.org/2000/svg">
<path d="M13.207 13.891C13.202 13.897 12.717 14.5 12 14.5C11.296 14.5 10.815 13.918 10.793 13.892C10.461 13.458 9.83997 13.372 9.39897 13.701C8.95697 14.032 8.86797 14.659 9.19897 15.1C9.30597 15.244 10.298 16.5 11.999 16.5C13.7 16.5 14.691 15.243 14.799 15.1C15.127 14.662 15.039 14.047 14.606 13.713C14.172 13.38 13.546 13.462 13.207 13.891Z" fill="#17191A"/>
<path d="M9 12C9.55228 12 10 11.5523 10 11C10 10.4477 9.55228 10 9 10C8.44772 10 8 10.4477 8 11C8 11.5523 8.44772 12 9 12Z" fill="#17191A"/>
<path d="M15 12C15.5523 12 16 11.5523 16 11C16 10.4477 15.5523 10 15 10C14.4477 10 14 10.4477 14 11C14 11.5523 14.4477 12 15 12Z" fill="#17191A"/>
<path d="M21 10.191V10C21 5.038 16.963 1 12 1C7.037 1 3 5.038 3 10V10.184C1.839 10.598 1 11.698 1 13V17C1 18.654 2.346 20 4 20C5.654 20 7 18.654 7 17V13C7 11.698 6.161 10.598 5 10.184V10C5 6.206 8.206 3 12 3C15.794 3 19 6.206 19 10V10.191C17.826 10.626 17 11.795 17 13.222V16.779C17 17.316 17.128 17.81 17.335 18.251L15.586 20H14.722C14.375 19.405 13.737 19 13 19H11C9.897 19 9 19.897 9 21C9 22.103 9.897 23 11 23H13C13.737 23 14.375 22.595 14.722 22H16C16.266 22 16.52 21.895 16.707 21.707L18.721 19.693C19.108 19.885 19.538 20 20 20C21.683 20 23 18.585 23 16.778V13.221C23 11.795 22.174 10.625 21 10.19V10.191Z" fill="#17191A"/>
</svg>
