<svg width="24" height="24" viewBox="0 0 24 24" fill="none" xmlns="http://www.w3.org/2000/svg">
<path d="M12 1.25C16.7872 1.25 20.75 5.21279 20.75 10V10.3574C21.9507 10.7117 22.7499 11.8993 22.75 13.2217V16.7783C22.7498 18.3601 21.6065 19.75 20 19.75C19.5061 19.75 19.0565 19.6176 18.6699 19.3896L16.5303 21.5303C16.3896 21.6708 16.1988 21.75 16 21.75H14.5791C14.298 22.3407 13.6977 22.75 13 22.75H11C10.0335 22.75 9.25 21.9665 9.25 21C9.25 20.0335 10.0335 19.25 11 19.25H13C13.6977 19.25 14.298 19.6593 14.5791 20.25H15.6895L17.6357 18.3027C17.3894 17.8505 17.2501 17.3265 17.25 16.7783V13.2217C17.2501 11.8993 18.0493 10.7117 19.25 10.3574V10C19.25 6.04121 15.9588 2.75 12 2.75C8.04121 2.75 4.75 6.04121 4.75 10V10.3564C5.90386 10.6832 6.75 11.7415 6.75 13V17C6.75 18.5188 5.51878 19.75 4 19.75C2.48122 19.75 1.25 18.5188 1.25 17V13C1.25 11.7415 2.09614 10.6832 3.25 10.3564V10C3.25 5.21279 7.21279 1.25 12 1.25ZM11 20.75C10.8619 20.75 10.75 20.8619 10.75 21C10.75 21.1381 10.8619 21.25 11 21.25H13C13.1381 21.25 13.25 21.1381 13.25 21C13.2498 20.8621 13.138 20.75 13 20.75H11ZM4 11.75C3.30964 11.75 2.75 12.3096 2.75 13V17C2.75 17.6904 3.30964 18.25 4 18.25C4.69036 18.25 5.25 17.6904 5.25 17V13C5.25 12.3096 4.69036 11.75 4 11.75ZM20 11.75C19.3667 11.75 18.7501 12.3158 18.75 13.2217V16.7783C18.7501 17.23 18.9035 17.597 19.1357 17.8516C19.1379 17.8537 19.1405 17.8553 19.1426 17.8574C19.1453 17.8601 19.1477 17.8635 19.1504 17.8662C19.3823 18.1127 19.6888 18.25 20 18.25C20.6333 18.25 21.2499 17.6842 21.25 16.7783V13.2217C21.2499 12.3158 20.6333 11.75 20 11.75ZM9.5498 13.9004C9.88107 13.6519 10.351 13.7187 10.5996 14.0498C10.6018 14.0525 10.6054 14.0558 10.6094 14.0605C10.6228 14.0765 10.6453 14.1038 10.6777 14.1377C10.7433 14.2061 10.8436 14.2997 10.9727 14.3936C11.2336 14.5832 11.5818 14.75 12 14.75C12.4182 14.75 12.7664 14.5832 13.0273 14.3936C13.1564 14.2997 13.2567 14.2061 13.3223 14.1377C13.3547 14.1038 13.3772 14.0765 13.3906 14.0605L13.4004 14.0498L13.4492 13.9912C13.7069 13.7116 14.1395 13.6674 14.4502 13.9004C14.7607 14.1335 14.839 14.5612 14.6426 14.8867L14.5996 14.9502L14.5967 14.9541C14.5953 14.9559 14.5935 14.9587 14.5918 14.9609C14.5884 14.9653 14.584 14.9704 14.5791 14.9766C14.5691 14.9892 14.5563 15.006 14.54 15.0254C14.5075 15.0641 14.4617 15.115 14.4043 15.1748C14.2902 15.2939 14.1248 15.4503 13.9102 15.6064C13.4836 15.9167 12.8316 16.25 12 16.25C11.1684 16.25 10.5164 15.9167 10.0898 15.6064C9.87525 15.4503 9.7098 15.2939 9.5957 15.1748C9.53835 15.115 9.49247 15.0641 9.45996 15.0254C9.44368 15.006 9.43093 14.9892 9.4209 14.9766C9.41603 14.9704 9.4116 14.9653 9.4082 14.9609C9.40648 14.9587 9.40465 14.9559 9.40332 14.9541L9.40039 14.9512L9.35742 14.8867C9.16097 14.5612 9.23927 14.1335 9.5498 13.9004ZM9 10C9.55228 10 10 10.4477 10 11C10 11.5523 9.55228 12 9 12C8.44772 12 8 11.5523 8 11C8 10.4477 8.44772 10 9 10ZM15 10C15.5523 10 16 10.4477 16 11C16 11.5523 15.5523 12 15 12C14.4477 12 14 11.5523 14 11C14 10.4477 14.4477 10 15 10Z" fill="#17191A"/>
</svg>
