<svg width="24" height="24" viewBox="0 0 24 24" fill="none" xmlns="http://www.w3.org/2000/svg">
<path fill-rule="evenodd" clip-rule="evenodd" d="M7.33129 19.4474C8.47791 19.9356 10.1226 20.25 12 20.25C13.8774 20.25 15.5221 19.9356 16.6687 19.4474C17.2431 19.2029 17.6573 18.9297 17.9174 18.6626C18.1725 18.4007 18.25 18.1789 18.25 18H19.75C19.75 18.6711 19.44 19.2493 18.9919 19.7092C18.549 20.164 17.9444 20.5346 17.2563 20.8276C15.8779 21.4144 14.0226 21.75 12 21.75C9.97743 21.75 8.12209 21.4144 6.74371 20.8276C6.05555 20.5346 5.45101 20.164 5.00805 19.7092C4.56001 19.2493 4.25 18.6711 4.25 18H5.75C5.75 18.1789 5.82749 18.4007 6.08257 18.6626C6.34274 18.9297 6.75695 19.2029 7.33129 19.4474Z" fill="#17191A"/>
<path fill-rule="evenodd" clip-rule="evenodd" d="M6.08391 5.35909C5.82276 5.6237 5.75 5.83941 5.75 6C5.75 6.16059 5.82276 6.3763 6.08391 6.64091C6.34823 6.90874 6.7679 7.18434 7.34569 7.43196C8.49861 7.92607 10.1436 8.25 12 8.25C13.8564 8.25 15.5014 7.92607 16.6543 7.43196C17.2321 7.18434 17.6518 6.90874 17.9161 6.64091C18.1772 6.3763 18.25 6.16059 18.25 6C18.25 5.83941 18.1772 5.6237 17.9161 5.35909C17.6518 5.09126 17.2321 4.81566 16.6543 4.56804C15.5014 4.07393 13.8564 3.75 12 3.75C10.1436 3.75 8.49861 4.07393 7.34569 4.56804C6.7679 4.81566 6.34823 5.09126 6.08391 5.35909ZM6.75481 3.18932C8.13539 2.59764 9.99037 2.25 12 2.25C14.0096 2.25 15.8646 2.59764 17.2452 3.18932C17.9341 3.48459 18.5396 3.85544 18.9837 4.30544C19.431 4.75866 19.75 5.33216 19.75 6C19.75 6.66784 19.431 7.24134 18.9837 7.69456C18.5396 8.14456 17.9341 8.51541 17.2452 8.81068C15.8646 9.40236 14.0096 9.75 12 9.75C9.99037 9.75 8.13539 9.40236 6.75481 8.81068C6.06586 8.51541 5.4604 8.14456 5.01628 7.69456C4.56899 7.24134 4.25 6.66784 4.25 6C4.25 5.33216 4.56899 4.75866 5.01628 4.30544C5.4604 3.85544 6.06586 3.48459 6.75481 3.18932Z" fill="#17191A"/>
<path fill-rule="evenodd" clip-rule="evenodd" d="M4.25 18V6H5.75V18H4.25Z" fill="#17191A"/>
<path fill-rule="evenodd" clip-rule="evenodd" d="M18.25 18V6H19.75V18H18.25Z" fill="#17191A"/>
</svg>
