<svg width="24" height="24" viewBox="0 0 24 24" fill="none" xmlns="http://www.w3.org/2000/svg">
<path d="M18 3H6C4.34315 3 3 4.34315 3 6V8C3 9.65685 4.34315 11 6 11H18C19.6569 11 21 9.65685 21 8V6C21 4.34315 19.6569 3 18 3Z" fill="#17191A"/>
<path d="M9 13H6C4.34315 13 3 14.3431 3 16V18C3 19.6569 4.34315 21 6 21H9C10.6569 21 12 19.6569 12 18V16C12 14.3431 10.6569 13 9 13Z" fill="#17191A"/>
<path d="M18 13H17C15.3431 13 14 14.3431 14 16V18C14 19.6569 15.3431 21 17 21H18C19.6569 21 21 19.6569 21 18V16C21 14.3431 19.6569 13 18 13Z" fill="#17191A"/>
</svg>
