<svg width="24" height="24" viewBox="0 0 24 24" fill="none" xmlns="http://www.w3.org/2000/svg">
<path fill-rule="evenodd" clip-rule="evenodd" d="M6 4.75C5.30964 4.75 4.75 5.30964 4.75 6V8C4.75 8.69036 5.30964 9.25 6 9.25H18C18.6904 9.25 19.25 8.69036 19.25 8V6C19.25 5.30964 18.6904 4.75 18 4.75H6ZM3.25 6C3.25 4.48122 4.48122 3.25 6 3.25H18C19.5188 3.25 20.75 4.48122 20.75 6V8C20.75 9.51878 19.5188 10.75 18 10.75H6C4.48122 10.75 3.25 9.51878 3.25 8V6ZM6 14.75C5.30964 14.75 4.75 15.3096 4.75 16V18C4.75 18.6904 5.30964 19.25 6 19.25H9C9.69036 19.25 10.25 18.6904 10.25 18V16C10.25 15.3096 9.69036 14.75 9 14.75H6ZM3.25 16C3.25 14.4812 4.48122 13.25 6 13.25H9C10.5188 13.25 11.75 14.4812 11.75 16V18C11.75 19.5188 10.5188 20.75 9 20.75H6C4.48122 20.75 3.25 19.5188 3.25 18V16ZM17 14.75C16.3096 14.75 15.75 15.3096 15.75 16V18C15.75 18.6904 16.3096 19.25 17 19.25H18C18.6904 19.25 19.25 18.6904 19.25 18V16C19.25 15.3096 18.6904 14.75 18 14.75H17ZM14.25 16C14.25 14.4812 15.4812 13.25 17 13.25H18C19.5188 13.25 20.75 14.4812 20.75 16V18C20.75 19.5188 19.5188 20.75 18 20.75H17C15.4812 20.75 14.25 19.5188 14.25 18V16Z" fill="#17191A"/>
</svg>
