<svg width="24" height="24" viewBox="0 0 24 24" fill="none" xmlns="http://www.w3.org/2000/svg">
<path d="M22 10.7004H19.07C19.994 9.35239 20.5 7.75839 20.5 6.10039C20.5 5.54839 20.053 5.10039 19.5 5.10039H17.326C17.764 4.26439 18 3.33839 18 2.40039C18 1.84839 17.553 1.40039 17 1.40039H7C6.448 1.40039 6 1.84839 6 2.40039C6 3.33839 6.236 4.26439 6.674 5.10039H4.5C3.948 5.10039 3.5 5.54839 3.5 6.10039C3.5 7.75039 4.009 9.34539 4.938 10.7004H2C1.448 10.7004 1 11.1484 1 11.7004C1 17.6554 5.935 22.5004 12 22.5004C18.065 22.5004 23 17.6554 23 11.7004C23 11.1484 22.553 10.7004 22 10.7004Z" fill="#17191A"/>
</svg>
