<svg width="24" height="24" viewBox="0 0 24 24" fill="none" xmlns="http://www.w3.org/2000/svg">
<path d="M19.0766 12.4546C18.8006 12.2886 18.5016 12.1376 18.1806 11.9996C18.5016 11.8616 18.8006 11.7106 19.0766 11.5446C20.5746 10.6456 21.3996 9.31561 21.3996 7.79961C21.3996 5.12661 18.8726 2.59961 16.1996 2.59961C14.6826 2.59961 13.3526 3.42461 12.4546 4.92261C12.2886 5.19861 12.1376 5.49761 11.9996 5.81861C11.8616 5.49761 11.7106 5.19861 11.5446 4.92261C10.6456 3.42461 9.31561 2.59961 7.79961 2.59961C5.12661 2.59961 2.59961 5.12661 2.59961 7.79961C2.59961 8.84361 3.00761 10.8126 5.80661 12.0056C5.49061 12.1416 5.19561 12.2916 4.92261 12.4556C3.42461 13.3536 2.59961 14.6846 2.59961 16.2006C2.59961 18.8736 5.12661 21.4006 7.79961 21.4006C9.31661 21.4006 10.6456 20.5756 11.5446 19.0776C11.7086 18.8056 11.8576 18.5106 11.9946 18.1936C13.1876 20.9926 15.1566 21.4006 16.2006 21.4006C18.8736 21.4006 21.4006 18.8736 21.4006 16.2006C21.4006 14.6836 20.5756 13.3536 19.0776 12.4556L19.0766 12.4546Z" fill="#17191A"/>
</svg>
