<svg width="24" height="24" viewBox="0 0 24 24" fill="none" xmlns="http://www.w3.org/2000/svg">
<path fill-rule="evenodd" clip-rule="evenodd" d="M9.26999 7.28611C8.23245 6.34859 7.22505 5.77869 6.29694 5.51215C4.70879 5.05605 3.2606 5.49542 2.6001 6.63713C1.93693 7.78347 2.2897 9.25197 3.49555 10.3831C4.18129 11.0264 5.15651 11.5882 6.45042 12.0002C5.15651 12.4122 4.18129 12.974 3.49555 13.6173C2.2897 14.7484 1.93693 16.2169 2.6001 17.3633C3.2606 18.505 4.70879 18.9443 6.29694 18.4882C7.19852 18.2293 8.17492 17.6841 9.18109 16.7938C8.90385 18.1242 8.91804 19.253 9.14844 20.1704C9.55144 21.7751 10.6651 22.8002 11.9868 22.8002C13.3111 22.8002 14.4189 21.7715 14.8079 20.1641C15.0342 19.2294 15.0341 18.0761 14.7286 16.7143C15.7661 17.6518 16.7735 18.2217 17.7016 18.4882C19.2898 18.9443 20.738 18.505 21.3985 17.3633C22.0617 16.2169 21.7089 14.7484 20.503 13.6173C19.8173 12.974 18.8421 12.4122 17.5482 12.0002C18.8421 11.5882 19.8173 11.0264 20.503 10.3831C21.7089 9.25197 22.0617 7.78347 21.3985 6.63713C20.738 5.49542 19.2898 5.05605 17.7016 5.51215C16.8001 5.77107 15.8237 6.31625 14.8175 7.2066C15.0947 5.87619 15.0805 4.74744 14.8501 3.83002C14.4471 2.22533 13.3334 1.2002 12.0118 1.2002C10.6875 1.2002 9.5797 2.22892 9.19065 3.83626C8.96442 4.77094 8.96452 5.92427 9.26999 7.28611ZM12.5735 9.31023C13.5699 6.95064 13.6625 5.25932 13.3953 4.19537C13.252 3.62471 13.0098 3.24666 12.761 3.01829C12.5142 2.7917 12.2505 2.7002 12.0118 2.7002C11.7734 2.7002 11.5123 2.79144 11.2696 3.01617C11.0247 3.24287 10.7865 3.61919 10.6486 4.18913C10.3917 5.2505 10.4986 6.93841 11.5123 9.29317C11.6704 9.26493 11.8331 9.2502 11.9993 9.2502C12.1962 9.2502 12.3883 9.2709 12.5735 9.31023ZM14.0914 10.2153C14.309 10.4701 14.4808 10.765 14.5942 11.0875C17.1514 10.7867 18.6776 10.0389 19.4768 9.28913C19.9066 8.88594 20.1159 8.49385 20.1915 8.17246C20.2663 7.85436 20.2161 7.5888 20.1001 7.38826C19.9838 7.18725 19.7757 7.00741 19.4561 6.90892C19.1339 6.80961 18.684 6.79067 18.1157 6.95387C17.0585 7.25747 15.6387 8.18316 14.0914 10.2153ZM14.5942 12.9129C14.4808 13.2354 14.309 13.5303 14.0914 13.785C15.6387 15.8172 17.0585 16.7429 18.1157 17.0465C18.684 17.2097 19.1339 17.1908 19.4561 17.0915C19.7757 16.993 19.9838 16.8131 20.1001 16.6121C20.2161 16.4116 20.2663 16.146 20.1915 15.8279C20.1159 15.5065 19.9066 15.1144 19.4768 14.7113C18.6776 13.9615 17.1514 13.2137 14.5942 12.9129ZM12.4862 14.7072C12.3282 14.7355 12.1655 14.7502 11.9993 14.7502C11.8024 14.7502 11.6103 14.7295 11.4251 14.6902C10.4287 17.0498 10.3361 18.7411 10.6033 19.805C10.7466 20.3757 10.9888 20.7537 11.2376 20.9821C11.4844 21.2087 11.7481 21.3002 11.9868 21.3002C12.2252 21.3002 12.4863 21.2089 12.729 20.9842C12.9739 20.7575 13.2121 20.3812 13.35 19.8113C13.6069 18.7499 13.4999 17.062 12.4862 14.7072ZM9.90714 13.785C9.68962 13.5303 9.5178 13.2354 9.40439 12.9129C6.84723 13.2137 5.32102 13.9615 4.52179 14.7113C4.09198 15.1144 3.88269 15.5065 3.80711 15.8279C3.73231 16.146 3.78247 16.4116 3.89848 16.6121C4.01477 16.8131 4.2229 16.993 4.54247 17.0915C4.86467 17.1908 5.31461 17.2097 5.8829 17.0465C6.94004 16.7429 8.35992 15.8172 9.90714 13.785ZM9.40439 11.0875C6.84723 10.7867 5.32102 10.0389 4.52179 9.28913C4.09198 8.88594 3.88269 8.49385 3.80711 8.17246C3.73231 7.85436 3.78247 7.5888 3.89848 7.38826C4.01477 7.18725 4.2229 7.00741 4.54247 6.90892C4.86467 6.80961 5.31461 6.79067 5.8829 6.95387C6.94004 7.25747 8.35992 8.18316 9.90714 10.2153C9.68962 10.4701 9.5178 10.765 9.40439 11.0875ZM11.9993 10.7502C11.3089 10.7502 10.7493 11.3098 10.7493 12.0002C10.7493 12.6906 11.3089 13.2502 11.9993 13.2502C12.6896 13.2502 13.2493 12.6906 13.2493 12.0002C13.2493 11.3098 12.6896 10.7502 11.9993 10.7502Z" fill="#17191A"/>
</svg>
