<svg width="24" height="24" viewBox="0 0 24 24" fill="none" xmlns="http://www.w3.org/2000/svg">
<path fill-rule="evenodd" clip-rule="evenodd" d="M12.0009 8.18374C10.2101 5.69171 8.48741 4.06782 7.01006 3.16205C6.18804 2.65807 5.40779 2.35554 4.71075 2.27705C4.0126 2.19844 3.32301 2.34207 2.83303 2.83205C2.34304 3.32203 2.19941 4.01162 2.27803 4.70978C2.35651 5.40681 2.65904 6.18706 3.16303 7.00908C4.06879 8.48644 5.69269 10.2092 8.18471 11.9999C5.69269 13.7906 4.06879 15.5133 3.16303 16.9907C2.65904 17.8127 2.35651 18.5929 2.27803 19.29C2.19941 19.9881 2.34304 20.6777 2.83303 21.1677C3.32301 21.6577 4.0126 21.8013 4.71075 21.7227C5.40779 21.6442 6.18804 21.3417 7.01006 20.8377C8.48741 19.9319 10.2101 18.308 12.0009 15.816C13.7916 18.308 15.5143 19.9319 16.9917 20.8377C17.8137 21.3417 18.5939 21.6442 19.291 21.7227C19.9891 21.8013 20.6787 21.6577 21.1687 21.1677C21.6587 20.6777 21.8023 19.9881 21.7237 19.29C21.6452 18.5929 21.3427 17.8127 20.8387 16.9907C19.9329 15.5133 18.309 13.7906 15.817 11.9999C18.309 10.2092 19.9329 8.48644 20.8387 7.00908C21.3427 6.18706 21.6452 5.40681 21.7237 4.70978C21.8023 4.01162 21.6587 3.32203 21.1687 2.83205C20.6787 2.34207 19.9891 2.19844 19.291 2.27705C18.5939 2.35554 17.8137 2.65807 16.9917 3.16205C15.5143 4.06782 13.7916 5.69171 12.0009 8.18374ZM4.44181 6.22505C5.30325 7.63011 7.02414 9.43917 9.9181 11.3767C10.126 11.5159 10.2509 11.7496 10.2509 11.9999C10.2509 12.2501 10.126 12.4839 9.9181 12.6231C7.02414 14.5606 5.30325 16.3697 4.44181 17.7747C4.00986 18.4792 3.81473 19.0482 3.76861 19.4578C3.72261 19.8663 3.82742 20.0408 3.89369 20.107C3.95995 20.1733 4.13443 20.2781 4.54291 20.2321C4.95252 20.186 5.52149 19.9909 6.22603 19.5589C7.63108 18.6975 9.44015 16.9766 11.3776 14.0826C11.5169 13.8747 11.7506 13.7499 12.0009 13.7499C12.2511 13.7499 12.4849 13.8747 12.6241 14.0826C14.5616 16.9766 16.3706 18.6975 17.7757 19.5589C18.4802 19.9909 19.0492 20.186 19.4588 20.2321C19.8673 20.2781 20.0418 20.1733 20.108 20.107C20.1743 20.0408 20.2791 19.8663 20.2331 19.4578C20.187 19.0482 19.9919 18.4792 19.5599 17.7747C18.6985 16.3697 16.9776 14.5606 14.0836 12.6231C13.8757 12.4839 13.7509 12.2501 13.7509 11.9999C13.7509 11.7496 13.8757 11.5159 14.0836 11.3767C16.9776 9.43917 18.6985 7.63011 19.5599 6.22505C19.9919 5.52051 20.187 4.95154 20.2331 4.54194C20.2791 4.13345 20.1743 3.95898 20.108 3.89271C20.0418 3.82644 19.8673 3.72164 19.4588 3.76763C19.0492 3.81375 18.4802 4.00888 17.7757 4.44084C16.3706 5.30228 14.5616 7.02316 12.6241 9.91712C12.4849 10.1251 12.2511 10.2499 12.0009 10.2499C11.7506 10.2499 11.5169 10.1251 11.3776 9.91712C9.44015 7.02316 7.63108 5.30228 6.22603 4.44084C5.52149 4.00888 4.95252 3.81375 4.54291 3.76763C4.13443 3.72164 3.95995 3.82644 3.89369 3.89271C3.82742 3.95898 3.72261 4.13345 3.76861 4.54194C3.81473 4.95154 4.00986 5.52051 4.44181 6.22505Z" fill="#17191A"/>
</svg>
