<svg width="24" height="24" viewBox="0 0 24 24" fill="none" xmlns="http://www.w3.org/2000/svg">
<path fill-rule="evenodd" clip-rule="evenodd" d="M12.005 3.88948C15.3084 1.73157 18.544 1.78555 20.4037 3.63053C22.2704 5.48245 22.3172 8.70312 20.1115 12.0051C22.2694 15.3084 22.2154 18.544 20.3704 20.4037C18.5185 22.2704 15.2978 22.3171 11.9959 20.1115C8.69253 22.2694 5.45701 22.2154 3.59728 20.3704C1.7314 18.5193 1.68387 15.3008 3.88643 12.0004C1.68267 8.6964 1.73334 5.45696 3.59516 3.59514C5.45785 1.73245 8.69945 1.6826 12.005 3.88948ZM4.65582 4.6558C3.45046 5.86116 3.11924 8.4136 5.40704 11.5593L5.72787 12.0005L5.40704 12.4416C3.11775 15.5894 3.45263 18.114 4.65371 19.3055C5.86152 20.5038 8.41884 20.8303 11.5654 18.5895L12.0051 18.2764L12.4416 18.5939C15.5894 20.8832 18.114 20.5483 19.3056 19.3473C20.5038 18.1394 20.8303 15.5821 18.5896 12.4355L18.2765 11.9959L18.5939 11.5593C20.8832 8.41155 20.5484 5.88695 19.3473 4.69541C18.1395 3.49717 15.5821 3.17063 12.4355 5.41139L11.9959 5.72449L11.5594 5.40702C8.41363 3.11921 5.86118 3.45044 4.65582 4.6558Z" fill="#17191A"/>
</svg>
