<svg width="24" height="24" viewBox="0 0 24 24" fill="none" xmlns="http://www.w3.org/2000/svg">
<path d="M16.2435 12C20.9325 8.56 22.2885 5.54599 21.9405 3.799C21.7595 2.891 21.1095 2.24 20.2015 2.059C18.4475 1.713 15.4395 3.068 12.0005 7.756C8.5615 3.069 5.5495 1.712 3.7995 2.05999C2.8915 2.24099 2.2405 2.89199 2.0595 3.79999C1.7115 5.548 3.0675 8.561 7.7565 12.001C3.0675 15.441 1.7115 18.455 2.0595 20.202C2.2405 21.11 2.8915 21.761 3.7995 21.941C3.9705 21.975 4.1525 21.993 4.3465 21.993C6.1385 21.993 8.8965 20.475 12.0005 16.244C15.4395 20.932 18.4455 22.289 20.2015 21.941C21.1095 21.76 21.7605 21.11 21.9405 20.202C22.2885 18.455 20.9325 15.441 16.2435 12.001V12Z" fill="#17191A"/>
</svg>
