<svg width="24" height="24" viewBox="0 0 24 24" fill="none" xmlns="http://www.w3.org/2000/svg">
<path d="M22.135 11.009C14.46 9.96702 14.032 9.53902 12.991 1.86502C12.924 1.36902 12.501 0.999023 12 0.999023C11.499 0.999023 11.076 1.36902 11.009 1.86402C9.967 9.53802 9.539 9.96602 1.865 11.008C1.369 11.075 1 11.498 1 11.999C1 12.5 1.37 12.923 1.866 12.99C9.54 14.032 9.967 14.459 11.01 22.134C11.077 22.629 11.5 22.999 12.001 22.999C12.502 22.999 12.925 22.629 12.992 22.134C14.034 14.459 14.461 14.032 22.136 12.99C22.631 12.923 23.001 12.5 23.001 11.999C23.001 11.498 22.631 11.076 22.136 11.008L22.135 11.009Z" fill="#17191A"/>
</svg>
