<svg width="24" height="24" viewBox="0 0 24 24" fill="none" xmlns="http://www.w3.org/2000/svg">
<path d="M18.2861 12.0005C20.6501 11.0745 21.7431 9.63446 21.9421 8.32646C22.1391 7.02546 21.4491 5.81946 20.2221 5.32646C18.9841 4.82546 17.1781 5.02746 15.1781 6.58346C15.5361 4.06846 14.8091 2.39846 13.7561 1.57146C12.7051 0.746463 11.2991 0.749463 10.2561 1.58146C9.20906 2.41646 8.49606 4.10346 8.89306 6.64146C6.86206 5.03146 5.02606 4.82046 3.77406 5.32746C2.54806 5.82146 1.85706 7.02746 2.05506 8.32746C2.25306 9.63546 3.34806 11.0765 5.71206 12.0015C3.34806 12.9275 2.25406 14.3675 2.05506 15.6755C1.85706 16.9765 2.54806 18.1815 3.77406 18.6755C4.16006 18.8315 4.60206 18.9195 5.08706 18.9195C6.15806 18.9195 7.44406 18.4765 8.82006 17.4065C8.45706 19.9295 9.18606 21.6035 10.2401 22.4315C10.7631 22.8425 11.3751 23.0475 11.9861 23.0475C12.6021 23.0475 13.2171 22.8385 13.7411 22.4215C14.7891 21.5855 15.5021 19.8955 15.1021 17.3515C16.5071 18.4655 17.8201 18.9195 18.9101 18.9195C19.3951 18.9195 19.8371 18.8315 20.2221 18.6755C21.4491 18.1815 22.1391 16.9765 21.9421 15.6755C21.7431 14.3675 20.6491 12.9275 18.2861 12.0015V12.0005ZM10.9991 12.0005C10.9991 11.4495 11.4481 11.0005 11.9991 11.0005C12.5501 11.0005 12.9991 11.4495 12.9991 12.0005C12.9991 12.5515 12.5501 13.0005 11.9991 13.0005C11.4481 13.0005 10.9991 12.5515 10.9991 12.0005Z" fill="#17191A"/>
</svg>
