<svg width="24" height="24" viewBox="0 0 24 24" fill="none" xmlns="http://www.w3.org/2000/svg">
<path d="M12 1C5.935 1 1 5.935 1 12C1 18.065 5.935 23 12 23C18.065 23 23 18.065 23 12C23 5.935 18.065 1 12 1ZM12 21C7.038 21 3 16.963 3 12C3 7.037 7.038 3 12 3C16.962 3 21 7.038 21 12C21 16.962 16.963 21 12 21Z" fill="#17191A"/>
<path d="M12 4.5C7.864 4.5 4.5 7.864 4.5 12C4.5 16.136 7.864 19.5 12 19.5C16.136 19.5 19.5 16.136 19.5 12C19.5 7.864 16.136 4.5 12 4.5ZM12 17.5C8.967 17.5 6.5 15.032 6.5 12C6.5 8.968 8.967 6.5 12 6.5C15.033 6.5 17.5 8.967 17.5 12C17.5 15.033 15.032 17.5 12 17.5Z" fill="#17191A"/>
<path d="M12 8C9.757 8 8 9.757 8 12C8 14.243 9.757 16 12 16C14.243 16 16 14.243 16 12C16 9.757 14.243 8 12 8ZM12 14C10.86 14 10 13.141 10 12C10 10.859 10.86 10 12 10C13.14 10 14 10.86 14 12C14 13.14 13.141 14 12 14Z" fill="#17191A"/>
</svg>
