<svg width="24" height="24" viewBox="0 0 24 24" fill="none" xmlns="http://www.w3.org/2000/svg">
<path d="M22.363 11.068C16.718 8.86802 15.132 7.28102 12.931 1.63602C12.782 1.25202 12.411 0.999023 11.999 0.999023C11.587 0.999023 11.217 1.25202 11.067 1.63602C8.86705 7.28102 7.28005 8.86702 1.63505 11.068C1.25105 11.217 0.998047 11.588 0.998047 12C0.998047 12.412 1.25105 12.782 1.63505 12.932C7.28005 15.132 8.86605 16.719 11.067 22.364C11.216 22.748 11.587 23.001 11.999 23.001C12.411 23.001 12.781 22.748 12.931 22.364C15.131 16.719 16.718 15.133 22.363 12.932C22.747 12.783 23 12.412 23 12C23 11.588 22.747 11.218 22.363 11.068Z" fill="#17191A"/>
</svg>
