<svg width="24" height="24" viewBox="0 0 24 24" fill="none" xmlns="http://www.w3.org/2000/svg">
<path fill-rule="evenodd" clip-rule="evenodd" d="M12 1.25C12.3752 1.25 12.6927 1.52728 12.7432 1.89907C13.0184 3.92544 13.2688 5.44426 13.6079 6.61655C13.9444 7.77952 14.3523 8.54162 14.9053 9.09467C15.4584 9.64772 16.2205 10.0556 17.3835 10.3921C18.5557 10.7312 20.0746 10.9816 22.1009 11.2568C22.4727 11.3073 22.75 11.6248 22.75 12C22.75 12.3752 22.4727 12.6927 22.1009 12.7432C20.0746 13.0184 18.5557 13.2688 17.3835 13.6079C16.2205 13.9444 15.4584 14.3523 14.9053 14.9053C14.3523 15.4584 13.9444 16.2205 13.6079 17.3835C13.2688 18.5557 13.0184 20.0746 12.7432 22.1009C12.6927 22.4727 12.3752 22.75 12 22.75C11.6248 22.75 11.3073 22.4727 11.2568 22.1009C10.9816 20.0746 10.7312 18.5557 10.3921 17.3835C10.0556 16.2205 9.64772 15.4584 9.09467 14.9053C8.54162 14.3523 7.77952 13.9444 6.61655 13.6079C5.44426 13.2688 3.92544 13.0184 1.89907 12.7432C1.52728 12.6927 1.25 12.3752 1.25 12C1.25 11.6248 1.52728 11.3073 1.89907 11.2568C3.92544 10.9816 5.44426 10.7312 6.61655 10.3921C7.77952 10.0556 8.54162 9.64772 9.09467 9.09467C9.64772 8.54162 10.0556 7.77952 10.3921 6.61655C10.7312 5.44426 10.9816 3.92544 11.2568 1.89907C11.3073 1.52728 11.6248 1.25 12 1.25ZM6.4054 12C6.62294 12.0533 6.83219 12.1088 7.03345 12.1671C8.33298 12.5431 9.35838 13.0477 10.1553 13.8447C10.9523 14.6416 11.4569 15.667 11.8329 16.9665C11.8912 17.1678 11.9467 17.3771 12 17.5946C12.0533 17.3771 12.1088 17.1678 12.1671 16.9665C12.5431 15.667 13.0477 14.6416 13.8447 13.8447C14.6416 13.0477 15.667 12.5431 16.9665 12.1671C17.1678 12.1088 17.3771 12.0533 17.5946 12C17.3771 11.9467 17.1678 11.8912 16.9665 11.8329C15.667 11.4569 14.6416 10.9523 13.8447 10.1553C13.0477 9.35838 12.5431 8.33298 12.1671 7.03345C12.1088 6.83219 12.0533 6.62294 12 6.4054C11.9467 6.62294 11.8912 6.83219 11.8329 7.03345C11.4569 8.33298 10.9523 9.35838 10.1553 10.1553C9.35838 10.9523 8.33298 11.4569 7.03345 11.8329C6.83219 11.8912 6.62294 11.9467 6.4054 12Z" fill="#17191A"/>
</svg>
