<svg width="24" height="24" viewBox="0 0 24 24" fill="none" xmlns="http://www.w3.org/2000/svg">
<path d="M21.25 12C21.25 6.91421 17.0858 2.75 12 2.75C6.91421 2.75 2.75 6.91421 2.75 12C2.75 17.0858 6.91421 21.25 12 21.25C17.0858 21.25 21.25 17.0858 21.25 12ZM17.75 12C17.75 8.81421 15.1858 6.25 12 6.25C8.81421 6.25 6.25 8.81421 6.25 12C6.25 15.1858 8.81421 17.75 12 17.75C15.1858 17.75 17.75 15.1858 17.75 12ZM14.25 12C14.25 10.7142 13.2858 9.75 12 9.75C10.7142 9.75 9.75 10.7142 9.75 12C9.75 13.2858 10.7142 14.25 12 14.25C13.2858 14.25 14.25 13.2858 14.25 12ZM15.75 12C15.75 14.1142 14.1142 15.75 12 15.75C9.88579 15.75 8.25 14.1142 8.25 12C8.25 9.88579 9.88579 8.25 12 8.25C14.1142 8.25 15.75 9.88579 15.75 12ZM19.25 12C19.25 16.0142 16.0142 19.25 12 19.25C7.98579 19.25 4.75 16.0142 4.75 12C4.75 7.98579 7.98579 4.75 12 4.75C16.0142 4.75 19.25 7.98579 19.25 12ZM22.75 12C22.75 17.9142 17.9142 22.75 12 22.75C6.08579 22.75 1.25 17.9142 1.25 12C1.25 6.08579 6.08579 1.25 12 1.25C17.9142 1.25 22.75 6.08579 22.75 12Z" fill="#17191A"/>
</svg>
