<svg width="24" height="24" viewBox="0 0 24 24" fill="none" xmlns="http://www.w3.org/2000/svg">
<path d="M21.1624 2.80767C19.3164 0.964665 15.6164 2.27567 11.9704 4.91367C8.32439 2.27467 4.62339 0.962665 2.77739 2.80767C0.932392 4.65267 2.24439 8.35367 4.88339 12.0007C2.24439 15.6477 0.933392 19.3487 2.77739 21.1927C3.37239 21.7887 4.16139 22.0547 5.07939 22.0547C7.00539 22.0547 9.50039 20.8747 11.9704 19.0877C14.4394 20.8747 16.9344 22.0547 18.8614 22.0547C19.7784 22.0547 20.5684 21.7867 21.1634 21.1927C23.0074 19.3477 21.6954 15.6467 19.0574 12.0007C21.6964 8.35367 23.0084 4.65367 21.1634 2.80867L21.1624 2.80767ZM19.7484 4.22167C20.4384 4.91167 19.8394 7.32867 17.7704 10.3537C17.1484 9.60967 16.4854 8.87867 15.7884 8.18167C15.0914 7.48467 14.3604 6.82267 13.6174 6.20067C16.6424 4.13267 19.0564 3.53367 19.7484 4.22167ZM16.5404 11.9997C15.9074 12.7827 15.1904 13.5877 14.3744 14.4037C13.5584 15.2197 12.7534 15.9357 11.9704 16.5697C11.1874 15.9367 10.3814 15.2197 9.56539 14.4037C8.74939 13.5877 8.03239 12.7817 7.39939 11.9997C8.03239 11.2167 8.74939 10.4117 9.56539 9.59566C10.3794 8.78166 11.1824 8.06767 11.9634 7.43567C12.7494 8.07067 13.5544 8.77666 14.3744 9.59566C15.1904 10.4117 15.9074 11.2177 16.5404 11.9997ZM4.19139 4.22167C4.37339 4.03967 4.67539 3.94667 5.07739 3.94667C6.19739 3.94667 8.09539 4.67767 10.3224 6.20067C9.57839 6.82267 8.84839 7.48467 8.15139 8.18167C7.45439 8.87867 6.79239 9.60967 6.16939 10.3537C4.10039 7.32867 3.50139 4.91267 4.19139 4.22167ZM4.19139 19.7777C3.50139 19.0877 4.10039 16.6717 6.16939 13.6457C6.79139 14.3897 7.45439 15.1207 8.15139 15.8177C8.84839 16.5147 9.57739 17.1797 10.3204 17.8017C7.29639 19.8687 4.88239 20.4667 4.19139 19.7777ZM19.7484 19.7777C19.0594 20.4657 16.6444 19.8677 13.6204 17.8007C14.3634 17.1787 15.0924 16.5137 15.7884 15.8177C16.4854 15.1207 17.1474 14.3897 17.7704 13.6457C19.8394 16.6707 20.4384 19.0867 19.7484 19.7777Z" fill="#17191A"/>
</svg>
