<svg width="24" height="24" viewBox="0 0 24 24" fill="none" xmlns="http://www.w3.org/2000/svg">
<path fill-rule="evenodd" clip-rule="evenodd" d="M6.25 2.40039C6.25 1.98618 6.58579 1.65039 7 1.65039H17C17.4142 1.65039 17.75 1.98618 17.75 2.40039C17.75 3.50206 17.4247 4.50429 16.8989 5.35039H19.5C19.9142 5.35039 20.25 5.68618 20.25 6.10039C20.25 7.95337 19.6049 9.62623 18.5762 10.9504H22C22.4142 10.9504 22.75 11.2862 22.75 11.7004C22.75 17.5293 17.8994 22.2504 12 22.2504C6.10065 22.2504 1.25 17.5293 1.25 11.7004C1.25 11.2862 1.58579 10.9504 2 10.9504H5.42635C4.35713 9.57894 3.75 7.90241 3.75 6.10039C3.75 5.68618 4.08579 5.35039 4.5 5.35039H7.10113C6.57532 4.50429 6.25 3.50206 6.25 2.40039ZM7.82073 3.15039C8.00102 4.09579 8.51269 4.92279 9.20172 5.54292C9.43254 5.75066 9.51147 6.07916 9.40022 6.36909C9.28896 6.65901 9.01054 6.85039 8.7 6.85039H5.29385C5.49013 8.51652 6.33755 10.0186 7.67678 11.1214C7.92115 11.3227 8.01284 11.6557 7.90594 11.9537C7.79904 12.2516 7.51656 12.4504 7.2 12.4504H2.78168C3.17388 17.0752 7.15837 20.7504 12 20.7504C16.8416 20.7504 20.8261 17.0752 21.2183 12.4504H16.8C16.4825 12.4504 16.1994 12.2505 16.0932 11.9513C15.987 11.6521 16.0807 11.3185 16.3271 11.1183C17.5903 10.0919 18.5 8.58806 18.7059 6.85039H15.3C14.9895 6.85039 14.711 6.65901 14.5998 6.36909C14.4885 6.07916 14.5675 5.75066 14.7983 5.54292C15.4873 4.92279 15.999 4.09579 16.1793 3.15039H7.82073Z" fill="#17191A"/>
</svg>
