<svg width="24" height="24" viewBox="0 0 24 24" fill="none" xmlns="http://www.w3.org/2000/svg">
<path d="M18.5261 2.22238C19.4481 2.15673 20.3466 2.3438 20.987 2.9841C21.6275 3.6246 21.8145 4.52374 21.7487 5.44601C21.6828 6.37084 21.36 7.41966 20.8523 8.51535C20.3441 9.61194 19.6332 10.7938 18.7517 11.9997C19.6332 13.2056 20.3441 14.3875 20.8523 15.4841C21.3601 16.5799 21.6828 17.6295 21.7487 18.5544C21.8144 19.4765 21.6274 20.375 20.987 21.0154C20.3466 21.6557 19.4482 21.8427 18.5261 21.7771C17.6012 21.7111 16.5516 21.3884 15.4558 20.8806C14.3592 20.3724 13.1773 19.6615 11.9714 18.78C10.7655 19.6615 9.58362 20.3724 8.48703 20.8806C7.39134 21.3883 6.34252 21.7111 5.41769 21.7771C4.49542 21.8428 3.59628 21.6559 2.95578 21.0154C2.31548 20.375 2.12841 19.4765 2.19406 18.5544C2.26 17.6295 2.58371 16.5799 3.09152 15.4841C3.59969 14.3876 4.30976 13.2054 5.19113 11.9997C4.30976 10.794 3.59968 9.61182 3.09152 8.51535C2.58376 7.41966 2.26004 6.37085 2.19406 5.44601C2.12831 4.52374 2.31528 3.6246 2.95578 2.9841C3.59628 2.3436 4.49542 2.15663 5.41769 2.22238C6.34253 2.28837 7.39134 2.61208 8.48703 3.11984C9.5835 3.628 10.7657 4.33808 11.9714 5.21945C13.1771 4.33808 14.3593 3.62801 15.4558 3.11984C16.5516 2.61203 17.6012 2.28832 18.5261 2.22238ZM6.15012 13.2361C5.43856 14.2457 4.86647 15.2203 4.45187 16.115C3.98718 17.1177 3.73852 17.9825 3.69015 18.6609C3.64167 19.3415 3.79776 19.7362 4.01633 19.9548C4.23498 20.1735 4.63031 20.3295 5.31125 20.281C5.98949 20.2325 6.85365 19.9838 7.85617 19.5193C8.75075 19.1047 9.72454 18.5315 10.7341 17.82C9.92829 17.1608 9.12037 16.4319 8.3298 15.6413C7.53885 14.8504 6.80963 14.0423 6.15012 13.2361ZM17.7917 13.2361C17.1323 14.0421 16.4038 14.8505 15.613 15.6413C14.8222 16.4321 14.0138 17.1606 13.2077 17.82C14.2175 18.5318 15.1919 19.1046 16.0866 19.5193C17.0894 19.984 17.9542 20.2326 18.6325 20.281C19.3133 20.3295 19.7079 20.1734 19.9265 19.9548C20.1451 19.7362 20.3011 19.3417 20.2527 18.6609C20.2043 17.9825 19.9556 17.1177 19.4909 16.115C19.0763 15.2202 18.5034 14.2458 17.7917 13.2361ZM11.9714 7.10715C11.1143 7.78998 10.2452 8.56385 9.39035 9.41867C8.53553 10.2735 7.76166 11.1426 7.07883 11.9997C7.76166 12.8569 8.53553 13.7259 9.39035 14.5808C10.245 15.4354 11.1145 16.2086 11.9714 16.8913C12.8284 16.2086 13.6978 15.4355 14.5525 14.5808C15.4071 13.7261 16.1803 12.8567 16.863 11.9997C16.1803 11.1428 15.4071 10.2733 14.5525 9.41867C13.6976 8.56385 12.8285 7.78998 11.9714 7.10715ZM5.31125 3.71847C4.63031 3.66993 4.23498 3.826 4.01633 4.04465C3.79767 4.2633 3.64161 4.65863 3.69015 5.33957C3.7386 6.0178 3.9873 6.88198 4.45187 7.88449C4.86636 8.77891 5.43879 9.75305 6.15012 10.7624C6.80951 9.95641 7.53904 9.14889 8.3298 8.35812C9.12057 7.56736 9.92809 6.83783 10.7341 6.17844C9.72473 5.46711 8.75059 4.89468 7.85617 4.48019C6.85366 4.01562 5.98948 3.76692 5.31125 3.71847ZM18.6325 3.71847C17.9542 3.76684 17.0894 4.0155 16.0866 4.48019C15.192 4.89479 14.2173 5.46688 13.2077 6.17844C14.0139 6.83795 14.822 7.56717 15.613 8.35812C16.4036 9.14869 17.1325 9.95661 17.7917 10.7624C18.5032 9.75286 19.0764 8.77907 19.4909 7.88449C19.9555 6.88197 20.2042 6.01781 20.2527 5.33957C20.3012 4.65863 20.1451 4.2633 19.9265 4.04465C19.7078 3.82608 19.3132 3.66999 18.6325 3.71847Z" fill="#17191A"/>
</svg>
