<svg width="24" height="24" viewBox="0 0 24 24" fill="none" xmlns="http://www.w3.org/2000/svg">
<path fill-rule="evenodd" clip-rule="evenodd" d="M12.0005 6.51328C11.977 6.44516 11.9529 6.37808 11.9284 6.31203C11.4066 4.90711 10.6506 3.93617 9.72858 3.38298C7.84474 2.25268 5.70058 3.06381 4.38269 4.38171C3.06479 5.69961 2.25366 7.84376 3.38396 9.7276C3.93715 10.6496 4.90809 11.4056 6.31301 11.9274C6.37906 11.9519 6.44614 11.976 6.51426 11.9995C6.44614 12.0231 6.37906 12.0471 6.31301 12.0717C4.90809 12.5935 3.93715 13.3495 3.38396 14.2715C2.25366 16.1553 3.06479 18.2995 4.38269 19.6174C5.70058 20.9353 7.84474 21.7464 9.72858 20.6161C10.6506 20.0629 11.4066 19.092 11.9284 17.687C11.9529 17.621 11.977 17.5539 12.0005 17.4858C12.0241 17.5539 12.0481 17.621 12.0726 17.687C12.5945 19.092 13.3505 20.0629 14.2725 20.6161C16.1563 21.7464 18.3005 20.9353 19.6183 19.6174C20.9362 18.2995 21.7474 16.1553 20.6171 14.2715C20.0639 13.3495 19.0929 12.5935 17.688 12.0717C17.622 12.0471 17.5549 12.0231 17.4868 11.9995C17.5549 11.976 17.622 11.9519 17.688 11.9274C19.0929 11.4056 20.0639 10.6496 20.6171 9.7276C21.7474 7.84376 20.9362 5.69961 19.6183 4.38171C18.3005 3.06381 16.1563 2.25268 14.2725 3.38298C13.3505 3.93617 12.5945 4.90711 12.0726 6.31203C12.0481 6.37808 12.0241 6.44516 12.0005 6.51328ZM12.7615 11.2386C12.8181 9.31888 13.0895 7.88229 13.4788 6.83431C13.9167 5.65525 14.4896 5.00197 15.0442 4.66922C16.1135 4.02765 17.5131 4.39777 18.5577 5.44237C19.6023 6.48697 19.9724 7.88657 19.3308 8.95586C18.9981 9.51044 18.3448 10.0833 17.1657 10.5213C16.1178 10.9105 14.6812 11.182 12.7615 11.2386ZM12.7615 12.7605C14.6812 12.8171 16.1178 13.0886 17.1657 13.4778C18.3448 13.9157 18.9981 14.4886 19.3308 15.0432C19.9724 16.1125 19.6023 17.5121 18.5577 18.5567C17.5131 19.6013 16.1135 19.9714 15.0442 19.3299C14.4896 18.9971 13.9167 18.3438 13.4788 17.1648C13.0895 16.1168 12.8181 14.6802 12.7615 12.7605ZM11.2396 12.7605C11.183 14.6802 10.9115 16.1168 10.5223 17.1648C10.0843 18.3438 9.51142 18.9971 8.95683 19.3299C7.88755 19.9714 6.48795 19.6013 5.44335 18.5567C4.39874 17.5121 4.02863 16.1125 4.6702 15.0432C5.00295 14.4886 5.65623 13.9157 6.83529 13.4778C7.88327 13.0886 9.31986 12.8171 11.2396 12.7605ZM11.2396 11.2386C9.31986 11.182 7.88327 10.9105 6.83529 10.5213C5.65623 10.0833 5.00295 9.51044 4.6702 8.95586C4.02863 7.88657 4.39874 6.48697 5.44335 5.44237C6.48795 4.39777 7.88755 4.02765 8.95683 4.66922C9.51142 5.00197 10.0843 5.65525 10.5223 6.83431C10.9115 7.88229 11.183 9.31888 11.2396 11.2386Z" fill="#17191A"/>
</svg>
