<svg width="24" height="24" viewBox="0 0 24 24" fill="none" xmlns="http://www.w3.org/2000/svg">
<path fill-rule="evenodd" clip-rule="evenodd" d="M12 1.25C12.3091 1.25 12.5865 1.43962 12.6988 1.72759C13.8386 4.65144 14.818 6.45737 16.1803 7.81967C17.5426 9.18197 19.3486 10.1614 22.2724 11.3012C22.5604 11.4135 22.75 11.6909 22.75 12C22.75 12.3091 22.5604 12.5865 22.2724 12.6988C19.3486 13.8386 17.5426 14.818 16.1803 16.1803C14.818 17.5426 13.8386 19.3486 12.6988 22.2724C12.5865 22.5604 12.3091 22.75 12 22.75C11.6909 22.75 11.4135 22.5604 11.3012 22.2724C10.1614 19.3486 9.18197 17.5426 7.81967 16.1803C6.45737 14.818 4.65144 13.8386 1.72759 12.6988C1.43962 12.5865 1.25 12.3091 1.25 12C1.25 11.6909 1.43962 11.4135 1.72759 11.3012C4.65144 10.1614 6.45737 9.18197 7.81967 7.81967C9.18197 6.45737 10.1614 4.65144 11.3012 1.72759C11.4135 1.43962 11.6909 1.25 12 1.25ZM3.96959 12C6.05764 12.9162 7.61411 13.8535 8.88033 15.1197C10.1465 16.3859 11.0838 17.9424 12 20.0304C12.9162 17.9424 13.8535 16.3859 15.1197 15.1197C16.3859 13.8535 17.9424 12.9162 20.0304 12C17.9424 11.0838 16.3859 10.1465 15.1197 8.88033C13.8535 7.61411 12.9162 6.05764 12 3.96959C11.0838 6.05764 10.1465 7.61411 8.88033 8.88033C7.61411 10.1465 6.05764 11.0838 3.96959 12Z" fill="#17191A"/>
</svg>
