<svg width="24" height="24" viewBox="0 0 24 24" fill="none" xmlns="http://www.w3.org/2000/svg">
<path d="M22.684 11.131L21.448 8.659C20.936 7.636 19.908 7 18.764 7H18C18 5.346 16.654 4 15 4H4C2.346 4 1 5.346 1 7V16C1 16.868 1.388 17.671 2.023 18.232C2.144 19.776 3.425 21 5 21C6.302 21 7.402 20.161 7.816 19H14.185C14.599 20.161 15.699 21 17.001 21C18.655 21 20.001 19.654 20.001 18H21.001C22.104 18 23.001 17.103 23.001 16V12.472C23.001 12.01 22.891 11.546 22.684 11.131ZM5 19C4.449 19 4 18.552 4 18C4 17.448 4.449 17 5 17C5.551 17 6 17.448 6 18C6 18.552 5.551 19 5 19ZM17 19C16.448 19 16 18.552 16 18C16 17.448 16.448 17 17 17C17.552 17 18 17.448 18 18C18 18.552 17.552 19 17 19ZM21 16H19.22C18.89 15.634 18.474 15.353 18 15.184V9H18.764C19.145 9 19.488 9.212 19.659 9.553L20.895 12.025C20.964 12.163 21 12.318 21 12.472V16Z" fill="#17191A"/>
</svg>
