<svg width="24" height="24" viewBox="0 0 24 24" fill="none" xmlns="http://www.w3.org/2000/svg">
<path fill-rule="evenodd" clip-rule="evenodd" d="M6.25 18C6.25 17.5858 6.58579 17.25 7 17.25H15C15.4142 17.25 15.75 17.5858 15.75 18C15.75 18.4142 15.4142 18.75 15 18.75H7C6.58579 18.75 6.25 18.4142 6.25 18Z" fill="#17191A"/>
<path fill-rule="evenodd" clip-rule="evenodd" d="M4 5.75C3.31421 5.75 2.75 6.31421 2.75 7V16C2.75 16.4608 3.00642 16.8738 3.38514 17.0849C3.74695 17.2866 3.87677 17.7433 3.67511 18.1051C3.47345 18.467 3.01666 18.5968 2.65486 18.3951C1.81358 17.9262 1.25 17.0192 1.25 16V7C1.25 5.48579 2.48579 4.25 4 4.25H15C16.5142 4.25 17.75 5.48579 17.75 7V16C17.75 16.4142 17.4142 16.75 17 16.75C16.5858 16.75 16.25 16.4142 16.25 16V7C16.25 6.31421 15.6858 5.75 15 5.75H4Z" fill="#17191A"/>
<path fill-rule="evenodd" clip-rule="evenodd" d="M16.25 8C16.25 7.58579 16.5858 7.25 17 7.25H18.764C19.8063 7.25 20.7579 7.8387 21.2238 8.77059L22.4598 11.2426C22.651 11.6249 22.75 12.0458 22.75 12.472V16C22.75 16.9642 21.9642 17.75 21 17.75H18.73C18.3158 17.75 17.98 17.4142 17.98 17C17.98 16.5858 18.3158 16.25 18.73 16.25H21C21.1358 16.25 21.25 16.1358 21.25 16V12.472C21.25 12.2782 21.205 12.0871 21.1182 11.9134L19.8822 9.44141C19.6701 9.0173 19.2377 8.75 18.764 8.75H17.75V16C17.75 16.4142 17.4142 16.75 17 16.75C16.5858 16.75 16.25 16.4142 16.25 16V8Z" fill="#17191A"/>
<path fill-rule="evenodd" clip-rule="evenodd" d="M5 16.75C4.30964 16.75 3.75 17.3096 3.75 18C3.75 18.6904 4.30964 19.25 5 19.25C5.69036 19.25 6.25 18.6904 6.25 18C6.25 17.3096 5.69036 16.75 5 16.75ZM2.25 18C2.25 16.4812 3.48122 15.25 5 15.25C6.51878 15.25 7.75 16.4812 7.75 18C7.75 19.5188 6.51878 20.75 5 20.75C3.48122 20.75 2.25 19.5188 2.25 18Z" fill="#17191A"/>
<path fill-rule="evenodd" clip-rule="evenodd" d="M17 16.75C16.3096 16.75 15.75 17.3096 15.75 18C15.75 18.6904 16.3096 19.25 17 19.25C17.6904 19.25 18.25 18.6904 18.25 18C18.25 17.3096 17.6904 16.75 17 16.75ZM14.25 18C14.25 16.4812 15.4812 15.25 17 15.25C18.5188 15.25 19.75 16.4812 19.75 18C19.75 19.5188 18.5188 20.75 17 20.75C15.4812 20.75 14.25 19.5188 14.25 18Z" fill="#17191A"/>
</svg>
