<svg width="24" height="24" viewBox="0 0 24 24" fill="none" xmlns="http://www.w3.org/2000/svg">
<path d="M9.94701 11.3438C10.2096 11.1987 10.5388 11.2226 10.779 11.416L19.4704 18.416C19.718 18.6155 19.8124 18.9492 19.7068 19.249C19.601 19.549 19.3178 19.75 18.9997 19.75H1.61693C1.29886 19.75 1.01567 19.549 0.9099 19.249C0.804304 18.9492 0.898752 18.6155 1.14623 18.416L9.83861 11.416L9.94701 11.3438ZM3.74388 18.25H16.8728L10.3083 12.9619L3.74388 18.25Z" fill="#17191A"/>
<path d="M6.24993 5C6.24993 4.30964 5.69029 3.75 4.99993 3.75C4.30958 3.75 3.74993 4.30964 3.74993 5C3.74993 5.69036 4.30958 6.25 4.99993 6.25C5.69029 6.25 6.24993 5.69036 6.24993 5ZM7.74993 5C7.74993 6.51878 6.51871 7.75 4.99993 7.75C3.48115 7.75 2.24993 6.51878 2.24993 5C2.24993 3.48122 3.48115 2.25 4.99993 2.25C6.51871 2.25 7.74993 3.48122 7.74993 5Z" fill="#17191A"/>
<path d="M11.0165 12.2451C11.0164 12.2454 11.0169 12.2468 11.0165 12.248C11.0156 12.2507 11.0137 12.2553 11.0116 12.2617C11.0072 12.2751 11.0008 12.2964 10.9921 12.3242C10.9744 12.3805 10.9497 12.4643 10.9217 12.5674C10.8654 12.7755 10.7992 13.0551 10.7577 13.3516C10.7154 13.6534 10.7032 13.9411 10.7342 14.1748C10.7662 14.4148 10.8319 14.5133 10.8671 14.5469L11.0292 14.6689C11.1082 14.722 11.2143 14.7884 11.3514 14.8691C11.6393 15.0387 11.8847 15.1713 12.2479 15.3828C12.8631 15.741 13.6595 16.2337 14.0966 16.8291L14.1883 16.9756C14.3737 17.3215 14.3536 17.6925 14.2753 17.9746C14.1859 18.2963 14.003 18.5907 13.7997 18.8291C13.4166 19.2781 12.7618 19.7499 12.0341 19.75V18.25C12.0753 18.25 12.1674 18.2321 12.2997 18.1562C12.4276 18.0829 12.5563 17.976 12.6591 17.8555C12.7386 17.7621 12.7822 17.6786 12.8075 17.6211C12.5552 17.3405 12.0833 17.0224 11.493 16.6787C11.2194 16.5194 10.8362 16.3063 10.5897 16.1611C10.3946 16.0462 10.1818 15.9156 10.0028 15.7773L9.83679 15.6367C9.4514 15.272 9.30182 14.785 9.24694 14.3721C9.19109 13.9515 9.22026 13.5152 9.27233 13.1436C9.32517 12.7665 9.40652 12.4221 9.47351 12.1748C9.50718 12.0505 9.53773 11.9483 9.56042 11.876C9.57179 11.8397 9.58191 11.8107 9.58874 11.79C9.5921 11.7799 9.59451 11.7717 9.59655 11.7656C9.59758 11.7626 9.59882 11.7597 9.59948 11.7578V11.7559L9.60046 11.7549C9.60143 11.755 9.62644 11.763 10.3085 12L11.0165 12.2451Z" fill="#17191A"/>
<path d="M18.2499 19V6C18.2499 5.58579 18.5857 5.25 18.9999 5.25C19.4141 5.25 19.7499 5.58579 19.7499 6V19C19.7499 19.4142 19.414 19.75 18.9997 19.75C18.5855 19.75 18.2499 19.4142 18.2499 19Z" fill="#17191A"/>
<path d="M15.2499 9V8C15.2499 7.58579 15.5857 7.25 15.9999 7.25C16.4141 7.25 16.7499 7.58579 16.7499 8V9C16.7499 9.69079 17.3091 10.25 17.9999 10.25H18.9999C19.4141 10.25 19.7499 10.5858 19.7499 11C19.7499 11.4142 19.4141 11.75 18.9999 11.75H17.9999C16.4807 11.75 15.2499 10.5192 15.2499 9Z" fill="#17191A"/>
<path d="M21.2499 11V10C21.2499 9.58579 21.5857 9.25 21.9999 9.25C22.4141 9.25 22.7499 9.58579 22.7499 10V11C22.7499 12.5192 21.5191 13.75 19.9999 13.75H18.9999C18.5857 13.75 18.2499 13.4142 18.2499 13C18.2499 12.5858 18.5857 12.25 18.9999 12.25H19.9999C20.6907 12.25 21.2499 11.6908 21.2499 11Z" fill="#17191A"/>
<path d="M21.9999 18.25C22.4141 18.25 22.7499 18.5858 22.7499 19C22.7499 19.4142 22.4141 19.75 21.9999 19.75H1.99993C1.58572 19.75 1.24993 19.4142 1.24993 19C1.24993 18.5858 1.58572 18.25 1.99993 18.25H21.9999Z" fill="#17191A"/>
</svg>
