<svg width="24" height="24" viewBox="0 0 24 24" fill="none" xmlns="http://www.w3.org/2000/svg">
<path d="M4.99963 8C6.65363 8 7.99963 6.654 7.99963 5C7.99963 3.346 6.65363 2 4.99963 2C3.34563 2 1.99963 3.346 1.99963 5C1.99963 6.654 3.34563 8 4.99963 8ZM4.99963 4C5.55063 4 5.99963 4.449 5.99963 5C5.99963 5.551 5.55063 6 4.99963 6C4.44863 6 3.99963 5.551 3.99963 5C3.99963 4.449 4.44863 4 4.99963 4Z" fill="#17191A"/>
<path d="M22.9997 11V10C22.9997 9.448 22.5527 9 21.9997 9C21.4467 9 20.9997 9.448 20.9997 10V11C20.9997 11.551 20.5517 12 19.9997 12V6C19.9997 5.448 19.5527 5 18.9997 5C18.4467 5 17.9997 5.448 17.9997 6V10C17.4477 10 16.9997 9.551 16.9997 9V8C16.9997 7.448 16.5527 7 15.9997 7C15.4467 7 14.9997 7.448 14.9997 8V9C14.9997 10.654 16.3457 12 17.9997 12V16.911L10.9367 11.221C10.5707 10.926 10.0477 10.926 9.68168 11.221L0.989683 18.221C0.659683 18.488 0.532683 18.933 0.674683 19.333C0.815683 19.732 1.19368 20 1.61768 20H22.0007C22.5537 20 23.0007 19.553 23.0007 19C23.0007 18.447 22.5537 18 22.0007 18H20.0007V14C21.6547 14 22.9997 12.654 22.9997 11ZM4.45268 18L8.99868 14.339C9.06468 14.893 9.24868 15.425 9.66368 15.818C9.95168 16.089 10.3827 16.335 10.9287 16.644C11.4457 16.937 12.1207 17.32 12.4967 17.662C12.3697 17.819 12.1507 17.988 12.0337 18H4.45268Z" fill="#17191A"/>
</svg>
