<svg width="24" height="24" viewBox="0 0 24 24" fill="none" xmlns="http://www.w3.org/2000/svg">
<path fill-rule="evenodd" clip-rule="evenodd" d="M4.75 4.5C4.05964 4.5 3.5 5.05964 3.5 5.75V14.75C3.5 15.4404 4.05964 16 4.75 16H18.75C19.4404 16 20 15.4404 20 14.75V5.75C20 5.05964 19.4404 4.5 18.75 4.5H4.75ZM2 5.75C2 4.23122 3.23122 3 4.75 3H18.75C20.2688 3 21.5 4.23122 21.5 5.75V14.75C21.5 16.2688 20.2688 17.5 18.75 17.5H4.75C3.23122 17.5 2 16.2688 2 14.75V5.75Z" fill="#17191A"/>
<path fill-rule="evenodd" clip-rule="evenodd" d="M15.75 20.5H7.75V19H15.75V20.5Z" fill="#17191A"/>
<path fill-rule="evenodd" clip-rule="evenodd" d="M11 19.75V16.75H12.5V19.75H11Z" fill="#17191A"/>
</svg>
