<svg width="24" height="24" viewBox="0 0 24 24" fill="none" xmlns="http://www.w3.org/2000/svg">
<path d="M17.25 8.0752C17.25 6.794 16.6683 5.45426 15.6943 4.42969C14.7236 3.40879 13.4112 2.75 12 2.75C9.14373 2.75 6.75 5.38426 6.75 8.0752C6.75006 9.35314 7.36857 10.5349 8.46094 11.9004C9.00432 12.5796 9.6426 13.2782 10.3477 14.042C10.8721 14.6101 11.4313 15.2119 11.999 15.8545C12.5664 15.2107 13.1261 14.6055 13.6504 14.0332C14.3549 13.2641 14.9943 12.5583 15.5381 11.874C16.634 10.4949 17.2499 9.31391 17.25 8.0752ZM18.75 8.0752C18.7499 9.83629 17.8658 11.3556 16.7119 12.8076C16.1309 13.5388 15.4573 14.2811 14.7559 15.0469C14.0492 15.8183 13.3103 16.618 12.5713 17.4863C12.4288 17.6537 12.2198 17.75 12 17.75C11.7802 17.75 11.5712 17.6537 11.4287 17.4863C10.6906 16.6191 9.95233 15.8247 9.24609 15.0596C8.54506 14.3001 7.8706 13.5638 7.28906 12.8369C6.13167 11.3901 5.25006 9.87195 5.25 8.0752C5.25 4.61613 8.25627 1.25 12 1.25C13.8888 1.25 15.5769 2.12891 16.7812 3.39551C17.982 4.65839 18.75 6.35656 18.75 8.0752Z" fill="#17191A"/>
<path d="M13.0496 7.9998C13.0495 7.39412 12.6055 6.95 11.9998 6.95C11.3942 6.9501 10.9501 7.39418 10.95 7.9998C10.95 8.60553 11.3941 9.04951 11.9998 9.04961C12.6056 9.04961 13.0496 8.60559 13.0496 7.9998ZM14.5496 7.9998C14.5496 9.43402 13.434 10.5496 11.9998 10.5496C10.5657 10.5495 9.45 9.43395 9.45 7.9998C9.4501 6.56575 10.5658 5.4501 11.9998 5.45C13.434 5.45 14.5495 6.56569 14.5496 7.9998Z" fill="#17191A"/>
<path d="M10.21 14.25V15.75H5.54102L4.04102 20.25H19.959L18.459 15.75H13.79V14.25H19.541L22.041 21.75H1.95898L4.45898 14.25H10.21Z" fill="#17191A"/>
</svg>
