<svg width="24" height="24" viewBox="0 0 24 24" fill="none" xmlns="http://www.w3.org/2000/svg">
<path d="M19.7203 14H16.0303C17.7183 12.074 18.9993 10.253 18.9993 8.075C18.9993 4.372 15.6623 1 11.9993 1C8.27033 1 4.99933 4.306 4.99933 8.075C4.99933 10.293 6.27433 12.1 7.95033 14H4.27833L1.61133 22H22.3863L19.7193 14H19.7203ZM11.9993 5.2C13.5693 5.2 14.7993 6.43 14.7993 8C14.7993 9.57 13.5703 10.8 11.9993 10.8C10.4283 10.8 9.19933 9.57 9.19933 8C9.19933 6.43 10.4293 5.2 11.9993 5.2ZM4.38633 20L5.71933 16H9.76833C10.2503 16.525 10.7413 17.066 11.2363 17.648C11.4263 17.871 11.7053 18 11.9983 18C12.2913 18 12.5693 17.871 12.7603 17.648C13.2533 17.067 13.7433 16.526 14.2233 16H18.2783L19.6113 20H4.38633Z" fill="#17191A"/>
</svg>
