<svg width="24" height="24" viewBox="0 0 24 24" fill="none" xmlns="http://www.w3.org/2000/svg">
<path fill-rule="evenodd" clip-rule="evenodd" d="M6.75 4.5C6.61221 4.5 6.5 4.61221 6.5 4.75V7.75H5V4.75C5 3.78379 5.78379 3 6.75 3H19.75C20.7162 3 21.5 3.78379 21.5 4.75V15.75C21.5 16.7162 20.7162 17.5 19.75 17.5H10.75V16H19.75C19.8878 16 20 15.8878 20 15.75V4.75C20 4.61221 19.8878 4.5 19.75 4.5H6.75Z" fill="#17191A"/>
<path fill-rule="evenodd" clip-rule="evenodd" d="M3.75 8.5C3.61193 8.5 3.5 8.61193 3.5 8.75V18.75C3.5 18.8881 3.61193 19 3.75 19H9.75C9.88807 19 10 18.8881 10 18.75V8.75C10 8.61193 9.88807 8.5 9.75 8.5H3.75ZM2 8.75C2 7.7835 2.7835 7 3.75 7H9.75C10.7165 7 11.5 7.7835 11.5 8.75V18.75C11.5 19.7165 10.7165 20.5 9.75 20.5H3.75C2.7835 20.5 2 19.7165 2 18.75V8.75Z" fill="#17191A"/>
</svg>
