<svg width="24" height="24" viewBox="0 0 24 24" fill="none" xmlns="http://www.w3.org/2000/svg">
<path fill-rule="evenodd" clip-rule="evenodd" d="M8.624 12.026C8.624 12.604 9.061 13.081 9.593 13.081C10.134 13.081 10.561 12.604 10.561 12.026C10.572 11.445 10.134 10.971 9.593 10.971C9.051 10.971 8.624 11.446 8.624 12.026ZM12.092 12.026C12.092 12.604 12.529 13.081 13.061 13.081C13.602 13.081 14.029 12.604 14.029 12.026C14.028 11.445 13.602 10.971 13.061 10.971C12.519 10.971 12.092 11.446 12.092 12.026ZM4.947 3C3.874 3 3 3.874 3 4.957V17.801C3 18.884 3.874 19.758 4.947 19.758H15.72L15.215 17.999L16.432 19.13L17.581 20.194L19.625 22V4.957C19.625 3.874 18.751 3 17.678 3H4.947ZM13.384 14.636C14.2133 14.4013 14.7863 14.0247 15.103 13.506C14.713 13.762 14.343 13.944 14.01 14.068C13.535 14.266 13.08 14.399 12.633 14.476C11.721 14.646 10.885 14.599 10.172 14.466C9.631 14.361 9.166 14.209 8.776 14.056C8.558 13.971 8.319 13.868 8.083 13.735C8.054 13.714 8.026 13.706 7.998 13.687C7.978 13.677 7.969 13.668 7.959 13.657C7.845 13.5943 7.75633 13.541 7.693 13.497C7.997 14.0037 8.55133 14.3773 9.356 14.618C9.166 14.858 8.95367 15.121 8.719 15.407C7.31967 15.3623 6.35433 14.881 5.823 13.963C5.823 11.9237 6.279 10.0777 7.191 8.425C8.103 7.74033 8.99267 7.40767 9.86 7.427L9.955 7.541C8.815 7.871 7.982 8.286 7.456 8.786C7.596 8.71 7.783 8.61833 8.017 8.511C9.033 8.065 9.84 7.941 10.173 7.912C10.23 7.903 10.278 7.893 10.335 7.893C10.915 7.817 11.57 7.798 12.253 7.874C13.156 7.979 14.126 8.245 15.113 8.786C14.6123 8.31133 13.8237 7.90933 12.747 7.58L12.88 7.428C13.748 7.40867 14.6377 7.74133 15.549 8.426C16.461 10.0787 16.917 11.9247 16.917 13.964C16.379 14.8813 15.41 15.3623 14.01 15.407C13.782 15.135 13.5733 14.878 13.384 14.636Z" fill="#17191A"/>
</svg>
