<svg width="24" height="24" viewBox="0 0 24 24" fill="none" xmlns="http://www.w3.org/2000/svg">
<path fill-rule="evenodd" clip-rule="evenodd" d="M2.25 4.25H9C11.0712 4.25 12.75 5.92879 12.75 8V21H11.25C11.25 19.7572 10.2428 18.75 9 18.75H2.25V4.25ZM11.25 17.9996V8C11.25 6.75721 10.2428 5.75 9 5.75H3.75V17.25H9C9.84424 17.25 10.6233 17.5289 11.25 17.9996Z" fill="#17191A"/>
<path fill-rule="evenodd" clip-rule="evenodd" d="M11.25 8C11.25 5.92879 12.9288 4.25 15 4.25H21.75V18.75H15C13.7572 18.75 12.75 19.7572 12.75 21H11.25V8ZM12.75 17.9996C13.3767 17.5289 14.1558 17.25 15 17.25H20.25V5.75H15C13.7572 5.75 12.75 6.75721 12.75 8V17.9996Z" fill="#17191A"/>
</svg>
