<svg width="24" height="24" viewBox="0 0 24 24" fill="none" xmlns="http://www.w3.org/2000/svg">
<path d="M12 4.75C7.99621 4.75 4.75 7.99621 4.75 12C4.75 16.0038 7.99621 19.25 12 19.25C13.784 19.25 15.4159 18.606 16.6797 17.5371L17.1641 18.1104L17.6484 18.6826C16.1242 19.9717 14.152 20.75 12 20.75C7.16779 20.75 3.25 16.8322 3.25 12C3.25 7.16779 7.16779 3.25 12 3.25V4.75ZM18.7432 6.42285C19.9962 7.93626 20.7499 9.88137 20.75 12C20.7499 14.0279 20.0585 15.8979 18.8994 17.3818L18.3076 16.9199L17.7168 16.459C18.6774 15.2292 19.2499 13.6815 19.25 12C19.2499 10.2433 18.6254 8.63419 17.5869 7.37988L18.7432 6.42285ZM13.5322 3.38379C15.078 3.65644 16.4822 4.33475 17.6328 5.30273L17.1504 5.87695L16.667 6.45117C15.712 5.64765 14.55 5.08577 13.2725 4.86035L13.5322 3.38379Z" fill="#17191A"/>
</svg>
