<svg width="24" height="24" viewBox="0 0 24 24" fill="none" xmlns="http://www.w3.org/2000/svg">
<path d="M12 5.5C8.416 5.5 5.5 8.416 5.5 12C5.5 15.584 8.416 18.5 12 18.5C13.534 18.5 15.0243 17.9548 16.1953 16.9648L18.1328 19.2559C16.4198 20.7028 14.242 21.5 12 21.5C6.762 21.5 2.5 17.238 2.5 12C2.5 6.762 6.762 2.5 12 2.5V5.5ZM19.3203 5.94434C20.7261 7.64326 21.499 9.79317 21.499 12C21.499 14.1408 20.8031 16.1608 19.4883 17.8438L17.125 15.9961C18.023 14.8471 18.499 13.465 18.499 12C18.499 10.4901 17.9697 9.01938 17.0088 7.85742L19.3203 5.94434ZM13.6631 2.64648C15.297 2.93449 16.8373 3.6536 18.1152 4.72852L16.1855 7.02637C15.3096 6.29041 14.2566 5.7966 13.1416 5.59961L13.6631 2.64648Z" fill="#17191A"/>
</svg>
