<svg width="24" height="24" viewBox="0 0 24 24" fill="none" xmlns="http://www.w3.org/2000/svg">
<path fill-rule="evenodd" clip-rule="evenodd" d="M12.5179 2.45721L12 2.99973L11.4821 2.45721L12 1.96289L12.5179 2.45721ZM12 4.0436C11.8029 4.23615 11.5633 4.47211 11.3053 4.73006C10.6301 5.40531 9.85202 6.20884 9.37617 6.77986C8.38364 7.9709 7.43028 9.21622 6.77082 10.5351C6.09804 11.8807 5.75 13.0613 5.75 14.0997C5.75 17.4785 8.50716 20.2497 12 20.2497C15.4928 20.2497 18.25 17.4785 18.25 14.0997C18.25 13.0613 17.902 11.8807 17.2292 10.5351C16.5697 9.21622 15.6164 7.9709 14.6238 6.77986C14.148 6.20884 13.3699 5.40531 12.6947 4.73006C12.4367 4.47211 12.1971 4.23615 12 4.0436ZM11.4821 2.45721C11.4822 2.45718 11.4821 2.45721 12 2.99973C12.5179 2.45721 12.5178 2.45718 12.5179 2.45721L12.5438 2.48208L12.6165 2.55187C12.6794 2.6124 12.7702 2.69998 12.8821 2.80875C13.1058 3.02618 13.4147 3.32876 13.7553 3.6694C14.4301 4.34414 15.252 5.19061 15.7762 5.81959C16.7836 7.02855 17.8303 8.38323 18.5708 9.86432C19.298 11.3188 19.75 12.7382 19.75 14.0997C19.75 18.321 16.3072 21.7497 12 21.7497C7.69284 21.7497 4.25 18.321 4.25 14.0997C4.25 12.7382 4.70196 11.3188 5.42918 9.86432C6.16972 8.38323 7.21636 7.02855 8.22383 5.81959C8.74798 5.19061 9.56993 4.34414 10.2447 3.6694C10.5853 3.32876 10.8942 3.02618 11.1179 2.80875C11.2298 2.69998 11.3206 2.6124 11.3835 2.55187L11.4562 2.48208L11.4821 2.45721Z" fill="#17191A"/>
</svg>
