<svg width="24" height="24" viewBox="0 0 24 24" fill="none" xmlns="http://www.w3.org/2000/svg">
<path d="M5 18H19C20.654 18 22 16.654 22 15V7C22 5.346 20.654 4 19 4H5C3.346 4 2 5.346 2 7V15C2 16.654 3.346 18 5 18ZM4 7C4 6.449 4.449 6 5 6H19C19.552 6 20 6.449 20 7V15C20 15.552 19.552 16 19 16H17C17 14.143 15.971 12.539 14.464 11.676C14.81 11.179 15 10.6 15 10C15 9.169 14.648 8.364 14.107 7.893C13.531 7.317 12.782 7 12 7C11.168 7 10.364 7.352 9.893 7.893C9.317 8.469 9 9.217 9 10C9 10.64 9.187 11.228 9.515 11.688C8.02 12.553 7 14.152 7 16H5C4.449 16 4 15.552 4 15V7Z" fill="#17191A"/>
<path d="M23 19H1V21H23V19Z" fill="#17191A"/>
</svg>
