<svg width="24" height="24" viewBox="0 0 24 24" fill="none" xmlns="http://www.w3.org/2000/svg">
<path d="M23 20.75H1V19.25H23V20.75ZM19 4.25C20.5188 4.25 21.75 5.48122 21.75 7V15C21.75 16.5188 20.5188 17.75 19 17.75H5C3.48122 17.75 2.25 16.5188 2.25 15V7C2.25 5.48122 3.48122 4.25 5 4.25H19ZM5 5.75C4.30964 5.75 3.75 6.30964 3.75 7V15C3.75 15.6904 4.30964 16.25 5 16.25H7.25V16C7.25 14.137 8.32438 12.5242 9.88672 11.7461C9.45358 11.2584 9.25 10.6358 9.25 10C9.25 9.30276 9.52724 8.62141 10.0518 8.08789C10.5694 7.50888 11.3326 7.25 12 7.25C12.6893 7.25 13.3618 7.52221 13.8926 8.03516H13.8936C13.8995 8.04035 13.9053 8.04651 13.9111 8.05176C13.9174 8.05788 13.9245 8.06314 13.9307 8.06934H13.9297C14.4958 8.58662 14.75 9.33971 14.75 10C14.75 10.6254 14.5234 11.2349 14.0986 11.7393C15.6688 12.5146 16.75 14.1312 16.75 16V16.25H19C19.6904 16.25 20.25 15.6904 20.25 15V7C20.25 6.30964 19.6904 5.75 19 5.75H5ZM12 12.75C10.2062 12.75 8.75 14.2062 8.75 16V16.25H15.25V16C15.25 14.2062 13.7938 12.75 12 12.75ZM12 8.75C11.6744 8.75 11.3462 8.88558 11.1641 9.09375L11.1484 9.1123L11.1299 9.12988C10.866 9.39372 10.75 9.70517 10.75 10C10.75 10.3193 10.8486 10.5755 11.0176 10.7607L11.0938 10.8359L11.1123 10.8516L11.1299 10.8701L11.2314 10.9619C11.4717 11.1609 11.7421 11.25 12 11.25C12.3256 11.25 12.6538 11.1144 12.8359 10.9062L12.8516 10.8877L12.8701 10.8701C13.134 10.6063 13.25 10.2948 13.25 10C13.25 9.67439 13.1144 9.34621 12.9062 9.16406L12.8877 9.14844L12.8701 9.12988C12.6063 8.86605 12.2948 8.75 12 8.75Z" fill="#17191A"/>
</svg>
