<svg width="24" height="24" viewBox="0 0 24 24" fill="none" xmlns="http://www.w3.org/2000/svg">
<path d="M20.99 7.649C20.974 7.606 20.953 7.569 20.932 7.529C19.287 4.256 15.906 2 12 2C10.419 2 8.928 2.379 7.597 3.035C7.558 3.054 7.517 3.067 7.48 3.091C4.246 4.738 2.02 8.086 2.002 11.954C2.002 11.961 2.002 11.968 2.001 11.975C2.001 11.983 2 11.991 2 12C2 17.514 6.486 22 12 22C17.514 22 22 17.514 22 12C22 10.439 21.63 8.967 20.99 7.649ZM4.032 12.633C4.327 12.595 4.724 12.591 4.989 12.591C5.859 12.591 7.026 12.593 7.678 11.782C7.845 11.714 7.918 11.718 7.917 11.716C8.114 11.828 8.39 12.626 8.539 13.055C8.952 14.247 9.517 15.88 11.222 15.943C11.234 15.943 11.246 15.943 11.259 15.943C11.387 15.943 11.514 15.919 11.633 15.871C13.304 15.198 13.508 14.28 13.572 13.398C13.595 13.071 13.61 12.869 13.788 12.617C14.399 11.866 14.474 10.057 13.708 9.292C13.645 9.228 13.572 9.173 13.493 9.129C12.691 8.675 12.417 8.027 12.099 7.277C11.906 6.822 11.706 6.352 11.383 5.92C10.891 5.263 10.389 4.711 9.949 4.275C10.462 4.138 10.995 4.053 11.543 4.021C11.734 4.299 11.944 4.669 12.164 5.062C12.921 6.415 13.864 8.098 15.577 8.903C16.11 9.153 16.721 9.234 17.336 9.234C17.961 9.234 18.591 9.151 19.151 9.077C19.249 9.064 19.336 9.054 19.429 9.042C19.795 9.958 20.002 10.953 20.002 11.998C20.002 12.595 19.931 13.175 19.807 13.735C19.473 13.62 19.162 13.542 18.871 13.47C18.091 13.277 17.526 13.137 16.723 12.304C16.453 12.025 16.045 11.928 15.68 12.052C14.183 12.563 14.384 14.33 14.532 15.621C14.575 15.994 14.639 16.557 14.624 16.907C14.161 16.877 13.679 17.043 13.218 17.341C12.328 17.917 11.588 19.007 11.233 19.959C7.391 19.59 4.341 16.492 4.036 12.632L4.032 12.633Z" fill="#17191A"/>
</svg>
