<svg width="24" height="24" viewBox="0 0 24 24" fill="none" xmlns="http://www.w3.org/2000/svg">
<path d="M20.2508 12.0001C20.2508 7.44377 16.5571 3.75012 12.0008 3.75012C7.44444 3.75012 3.75079 7.44377 3.75079 12.0001C3.75079 16.5565 7.44444 20.2501 12.0008 20.2501C16.5571 20.2501 20.2508 16.5565 20.2508 12.0001ZM21.7508 12.0001C21.7508 17.3849 17.3856 21.7501 12.0008 21.7501C6.61601 21.7501 2.25079 17.3849 2.25079 12.0001C2.25079 6.61534 6.61601 2.25012 12.0008 2.25012C17.3856 2.25012 21.7508 6.61534 21.7508 12.0001Z" fill="#17191A"/>
<path d="M11.4705 2.46984C11.7451 2.19524 12.1798 2.17778 12.4744 2.41809L12.5311 2.46984L12.6512 2.59777C12.9277 2.90937 13.1712 3.30341 13.3914 3.68371C13.6659 4.15769 13.9026 4.60695 14.2039 5.10461C14.7944 6.07995 15.4488 6.91184 16.3201 7.32141C16.692 7.49599 17.2953 7.51842 18.0535 7.44738C18.4156 7.41345 18.7677 7.36398 19.1111 7.31945C19.4351 7.27745 19.7795 7.23616 20.0623 7.23742C20.4764 7.23937 20.8102 7.57625 20.8084 7.99035C20.8066 8.40455 20.4697 8.73925 20.0555 8.73742C19.8899 8.73668 19.6459 8.7625 19.3045 8.80676C18.9825 8.8485 18.5908 8.90336 18.1941 8.94055C17.4822 9.00727 16.5794 9.0389 15.8299 8.7423L15.6824 8.67883C14.386 8.06935 13.5391 6.90082 12.9217 5.88098C12.6191 5.38111 12.324 4.83363 12.0936 4.43566C11.9037 4.10784 11.7455 3.8601 11.6053 3.68371L11.4705 3.53039L11.4188 3.47375C11.1784 3.17917 11.1959 2.74445 11.4705 2.46984Z" fill="#17191A"/>
<path d="M7.41581 3.48659C7.65668 3.14999 8.12485 3.07218 8.4617 3.31277L7.58963 4.53347C7.58985 4.53339 7.59715 4.52345 8.02616 3.92312C8.44585 3.33581 8.461 3.31349 8.4617 3.31277L8.46268 3.31374L8.46463 3.31472C8.46589 3.31563 8.46762 3.31726 8.46952 3.31863C8.47324 3.32132 8.47811 3.32493 8.48416 3.32937C8.4966 3.33849 8.51423 3.3511 8.53592 3.36745C8.57962 3.40039 8.64146 3.44844 8.71854 3.51003C8.87256 3.63312 9.08831 3.81291 9.34354 4.04616C9.85331 4.51207 10.527 5.19613 11.1824 6.07155L11.3484 6.31472C11.5027 6.56103 11.6233 6.81461 11.7273 7.05007C11.8783 7.39195 11.9784 7.65419 12.1248 7.95632C12.3567 8.43488 12.6385 8.86021 13.1404 9.20534L13.3689 9.34792L13.4539 9.40456C13.4807 9.42495 13.5062 9.44711 13.5301 9.47097L13.614 9.56374C13.797 9.78808 13.8873 10.054 13.9353 10.262C13.9944 10.5175 14.0136 10.7909 14.0076 11.0442C14.0016 11.2982 13.9693 11.5597 13.909 11.7952C13.8605 11.984 13.7707 12.246 13.5935 12.4592C13.2907 12.8774 13.3761 13.0922 13.2879 13.7395C13.2437 14.064 13.1392 14.4435 12.8269 14.8059C12.5318 15.1484 12.1045 15.4133 11.5389 15.6409C11.4412 15.6802 11.3364 15.6985 11.2312 15.6946C10.2888 15.6599 9.726 15.046 9.38456 14.4446C9.06144 13.8753 8.83725 13.1352 8.6492 12.6116C8.54701 12.327 8.45105 12.0875 8.34842 11.8928C8.24453 11.6958 8.15484 11.5869 8.08573 11.5305C8.03285 11.4875 7.98841 11.4708 7.91776 11.471C7.84382 11.4711 7.71335 11.4937 7.50858 11.5872C7.21822 11.9656 6.80826 12.1483 6.43924 12.2356C6.0136 12.3363 5.53438 12.3407 5.13944 12.3411C4.70783 12.3416 4.35137 12.3362 4.03592 12.3762C3.71869 12.4165 3.57479 12.4902 3.51053 12.5501C3.20735 12.8322 2.73315 12.8151 2.45096 12.512C2.16875 12.2088 2.18588 11.7346 2.48905 11.4524C2.89528 11.0743 3.41569 10.9428 3.84745 10.888C4.28078 10.833 4.75827 10.8415 5.13748 10.8411C5.55352 10.8406 5.86271 10.8303 6.09354 10.7757C6.30839 10.7248 6.32822 10.6665 6.33182 10.6594L6.39139 10.5628C6.45733 10.4712 6.54324 10.3952 6.64334 10.3411L6.8035 10.2591C7.17578 10.0783 7.54654 9.97189 7.91385 9.97097C8.3539 9.96996 8.72972 10.1213 9.03299 10.3684C9.32009 10.6024 9.52353 10.9052 9.67557 11.1936C9.82887 11.4845 9.95252 11.8045 10.0603 12.1048C10.2923 12.7508 10.4503 13.2834 10.6892 13.7044C10.8582 14.0019 11.0034 14.1263 11.1502 14.1721C11.4773 14.0236 11.6237 13.9044 11.6902 13.8274C11.75 13.7581 11.7809 13.6888 11.8015 13.5374C11.8421 13.2396 11.7829 12.3887 12.3963 11.5559L12.4217 11.5247C12.4292 11.5077 12.4425 11.4749 12.4558 11.4231C12.4838 11.314 12.5039 11.1666 12.5076 11.0081C12.5113 10.8491 12.4979 10.7058 12.4734 10.5999C12.4689 10.5802 12.4618 10.5645 12.4578 10.551C11.5669 9.99524 11.0991 9.27894 10.7752 8.61062C10.617 8.28413 10.469 7.91317 10.3553 7.65554C10.2608 7.44172 10.1732 7.26442 10.0789 7.11355L9.98124 6.97097C9.39462 6.18739 8.78955 5.57193 8.33182 5.15359C8.10352 4.94494 7.91308 4.78664 7.78202 4.68191C7.71674 4.62974 7.66659 4.59059 7.63358 4.5657C7.61708 4.55325 7.6048 4.54375 7.59745 4.53835L7.58963 4.53347L7.53006 4.48562C7.24445 4.23452 7.18995 3.80264 7.41581 3.48659Z" fill="#17191A"/>
<path d="M11.2508 21.0001C11.2508 20.5879 11.4061 20.1192 11.5965 19.7081C11.7964 19.2766 12.0763 18.8204 12.408 18.4181C12.7351 18.0215 13.145 17.6373 13.616 17.3995C13.9729 17.2194 14.3942 17.112 14.8338 17.1769C14.8422 17.1408 14.8517 17.0948 14.8582 17.0372C14.8874 16.7782 14.8682 16.4484 14.8279 16.0489L14.7342 15.2013C14.6879 14.7619 14.6524 14.2874 14.6902 13.8712C14.7397 13.3279 14.95 12.5664 15.7586 12.2902L15.8631 12.2628C16.1084 12.2169 16.3642 12.2966 16.5408 12.4796C17.2658 13.2304 17.8261 13.4521 18.4149 13.6134C18.9494 13.7598 19.6618 13.8778 20.4734 14.2892L20.827 14.4845L20.8904 14.5275C21.1951 14.7545 21.2848 15.1796 21.0858 15.5128C20.8864 15.846 20.4691 15.9688 20.1248 15.8077L20.0565 15.7716L19.7918 15.6251C19.1894 15.3175 18.6915 15.2441 18.0184 15.0597C17.4322 14.8991 16.8325 14.6714 16.1746 14.1642C16.1651 14.5091 16.2136 14.9407 16.2723 15.4552C16.3341 15.9972 16.4106 16.656 16.3484 17.2062C16.3166 17.4883 16.2427 17.8083 16.0623 18.0929C15.8917 18.3619 15.644 18.5698 15.327 18.6837L15.1873 18.7267C15.064 18.7583 14.9352 18.7582 14.8133 18.7267L14.6941 18.6847C14.6148 18.6491 14.4989 18.6339 14.2918 18.7384C14.0719 18.8494 13.8169 19.067 13.5652 19.3722C13.3186 19.6713 13.1063 20.0177 12.9578 20.338C12.7998 20.6791 12.7508 20.9123 12.7508 21.0001C12.7508 21.4143 12.415 21.7501 12.0008 21.7501C11.5866 21.7501 11.2508 21.4143 11.2508 21.0001Z" fill="#17191A"/>
</svg>
