<svg width="24" height="24" viewBox="0 0 24 24" fill="none" xmlns="http://www.w3.org/2000/svg">
<path d="M19.75 17.25H21V18.75H17.5L19.5996 21.5498L19.6426 21.6133C19.839 21.9388 19.7607 22.3664 19.4502 22.5996C19.1395 22.8326 18.7069 22.7884 18.4492 22.5088L18.4004 22.4502L15.625 18.75H8.375L5.59961 22.4502C5.35102 22.7813 4.88107 22.8481 4.5498 22.5996C4.2188 22.351 4.15197 21.881 4.40039 21.5498L6.5 18.75H3V17.25H4.25V2.25H19.75V17.25ZM5.75 17.25H18.25V3.75H15.75V5C15.75 5.96621 14.9662 6.75 14 6.75H10C9.03379 6.75 8.25 5.96621 8.25 5V3.75H5.75V17.25ZM9.75 5C9.75 5.13779 9.86221 5.25 10 5.25H14C14.1378 5.25 14.25 5.13779 14.25 5V3.75H9.75V5Z" fill="#17191A"/>
</svg>
