<svg width="24" height="24" viewBox="0 0 24 24" fill="none" xmlns="http://www.w3.org/2000/svg">
<path d="M20 17V2H4V17H3V19H6L4.2 21.4C3.868 21.841 3.958 22.468 4.4 22.799C4.58 22.934 4.791 22.999 4.999 22.999C5.303 22.999 5.603 22.861 5.8 22.599L8.5 18.999H15.501L18.201 22.599C18.397 22.862 18.697 22.999 19.002 22.999C19.211 22.999 19.421 22.934 19.601 22.799C20.043 22.468 20.133 21.841 19.801 21.4L18.001 19H21.001V17H20ZM14 4V5H10V4H14ZM6 17V4H8V5C8 6.103 8.897 7 10 7H14C15.103 7 16 6.103 16 5V4H18V17H6Z" fill="#17191A"/>
</svg>
