<svg width="24" height="24" viewBox="0 0 24 24" fill="none" xmlns="http://www.w3.org/2000/svg">
<path d="M7.47 21.75H2.25V16.53L9.4 9.4L10.46 10.47L3.75 17.16V20.25H6.84L13.53 13.54L14.6 14.59L7.47 21.75Z" fill="#17191A"/>
<path d="M16.69 12.5L15.63 11.44L19.62 7.44C20.02 7.04 20.25 6.48 20.25 5.91C20.25 5.34 20.02 4.79 19.62 4.38C18.81 3.57 17.38 3.57 16.57 4.38L12.56 8.37L11.5 7.31L15.5 3.32C16.18 2.64 17.12 2.25 18.08 2.25C19.04 2.25 19.97 2.63 20.67 3.32C21.35 4 21.74 4.94 21.74 5.91C21.74 6.88 21.35 7.82 20.67 8.5L16.68 12.5H16.69Z" fill="#17191A"/>
<path d="M14.61 5.24179L13.5494 6.30245L17.7001 10.4532L18.7607 9.39251L14.61 5.24179Z" fill="#17191A"/>
<path d="M3.52744 2.4682L2.46678 3.52886L20.4697 21.5318L21.5304 20.4711L3.52744 2.4682Z" fill="#17191A"/>
</svg>
