<svg width="24" height="24" viewBox="0 0 24 24" fill="none" xmlns="http://www.w3.org/2000/svg">
<path d="M16.868 12.673L20.855 8.67102C21.583 7.94402 22 6.93702 22 5.90802C22 4.87902 21.583 3.87002 20.854 3.14402C20.115 2.40602 19.134 1.99902 18.091 1.99902C17.062 1.99902 16.054 2.41602 15.329 3.14302L11.327 7.13102L16.868 12.673ZM19.442 4.56002C19.796 4.91402 20 5.40602 20 5.90902C20 6.41202 19.796 6.90302 19.44 7.25902L18.212 8.49102L15.509 5.78802L16.743 4.55902C17.456 3.84302 18.721 3.84302 19.441 4.55902L19.442 4.56002Z" fill="#17191A"/>
<path d="M3.707 2.29303L2.293 3.70703L8.519 9.93303L2 16.431V22H7.569L14.068 15.482L20.293 21.707L21.707 20.293L3.707 2.29303Z" fill="#17191A"/>
</svg>
