<svg width="24" height="24" viewBox="0 0 24 24" fill="none" xmlns="http://www.w3.org/2000/svg">
<g clip-path="url(#clip0_15249_7238)">
<path d="M17.707 9.29297L15.414 6.99997H19.977C20.54 6.99997 20.999 7.43097 20.999 7.96097V11H22.999V7.96097C22.999 6.32797 21.644 4.99997 19.977 4.99997H15.414L17.707 2.70697L16.293 1.29297L11.586 5.99997L16.293 10.707L17.707 9.29297Z" fill="#17191A"/>
<path d="M6.293 14.707L8.586 17H4.022C3.459 17 3 16.569 3 16.039V13H1V16.039C1 17.672 2.355 19 4.022 19H8.586L6.293 21.293L7.707 22.707L12.414 18L7.707 13.293L6.293 14.707Z" fill="#17191A"/>
<path d="M6 10C8.206 10 10 8.206 10 6C10 3.794 8.206 2 6 2C3.794 2 2 3.794 2 6C2 8.206 3.794 10 6 10ZM6 4C7.103 4 8 4.897 8 6C8 7.103 7.103 8 6 8C4.897 8 4 7.103 4 6C4 4.897 4.897 4 6 4Z" fill="#17191A"/>
<path d="M23 15H22.755L22.962 14.274C23.113 13.744 22.806 13.19 22.274 13.038C21.749 12.893 21.19 13.193 21.038 13.726L20.674 15H19.298L18.926 13.721C18.802 13.294 18.41 13 17.966 13H17.961C17.515 13.002 17.124 13.3 17.003 13.729L16.646 15H15.326L14.962 13.726C14.81 13.194 14.252 12.894 13.726 13.038C13.195 13.19 12.887 13.744 13.038 14.274L13.245 15H13C12.447 15 12 15.447 12 16C12 16.553 12.447 17 13 17H13.817L15.038 21.274C15.161 21.704 15.554 22 16 22H16.002C16.449 22 16.842 21.701 16.963 21.271L17.983 17.64L19.041 21.28C19.165 21.707 19.557 22.001 20.001 22.001H20.003C20.449 22.001 20.84 21.704 20.963 21.275L22.184 17.001H23.001C23.554 17.001 24.001 16.554 24.001 16.001C24.001 15.448 23.554 15.001 23.001 15.001L23 15ZM15.992 17.331L15.897 17H16.085L15.992 17.331ZM19.992 17.389L19.879 17H20.103L19.992 17.389Z" fill="#17191A"/>
</g>
<defs>
<clipPath id="clip0_15249_7238">
<rect width="24" height="24" fill="white"/>
</clipPath>
</defs>
</svg>
