<svg width="24" height="24" viewBox="0 0 24 24" fill="none" xmlns="http://www.w3.org/2000/svg">
<path d="M17.5303 2.53027L14.0605 6L17.5303 9.46973L16.4697 10.5303L11.9395 6L16.4697 1.46973L17.5303 2.53027Z" fill="#17191A"/>
<path d="M21.25 7.96094C21.25 7.31359 20.702 6.75 19.9775 6.75H13V5.25H19.9775C21.487 5.25 22.75 6.44234 22.75 7.96094V11H21.25V7.96094Z" fill="#17191A"/>
<path d="M12.0605 18L7.53027 22.5303L6.46973 21.4697L9.93945 18L6.46973 14.5303L7.53027 13.4697L12.0605 18Z" fill="#17191A"/>
<path d="M1.25 16.0391V13H2.75V16.0391C2.75004 16.6864 3.29795 17.25 4.02246 17.25H11V18.75H4.02246C2.51301 18.75 1.25003 17.5577 1.25 16.0391Z" fill="#17191A"/>
<path d="M8.25 6C8.25 4.75736 7.24264 3.75 6 3.75C4.75736 3.75 3.75 4.75736 3.75 6C3.75 7.24264 4.75736 8.25 6 8.25C7.24264 8.25 8.25 7.24264 8.25 6ZM9.75 6C9.75 8.07107 8.07107 9.75 6 9.75C3.92893 9.75 2.25 8.07107 2.25 6C2.25 3.92893 3.92893 2.25 6 2.25C8.07107 2.25 9.75 3.92893 9.75 6Z" fill="#17191A"/>
<path d="M17.9629 13.25C18.2976 13.2486 18.5931 13.4695 18.6865 13.791L19.9932 18.292L21.2793 13.7939L21.3037 13.7217C21.4444 13.3684 21.8326 13.1726 22.2061 13.2793C22.5793 13.386 22.805 13.7568 22.7383 14.1309L22.7207 14.2061L20.7207 21.2061C20.6289 21.5273 20.336 21.7491 20.002 21.75C19.6677 21.7507 19.3735 21.5299 19.2803 21.209L17.9785 16.7295L16.7217 21.2031C16.6309 21.5258 16.3372 21.7491 16.002 21.75C15.6665 21.7508 15.3715 21.5286 15.2793 21.2061L13.2793 14.2061L13.2617 14.1309C13.195 13.7568 13.4208 13.386 13.7939 13.2793C14.1674 13.1726 14.5556 13.3684 14.6963 13.7217L14.7207 13.7939L15.9932 18.249L17.2441 13.7969L17.2871 13.6816C17.4084 13.4227 17.6698 13.2513 17.9629 13.25Z" fill="#17191A"/>
<path d="M23 15.25C23.4142 15.25 23.75 15.5858 23.75 16C23.75 16.4142 23.4142 16.75 23 16.75H13C12.5858 16.75 12.25 16.4142 12.25 16C12.25 15.5858 12.5858 15.25 13 15.25H23Z" fill="#17191A"/>
</svg>
