<svg width="24" height="24" viewBox="0 0 24 24" fill="none" xmlns="http://www.w3.org/2000/svg">
<path fill-rule="evenodd" clip-rule="evenodd" d="M3.25 7C3.25 5.48579 4.48579 4.25 6 4.25H12V5.75H6C5.31421 5.75 4.75 6.31421 4.75 7V18C4.75 18.6858 5.31421 19.25 6 19.25H17C17.6858 19.25 18.25 18.6858 18.25 18V12H19.75V18C19.75 19.5142 18.5142 20.75 17 20.75H6C4.48579 20.75 3.25 19.5142 3.25 18V7Z" fill="#17191A"/>
<path fill-rule="evenodd" clip-rule="evenodd" d="M21.5303 3.53033L11.5303 13.5303L10.4697 12.4697L20.4697 2.46967L21.5303 3.53033Z" fill="#17191A"/>
<path fill-rule="evenodd" clip-rule="evenodd" d="M20.25 3.75H15V2.25H21.75V9H20.25V3.75Z" fill="#17191A"/>
</svg>
