<svg width="24" height="24" viewBox="0 0 24 24" fill="none" xmlns="http://www.w3.org/2000/svg">
<path d="M18.999 2H16V4H18.999C19.551 4 20 4.449 20 5.001V8H22V5.001C22 3.346 20.653 2 18.999 2Z" fill="#17191A"/>
<path d="M20 18.999C20 19.551 19.551 20 18.999 20H16V22H18.999C20.653 22 22 20.653 22 18.999V16H20V18.999Z" fill="#17191A"/>
<path d="M4 5.001C4 4.449 4.449 4 5.001 4H8V2H5.001C3.346 2 2 3.346 2 5.001V8H4V5.001Z" fill="#17191A"/>
<path d="M4 18.999V16H2V18.999C2 20.653 3.346 22 5.001 22H8V20H5.001C4.449 20 4 19.551 4 18.999Z" fill="#17191A"/>
<path d="M7 8V10C7 10.552 7.448 11 8 11C8.552 11 9 10.552 9 10V8C9 7.448 8.552 7 8 7C7.448 7 7 7.448 7 8Z" fill="#17191A"/>
<path d="M16 11C16.553 11 17 10.552 17 10V8C17 7.448 16.553 7 16 7C15.447 7 15 7.448 15 8V10C15 10.552 15.447 11 16 11Z" fill="#17191A"/>
<path d="M11 13H11.5C12.341 13 13 12.209 13 11.2V8C13 7.448 12.553 7 12 7C11.447 7 11 7.448 11 8L10.993 11C10.444 11.003 10 11.45 10 12C10 12.55 10.448 13 11 13Z" fill="#17191A"/>
<path d="M16.347 14.409C16.021 13.963 15.393 13.866 14.95 14.193C14.261 14.698 13.158 15 12.001 15C10.844 15 9.742 14.698 9.052 14.193C8.606 13.866 7.981 13.964 7.655 14.409C7.329 14.854 7.425 15.48 7.871 15.806C8.906 16.565 10.412 16.999 12.002 16.999C13.592 16.999 15.098 16.564 16.133 15.806C16.578 15.48 16.675 14.854 16.349 14.409H16.347Z" fill="#17191A"/>
</svg>
