<svg width="24" height="24" viewBox="0 0 24 24" fill="none" xmlns="http://www.w3.org/2000/svg">
<path d="M20.001 6.99956C18.622 6.99956 17.675 8.10056 16.838 9.07156C16.178 9.83756 15.682 10.3786 15.186 10.5656C15.056 10.2766 14.881 10.0166 14.681 9.77556C15.691 8.16456 17.001 5.24656 17.001 3.97656C17.001 1.98556 15.318 0.976562 12.001 0.976562C8.68395 0.976562 7.00095 1.98556 7.00095 3.97656C7.00095 5.35156 8.09895 6.30856 9.06795 7.15256C9.81195 7.80156 10.36 8.31456 10.558 8.81956C10.277 8.94756 10.022 9.11756 9.78695 9.31156C8.17295 8.30256 5.26895 6.99856 4.00195 6.99856C2.01095 6.99856 1.00195 8.68056 1.00195 11.9986C1.00195 15.3166 2.01095 16.9986 4.00195 16.9986C5.37795 16.9986 6.33095 15.8996 7.16995 14.9306C7.82895 14.1696 8.32895 13.6366 8.82295 13.4446C8.95095 13.7246 9.11995 13.9796 9.31395 14.2146C8.30495 15.8286 7.00095 18.7326 7.00095 19.9996C7.00095 21.9896 8.68295 22.9996 12.001 22.9996C15.319 22.9996 17.001 21.9896 17.001 19.9996C17.001 18.6256 15.907 17.6716 14.942 16.8296C14.183 16.1676 13.65 15.6676 13.459 15.1716C13.734 15.0446 13.984 14.8786 14.215 14.6876C15.829 15.6956 18.733 16.9996 20.001 16.9996C21.991 16.9996 23.001 15.3166 23.001 11.9996C23.001 8.68256 21.991 6.99956 20.001 6.99956ZM12.001 13.4996C11.174 13.4996 10.501 12.8266 10.501 11.9996C10.501 11.1726 11.174 10.4996 12.001 10.4996C12.828 10.4996 13.501 11.1726 13.501 11.9996C13.501 12.8266 12.828 13.4996 12.001 13.4996Z" fill="#17191A"/>
</svg>
