<svg width="24" height="24" viewBox="0 0 24 24" fill="none" xmlns="http://www.w3.org/2000/svg">
<path fill-rule="evenodd" clip-rule="evenodd" d="M9.00018 3.36576C8.84702 3.51086 8.75 3.69134 8.75 3.97754C8.75 4.21346 8.86561 4.48864 9.18634 4.85856C9.45888 5.1729 9.80533 5.47515 10.2057 5.82447C10.2847 5.89341 10.3659 5.96418 10.4489 6.03725C10.9233 6.45445 11.4564 6.94341 11.8374 7.5121C12.2323 8.10168 12.4903 8.81623 12.3544 9.65722L10.8736 9.41787C10.9332 9.04936 10.8372 8.71415 10.5912 8.34695C10.3312 7.95886 9.93632 7.584 9.45831 7.16359C9.38813 7.10186 9.31559 7.03872 9.24157 6.97428C8.8427 6.62703 8.40085 6.24238 8.053 5.84118C7.63501 5.35907 7.25 4.74163 7.25 3.97754C7.25 3.26375 7.52798 2.69423 7.96857 2.27683C8.38692 1.88049 8.92082 1.64873 9.41896 1.5064C10.3956 1.22736 11.4806 1.22748 11.9791 1.22754C11.9862 1.22754 11.9932 1.22754 12 1.22754C12.0068 1.22754 12.0138 1.22754 12.0209 1.22754C12.5194 1.22748 13.6044 1.22736 14.581 1.5064C15.0792 1.64873 15.6131 1.88049 16.0314 2.27683C16.472 2.69423 16.75 3.26375 16.75 3.97754C16.75 4.42848 16.5927 5.0146 16.4003 5.57908C16.1988 6.17047 15.9249 6.83216 15.6288 7.4715C15.3324 8.11146 15.0081 8.74101 14.7022 9.26825C14.4082 9.77479 14.0958 10.2497 13.818 10.5292L12.754 9.47184C12.8832 9.34188 13.1135 9.0173 13.4048 8.51539C13.684 8.0342 13.9874 7.44637 14.2677 6.84109C14.5483 6.23517 14.8004 5.62374 14.9805 5.09519C15.1698 4.53973 15.25 4.1591 15.25 3.97754C15.25 3.69134 15.153 3.51086 14.9998 3.36576C14.8244 3.19959 14.5458 3.05636 14.169 2.94869C13.4095 2.7317 12.5114 2.72754 12 2.72754C11.4886 2.72754 10.5905 2.7317 9.83104 2.94869C9.45419 3.05636 9.17558 3.19959 9.00018 3.36576Z" fill="#17191A"/>
<path fill-rule="evenodd" clip-rule="evenodd" d="M2.97115 9.83153C2.75416 10.591 2.75 11.4891 2.75 12.0005C2.75 12.5119 2.75416 13.41 2.97115 14.1694C3.07882 14.5463 3.22205 14.8249 3.38822 15.0003C3.53332 15.1535 3.7138 15.2505 4 15.2505C4.23553 15.2505 4.50904 15.1354 4.87622 14.8157C5.18872 14.5436 5.48872 14.1976 5.83584 13.7973C5.90415 13.7185 5.97429 13.6376 6.04671 13.5548C6.46102 13.0808 6.94719 12.5475 7.5141 12.1664C8.10229 11.7709 8.81573 11.5132 9.65668 11.6491L9.41733 13.1299C9.04878 13.0703 8.71534 13.1662 8.35106 13.4111C7.9655 13.6704 7.59361 14.0643 7.17604 14.542C7.11491 14.6119 7.05237 14.6842 6.98853 14.758C6.64357 15.1567 6.261 15.5988 5.86126 15.9469C5.38072 16.3653 4.76448 16.7505 4 16.7505C3.28621 16.7505 2.71669 16.4725 2.29929 16.0319C1.90296 15.6136 1.67119 15.0797 1.52886 14.5815C1.24982 13.6049 1.24994 12.5199 1.25 12.0214C1.25 12.0143 1.25 12.0073 1.25 12.0005C1.25 11.9936 1.25 11.9867 1.25 11.9796C1.24994 11.4811 1.24982 10.3961 1.52886 9.41945C1.67119 8.9213 1.90296 8.38741 2.29929 7.96905C2.71669 7.52847 3.28621 7.25049 4 7.25049C4.45094 7.25049 5.03706 7.4078 5.60154 7.60018C6.19293 7.80173 6.85462 8.07557 7.49396 8.37169C8.13392 8.6681 8.76347 8.99237 9.29071 9.29833C9.79725 9.59227 10.2722 9.9047 10.5517 10.1825L9.4943 11.2464C9.36434 11.1173 9.03976 10.887 8.53785 10.5957C8.05666 10.3165 7.46883 10.0131 6.86355 9.73279C6.25764 9.45215 5.6462 9.20012 5.11765 9.01999C4.56219 8.83068 4.18156 8.75049 4 8.75049C3.7138 8.75049 3.53332 8.84751 3.38822 9.00067C3.22205 9.17607 3.07882 9.45467 2.97115 9.83153Z" fill="#17191A"/>
<path fill-rule="evenodd" clip-rule="evenodd" d="M9.0195 18.8828C8.83019 19.4382 8.75 19.8189 8.75 20.0004C8.75 20.2866 8.84702 20.4671 9.00018 20.6122C9.17558 20.7784 9.45419 20.9216 9.83104 21.0293C10.5905 21.2463 11.4886 21.2504 12 21.2504C12.5114 21.2504 13.4095 21.2463 14.169 21.0293C14.5458 20.9216 14.8244 20.7784 14.9998 20.6122C15.153 20.4671 15.25 20.2866 15.25 20.0004C15.25 19.7637 15.1346 19.4891 14.8159 19.1208C14.5448 18.8076 14.2002 18.5067 13.8016 18.1587C13.7229 18.09 13.6421 18.0194 13.5593 17.9465C13.087 17.5308 12.5559 17.0431 12.1765 16.4752C11.7829 15.8862 11.5268 15.1728 11.6626 14.3328L13.1434 14.5721C13.0837 14.9416 13.1795 15.2764 13.4237 15.6419C13.682 16.0286 14.0746 16.4017 14.5504 16.8206C14.6203 16.8821 14.6925 16.945 14.7662 17.0092C15.1633 17.3552 15.6035 17.7387 15.9501 18.1391C16.3669 18.6207 16.75 19.2372 16.75 20.0004C16.75 20.7142 16.472 21.2838 16.0314 21.7011C15.6131 22.0975 15.0792 22.3293 14.581 22.4716C13.6044 22.7506 12.5194 22.7505 12.0209 22.7504H11.9791C11.4806 22.7505 10.3956 22.7506 9.41896 22.4716C8.92082 22.3293 8.38692 22.0975 7.96857 21.7011C7.52798 21.2838 7.25 20.7142 7.25 20.0004C7.25 19.5495 7.40731 18.9634 7.59969 18.3989C7.80124 17.8075 8.07509 17.1458 8.3712 16.5065C8.66761 15.8665 8.99189 15.237 9.29784 14.7097C9.59178 14.2032 9.90421 13.7283 10.182 13.4487L11.246 14.5061C11.1168 14.6361 10.8865 14.9607 10.5952 15.4626C10.316 15.9438 10.0126 16.5316 9.7323 17.1369C9.45166 17.7428 9.19963 18.3542 9.0195 18.8828Z" fill="#17191A"/>
<path fill-rule="evenodd" clip-rule="evenodd" d="M16.5015 11.8363C15.9144 12.2328 15.2016 12.4909 14.3603 12.3549L14.5997 10.8741C14.9679 10.9336 15.2999 10.8377 15.6621 10.5932C16.0458 10.3341 16.4155 9.94027 16.831 9.46216C16.8917 9.39234 16.9538 9.32017 17.0171 9.2465C17.3604 8.84736 17.7415 8.40438 18.1401 8.05565C18.6194 7.63641 19.2349 7.25049 20 7.25049C20.7138 7.25049 21.2833 7.52847 21.7007 7.96905C22.0971 8.38741 22.3288 8.9213 22.4711 9.41945C22.7502 10.3961 22.7501 11.4811 22.75 11.9796V12.0214C22.7501 12.5199 22.7502 13.6049 22.4711 14.5815C22.3288 15.0797 22.0971 15.6136 21.7007 16.0319C21.2833 16.4725 20.7138 16.7505 20 16.7505C19.5491 16.7505 18.9629 16.5932 18.3985 16.4008C17.8071 16.1992 17.1454 15.9254 16.5061 15.6293C15.8661 15.3329 15.2365 15.0086 14.7093 14.7026C14.2028 14.4087 13.7278 14.0963 13.4483 13.8184L14.5057 12.7545C14.6357 12.8837 14.9603 13.114 15.4622 13.4053C15.9433 13.6845 16.5312 13.9878 17.1365 14.2682C17.7424 14.5488 18.3538 14.8009 18.8824 14.981C19.4378 15.1703 19.8184 15.2505 20 15.2505C20.2862 15.2505 20.4667 15.1535 20.6118 15.0003C20.778 14.8249 20.9212 14.5463 21.0289 14.1694C21.2459 13.41 21.25 12.5119 21.25 12.0005C21.25 11.4891 21.2459 10.591 21.0289 9.83153C20.9212 9.45467 20.778 9.17607 20.6118 9.00067C20.4667 8.84751 20.2862 8.75049 20 8.75049C19.7651 8.75049 19.493 8.86519 19.1277 9.18467C18.8165 9.45687 18.5181 9.80304 18.1726 10.2039C18.1048 10.2826 18.0351 10.3633 17.9632 10.4461C17.5511 10.9203 17.067 11.4545 16.5015 11.8363Z" fill="#17191A"/>
<path fill-rule="evenodd" clip-rule="evenodd" d="M12 10.2505C11.0335 10.2505 10.25 11.034 10.25 12.0005C10.25 12.967 11.0335 13.7505 12 13.7505C12.9665 13.7505 13.75 12.967 13.75 12.0005C13.75 11.034 12.9665 10.2505 12 10.2505ZM8.75 12.0005C8.75 10.2056 10.2051 8.75049 12 8.75049C13.7949 8.75049 15.25 10.2056 15.25 12.0005C15.25 13.7954 13.7949 15.2505 12 15.2505C10.2051 15.2505 8.75 13.7954 8.75 12.0005Z" fill="#17191A"/>
</svg>
