<svg width="24" height="24" viewBox="0 0 24 24" fill="none" xmlns="http://www.w3.org/2000/svg">
<path d="M11.554 11.1686L5.554 7.16864C5.247 6.96264 4.851 6.94464 4.528 7.11864C4.203 7.29264 4 7.63164 4 8.00064V16.0006C4 16.3696 4.203 16.7086 4.528 16.8826C4.675 16.9616 4.838 17.0006 5 17.0006C5.194 17.0006 5.387 16.9436 5.555 16.8326L11.555 12.8326C11.833 12.6466 12 12.3346 12 12.0006C12 11.6666 11.832 11.3546 11.554 11.1686Z" fill="#17191A"/>
<path d="M20.554 11.1686L14.554 7.16863C14.247 6.96363 13.852 6.94563 13.528 7.11863C13.203 7.29263 13 7.63163 13 8.00063V16.0006C13 16.3696 13.203 16.7086 13.528 16.8826C13.675 16.9616 13.838 17.0006 14 17.0006C14.194 17.0006 14.388 16.9436 14.555 16.8326L20.555 12.8326C20.833 12.6466 21 12.3346 21 12.0006C21 11.6666 20.832 11.3546 20.554 11.1686Z" fill="#17191A"/>
</svg>
