<svg width="24" height="24" viewBox="0 0 24 24" fill="none" xmlns="http://www.w3.org/2000/svg">
<path fill-rule="evenodd" clip-rule="evenodd" d="M4.64611 7.33875C4.88997 7.20823 5.18588 7.22254 5.41603 7.37596L11.416 11.376C11.6247 11.5151 11.75 11.7492 11.75 12C11.75 12.2508 11.6247 12.4849 11.416 12.624L5.41603 16.624C5.18588 16.7775 4.88997 16.7918 4.64611 16.6613C4.40224 16.5307 4.25 16.2766 4.25 16V8C4.25 7.7234 4.40224 7.46926 4.64611 7.33875ZM5.75 9.40139V14.5986L9.64792 12L5.75 9.40139Z" fill="#17191A"/>
<path fill-rule="evenodd" clip-rule="evenodd" d="M13.6461 7.33875C13.89 7.20823 14.1859 7.22254 14.416 7.37596L20.416 11.376C20.6247 11.5151 20.75 11.7492 20.75 12C20.75 12.2508 20.6247 12.4849 20.416 12.624L14.416 16.624C14.1859 16.7775 13.89 16.7918 13.6461 16.6613C13.4022 16.5307 13.25 16.2766 13.25 16V8C13.25 7.7234 13.4022 7.46926 13.6461 7.33875ZM14.75 9.40139V14.5986L18.6479 12L14.75 9.40139Z" fill="#17191A"/>
</svg>
