<svg width="24" height="24" viewBox="0 0 24 24" fill="none" xmlns="http://www.w3.org/2000/svg">
<path fill-rule="evenodd" clip-rule="evenodd" d="M20.3539 7.33875C20.5978 7.46926 20.75 7.7234 20.75 8V16C20.75 16.2766 20.5978 16.5307 20.3539 16.6613C20.11 16.7918 19.8141 16.7775 19.584 16.624L13.584 12.624C13.3753 12.4849 13.25 12.2508 13.25 12C13.25 11.7492 13.3753 11.5151 13.584 11.376L19.584 7.37596C19.8141 7.22254 20.11 7.20823 20.3539 7.33875ZM15.3521 12L19.25 14.5986V9.40139L15.3521 12Z" fill="#17191A"/>
<path fill-rule="evenodd" clip-rule="evenodd" d="M11.3539 7.33875C11.5978 7.46926 11.75 7.7234 11.75 8V16C11.75 16.2766 11.5978 16.5307 11.3539 16.6613C11.11 16.7918 10.8141 16.7775 10.584 16.624L4.58397 12.624C4.37533 12.4849 4.25 12.2508 4.25 12C4.25 11.7492 4.37533 11.5151 4.58397 11.376L10.584 7.37596C10.8141 7.22254 11.11 7.20823 11.3539 7.33875ZM6.35208 12L10.25 14.5986V9.40139L6.35208 12Z" fill="#17191A"/>
</svg>
