<svg width="24" height="24" viewBox="0 0 24 24" fill="none" xmlns="http://www.w3.org/2000/svg">
<path d="M19.471 7.11829C19.147 6.94529 18.75 6.96429 18.445 7.16829L12.445 11.1683C12.167 11.3543 12 11.6663 12 12.0003C12 12.3343 12.167 12.6463 12.445 12.8323L18.445 16.8323C18.612 16.9433 18.805 17.0003 19 17.0003C19.162 17.0003 19.324 16.9613 19.472 16.8823C19.797 16.7083 20 16.3693 20 16.0003V8.00029C20 7.63129 19.796 7.29229 19.471 7.11829Z" fill="#17191A"/>
<path d="M10.471 7.1183C10.146 6.9443 9.752 6.9633 9.445 7.1683L3.445 11.1683C3.167 11.3543 3 11.6663 3 12.0003C3 12.3343 3.167 12.6463 3.445 12.8323L9.445 16.8323C9.612 16.9433 9.806 17.0003 10 17.0003C10.162 17.0003 10.324 16.9613 10.472 16.8823C10.797 16.7083 11 16.3693 11 16.0003V8.0003C11 7.6313 10.796 7.2923 10.471 7.1183Z" fill="#17191A"/>
</svg>
