<svg width="24" height="24" viewBox="0 0 24 24" fill="none" xmlns="http://www.w3.org/2000/svg">
<path fill-rule="evenodd" clip-rule="evenodd" d="M4.25 4C4.25 3.03379 5.03379 2.25 6 2.25H13.3107L19.75 8.68934V20C19.75 20.9662 18.9662 21.75 18 21.75H6C5.03379 21.75 4.25 20.9662 4.25 20V4ZM6 3.75C5.86221 3.75 5.75 3.86221 5.75 4V20C5.75 20.1378 5.86221 20.25 6 20.25H18C18.1378 20.25 18.25 20.1378 18.25 20V9.31066L12.6893 3.75H6Z" fill="#17191A"/>
<path fill-rule="evenodd" clip-rule="evenodd" d="M13.75 8.25V3H12.25V9.75H19V8.25H13.75Z" fill="#17191A"/>
<path fill-rule="evenodd" clip-rule="evenodd" d="M15 15.75H9V14.25H15V15.75Z" fill="#17191A"/>
</svg>
