<svg width="24" height="24" viewBox="0 0 24 24" fill="none" xmlns="http://www.w3.org/2000/svg">
<path fill-rule="evenodd" clip-rule="evenodd" d="M4 3.75C4 2.78379 4.78379 2 5.75 2H13.0607L19.5 8.43934V19.75C19.5 20.7162 18.7162 21.5 17.75 21.5H5.75C4.78379 21.5 4 20.7162 4 19.75V3.75ZM5.75 3.5C5.61221 3.5 5.5 3.61221 5.5 3.75V19.75C5.5 19.8878 5.61221 20 5.75 20H17.75C17.8878 20 18 19.8878 18 19.75V9.06066L12.4393 3.5H5.75Z" fill="#17191A"/>
<path fill-rule="evenodd" clip-rule="evenodd" d="M13.5 8V2.75H12V9.5H18.75V8H13.5Z" fill="#17191A"/>
</svg>
