<svg width="24" height="24" viewBox="0 0 24 24" fill="none" xmlns="http://www.w3.org/2000/svg">
<path d="M9.99981 17.111C9.99981 13.741 12.7418 11 16.1108 11C17.5908 11 18.9488 11.53 20.0078 12.408V8.586L13.4218 2H6.00781C4.90481 2 4.00781 2.897 4.00781 4V20C4.00781 21.103 4.90481 22 6.00781 22H12.4608C10.9708 20.885 9.99981 19.111 9.99981 17.111ZM14.0078 5.414L16.5938 8H14.0078V5.414Z" fill="#17191A"/>
<path d="M16.221 17.111C16.221 17.051 16.169 17 16.111 17C16.051 17 16 17.052 16 17.111C16 17.17 16.052 17.221 16.111 17.221C16.17 17.221 16.221 17.17 16.221 17.111Z" fill="#17191A"/>
<path d="M21.708 21.293L19.627 19.212C19.997 18.595 20.223 17.882 20.223 17.112C20.223 14.845 18.379 13.001 16.113 13.001C13.847 13.001 12.002 14.846 12.002 17.112C12.002 19.378 13.847 21.222 16.113 21.222C16.883 21.222 17.596 20.996 18.213 20.626L20.294 22.707L21.708 21.293ZM14.001 17.111C14.001 15.947 14.948 15 16.112 15C17.276 15 18.222 15.947 18.222 17.111C18.222 18.275 17.276 19.221 16.112 19.221C14.948 19.221 14.001 18.275 14.001 17.111Z" fill="#17191A"/>
</svg>
