<svg width="24" height="24" viewBox="0 0 24 24" fill="none" xmlns="http://www.w3.org/2000/svg">
<path fill-rule="evenodd" clip-rule="evenodd" d="M5.75 8V16C5.75 18.3468 7.65321 20.25 10 20.25H15V21.75H10C6.82479 21.75 4.25 19.1752 4.25 16V8H5.75Z" fill="#17191A"/>
<path fill-rule="evenodd" clip-rule="evenodd" d="M11 3.75C10.3092 3.75 9.75 4.30921 9.75 5V15C9.75 15.6908 10.3092 16.25 11 16.25H17C17.6908 16.25 18.25 15.6908 18.25 15V8.31066L13.6893 3.75H11ZM8.25 5C8.25 3.48079 9.48079 2.25 11 2.25H14.3107L19.75 7.68934V15C19.75 16.5192 18.5192 17.75 17 17.75H11C9.48079 17.75 8.25 16.5192 8.25 15V5Z" fill="#17191A"/>
<path fill-rule="evenodd" clip-rule="evenodd" d="M13.25 6V3H14.75V6C14.75 6.69079 15.3092 7.25 16 7.25H19V8.75H16C14.4808 8.75 13.25 7.51921 13.25 6Z" fill="#17191A"/>
</svg>
