<svg width="24" height="24" viewBox="0 0 24 24" fill="none" xmlns="http://www.w3.org/2000/svg">
<path fill-rule="evenodd" clip-rule="evenodd" d="M4.25 4C4.25 3.03379 5.03379 2.25 6 2.25H13.3107L19.75 8.68934V12H18.25V9.31066L12.6893 3.75H6C5.86221 3.75 5.75 3.86221 5.75 4V20C5.75 20.1378 5.86221 20.25 6 20.25H11V21.75H6C5.03379 21.75 4.25 20.9662 4.25 20V4Z" fill="#17191A"/>
<path fill-rule="evenodd" clip-rule="evenodd" d="M13.75 8.25V3H12.25V9.75H19V8.25H13.75Z" fill="#17191A"/>
<path fill-rule="evenodd" clip-rule="evenodd" d="M12.25 17.111C12.25 14.9858 13.9858 13.25 16.111 13.25C18.2362 13.25 19.972 14.9858 19.972 17.111C19.972 19.2362 18.2362 20.972 16.111 20.972C13.9858 20.972 12.25 19.2362 12.25 17.111ZM16.111 14.75C14.8142 14.75 13.75 15.8142 13.75 17.111C13.75 18.4078 14.8142 19.472 16.111 19.472C17.4078 19.472 18.472 18.4078 18.472 17.111C18.472 15.8142 17.4078 14.75 16.111 14.75Z" fill="#17191A"/>
<path fill-rule="evenodd" clip-rule="evenodd" d="M18.8193 18.7587L21.5303 21.4697L20.4697 22.5303L17.7587 19.8193L18.8193 18.7587Z" fill="#17191A"/>
</svg>
