<svg width="24" height="24" viewBox="0 0 24 24" fill="none" xmlns="http://www.w3.org/2000/svg">
<path fill-rule="evenodd" clip-rule="evenodd" d="M4.75 3.5C4.05964 3.5 3.5 4.05964 3.5 4.75V18.75C3.5 19.4404 4.05964 20 4.75 20H18.75C19.4404 20 20 19.4404 20 18.75V4.75C20 4.05964 19.4404 3.5 18.75 3.5H4.75ZM2 4.75C2 3.23122 3.23122 2 4.75 2H18.75C20.2688 2 21.5 3.23122 21.5 4.75V18.75C21.5 20.2688 20.2688 21.5 18.75 21.5H4.75C3.23122 21.5 2 20.2688 2 18.75V4.75Z" fill="#17191A"/>
<path fill-rule="evenodd" clip-rule="evenodd" d="M7 20.75V2.75H8.5V20.75H7Z" fill="#17191A"/>
<path fill-rule="evenodd" clip-rule="evenodd" d="M7.75 8.5H2.75V7H7.75V8.5Z" fill="#17191A"/>
<path fill-rule="evenodd" clip-rule="evenodd" d="M7.75 12.5H2.75V11H7.75V12.5Z" fill="#17191A"/>
<path fill-rule="evenodd" clip-rule="evenodd" d="M7.75 16.5H2.75V15H7.75V16.5Z" fill="#17191A"/>
<path fill-rule="evenodd" clip-rule="evenodd" d="M16.5 2.75V20.75H15V2.75H16.5Z" fill="#17191A"/>
<path fill-rule="evenodd" clip-rule="evenodd" d="M15.75 15H20.75V16.5H15.75V15Z" fill="#17191A"/>
<path fill-rule="evenodd" clip-rule="evenodd" d="M15.75 11H20.75V12.5H15.75V11Z" fill="#17191A"/>
<path fill-rule="evenodd" clip-rule="evenodd" d="M15.75 7H20.75V8.5H15.75V7Z" fill="#17191A"/>
</svg>
