<svg width="24" height="24" viewBox="0 0 24 24" fill="none" xmlns="http://www.w3.org/2000/svg">
<path d="M20 17H17V20H19C19.5523 20 20 19.5523 20 19V17ZM9 20H15V4H9V20ZM17 15H20V13H17V15ZM4 15H7V13H4V15ZM17 11H20V9H17V11ZM4 11H7V9H4V11ZM4 19C4 19.5523 4.44771 20 5 20H7V17H4V19ZM20 5C20 4.44771 19.5523 4 19 4H17V7H20V5ZM4 7H7V4H5C4.44772 4 4 4.44772 4 5V7ZM22 19C22 20.6569 20.6569 22 19 22H5C3.34315 22 2 20.6569 2 19V5C2 3.34315 3.34315 2 5 2H19C20.6569 2 22 3.34315 22 5V19Z" fill="#17191A"/>
</svg>
