<svg width="24" height="24" viewBox="0 0 24 24" fill="none" xmlns="http://www.w3.org/2000/svg">
<path d="M2 5V19C2 20.7 3.3 22 5 22H9V20H5C4.4 20 4 19.6 4 19V5C4 4.4 4.4 4 5 4H9V2H5C3.3 2 2 3.3 2 5Z" fill="#17191A"/>
<path d="M19 2H15V4H19C19.6 4 20 4.4 20 5V19C20 19.6 19.6 20 19 20H15V22H19C20.7 22 22 20.7 22 19V5C22 3.3 20.7 2 19 2Z" fill="#17191A"/>
<path d="M13 8H11V11H13V8Z" fill="#17191A"/>
<path d="M13 13H11V16H13V13Z" fill="#17191A"/>
<path d="M13 3H11V6H13V3Z" fill="#17191A"/>
<path d="M13 18H11V21H13V18Z" fill="#17191A"/>
</svg>
