<svg width="24" height="24" viewBox="0 0 24 24" fill="none" xmlns="http://www.w3.org/2000/svg">
<path d="M19 2H5C3.3 2 2 3.3 2 5V9H4V5C4 4.4 4.4 4 5 4H19C19.6 4 20 4.4 20 5V9H22V5C22 3.3 20.7 2 19 2Z" fill="#17191A"/>
<path d="M20 19C20 19.6 19.6 20 19 20H5C4.4 20 4 19.6 4 19V15H2V19C2 20.7 3.3 22 5 22H19C20.7 22 22 20.7 22 19V15H20V19Z" fill="#17191A"/>
<path d="M16 11H13V13H16V11Z" fill="#17191A"/>
<path d="M11 11H8V13H11V11Z" fill="#17191A"/>
<path d="M21 11H18V13H21V11Z" fill="#17191A"/>
<path d="M6 11H3V13H6V11Z" fill="#17191A"/>
</svg>
