<svg width="24" height="24" viewBox="0 0 24 24" fill="none" xmlns="http://www.w3.org/2000/svg">
<path fill-rule="evenodd" clip-rule="evenodd" d="M2.25 5C2.25 3.48579 3.48579 2.25 5 2.25H9V3.75H5C4.31421 3.75 3.75 4.31421 3.75 5V19C3.75 19.6858 4.31421 20.25 5 20.25H9V21.75H5C3.48579 21.75 2.25 20.5142 2.25 19V5Z" fill="#17191A"/>
<path fill-rule="evenodd" clip-rule="evenodd" d="M19 3.75H15V2.25H19C20.5142 2.25 21.75 3.48579 21.75 5V19C21.75 20.5142 20.5142 21.75 19 21.75H15V20.25H19C19.6858 20.25 20.25 19.6858 20.25 19V5C20.25 4.31421 19.6858 3.75 19 3.75Z" fill="#17191A"/>
<path fill-rule="evenodd" clip-rule="evenodd" d="M11.25 11V8H12.75V11H11.25Z" fill="#17191A"/>
<path fill-rule="evenodd" clip-rule="evenodd" d="M11.25 16V13H12.75V16H11.25Z" fill="#17191A"/>
<path fill-rule="evenodd" clip-rule="evenodd" d="M11.25 21V18H12.75V21H11.25Z" fill="#17191A"/>
<path fill-rule="evenodd" clip-rule="evenodd" d="M11.25 6V3H12.75V6H11.25Z" fill="#17191A"/>
<path fill-rule="evenodd" clip-rule="evenodd" d="M11.25 21V18H12.75V21H11.25Z" fill="#17191A"/>
</svg>
