<svg width="24" height="24" viewBox="0 0 24 24" fill="none" xmlns="http://www.w3.org/2000/svg">
<path fill-rule="evenodd" clip-rule="evenodd" d="M2.25 5C2.25 3.48579 3.48579 2.25 5 2.25H19C20.5142 2.25 21.75 3.48579 21.75 5V9H20.25V5C20.25 4.31421 19.6858 3.75 19 3.75H5C4.31421 3.75 3.75 4.31421 3.75 5V9H2.25V5Z" fill="#17191A"/>
<path fill-rule="evenodd" clip-rule="evenodd" d="M3.75 15V19C3.75 19.6858 4.31421 20.25 5 20.25H19C19.6858 20.25 20.25 19.6858 20.25 19V15H21.75V19C21.75 20.5142 20.5142 21.75 19 21.75H5C3.48579 21.75 2.25 20.5142 2.25 19V15H3.75Z" fill="#17191A"/>
<path fill-rule="evenodd" clip-rule="evenodd" d="M13 11.25H16V12.75H13V11.25Z" fill="#17191A"/>
<path fill-rule="evenodd" clip-rule="evenodd" d="M8 11.25H11V12.75H8V11.25Z" fill="#17191A"/>
<path fill-rule="evenodd" clip-rule="evenodd" d="M3 11.25H6V12.75H3V11.25Z" fill="#17191A"/>
<path fill-rule="evenodd" clip-rule="evenodd" d="M18 11.25H21V12.75H18V11.25Z" fill="#17191A"/>
<path fill-rule="evenodd" clip-rule="evenodd" d="M3 11.25H6V12.75H3V11.25Z" fill="#17191A"/>
</svg>
