<svg width="24" height="24" viewBox="0 0 24 24" fill="none" xmlns="http://www.w3.org/2000/svg">
<path d="M15.978 16.3853C15.263 14.6693 14.901 12.8583 14.901 11.0003C14.901 10.1983 14.304 9.31834 13.794 8.80834C12.782 7.79634 10.818 7.79734 9.80901 8.80834C9.32801 9.36034 9.00101 10.2193 9.00101 11.0013H7.00101C7.00101 9.73734 7.50501 8.40634 8.34901 7.44234C9.27901 6.50834 10.521 6.00134 11.801 6.00134C13.081 6.00134 14.323 6.50934 15.208 7.39434C15.605 7.79034 16.901 9.22434 16.901 11.0013C16.901 12.5933 17.212 14.1473 17.824 15.6163L15.978 16.3853Z" fill="#17191A"/>
<path d="M12.051 17.3164L11.899 16.8664C11.498 15.6864 11 14.2194 11 13.0004V11.0004H13V13.0004C13 13.8894 13.439 15.1834 13.793 16.2234L13.948 16.6844L12.051 17.3164Z" fill="#17191A"/>
<path d="M8.051 18.3164C7.182 15.7134 7 13.9884 7 13.0004H9C9 13.8414 9.165 15.3354 9.949 17.6844L8.052 18.3174L8.051 18.3164Z" fill="#17191A"/>
<path d="M4 8.00039H2V5.20039C2 4.24039 2.366 3.41039 3.032 2.85539C3.651 2.25639 4.494 1.90039 5.3 1.90039H8.1V3.90039H5.3C5.01 3.90039 4.651 4.06439 4.407 4.30739L4.324 4.38139C4.055 4.59639 3.999 4.94539 3.999 5.20039L4 8.00039Z" fill="#17191A"/>
<path d="M8.1 22.1004H5.3C4.494 22.1004 3.651 21.7454 3.032 21.1464C2.366 20.5904 2 19.7604 2 18.8004V16.0004H4V18.8004C4 19.0554 4.057 19.4044 4.325 19.6204L4.407 19.6924C4.651 19.9364 5.01 20.0994 5.3 20.0994H8.1V22.1004Z" fill="#17191A"/>
<path d="M22.1 8.10037H20.1V5.30037C20.1 5.00937 19.937 4.65137 19.693 4.40737L19.621 4.32537C19.405 4.05637 19.056 4.00037 18.801 4.00037H16.001V2.00037H18.801C19.761 2.00037 20.591 2.36637 21.147 3.03237C21.746 3.65137 22.101 4.49437 22.101 5.30037L22.1 8.10037Z" fill="#17191A"/>
<path d="M18.8 22.0004H16V20.0004H18.8C19.055 20.0004 19.404 19.9434 19.62 19.6754L19.693 19.5934C19.936 19.3504 20.099 18.9914 20.099 18.7004V15.9004H22.099V18.7004C22.099 19.5074 21.744 20.3504 21.145 20.9694C20.589 21.6344 19.76 22.0004 18.8 22.0004Z" fill="#17191A"/>
</svg>
