<svg width="24" height="24" viewBox="0 0 24 24" fill="none" xmlns="http://www.w3.org/2000/svg">
<path fill-rule="evenodd" clip-rule="evenodd" d="M11.2491 13V11H12.7491V13C12.7491 14.4188 12.8476 15.519 13.1227 16.5277C13.3958 17.529 13.8532 18.4769 14.6148 19.5717L13.3834 20.4283C12.5451 19.2231 12.0024 18.121 11.6755 16.9223C11.3506 15.731 11.2491 14.4812 11.2491 13Z" fill="#17191A"/>
<path fill-rule="evenodd" clip-rule="evenodd" d="M16.6888 18.4359C15.5588 16.854 15.2491 15.0719 15.2491 13H16.7491C16.7491 14.9281 17.0394 16.346 17.9094 17.5641L16.6888 18.4359Z" fill="#17191A"/>
<path fill-rule="evenodd" clip-rule="evenodd" d="M9.45792 8.79581C8.96691 9.40467 8.74911 10.2238 8.74911 11C8.74911 11.1765 8.74823 11.3574 8.74732 11.5424C8.73889 13.2726 8.72864 15.3733 9.42025 17.794L9.42273 17.8026C9.65788 18.6649 10.023 19.3857 10.4478 20.2241C10.5202 20.3671 10.5944 20.5135 10.6699 20.6646L9.32829 21.3354C9.2598 21.1984 9.18999 21.061 9.1197 20.9226C8.69642 20.0894 8.25535 19.2212 7.97674 18.2017C7.22467 15.567 7.23747 13.2645 7.24708 11.5377C7.24811 11.3517 7.24911 11.1723 7.24911 11C7.24911 9.97618 7.53131 8.79533 8.2903 7.85419C9.07093 6.88621 10.2943 6.25 11.9991 6.25C13.7817 6.25 14.9921 7.12713 15.7314 8.14742C16.4461 9.1337 16.7491 10.2868 16.7491 11H15.2491C15.2491 10.6132 15.0521 9.7663 14.5168 9.02758C14.0061 8.32287 13.2165 7.75 11.9991 7.75C10.7039 7.75 9.92729 8.21379 9.45792 8.79581Z" fill="#17191A"/>
<path fill-rule="evenodd" clip-rule="evenodd" d="M5.68908 7.29401C5.68921 7.29369 5.68936 7.29336 4.99911 7C4.30886 6.70664 4.30902 6.70628 4.30918 6.7059L4.31037 6.7031L4.31254 6.69809L4.31886 6.68374C4.32395 6.67229 4.33083 6.65708 4.33954 6.63838C4.35696 6.60099 4.38174 6.54954 4.41428 6.48606C4.47929 6.35919 4.57562 6.18361 4.70649 5.9756C4.96764 5.56053 5.3701 5.01039 5.94113 4.46C7.09201 3.35071 8.92118 2.25 11.5991 2.25C15.5429 2.25 17.89 3.87088 19.2096 5.97674C20.4935 8.02548 20.7491 10.4412 20.7491 12C20.7491 13.4742 20.8744 14.1429 21.016 14.5298C21.084 14.7157 21.1625 14.8552 21.2633 15.0124C21.2866 15.0488 21.3139 15.09 21.3439 15.1355C21.4344 15.2723 21.5496 15.4465 21.6547 15.6358L20.3435 16.3642C20.2683 16.229 20.2016 16.128 20.1218 16.0075C20.0849 15.9516 20.0451 15.8916 20.0005 15.8219C19.8669 15.6135 19.7268 15.3718 19.6073 15.0452C19.3738 14.4071 19.2491 13.5258 19.2491 12C19.2491 10.5588 19.0047 8.47452 17.9386 6.77326C16.9083 5.12912 15.0553 3.75 11.5991 3.75C9.37704 3.75 7.90621 4.64929 6.98209 5.54C6.51562 5.98961 6.18683 6.43947 5.9761 6.7744C5.87104 6.94139 5.79627 7.07831 5.74918 7.17019C5.72566 7.21608 5.70913 7.25058 5.69925 7.27178L5.68908 7.29401Z" fill="#17191A"/>
<path fill-rule="evenodd" clip-rule="evenodd" d="M4.74911 11V12C4.74911 12.0104 4.74889 12.0208 4.74846 12.0312C4.65339 14.3128 5.12762 16.5214 5.72482 18.8107L4.2734 19.1893C3.67186 16.8834 3.14703 14.4972 3.24911 11.9846V11H4.74911Z" fill="#17191A"/>
</svg>
