<svg width="24" height="24" viewBox="0 0 24 24" fill="none" xmlns="http://www.w3.org/2000/svg">
<path fill-rule="evenodd" clip-rule="evenodd" d="M9.64791 8.61331C10.201 8.07025 10.9992 7.75039 11.8 7.75039C12.6093 7.75039 13.416 8.07709 13.9697 8.63072C14.606 9.26703 15.15 10.1866 15.15 11.0004C15.15 13.2214 15.6791 15.0202 16.2077 16.2889L17.5923 15.7119C17.1209 14.5806 16.65 12.9794 16.65 11.0004C16.65 9.61414 15.794 8.33375 15.0303 7.57006C14.184 6.72369 12.9907 6.25039 11.8 6.25039C10.6093 6.25039 9.41604 6.72369 8.56967 7.57006L8.55201 7.58772L8.53557 7.60651C7.71549 8.54375 7.25 9.81941 7.25 11.0004H8.75C8.75 10.1892 9.07816 9.27466 9.64791 8.61331Z" fill="#17191A"/>
<path fill-rule="evenodd" clip-rule="evenodd" d="M11.25 13.0004V11.0004H12.75V13.0004C12.75 13.4933 12.8762 14.112 13.0711 14.7943C13.217 15.305 13.3886 15.81 13.5527 16.293C13.6069 16.4523 13.6602 16.6093 13.7115 16.7632L12.2885 17.2376C12.2426 17.1 12.193 16.954 12.1412 16.8016C11.9748 16.3118 11.7859 15.7562 11.6289 15.2064C11.4238 14.4888 11.25 13.7075 11.25 13.0004Z" fill="#17191A"/>
<path fill-rule="evenodd" clip-rule="evenodd" d="M8.28347 18.2225C8.07977 17.6116 7.25 15.1229 7.25 13.0004H8.75C8.75 14.86 9.50616 17.1472 9.71151 17.7632L8.28849 18.2376L8.28347 18.2225Z" fill="#17191A"/>
<path fill-rule="evenodd" clip-rule="evenodd" d="M5.3 3.65039C4.93413 3.65039 4.5167 3.84435 4.23033 4.13072L4.20096 4.16009L4.16852 4.18604C3.89492 4.40492 3.75 4.75791 3.75 5.20039V8.00039H2.25V5.20039C2.25 4.45434 2.49742 3.62147 3.19883 3.0413C3.71265 2.54136 4.48151 2.15039 5.3 2.15039H8.1V3.65039H5.3Z" fill="#17191A"/>
<path fill-rule="evenodd" clip-rule="evenodd" d="M2.25 18.8004V16.0004H3.75V18.8004C3.75 19.2429 3.89492 19.5959 4.16852 19.8147L4.20096 19.8407L4.23033 19.8701C4.5167 20.1564 4.93413 20.3504 5.3 20.3504H8.1V21.8504H5.3C4.48151 21.8504 3.71265 21.4594 3.19883 20.9595C2.49742 20.3793 2.25 19.5464 2.25 18.8004Z" fill="#17191A"/>
<path fill-rule="evenodd" clip-rule="evenodd" d="M18.8 3.75039H16V2.25039H18.8C19.5461 2.25039 20.3789 2.49781 20.9591 3.19922C21.459 3.71304 21.85 4.4819 21.85 5.30039V8.10039H20.35V5.30039C20.35 4.93452 20.156 4.5171 19.8697 4.23072L19.8403 4.20135L19.8143 4.16891C19.5955 3.89531 19.2425 3.75039 18.8 3.75039Z" fill="#17191A"/>
<path fill-rule="evenodd" clip-rule="evenodd" d="M21.85 15.9004V18.7004C21.85 19.5189 21.459 20.2877 20.9591 20.8016C20.3789 21.503 19.5461 21.7504 18.8 21.7504H16V20.2504H18.8C19.2425 20.2504 19.5955 20.1055 19.8143 19.8319L19.8403 19.7994L19.8697 19.7701C20.156 19.4837 20.35 19.0663 20.35 18.7004V15.9004H21.85Z" fill="#17191A"/>
</svg>
