<svg width="24" height="24" viewBox="0 0 24 24" fill="none" xmlns="http://www.w3.org/2000/svg">
<path d="M12.9998 11H10.9998V13C10.9998 15.879 11.3468 17.938 13.1788 20.571L14.8218 19.428C13.4428 17.447 13.0008 15.885 13.0008 12.999V10.999L12.9998 11Z" fill="#17191A"/>
<path d="M14.9998 13C14.9998 15.453 15.4438 17.122 16.4858 18.581L18.1128 17.419C17.3328 16.326 16.9998 15.004 16.9998 13H14.9998Z" fill="#17191A"/>
<path d="M9.66175 17.726C8.97875 15.334 8.98975 13.234 8.99775 11.546L8.99975 11C8.99975 10.296 9.21575 8 11.9997 8C14.4457 8 14.9997 10.534 14.9997 11H16.9997C16.9997 9.256 15.5327 6 11.9997 6C8.54575 6 6.99975 8.511 6.99975 11L6.99775 11.535C6.98875 13.255 6.97675 15.609 7.73475 18.263C8.01875 19.303 8.46275 20.18 8.89275 21.027L9.10475 21.448L10.8937 20.553L10.6757 20.122C10.2737 19.329 9.89475 18.58 9.66175 17.726Z" fill="#17191A"/>
<path d="M21.5668 15.02C21.2508 14.54 20.9998 14.161 20.9998 12C20.9998 9.654 20.3218 2 11.5998 2C6.10177 2 4.15977 6.42 4.07877 6.609L5.91677 7.396C5.97777 7.257 7.45277 4 11.5988 4C18.0378 4 18.9988 9.012 18.9988 12C18.9988 14.569 19.3548 15.301 19.8978 16.122C19.9708 16.233 20.0478 16.349 20.1248 16.485L21.8728 15.514C21.7688 15.327 21.6668 15.17 21.5658 15.019L21.5668 15.02Z" fill="#17191A"/>
<path d="M4.99977 11H2.99977V11.958C2.88977 14.616 3.47477 17.117 4.03177 19.252L5.96777 18.746C5.32177 16.271 4.90977 14.184 4.99977 11.999V10.999V11Z" fill="#17191A"/>
</svg>
