<svg width="24" height="24" viewBox="0 0 24 24" fill="none" xmlns="http://www.w3.org/2000/svg">
<path fill-rule="evenodd" clip-rule="evenodd" d="M11.1215 2.75992L11 3.50001C11.1215 2.75992 11.122 2.76 11.1226 2.76009L11.1236 2.76026L11.1258 2.76064L11.1306 2.76146L11.1414 2.76343C11.1492 2.76489 11.1582 2.76666 11.1683 2.7688C11.1884 2.77306 11.213 2.77875 11.2417 2.78628C11.299 2.80135 11.3726 2.82376 11.4594 2.85669C11.6331 2.92267 11.8585 3.03054 12.1095 3.20493C12.6165 3.55715 13.2009 4.16175 13.6789 5.18133C14.3387 6.58695 14.5511 8.32976 14.0738 10.5996C14.6321 10.1427 15.1862 9.37054 15.197 8.02201C15.1996 7.69762 15.4105 7.41167 15.7196 7.31331C16.0287 7.21495 16.3661 7.32649 16.5556 7.58974L15.947 8.02801C16.5556 7.58974 16.5555 7.58954 16.5556 7.58974L16.557 7.5917L16.5592 7.59471L16.5657 7.60388L16.5871 7.63461C16.605 7.66054 16.63 7.69729 16.6611 7.74436C16.7232 7.83847 16.8098 7.97401 16.9125 8.14689C17.1178 8.49226 17.389 8.98889 17.6599 9.60384C18.1992 10.8284 18.75 12.5522 18.75 14.5C18.75 16.1312 18.34 17.4045 17.6865 18.3848C17.0362 19.3603 16.1744 20.0013 15.3354 20.4208C14.4994 20.8388 13.6724 21.0441 13.0608 21.1461C12.7532 21.1973 12.4952 21.2232 12.3112 21.2364C12.2191 21.243 12.1452 21.2464 12.0924 21.2481C12.066 21.249 12.0448 21.2495 12.0293 21.2497L12.0103 21.25L12.004 21.25L12.0017 21.25C12.0013 21.25 12 21.25 12 20.5C12 21.25 11.9996 21.25 11.9992 21.25L11.996 21.25L11.9897 21.25L11.9707 21.2497C11.9552 21.2495 11.934 21.249 11.9076 21.2481C11.8548 21.2464 11.7809 21.243 11.6888 21.2364C11.5048 21.2232 11.2468 21.1973 10.9392 21.1461C10.3276 21.0441 9.50063 20.8388 8.66459 20.4208C7.82562 20.0013 6.96383 19.3603 6.31346 18.3848C5.65996 17.4045 5.25 16.1312 5.25 14.5C5.25 12.9099 5.51574 11.6774 6.07938 10.5642C6.63463 9.46761 7.45463 8.53771 8.46667 7.52568C9.35231 6.64004 9.80039 5.62664 10.0267 4.82441C10.1395 4.42431 10.1956 4.08214 10.2233 3.84391C10.2371 3.72506 10.2438 3.63288 10.2471 3.57327C10.2487 3.54348 10.2494 3.52191 10.2497 3.50928L10.25 3.49718L10.25 3.49858C10.2504 3.27878 10.3472 3.07022 10.5149 2.92804C10.6826 2.78573 10.9044 2.72427 11.1215 2.75992ZM10.25 3.49718C10.25 3.49723 10.25 3.4966 10.25 3.49718V3.49718ZM11.9993 19.75H12.0007L12.0051 19.7499C12.0123 19.7498 12.0249 19.7495 12.0424 19.749C12.0775 19.7478 12.1324 19.7453 12.2044 19.7402C12.3485 19.7299 12.5593 19.7089 12.8142 19.6665C13.3276 19.5809 14.0006 19.4112 14.6646 19.0792C15.3256 18.7487 15.9638 18.2647 16.4385 17.5527C16.91 16.8455 17.25 15.8688 17.25 14.5C17.25 12.8268 16.7743 11.3146 16.2871 10.2084C16.2785 10.1889 16.2699 10.1695 16.2613 10.1503C15.9139 10.9206 15.4009 11.4799 14.8801 11.8735C14.435 12.2098 13.9939 12.4192 13.6644 12.5451C13.4987 12.6083 13.3585 12.6515 13.2563 12.6796C13.2051 12.6937 13.1631 12.7041 13.132 12.7113C13.1164 12.7149 13.1035 12.7177 13.0934 12.7199L13.0805 12.7226L13.0757 12.7235L13.0737 12.7239C13.0733 12.724 13.072 12.7242 12.929 11.988L13.072 12.7242C12.8121 12.7747 12.5449 12.6845 12.3688 12.4867C12.1928 12.289 12.134 12.0131 12.2143 11.7608C13.1179 8.9183 12.9227 7.10056 12.3211 5.81868C12.0816 5.30795 11.8235 4.96186 11.5951 4.72845C11.5614 4.88571 11.5204 5.05424 11.4703 5.23161C11.1951 6.20737 10.6417 7.47197 9.52733 8.58634C8.53937 9.5743 7.86087 10.3664 7.41762 11.2418C6.98276 12.1006 6.75 13.0901 6.75 14.5C6.75 15.8688 7.09004 16.8455 7.56154 17.5527C8.03617 18.2647 8.67438 18.7487 9.33541 19.0792C9.99937 19.4112 10.6724 19.5809 11.1858 19.6665C11.4407 19.7089 11.6515 19.7299 11.7956 19.7402C11.8676 19.7453 11.9225 19.7478 11.9576 19.749C11.9751 19.7495 11.9877 19.7498 11.9949 19.7499L11.9993 19.75Z" fill="#17191A"/>
</svg>
