<svg width="24" height="24" viewBox="0 0 24 24" fill="none" xmlns="http://www.w3.org/2000/svg">
<path d="M16.76 7.44364C16.507 7.09164 16.055 6.94564 15.646 7.07464C15.233 7.20564 14.953 7.58764 14.949 8.01964C14.943 8.78264 14.747 9.35564 14.473 9.78464C14.73 7.98064 14.541 6.42664 13.907 5.07564C12.864 2.85264 11.335 2.54164 11.164 2.51364C10.877 2.46464 10.582 2.54964 10.359 2.73664C10.135 2.92464 10.005 3.20264 10.002 3.49364C10.002 3.51464 9.95695 5.68264 8.29195 7.34864C6.10995 9.53064 5.00195 11.2356 5.00195 14.4996C5.00195 20.0366 9.58095 21.4996 12.002 21.4996C14.423 21.4996 19.002 20.0366 19.002 14.4996C19.002 10.6006 16.852 7.57064 16.76 7.44364Z" fill="#17191A"/>
</svg>
