<svg width="24" height="24" viewBox="0 0 24 24" fill="none" xmlns="http://www.w3.org/2000/svg">
<path d="M14 1.25C14.9665 1.25 15.75 2.0335 15.75 3V4C15.75 4.69772 15.3407 5.29804 14.75 5.5791V7.75684C17.6711 8.86614 19.75 11.6878 19.75 15C19.75 19.2802 16.2802 22.75 12 22.75C7.71979 22.75 4.25 19.2802 4.25 15C4.25 11.6878 6.32885 8.86614 9.25 7.75684V5.5791C8.65928 5.29804 8.25 4.69772 8.25 4V3C8.25 2.0335 9.0335 1.25 10 1.25H14ZM10.75 8.85352L10.2139 9.0127C7.63152 9.78185 5.75 12.1715 5.75 15C5.75 18.4518 8.54821 21.25 12 21.25C15.4518 21.25 18.25 18.4518 18.25 15C18.25 12.1715 16.3685 9.78185 13.7861 9.0127L13.25 8.85352V5.75H10.75V8.85352ZM15.2051 13.2881C15.4284 13.2546 15.7314 13.249 16.0273 13.4004C16.3422 13.5615 16.5269 13.8355 16.626 14.1162C16.7195 14.3814 16.75 14.6849 16.75 15C16.7499 17.6232 14.6232 19.75 12 19.75C9.37682 19.75 7.25006 17.6232 7.25 15C7.25002 14.6849 7.28046 14.3814 7.37402 14.1162C7.47315 13.8355 7.65776 13.5615 7.97266 13.4004C8.26865 13.249 8.57162 13.2546 8.79492 13.2881C9.01935 13.3218 9.24266 13.397 9.43848 13.4717C9.63673 13.5473 9.85449 13.6411 10.0576 13.7275C10.2682 13.8172 10.4791 13.9057 10.6973 13.9844C11.1357 14.1425 11.5698 14.25 12 14.25C12.4302 14.25 12.8643 14.1425 13.3027 13.9844C13.5209 13.9057 13.7318 13.8172 13.9424 13.7275C14.1455 13.6411 14.3633 13.5473 14.5615 13.4717C14.7573 13.397 14.9807 13.3218 15.2051 13.2881ZM15.0957 14.873C14.9321 14.9355 14.7527 15.0137 14.5303 15.1084C14.3154 15.1999 14.0717 15.3017 13.8115 15.3955C13.2929 15.5825 12.6742 15.75 12 15.75C11.3258 15.75 10.7071 15.5825 10.1885 15.3955C9.92828 15.3017 9.68464 15.1999 9.46973 15.1084C9.24732 15.0137 9.06794 14.9355 8.9043 14.873C8.84814 14.8516 8.79859 14.8354 8.75586 14.8213C8.75236 14.8707 8.75001 14.9299 8.75 15C8.75006 16.7947 10.2052 18.25 12 18.25C13.7948 18.25 15.2499 16.7947 15.25 15C15.25 14.9298 15.2467 14.8707 15.2432 14.8213C15.2006 14.8353 15.1515 14.8518 15.0957 14.873ZM10 2.75C9.86193 2.75 9.75 2.86193 9.75 3V4C9.75 4.13807 9.86193 4.25 10 4.25H14C14.1381 4.25 14.25 4.13807 14.25 4V3C14.25 2.86193 14.1381 2.75 14 2.75H10Z" fill="#17191A"/>
</svg>
