<svg width="24" height="24" viewBox="0 0 24 24" fill="none" xmlns="http://www.w3.org/2000/svg">
<path d="M16.274 13.256C15.541 12.771 14.73 13.119 13.946 13.454C13.346 13.71 12.669 14 12 14C11.331 14 10.653 13.71 10.054 13.454C9.26902 13.12 8.45902 12.771 7.72502 13.256C6.99902 13.735 6.99902 14.688 6.99902 15C6.99902 17.757 9.24202 20 11.999 20C14.756 20 16.999 17.757 16.999 15C16.999 14.688 17 13.734 16.274 13.256Z" fill="#17191A"/>
<path d="M15 7.58602V5.72102C15.595 5.37402 16 4.73602 16 3.99902V2.99902C16 1.89602 15.103 0.999023 14 0.999023H10C8.897 0.999023 8 1.89602 8 2.99902V3.99902C8 4.73602 8.405 5.37402 9 5.72102V7.58602C6.022 8.79502 4 11.743 4 15C4 19.411 7.589 23 12 23C16.411 23 20 19.411 20 15C20 11.744 17.978 8.79602 15 7.58602ZM10 3.00002H14V4.00002H10V3.00002ZM12 21C8.691 21 6 18.309 6 15C6 12.367 7.762 10.003 10.285 9.25202L11 9.03902V5.99902H13V9.03902L13.715 9.25202C16.237 10.003 18 12.367 18 15C18 18.309 15.309 21 12 21Z" fill="#17191A"/>
</svg>
