<svg width="24" height="24" viewBox="0 0 24 24" fill="none" xmlns="http://www.w3.org/2000/svg">
<path d="M12 7C9.243 7 7 9.243 7 12C7 14.757 9.243 17 12 17C14.757 17 17 14.757 17 12C17 9.243 14.757 7 12 7ZM12 15C10.346 15 9 13.654 9 12C9 10.346 10.346 9 12 9C13.654 9 15 10.346 15 12C15 13.654 13.654 15 12 15Z" fill="#17191A"/>
<path d="M4 4H7V2H4C2.897 2 2 2.897 2 4V7H4V4Z" fill="#17191A"/>
<path d="M20 2H17V4H20V7H22V4C22 2.897 21.103 2 20 2Z" fill="#17191A"/>
<path d="M20 20H17V22H20C21.103 22 22 21.103 22 20V17H20V20Z" fill="#17191A"/>
<path d="M4 17H2V20C2 21.103 2.897 22 4 22H7V20H4V17Z" fill="#17191A"/>
</svg>
