<svg width="24" height="24" viewBox="0 0 24 24" fill="none" xmlns="http://www.w3.org/2000/svg">
<path fill-rule="evenodd" clip-rule="evenodd" d="M12 8.75C10.2051 8.75 8.75 10.2051 8.75 12C8.75 13.7949 10.2051 15.25 12 15.25C13.7949 15.25 15.25 13.7949 15.25 12C15.25 10.2051 13.7949 8.75 12 8.75ZM7.25 12C7.25 9.37665 9.37665 7.25 12 7.25C14.6234 7.25 16.75 9.37665 16.75 12C16.75 14.6234 14.6234 16.75 12 16.75C9.37665 16.75 7.25 14.6234 7.25 12Z" fill="#17191A"/>
<path fill-rule="evenodd" clip-rule="evenodd" d="M4 3.75C3.86221 3.75 3.75 3.86221 3.75 4V7H2.25V4C2.25 3.03379 3.03379 2.25 4 2.25H7V3.75H4Z" fill="#17191A"/>
<path fill-rule="evenodd" clip-rule="evenodd" d="M20 3.75H17V2.25H20C20.9662 2.25 21.75 3.03379 21.75 4V7H20.25V4C20.25 3.86221 20.1378 3.75 20 3.75Z" fill="#17191A"/>
<path fill-rule="evenodd" clip-rule="evenodd" d="M20.25 20V17H21.75V20C21.75 20.9662 20.9662 21.75 20 21.75H17V20.25H20C20.1378 20.25 20.25 20.1378 20.25 20Z" fill="#17191A"/>
<path fill-rule="evenodd" clip-rule="evenodd" d="M3.75 17V20C3.75 20.1378 3.86221 20.25 4 20.25H7V21.75H4C3.03379 21.75 2.25 20.9662 2.25 20V17H3.75Z" fill="#17191A"/>
</svg>
