<svg width="24" height="24" viewBox="0 0 24 24" fill="none" xmlns="http://www.w3.org/2000/svg">
<path fill-rule="evenodd" clip-rule="evenodd" d="M4.75 4.5C4.05921 4.5 3.5 5.05921 3.5 5.75V17.75C3.5 18.4408 4.05921 19 4.75 19H18.75C19.4408 19 20 18.4408 20 17.75V7.75C20 7.05921 19.4408 6.5 18.75 6.5H10.4393L8.80567 4.86633C8.57116 4.63182 8.25286 4.5 7.922 4.5H4.75ZM2 5.75C2 4.23079 3.23079 3 4.75 3H7.922C8.65114 3 9.35084 3.29018 9.86633 3.80567L11.0607 5H18.75C20.2692 5 21.5 6.23079 21.5 7.75V17.75C21.5 19.2692 20.2692 20.5 18.75 20.5H4.75C3.23079 20.5 2 19.2692 2 17.75V5.75Z" fill="#17191A"/>
</svg>
