<svg width="24" height="24" viewBox="0 0 24 24" fill="none" xmlns="http://www.w3.org/2000/svg">
<path d="M22.084 11.949C21.717 11.355 21.08 11 20.382 11H20V8C20 6.346 18.654 5 17 5H11.414L10.293 3.879C9.726 3.312 8.973 3 8.172 3H5C3.346 3 2 4.346 2 6V18C2 19.654 3.346 21 5 21H16.763C17.908 21 18.936 20.364 19.447 19.341L22.172 13.895C22.484 13.271 22.452 12.544 22.085 11.95L22.084 11.949ZM17.657 18.447C17.486 18.788 17.143 19 16.762 19H5C4.516 19 4.111 18.654 4.02 18.197L6.619 13H20.383L17.658 18.447H17.657Z" fill="#17191A"/>
</svg>
