<svg width="24" height="24" viewBox="0 0 24 24" fill="none" xmlns="http://www.w3.org/2000/svg">
<path fill-rule="evenodd" clip-rule="evenodd" d="M5 4.75C4.30921 4.75 3.75 5.30921 3.75 6V18C3.75 18.6908 4.30921 19.25 5 19.25H19C19.6908 19.25 20.25 18.6908 20.25 18V8C20.25 7.30921 19.6908 6.75 19 6.75H10.6893L9.05567 5.11633C8.82116 4.88182 8.50286 4.75 8.172 4.75H5ZM2.25 6C2.25 4.48079 3.48079 3.25 5 3.25H8.172C8.90114 3.25 9.60084 3.54018 10.1163 4.05567L11.3107 5.25H19C20.5192 5.25 21.75 6.48079 21.75 8V18C21.75 19.5192 20.5192 20.75 19 20.75H5C3.48079 20.75 2.25 19.5192 2.25 18V6Z" fill="#17191A"/>
<path fill-rule="evenodd" clip-rule="evenodd" d="M16 13.75H8V12.25H16V13.75Z" fill="#17191A"/>
</svg>
