<svg width="24" height="24" viewBox="0 0 24 24" fill="none" xmlns="http://www.w3.org/2000/svg">
<path fill-rule="evenodd" clip-rule="evenodd" d="M5 4.75C4.30921 4.75 3.75 5.30921 3.75 6V14.8235L5.05278 12.2184C5.05268 12.2186 5.05288 12.2182 5.05278 12.2184C5.34908 11.6246 5.9565 11.25 6.618 11.25H18.25V8C18.25 7.30921 17.6908 6.75 17 6.75H10.6893L9.05567 5.11633C8.82116 4.88182 8.50286 4.75 8.172 4.75H5ZM19.75 11.25H20.382C21.6818 11.25 22.5295 12.6181 21.9468 13.7825M21.9468 13.7825L19.2228 19.2294C19.2228 19.2294 19.2228 19.2294 19.2228 19.2294C18.7569 20.1613 17.8053 20.75 16.763 20.75H5C3.48079 20.75 2.25 19.5192 2.25 18V6C2.25 4.48079 3.48079 3.25 5 3.25H8.172C8.90114 3.25 9.60084 3.54018 10.1163 4.05567L11.3107 5.25H17C18.5192 5.25 19.75 6.48079 19.75 8V11.25M3.75981 18.1575L6.3948 12.8885C6.43661 12.8046 6.52372 12.75 6.618 12.75H20.382C20.5681 12.75 20.6883 12.9456 20.6054 13.1112L17.8812 18.5585C17.6691 18.9827 17.2367 19.25 16.763 19.25H5C4.36255 19.25 3.83715 18.7738 3.75981 18.1575Z" fill="#17191A"/>
</svg>
