<svg width="24" height="24" viewBox="0 0 24 24" fill="none" xmlns="http://www.w3.org/2000/svg">
<path d="M22 12C22 10.649 21.727 9.36002 21.239 8.18302C21.237 8.17802 21.237 8.17202 21.235 8.16702C21.235 8.16502 21.232 8.16402 21.231 8.16202C19.723 4.54702 16.154 1.99902 11.999 1.99902C6.486 2.00002 2 6.48602 2 12C2 15.294 3.608 18.212 6.073 20.035C6.078 20.039 6.079 20.045 6.084 20.05C6.098 20.063 6.116 20.066 6.13 20.078C7.781 21.281 9.806 22 12 22C14.637 22 17.033 20.966 18.822 19.291C18.836 19.281 18.853 19.277 18.867 19.266C18.89 19.248 18.9 19.221 18.921 19.201C20.815 17.38 22 14.828 22 12ZM18.279 16.941L16.945 15.283L18.331 10.662L19.735 9.99202C19.902 10.635 20 11.306 20 12C20 13.865 19.353 15.579 18.279 16.941ZM10.908 14.5L9.656 10.324L13 7.76102L16.344 10.324L15.092 14.5H10.908ZM18.996 8.12802L17.623 8.78402L14.001 6.00702V4.26402C16.145 4.81902 17.945 6.23602 18.997 8.12902L18.996 8.12802ZM12 4.00002V6.00702L8.315 8.83202L5.215 7.78202C6.629 5.51602 9.138 4.00002 12 4.00002ZM4 12C4 11.166 4.129 10.363 4.367 9.60602L7.691 10.731L9.046 15.249L6.646 17.925C5.027 16.46 4.001 14.35 4.001 11.999L4 12ZM8.294 19.083L10.611 16.5H15.357L16.846 18.351C15.499 19.381 13.823 20 12 20C10.663 20 9.403 19.666 8.294 19.083Z" fill="#17191A"/>
</svg>
