<svg width="24" height="24" viewBox="0 0 24 24" fill="none" xmlns="http://www.w3.org/2000/svg">
<path fill-rule="evenodd" clip-rule="evenodd" d="M12 3.75C7.44365 3.75 3.75 7.44365 3.75 12C3.75 16.5563 7.44365 20.25 12 20.25C16.5563 20.25 20.25 16.5563 20.25 12C20.25 7.44365 16.5563 3.75 12 3.75ZM2.25 12C2.25 6.61522 6.61522 2.25 12 2.25C17.3848 2.25 21.75 6.61522 21.75 12C21.75 17.3848 17.3848 21.75 12 21.75C6.61522 21.75 2.25 17.3848 2.25 12Z" fill="#17191A"/>
<path fill-rule="evenodd" clip-rule="evenodd" d="M12.5437 5.9048C12.8129 5.6984 13.1871 5.6984 13.4563 5.9048L17.9563 9.35479C18.2036 9.54434 18.3079 9.86699 18.2184 10.1654L16.5544 15.7154C16.4593 16.0327 16.1673 16.25 15.836 16.25H10.164C9.83275 16.25 9.54073 16.0327 9.44559 15.7154L7.78159 10.1654C7.69213 9.86699 7.79644 9.54434 8.04368 9.35479L12.5437 5.9048ZM9.36703 10.2303L10.7221 14.75H15.2779L16.633 10.2303L13 7.44505L9.36703 10.2303Z" fill="#17191A"/>
<path fill-rule="evenodd" clip-rule="evenodd" d="M3.06462 8.10945C3.19748 7.71712 3.62322 7.50677 4.01555 7.63962L8.74055 9.23962C9.13288 9.37248 9.34323 9.79822 9.21038 10.1906C9.07752 10.5829 8.65178 10.7932 8.25945 10.6604L3.53445 9.06038C3.14212 8.92752 2.93177 8.50178 3.06462 8.10945Z" fill="#17191A"/>
<path fill-rule="evenodd" clip-rule="evenodd" d="M13 2.305C13.4142 2.305 13.75 2.64079 13.75 3.055V6.5C13.75 6.91421 13.4142 7.25 13 7.25C12.5858 7.25 12.25 6.91421 12.25 6.5V3.055C12.25 2.64079 12.5858 2.305 13 2.305Z" fill="#17191A"/>
<path fill-rule="evenodd" clip-rule="evenodd" d="M21.0099 8.27497C21.1883 8.6488 21.0299 9.09647 20.656 9.27487L17.823 10.6269C17.4492 10.8053 17.0015 10.6469 16.8231 10.273C16.6447 9.8992 16.8032 9.45153 17.177 9.27313L20.01 7.92113C20.3838 7.74273 20.8315 7.90115 21.0099 8.27497Z" fill="#17191A"/>
<path fill-rule="evenodd" clip-rule="evenodd" d="M15.3659 14.9156C15.6886 14.656 16.1607 14.7071 16.4204 15.0299L18.8234 18.0169C19.083 18.3396 19.0319 18.8117 18.7091 19.0714C18.3864 19.331 17.9143 19.2799 17.6546 18.9571L15.2516 15.9701C14.992 15.6474 15.0431 15.1753 15.3659 14.9156Z" fill="#17191A"/>
<path fill-rule="evenodd" clip-rule="evenodd" d="M10.6647 14.9416C10.9731 15.2182 10.9989 15.6923 10.7224 16.0007L7.30937 19.8067C7.03284 20.1151 6.55866 20.1409 6.25028 19.8644C5.9419 19.5878 5.91609 19.1137 6.19263 18.8053L9.60563 14.9993C9.88216 14.6909 10.3563 14.6651 10.6647 14.9416Z" fill="#17191A"/>
</svg>
