<svg width="24" height="24" viewBox="0 0 24 24" fill="none" xmlns="http://www.w3.org/2000/svg">
<path d="M18.0009 19.9998V16.9998H19.9999C20.7119 16.9998 21.3699 16.6218 21.7279 16.0068C22.0859 15.3918 22.0909 14.6328 21.7399 14.0138L21.3799 13.3778C21.6839 12.7818 21.6699 12.0698 21.3379 11.4838L21.0139 10.9128C21.3349 10.3098 21.3279 9.58284 20.9889 8.98584L18.7389 5.01384C18.3839 4.38684 17.7199 4.00084 16.9999 3.99984C16.2809 3.99984 15.6159 4.38684 15.2609 5.01384L15.2549 5.02484L12.8289 1.43984C12.4579 0.889844 11.5449 0.889844 11.1729 1.43984L8.74591 5.02684L8.73891 5.01484C8.38391 4.38784 7.71991 4.00184 6.99991 4.00084C6.28091 4.00084 5.61591 4.38784 5.26091 5.01484L3.01091 8.98684C2.67291 9.58384 2.66491 10.3108 2.98591 10.9138L2.66191 11.4848C2.32991 12.0708 2.31591 12.7828 2.61991 13.3788L2.25991 14.0148C1.90891 14.6338 1.91391 15.3928 2.27191 16.0078C2.62991 16.6228 3.28791 17.0008 3.99991 17.0008H6.00091V20.0008H2.00091V22.0008H22.0009V20.0008L18.0009 19.9998ZM8.00091 16.9998H9.99991C10.7119 16.9998 11.3699 16.6218 11.7279 16.0068C12.0859 15.3918 12.0909 14.6328 11.7399 14.0138L11.3799 13.3778C11.6839 12.7818 11.6699 12.0698 11.3379 11.4838L11.0139 10.9128C11.3349 10.3098 11.3279 9.58284 10.9889 8.98584L9.84591 6.96884L12.0009 3.78484L14.1539 6.96784L13.0109 8.98684C12.6729 9.58384 12.6649 10.3108 12.9859 10.9138L12.6619 11.4848C12.3299 12.0708 12.3159 12.7828 12.6199 13.3788L12.2599 14.0148C11.9089 14.6338 11.9139 15.3928 12.2719 16.0078C12.6299 16.6228 13.2879 17.0008 13.9999 17.0008H16.0009V20.0008H8.00091V16.9998Z" fill="#17191A"/>
<path d="M6.9989 4L6.99991 4.00084L7.0009 4H6.9989Z" fill="#17191A"/>
<path d="M16.9989 4L16.9999 3.99984L17.0009 4H16.9989Z" fill="#17191A"/>
</svg>
