<svg width="24" height="24" viewBox="0 0 24 24" fill="none" xmlns="http://www.w3.org/2000/svg">
<path d="M22 20.25V21.75H2V20.25H22Z" fill="#17191A"/>
<path d="M7 6L9.25 9.972H8.183L9.598 12.47H8.567L10 15H4L5.433 12.47H4.402L5.817 9.972H4.75L7 6ZM7 4.5C6.46 4.5 5.961 4.791 5.695 5.261L3.445 9.233C3.182 9.697 3.185 10.267 3.454 10.728C3.489 10.788 3.527 10.844 3.569 10.898L3.097 11.732C2.834 12.196 2.837 12.766 3.106 13.227C3.135 13.277 3.167 13.324 3.2 13.37L2.694 14.263C2.431 14.727 2.435 15.297 2.703 15.758C2.972 16.219 3.465 16.503 3.999 16.503H9.999C10.533 16.503 11.026 16.219 11.295 15.758C11.564 15.297 11.567 14.728 11.304 14.263L10.798 13.37C10.832 13.325 10.863 13.277 10.892 13.227C11.161 12.766 11.164 12.197 10.901 11.732L10.429 10.898C10.471 10.845 10.509 10.788 10.544 10.728C10.813 10.267 10.816 9.698 10.553 9.233L8.303 5.261C8.037 4.791 7.538 4.5 6.998 4.5H7Z" fill="#17191A"/>
<path d="M11.9998 1.25C12.2488 1.25 12.4814 1.37389 12.6209 1.58008L16.0037 6.58008L14.7615 7.41992L11.9998 3.33789L9.23809 7.41992L7.99591 6.58008L11.3787 1.58008L11.4354 1.50586C11.5767 1.3443 11.7822 1.25005 11.9998 1.25Z" fill="#17191A"/>
<path d="M17 6L19.25 9.972H18.183L19.598 12.47H18.567L20 15H14L15.433 12.47H14.402L15.817 9.972H14.75L17 6ZM17 4.5C16.46 4.5 15.961 4.791 15.695 5.261L13.445 9.233C13.182 9.697 13.185 10.267 13.454 10.728C13.489 10.788 13.527 10.844 13.569 10.898L13.097 11.732C12.834 12.196 12.837 12.766 13.106 13.227C13.135 13.277 13.167 13.324 13.2 13.37L12.694 14.263C12.431 14.727 12.435 15.297 12.703 15.758C12.972 16.219 13.465 16.503 13.999 16.503H19.999C20.533 16.503 21.026 16.219 21.295 15.758C21.564 15.297 21.567 14.728 21.304 14.263L20.798 13.37C20.832 13.325 20.863 13.277 20.892 13.227C21.161 12.766 21.164 12.197 20.901 11.732L20.429 10.898C20.471 10.845 20.509 10.788 20.544 10.728C20.813 10.267 20.816 9.698 20.553 9.233L18.303 5.261C18.037 4.791 17.538 4.5 16.998 4.5H17Z" fill="#17191A"/>
<path d="M7.75 16V21H6.25V16H7.75Z" fill="#17191A"/>
<path d="M17.75 16V21H16.25V16H17.75Z" fill="#17191A"/>
</svg>
