<svg width="24" height="24" viewBox="0 0 24 24" fill="none" xmlns="http://www.w3.org/2000/svg">
<path d="M7.25 10.75C8.05 10.75 8.75 10.05 8.75 9.25C8.75 8.45 8.05 7.75 7.25 7.75C6.45 7.75 5.75 8.45 5.75 9.25C5.75 10.05 6.45 10.75 7.25 10.75Z" fill="#17191A"/>
<path fill-rule="evenodd" clip-rule="evenodd" d="M16.4484 8.76477L22.2354 13.6783L21.2646 14.8217L16.4516 10.7353L5.23728 20.3201L4.2627 19.1799L16.4484 8.76477Z" fill="#17191A"/>
<path fill-rule="evenodd" clip-rule="evenodd" d="M3.75 4.5C3.05964 4.5 2.5 5.05964 2.5 5.75V17.75C2.5 18.4404 3.05964 19 3.75 19H19.75C20.4404 19 21 18.4404 21 17.75V5.75C21 5.05964 20.4404 4.5 19.75 4.5H3.75ZM1 5.75C1 4.23122 2.23122 3 3.75 3H19.75C21.2688 3 22.5 4.23122 22.5 5.75V17.75C22.5 19.2688 21.2688 20.5 19.75 20.5H3.75C2.23122 20.5 1 19.2688 1 17.75V5.75Z" fill="#17191A"/>
</svg>
