<svg width="24" height="24" viewBox="0 0 24 24" fill="none" xmlns="http://www.w3.org/2000/svg">
<path d="M17 12C17.5523 12 18 11.5523 18 11C18 10.4477 17.5523 10 17 10C16.4477 10 16 10.4477 16 11C16 11.5523 16.4477 12 17 12Z" fill="#17191A"/>
<path d="M15 14C15.5523 14 16 13.5523 16 13C16 12.4477 15.5523 12 15 12C14.4477 12 14 12.4477 14 13C14 13.5523 14.4477 14 15 14Z" fill="#17191A"/>
<path fill-rule="evenodd" clip-rule="evenodd" d="M5 6.75C3.75736 6.75 2.75 7.75736 2.75 9V15C2.75 16.2426 3.75736 17.25 5 17.25H19C20.2426 17.25 21.25 16.2426 21.25 15V9C21.25 7.75736 20.2426 6.75 19 6.75H5ZM1.25 9C1.25 6.92893 2.92893 5.25 5 5.25H19C21.0711 5.25 22.75 6.92893 22.75 9V15C22.75 17.0711 21.0711 18.75 19 18.75H5C2.92893 18.75 1.25 17.0711 1.25 15V9Z" fill="#17191A"/>
<path fill-rule="evenodd" clip-rule="evenodd" d="M7.25 15V9H8.75V15H7.25Z" fill="#17191A"/>
<path fill-rule="evenodd" clip-rule="evenodd" d="M5 11.25H11V12.75H5V11.25Z" fill="#17191A"/>
</svg>
