<svg width="24" height="24" viewBox="0 0 24 24" fill="none" xmlns="http://www.w3.org/2000/svg">
<path d="M14.4535 10.95C15.0058 10.95 15.4535 10.5022 15.4535 9.94995C15.4535 9.39767 15.0058 8.94995 14.4535 8.94995C13.9013 8.94995 13.4535 9.39767 13.4535 9.94995C13.4535 10.5022 13.9013 10.95 14.4535 10.95Z" fill="#17191A"/>
<path d="M17.4535 12.95C18.0058 12.95 18.4535 12.5022 18.4535 11.95C18.4535 11.3977 18.0058 10.95 17.4535 10.95C16.9013 10.95 16.4535 11.3977 16.4535 11.95C16.4535 12.5022 16.9013 12.95 17.4535 12.95Z" fill="#17191A"/>
<path fill-rule="evenodd" clip-rule="evenodd" d="M4.89343 6.6C4.35884 6.80212 4.00354 7.28815 4.00354 7.85V7.87257L3.50237 16.192C3.43821 17.4476 4.80787 18.1721 5.80312 17.4502L8.05277 15.7119L8.11813 15.6792C8.13046 15.673 8.14295 15.6668 8.15562 15.6604C8.53683 15.4694 9.07457 15.2 9.75354 15.2H14.1535C14.7762 15.2 15.3452 15.3313 15.9035 15.75L15.9122 15.7565L18.104 17.4502C19.0992 18.1721 20.4688 17.4477 20.4047 16.1921L20.4046 16.1894L19.9057 8.00802C19.8319 7.25806 19.1235 6.6 18.4535 6.6H4.89343ZM6.20354 5.1V5H5.45354C3.89329 5 2.517 6.17936 2.50364 7.8258L2.0049 16.1049L2.00458 16.1106C1.8709 18.6505 4.69355 20.124 6.69706 18.6548L6.70467 18.6492L8.85386 16.9885C9.2324 16.8008 9.47089 16.7 9.75354 16.7H14.1535C14.5289 16.7 14.7594 16.768 14.9996 16.9471L17.2024 18.6492L17.21 18.6548C19.2135 20.124 22.0362 18.6505 21.9025 16.1106L21.4015 7.89321L21.4005 7.8821C21.269 6.43615 19.9807 5.1 18.4535 5.1H6.20354Z" fill="#17191A"/>
<path fill-rule="evenodd" clip-rule="evenodd" d="M7.70354 13.45V8.44995H9.20354V13.45H7.70354Z" fill="#17191A"/>
<path fill-rule="evenodd" clip-rule="evenodd" d="M5.95354 10.2H10.9535V11.7H5.95354V10.2Z" fill="#17191A"/>
</svg>
