<svg width="24" height="24" viewBox="0 0 24 24" fill="none" xmlns="http://www.w3.org/2000/svg">
<path d="M21.6955 7.97539C21.5465 6.34539 20.0855 4.90339 18.5035 4.90039H5.49954C3.70554 4.90039 2.29954 6.29639 2.30154 7.97539L1.80154 16.2474C1.73554 17.5094 2.37354 18.6604 3.46854 19.2514C4.56654 19.8454 5.87854 19.7504 6.91154 18.9914L9.03454 17.3514C9.35154 17.1944 9.57054 17.0994 9.80054 17.0994H14.2005C14.5615 17.0994 14.7305 17.1724 14.8885 17.2904L17.1095 19.0064C17.6795 19.4254 18.3455 19.6374 19.0135 19.6374C19.5325 19.6374 20.0525 19.5094 20.5325 19.2504C21.6265 18.6594 22.2645 17.5084 22.1985 16.2384L21.6965 7.97339L21.6955 7.97539ZM10.9995 12.0004H9.49954V13.5004H7.49954V12.0004H5.99954V10.0004H7.49954V8.50039H9.49954V10.0004H10.9995V12.0004ZM14.4995 11.1004C13.9475 11.1004 13.4995 10.6524 13.4995 10.1004C13.4995 9.54839 13.9475 9.10039 14.4995 9.10039C15.0515 9.10039 15.4995 9.54839 15.4995 10.1004C15.4995 10.6524 15.0515 11.1004 14.4995 11.1004ZM17.4995 13.1004C16.9475 13.1004 16.4995 12.6524 16.4995 12.1004C16.4995 11.5484 16.9475 11.1004 17.4995 11.1004C18.0515 11.1004 18.4995 11.5484 18.4995 12.1004C18.4995 12.6524 18.0515 13.1004 17.4995 13.1004Z" fill="#17191A"/>
</svg>
