<svg width="24" height="24" viewBox="0 0 24 24" fill="none" xmlns="http://www.w3.org/2000/svg">
<path d="M22.0007 20.25V21.75H2.00065V20.25H22.0007Z" fill="#17191A"/>
<path d="M6.00065 6L8.25065 9.972H7.18365L8.59865 12.47H7.56765L9.00065 15H3.00065L4.43366 12.47H3.40265L4.81765 9.972H3.75065L6.00065 6ZM6.00065 4.5C5.46065 4.5 4.96166 4.791 4.69566 5.261L2.44565 9.233C2.18265 9.697 2.18565 10.267 2.45465 10.728C2.48965 10.788 2.52765 10.844 2.56965 10.898L2.09765 11.732C1.83465 12.196 1.83765 12.766 2.10665 13.227C2.13565 13.277 2.16765 13.324 2.20065 13.37L1.69465 14.263C1.43165 14.727 1.43565 15.297 1.70365 15.758C1.97265 16.219 2.46565 16.503 2.99965 16.503H8.99965C9.53365 16.503 10.0267 16.219 10.2957 15.758C10.5647 15.297 10.5677 14.728 10.3047 14.263L9.79866 13.37C9.83266 13.325 9.86366 13.277 9.89266 13.227C10.1617 12.766 10.1647 12.197 9.90166 11.732L9.42965 10.898C9.47165 10.845 9.50965 10.788 9.54465 10.728C9.81365 10.267 9.81666 9.698 9.55366 9.233L7.30365 5.261C7.03765 4.791 6.53865 4.5 5.99865 4.5H6.00065Z" fill="#17191A"/>
<path d="M6.75065 16V21H5.25065V16H6.75065Z" fill="#17191A"/>
<path d="M22.0007 15.25V16.75H12.0007V15.25H22.0007Z" fill="#17191A"/>
<path d="M22.0007 12.25V13.75H12.0007V12.25H22.0007Z" fill="#17191A"/>
<path d="M14.7507 16V21H13.2507V16H14.7507Z" fill="#17191A"/>
<path d="M20.7507 16V21H19.2507V16H20.7507Z" fill="#17191A"/>
<path d="M20.2507 6C20.2507 5.30964 19.691 4.75 19.0007 4.75C18.3103 4.75 17.7507 5.30964 17.7507 6C17.7507 6.69036 18.3103 7.25 19.0007 7.25C19.691 7.25 20.2507 6.69036 20.2507 6ZM21.7507 6C21.7507 7.51878 20.5194 8.75 19.0007 8.75C17.4819 8.75 16.2507 7.51878 16.2507 6C16.2507 4.48122 17.4819 3.25 19.0007 3.25C20.5194 3.25 21.7507 4.48122 21.7507 6Z" fill="#17191A"/>
</svg>
