<svg width="24" height="24" viewBox="0 0 24 24" fill="none" xmlns="http://www.w3.org/2000/svg">
<path d="M12.0009 17H13.0009V20H7.00091V17H8.99991C9.71191 17 10.3699 16.622 10.7279 16.007C11.0859 15.392 11.0909 14.633 10.7399 14.014L10.3799 13.378C10.6839 12.782 10.6699 12.07 10.3379 11.484L10.0139 10.913C10.3349 10.31 10.3279 9.583 9.98891 8.986L7.73891 5.014C7.38391 4.387 6.7209 4.001 6.0009 4C5.2819 4 4.61591 4.387 4.26091 5.014L2.01091 8.986C1.67291 9.583 1.66491 10.31 1.98591 10.913L1.66191 11.484C1.32991 12.07 1.31591 12.782 1.61991 13.378L1.25991 14.014C0.908913 14.633 0.913913 15.392 1.27191 16.007C1.62991 16.622 2.28791 17 2.99991 17H5.00091V20H2.00091V22H22.0009V20H21.0009V17H22.0009V15H12.0009V17ZM19.0009 17V20H15.0009V17H19.0009Z" fill="#17191A"/>
<path d="M22.0009 12H12.0009V14H22.0009V12Z" fill="#17191A"/>
<path d="M19.0009 9C20.6549 9 22.0009 7.654 22.0009 6C22.0009 4.346 20.6549 3 19.0009 3C17.3469 3 16.0009 4.346 16.0009 6C16.0009 7.654 17.3469 9 19.0009 9ZM19.0009 5C19.5529 5 20.0009 5.449 20.0009 6C20.0009 6.551 19.5529 7 19.0009 7C18.4489 7 18.0009 6.551 18.0009 6C18.0009 5.449 18.4489 5 19.0009 5Z" fill="#17191A"/>
</svg>
