<svg width="24" height="24" viewBox="0 0 24 24" fill="none" xmlns="http://www.w3.org/2000/svg">
<path fill-rule="evenodd" clip-rule="evenodd" d="M5.41435 3.53148C5.55668 3.35357 5.77216 3.25 6 3.25H18C18.2278 3.25 18.4433 3.35357 18.5857 3.53148L22.5857 8.53148C22.8083 8.80978 22.8043 9.20634 22.5762 9.48014L12.5762 21.4801C12.4337 21.6511 12.2226 21.75 12 21.75C11.7774 21.75 11.5663 21.6511 11.4238 21.4801L1.42383 9.48014C1.19567 9.20634 1.1917 8.80978 1.41435 8.53148L5.41435 3.53148ZM6.36047 4.75L2.96821 8.99032L12 19.8285L21.0318 8.99032L17.6395 4.75H6.36047Z" fill="#17191A"/>
<path fill-rule="evenodd" clip-rule="evenodd" d="M6.35688 8.61413L9.35688 3.61413L10.6431 4.38587L7.83797 9.06112L12 19.05L16.162 9.06112L13.3569 4.38587L14.6431 3.61413L17.6431 8.61413C17.7657 8.81835 17.7839 9.06862 17.6923 9.28846L12.6923 21.2885C12.5759 21.5679 12.3028 21.75 12 21.75C11.6972 21.75 11.4241 21.5679 11.3077 21.2885L6.30769 9.28846C6.21609 9.06862 6.23435 8.81835 6.35688 8.61413Z" fill="#17191A"/>
<path fill-rule="evenodd" clip-rule="evenodd" d="M22 9.75H2V8.25H22V9.75Z" fill="#17191A"/>
</svg>
