<svg width="24" height="24" viewBox="0 0 24 24" fill="none" xmlns="http://www.w3.org/2000/svg">
<path fill-rule="evenodd" clip-rule="evenodd" d="M12.0696 10.8697L18.4696 4.46973L19.5303 5.53039L13.1303 11.9304L12.0696 10.8697Z" fill="#17191A"/>
<path fill-rule="evenodd" clip-rule="evenodd" d="M14 4.25H19.75V10H18.25V5.75H14V4.25Z" fill="#17191A"/>
<path fill-rule="evenodd" clip-rule="evenodd" d="M9 10.75C6.65279 10.75 4.75 12.6528 4.75 15C4.75 17.3472 6.65279 19.25 9 19.25C11.3472 19.25 13.25 17.3472 13.25 15C13.25 12.6528 11.3472 10.75 9 10.75ZM3.25 15C3.25 11.8244 5.82436 9.25 9 9.25C12.1756 9.25 14.75 11.8244 14.75 15C14.75 18.1756 12.1756 20.75 9 20.75C5.82436 20.75 3.25 18.1756 3.25 15Z" fill="#17191A"/>
</svg>
