<svg width="24" height="24" viewBox="0 0 24 24" fill="none" xmlns="http://www.w3.org/2000/svg">
<path fill-rule="evenodd" clip-rule="evenodd" d="M11.25 22V14H12.75V22H11.25Z" fill="#17191A"/>
<path fill-rule="evenodd" clip-rule="evenodd" d="M16 18.75H8V17.25H16V18.75Z" fill="#17191A"/>
<path fill-rule="evenodd" clip-rule="evenodd" d="M12 4.75C9.65279 4.75 7.75 6.65279 7.75 9C7.75 11.3472 9.65279 13.25 12 13.25C14.3472 13.25 16.25 11.3472 16.25 9C16.25 6.65279 14.3472 4.75 12 4.75ZM6.25 9C6.25 5.82436 8.82436 3.25 12 3.25C15.1756 3.25 17.75 5.82436 17.75 9C17.75 12.1756 15.1756 14.75 12 14.75C8.82436 14.75 6.25 12.1756 6.25 9Z" fill="#17191A"/>
</svg>
