<svg width="24" height="24" viewBox="0 0 24 24" fill="none" xmlns="http://www.w3.org/2000/svg">
<path d="M12 1C7 1 3 5 3 10V22C3 22.4 3.2 22.7 3.6 22.9C3.9 23.1 4.3 23 4.6 22.9L7.9 20.4L9.3 21.8C9.7 22.2 10.3 22.2 10.7 21.8L12 20.5L13.3 21.8C13.7 22.2 14.3 22.2 14.7 21.8L16.1 20.4L19.4 22.9C19.6 23 19.8 23.1 20 23.1C20.2 23.1 20.3 23.1 20.4 23C20.7 22.8 21 22.5 21 22.1V10.1C21 5.1 17 1.1 12 1.1V1ZM9 12C8.4 12 8 11.6 8 11C8 10.4 8.4 10 9 10C9.6 10 10 10.4 10 11C10 11.6 9.6 12 9 12ZM15 12C14.4 12 14 11.6 14 11C14 10.4 14.4 10 15 10C15.6 10 16 10.4 16 11C16 11.6 15.6 12 15 12Z" fill="#17191A"/>
</svg>
