<svg width="24" height="24" viewBox="0 0 24 24" fill="none" xmlns="http://www.w3.org/2000/svg">
<path fill-rule="evenodd" clip-rule="evenodd" d="M3.25 10C3.25 5.18579 7.18579 1.25 12 1.25C16.8142 1.25 20.75 5.18579 20.75 10V22C20.75 22.2841 20.5895 22.5438 20.3354 22.6708C20.0813 22.7979 19.7773 22.7704 19.55 22.6L16.0704 19.9903L14.5303 21.5303C14.2374 21.8232 13.7626 21.8232 13.4697 21.5303L12 20.0607L10.5303 21.5303C10.2374 21.8232 9.76256 21.8232 9.46967 21.5303L7.92962 19.9903L4.45 22.6C4.22274 22.7704 3.91868 22.7979 3.66459 22.6708C3.4105 22.5438 3.25 22.2841 3.25 22V10ZM12 2.75C8.01421 2.75 4.75 6.01421 4.75 10V20.5L7.55 18.4C7.84859 18.1761 8.26641 18.2058 8.53033 18.4697L10 19.9393L11.4697 18.4697C11.7626 18.1768 12.2374 18.1768 12.5303 18.4697L14 19.9393L15.4697 18.4697C15.7336 18.2058 16.1514 18.1761 16.45 18.4L19.25 20.5V10C19.25 6.01421 15.9858 2.75 12 2.75Z" fill="#17191A"/>
<path d="M9 12C9.55228 12 10 11.5523 10 11C10 10.4477 9.55228 10 9 10C8.44772 10 8 10.4477 8 11C8 11.5523 8.44772 12 9 12Z" fill="#17191A"/>
<path d="M15 12C15.5523 12 16 11.5523 16 11C16 10.4477 15.5523 10 15 10C14.4477 10 14 10.4477 14 11C14 11.5523 14.4477 12 15 12Z" fill="#17191A"/>
</svg>
