<svg width="24" height="24" viewBox="0 0 24 24" fill="none" xmlns="http://www.w3.org/2000/svg">
<path fill-rule="evenodd" clip-rule="evenodd" d="M11 21.7731V6.77307H12.5V21.7731H11Z" fill="#17191A"/>
<path fill-rule="evenodd" clip-rule="evenodd" d="M3 10.0231H20.5V22.5231H3V10.0231ZM4.5 11.5231V21.0231H19V11.5231H4.5Z" fill="#17191A"/>
<path fill-rule="evenodd" clip-rule="evenodd" d="M2 6.02307H21.5V11.5231H2V6.02307ZM3.5 7.52307V10.0231H20V7.52307H3.5Z" fill="#17191A"/>
<path fill-rule="evenodd" clip-rule="evenodd" d="M7.3412 3.51523C6.22335 3.37149 5.5 4.19893 5.5 4.77308C5.5 5.03143 5.6394 5.32673 5.98503 5.58373C6.33041 5.84055 6.84459 6.02308 7.45 6.02308H10.4205C10.2828 5.82288 10.1262 5.60877 9.9526 5.39253C9.21513 4.47372 8.29616 3.67242 7.3412 3.51523ZM11.75 6.77308C12.4208 6.43766 12.4207 6.43748 12.4206 6.43729L12.4198 6.43566L12.4181 6.43234L12.4128 6.42184L12.3943 6.3859C12.3784 6.35551 12.3557 6.3125 12.3262 6.25856C12.2675 6.15075 12.1818 5.99881 12.0715 5.81631C11.8516 5.45255 11.5297 4.96112 11.1224 4.45362C10.3374 3.47554 9.11006 2.27914 7.56849 2.03249L7.55883 2.03095L7.54912 2.02965C5.67247 1.77943 4 3.14888 4 4.77308C4 5.61472 4.4606 6.31942 5.08997 6.78742C5.71959 7.2556 6.55541 7.52308 7.45 7.52308H12.9635L12.4206 6.43729L11.75 6.77308Z" fill="#17191A"/>
<path fill-rule="evenodd" clip-rule="evenodd" d="M15.9509 2.02965C17.8276 1.77943 19.5 3.14888 19.5 4.77308C19.5 5.61472 19.0394 6.31942 18.4101 6.78742C17.7804 7.2556 16.9446 7.52308 16.05 7.52308H10.5365L11.0792 6.43766L11.75 6.77308C11.0792 6.43766 11.0791 6.43786 11.0792 6.43766L11.0802 6.43566L11.0819 6.43234L11.0872 6.42184L11.1058 6.3859C11.1216 6.35551 11.1444 6.3125 11.1738 6.25856C11.2326 6.15075 11.3182 5.99881 11.4285 5.81631C11.6484 5.45255 11.9703 4.96112 12.3776 4.45362C13.1627 3.47554 14.39 2.27914 15.9315 2.03249L15.9412 2.03095L15.9509 2.02965ZM13.0795 6.02308H16.05C16.6554 6.02308 17.1696 5.84055 17.515 5.58373C17.8606 5.32673 18 5.03143 18 4.77308C18 4.19893 17.2767 3.37149 16.1588 3.51523C15.2039 3.67242 14.2849 4.47372 13.5474 5.39253C13.3739 5.60877 13.2172 5.82288 13.0795 6.02308Z" fill="#17191A"/>
</svg>
