<svg width="24" height="24" viewBox="0 0 24 24" fill="none" xmlns="http://www.w3.org/2000/svg">
<path d="M11 13.0003H3V22.0003H11V13.0003Z" fill="#17191A"/>
<path d="M21 13.0003H13V22.0003H21V13.0003Z" fill="#17191A"/>
<path d="M11 5.00029H2V11.0003H11V5.00029Z" fill="#17191A"/>
<path d="M22 5.00029H13V11.0003H22V5.00029Z" fill="#17191A"/>
<path d="M7.7 5.00029C6.727 5.00029 6 4.47229 6 4.00029C6 3.78229 6.135 3.53429 6.36 3.33729C6.63 3.10129 6.985 2.97529 7.344 2.97529C7.41 2.97529 7.477 2.97929 7.543 2.98829C8.544 3.14829 9.499 4.09429 10.186 5.00129H13.814C14.499 4.09529 15.447 3.15029 16.432 2.99229C16.881 2.93129 17.322 3.05829 17.64 3.33829C17.866 3.53529 18 3.78329 18 4.00129C18 4.47329 17.272 5.00129 16.3 5.00129H19.781C19.914 4.68829 20 4.35529 20 4.00129C20 3.20329 19.62 2.41329 18.957 1.83329C18.205 1.17429 17.191 0.872295 16.142 1.01429C14.3 1.30829 12.864 2.86929 12 4.08829C11.134 2.86929 9.691 1.30729 7.833 1.01029C6.814 0.875295 5.796 1.17429 5.043 1.83329C4.38 2.41329 4.001 3.20329 4.001 4.00129C4.001 4.35529 4.087 4.68829 4.22 5.00129H7.701L7.7 5.00029Z" fill="#17191A"/>
</svg>
