<svg width="24" height="24" viewBox="0 0 24 24" fill="none" xmlns="http://www.w3.org/2000/svg">
<path d="M12.9996 16.904C14.1916 16.687 15.2996 16.094 16.1316 15.196C17.1936 14.049 17.7346 12.497 17.6136 10.939L16.9966 2.92398C16.9566 2.40298 16.5216 2.00098 15.9996 2.00098H7.99959C7.47759 2.00098 7.04259 2.40298 7.00259 2.92398L6.38559 10.94C6.26559 12.498 6.80659 14.05 7.86859 15.196C8.70159 16.096 9.80759 16.688 10.9996 16.905V20.001H6.99959V22.001H16.9996V20.001H12.9996V16.905V16.904ZM15.0736 3.99998L15.4586 8.99998H8.54059L8.92559 3.99998H15.0736Z" fill="#17191A"/>
</svg>
