<svg width="24" height="24" viewBox="0 0 24 24" fill="none" xmlns="http://www.w3.org/2000/svg">
<path fill-rule="evenodd" clip-rule="evenodd" d="M17 21.75H6.99999V20.25H17V21.75Z" fill="#17191A"/>
<path fill-rule="evenodd" clip-rule="evenodd" d="M16.539 10.75H7.46199V9.25H16.539V10.75Z" fill="#17191A"/>
<path fill-rule="evenodd" clip-rule="evenodd" d="M11.25 21V16H12.75V21H11.25Z" fill="#17191A"/>
<path fill-rule="evenodd" clip-rule="evenodd" d="M7.2522 2.94243C7.28228 2.55171 7.6081 2.25 7.99999 2.25H16C16.3919 2.25 16.7177 2.55171 16.7478 2.94243L17.3648 10.9574C17.6053 14.0821 15.1348 16.75 12 16.75C8.86603 16.75 6.39583 14.0821 6.63518 10.9577L7.2522 2.94243ZM8.69447 3.75L8.1308 11.0723C7.95831 13.3258 9.74004 15.25 12 15.25C14.2612 15.25 16.0427 13.3259 15.8692 11.0726L15.3055 3.75H8.69447Z" fill="#17191A"/>
</svg>
