<svg width="24" height="24" viewBox="0 0 24 24" fill="none" xmlns="http://www.w3.org/2000/svg">
<path d="M18.8945 2.10645C22.702 5.91437 22.7023 12.0877 18.8945 15.8955C17.1816 17.6083 14.9896 18.547 12.75 18.7188V20.25H17V21.75H7V20.25H11.25V18.7188C9.01049 18.5469 6.81836 17.6082 5.10547 15.8955L6.16602 14.834C9.38801 18.0558 14.6109 18.0557 17.833 14.834C21.0551 11.6119 21.055 6.38911 17.833 3.16699L18.8945 2.10645ZM12 2.625C15.5208 2.625 18.375 5.47918 18.375 9C18.375 12.5208 15.5208 15.375 12 15.375C8.47918 15.375 5.625 12.5208 5.625 9C5.625 5.47918 8.47918 2.625 12 2.625ZM12 4.125C9.30761 4.125 7.125 6.30761 7.125 9C7.125 11.6924 9.30761 13.875 12 13.875C14.6924 13.875 16.875 11.6924 16.875 9C16.875 6.30761 14.6924 4.125 12 4.125Z" fill="#17191A"/>
</svg>
