<svg width="24" height="24" viewBox="0 0 24 24" fill="none" xmlns="http://www.w3.org/2000/svg">
<path d="M19.0717 16.0707C22.9697 12.1717 22.9697 5.82771 19.0717 1.92871L17.6577 3.34271C20.7767 6.46171 20.7767 11.5367 17.6577 14.6567C14.5397 17.7747 9.46169 17.7767 6.34369 14.6567L4.92969 16.0707C6.62469 17.7657 8.78269 18.7217 11.0007 18.9427V19.9987H7.00069V21.9987H17.0007V19.9987H13.0007V18.9417C15.2187 18.7207 17.3767 17.7657 19.0717 16.0707Z" fill="#17191A"/>
<path d="M12.0007 15.6245C15.6537 15.6245 18.6257 12.6525 18.6257 8.99951C18.6257 5.34651 15.6537 2.37451 12.0007 2.37451C8.34767 2.37451 5.37567 5.34651 5.37567 8.99951C5.37567 12.6525 8.34767 15.6245 12.0007 15.6245Z" fill="#17191A"/>
</svg>
