<svg width="24" height="24" viewBox="0 0 24 24" fill="none" xmlns="http://www.w3.org/2000/svg">
<path d="M11.934 10.309V13.76H16.726C16.28 15.953 14.413 17.213 11.934 17.213C9.011 17.213 6.655 14.857 6.655 11.933C6.655 9.01 9.011 6.654 11.934 6.654C13.193 6.654 14.331 7.101 15.224 7.832L17.824 5.233C16.24 3.852 14.209 3 11.934 3C6.98 3 3 6.979 3 11.934C3 16.889 6.979 20.868 11.934 20.868C16.401 20.868 20.463 17.619 20.463 11.934C20.463 11.406 20.382 10.837 20.261 10.309H11.934Z" fill="#17191A"/>
</svg>
