<svg width="24" height="24" viewBox="0 0 24 24" fill="none" xmlns="http://www.w3.org/2000/svg">
<path d="M22.371 7.07125L12.372 3.07125C12.133 2.97625 11.868 2.97625 11.629 3.07125L1.628 7.07125C1.263 7.21725 1.017 7.56525 1.001 7.95825C1.001 7.97225 1.005 7.98525 1.005 8.00025H1V16.0002H3V9.61825L5 10.6182V16.0002C5 18.2802 8.009 20.0002 12 20.0002C15.991 20.0002 19 18.2802 19 16.0002V10.6182L22.447 8.89425C22.8 8.71825 23.015 8.35225 22.999 7.95825C22.983 7.56425 22.737 7.21725 22.371 7.07125Z" fill="#17191A"/>
</svg>
