<svg width="24" height="24" viewBox="0 0 24 24" fill="none" xmlns="http://www.w3.org/2000/svg">
<path fill-rule="evenodd" clip-rule="evenodd" d="M1.25 16V8H2.75V16H1.25Z" fill="#17191A"/>
<path fill-rule="evenodd" clip-rule="evenodd" d="M5.25 16V10H6.75V16C6.75 16.3914 7.0867 16.9476 8.09266 17.4506C9.05381 17.9311 10.4342 18.25 12 18.25C13.5658 18.25 14.9462 17.9311 15.9073 17.4506C16.9133 16.9476 17.25 16.3914 17.25 16V10H18.75V16C18.75 17.2656 17.7437 18.2094 16.5782 18.7922C15.3678 19.3974 13.7482 19.75 12 19.75C10.2518 19.75 8.6322 19.3974 7.42184 18.7922C6.2563 18.2094 5.25 17.2656 5.25 16Z" fill="#17191A"/>
<path fill-rule="evenodd" clip-rule="evenodd" d="M11.7215 3.30364C11.9003 3.23212 12.0997 3.23212 12.2785 3.30364L22.2785 7.30364C22.5528 7.41333 22.7371 7.67374 22.7494 7.96883C22.7616 8.26392 22.5996 8.53874 22.3354 8.67082L12.3354 13.6708C12.1243 13.7764 11.8757 13.7764 11.6646 13.6708L1.66459 8.67082C1.40043 8.53874 1.23838 8.26392 1.25065 7.96883C1.26293 7.67374 1.44724 7.41333 1.72146 7.30364L11.7215 3.30364ZM3.82923 8.07609L12 12.1615L20.1708 8.07609L12 4.80777L3.82923 8.07609Z" fill="#17191A"/>
</svg>
