<svg width="24" height="24" viewBox="0 0 24 24" fill="none" xmlns="http://www.w3.org/2000/svg">
<path fill-rule="evenodd" clip-rule="evenodd" d="M5 17.75C4.30921 17.75 3.75 18.3092 3.75 19C3.75 19.6908 4.30921 20.25 5 20.25C5.69079 20.25 6.25 19.6908 6.25 19C6.25 18.3092 5.69079 17.75 5 17.75ZM2.25 19C2.25 17.4808 3.48079 16.25 5 16.25C6.51921 16.25 7.75 17.4808 7.75 19C7.75 20.5192 6.51921 21.75 5 21.75C3.48079 21.75 2.25 20.5192 2.25 19Z" fill="#17191A"/>
<path fill-rule="evenodd" clip-rule="evenodd" d="M14.147 12.72C14.4916 12.4902 14.9573 12.5834 15.1871 12.928L19.6241 19.584C19.8538 19.9287 19.7607 20.3943 19.416 20.6241C19.0714 20.8538 18.6057 20.7607 18.3759 20.416L13.9389 13.76C13.7092 13.4154 13.8023 12.9497 14.147 12.72Z" fill="#17191A"/>
<path fill-rule="evenodd" clip-rule="evenodd" d="M9.85303 12.72C10.1977 12.9497 10.2908 13.4154 10.061 13.76L7.15104 18.125C6.92127 18.4697 6.45562 18.5628 6.11097 18.3331C5.76633 18.1033 5.6732 17.6376 5.90296 17.293L8.81296 12.928C9.04273 12.5833 9.50838 12.4902 9.85303 12.72Z" fill="#17191A"/>
<path fill-rule="evenodd" clip-rule="evenodd" d="M6.25 17C6.25 16.5858 6.58579 16.25 7 16.25H17C17.4142 16.25 17.75 16.5858 17.75 17C17.75 17.4142 17.4142 17.75 17 17.75H7C6.58579 17.75 6.25 17.4142 6.25 17Z" fill="#17191A"/>
<path fill-rule="evenodd" clip-rule="evenodd" d="M10.5778 1.52184C10.8419 1.84095 10.7973 2.31373 10.4782 2.57782C10.3033 2.72255 10.2498 2.87852 10.2498 3.00002C10.2498 3.12152 10.3033 3.27749 10.4782 3.42222C10.9703 3.82949 11.2502 4.39752 11.2502 5.00002C11.2502 5.60252 10.9703 6.17055 10.4782 6.57782C10.1591 6.84191 9.68629 6.7973 9.4222 6.4782C9.15812 6.15909 9.20272 5.68631 9.52182 5.42222C9.69671 5.27749 9.75025 5.12152 9.75025 5.00002C9.75025 4.87852 9.69671 4.72255 9.52182 4.57782C9.02971 4.17055 8.74975 3.60252 8.74975 3.00002C8.74975 2.39752 9.02971 1.82949 9.52182 1.42222C9.84093 1.15814 10.3137 1.20274 10.5778 1.52184Z" fill="#17191A"/>
<path fill-rule="evenodd" clip-rule="evenodd" d="M14.5778 1.52184C14.8419 1.84095 14.7973 2.31373 14.4782 2.57782C14.3033 2.72255 14.2498 2.87852 14.2498 3.00002C14.2498 3.12152 14.3033 3.27749 14.4782 3.42222C14.9703 3.82949 15.2502 4.39752 15.2502 5.00002C15.2502 5.60252 14.9703 6.17055 14.4782 6.57782C14.1591 6.84191 13.6863 6.7973 13.4222 6.4782C13.1581 6.15909 13.2027 5.68631 13.5218 5.42222C13.6967 5.27749 13.7502 5.12152 13.7502 5.00002C13.7502 4.87852 13.6967 4.72255 13.5218 4.57782C13.0297 4.17055 12.7498 3.60252 12.7498 3.00002C12.7498 2.39752 13.0297 1.82949 13.5218 1.42222C13.8409 1.15814 14.3137 1.20274 14.5778 1.52184Z" fill="#17191A"/>
<path fill-rule="evenodd" clip-rule="evenodd" d="M2.25 5.00002C2.25 4.58581 2.58579 4.25002 3 4.25002H7C7.41421 4.25002 7.75 4.58581 7.75 5.00002C7.75 5.41423 7.41421 5.75002 7 5.75002H3.7913C4.22256 9.66879 7.96702 13 12 13C16.033 13 19.7774 9.66879 20.2087 5.75002H18C17.5858 5.75002 17.25 5.41423 17.25 5.00002C17.25 4.58581 17.5858 4.25002 18 4.25002H21C21.4142 4.25002 21.75 4.58581 21.75 5.00002C21.75 10.116 17.0619 14.5 12 14.5C6.93808 14.5 2.25 10.116 2.25 5.00002Z" fill="#17191A"/>
</svg>
