<svg width="24" height="24" viewBox="0 0 24 24" fill="none" xmlns="http://www.w3.org/2000/svg">
<path d="M9.99905 6.99971C9.71105 6.99971 9.42605 6.87571 9.22805 6.63671C8.87605 6.21171 8.93605 5.58071 9.36105 5.22871C9.44905 5.15571 9.49805 5.07371 9.49805 4.99971C9.49805 4.92571 9.44905 4.84371 9.36105 4.77071C8.81305 4.31671 8.49805 3.67171 8.49805 2.99971C8.49805 2.32771 8.81205 1.68271 9.36105 1.22871C9.78705 0.876705 10.416 0.935705 10.769 1.36171C11.121 1.78671 11.061 2.41771 10.636 2.76971C10.548 2.84271 10.499 2.92471 10.499 2.99871C10.499 3.07271 10.548 3.15471 10.636 3.22771C11.184 3.68171 11.499 4.32671 11.499 4.99871C11.499 5.67071 11.185 6.31571 10.636 6.76971C10.449 6.92371 10.224 6.99971 9.99905 6.99971Z" fill="#17191A"/>
<path d="M14 6.9998C13.712 6.9998 13.426 6.8758 13.229 6.6368C12.877 6.2118 12.937 5.5808 13.362 5.2288C13.451 5.1558 13.5 5.0738 13.5 4.9998C13.5 4.9258 13.451 4.8438 13.362 4.7708C12.814 4.3168 12.5 3.6718 12.5 2.9998C12.5 2.3278 12.814 1.6828 13.362 1.2288C13.789 0.875797 14.421 0.936797 14.77 1.3618C15.123 1.7868 15.062 2.4178 14.637 2.7698C14.548 2.8428 14.499 2.9248 14.499 2.9988C14.499 3.0728 14.548 3.1548 14.637 3.2278C15.185 3.6818 15.499 4.3268 15.499 4.9988C15.499 5.6708 15.185 6.3158 14.637 6.7698C14.45 6.9238 14.224 6.9998 14 6.9998Z" fill="#17191A"/>
<path d="M16.084 13.823C19.503 12.236 21.999 8.792 21.999 5C21.999 4.448 21.552 4 20.999 4H2.99905C2.44705 4 1.99905 4.448 1.99905 5C1.99905 8.793 4.49505 12.237 7.91405 13.824L6.26805 16.292C5.88105 16.11 5.45405 16 4.99805 16C3.34405 16 1.99805 17.346 1.99805 19C1.99805 20.654 3.34405 22 4.99805 22C6.65205 22 7.99805 20.654 7.99805 19C7.99805 18.648 7.92605 18.314 7.81405 18H16.463L18.166 20.555C18.358 20.844 18.676 21 18.999 21C19.189 21 19.382 20.945 19.553 20.832C20.013 20.525 20.137 19.905 19.83 19.445L16.084 13.823ZM4.99905 20C4.44805 20 3.99905 19.552 3.99905 19C3.99905 18.448 4.44805 18 4.99905 18C5.55005 18 5.99905 18.448 5.99905 19C5.99905 19.552 5.55005 20 4.99905 20ZM8.86705 16L9.86805 14.499C10.56 14.659 11.272 14.75 11.999 14.75C12.726 14.75 13.438 14.658 14.13 14.499L15.131 16H8.86705Z" fill="#17191A"/>
<path d="M4.99905 20C5.55133 20 5.99905 19.5523 5.99905 19C5.99905 18.4477 5.55133 18 4.99905 18C4.44676 18 3.99905 18.4477 3.99905 19C3.99905 19.5523 4.44676 20 4.99905 20Z" fill="#17191A"/>
<path d="M11.999 14.75C11.272 14.75 10.56 14.659 9.86805 14.499L8.86705 16H15.131L14.13 14.499C13.438 14.659 12.725 14.75 11.999 14.75Z" fill="#17191A"/>
<path d="M9.49905 5C9.49905 5.075 9.45005 5.156 9.36205 5.229C8.93605 5.581 8.87705 6.211 9.22905 6.637C9.42705 6.876 9.71205 7 10 7C10.225 7 10.45 6.925 10.637 6.771C11.185 6.317 11.5 5.672 11.5 5C11.5 4.651 11.412 4.311 11.253 4H8.74605C8.89305 4.288 9.09905 4.552 9.36205 4.771C9.45005 4.844 9.49905 4.926 9.49905 5Z" fill="#17191A"/>
<path d="M13.499 5C13.499 5.075 13.45 5.156 13.361 5.229C12.936 5.581 12.876 6.211 13.228 6.637C13.425 6.876 13.711 7 13.999 7C14.223 7 14.449 6.925 14.636 6.771C15.184 6.317 15.498 5.672 15.498 5C15.498 4.651 15.41 4.311 15.251 4H12.744C12.89 4.288 13.096 4.552 13.36 4.771C13.449 4.844 13.498 4.926 13.498 5H13.499Z" fill="#17191A"/>
</svg>
