<svg width="24" height="24" viewBox="0 0 24 24" fill="none" xmlns="http://www.w3.org/2000/svg">
<path d="M21.6649 10.2521L12.0009 1.66211L8.00094 5.21711V2.99911H6.00094V6.99411L2.33594 10.2511L3.66494 11.7461L3.99994 11.4481V22.9991H19.9999V11.4481L20.3359 11.7471L21.6649 10.2521ZM11.0009 21.0001V18.0001H13.0009V21.0001H11.0009ZM15.0009 21.0001V16.0001H9.00094V21.0001H6.00094V15.0001H18.0009V21.0001H15.0009ZM18.0009 13.0001H6.00094V9.67211L12.0009 4.33811L18.0009 9.67111V13.0001Z" fill="#17191A"/>
<path d="M9.18494 9.82088C9.18494 11.3739 10.4479 12.6379 12.0009 12.6379C13.5539 12.6379 14.8169 11.3739 14.8169 9.82088C14.8169 8.26788 13.5529 7.00488 12.0009 7.00488C10.4489 7.00488 9.18494 8.26788 9.18494 9.82088ZM12.8169 9.82088C12.8169 10.2709 12.4509 10.6369 12.0009 10.6369C11.5509 10.6369 11.1849 10.2709 11.1849 9.82088C11.1849 9.37088 11.5509 9.00488 12.0009 9.00488C12.4509 9.00488 12.8169 9.37088 12.8169 9.82088Z" fill="#17191A"/>
</svg>
