<svg width="24" height="24" viewBox="0 0 24 24" fill="none" xmlns="http://www.w3.org/2000/svg">
<path d="M21.498 10.4395L20.502 11.5605L12 4.00293L3.49805 11.5605L2.50195 10.4395L12 1.99609L21.498 10.4395Z" fill="#17191A"/>
<path d="M13.0658 9.82141C13.0658 9.23281 12.589 8.75522 12.0004 8.755C11.4117 8.755 10.934 9.23267 10.934 9.82141C10.9342 10.41 11.4118 10.8868 12.0004 10.8868C12.5888 10.8866 13.0656 10.4098 13.0658 9.82141ZM14.5658 9.82141C14.5656 11.2382 13.4172 12.3866 12.0004 12.3868C10.5834 12.3868 9.43422 11.2384 9.434 9.82141C9.434 8.40424 10.5832 7.255 12.0004 7.255C13.4174 7.25522 14.5658 8.40438 14.5658 9.82141Z" fill="#17191A"/>
<path d="M7.75 3V7.44043H6.25V3H7.75Z" fill="#17191A"/>
<path d="M19 13.25V14.75H5V13.25H19Z" fill="#17191A"/>
<path d="M14.75 16.25V22.75H9.25V16.25H14.75ZM10.75 21.25H13.25V17.75H10.75V21.25Z" fill="#17191A"/>
<path d="M5.75 9.22V21.2503H18.25V9.22H19.75V22.7503H4.25V9.22H5.75Z" fill="#17191A"/>
</svg>
