<svg width="24" height="24" viewBox="0 0 24 24" fill="none" xmlns="http://www.w3.org/2000/svg">
<path fill-rule="evenodd" clip-rule="evenodd" d="M15.694 14H20.78C20.007 17.453 17.271 20.133 13.787 20.825L14.319 15.501C14.891 15.121 15.365 14.605 15.693 13.999L15.694 14ZM9.68 15.502C9.108 15.122 8.634 14.606 8.306 14H3.22C3.993 17.453 6.729 20.133 10.213 20.825L9.681 15.501L9.68 15.502ZM20.781 10C19.88 5.975 16.312 3 12 3C7.688 3 4.12 5.975 3.22 10H8.306C9.017 8.69 10.405 7.8 12 7.8C13.595 7.8 14.983 8.69 15.694 10H20.781ZM1 12C1 5.9 5.9 1 12 1C18.1 1 23 5.9 23 12C23 18.1 18.1 23 12 23C5.9 23 1 18.1 1 12Z" fill="#17191A"/>
</svg>
