<svg width="24" height="24" viewBox="0 0 24 24" fill="none" xmlns="http://www.w3.org/2000/svg">
<path d="M8.75 11.25C9.57843 11.25 10.25 10.5784 10.25 9.75C10.25 8.92157 9.57843 8.25 8.75 8.25C7.92157 8.25 7.25 8.92157 7.25 9.75C7.25 10.5784 7.92157 11.25 8.75 11.25Z" fill="#17191A"/>
<path d="M15.75 11.25C16.5784 11.25 17.25 10.5784 17.25 9.75C17.25 8.92157 16.5784 8.25 15.75 8.25C14.9216 8.25 14.25 8.92157 14.25 9.75C14.25 10.5784 14.9216 11.25 15.75 11.25Z" fill="#17191A"/>
<path fill-rule="evenodd" clip-rule="evenodd" d="M12.25 3.5C7.41751 3.5 3.5 7.41751 3.5 12.25C3.5 17.0825 7.41751 21 12.25 21C17.0825 21 21 17.0825 21 12.25C21 7.41751 17.0825 3.5 12.25 3.5ZM2 12.25C2 6.58908 6.58908 2 12.25 2C17.9109 2 22.5 6.58908 22.5 12.25C22.5 17.9109 17.9109 22.5 12.25 22.5C6.58908 22.5 2 17.9109 2 12.25Z" fill="#17191A"/>
<path fill-rule="evenodd" clip-rule="evenodd" d="M8.78033 14.4197C10.6874 16.3268 13.8126 16.3268 15.7197 14.4197L16.7803 15.4803C14.2874 17.9732 10.2126 17.9732 7.71967 15.4803L8.78033 14.4197Z" fill="#17191A"/>
</svg>
