<svg width="24" height="24" viewBox="0 0 24 24" fill="none" xmlns="http://www.w3.org/2000/svg">
<path d="M12.5 2C6.7 2 2 6.7 2 12.5C2 18.3 6.7 23 12.5 23C18.3 23 23 18.3 23 12.5C23 6.7 18.3 2 12.5 2ZM9 8.5C9.8 8.5 10.5 9.2 10.5 10C10.5 10.8 9.8 11.5 9 11.5C8.2 11.5 7.5 10.8 7.5 10C7.5 9.2 8.2 8.5 9 8.5ZM12.5 17.9C10.8 17.9 9.1 17.3 7.8 16L9.2 14.6C11 16.4 14 16.4 15.8 14.6L17.2 16C15.9 17.3 14.2 17.9 12.5 17.9ZM16 11.5C15.2 11.5 14.5 10.8 14.5 10C14.5 9.2 15.2 8.5 16 8.5C16.8 8.5 17.5 9.2 17.5 10C17.5 10.8 16.8 11.5 16 11.5Z" fill="#17191A"/>
</svg>
