<svg width="24" height="24" viewBox="0 0 24 24" fill="none" xmlns="http://www.w3.org/2000/svg">
<path d="M21.972 11.859C21.967 11.825 21.979 11.791 21.97 11.757L19.97 3.757C19.859 3.312 19.459 3 19 3H5C4.541 3 4.141 3.312 4.03 3.757L2.03 11.757C2.021 11.792 2.033 11.826 2.028 11.861C2.021 11.908 2 11.95 2 11.999V18.999C2 20.102 2.897 20.999 4 20.999H20C21.103 20.999 22 20.102 22 18.999V11.999C22 11.949 21.979 11.906 21.972 11.858V11.859ZM13 17C12.448 17 12 16.552 12 16C12 15.448 12.448 15 13 15C13.552 15 14 15.448 14 16C14 16.552 13.552 17 13 17ZM17 17C16.448 17 16 16.552 16 16C16 15.448 16.448 15 17 15C17.552 15 18 15.448 18 16C18 16.552 17.552 17 17 17ZM4.281 11L5.781 5H18.219L19.719 11H4.281Z" fill="#17191A"/>
</svg>
