<svg width="24" height="24" viewBox="0 0 24 24" fill="none" xmlns="http://www.w3.org/2000/svg">
<path d="M19.127 3.26074C19.4159 3.31024 19.6545 3.52632 19.7275 3.81836L21.7275 11.8184C21.7296 11.8267 21.7297 11.8354 21.7314 11.8438C21.7336 11.8538 21.7356 11.8638 21.7373 11.874C21.7443 11.9147 21.7488 11.9553 21.749 11.9961C21.749 11.9974 21.75 11.9987 21.75 12V19C21.75 19.9662 20.9662 20.75 20 20.75H4C3.03379 20.75 2.25 19.9662 2.25 19V11.9883C2.2501 11.9814 2.25068 11.9746 2.25098 11.9678L2.25391 11.9229C2.25431 11.9189 2.2554 11.9151 2.25586 11.9111C2.25956 11.8801 2.26479 11.8491 2.27246 11.8184L4.27246 3.81836L4.31348 3.69824C4.43144 3.42954 4.69873 3.25 5 3.25H19L19.127 3.26074ZM3.75 19C3.75 19.1378 3.86221 19.25 4 19.25H20C20.1378 19.25 20.25 19.1378 20.25 19V12.75H3.75V19ZM13 15C13.5523 15 14 15.4477 14 16C14 16.5523 13.5523 17 13 17C12.4477 17 12 16.5523 12 16C12 15.4477 12.4477 15 13 15ZM17 15C17.5523 15 18 15.4477 18 16C18 16.5523 17.5523 17 17 17C16.4477 17 16 16.5523 16 16C16 15.4477 16.4477 15 17 15ZM3.95996 11.25H20.04L18.415 4.75H5.58496L3.95996 11.25Z" fill="#17191A"/>
</svg>
