<svg width="24" height="24" viewBox="0 0 24 24" fill="none" xmlns="http://www.w3.org/2000/svg">
<path fill-rule="evenodd" clip-rule="evenodd" d="M4 8.75018C4 8.33597 4.33579 8.00018 4.75 8.00018H18.75C19.1642 8.00018 19.5 8.33597 19.5 8.75018C19.5 9.1644 19.1642 9.50018 18.75 9.50018H4.75C4.33579 9.50018 4 9.1644 4 8.75018Z" fill="#17191A"/>
<path fill-rule="evenodd" clip-rule="evenodd" d="M4 14.7502C4 14.336 4.33579 14.0002 4.75 14.0002H18.75C19.1642 14.0002 19.5 14.336 19.5 14.7502C19.5 15.1644 19.1642 15.5002 18.75 15.5002H4.75C4.33579 15.5002 4 15.1644 4 14.7502Z" fill="#17191A"/>
<path fill-rule="evenodd" clip-rule="evenodd" d="M10.9319 3.02257C11.3337 3.12303 11.5781 3.53023 11.4776 3.93208L7.47761 19.9321C7.37715 20.3339 6.96994 20.5782 6.5681 20.4778C6.16625 20.3773 5.92193 19.9701 6.02239 19.5683L10.0224 3.56828C10.1229 3.16643 10.5301 2.92211 10.9319 3.02257Z" fill="#17191A"/>
<path fill-rule="evenodd" clip-rule="evenodd" d="M16.9319 3.02257C17.3337 3.12303 17.5781 3.53023 17.4776 3.93208L13.4776 19.9321C13.3771 20.3339 12.9699 20.5782 12.5681 20.4778C12.1663 20.3773 11.9219 19.9701 12.0224 19.5683L16.0224 3.56828C16.1229 3.16643 16.5301 2.92211 16.9319 3.02257Z" fill="#17191A"/>
</svg>
