<svg width="24" height="24" viewBox="0 0 24 24" fill="none" xmlns="http://www.w3.org/2000/svg">
<path d="M18.9991 14.0001H15.5291L16.5291 10.0001H18.9991C19.5521 10.0001 19.9991 9.55211 19.9991 9.00011C19.9991 8.44811 19.5521 8.00011 18.9991 8.00011H17.0291L17.9681 4.24311C18.1031 3.70711 17.7771 3.16411 17.2401 3.03011C16.7041 2.89311 16.1621 3.22211 16.0281 3.75811L14.9671 8.00111H11.0281L11.9671 4.24411C12.1011 3.70811 11.7751 3.16511 11.2391 3.03111C10.7041 2.89711 10.1601 3.22311 10.0261 3.75911L8.96509 8.00211H4.99609C4.44409 8.00211 3.99609 8.45011 3.99609 9.00211C3.99609 9.55411 4.44409 10.0021 4.99609 10.0021H8.46509L7.46509 14.0021H4.99609C4.44409 14.0021 3.99609 14.4491 3.99609 15.0021C3.99609 15.5551 4.44409 16.0021 4.99609 16.0021H6.96509L6.02609 19.7601C5.89209 20.2951 6.21809 20.8381 6.75409 20.9721C6.83609 20.9931 6.91709 21.0021 6.99809 21.0021C7.44609 21.0021 7.85309 20.6991 7.96709 20.2441L9.02809 16.0021H12.9661L12.0261 19.7601C11.8921 20.2951 12.2181 20.8381 12.7541 20.9721C12.8361 20.9931 12.9171 21.0021 12.9981 21.0021C13.4461 21.0021 13.8531 20.6991 13.9671 20.2441L15.0281 16.0021H18.9981C19.5511 16.0021 19.9981 15.5551 19.9981 15.0021C19.9981 14.4491 19.5511 14.0021 18.9981 14.0021L18.9991 14.0001ZM9.53009 14.0001L10.5301 10.0001H14.4691L13.4691 14.0001H9.53009Z" fill="#17191A"/>
</svg>
