<svg width="24" height="24" viewBox="0 0 24 24" fill="none" xmlns="http://www.w3.org/2000/svg">
<path d="M20.493 10.1548C20.414 5.5348 16.638 1.7998 12 1.7998C7.362 1.7998 3.586 5.5348 3.507 10.1548C2.046 10.5758 1 11.8868 1 13.4998V17.4998C1 19.4628 2.538 20.9998 4.5 20.9998C6.462 20.9998 8 19.4628 8 17.4998V13.4998C8 11.8918 6.96 10.5838 5.507 10.1588C5.585 6.6978 8.524 3.7998 12 3.7998C15.476 3.7998 18.414 6.6978 18.493 10.1588C17.04 10.5838 16 11.8918 16 13.4998V17.4998C16 18.1088 16.162 18.6678 16.424 19.1608L15.585 19.9998H14.721C14.374 19.4048 13.736 18.9998 12.999 18.9998H10.999C9.896 18.9998 8.999 19.8968 8.999 20.9998C8.999 22.1028 9.896 22.9998 10.999 22.9998H12.999C13.736 22.9998 14.374 22.5948 14.721 21.9998H15.999C16.265 21.9998 16.519 21.8948 16.706 21.7068L17.837 20.5758C18.331 20.8388 18.89 20.9998 19.498 20.9998C21.461 20.9998 22.998 19.4628 22.998 17.4998V13.4998C22.998 11.8858 21.951 10.5748 20.491 10.1548H20.493Z" fill="#17191A"/>
</svg>
