<svg width="24" height="24" viewBox="0 0 24 24" fill="none" xmlns="http://www.w3.org/2000/svg">
<path d="M20.5 11.357V10.5C20.5 5.813 16.687 2 12 2C7.313 2 3.5 5.813 3.5 10.5V11.357C2.043 11.78 1 13.089 1 14.7V18.7C1 20.663 2.538 22.2 4.5 22.2C6.462 22.2 8 20.663 8 18.7V14.7C8 13.089 6.957 11.78 5.5 11.357V10.5C5.5 6.977 8.477 4 12 4C15.523 4 18.5 6.977 18.5 10.5V11.357C17.043 11.78 16 13.089 16 14.7V18.7C16 20.663 17.537 22.2 19.5 22.2C21.463 22.2 23 20.663 23 18.7V14.7C23 13.089 21.957 11.78 20.5 11.357Z" fill="#17191A"/>
</svg>
