<svg width="24" height="24" viewBox="0 0 24 24" fill="none" xmlns="http://www.w3.org/2000/svg">
<path fill-rule="evenodd" clip-rule="evenodd" d="M12 2.0498C16.5142 2.0498 20.25 5.78559 20.25 10.2998V10.3359C21.6944 10.6687 22.75 11.9446 22.75 13.5V17.5C22.75 19.3142 21.3142 20.75 19.5 20.75C18.8684 20.75 18.2833 20.5749 17.7881 20.2715L16.5303 21.5303C16.3896 21.6709 16.1989 21.75 16 21.75H14.5791C14.298 22.3407 13.6977 22.75 13 22.75H11C10.0335 22.75 9.25 21.9665 9.25 21C9.25 20.0335 10.0335 19.25 11 19.25H13C13.6977 19.25 14.298 19.6593 14.5791 20.25H15.6895L16.7275 19.2109C16.4246 18.7159 16.25 18.1311 16.25 17.5V13.5C16.25 11.9446 17.3056 10.6687 18.75 10.3359V10.2998C18.75 6.61402 15.6858 3.5498 12 3.5498C8.31421 3.5498 5.25 6.61402 5.25 10.2998V10.3359C6.69436 10.6687 7.75 11.9446 7.75 13.5V17.5C7.75 19.3142 6.31421 20.75 4.5 20.75C2.68579 20.75 1.25 19.3142 1.25 17.5V13.5C1.25 11.9446 2.30564 10.6687 3.75 10.3359V10.2998C3.75 5.78559 7.48579 2.0498 12 2.0498ZM11 20.75C10.8619 20.75 10.75 20.8619 10.75 21C10.75 21.1381 10.8619 21.25 11 21.25H13C13.1381 21.25 13.25 21.1381 13.25 21C13.25 20.8619 13.1381 20.75 13 20.75H11ZM4.5 11.75C3.51421 11.75 2.75 12.5142 2.75 13.5V17.5C2.75 18.4858 3.51421 19.25 4.5 19.25C5.48579 19.25 6.25 18.4858 6.25 17.5V13.5C6.25 12.5142 5.48579 11.75 4.5 11.75ZM19.5 11.75C18.5142 11.75 17.75 12.5142 17.75 13.5V17.5C17.75 18.4858 18.5142 19.25 19.5 19.25C20.4858 19.25 21.25 18.4858 21.25 17.5V13.5C21.25 12.5142 20.4858 11.75 19.5 11.75Z" fill="#17191A"/>
</svg>
