<svg width="24" height="24" viewBox="0 0 24 24" fill="none" xmlns="http://www.w3.org/2000/svg">
<path fill-rule="evenodd" clip-rule="evenodd" d="M1 7.812C1 4.54228 3.77567 2 7.139 2C8.87236 2 10.5813 2.71155 11.75 3.91672C12.919 2.71151 14.6285 2 16.361 2C19.7243 2 22.5 4.54228 22.5 7.812C22.5 10.2192 21.2856 12.224 19.4063 14.2734C18.083 15.7164 16.3576 17.2549 14.3786 19.0195C13.5701 19.7403 12.7193 20.4989 11.8364 21.3042C11.55 21.5653 11.1119 21.5653 10.8256 21.3041C10.7381 21.2243 10.6511 21.145 10.5647 21.0662C7.62087 18.3815 5.26589 16.2338 3.64534 14.2386C1.95865 12.162 1 10.1714 1 7.812ZM7.139 3.5C4.51433 3.5 2.5 5.45772 2.5 7.812C2.5 9.70461 3.24785 11.37 4.80966 13.2929C6.30319 15.1317 8.4789 17.133 11.332 19.7358C12.0715 19.0662 12.7768 18.4373 13.4456 17.841C15.3934 16.1043 17.0313 14.6439 18.3007 13.2596C20.0889 11.3095 21 9.65783 21 7.812C21 5.45772 18.9857 3.5 16.361 3.5C14.7456 3.5 13.1914 4.30368 12.372 5.52001C12.2327 5.72693 11.9995 5.851 11.75 5.851C11.5005 5.851 11.2673 5.72693 11.128 5.52001C10.3086 4.30363 8.75533 3.5 7.139 3.5Z" fill="#17191A"/>
</svg>
