<svg width="24" height="24" viewBox="0 0 24 24" fill="none" xmlns="http://www.w3.org/2000/svg">
<path d="M13 19H11V21H13V19Z" fill="#17191A"/>
<path d="M13 17.1H11V15.901C11 13.697 12.731 12.615 13.47 12.152C13.623 12.056 13.819 11.959 14.04 11.85C14.959 11.402 16 10.893 16 9C16 6.607 14.393 5 12 5C9.374 5 8 7.012 8 9H6C6 6.091 8.103 3 12 3C15.477 3 18 5.523 18 9C18 12.143 15.918 13.159 14.917 13.647C14.768 13.72 14.634 13.783 14.53 13.847C13.723 14.351 13 14.888 13 15.9V17.1Z" fill="#17191A"/>
</svg>
