<svg width="24" height="24" viewBox="0 0 24 24" fill="none" xmlns="http://www.w3.org/2000/svg">
<path fill-rule="evenodd" clip-rule="evenodd" d="M11.25 21V19H12.75V21H11.25Z" fill="#17191A"/>
<path fill-rule="evenodd" clip-rule="evenodd" d="M12 4.75C9.36277 4.75 7.75 6.76393 7.75 9H6.25C6.25 6.03607 8.43723 3.25 12 3.25C13.6256 3.25 15.0717 3.8132 16.1141 4.84092C17.1581 5.87024 17.75 7.31912 17.75 9C17.75 10.7195 17.1041 11.8008 16.2908 12.5046C15.901 12.8419 15.4915 13.0767 15.1495 13.2528C14.9884 13.3357 14.8607 13.3976 14.7545 13.4491C14.6036 13.5223 14.496 13.5745 14.3975 13.636C13.5802 14.1468 12.75 14.7495 12.75 15.9V17.1H11.25V15.9C11.25 13.8505 12.8198 12.8532 13.6025 12.364C13.7632 12.2636 13.995 12.1501 14.2046 12.0475C14.2979 12.0018 14.3868 11.9583 14.463 11.9191C14.7585 11.767 15.049 11.5956 15.3092 11.3704C15.7959 10.9492 16.25 10.2805 16.25 9C16.25 7.68088 15.7919 6.62976 15.0609 5.90908C14.3283 5.1868 13.2744 4.75 12 4.75Z" fill="#17191A"/>
</svg>
