<svg width="24" height="24" viewBox="0 0 24 24" fill="none" xmlns="http://www.w3.org/2000/svg">
<path fill-rule="evenodd" clip-rule="evenodd" d="M11 17.75V15.75H12.5V17.75H11Z" fill="#17191A"/>
<path fill-rule="evenodd" clip-rule="evenodd" d="M11.75 3.5C7.19365 3.5 3.5 7.19365 3.5 11.75C3.5 16.3063 7.19365 20 11.75 20C16.3063 20 20 16.3063 20 11.75C20 7.19365 16.3063 3.5 11.75 3.5ZM2 11.75C2 6.36522 6.36522 2 11.75 2C17.1348 2 21.5 6.36522 21.5 11.75C21.5 17.1348 17.1348 21.5 11.75 21.5C6.36522 21.5 2 17.1348 2 11.75Z" fill="#17191A"/>
<path fill-rule="evenodd" clip-rule="evenodd" d="M11.75 7.5C10.4642 7.5 9.5 8.46421 9.5 9.75H8C8 7.63579 9.63579 6 11.75 6C13.7545 6 15.5 7.33398 15.5 9.35C15.5 11.2749 14.1733 12.0708 13.645 12.3877L13.6359 12.3931C13.4104 12.5284 13.105 12.7356 12.8628 12.9971C12.6186 13.2609 12.5 13.5119 12.5 13.75V14.75H11V13.75C11 12.9881 11.3814 12.3891 11.7622 11.9779C12.145 11.5644 12.5896 11.2716 12.8641 11.1069C13.3422 10.82 14 10.414 14 9.35C14 8.36602 13.1455 7.5 11.75 7.5Z" fill="#17191A"/>
</svg>
