<svg width="24" height="24" viewBox="0 0 24 24" fill="none" xmlns="http://www.w3.org/2000/svg">
<path fill-rule="evenodd" clip-rule="evenodd" d="M8.34306 11.1991C8.39981 10.9299 8.49024 10.619 8.62717 10.3578L9.95569 11.0543C9.90861 11.1441 9.85355 11.3057 9.8108 11.5085C9.76899 11.7069 9.75043 11.8895 9.75043 12.0001C9.75043 13.2279 10.7726 14.2501 12.0004 14.2501C12.2841 14.2501 12.6853 14.1937 12.983 14.0503L13.6338 15.4018C13.0635 15.6764 12.4168 15.7501 12.0004 15.7501C9.94421 15.7501 8.25043 14.0563 8.25043 12.0001C8.25043 11.7616 8.28537 11.4728 8.34306 11.1991Z" fill="#17191A"/>
<path fill-rule="evenodd" clip-rule="evenodd" d="M2.83362 11.9998C3.31087 11.0643 4.4143 9.32061 6.45935 8.15692L5.7175 6.85321C3.022 8.38703 1.74288 10.7596 1.31833 11.6882L1.17578 12L1.31829 12.3118C2.0037 13.8115 4.81889 18.7501 12.0004 18.7501C13.6198 18.7501 15.0268 18.4974 16.2425 18.0829L15.7584 16.6632C14.7041 17.0227 13.4611 17.2501 12.0004 17.2501C6.12597 17.2501 3.62367 13.5429 2.83362 11.9998Z" fill="#17191A"/>
<path fill-rule="evenodd" clip-rule="evenodd" d="M12.0004 6.75006C11.3277 6.75006 10.4 6.83404 9.79866 6.97678L9.45221 5.51734C10.1989 5.34009 11.2491 5.25006 12.0004 5.25006C19.182 5.25006 21.9972 10.1886 22.6826 11.6883L22.8252 12.0003L22.6824 12.3123C22.3159 13.1127 21.3591 14.8691 19.4616 16.3485L18.5393 15.1656C19.9626 14.0559 20.7752 12.7622 21.1669 11.9996C20.3764 10.4561 17.874 6.75006 12.0004 6.75006Z" fill="#17191A"/>
<path fill-rule="evenodd" clip-rule="evenodd" d="M19.7631 22.2374L1.76309 4.23742L2.82375 3.17676L20.8238 21.1768L19.7631 22.2374Z" fill="#17191A"/>
</svg>
