<svg width="24" height="24" viewBox="0 0 24 24" fill="none" xmlns="http://www.w3.org/2000/svg">
<path d="M22.9084 11.584C22.2034 10.039 19.3304 5 11.9994 5C11.2764 5 10.1894 5.085 9.3934 5.274L9.8564 7.219C10.3924 7.092 11.2944 6.999 12.0004 6.999C17.5764 6.999 20.0434 10.419 20.8844 11.998C20.4924 12.73 19.7104 13.935 18.3854 14.967L19.6154 16.545C21.5144 15.064 22.4944 13.321 22.9094 12.416L23.0994 12L22.9084 11.584Z" fill="#17191A"/>
<path d="M1.58539 4.414L4.51839 7.347C2.50839 8.852 1.47039 10.752 1.09039 11.584L0.900391 12L1.09039 12.416C1.79639 13.96 4.66939 19 12.0004 19C13.2994 19 14.5304 18.828 15.6794 18.507L19.5864 22.414L21.0004 21L2.99939 3L1.58539 4.414ZM11.9994 17C6.42239 17 3.95439 13.578 3.11439 12C3.55339 11.171 4.43839 9.826 5.94739 8.777L8.14439 10.974C8.05239 11.34 7.99939 11.716 7.99939 12.001C7.99939 14.207 9.79339 16.001 11.9994 16.001C12.1914 16.001 12.5914 15.976 13.0384 15.868L14.0084 16.838C13.3654 16.944 12.6954 17 11.9994 17Z" fill="#17191A"/>
</svg>
