<svg width="24" height="24" viewBox="0 0 24 24" fill="none" xmlns="http://www.w3.org/2000/svg">
<path fill-rule="evenodd" clip-rule="evenodd" d="M2 14H7.75V15.5H3.5V20.75H2V14Z" fill="#17191A"/>
<path fill-rule="evenodd" clip-rule="evenodd" d="M11.75 3.5C7.19321 3.5 3.5 7.19321 3.5 11.75H2C2 6.36479 6.36479 2 11.75 2C17.1352 2 21.5 6.36479 21.5 11.75C21.5 17.1352 17.1352 21.5 11.75 21.5C8.00523 21.5 4.75479 19.3882 3.12215 16.2949C3.09827 16.2676 3.06645 16.2317 3.02791 16.1885C2.93882 16.0887 2.82204 15.9592 2.70264 15.8269L2.69266 15.8158C2.5708 15.6807 2.44692 15.5433 2.35217 15.437C2.30507 15.3841 2.26287 15.3364 2.23089 15.2995C2.21532 15.2815 2.19897 15.2623 2.18461 15.2448C2.17777 15.2365 2.16755 15.2239 2.15667 15.2095C2.1513 15.2024 2.14257 15.1907 2.13263 15.1761C2.12626 15.1668 2.10257 15.1322 2.07918 15.0854L3.42082 14.4146C3.39834 14.3696 3.3762 14.3373 3.37101 14.3297C3.36263 14.3175 3.35558 14.308 3.35264 14.3041C3.34661 14.2962 3.34296 14.2918 3.34429 14.2934C3.34627 14.2958 3.35265 14.3034 3.3653 14.3181C3.38976 14.3463 3.42594 14.3873 3.47186 14.4388C3.56314 14.5412 3.68382 14.6751 3.80659 14.8112L3.81871 14.8246C3.93655 14.9553 4.05536 15.0871 4.14694 15.1897C4.19404 15.2424 4.23613 15.2899 4.26797 15.3266C4.28351 15.3445 4.29961 15.3633 4.31366 15.3803C4.32036 15.3884 4.33019 15.4005 4.34062 15.4141C4.34576 15.4208 4.35404 15.4318 4.36348 15.4453C4.36956 15.454 4.39182 15.4859 4.41437 15.529L4.41626 15.5326C5.78856 18.1873 8.55836 20 11.75 20C16.3068 20 20 16.3068 20 11.75C20 7.19321 16.3068 3.5 11.75 3.5Z" fill="#17191A"/>
<path fill-rule="evenodd" clip-rule="evenodd" d="M11 6.75H12.5V11.4393L15.2803 14.2197L14.2197 15.2803L11 12.0607V6.75Z" fill="#17191A"/>
</svg>
