<svg width="24" height="24" viewBox="0 0 24 24" fill="none" xmlns="http://www.w3.org/2000/svg">
<path d="M6.25 17V13C6.25 11.4808 7.48079 10.25 9 10.25H16.25V7C16.25 4.66421 14.3358 2.75 12 2.75C9.66421 2.75 7.75 4.66421 7.75 7C7.75 7.41421 7.41421 7.75 7 7.75C6.58579 7.75 6.25 7.41421 6.25 7C6.25 3.83579 8.83579 1.25 12 1.25C15.1642 1.25 17.75 3.83579 17.75 7V17C17.75 20.1642 15.1642 22.75 12 22.75C8.83579 22.75 6.25 20.1642 6.25 17ZM7.75 17C7.75 19.3358 9.66421 21.25 12 21.25C14.3358 21.25 16.25 19.3358 16.25 17V11.75H9C8.30921 11.75 7.75 12.3092 7.75 13V17Z" fill="#17191A"/>
<path d="M13.25 17C13.25 16.3096 12.6904 15.75 12 15.75C11.3096 15.75 10.75 16.3096 10.75 17C10.75 17.6904 11.3096 18.25 12 18.25C12.6904 18.25 13.25 17.6904 13.25 17ZM14.75 17C14.75 18.5188 13.5188 19.75 12 19.75C10.4812 19.75 9.25 18.5188 9.25 17C9.25 15.4812 10.4812 14.25 12 14.25C13.5188 14.25 14.75 15.4812 14.75 17Z" fill="#17191A"/>
</svg>
