<svg width="24" height="24" viewBox="0 0 24 24" fill="none" xmlns="http://www.w3.org/2000/svg">
<path d="M12 18C12.5523 18 13 17.5523 13 17C13 16.4477 12.5523 16 12 16C11.4477 16 11 16.4477 11 17C11 17.5523 11.4477 18 12 18Z" fill="#17191A"/>
<path d="M12 1C8.691 1 6 3.691 6 7C6 7.552 6.448 8 7 8C7.552 8 8 7.552 8 7C8 4.794 9.794 3 12 3C14.206 3 16 4.794 16 7V10H9C7.346 10 6 11.346 6 13V17C6 20.309 8.691 23 12 23C15.309 23 18 20.309 18 17V7C18 3.691 15.309 1 12 1ZM12 20C10.346 20 9 18.654 9 17C9 15.346 10.346 14 12 14C13.654 14 15 15.346 15 17C15 18.654 13.654 20 12 20Z" fill="#17191A"/>
</svg>
