<svg width="24" height="24" viewBox="0 0 24 24" fill="none" xmlns="http://www.w3.org/2000/svg">
<path fill-rule="evenodd" clip-rule="evenodd" d="M11.999 1.37012C15.1087 1.3703 17.6545 3.79842 17.8457 6.86035C19.9137 7.76183 21.3594 9.82617 21.3594 12.2305C21.3594 12.5513 21.3333 12.8683 21.2812 13.1797H23.0566L22.707 14.1777C21.7454 16.917 19.1581 18.751 16.2559 18.751H12.749V21.25H16.999V22.75H6.99902V21.25H11.249V18.751H7.74219C4.83902 18.751 2.25161 16.9174 1.29102 14.1777L0.941406 13.1797H2.72168C2.66977 12.8687 2.64162 12.5509 2.6416 12.2266C2.6416 9.82942 4.08698 7.76747 6.15137 6.86133C6.34215 3.79892 8.88897 1.3703 11.999 1.37012ZM3.17871 14.6797C4.13136 16.2527 5.85019 17.251 7.74219 17.251H16.2559C18.1469 17.251 19.8661 16.2529 20.8193 14.6797H3.17871ZM8.49902 7.86914C8.04256 7.86918 7.60224 7.93958 7.18848 8.07031C7.17615 8.07546 7.16308 8.07849 7.15039 8.08301C5.40589 8.65208 4.1416 10.2937 4.1416 12.2266C4.14163 12.5561 4.17949 12.8736 4.25 13.1797H12.748C12.8183 12.8733 12.8554 12.5555 12.8555 12.2266C12.8555 11.0072 12.3518 9.90396 11.542 9.1123C11.5126 9.08957 11.4835 9.06575 11.457 9.03809C11.4463 9.02682 11.4367 9.01467 11.4268 9.00293C10.6528 8.29917 9.6252 7.86925 8.49902 7.86914ZM15.499 7.87012C14.6054 7.87012 13.7801 8.13819 13.0938 8.59961C13.883 9.59777 14.3555 10.8573 14.3555 12.2266C14.3554 12.5505 14.3283 12.8685 14.2764 13.1797H19.752C19.8229 12.8736 19.8594 12.5567 19.8594 12.2305C19.8594 10.26 18.5543 8.59586 16.7637 8.05859C16.3581 7.93792 15.9304 7.87012 15.499 7.87012ZM11.999 2.87012C9.86935 2.87029 8.09428 4.40229 7.71484 6.42285C7.97145 6.3884 8.23309 6.36916 8.49902 6.36914C9.81215 6.36923 11.0254 6.80328 12.0029 7.53516C12.9763 6.80239 14.1859 6.37012 15.499 6.37012C15.7644 6.37012 16.0263 6.39067 16.2832 6.42578C15.905 4.40379 14.1297 2.87029 11.999 2.87012Z" fill="#17191A"/>
</svg>
