<svg width="24" height="24" viewBox="0 0 24 24" fill="none" xmlns="http://www.w3.org/2000/svg">
<path d="M21.5488 12.9291C21.5758 12.6981 21.6098 12.4671 21.6098 12.2311C21.6098 9.85209 20.1948 7.69509 18.0828 6.70409C17.8148 3.58109 15.1908 1.12109 11.9988 1.12109C8.80684 1.12109 6.18584 3.58009 5.91584 6.70109C3.83784 7.67609 2.39184 9.78309 2.39184 12.2261C2.39184 12.4641 2.42484 12.6961 2.45284 12.9291H0.589844L1.05584 14.2601C2.04984 17.0951 4.73684 19.0001 7.74284 19.0001H10.9998V21.0001H6.99984V23.0001H16.9998V21.0001H12.9998V19.0001H16.2568C19.2608 19.0001 21.9478 17.0951 22.9438 14.2601L23.4118 12.9291H21.5488ZM19.6098 12.2301C19.6098 12.4671 19.5888 12.7001 19.5478 12.9281H14.5458C14.5728 12.6951 14.6068 12.4631 14.6068 12.2251C14.6068 10.9001 14.1778 9.67509 13.4578 8.67309C14.4068 8.12309 15.5648 7.96309 16.6928 8.29709C18.4108 8.81309 19.6098 10.4301 19.6098 12.2301ZM11.9998 3.12009C13.9048 3.12009 15.4968 4.42909 15.9678 6.15409C14.5448 6.04509 13.1478 6.42609 12.0048 7.23209C11.0118 6.53309 9.80484 6.11909 8.50084 6.11909C8.35084 6.11909 8.20384 6.13109 8.05584 6.14209C8.53684 4.40609 10.1138 3.12009 12.0008 3.12009H11.9998ZM4.39284 12.2261C4.39284 10.4571 5.52384 8.95909 7.09584 8.38309H7.09884C7.53784 8.22209 8.00584 8.12109 8.49984 8.12109C10.7648 8.12109 12.6068 9.96309 12.6068 12.2271C12.6068 12.4651 12.5858 12.7001 12.5448 12.9301H4.45484C4.41384 12.7001 4.39284 12.4651 4.39284 12.2271V12.2261Z" fill="#17191A"/>
</svg>
