<svg width="24" height="24" viewBox="0 0 24 24" fill="none" xmlns="http://www.w3.org/2000/svg">
<path fill-rule="evenodd" clip-rule="evenodd" d="M12 4.08301C8.82822 4.08301 6.25001 6.66122 6.25001 9.83301C6.25001 10.324 6.31132 10.7968 6.42968 11.25H17.5703C17.6887 10.7966 17.75 10.3233 17.75 9.83301C17.75 6.66122 15.1718 4.08301 12 4.08301ZM19.1078 11.2578C19.2019 10.7954 19.25 10.3195 19.25 9.83301C19.25 5.83279 16.0002 2.58301 12 2.58301C7.99979 2.58301 4.75001 5.83279 4.75001 9.83301C4.75001 10.32 4.7981 10.7957 4.89217 11.2578C4.70229 11.2854 4.52861 11.3851 4.40885 11.5384C4.26672 11.7205 4.21639 11.9579 4.2724 12.1819L5.2724 16.1819C5.35587 16.5158 5.65586 16.75 6.00001 16.75H7.38515L8.26457 21.1471C8.33468 21.4977 8.6425 21.75 9.00001 21.75H15C15.3575 21.75 15.6653 21.4977 15.7354 21.1471L16.6149 16.75H18C18.3442 16.75 18.6441 16.5158 18.7276 16.1819L19.7276 12.1819C19.7836 11.9579 19.7333 11.7205 19.5912 11.5384C19.4714 11.385 19.2977 11.2854 19.1078 11.2578ZM18.0394 12.75H5.96059L6.58559 15.25H17.4144L18.0394 12.75ZM15.0852 16.75H8.91486L9.61486 20.25H14.3852L15.0852 16.75Z" fill="#17191A"/>
</svg>
