<svg width="24" height="24" viewBox="0 0 24 24" fill="none" xmlns="http://www.w3.org/2000/svg">
<path d="M19.7879 11.385C19.6829 11.251 19.5439 11.156 19.3919 11.091C19.4629 10.679 19.4999 10.259 19.4999 9.83301C19.4999 5.69701 16.1359 2.33301 11.9999 2.33301C7.86391 2.33301 4.49991 5.69701 4.49991 9.83301C4.49991 10.258 4.53791 10.678 4.60891 11.091C4.45591 11.157 4.31691 11.251 4.21191 11.385C4.02291 11.628 3.95491 11.944 4.02991 12.243L5.02991 16.243C5.14091 16.688 5.54091 17.001 5.99991 17.001H7.17991L8.01891 21.197C8.11191 21.664 8.52291 22.001 8.99891 22.001H14.9989C15.4759 22.001 15.8859 21.664 15.9789 21.197L16.8179 17.001H17.9979C18.4569 17.001 18.8559 16.689 18.9679 16.243L19.9679 12.243C20.0429 11.944 19.9759 11.628 19.7859 11.385H19.7879ZM14.1809 20H9.81991L9.21991 17H14.7809L14.1809 20ZM17.2189 15H6.78091L6.28091 13H17.7189L17.2189 15Z" fill="#17191A"/>
</svg>
