<svg width="24" height="24" viewBox="0 0 24 24" fill="none" xmlns="http://www.w3.org/2000/svg">
<path fill-rule="evenodd" clip-rule="evenodd" d="M1.25 13C1.25 12.5858 1.58579 12.25 2 12.25H6C6.19891 12.25 6.38968 12.329 6.53033 12.4697L9.31066 15.25H14.6893L17.4697 12.4697C17.6103 12.329 17.8011 12.25 18 12.25H22C22.4142 12.25 22.75 12.5858 22.75 13C22.75 13.4142 22.4142 13.75 22 13.75H18.3107L15.5303 16.5303C15.3897 16.671 15.1989 16.75 15 16.75H9C8.80109 16.75 8.61032 16.671 8.46967 16.5303L5.68934 13.75H2C1.58579 13.75 1.25 13.4142 1.25 13Z" fill="#17191A"/>
<path fill-rule="evenodd" clip-rule="evenodd" d="M3.26786 3.8373C3.34412 3.49415 3.64848 3.25 4 3.25H20C20.3515 3.25 20.6559 3.49415 20.7321 3.8373L22.7321 12.8373C22.744 12.8907 22.75 12.9453 22.75 13V20C22.75 20.4142 22.4142 20.75 22 20.75H2C1.58579 20.75 1.25 20.4142 1.25 20V13C1.25 12.9453 1.25599 12.8907 1.26786 12.8373L3.26786 3.8373ZM4.60163 4.75L2.75 13.0823V19.25H21.25V13.0823L19.3984 4.75H4.60163Z" fill="#17191A"/>
</svg>
