<svg width="24" height="24" viewBox="0 0 24 24" fill="none" xmlns="http://www.w3.org/2000/svg">
<path fill-rule="evenodd" clip-rule="evenodd" d="M7.374 11.995C7.374 14.549 9.443 16.619 11.997 16.619C14.549 16.619 16.62 14.549 16.62 11.995C16.62 9.442 14.549 7.372 11.997 7.372C9.443 7.372 7.374 9.442 7.374 11.995ZM8.993 11.996C8.993 10.337 10.338 8.993 11.997 8.993C13.656 8.993 14.999 10.337 14.999 11.996C14.999 13.654 13.656 14.999 11.997 14.999C10.338 14.999 8.993 13.654 8.993 11.996ZM17.882 7.202C17.882 6.60664 17.3994 6.124 16.804 6.124C16.2086 6.124 15.726 6.60664 15.726 7.202C15.726 7.79736 16.2086 8.28 16.804 8.28C17.3994 8.28 17.882 7.79736 17.882 7.202ZM17.898 3.474C17.199 3.211 16.46 3.07 15.712 3.054C14.749 3.012 14.444 3 12.002 3C9.56 3 9.247 3 8.292 3.054C7.546 3.069 6.807 3.21 6.108 3.474C4.898 3.941 3.943 4.897 3.475 6.106C3.212 6.806 3.071 7.544 3.056 8.292C3.013 9.254 3 9.559 3 12.002C3 14.444 3 14.755 3.056 15.712C3.071 16.46 3.212 17.198 3.475 17.899C3.944 19.107 4.899 20.063 6.109 20.531C6.805 20.803 7.544 20.957 8.294 20.981C9.257 21.023 9.562 21.036 12.004 21.036C14.446 21.036 14.759 21.036 15.714 20.981C16.461 20.966 17.2 20.824 17.9 20.562C19.109 20.093 20.064 19.138 20.533 17.929C20.796 17.229 20.937 16.491 20.952 15.743C20.995 14.781 21.008 14.476 21.008 12.033C21.008 9.59 21.008 9.28 20.952 8.323C20.939 7.565 20.799 6.814 20.531 6.106C20.062 4.897 19.107 3.941 17.898 3.474ZM19.002 17.326C18.697 18.113 18.076 18.735 17.29 19.037C16.755 19.236 16.191 19.34 15.62 19.348C14.67 19.392 14.402 19.403 11.966 19.403C9.528 19.403 9.279 19.403 8.311 19.348C7.742 19.341 7.176 19.236 6.642 19.037C5.853 18.736 5.228 18.114 4.923 17.326C4.727 16.792 4.621 16.227 4.612 15.657C4.569 14.707 4.559 14.439 4.559 12.003C4.559 9.566 4.559 9.317 4.612 8.348C4.619 7.772 4.723 7.202 4.923 6.661C5.228 5.872 5.853 5.251 6.642 4.949C7.176 4.751 7.742 4.646 8.311 4.638C9.262 4.595 9.529 4.583 11.966 4.583C14.403 4.583 14.653 4.583 15.62 4.638C16.191 4.645 16.755 4.75 17.29 4.949C18.076 5.252 18.697 5.874 19.002 6.661C19.198 7.195 19.304 7.76 19.313 8.33C19.356 9.281 19.367 9.548 19.367 11.985C19.367 14.421 19.367 14.683 19.324 15.639H19.313V15.638C19.306 16.214 19.202 16.785 19.002 17.326Z" fill="#17191A"/>
</svg>
