<svg width="24" height="24" viewBox="0 0 24 24" fill="none" xmlns="http://www.w3.org/2000/svg">
<path fill-rule="evenodd" clip-rule="evenodd" d="M4.63781 3.00781C3.73681 3.00781 3.00781 3.73681 3.00781 4.63781V19.3618C3.00781 20.2618 3.73681 20.9928 4.63781 20.9928H19.3618C20.2618 20.9928 20.9928 20.2628 20.9928 19.3618V4.63781C20.9918 3.73581 20.2618 3.00781 19.3608 3.00781H4.63781ZM10.1158 7.58281C10.1158 8.19881 9.61481 8.66281 9.01781 8.66281V8.68481C8.41381 8.68481 7.92781 8.19881 7.92781 7.59681C7.92781 6.99181 8.41381 6.50481 9.01781 6.50481C9.61481 6.50481 10.1158 6.97681 10.1158 7.58281ZM14.7208 15.2908C14.7208 15.0308 14.7538 14.7578 14.8348 14.4788L15.3628 12.5728C15.4308 12.3648 15.4488 12.1678 15.4488 11.9918C15.4488 11.3768 15.0738 11.0078 14.4778 11.0078C13.7168 11.0078 13.2178 11.5508 12.9578 12.6058L11.9248 16.7518H10.1138L10.4408 15.4488C9.90681 16.3218 9.16981 16.8608 8.25781 16.8608C7.15581 16.8608 6.64081 16.2288 6.64081 15.2768C6.64681 15.0048 6.67581 14.7308 6.73681 14.4658L7.56281 11.0998H6.28481L6.67281 9.66981H9.74781L8.53181 14.4738C8.45181 14.7828 8.42181 15.0328 8.42181 15.2118C8.42181 15.5188 8.56981 15.6078 8.80681 15.6638C8.95281 15.6938 10.1018 15.6748 10.7248 14.2878L11.5228 11.0998H10.2288L10.6198 9.69581H13.4068L13.0478 11.3128C13.5318 10.4138 14.4998 9.55081 15.4538 9.55081C16.4658 9.55081 17.3088 10.2788 17.3088 11.6618C17.3088 12.0618 17.2458 12.4578 17.1288 12.8418L16.6088 14.6998C16.5658 14.8878 16.5338 15.0468 16.5338 15.1918C16.5338 15.5178 16.6698 15.6758 16.9018 15.6758C17.1398 15.6758 17.4548 15.4948 17.8008 14.5038L18.5088 14.7758C18.0948 16.2488 17.3268 16.8568 16.3718 16.8568C15.2598 16.8568 14.7208 16.1948 14.7208 15.2908Z" fill="#17191A"/>
</svg>
