<svg width="24" height="24" viewBox="0 0 24 24" fill="none" xmlns="http://www.w3.org/2000/svg">
<path d="M15 1.25C15.9665 1.25 16.75 2.0335 16.75 3V4C16.75 4.69772 16.3407 5.29804 15.75 5.5791V6.39355C15.75 6.63869 15.822 6.88074 15.959 7.08691L17.2871 9.07812C17.5884 9.5294 17.7499 10.0606 17.75 10.6035V18.9971C17.75 20.5162 16.5182 21.748 14.999 21.748H9.00098C7.4818 21.748 6.25004 20.5162 6.25 18.9971V10.6035C6.2501 10.0612 6.41138 9.53058 6.71191 9.0791L8.04004 7.08691L8.13086 6.92676C8.20904 6.76109 8.25 6.5787 8.25 6.39355V5.5791C7.65928 5.29804 7.25 4.69772 7.25 4V3C7.25 2.0335 8.0335 1.25 9 1.25H15ZM7.75 18.9971C7.75004 19.6878 8.31022 20.248 9.00098 20.248H14.999C15.6898 20.248 16.25 19.6878 16.25 18.9971V12.75H7.75V18.9971ZM9.75 6.39355C9.75 6.93666 9.58949 7.46851 9.28809 7.91992L9.28711 7.91895L7.95996 9.91113L7.95898 9.91016C7.82183 10.1163 7.7501 10.3583 7.75 10.6035V11.25H16.25V10.6035C16.2499 10.4185 16.209 10.2368 16.1309 10.0713L16.04 9.91113L14.7119 7.91895C14.4113 7.46733 14.25 6.93604 14.25 6.39355V5.75H9.75V6.39355ZM9 2.75C8.86193 2.75 8.75 2.86193 8.75 3V4C8.75 4.13807 8.86193 4.25 9 4.25H15C15.1381 4.25 15.25 4.13807 15.25 4V3C15.25 2.86193 15.1381 2.75 15 2.75H9Z" fill="#17191A"/>
</svg>
