<svg width="24" height="24" viewBox="0 0 24 24" fill="none" xmlns="http://www.w3.org/2000/svg">
<path d="M17.496 8.94L16.169 6.949C16.059 6.783 16 6.591 16 6.394V5.722C16.595 5.375 17 4.737 17 4V3C17 1.897 16.103 1 15 1H9C7.897 1 7 1.897 7 3V4C7 4.737 7.405 5.375 8 5.722V6.394C8 6.592 7.942 6.783 7.832 6.948L6.503 8.941C6.174 9.436 6 10.011 6 10.604V18.997C6 20.651 7.346 21.998 9.001 21.998H14.999C16.653 21.998 18 20.651 18 18.997V10.604C18 10.01 17.826 9.435 17.496 8.94ZM9 3H15V4H9V3ZM8.168 10.05L9.496 8.058C9.826 7.563 10 6.988 10 6.394V6H14V6.394C14 6.986 14.174 7.561 14.504 8.058L15.832 10.05C15.942 10.215 16 10.406 16 10.604V11H8V10.604C8 10.407 8.059 10.215 8.168 10.05Z" fill="#17191A"/>
</svg>
