<svg width="24" height="24" viewBox="0 0 24 24" fill="none" xmlns="http://www.w3.org/2000/svg">
<path d="M15.5107 2.38672C18.6864 2.38672 21.2607 4.96108 21.2607 8.13672C21.2605 11.3121 18.6862 13.8867 15.5107 13.8867C14.1935 13.8867 12.9803 13.4424 12.0107 12.6973L8.79395 15.915L10.915 18.0361L7.02637 21.9248L4.90527 19.8037L4.02148 20.6875L2.96094 19.627L10.9502 11.6367C10.205 10.6672 9.76085 9.45403 9.76074 8.13672C9.76074 4.96116 12.3352 2.38684 15.5107 2.38672ZM5.96582 18.7432L7.02637 19.8037L8.79395 18.0361L7.7334 16.9756L5.96582 18.7432ZM15.5107 3.88672C13.1636 3.88684 11.2607 5.78958 11.2607 8.13672C11.261 10.4836 13.1638 12.3866 15.5107 12.3867C17.8578 12.3867 19.7605 10.4837 19.7607 8.13672C19.7607 5.78951 17.858 3.88672 15.5107 3.88672Z" fill="#17191A"/>
</svg>
