<svg width="24" height="24" viewBox="0 0 24 24" fill="none" xmlns="http://www.w3.org/2000/svg">
<path d="M15.5102 2.13579C12.2012 2.13579 9.5102 4.82679 9.5102 8.13579C9.5102 9.42979 9.9262 10.6258 10.6252 11.6068L2.7832 19.4488L4.1972 20.8628L4.9042 20.1558L7.0252 22.2768L11.2672 18.0348L9.1462 15.9138L12.0392 13.0198C13.0202 13.7188 14.2162 14.1338 15.5092 14.1338C18.8182 14.1338 21.5092 11.4428 21.5092 8.13379C21.5092 4.82479 18.8182 2.13379 15.5092 2.13379L15.5102 2.13579ZM15.5102 12.1358C13.3042 12.1358 11.5102 10.3418 11.5102 8.13579C11.5102 5.92979 13.3042 4.13579 15.5102 4.13579C17.7162 4.13579 19.5102 5.92979 19.5102 8.13579C19.5102 10.3418 17.7162 12.1358 15.5102 12.1358Z" fill="#17191A"/>
</svg>
