<svg width="24" height="24" viewBox="0 0 24 24" fill="none" xmlns="http://www.w3.org/2000/svg">
<path fill-rule="evenodd" clip-rule="evenodd" d="M10.2277 3.22692C12.8636 0.591027 17.1374 0.591027 19.7733 3.22692C22.4092 5.86281 22.4092 10.1367 19.7733 12.7726C17.8624 14.6835 15.1008 15.1917 12.7238 14.3371L11.75 15.3109V18.7502H8.75703L8.78503 21.7502H3.25V15.6896L8.66327 10.2763C7.80959 7.89888 8.31652 5.13807 10.2277 3.22692ZM18.7127 4.28758C16.6626 2.23747 13.3384 2.23747 11.2883 4.28758C9.70563 5.87028 9.35781 8.21173 10.2281 10.1489L10.4401 10.6208L4.75 16.3109V20.2502H7.27097L7.24297 17.2502H10.25V14.6896L12.3797 12.5599L12.8517 12.7723C14.7874 13.6432 17.1298 13.2948 18.7127 11.7119C20.7628 9.66181 20.7628 6.33769 18.7127 4.28758Z" fill="#17191A"/>
</svg>
