<svg width="24" height="24" viewBox="0 0 24 24" fill="none" xmlns="http://www.w3.org/2000/svg">
<path fill-rule="evenodd" clip-rule="evenodd" d="M7.25 21V2H8.75V21H7.25Z" fill="#17191A"/>
<path fill-rule="evenodd" clip-rule="evenodd" d="M15.25 21V14H16.75V21H15.25Z" fill="#17191A"/>
<path fill-rule="evenodd" clip-rule="evenodd" d="M15.25 2.25H16C18.6222 2.25 20.75 4.37779 20.75 7V14.75H15.25V2.25ZM16.75 3.83711V13.25H19.25V7C19.25 5.46431 18.1827 4.17604 16.75 3.83711Z" fill="#17191A"/>
<path fill-rule="evenodd" clip-rule="evenodd" d="M4.75 2V8C4.75 8.69079 5.30921 9.25 6 9.25H10C10.6908 9.25 11.25 8.69079 11.25 8V2H12.75V8C12.75 9.51921 11.5192 10.75 10 10.75H6C4.48079 10.75 3.25 9.51921 3.25 8V2H4.75Z" fill="#17191A"/>
</svg>
