<svg width="24" height="24" viewBox="0 0 24 24" fill="none" xmlns="http://www.w3.org/2000/svg">
<path d="M21 20.2501V21.7501H3V20.2501H21Z" fill="#17191A"/>
<path d="M6.75 13.0001V19.0001H5.25V13.0001H6.75Z" fill="#17191A"/>
<path d="M10.75 13.0001V19.0001H9.25V13.0001H10.75Z" fill="#17191A"/>
<path d="M14.75 13.0001V19.0001H13.25V13.0001H14.75Z" fill="#17191A"/>
<path d="M18.75 13.0001V19.0001H17.25V13.0001H18.75Z" fill="#17191A"/>
<path d="M11.666 2.32822C11.9111 2.20626 12.2075 2.22703 12.4355 2.38974L19.4355 7.38974L18.5645 8.61044L12 3.92099L5.43555 8.61044L4.56445 7.38974L11.5645 2.38974L11.666 2.32822Z" fill="#17191A"/>
<path d="M21 10.2501V11.7501H3V10.2501H21Z" fill="#17191A"/>
<path d="M21 7.25009V8.75009H3V7.25009H21Z" fill="#17191A"/>
</svg>
