<svg width="24" height="24" viewBox="0 0 24 24" fill="none" xmlns="http://www.w3.org/2000/svg">
<path d="M4 13C5.288 13 6.713 12.536 8 11.773C9.287 12.536 10.712 13 12 13V11C11.303 11 10.525 10.79 9.765 10.443C11.085 9.197 12 7.621 12 6V5H13V3H9V2H7V3H3V5H10V6C10 7.182 9.153 8.404 8 9.345C6.847 8.404 6 7.183 6 6H4C4 7.621 4.915 9.197 6.235 10.443C5.475 10.79 4.696 11 4 11V13Z" fill="#17191A"/>
<path d="M21.09 22.414L22.91 21.586L17 8.58398L11.09 21.586L12.91 22.414L14.462 19H19.538L21.09 22.414ZM15.371 17L17 13.417L18.629 17H15.371Z" fill="#17191A"/>
</svg>
