<svg width="24" height="24" viewBox="0 0 24 24" fill="none" xmlns="http://www.w3.org/2000/svg">
<path fill-rule="evenodd" clip-rule="evenodd" d="M13 4.75H3V3.25H13V4.75Z" fill="#17191A"/>
<path fill-rule="evenodd" clip-rule="evenodd" d="M10.25 6V4H11.75V6C11.75 7.82192 10.5567 9.51358 9.09993 10.7055C7.63277 11.9059 5.72042 12.75 4 12.75V11.25C5.27958 11.25 6.86723 10.5941 8.15007 9.54453C9.44332 8.48642 10.25 7.17808 10.25 6Z" fill="#17191A"/>
<path fill-rule="evenodd" clip-rule="evenodd" d="M6.90007 10.7055C5.44332 9.51358 4.25 7.82192 4.25 6H5.75C5.75 7.17808 6.55668 8.48642 7.84993 9.54453C9.13277 10.5941 10.7204 11.25 12 11.25V12.75C10.2796 12.75 8.36723 11.9059 6.90007 10.7055Z" fill="#17191A"/>
<path fill-rule="evenodd" clip-rule="evenodd" d="M17 9.18754L22.6828 21.6896L21.3172 22.3104L17 12.8125L12.6828 22.3104L11.3172 21.6896L17 9.18754Z" fill="#17191A"/>
<path fill-rule="evenodd" clip-rule="evenodd" d="M13.8 17.25H20.2V18.75H13.8V17.25Z" fill="#17191A"/>
<path fill-rule="evenodd" clip-rule="evenodd" d="M7.25 4.2V2H8.75V4.2H7.25Z" fill="#17191A"/>
</svg>
