<svg width="24" height="24" viewBox="0 0 24 24" fill="none" xmlns="http://www.w3.org/2000/svg">
<path fill-rule="evenodd" clip-rule="evenodd" d="M5 5.75C4.30964 5.75 3.75 6.30964 3.75 7V15C3.75 15.6904 4.30964 16.25 5 16.25H19C19.6904 16.25 20.25 15.6904 20.25 15V7C20.25 6.30964 19.6904 5.75 19 5.75H5ZM2.25 7C2.25 5.48122 3.48122 4.25 5 4.25H19C20.5188 4.25 21.75 5.48122 21.75 7V15C21.75 16.5188 20.5188 17.75 19 17.75H5C3.48122 17.75 2.25 16.5188 2.25 15V7Z" fill="#17191A"/>
<path fill-rule="evenodd" clip-rule="evenodd" d="M23 20.75H1V19.25H23V20.75Z" fill="#17191A"/>
</svg>
