<svg width="24" height="24" viewBox="0 0 24 24" fill="none" xmlns="http://www.w3.org/2000/svg">
<path fill-rule="evenodd" clip-rule="evenodd" d="M11.386 2.09438C11.6125 1.96854 11.888 1.96854 12.1145 2.09438L21.1145 7.09438C21.3526 7.22666 21.5002 7.47762 21.5002 7.75C21.5002 8.02238 21.3526 8.27334 21.1145 8.40562L12.1145 13.4056C11.888 13.5315 11.6125 13.5315 11.386 13.4056L2.38601 8.40562C2.14791 8.27334 2.00024 8.02238 2.00024 7.75C2.00024 7.47762 2.14791 7.22666 2.38601 7.09438L11.386 2.09438ZM4.29459 7.75L11.7502 11.892L19.2059 7.75L11.7502 3.60797L4.29459 7.75Z" fill="#17191A"/>
<path fill-rule="evenodd" clip-rule="evenodd" d="M2.09452 11.3858C2.29568 11.0237 2.75228 10.8932 3.11437 11.0944L11.7501 15.892L20.3859 11.0944C20.748 10.8932 21.2046 11.0237 21.4058 11.3858C21.6069 11.7479 21.4765 12.2045 21.1144 12.4056L12.1144 17.4056C11.8879 17.5315 11.6124 17.5315 11.3859 17.4056L2.3859 12.4056C2.02382 12.2045 1.89336 11.7479 2.09452 11.3858Z" fill="#17191A"/>
<path fill-rule="evenodd" clip-rule="evenodd" d="M2.09452 15.3858C2.29568 15.0237 2.75228 14.8932 3.11437 15.0944L11.7501 19.892L20.3859 15.0944C20.748 14.8932 21.2046 15.0237 21.4058 15.3858C21.6069 15.7479 21.4765 16.2045 21.1144 16.4056L12.1144 21.4056C11.8879 21.5315 11.6124 21.5315 11.3859 21.4056L2.3859 16.4056C2.02382 16.2045 1.89336 15.7479 2.09452 15.3858Z" fill="#17191A"/>
</svg>
