<svg width="24" height="24" viewBox="0 0 24 24" fill="none" xmlns="http://www.w3.org/2000/svg">
<path d="M2.51424 8.874L11.5142 13.874C11.6652 13.958 11.8322 14 12.0002 14C12.1682 14 12.3342 13.958 12.4862 13.874L21.4862 8.874C21.8032 8.698 22.0012 8.363 22.0012 8C22.0012 7.637 21.8042 7.302 21.4862 7.126L12.4862 2.126C12.1832 1.958 11.8172 1.958 11.5142 2.126L2.51424 7.126C2.19724 7.302 2.00024 7.637 2.00024 8C2.00024 8.363 2.19724 8.698 2.51424 8.874Z" fill="#17191A"/>
<path d="M20.5153 11.126L12.0003 15.856L3.48633 11.126C3.00233 10.858 2.39433 11.032 2.12633 11.514C1.85733 11.997 2.03233 12.606 2.51433 12.874L11.5143 17.874C11.6653 17.958 11.8323 18 12.0003 18C12.1683 18 12.3343 17.958 12.4863 17.874L21.4863 12.874C21.9693 12.606 22.1433 11.997 21.8753 11.514C21.6063 11.032 20.9983 10.858 20.5163 11.126H20.5153Z" fill="#17191A"/>
<path d="M20.5153 15.126L12.0003 19.856L3.48633 15.126C3.00233 14.855 2.39433 15.031 2.12633 15.515C1.85733 15.997 2.03233 16.606 2.51433 16.874L11.5143 21.874C11.6653 21.958 11.8323 22 12.0003 22C12.1683 22 12.3343 21.958 12.4863 21.874L21.4863 16.874C21.9693 16.605 22.1433 15.997 21.8753 15.515C21.6063 15.032 20.9983 14.856 20.5163 15.126H20.5153Z" fill="#17191A"/>
</svg>
