<svg width="24" height="24" viewBox="0 0 24 24" fill="none" xmlns="http://www.w3.org/2000/svg">
<path d="M6 3.5C6.28 3.5 6.5 3.72 6.5 4V6C6.5 6.28 6.28 6.5 6 6.5H4C3.72 6.5 3.5 6.28 3.5 6V4C3.5 3.72 3.72 3.5 4 3.5H6ZM6 2H4C2.9 2 2 2.9 2 4V6C2 7.1 2.9 8 4 8H6C7.1 8 8 7.1 8 6V4C8 2.9 7.1 2 6 2Z" fill="#17191A"/>
<path d="M13 3.56C13.28 3.56 13.5 3.78 13.5 4.06V6.06C13.5 6.34 13.28 6.56 13 6.56H11C10.72 6.56 10.5 6.34 10.5 6.06V4.06C10.5 3.78 10.72 3.56 11 3.56H13ZM13 2.06H11C9.9 2.06 9 2.96 9 4.06V6.06C9 7.16 9.9 8.06 11 8.06H13C14.1 8.06 15 7.16 15 6.06V4.06C15 2.95 14.1 2.06 13 2.06Z" fill="#17191A"/>
<path d="M20 3.5C20.28 3.5 20.5 3.72 20.5 4V6C20.5 6.28 20.28 6.5 20 6.5H18C17.72 6.5 17.5 6.28 17.5 6V4C17.5 3.72 17.72 3.5 18 3.5H20ZM20 2H18C16.9 2 16 2.9 16 4V6C16 7.1 16.9 8 18 8H20C21.1 8 22 7.1 22 6V4C22 2.9 21.1 2 20 2Z" fill="#17191A"/>
<path d="M6 10.5C6.28 10.5 6.5 10.72 6.5 11V13C6.5 13.28 6.28 13.5 6 13.5H4C3.72 13.5 3.5 13.28 3.5 13V11C3.5 10.72 3.72 10.5 4 10.5H6ZM6 9H4C2.9 9 2 9.9 2 11V13C2 14.1 2.9 15 4 15H6C7.1 15 8 14.1 8 13V11C8 9.9 7.1 9 6 9Z" fill="#17191A"/>
<path d="M13 10.56C13.28 10.56 13.5 10.78 13.5 11.06V13.06C13.5 13.34 13.28 13.56 13 13.56H11C10.72 13.56 10.5 13.34 10.5 13.06V11.06C10.5 10.78 10.72 10.56 11 10.56H13ZM13 9.06H11C9.9 9.06 9 9.96 9 11.06V13.06C9 14.16 9.9 15.06 11 15.06H13C14.1 15.06 15 14.16 15 13.06V11.06C15 9.96 14.1 9.06 13 9.06Z" fill="#17191A"/>
<path d="M20 10.5C20.28 10.5 20.5 10.72 20.5 11V13C20.5 13.28 20.28 13.5 20 13.5H18C17.72 13.5 17.5 13.28 17.5 13V11C17.5 10.72 17.72 10.5 18 10.5H20ZM20 9H18C16.9 9 16 9.9 16 11V13C16 14.1 16.9 15 18 15H20C21.1 15 22 14.1 22 13V11C22 9.9 21.1 9 20 9Z" fill="#17191A"/>
<path d="M6 17.5C6.28 17.5 6.5 17.72 6.5 18V20C6.5 20.28 6.28 20.5 6 20.5H4C3.72 20.5 3.5 20.28 3.5 20V18C3.5 17.72 3.72 17.5 4 17.5H6ZM6 16H4C2.9 16 2 16.9 2 18V20C2 21.1 2.9 22 4 22H6C7.1 22 8 21.1 8 20V18C8 16.9 7.1 16 6 16Z" fill="#17191A"/>
<path d="M13 17.56C13.28 17.56 13.5 17.78 13.5 18.06V20.06C13.5 20.34 13.28 20.56 13 20.56H11C10.72 20.56 10.5 20.34 10.5 20.06V18.06C10.5 17.78 10.72 17.56 11 17.56H13ZM13 16.06H11C9.9 16.06 9 16.96 9 18.06V20.06C9 21.16 9.9 22.06 11 22.06H13C14.1 22.06 15 21.16 15 20.06V18.06C15 16.96 14.1 16.06 13 16.06Z" fill="#17191A"/>
<path d="M20 17.5C20.28 17.5 20.5 17.72 20.5 18V20C20.5 20.28 20.28 20.5 20 20.5H18C17.72 20.5 17.5 20.28 17.5 20V18C17.5 17.72 17.72 17.5 18 17.5H20ZM20 16H18C16.9 16 16 16.9 16 18V20C16 21.1 16.9 22 18 22H20C21.1 22 22 21.1 22 20V18C22 16.9 21.1 16 20 16Z" fill="#17191A"/>
</svg>
