<svg width="24" height="24" viewBox="0 0 24 24" fill="none" xmlns="http://www.w3.org/2000/svg">
<path fill-rule="evenodd" clip-rule="evenodd" d="M8.25 9.75H5.5V18C5.5 18.2761 5.72386 18.5 6 18.5H8.25V9.75ZM9.75 18.5V9.75H18.5V18C18.5 18.2761 18.2761 18.5 18 18.5H9.75ZM6 20C4.89543 20 4 19.1046 4 18V6C4 4.89543 4.89543 4 6 4H18C19.1046 4 20 4.89543 20 6V18C20 19.1046 19.1046 20 18 20H6ZM18.5 8.25V6C18.5 5.72386 18.2761 5.5 18 5.5H6C5.72386 5.5 5.5 5.72386 5.5 6V8.25H18.5Z" fill="#17191A"/>
</svg>
