<svg width="24" height="24" viewBox="0 0 24 24" fill="none" xmlns="http://www.w3.org/2000/svg">
<path d="M6 2H4C2.89543 2 2 2.8928 2 3.99412V5.98823C2 7.08956 2.89543 7.98235 4 7.98235H6C7.10457 7.98235 8 7.08956 8 5.98823V3.99412C8 2.8928 7.10457 2 6 2Z" fill="#17191A"/>
<path d="M13 2.05883H11C9.89543 2.05883 9 2.95162 9 4.05294V6.04706C9 7.14838 9.89543 8.04118 11 8.04118H13C14.1046 8.04118 15 7.14838 15 6.04706V4.05294C15 2.95162 14.1046 2.05883 13 2.05883Z" fill="#17191A"/>
<path d="M20 2H18C16.8954 2 16 2.8928 16 3.99412V5.98823C16 7.08956 16.8954 7.98235 18 7.98235H20C21.1046 7.98235 22 7.08956 22 5.98823V3.99412C22 2.8928 21.1046 2 20 2Z" fill="#17191A"/>
<path d="M6 8.97941H4C2.89543 8.97941 2 9.87221 2 10.9735V12.9676C2 14.069 2.89543 14.9618 4 14.9618H6C7.10457 14.9618 8 14.069 8 12.9676V10.9735C8 9.87221 7.10457 8.97941 6 8.97941Z" fill="#17191A"/>
<path d="M13 9.03824H11C9.89543 9.03824 9 9.93103 9 11.0324V13.0265C9 14.1278 9.89543 15.0206 11 15.0206H13C14.1046 15.0206 15 14.1278 15 13.0265V11.0324C15 9.93103 14.1046 9.03824 13 9.03824Z" fill="#17191A"/>
<path d="M20 8.97941H18C16.8954 8.97941 16 9.87221 16 10.9735V12.9676C16 14.069 16.8954 14.9618 18 14.9618H20C21.1046 14.9618 22 14.069 22 12.9676V10.9735C22 9.87221 21.1046 8.97941 20 8.97941Z" fill="#17191A"/>
<path d="M6 15.9588H4C2.89543 15.9588 2 16.8516 2 17.9529V19.9471C2 21.0484 2.89543 21.9412 4 21.9412H6C7.10457 21.9412 8 21.0484 8 19.9471V17.9529C8 16.8516 7.10457 15.9588 6 15.9588Z" fill="#17191A"/>
<path d="M13 16.0176H11C9.89543 16.0176 9 16.9104 9 18.0118V20.0059C9 21.1072 9.89543 22 11 22H13C14.1046 22 15 21.1072 15 20.0059V18.0118C15 16.9104 14.1046 16.0176 13 16.0176Z" fill="#17191A"/>
<path d="M20 15.9588H18C16.8954 15.9588 16 16.8516 16 17.9529V19.9471C16 21.0484 16.8954 21.9412 18 21.9412H20C21.1046 21.9412 22 21.0484 22 19.9471V17.9529C22 16.8516 21.1046 15.9588 20 15.9588Z" fill="#17191A"/>
</svg>
