<svg width="24" height="24" viewBox="0 0 24 24" fill="none" xmlns="http://www.w3.org/2000/svg">
<path d="M9 4.5C9.276 4.5 9.5 4.724 9.5 5V9C9.5 9.276 9.276 9.5 9 9.5H5C4.724 9.5 4.5 9.276 4.5 9V5C4.5 4.724 4.724 4.5 5 4.5H9ZM9 3H5C3.895 3 3 3.895 3 5V9C3 10.105 3.895 11 5 11H9C10.105 11 11 10.105 11 9V5C11 3.895 10.105 3 9 3Z" fill="#17191A"/>
<path d="M19 4.5C19.276 4.5 19.5 4.724 19.5 5V9C19.5 9.276 19.276 9.5 19 9.5H15C14.724 9.5 14.5 9.276 14.5 9V5C14.5 4.724 14.724 4.5 15 4.5H19ZM19 3H15C13.895 3 13 3.895 13 5V9C13 10.105 13.895 11 15 11H19C20.105 11 21 10.105 21 9V5C21 3.895 20.105 3 19 3Z" fill="#17191A"/>
<path d="M9 14.5C9.276 14.5 9.5 14.724 9.5 15V19C9.5 19.276 9.276 19.5 9 19.5H5C4.724 19.5 4.5 19.276 4.5 19V15C4.5 14.724 4.724 14.5 5 14.5H9ZM9 13H5C3.895 13 3 13.895 3 15V19C3 20.105 3.895 21 5 21H9C10.105 21 11 20.105 11 19V15C11 13.895 10.105 13 9 13Z" fill="#17191A"/>
<path d="M19 14.5C19.276 14.5 19.5 14.724 19.5 15V19C19.5 19.276 19.276 19.5 19 19.5H15C14.724 19.5 14.5 19.276 14.5 19V15C14.5 14.724 14.724 14.5 15 14.5H19ZM19 13H15C13.895 13 13 13.895 13 15V19C13 20.105 13.895 21 15 21H19C20.105 21 21 20.105 21 19V15C21 13.895 20.105 13 19 13Z" fill="#17191A"/>
</svg>
