<svg width="24" height="24" viewBox="0 0 24 24" fill="none" xmlns="http://www.w3.org/2000/svg">
<path d="M20.9294 8.631C20.7784 8.25 20.4094 8 19.9994 8H14.6804L17.6784 2.477C17.8464 2.167 17.8394 1.791 17.6584 1.489C17.4774 1.186 17.1514 1 16.7994 1H10.3994C10.0184 1 9.67038 1.217 9.50238 1.56L4.10238 12.56C3.95038 12.87 3.96838 13.236 4.15138 13.53C4.33438 13.823 4.65438 14.001 5.00038 14.001H8.83038L5.29438 21.578C5.09138 22.013 5.22638 22.53 5.61438 22.811C5.79038 22.938 5.99538 23 6.20038 23C6.44838 23 6.69438 22.908 6.88638 22.728L20.6864 9.728C20.9854 9.447 21.0814 9.012 20.9294 8.631Z" fill="#17191A"/>
</svg>
