<svg width="24" height="24" viewBox="0 0 24 24" fill="none" xmlns="http://www.w3.org/2000/svg">
<path fill-rule="evenodd" clip-rule="evenodd" d="M9.72675 1.6695C9.85281 1.41272 10.1139 1.25 10.4 1.25H16.8C17.0644 1.25 17.3093 1.38925 17.4445 1.61651C17.5798 1.84376 17.5853 2.12542 17.4591 2.35782L14.2605 8.25H20C20.3074 8.25 20.5837 8.43761 20.6971 8.72336C20.8105 9.00911 20.738 9.33512 20.5143 9.54592L6.71427 22.5459C6.45238 22.7926 6.05219 22.8186 5.76061 22.6078C5.46903 22.397 5.36821 22.0089 5.52036 21.6828L9.22235 13.75H5C4.74104 13.75 4.5004 13.6164 4.36346 13.3966C4.22651 13.1768 4.21263 12.902 4.32675 12.6695L9.72675 1.6695ZM10.8673 2.75L6.20368 12.25H10.4C10.6563 12.25 10.8949 12.3809 11.0326 12.5971C11.1703 12.8133 11.188 13.0849 11.0796 13.3172L8.53498 18.77L18.1101 9.75H13C12.7356 9.75 12.4907 9.61075 12.3555 9.38349C12.2202 9.15624 12.2147 8.87458 12.3409 8.64218L15.5395 2.75H10.8673Z" fill="#17191A"/>
</svg>
