<svg width="24" height="24" viewBox="0 0 24 24" fill="none" xmlns="http://www.w3.org/2000/svg">
<path d="M15.6787 10.25L16.8291 21.75H7.1709L8.32129 10.25H15.6787ZM8.82812 20.25H15.1719L14.3213 11.75H9.67871L8.82812 20.25Z" fill="#17191A"/>
<path d="M12 2.25C14.0712 2.25 15.75 3.92879 15.75 6H14.25C14.25 4.75721 13.2428 3.75 12 3.75C10.7572 3.75 9.75 4.75721 9.75 6H8.25C8.25 3.92879 9.92879 2.25 12 2.25Z" fill="#17191A"/>
<path d="M17 5.25V6.75H7V5.25H17Z" fill="#17191A"/>
<path d="M19 20.25V21.75H5V20.25H19Z" fill="#17191A"/>
<path d="M9.75 6V11H8.25V6H9.75Z" fill="#17191A"/>
<path d="M15.75 7V12H14.25V7H15.75Z" fill="#17191A"/>
<path d="M17 10.25V11.75H7V10.25H17Z" fill="#17191A"/>
<path d="M12.75 7V12H11.25V7H12.75Z" fill="#17191A"/>
<path d="M12.75 1V3H11.25V1H12.75Z" fill="#17191A"/>
</svg>
