<svg width="24" height="24" viewBox="0 0 24 24" fill="none" xmlns="http://www.w3.org/2000/svg">
<path fill-rule="evenodd" clip-rule="evenodd" d="M14.9137 9.28008L9.2567 14.9371L8.19604 13.8764L13.853 8.21942L14.9137 9.28008Z" fill="#17191A"/>
<path fill-rule="evenodd" clip-rule="evenodd" d="M17.3879 5.74494C15.7289 4.08509 13.0379 4.0849 11.3777 5.74508L9.96374 7.15908L8.90308 6.09842L10.3171 4.68442C12.5629 2.4386 16.2039 2.43841 18.4489 4.68456C20.6934 6.93024 20.6948 10.57 18.4487 12.8161L17.0335 14.2303L15.9733 13.1692L17.3881 11.7554C17.388 11.7555 17.3881 11.7554 17.3881 11.7554C19.0478 10.0955 19.0473 7.40519 17.3879 5.74494Z" fill="#17191A"/>
<path fill-rule="evenodd" clip-rule="evenodd" d="M5.7231 11.3995L7.13535 9.98729L6.07493 8.92639L4.66095 10.3404L4.65809 10.3433C2.43793 12.5876 2.44714 16.2045 4.68694 18.419C6.93197 20.6389 10.5115 20.7289 12.7898 18.4749L12.7926 18.472L14.2066 17.058L13.1459 15.9974L11.7348 17.4085C11.7343 17.409 11.7339 17.4095 11.7334 17.4099C10.0636 19.0605 7.42612 19.0181 5.74161 17.3524C4.0959 15.7253 4.08264 13.0593 5.7231 11.3995Z" fill="#17191A"/>
</svg>
