<svg width="24" height="24" viewBox="0 0 24 24" fill="none" xmlns="http://www.w3.org/2000/svg">
<path d="M14.1082 8.4606L8.45068 14.1182L9.8649 15.5324L15.5225 9.87482L14.1082 8.4606Z" fill="#17191A"/>
<path d="M19.0557 4.92595C17.9237 3.79295 16.4167 3.16895 14.8147 3.16895C13.2127 3.16895 11.7047 3.79295 10.5707 4.92595L9.15668 6.33995L10.5707 7.75395L11.9847 6.33995C12.7407 5.58395 13.7447 5.16795 14.8147 5.16795C15.8847 5.16795 16.8867 5.58395 17.6417 6.33895C19.2017 7.89895 19.2017 10.4369 17.6417 11.9959L16.2267 13.4109L17.6407 14.8249L19.0557 13.4109C21.3947 11.0719 21.3947 7.26495 19.0557 4.92595Z" fill="#17191A"/>
<path d="M11.9887 17.649C10.4247 19.199 7.94668 19.172 6.34768 17.592C5.59868 16.851 5.18368 15.861 5.18068 14.804C5.17768 13.745 5.58668 12.746 6.33368 11.991L7.74368 10.581L6.32968 9.16699C6.32968 9.16699 4.91468 10.581 4.91168 10.585C3.79068 11.718 3.17568 13.219 3.18168 14.811C3.18668 16.404 3.81268 17.897 4.94268 19.014C6.14568 20.204 7.68668 20.801 9.22068 20.801C10.7297 20.801 12.2317 20.224 13.4007 19.067L14.8157 17.653L13.4017 16.239L11.9907 17.649H11.9887Z" fill="#17191A"/>
</svg>
