<svg width="24" height="24" viewBox="0 0 24 24" fill="none" xmlns="http://www.w3.org/2000/svg">
<path d="M22.0009 6H6.00092V8H22.0009V6Z" fill="#17191A"/>
<path d="M22.0009 11H6.00092V13H22.0009V11Z" fill="#17191A"/>
<path d="M22.0009 16H6.00092V18H22.0009V16Z" fill="#17191A"/>
<path d="M2.85991 5.67596L2.86091 9.21596H3.77191V4.83496H2.85791L1.72491 5.62096V6.43496L2.84191 5.67596H2.85991Z" fill="#17191A"/>
<path d="M2.2219 11.1239C2.2259 10.9919 2.2609 10.8749 2.3249 10.7719C2.3899 10.6689 2.4789 10.5869 2.5919 10.5259C2.7049 10.4649 2.8369 10.4349 2.9869 10.4349C3.1169 10.4349 3.2309 10.4609 3.3299 10.5139C3.4289 10.5669 3.5069 10.6389 3.5639 10.7309C3.6209 10.8229 3.6489 10.9299 3.6489 11.0509V11.0569C3.6489 11.1579 3.6309 11.2549 3.5959 11.3469C3.5599 11.4389 3.4939 11.5439 3.3969 11.6609C3.2999 11.7789 3.1569 11.9249 2.9689 12.1009L1.4209 13.5489V14.1769H4.6059V13.4479H2.6199V13.4499L2.6189 13.4109L3.5359 12.5749C3.7889 12.3419 3.9879 12.1419 4.1339 11.9739C4.2799 11.8059 4.3839 11.6469 4.4479 11.4959C4.5119 11.3449 4.5439 11.1809 4.5439 11.0029V10.9969C4.5439 10.7479 4.4779 10.5279 4.3459 10.3369C4.2149 10.1449 4.0309 9.99492 3.7969 9.88592C3.5619 9.77692 3.2899 9.72192 2.9799 9.72192C2.6719 9.72192 2.3969 9.78192 2.1529 9.90092C1.9089 10.0199 1.7169 10.1859 1.5779 10.3969C1.4389 10.6089 1.3689 10.8519 1.3689 11.1269V11.1509H2.2189L2.2219 11.1239Z" fill="#17191A"/>
<path d="M3.63092 17.0189V17.0009C3.80092 16.9669 3.95492 16.9049 4.09392 16.8159C4.23192 16.7269 4.34192 16.6129 4.42292 16.4739C4.50392 16.3359 4.54492 16.1749 4.54492 15.9929V15.9869C4.54492 15.7569 4.48192 15.5549 4.35392 15.3829C4.22592 15.2109 4.04692 15.0769 3.81492 14.9809C3.58292 14.8849 3.30992 14.8369 2.99392 14.8369C2.68792 14.8369 2.41892 14.8879 2.18592 14.9929C1.95292 15.0979 1.76892 15.2439 1.63192 15.4319C1.49592 15.6199 1.41592 15.8409 1.39392 16.0939L1.39092 16.1329H2.23492L2.23792 16.1029C2.25192 15.9899 2.29092 15.8909 2.35592 15.8069C2.42092 15.7229 2.50792 15.6579 2.61692 15.6129C2.72692 15.5679 2.85192 15.5449 2.99392 15.5449C3.13792 15.5449 3.26092 15.5679 3.36292 15.6119C3.46492 15.6559 3.54292 15.7209 3.59692 15.8059C3.64992 15.8909 3.67692 15.9929 3.67692 16.1129V16.1189C3.67692 16.2369 3.64592 16.3399 3.58292 16.4289C3.52092 16.5179 3.43292 16.5869 3.32092 16.6379C3.20892 16.6879 3.07592 16.7139 2.92192 16.7139H2.43292V17.3699H2.93392C3.19892 17.3699 3.40492 17.4259 3.55292 17.5369C3.70092 17.6489 3.77492 17.8089 3.77492 18.0169V18.0229C3.77492 18.1419 3.74292 18.2479 3.67892 18.3399C3.61492 18.4319 3.52592 18.5029 3.40992 18.5549C3.29492 18.6059 3.15692 18.6319 2.99992 18.6319C2.84292 18.6319 2.70492 18.6089 2.58592 18.5609C2.46792 18.5129 2.37392 18.4479 2.30392 18.3659C2.23392 18.2849 2.19192 18.1909 2.17792 18.0859L2.17192 18.0519H1.29492L1.29792 18.0919C1.31992 18.3429 1.40292 18.5649 1.54692 18.7569C1.68992 18.9499 1.88592 19.0999 2.13392 19.2079L2.13192 19.2059C2.37992 19.3149 2.66992 19.3689 3.00192 19.3689C3.34392 19.3689 3.64292 19.3139 3.89792 19.2049C4.15292 19.0959 4.35092 18.9429 4.49292 18.7449C4.63492 18.5469 4.70592 18.3179 4.70592 18.0569V18.0509C4.70592 17.7539 4.60792 17.5149 4.41292 17.3349C4.21792 17.1549 3.95692 17.0489 3.63092 17.0189Z" fill="#17191A"/>
</svg>
