<svg width="24" height="24" viewBox="0 0 24 24" fill="none" xmlns="http://www.w3.org/2000/svg">
<path fill-rule="evenodd" clip-rule="evenodd" d="M22.7061 7.91504H6.70605V6.41504H22.7061V7.91504Z" fill="#17191A"/>
<path fill-rule="evenodd" clip-rule="evenodd" d="M22.7061 12.915H6.70605V11.415H22.7061V12.915Z" fill="#17191A"/>
<path fill-rule="evenodd" clip-rule="evenodd" d="M22.7061 17.915H6.70605V16.415H22.7061V17.915Z" fill="#17191A"/>
<path d="M3.56518 5.841H3.54718L2.43018 6.6V5.786L3.56318 5H4.47718V9.381H3.56618L3.56518 5.841Z" fill="#17191A"/>
<path d="M3.32422 13.615V13.576L4.24122 12.74C4.49422 12.507 4.69322 12.307 4.83922 12.139C4.98522 11.971 5.08922 11.812 5.15322 11.661C5.21722 11.51 5.24922 11.346 5.24922 11.168V11.162C5.24922 10.913 5.18322 10.693 5.05122 10.502C4.92022 10.31 4.73622 10.16 4.50222 10.051C4.26722 9.94196 3.99522 9.88696 3.68522 9.88696C3.37722 9.88696 3.10222 9.94696 2.85822 10.066C2.61422 10.185 2.42222 10.351 2.28322 10.562C2.14422 10.774 2.07422 11.017 2.07422 11.292V11.316H2.92422L2.92722 11.289C2.93122 11.157 2.96622 11.04 3.03022 10.937C3.09522 10.834 3.18422 10.752 3.29722 10.691C3.41022 10.63 3.54222 10.6 3.69222 10.6C3.82222 10.6 3.93622 10.626 4.03522 10.679C4.13422 10.732 4.21222 10.804 4.26922 10.896C4.32622 10.988 4.35422 11.095 4.35422 11.216V11.222C4.35422 11.323 4.33622 11.42 4.30122 11.512C4.26522 11.604 4.19922 11.709 4.10222 11.826C4.00522 11.944 3.86222 12.09 3.67422 12.266L2.12622 13.714V14.342H5.31122V13.613H3.32522L3.32422 13.615Z" fill="#17191A"/>
<path d="M2.839 19.373C2.591 19.265 2.395 19.115 2.252 18.922C2.108 18.73 2.025 18.508 2.003 18.257L2 18.217H2.877L2.883 18.251C2.897 18.356 2.939 18.45 3.009 18.531C3.079 18.613 3.173 18.678 3.291 18.726C3.41 18.774 3.548 18.797 3.705 18.797C3.862 18.797 4 18.771 4.115 18.72C4.231 18.668 4.32 18.597 4.384 18.505C4.448 18.413 4.48 18.307 4.48 18.188V18.182C4.48 17.974 4.406 17.814 4.258 17.702C4.11 17.591 3.904 17.535 3.639 17.535H3.138V16.879H3.627C3.781 16.879 3.914 16.853 4.026 16.803C4.138 16.752 4.226 16.683 4.288 16.594C4.351 16.505 4.382 16.402 4.382 16.284V16.278C4.382 16.158 4.355 16.056 4.302 15.971C4.248 15.886 4.17 15.821 4.068 15.777C3.966 15.733 3.843 15.71 3.699 15.71C3.557 15.71 3.432 15.733 3.322 15.778C3.213 15.823 3.126 15.888 3.061 15.972C2.996 16.056 2.957 16.155 2.943 16.268L2.94 16.298H2.096L2.099 16.259C2.121 16.006 2.201 15.785 2.337 15.597C2.474 15.409 2.658 15.263 2.891 15.158C3.124 15.053 3.393 15.002 3.699 15.002C4.015 15.002 4.288 15.05 4.52 15.146C4.752 15.242 4.931 15.376 5.059 15.548C5.187 15.72 5.25 15.922 5.25 16.152V16.158C5.25 16.34 5.209 16.501 5.128 16.639C5.047 16.778 4.937 16.892 4.799 16.981C4.66 17.07 4.506 17.132 4.336 17.166V17.184C4.662 17.214 4.923 17.32 5.118 17.5C5.313 17.68 5.411 17.919 5.411 18.216V18.222C5.411 18.483 5.34 18.712 5.198 18.91C5.056 19.108 4.858 19.261 4.603 19.37C4.348 19.479 4.049 19.534 3.707 19.534C3.375 19.534 3.085 19.48 2.837 19.371L2.839 19.373Z" fill="#17191A"/>
</svg>
