<svg width="24" height="24" viewBox="0 0 24 24" fill="none" xmlns="http://www.w3.org/2000/svg">
<path d="M4 7C4 6.44772 3.55228 6 3 6C2.44772 6 2 6.44772 2 7C2 7.55228 2.44772 8 3 8C3.55228 8 4 7.55228 4 7Z" fill="#17191A"/>
<path d="M4 12C4 11.4477 3.55228 11 3 11C2.44772 11 2 11.4477 2 12C2 12.5523 2.44772 13 3 13C3.55228 13 4 12.5523 4 12Z" fill="#17191A"/>
<path d="M4 17C4 16.4477 3.55228 16 3 16C2.44772 16 2 16.4477 2 17C2 17.5523 2.44772 18 3 18C3.55228 18 4 17.5523 4 17Z" fill="#17191A"/>
<path fill-rule="evenodd" clip-rule="evenodd" d="M22 7.75H6V6.25H22V7.75Z" fill="#17191A"/>
<path fill-rule="evenodd" clip-rule="evenodd" d="M22 12.75H6V11.25H22V12.75Z" fill="#17191A"/>
<path fill-rule="evenodd" clip-rule="evenodd" d="M22 17.75H6V16.25H22V17.75Z" fill="#17191A"/>
</svg>
