<svg width="24" height="24" viewBox="0 0 24 24" fill="none" xmlns="http://www.w3.org/2000/svg">
<path fill-rule="evenodd" clip-rule="evenodd" d="M3 9.85C3 5.36593 6.90627 1 11.75 1C14.1888 1 16.3767 2.13535 17.9435 3.7832C19.5068 5.42734 20.5 7.63136 20.5 9.85C20.5 12.1112 19.3661 14.0802 17.8372 16.0041C17.0685 16.9713 16.1765 17.9552 15.2405 18.9769C15.1473 19.0787 15.0535 19.1809 14.9594 19.2836C14.1034 20.2172 13.2122 21.1891 12.3212 22.2361C12.1787 22.4035 11.9699 22.5 11.75 22.5C11.5301 22.5 11.3213 22.4035 11.1788 22.2361C10.2657 21.1632 9.35222 20.1741 8.47652 19.226C8.40455 19.1481 8.33284 19.0705 8.2614 18.9931C7.32598 17.9797 6.43338 17.0048 5.66435 16.0435C4.13178 14.1278 3 12.1595 3 9.85ZM11.75 2.5C7.79373 2.5 4.5 6.13407 4.5 9.85C4.5 11.6405 5.36823 13.2722 6.83565 15.1065C7.56662 16.0202 8.42402 16.9578 9.3636 17.9757C9.43571 18.0538 9.50828 18.1324 9.58128 18.2114C10.2758 18.9633 11.0088 19.7568 11.7497 20.6025C12.4674 19.7818 13.1777 19.0072 13.853 18.2708C13.9475 18.1677 14.0414 18.0653 14.1345 17.9637C15.0735 16.9386 15.9315 15.9912 16.6628 15.0709C18.1339 13.2198 19 11.5888 19 9.85C19 8.06864 18.1932 6.22266 16.8565 4.8168C15.5233 3.41465 13.7112 2.5 11.75 2.5Z" fill="#17191A"/>
<path fill-rule="evenodd" clip-rule="evenodd" d="M8 9.75C8 7.63579 9.63579 6 11.75 6C13.8642 6 15.5 7.63579 15.5 9.75C15.5 11.8642 13.8642 13.5 11.75 13.5C9.63579 13.5 8 11.8642 8 9.75ZM11.75 7.5C10.4642 7.5 9.5 8.46421 9.5 9.75C9.5 11.0358 10.4642 12 11.75 12C13.0358 12 14 11.0358 14 9.75C14 8.46421 13.0358 7.5 11.75 7.5Z" fill="#17191A"/>
</svg>
