<svg width="24" height="24" viewBox="0 0 24 24" fill="none" xmlns="http://www.w3.org/2000/svg">
<path fill-rule="evenodd" clip-rule="evenodd" d="M4.75 11.5C4.61193 11.5 4.5 11.6119 4.5 11.75V19.75C4.5 19.8881 4.61193 20 4.75 20H18.75C18.8881 20 19 19.8881 19 19.75V11.75C19 11.6119 18.8881 11.5 18.75 11.5H4.75ZM3 11.75C3 10.7835 3.7835 10 4.75 10H18.75C19.7165 10 20.5 10.7835 20.5 11.75V19.75C20.5 20.7165 19.7165 21.5 18.75 21.5H4.75C3.7835 21.5 3 20.7165 3 19.75V11.75Z" fill="#17191A"/>
<path fill-rule="evenodd" clip-rule="evenodd" d="M11.75 3.5C9.96421 3.5 8.5 4.96421 8.5 6.75V10.75H7V6.75C7 4.13579 9.13579 2 11.75 2C14.3642 2 16.5 4.13579 16.5 6.75V10.75H15V6.75C15 4.96421 13.5358 3.5 11.75 3.5Z" fill="#17191A"/>
</svg>
