<svg width="24" height="24" viewBox="0 0 24 24" fill="none" xmlns="http://www.w3.org/2000/svg">
<path d="M23 6H17V5C17 3.346 15.654 2 14 2H10C8.346 2 7 3.346 7 5V6H1V20H4V21H6V20H18V21H20V20H23V6ZM14.914 11.793L12.793 13.914L12.085 13.208L14.207 11.085L14.914 11.793ZM15.218 9.368C14.452 8.918 13.45 9.014 12.793 9.671L10.671 11.793C9.891 12.572 9.891 13.842 10.671 14.621L11.379 15.328C11.769 15.718 12.281 15.913 12.793 15.913C13.305 15.913 13.817 15.718 14.207 15.328L16.328 13.207C16.985 12.55 17.082 11.549 16.632 10.782L17 10.414V18H7V8H16.586L15.218 9.368ZM9 5C9 4.449 9.449 4 10 4H14C14.552 4 15 4.449 15 5V6H9V5ZM3 8H5V18H3V8ZM21 18H19V8H21V18Z" fill="#17191A"/>
</svg>
