<svg width="24" height="24" viewBox="0 0 24 24" fill="none" xmlns="http://www.w3.org/2000/svg">
<path d="M22.75 6.25V19.75H1.25V6.25H22.75ZM2.75 18.25H21.25V7.75H2.75V18.25Z" fill="#17191A"/>
<path d="M15.25 5C15.25 4.31021 14.6898 3.75 14 3.75H10C9.31021 3.75 8.75 4.31021 8.75 5V6.25H15.25V5ZM16.75 7.75H7.25V5C7.25 3.48179 8.48179 2.25 10 2.25H14C15.5182 2.25 16.75 3.48179 16.75 5V7.75Z" fill="#17191A"/>
<path d="M14.3837 10.9089C14.286 10.8113 14.1277 10.8113 14.0301 10.9089L11.9088 13.0302C11.8112 13.1279 11.8112 13.2861 11.9088 13.3838L12.6159 14.0909C12.7135 14.1885 12.8718 14.1885 12.9694 14.0909L15.0908 11.9696C15.1884 11.8719 15.1884 11.7136 15.0908 11.616L14.3837 10.9089ZM16.1514 10.5553C16.8348 11.2388 16.8348 12.3468 16.1514 13.0302L14.0301 15.1515C13.3467 15.835 12.2387 15.835 11.5552 15.1515L10.8481 14.4444C10.1647 13.761 10.1647 12.653 10.8481 11.9696L12.9694 9.84824C13.6529 9.16483 14.7609 9.16483 15.4443 9.84824L16.1514 10.5553Z" fill="#17191A"/>
<path d="M5.75 19V21H4.25V19H5.75Z" fill="#17191A"/>
<path d="M20 19V21H18V19H20Z" fill="#17191A"/>
<path d="M18.75 7V19H17.25V7H18.75Z" fill="#17191A"/>
<path d="M6.75 7V19H5.25V7H6.75Z" fill="#17191A"/>
<path d="M18.5303 8.53027L15.5303 11.5303L14.4697 10.4697L17.4697 7.46973L18.5303 8.53027Z" fill="#17191A"/>
</svg>
