<svg width="24" height="24" viewBox="0 0 24 24" fill="none" xmlns="http://www.w3.org/2000/svg">
<path d="M20 4H4C2.346 4 1 5.346 1 7V17C1 18.654 2.346 20 4 20H12V18H4C3.449 18 3 17.552 3 17V9.618L12 14.118L21 9.618V13H23V7C23 5.346 21.654 4 20 4ZM21 7.382L12 11.882L3 7.382V7C3 6.449 3.449 6 4 6H20C20.552 6 21 6.449 21 7V7.382Z" fill="#17191A"/>
<path d="M22.142 15.31L19.871 14.987L18.902 12.968C18.736 12.621 18.385 12.401 18.001 12.401C17.617 12.401 17.266 12.622 17.1 12.968L16.131 14.987L13.86 15.31C13.485 15.364 13.172 15.624 13.053 15.984C12.933 16.343 13.027 16.74 13.294 17.007L14.925 18.638L14.517 20.924C14.45 21.299 14.602 21.68 14.909 21.905C15.218 22.131 15.627 22.161 15.963 21.987L18.002 20.926L20.041 21.987C20.186 22.062 20.344 22.099 20.502 22.099C20.711 22.099 20.919 22.034 21.095 21.905C21.402 21.679 21.554 21.299 21.487 20.924L21.079 18.638L22.71 17.007C22.978 16.739 23.071 16.343 22.951 15.984C22.832 15.625 22.519 15.364 22.144 15.31H22.142Z" fill="#17191A"/>
</svg>
