<svg width="24" height="24" viewBox="0 0 24 24" fill="none" xmlns="http://www.w3.org/2000/svg">
<path fill-rule="evenodd" clip-rule="evenodd" d="M2.25 7C2.25 4.38579 4.38579 2.25 7 2.25H17.5C19.8142 2.25 21.75 4.18579 21.75 6.5V14.75H2.25V7ZM14.282 3.75H7C5.21421 3.75 3.75 5.21421 3.75 7V13.25H13.25V6.5C13.25 5.45971 13.6412 4.49589 14.282 3.75ZM14.75 13.25V6.5C14.75 5.01421 16.0142 3.75 17.5 3.75C18.9858 3.75 20.25 5.01421 20.25 6.5V13.25H14.75Z" fill="#17191A"/>
<path fill-rule="evenodd" clip-rule="evenodd" d="M10 7.75H7V6.25H10V7.75Z" fill="#17191A"/>
<path fill-rule="evenodd" clip-rule="evenodd" d="M11.25 21V14H12.75V21H11.25Z" fill="#17191A"/>
<path fill-rule="evenodd" clip-rule="evenodd" d="M16 21.75H8V20.25H16V21.75Z" fill="#17191A"/>
</svg>
