<svg width="24" height="24" viewBox="0 0 24 24" fill="none" xmlns="http://www.w3.org/2000/svg">
<path d="M22.929 8.65548C22.919 8.62848 22.909 8.60248 22.897 8.57648C22.849 8.47448 22.789 8.37948 22.71 8.29848C22.703 8.29148 22.693 8.28648 22.686 8.27948C22.633 8.22948 22.578 8.18148 22.514 8.14348L12.514 2.14348C12.197 1.95348 11.802 1.95348 11.485 2.14348L1.48405 8.14348C1.41905 8.18248 1.36305 8.23048 1.31005 8.28148C1.30305 8.28748 1.29505 8.29148 1.28805 8.29848C1.20805 8.37948 1.14805 8.47548 1.09905 8.57848C1.08705 8.60348 1.07805 8.62848 1.06805 8.65548C1.02705 8.76548 0.998047 8.88048 0.998047 9.00148V19.0015C0.998047 19.0445 1.01005 19.0835 1.01105 19.1265C1.01305 19.1435 1.01305 19.1605 1.01705 19.1785C1.11605 20.7495 2.49805 22.0025 4.19805 22.0025H19.798C21.499 22.0025 22.881 20.7495 22.979 19.1775C22.982 19.1615 22.982 19.1455 22.984 19.1295C22.986 19.0865 22.998 19.0465 22.998 19.0025V9.00248C22.998 8.88148 22.969 8.76748 22.928 8.65748L22.929 8.65548ZM2.99905 10.7665L8.24805 13.9155L2.99905 17.1965V10.7665ZM19.799 20.0005H4.19905C3.74805 20.0005 3.35805 19.7735 3.15405 19.4575L10.173 15.0705L11.485 15.8575C11.644 15.9525 11.821 16.0005 12 16.0005C12.179 16.0005 12.356 15.9525 12.515 15.8575L13.827 15.0705L20.846 19.4575C20.641 19.7735 20.252 20.0005 19.801 20.0005H19.799ZM20.999 17.1965L15.75 13.9165L20.999 10.7675V17.1975V17.1965Z" fill="#17191A"/>
</svg>
