<svg width="24" height="24" viewBox="0 0 24 24" fill="none" xmlns="http://www.w3.org/2000/svg">
<path fill-rule="evenodd" clip-rule="evenodd" d="M1.66461 8.6708L2.33543 7.32916L12 12.1615L21.6646 7.32916L22.3354 8.6708L12 13.8385L1.66461 8.6708Z" fill="#17191A"/>
<path fill-rule="evenodd" clip-rule="evenodd" d="M4 5.75C3.31421 5.75 2.75 6.31421 2.75 7V17C2.75 17.6858 3.31421 18.25 4 18.25H12V19.75H4C2.48579 19.75 1.25 18.5142 1.25 17V7C1.25 5.48579 2.48579 4.25 4 4.25H20C21.5142 4.25 22.75 5.48579 22.75 7V13H21.25V7C21.25 6.31421 20.6858 5.75 20 5.75H4Z" fill="#17191A"/>
<path fill-rule="evenodd" clip-rule="evenodd" d="M18 12.65C18.2885 12.65 18.5513 12.8154 18.6762 13.0755L19.7028 15.2142L22.1061 15.5576C22.3873 15.5977 22.6217 15.7934 22.7115 16.0629C22.8014 16.3324 22.7312 16.6295 22.5303 16.8304L20.8072 18.5535L21.2383 20.9682C21.2886 21.2495 21.1746 21.535 20.9443 21.7043C20.714 21.8736 20.4076 21.8973 20.154 21.7654L18 20.6454L15.846 21.7654C15.5925 21.8973 15.286 21.8736 15.0557 21.7043C14.8255 21.535 14.7115 21.2495 14.7617 20.9682L15.1929 18.5535L13.4697 16.8304C13.2688 16.6295 13.1987 16.3324 13.2885 16.0629C13.3783 15.7934 13.6127 15.5977 13.894 15.5576L16.2973 15.2142L17.3239 13.0755C17.4487 12.8154 17.7116 12.65 18 12.65ZM18 15.1332L17.4762 16.2246C17.3678 16.4503 17.154 16.6071 16.9061 16.6425L15.591 16.8304L16.5304 17.7697C16.7038 17.9431 16.7815 18.1904 16.7383 18.4319L16.5063 19.7314L17.654 19.1346C17.8709 19.0218 18.1291 19.0218 18.346 19.1346L19.4938 19.7314L19.2617 18.4319C19.2186 18.1904 19.2963 17.9431 19.4697 17.7697L20.409 16.8304L19.094 16.6425C18.8461 16.6071 18.6322 16.4503 18.5239 16.2246L18 15.1332Z" fill="#17191A"/>
</svg>
