<svg width="24" height="24" viewBox="0 0 24 24" fill="none" xmlns="http://www.w3.org/2000/svg">
<path fill-rule="evenodd" clip-rule="evenodd" d="M11.3642 2.10688C11.6017 1.96437 11.8985 1.96437 12.136 2.10688L22.136 8.10688C22.3619 8.24242 22.5001 8.48655 22.5001 8.75C22.5001 9.01345 22.3619 9.25758 22.136 9.39312L12.136 15.3931C11.8985 15.5356 11.6017 15.5356 11.3642 15.3931L1.36423 9.39312C1.13833 9.25758 1.00011 9.01345 1.00011 8.75C1.00011 8.48655 1.13833 8.24242 1.36423 8.10688L11.3642 2.10688ZM3.20784 8.75L11.7501 13.8754L20.2924 8.75L11.7501 3.62464L3.20784 8.75Z" fill="#17191A"/>
<path fill-rule="evenodd" clip-rule="evenodd" d="M1.75011 8C2.16432 8 2.50011 8.33579 2.50011 8.75V18.75C2.50011 19.368 3.09315 20 3.95011 20H19.5501C20.4071 20 21.0001 19.368 21.0001 18.75V8.75C21.0001 8.33579 21.3359 8 21.7501 8C22.1643 8 22.5001 8.33579 22.5001 8.75V18.75C22.5001 20.332 21.0931 21.5 19.5501 21.5H3.95011C2.40707 21.5 1.00011 20.332 1.00011 18.75V8.75C1.00011 8.33579 1.33589 8 1.75011 8Z" fill="#17191A"/>
<path fill-rule="evenodd" clip-rule="evenodd" d="M10.3861 13.3525C10.6056 13.7037 10.4989 14.1664 10.1476 14.386L2.1476 19.386C1.79635 19.6055 1.33363 19.4987 1.1141 19.1475C0.894569 18.7962 1.00135 18.3335 1.3526 18.114L9.3526 13.114C9.70385 12.8944 10.1666 13.0012 10.3861 13.3525Z" fill="#17191A"/>
<path fill-rule="evenodd" clip-rule="evenodd" d="M13.1141 13.3525C13.3336 13.0012 13.7963 12.8944 14.1476 13.114L22.1476 18.114C22.4989 18.3335 22.6056 18.7962 22.3861 19.1475C22.1666 19.4987 21.7039 19.6055 21.3526 19.386L13.3526 14.386C13.0013 14.1664 12.8946 13.7037 13.1141 13.3525Z" fill="#17191A"/>
</svg>
