<svg width="24" height="24" viewBox="0 0 24 24" fill="none" xmlns="http://www.w3.org/2000/svg">
<path fill-rule="evenodd" clip-rule="evenodd" d="M1.4146 8.4208L2.08542 7.07916L11.75 11.9115L21.4146 7.07916L22.0854 8.4208L11.75 13.5885L1.4146 8.4208Z" fill="#17191A"/>
<path fill-rule="evenodd" clip-rule="evenodd" d="M3.75 5.5C3.05964 5.5 2.5 6.05964 2.5 6.75V16.75C2.5 17.4404 3.05964 18 3.75 18H19.75C20.4404 18 21 17.4404 21 16.75V6.75C21 6.05964 20.4404 5.5 19.75 5.5H3.75ZM1 6.75C1 5.23122 2.23122 4 3.75 4H19.75C21.2688 4 22.5 5.23122 22.5 6.75V16.75C22.5 18.2688 21.2688 19.5 19.75 19.5H3.75C2.23122 19.5 1 18.2688 1 16.75V6.75Z" fill="#17191A"/>
</svg>
