<svg width="24" height="24" viewBox="0 0 24 24" fill="none" xmlns="http://www.w3.org/2000/svg">
<path d="M21.525 2.14877C21.23 1.96677 20.863 1.95077 20.552 2.10477L14.999 4.88077L9.44605 2.10477C9.16505 1.96377 8.83305 1.96377 8.55105 2.10477L2.55105 5.10477C2.21205 5.27377 1.99805 5.62077 1.99805 5.99977V19.9998C1.99805 20.3468 2.17805 20.6678 2.47205 20.8508C2.63305 20.9508 2.81505 20.9998 2.99805 20.9998C3.15105 20.9998 3.30405 20.9648 3.44505 20.8948L8.99805 18.1188L14.551 20.8948C14.832 21.0358 15.164 21.0358 15.446 20.8948L21.446 17.8948C21.785 17.7248 21.999 17.3788 21.999 16.9998V2.99977C21.999 2.65277 21.82 2.33177 21.525 2.14877ZM10 4.61777L14 6.61777V18.3818L10 16.3818V4.61777ZM4.00005 6.61777L8.00005 4.61777V16.3818L4.00005 18.3818V6.61777ZM20 16.3818L16 18.3818V6.61777L20 4.61777V16.3818Z" fill="#17191A"/>
</svg>
