<svg width="24" height="24" viewBox="0 0 24 24" fill="none" xmlns="http://www.w3.org/2000/svg">
<path fill-rule="evenodd" clip-rule="evenodd" d="M21.1443 3.11201C21.3654 3.24867 21.5 3.49007 21.5 3.75V17.75C21.5 18.0341 21.3395 18.2938 21.0854 18.4208L15.0854 21.4208C14.8743 21.5264 14.6257 21.5264 14.4146 21.4208L8.75 18.5885L3.08541 21.4208C2.85292 21.5371 2.57681 21.5246 2.3557 21.388C2.13459 21.2513 2 21.0099 2 20.75V6.75C2 6.46592 2.1605 6.20622 2.41459 6.07918L8.41459 3.07918C8.62574 2.97361 8.87426 2.97361 9.08541 3.07918L14.75 5.91148L20.4146 3.07918C20.6471 2.96293 20.9232 2.97536 21.1443 3.11201ZM3.5 7.21353V19.5365L8.41459 17.0792C8.62574 16.9736 8.87426 16.9736 9.08541 17.0792L14.75 19.9115L20 17.2865V4.96353L15.0854 7.42082C14.8743 7.52639 14.6257 7.52639 14.4146 7.42082L8.75 4.58853L3.5 7.21353Z" fill="#17191A"/>
<path fill-rule="evenodd" clip-rule="evenodd" d="M8 17.75V3.75H9.5V17.75H8Z" fill="#17191A"/>
<path fill-rule="evenodd" clip-rule="evenodd" d="M14 20.75V6.75H15.5V20.75H14Z" fill="#17191A"/>
</svg>
