<svg width="24" height="24" viewBox="0 0 24 24" fill="none" xmlns="http://www.w3.org/2000/svg">
<path d="M19 4.5C19.276 4.5 19.5 4.724 19.5 5V11C19.5 11.276 19.276 11.5 19 11.5H15C14.724 11.5 14.5 11.276 14.5 11V5C14.5 4.724 14.724 4.5 15 4.5H19ZM9 4.5C9.276 4.5 9.5 4.724 9.5 5V7C9.5 7.276 9.276 7.5 9 7.5H5C4.724 7.5 4.5 7.276 4.5 7V5C4.5 4.724 4.724 4.5 5 4.5H9ZM9 12.5C9.276 12.5 9.5 12.724 9.5 13V19C9.5 19.276 9.276 19.5 9 19.5H5C4.724 19.5 4.5 19.276 4.5 19V13C4.5 12.724 4.724 12.5 5 12.5H9ZM19 16.5C19.276 16.5 19.5 16.724 19.5 17V19C19.5 19.276 19.276 19.5 19 19.5H15C14.724 19.5 14.5 19.276 14.5 19V17C14.5 16.724 14.724 16.5 15 16.5H19ZM19 3H15C13.895 3 13 3.895 13 5V11C13 12.105 13.895 13 15 13H19C20.105 13 21 12.105 21 11V5C21 3.895 20.105 3 19 3ZM9 3H5C3.895 3 3 3.895 3 5V7C3 8.105 3.895 9 5 9H9C10.105 9 11 8.105 11 7V5C11 3.895 10.105 3 9 3ZM9 11H5C3.895 11 3 11.895 3 13V19C3 20.105 3.895 21 5 21H9C10.105 21 11 20.105 11 19V13C11 11.895 10.105 11 9 11ZM19 15H15C13.895 15 13 15.895 13 17V19C13 20.105 13.895 21 15 21H19C20.105 21 21 20.105 21 19V17C21 15.895 20.105 15 19 15Z" fill="#17191A"/>
</svg>
