<svg width="24" height="24" viewBox="0 0 24 24" fill="none" xmlns="http://www.w3.org/2000/svg">
<path fill-rule="evenodd" clip-rule="evenodd" d="M9 9H5C3.895 9 3 8.105 3 7V5C3 3.895 3.895 3 5 3H9C10.105 3 11 3.895 11 5V7C11 8.105 10.105 9 9 9ZM19 13H15C13.895 13 13 12.105 13 11V5C13 3.895 13.895 3 15 3H19C20.105 3 21 3.895 21 5V11C21 12.105 20.105 13 19 13ZM5 21H9C10.105 21 11 20.105 11 19V13C11 11.895 10.105 11 9 11H5C3.895 11 3 11.895 3 13V19C3 20.105 3.895 21 5 21ZM13 19V17C13 15.895 13.895 15 15 15H19C20.105 15 21 15.895 21 17V19C21 20.105 20.105 21 19 21H15C13.895 21 13 20.105 13 19Z" fill="#17191A"/>
</svg>
