<svg width="24" height="24" viewBox="0 0 24 24" fill="none" xmlns="http://www.w3.org/2000/svg">
<path d="M21 6H13V8H21V6Z" fill="#17191A"/>
<path d="M21 16H13V18H21V16Z" fill="#17191A"/>
<path d="M8 3H6V6H3V8H6V11H8V8H11V6H8V3Z" fill="#17191A"/>
<path d="M9.29303 13.293L7.00003 15.586L4.70703 13.293L3.29303 14.707L5.58603 17L3.29303 19.293L4.70703 20.707L7.00003 18.414L9.29303 20.707L10.707 19.293L8.41403 17L10.707 14.707L9.29303 13.293Z" fill="#17191A"/>
<path d="M17 15C17.5523 15 18 14.5523 18 14C18 13.4477 17.5523 13 17 13C16.4477 13 16 13.4477 16 14C16 14.5523 16.4477 15 17 15Z" fill="#17191A"/>
<path d="M17 21C17.5523 21 18 20.5523 18 20C18 19.4477 17.5523 19 17 19C16.4477 19 16 19.4477 16 20C16 20.5523 16.4477 21 17 21Z" fill="#17191A"/>
</svg>
