<svg width="24" height="24" viewBox="0 0 24 24" fill="none" xmlns="http://www.w3.org/2000/svg">
<path d="M17 19C17.5523 19 18 19.4477 18 20C18 20.5523 17.5523 21 17 21C16.4477 21 16 20.5523 16 20C16 19.4477 16.4477 19 17 19ZM10.5303 14.5303L8.06055 17L10.5303 19.4697L9.46973 20.5303L7 18.0605L4.53027 20.5303L3.46973 19.4697L5.93945 17L3.46973 14.5303L4.53027 13.4697L7 15.9395L9.46973 13.4697L10.5303 14.5303ZM21 17.75H13V16.25H21V17.75ZM17 13C17.5523 13 18 13.4477 18 14C18 14.5523 17.5523 15 17 15C16.4477 15 16 14.5523 16 14C16 13.4477 16.4477 13 17 13ZM7.75 6.25H11V7.75H7.75V11H6.25V7.75H3V6.25H6.25V3H7.75V6.25ZM21 7.75H13V6.25H21V7.75Z" fill="#17191A"/>
</svg>
