<svg width="24" height="24" viewBox="0 0 24 24" fill="none" xmlns="http://www.w3.org/2000/svg">
<path d="M23.125 8.117L20.678 2H3.32395L0.876953 8.117L5.15695 14.537C5.05595 15.009 5.00095 15.498 5.00095 16C5.00095 19.859 8.14095 23 12.001 23C15.861 23 19.001 19.859 19.001 16C19.001 15.498 18.945 15.009 18.844 14.536L23.125 8.117ZM17.932 12.3C17.341 11.357 16.534 10.566 15.577 9.994L19.702 4.946L20.877 7.883L17.932 12.3ZM10.361 9.202L9.37895 8H14.624L13.642 9.202C13.115 9.075 12.568 9 12.002 9C11.436 9 10.889 9.075 10.362 9.202H10.361ZM3.12495 7.883L4.29995 4.946L8.42495 9.993C7.46795 10.565 6.66095 11.356 6.06995 12.3L3.12495 7.883ZM12.001 21C9.24395 21 7.00095 18.757 7.00095 16C7.00095 13.243 9.24395 11 12.001 11C14.758 11 17.001 13.243 17.001 16C17.001 18.757 14.758 21 12.001 21Z" fill="#17191A"/>
<path d="M12.001 13C10.347 13 9.00095 14.346 9.00095 16C9.00095 17.654 10.347 19 12.001 19C13.655 19 15.001 17.654 15.001 16C15.001 14.346 13.655 13 12.001 13Z" fill="#17191A"/>
</svg>
