<svg width="24" height="24" viewBox="0 0 24 24" fill="none" xmlns="http://www.w3.org/2000/svg">
<path d="M22.8418 8.08789L18.5752 14.4844C18.6871 14.9718 18.749 15.4787 18.749 16C18.749 19.7279 15.7269 22.75 11.999 22.75C8.2711 22.75 5.24902 19.7279 5.24902 16C5.24902 15.4791 5.30923 14.9723 5.4209 14.4854L1.15625 8.08789L3.49121 2.25H20.5068L22.8418 8.08789ZM11.999 10.75C9.09953 10.75 6.74902 13.1005 6.74902 16C6.74902 18.8995 9.09953 21.25 11.999 21.25C14.8985 21.25 17.249 18.8995 17.249 16C17.249 13.1005 14.8985 10.75 11.999 10.75ZM11.999 13.25C13.5178 13.25 14.749 14.4812 14.749 16C14.749 17.5188 13.5178 18.75 11.999 18.75C10.4802 18.75 9.24902 17.5188 9.24902 16C9.24902 14.4812 10.4802 13.25 11.999 13.25ZM11.999 14.75C11.3087 14.75 10.749 15.3096 10.749 16C10.749 16.6904 11.3087 17.25 11.999 17.25C12.6894 17.25 13.249 16.6904 13.249 16C13.249 15.3096 12.6894 14.75 11.999 14.75ZM2.8418 7.91113L6.0752 12.7617C6.70162 11.6182 7.64911 10.6753 8.79688 10.0557L4.22266 4.45898L2.8418 7.91113ZM15.2002 10.0557C16.3479 10.675 17.2953 11.6175 17.9219 12.7607L21.1553 7.91113L19.7744 4.45898L15.2002 10.0557ZM10.2607 9.47656C10.8154 9.32915 11.398 9.25 11.999 9.25C12.5998 9.25 13.1819 9.3293 13.7363 9.47656L15.1475 7.75H8.84961L10.2607 9.47656ZM7.62402 6.25H16.374L18.417 3.75H5.58105L7.62402 6.25Z" fill="#17191A"/>
</svg>
