<svg width="24" height="24" viewBox="0 0 24 24" fill="none" xmlns="http://www.w3.org/2000/svg">
<path d="M7.52899 5.36844L6.41299 3.70844C5.18399 4.53544 4.17599 5.59944 3.41599 6.87244L5.13399 7.89644C5.74098 6.87844 6.54699 6.02844 7.52899 5.36844Z" fill="#17191A"/>
<path d="M4 12.0074C4 11.1534 4.136 10.3064 4.405 9.49242L2.506 8.86542C2.171 9.88242 2 10.9394 2 12.0074C2 12.4034 2.024 12.8054 2.072 13.1994L4.057 12.9614C4.019 12.6434 4 12.3244 4 12.0074Z" fill="#17191A"/>
<path d="M18.629 4.51043C17.538 3.54543 16.219 2.81743 14.815 2.40643L14.253 4.32543C15.377 4.65543 16.433 5.23743 17.306 6.00943L18.63 4.51143L18.629 4.51043Z" fill="#17191A"/>
<path d="M19.118 8.34944C19.467 9.02744 19.717 9.75444 19.86 10.5094L21.825 10.1354C21.645 9.19244 21.333 8.28344 20.897 7.43544C20.664 6.98244 20.396 6.54544 20.1 6.13544L18.479 7.30644C18.716 7.63544 18.931 7.98644 19.118 8.34944Z" fill="#17191A"/>
<path d="M4.458 14.6664L2.573 15.3364C2.721 15.7534 2.9 16.1664 3.104 16.5634C3.571 17.4744 4.17 18.3034 4.885 19.0284L6.309 17.6244C5.738 17.0444 5.258 16.3814 4.884 15.6504C4.72 15.3324 4.577 15.0014 4.459 14.6674L4.458 14.6664Z" fill="#17191A"/>
<path d="M6.59 20.4095C7.817 21.1965 9.23 21.7165 10.677 21.9105L10.944 19.9285C9.785 19.7735 8.652 19.3575 7.67 18.7265L6.59 20.4095Z" fill="#17191A"/>
<path d="M8.35199 2.6905L9.08299 4.5515C10.181 4.1205 11.353 3.9385 12.524 4.0165L12.657 2.0215C11.189 1.9255 9.72599 2.1515 8.35199 2.6905Z" fill="#17191A"/>
<path d="M21.049 16.2545C21.313 15.6945 21.523 15.1115 21.678 14.5185C21.864 13.8055 21.971 13.0675 21.995 12.3255L19.997 12.2575C19.976 12.8535 19.891 13.4455 19.742 14.0155C19.596 14.5775 19.386 15.1285 19.118 15.6525C19.018 15.8465 18.985 16.0675 19.023 16.2825L19.602 19.5675L16.27 19.0205C16.058 18.9825 15.842 19.0185 15.653 19.1165C15.268 19.3135 14.87 19.4795 14.468 19.6095L14.471 19.6225L14.467 19.6095C13.901 19.7945 13.317 19.9155 12.73 19.9675L12.912 21.9595C13.602 21.8965 14.286 21.7535 14.953 21.5465L14.955 21.5535C14.978 21.5465 15.007 21.5345 15.031 21.5265C15.049 21.5205 15.069 21.5175 15.087 21.5115L15.085 21.5065C15.463 21.3785 15.916 21.2075 16.261 21.0445L20.67 21.7685C20.724 21.7785 20.778 21.7825 20.832 21.7825C21.097 21.7825 21.354 21.6775 21.543 21.4855C21.772 21.2555 21.873 20.9275 21.816 20.6085L21.047 16.2555L21.049 16.2545Z" fill="#17191A"/>
</svg>
