<svg width="24" height="24" viewBox="0 0 24 24" fill="none" xmlns="http://www.w3.org/2000/svg">
<path d="M7.55192 3.32635C12.3422 0.869761 18.2179 2.76037 20.675 7.55096L20.8048 7.81366C22.0699 10.4725 22.0636 13.5626 20.7882 16.218L21.5714 20.6506C21.6137 20.8899 21.5371 21.1348 21.3664 21.3078C21.1955 21.4808 20.951 21.56 20.7111 21.5207L16.2189 20.7844C11.4719 23.0663 5.74434 21.1638 3.32633 16.4494C0.869304 11.6588 2.76135 5.78339 7.55192 3.32635ZM19.34 8.23553C17.2612 4.18239 12.29 2.58253 8.23649 4.66131C4.18306 6.74028 2.58232 11.7114 4.66129 15.7648C6.74021 19.818 11.7122 21.4181 15.7658 19.339L15.8761 19.2931C15.9895 19.2563 16.1109 19.2463 16.2297 19.2658L19.9093 19.8693L19.2697 16.2375C19.2412 16.0763 19.2663 15.9104 19.341 15.7648C20.5536 13.4019 20.5526 10.5985 19.34 8.23553Z" fill="#17191A"/>
<path d="M16.9998 9.25002V10.75H6.99979V9.25002H16.9998Z" fill="#17191A"/>
<path d="M11.9998 13.25V14.75H6.99979V13.25H11.9998Z" fill="#17191A"/>
</svg>
