<svg width="24" height="24" viewBox="0 0 24 24" fill="none" xmlns="http://www.w3.org/2000/svg">
<path d="M21.0507 16.2546C22.3627 13.4626 22.3127 10.1916 20.8987 7.43661C19.6797 5.06061 17.6087 3.30161 15.0667 2.48261C12.5237 1.66461 9.81567 1.88561 7.43867 3.10461C2.53267 5.62061 0.588671 11.6576 3.10467 16.5626C4.32367 18.9396 6.39467 20.6986 8.93767 21.5166C9.94667 21.8406 10.9817 22.0016 12.0117 22.0016C13.4677 22.0016 14.9147 21.6796 16.2637 21.0436L20.6717 21.7666C20.9907 21.8256 21.3167 21.7136 21.5447 21.4836C21.7727 21.2536 21.8747 20.9256 21.8177 20.6066L21.0497 16.2536L21.0507 16.2546ZM10.5007 16.4136L6.79367 12.7066L8.20767 11.2926L10.5007 13.5856L15.7937 8.29261L17.2077 9.70661L10.5007 16.4136Z" fill="#17191A"/>
</svg>
