<svg width="24" height="24" viewBox="0 0 24 24" fill="none" xmlns="http://www.w3.org/2000/svg">
<path d="M7.55192 3.32635C12.3422 0.869761 18.2179 2.76037 20.675 7.55096L20.8048 7.81366C22.0699 10.4725 22.0636 13.5626 20.7882 16.218L21.5714 20.6506C21.6137 20.8899 21.5371 21.1348 21.3664 21.3078C21.1955 21.4808 20.951 21.56 20.7111 21.5207L16.2189 20.7844C11.4719 23.0663 5.74434 21.1638 3.32633 16.4494C0.869304 11.6588 2.76135 5.78339 7.55192 3.32635ZM19.34 8.23553C17.2612 4.18239 12.29 2.58253 8.23649 4.66131C4.18306 6.74028 2.58232 11.7114 4.66129 15.7648C6.74021 19.818 11.7122 21.4181 15.7658 19.339L15.8761 19.2931C15.9895 19.2563 16.1109 19.2463 16.2297 19.2658L19.9093 19.8693L19.2697 16.2375C19.2412 16.0763 19.2663 15.9104 19.341 15.7648C20.5536 13.4019 20.5526 10.5985 19.34 8.23553Z" fill="#17191A"/>
<path d="M12.7498 16V18H11.2498V16H12.7498Z" fill="#17191A"/>
<path d="M11.2498 14C11.2498 13.2381 11.6308 12.6388 12.0115 12.2276C12.3944 11.8141 12.8395 11.5212 13.114 11.3565C13.5921 11.0696 14.2498 10.6634 14.2498 9.59963C14.2496 8.61581 13.3951 7.75002 11.9998 7.75002C10.714 7.75002 9.74979 8.71423 9.74979 10H8.24979C8.24979 7.88581 9.88558 6.25002 11.9998 6.25002C14.0041 6.25002 15.7496 7.58383 15.7498 9.59963C15.7498 11.5357 14.4075 12.3304 13.8855 12.6436C13.6602 12.7788 13.3551 12.9858 13.1131 13.2471C12.8688 13.5109 12.7498 13.7619 12.7498 14V15H11.2498V14Z" fill="#17191A"/>
</svg>
