<svg width="24" height="24" viewBox="0 0 24 24" fill="none" xmlns="http://www.w3.org/2000/svg">
<path d="M7.38 5.16287L6.54 3.91287C5.34 4.72287 4.36 5.75287 3.62 6.99287L4.91 7.76287C5.54 6.71287 6.37 5.83287 7.38 5.15287V5.16287Z" fill="#17191A"/>
<path d="M18.45 4.70287C17.39 3.76287 16.1 3.05287 14.73 2.65287L14.31 4.09287C15.47 4.43287 16.56 5.03287 17.46 5.83287L18.45 4.71287V4.70287Z" fill="#17191A"/>
<path d="M3.74 12.0129C3.74 11.1329 3.88 10.2629 4.16 9.42287L2.74 8.95287C2.41 9.94287 2.25 10.9729 2.25 12.0129C2.25 12.4029 2.27 12.7929 2.32 13.1729L3.81 12.9929C3.77 12.6629 3.75 12.3329 3.75 12.0129H3.74Z" fill="#17191A"/>
<path d="M20.1 10.4629L21.57 10.1829C21.4 9.26287 21.09 8.37287 20.67 7.55287C20.44 7.11287 20.18 6.68287 19.89 6.28287L18.67 7.16287C18.92 7.50287 19.14 7.86287 19.33 8.24287C19.69 8.94287 19.95 9.69287 20.1 10.4729V10.4629Z" fill="#17191A"/>
<path d="M8.43 2.92287L8.98 4.32287C10.11 3.88287 11.32 3.69287 12.53 3.77287L12.63 2.27287C11.2 2.17287 9.77 2.40287 8.43 2.92287Z" fill="#17191A"/>
<path d="M4.21 14.7529L2.8 15.2529C2.94 15.6629 3.12 16.0629 3.32 16.4529C3.78 17.3429 4.36 18.1529 5.06 18.8529L6.13 17.8029C5.54 17.2029 5.05 16.5229 4.66 15.7629C4.49 15.4329 4.34 15.0929 4.22 14.7529H4.21Z" fill="#17191A"/>
<path d="M6.71 20.2029C7.91 20.9729 9.28 21.4729 10.7 21.6629L10.9 20.1729C9.7 20.0129 8.54 19.5829 7.52 18.9329L6.71 20.1929V20.2029Z" fill="#17191A"/>
<path d="M21.43 14.4629C21.61 13.7629 21.72 13.0529 21.74 12.3229L20.24 12.2729C20.22 12.8829 20.13 13.4929 19.98 14.0829C19.83 14.6629 19.61 15.2329 19.34 15.7729C19.27 15.9229 19.24 16.0829 19.27 16.2429L19.91 19.8729L16.23 19.2729C16.07 19.2429 15.91 19.2729 15.77 19.3429C15.37 19.5429 14.96 19.7129 14.55 19.8529C13.97 20.0429 13.36 20.1629 12.76 20.2229L12.9 21.7129C13.56 21.6529 14.22 21.5129 14.86 21.3129C14.86 21.3129 14.93 21.2929 14.97 21.2829C14.99 21.2829 15.01 21.2829 15.02 21.2729C15.41 21.1329 15.89 20.9529 16.24 20.7829L20.73 21.5229C20.73 21.5229 20.81 21.5229 20.85 21.5229C21.05 21.5229 21.24 21.4429 21.38 21.3029C21.55 21.1329 21.63 20.8829 21.59 20.6429L20.81 16.2129C21.08 15.6429 21.3 15.0529 21.46 14.4529L21.43 14.4629Z" fill="#17191A"/>
</svg>
