<svg width="24" height="24" viewBox="0 0 24 24" fill="none" xmlns="http://www.w3.org/2000/svg">
<path d="M20 4H4C2.346 4 1 5.346 1 7V17C1 18.654 2.346 20 4 20H20C21.654 20 23 18.654 23 17V7C23 5.346 21.654 4 20 4ZM15 18H4C3.449 18 3 17.552 3 17V7C3 6.449 3.449 6 4 6H15V18ZM19 17C18.448 17 18 16.552 18 16C18 15.448 18.448 15 19 15C19.552 15 20 15.448 20 16C20 16.552 19.552 17 19 17ZM20 13H18V7H20V13Z" fill="#17191A"/>
<path d="M7.50002 11.0002C7.50002 10.9252 7.54902 10.8442 7.63702 10.7712C8.06302 10.4192 8.12202 9.78917 7.77002 9.36317C7.41702 8.93717 6.78702 8.87817 6.36202 9.23017C5.81402 9.68417 5.49902 10.3292 5.49902 11.0012C5.49902 11.6732 5.81302 12.3182 6.36202 12.7722C6.45002 12.8452 6.49902 12.9272 6.49902 13.0012C6.49902 13.0752 6.45002 13.1572 6.36202 13.2302C5.93602 13.5822 5.87702 14.2122 6.22902 14.6382C6.42702 14.8772 6.71202 15.0002 7.00002 15.0002C7.22502 15.0002 7.45002 14.9252 7.63702 14.7712C8.18502 14.3182 8.50002 13.6722 8.50002 13.0002C8.50002 12.3282 8.18602 11.6832 7.63702 11.2292C7.54902 11.1562 7.50002 11.0742 7.50002 11.0002Z" fill="#17191A"/>
<path d="M11.637 11.2292C11.549 11.1562 11.5 11.0742 11.5 11.0002C11.5 10.9262 11.549 10.8442 11.637 10.7712C12.062 10.4192 12.123 9.78917 11.77 9.36317C11.418 8.93717 10.788 8.87817 10.362 9.23017C9.81402 9.68417 9.49902 10.3292 9.49902 11.0012C9.49902 11.6732 9.81302 12.3182 10.362 12.7722C10.45 12.8452 10.499 12.9272 10.499 13.0012C10.499 13.0752 10.45 13.1572 10.362 13.2302C9.93602 13.5822 9.87702 14.2122 10.229 14.6382C10.427 14.8772 10.712 15.0002 11 15.0002C11.225 15.0002 11.45 14.9252 11.637 14.7712C12.185 14.3182 12.5 13.6722 12.5 13.0002C12.5 12.3282 12.186 11.6832 11.637 11.2292Z" fill="#17191A"/>
</svg>
