<svg width="24" height="24" viewBox="0 0 24 24" fill="none" xmlns="http://www.w3.org/2000/svg">
<path fill-rule="evenodd" clip-rule="evenodd" d="M20.4688 21.5304L2.46875 3.53039L3.52941 2.46973L21.5294 20.4697L20.4688 21.5304Z" fill="#17191A"/>
<path fill-rule="evenodd" clip-rule="evenodd" d="M11.9991 2.75C11.4031 2.75 10.8308 2.98689 10.4084 3.40933C9.9866 3.83039 9.74908 4.40279 9.74908 5H8.24908C8.24908 4.00533 8.64393 3.05137 9.34796 2.34845C10.0515 1.64503 11.0051 1.25 11.9991 1.25C12.9927 1.25 13.9478 1.64486 14.6509 2.34914C15.3526 3.0521 15.7491 4.00539 15.7491 5V10C15.7491 10.3701 15.6941 10.7386 15.5867 11.0921L14.1515 10.6559C14.2161 10.4434 14.2491 10.2219 14.2491 10V5C14.2491 4.40461 14.0116 3.8319 13.5893 3.40886C13.1683 2.98714 12.5954 2.75 11.9991 2.75ZM9.74908 9.002V10.002C9.74908 10.3537 9.83158 10.7005 9.98925 11.0143C10.1466 11.3275 10.3761 11.6005 10.658 11.8097L10.659 11.8105C10.9404 12.02 11.2667 12.16 11.613 12.22C11.96 12.2801 12.3156 12.2582 12.6512 12.1563L13.0869 13.5917C12.5266 13.7618 11.9341 13.7979 11.3571 13.698C10.7797 13.598 10.2343 13.3642 9.76378 13.014C9.29386 12.6652 8.9115 12.2104 8.6489 11.6877C8.38657 11.1655 8.24908 10.5883 8.24908 10.002V9.002H9.74908Z" fill="#17191A"/>
<path fill-rule="evenodd" clip-rule="evenodd" d="M19.7471 9.9989C19.7493 11.5148 19.3064 12.9979 18.471 14.2632L17.2192 13.4368C17.8918 12.418 18.2489 11.2232 18.2471 10.0011L19.7471 9.9989ZM5.34391 13.9721C4.62644 12.7706 4.24908 11.3978 4.24908 10H5.74908C5.74908 11.128 6.05362 12.235 6.63198 13.2034C7.20948 14.1719 8.0391 14.9661 9.03222 15.5019C10.0248 16.0375 11.1434 16.2938 12.2714 16.2447C13.398 16.1956 14.491 15.8421 15.4342 15.2222L16.258 16.4758C15.0891 17.2439 13.7341 17.6824 12.3367 17.7433C10.9388 17.8042 9.55135 17.4865 8.31994 16.822C7.0892 16.158 6.0604 15.1735 5.34391 13.9721Z" fill="#17191A"/>
<path fill-rule="evenodd" clip-rule="evenodd" d="M15.9991 21.75H7.99908V20.25H15.9991V21.75Z" fill="#17191A"/>
<path fill-rule="evenodd" clip-rule="evenodd" d="M11.2491 21V17H12.7491V21H11.2491Z" fill="#17191A"/>
</svg>
