<svg width="24" height="24" viewBox="0 0 24 24" fill="none" xmlns="http://www.w3.org/2000/svg">
<path d="M20 4.25C21.5188 4.25 22.75 5.48122 22.75 7V17C22.75 18.5188 21.5188 19.75 20 19.75H4C2.48122 19.75 1.25 18.5188 1.25 17V7C1.25 5.48122 2.48122 4.25 4 4.25H20ZM4 5.75C3.30964 5.75 2.75 6.30964 2.75 7V17C2.75 17.6904 3.30964 18.25 4 18.25H15.25V5.75H4ZM16.75 18.25H20C20.6904 18.25 21.25 17.6904 21.25 17V7C21.25 6.30964 20.6904 5.75 20 5.75H16.75V18.25ZM19 15C19.5523 15 20 15.4477 20 16C20 16.5523 19.5523 17 19 17C18.4477 17 18 16.5523 18 16C18 15.4477 18.4477 15 19 15ZM6.52246 9.42188C6.84151 9.15833 7.31416 9.2027 7.57812 9.52148C7.84206 9.84054 7.79745 10.314 7.47852 10.5781C7.30371 10.7228 7.25 10.8785 7.25 11C7.25 11.1215 7.30371 11.2772 7.47852 11.4219C7.97053 11.8291 8.25098 12.3976 8.25098 13C8.25098 13.6024 7.97053 14.1709 7.47852 14.5781L7.41699 14.624C7.10134 14.8354 6.67049 14.7772 6.42285 14.4785C6.15876 14.1594 6.20335 13.686 6.52246 13.4219L6.58203 13.3672C6.70925 13.2388 6.75098 13.1062 6.75098 13C6.75098 12.8786 6.69692 12.7227 6.52246 12.5781C6.03035 12.1709 5.75 11.6025 5.75 11C5.75 10.3975 6.03035 9.82914 6.52246 9.42188ZM10.5225 9.42188C10.8415 9.15833 11.3142 9.2027 11.5781 9.52148C11.8421 9.84054 11.7974 10.314 11.4785 10.5781C11.3037 10.7228 11.25 10.8785 11.25 11C11.25 11.1215 11.3037 11.2772 11.4785 11.4219C11.9705 11.8291 12.251 12.3976 12.251 13C12.251 13.6024 11.9705 14.1709 11.4785 14.5781L11.417 14.624C11.1013 14.8354 10.6705 14.7772 10.4229 14.4785C10.1588 14.1594 10.2034 13.686 10.5225 13.4219L10.582 13.3672C10.7093 13.2388 10.751 13.1062 10.751 13C10.751 12.8786 10.6969 12.7227 10.5225 12.5781C10.0303 12.1709 9.75 11.6025 9.75 11C9.75 10.3975 10.0303 9.82914 10.5225 9.42188ZM19.75 13H18.25V7H19.75V13Z" fill="#17191A"/>
</svg>
