<svg width="24" height="24" viewBox="0 0 24 24" fill="none" xmlns="http://www.w3.org/2000/svg">
<path fill-rule="evenodd" clip-rule="evenodd" d="M11.75 3.5C11.154 3.5 10.5818 3.73689 10.1593 4.15933C9.73752 4.58039 9.5 5.15279 9.5 5.75V10.75C9.5 11.346 9.73689 11.9182 10.1593 12.3407C10.5803 12.7624 11.1537 13 11.75 13C12.3454 13 12.9181 12.7625 13.3411 12.3402C13.763 11.9191 14 11.3472 14 10.75V5.75C14 5.15461 13.7625 4.5819 13.3402 4.15886C12.9192 3.73714 12.3463 3.5 11.75 3.5ZM9.09889 3.09845C9.80242 2.39503 10.7561 2 11.75 2C12.7437 2 13.6988 2.39486 14.4018 3.09914C15.1035 3.8021 15.5 4.75539 15.5 5.75V10.75C15.5 11.7448 15.105 12.6989 14.4009 13.4018C13.6979 14.1035 12.7446 14.5 11.75 14.5C10.7563 14.5 9.80123 14.1051 9.0982 13.4009C8.39493 12.6973 8 11.7438 8 10.75V5.75C8 4.75533 8.39486 3.80137 9.09889 3.09845Z" fill="#17191A"/>
<path fill-rule="evenodd" clip-rule="evenodd" d="M6.26947 16.2301C4.81708 14.7766 4 12.805 4 10.75H5.5C5.5 12.4069 6.15885 13.9972 7.33033 15.1697C7.33026 15.1696 7.3304 15.1697 7.33033 15.1697M7.33033 15.1697C8.50259 16.3418 10.0919 17 11.75 17C13.4082 17 14.9974 16.342 16.1697 15.1697C17.342 13.9974 18 12.4082 18 10.75H19.5C19.5 12.8058 18.684 14.7766 17.2303 16.2303C15.7766 17.684 13.8058 18.5 11.75 18.5C9.69418 18.5 7.72318 17.6838 6.26947 16.2301" fill="#17191A"/>
<path fill-rule="evenodd" clip-rule="evenodd" d="M15.75 22.5H7.75V21H15.75V22.5Z" fill="#17191A"/>
<path fill-rule="evenodd" clip-rule="evenodd" d="M11 21.75V17.75H12.5V21.75H11Z" fill="#17191A"/>
</svg>
