<svg width="24" height="24" viewBox="0 0 24 24" fill="none" xmlns="http://www.w3.org/2000/svg">
<path d="M12 15C13.066 15 14.07 14.584 14.828 13.829C15.584 13.074 16 12.069 16 11V6C16 4.949 15.573 3.919 14.828 3.172C14.084 2.427 13.054 2 12 2C10.932 2 9.927 2.416 9.172 3.171C8.416 3.925 8 4.93 8 6V11C8 12.068 8.416 13.073 9.171 13.828C9.915 14.573 10.945 15 12 15Z" fill="#17191A"/>
<path d="M17.657 16.657C19.168 15.145 20 13.136 20 11H18C18 12.603 17.376 14.109 16.243 15.243C15.109 16.376 13.602 17 12 17C10.398 17 8.89 16.376 7.757 15.243C6.624 14.109 6 12.602 6 11H4C4 13.136 4.832 15.145 6.343 16.657C7.615 17.929 9.243 18.713 11 18.931V21H8V23H16V21H13V18.931C14.757 18.713 16.384 17.929 17.657 16.657Z" fill="#17191A"/>
</svg>
