<svg width="24" height="24" viewBox="0 0 24 24" fill="none" xmlns="http://www.w3.org/2000/svg">
<path d="M17.0771 1.25391C17.4551 1.29253 17.75 1.61183 17.75 2V4.82324L19.6709 8.66504L19.6836 8.69727C19.6903 8.71246 19.6974 8.72745 19.7031 8.74316L19.708 8.75391C19.719 8.78559 19.7268 8.81805 19.7334 8.85059C19.7347 8.85678 19.7362 8.86289 19.7373 8.86914C19.745 8.91218 19.7499 8.95555 19.75 8.99902V21C19.75 21.4142 19.4142 21.75 19 21.75H5C4.58579 21.75 4.25 21.4142 4.25 21V9L4.25391 8.92285C4.25488 8.91329 4.25746 8.90398 4.25879 8.89453C4.26275 8.86662 4.26825 8.83898 4.27539 8.81152C4.27922 8.79678 4.28242 8.78196 4.28711 8.76758C4.29848 8.7327 4.31244 8.69841 4.3291 8.66504L4.33008 8.66309C4.33086 8.66153 4.33123 8.65976 4.33203 8.6582L6.25 4.82227V2L6.25391 1.92285C6.29253 1.54488 6.61183 1.25 7 1.25H17L17.0771 1.25391ZM5.75 20.25H18.25V9.75H5.75V20.25ZM6.21387 8.25H17.7861L16.5361 5.75H7.46387L6.21387 8.25ZM7.75 4.25H16.25V2.75H7.75V4.25Z" fill="#17191A"/>
</svg>
