<svg width="24" height="24" viewBox="0 0 24 24" fill="none" xmlns="http://www.w3.org/2000/svg">
<path d="M19.992 8.96398C19.988 8.85898 19.967 8.75698 19.93 8.65698C19.922 8.63498 19.917 8.61298 19.907 8.59098C19.902 8.57898 19.9 8.56598 19.894 8.55398L17.999 4.76498V2.00098C17.999 1.44898 17.552 1.00098 16.999 1.00098H6.99905C6.44705 1.00098 5.99905 1.44898 5.99905 2.00098V4.76498L4.10405 8.55398C4.09805 8.56598 4.09605 8.57898 4.09105 8.59198C4.08105 8.61298 4.07605 8.63598 4.06805 8.65798C4.03205 8.75698 4.01105 8.85898 4.00605 8.96298C4.00605 8.97698 3.99805 8.98798 3.99805 9.00198V21.002C3.99805 21.555 4.44605 22.002 4.99805 22.002H18.998C19.551 22.002 19.998 21.555 19.998 21.002V9.00198C19.998 8.98898 19.991 8.97798 19.991 8.96598L19.992 8.96398ZM7.99905 2.99998H15.999V3.99998H7.99905V2.99998ZM17.999 20H5.99905V9.99998H17.999V20Z" fill="#17191A"/>
</svg>
