<svg width="24" height="24" viewBox="0 0 24 24" fill="none" xmlns="http://www.w3.org/2000/svg">
<path d="M11.75 19.75C12.35 19.75 12.75 19.35 12.75 18.75C12.75 18.15 12.35 17.75 11.75 17.75C11.15 17.75 10.75 18.15 10.75 18.75C10.75 19.35 11.15 19.75 11.75 19.75Z" fill="#17191A"/>
<path fill-rule="evenodd" clip-rule="evenodd" d="M7.75 2.5C7.05964 2.5 6.5 3.05964 6.5 3.75V19.75C6.5 20.4404 7.05964 21 7.75 21H15.75C16.4404 21 17 20.4404 17 19.75V3.75C17 3.05964 16.4404 2.5 15.75 2.5H7.75ZM5 3.75C5 2.23122 6.23122 1 7.75 1H15.75C17.2688 1 18.5 2.23122 18.5 3.75V19.75C18.5 21.2688 17.2688 22.5 15.75 22.5H7.75C6.23122 22.5 5 21.2688 5 19.75V3.75Z" fill="#17191A"/>
</svg>
