<svg width="24" height="24" viewBox="0 0 24 24" fill="none" xmlns="http://www.w3.org/2000/svg">
<path d="M20 5H4C2.346 5 1 6.346 1 8V16C1 17.654 2.346 19 4 19H20C21.654 19 23 17.654 23 16V8C23 6.346 21.654 5 20 5ZM7 13H5V11H7V13ZM12 16C9.757 16 8 14.243 8 12C8 9.757 9.757 8 12 8C14.243 8 16 9.757 16 12C16 14.243 14.243 16 12 16ZM19 13H17V11H19V13Z" fill="#17191A"/>
<path d="M12 10C10.86 10 10 10.86 10 12C10 13.14 10.86 14 12 14C13.14 14 14 13.141 14 12C14 10.859 13.141 10 12 10Z" fill="#17191A"/>
</svg>
