<svg width="24" height="24" viewBox="0 0 24 24" fill="none" xmlns="http://www.w3.org/2000/svg">
<path d="M20 2.25C21.5142 2.25 22.75 3.48579 22.75 5V19C22.75 20.5142 21.5142 21.75 20 21.75H4C2.48579 21.75 1.25 20.5142 1.25 19V5C1.25 3.48579 2.48579 2.25 4 2.25H20ZM21.25 18.4453C20.8743 18.6385 20.45 18.75 20 18.75H4C3.54996 18.75 3.12572 18.6385 2.75 18.4453V19C2.75 19.6858 3.31421 20.25 4 20.25H20C20.6858 20.25 21.25 19.6858 21.25 19V18.4453ZM21.25 15.4453C20.8743 15.6385 20.45 15.75 20 15.75H4C3.54996 15.75 3.12572 15.6385 2.75 15.4453V16C2.75 16.6858 3.31421 17.25 4 17.25H20C20.6858 17.25 21.25 16.6858 21.25 16V15.4453ZM4 3.75C3.31421 3.75 2.75 4.31421 2.75 5V13C2.75 13.6858 3.31421 14.25 4 14.25H20C20.6858 14.25 21.25 13.6858 21.25 13V5C21.25 4.31421 20.6858 3.75 20 3.75H4ZM12 5.25C14.1142 5.25 15.75 6.88579 15.75 9C15.75 11.1142 14.1142 12.75 12 12.75C9.88579 12.75 8.25 11.1142 8.25 9C8.25 6.88579 9.88579 5.25 12 5.25ZM12 6.75C10.7142 6.75 9.75 7.71421 9.75 9C9.75 10.2858 10.7142 11.25 12 11.25C13.2858 11.25 14.25 10.2858 14.25 9C14.25 7.71421 13.2858 6.75 12 6.75ZM7 9.75H5V8.25H7V9.75ZM19 9.75H17V8.25H19V9.75Z" fill="#17191A"/>
</svg>
