<svg width="24" height="24" viewBox="0 0 24 24" fill="none" xmlns="http://www.w3.org/2000/svg">
<path d="M12 11C13.141 11 14 10.14 14 9C14 7.86 13.141 7 12 7C10.859 7 10 7.86 10 9C10 10.14 10.86 11 12 11Z" fill="#17191A"/>
<path d="M20 2H4C2.346 2 1 3.346 1 5V19C1 20.654 2.346 22 4 22H20C21.654 22 23 20.654 23 19V5C23 3.346 21.654 2 20 2ZM17 8H19V10H17V8ZM12 5C14.243 5 16 6.757 16 9C16 11.243 14.243 13 12 13C9.757 13 8 11.243 8 9C8 6.757 9.757 5 12 5ZM5 8H7V10H5V8ZM20 16C20.352 16 20.686 15.928 21 15.816V16C21 16.552 20.552 17 20 17H4C3.449 17 3 16.552 3 16V15.816C3.314 15.928 3.648 16 4 16H20ZM20 20H4C3.449 20 3 19.552 3 19V18.816C3.314 18.928 3.648 19 4 19H20C20.352 19 20.686 18.928 21 18.816V19C21 19.552 20.552 20 20 20Z" fill="#17191A"/>
</svg>
