<svg width="24" height="24" viewBox="0 0 24 24" fill="none" xmlns="http://www.w3.org/2000/svg">
<path fill-rule="evenodd" clip-rule="evenodd" d="M1.25 8C1.25 6.48579 2.48579 5.25 4 5.25H20C21.5142 5.25 22.75 6.48579 22.75 8V16C22.75 17.5142 21.5142 18.75 20 18.75H4C2.48579 18.75 1.25 17.5142 1.25 16V8ZM4 6.75C3.31421 6.75 2.75 7.31421 2.75 8V16C2.75 16.6858 3.31421 17.25 4 17.25H20C20.6858 17.25 21.25 16.6858 21.25 16V8C21.25 7.31421 20.6858 6.75 20 6.75H4Z" fill="#17191A"/>
<path fill-rule="evenodd" clip-rule="evenodd" d="M8.25 12C8.25 9.88579 9.88579 8.25 12 8.25C14.1142 8.25 15.75 9.88579 15.75 12C15.75 14.1142 14.1142 15.75 12 15.75C9.88579 15.75 8.25 14.1142 8.25 12ZM12 9.75C10.7142 9.75 9.75 10.7142 9.75 12C9.75 13.2858 10.7142 14.25 12 14.25C13.2858 14.25 14.25 13.2858 14.25 12C14.25 10.7142 13.2858 9.75 12 9.75Z" fill="#17191A"/>
<path fill-rule="evenodd" clip-rule="evenodd" d="M7 12.75H5V11.25H7V12.75Z" fill="#17191A"/>
<path fill-rule="evenodd" clip-rule="evenodd" d="M19 12.75H17V11.25H19V12.75Z" fill="#17191A"/>
</svg>
