<svg width="24" height="24" viewBox="0 0 24 24" fill="none" xmlns="http://www.w3.org/2000/svg">
<path fill-rule="evenodd" clip-rule="evenodd" d="M5 4.75C4.30964 4.75 3.75 5.30964 3.75 6V15C3.75 15.6904 4.30964 16.25 5 16.25H19C19.6904 16.25 20.25 15.6904 20.25 15V6C20.25 5.30964 19.6904 4.75 19 4.75H5ZM2.25 6C2.25 4.48122 3.48122 3.25 5 3.25H19C20.5188 3.25 21.75 4.48122 21.75 6V15C21.75 16.5188 20.5188 17.75 19 17.75H5C3.48122 17.75 2.25 16.5188 2.25 15V6Z" fill="#17191A"/>
<path fill-rule="evenodd" clip-rule="evenodd" d="M17 20.75H7V19.25H17V20.75Z" fill="#17191A"/>
<path fill-rule="evenodd" clip-rule="evenodd" d="M11.25 20V17H12.75V20H11.25Z" fill="#17191A"/>
</svg>
