<svg width="24" height="24" viewBox="0 0 24 24" fill="none" xmlns="http://www.w3.org/2000/svg">
<path d="M21.3 12.0996C20.9 11.8996 20.5 12.0996 20.2 12.2996C19.1 13.3996 17.6 13.9996 16 13.9996C12.6 13.9996 10 11.3996 10 7.99961C10 4.59961 11.5 3.99961 11.7 3.79961C11.9 3.59961 12.1 3.09961 11.9 2.69961C11.7 2.29961 11.3 2.09961 10.9 2.09961C5.9 2.49961 2 6.89961 2 11.9996C2 17.0996 6.7 21.9996 12 21.9996C17.3 21.9996 21.4 18.2996 21.9 13.0996C21.9 12.6996 21.7 12.2996 21.3 12.0996Z" fill="#17191A"/>
</svg>
