<svg width="24" height="24" viewBox="0 0 24 24" fill="none" xmlns="http://www.w3.org/2000/svg">
<path fill-rule="evenodd" clip-rule="evenodd" d="M11.6699 2.76236C11.8081 3.03696 11.7648 3.36812 11.5606 3.5979C11.3689 3.81346 11.146 4.00303 10.9703 4.15245C10.9245 4.19142 10.8819 4.22767 10.8439 4.26093C10.642 4.43761 10.4767 4.60235 10.3317 4.82891C10.0433 5.27954 9.75 6.11202 9.75 7.99962C9.75 11.4854 12.5142 14.2496 16 14.2496C17.7059 14.2496 19.2137 13.6253 20.3697 12.4693C20.5928 12.2462 20.9316 12.1866 21.2174 12.3201C21.5033 12.4536 21.675 12.7518 21.6471 13.066C21.2135 17.9439 17.3975 21.7496 12 21.7496C6.56452 21.7496 2.25 16.9922 2.25 11.9996C2.25 7.02357 6.03439 2.78805 10.9336 2.35257C11.2398 2.32535 11.5316 2.48777 11.6699 2.76236ZM8.86916 4.37218C5.87315 5.57057 3.75 8.56739 3.75 11.9996C3.75 16.207 7.43548 20.2496 12 20.2496C15.8854 20.2496 18.76 17.9731 19.7818 14.7837C18.6536 15.4176 17.37 15.7496 16 15.7496C11.6858 15.7496 8.25 12.3138 8.25 7.99962C8.25 6.26392 8.47816 5.15673 8.86916 4.37218Z" fill="#17191A"/>
</svg>
