<svg width="24" height="24" viewBox="0 0 24 24" fill="none" xmlns="http://www.w3.org/2000/svg">
<path d="M17.5 14C18.3284 14 19 13.3284 19 12.5C19 11.6716 18.3284 11 17.5 11C16.6716 11 16 11.6716 16 12.5C16 13.3284 16.6716 14 17.5 14Z" fill="#17191A"/>
<path d="M12 14C12.8284 14 13.5 13.3284 13.5 12.5C13.5 11.6716 12.8284 11 12 11C11.1716 11 10.5 11.6716 10.5 12.5C10.5 13.3284 11.1716 14 12 14Z" fill="#17191A"/>
<path d="M6.5 14C7.32843 14 8 13.3284 8 12.5C8 11.6716 7.32843 11 6.5 11C5.67157 11 5 11.6716 5 12.5C5 13.3284 5.67157 14 6.5 14Z" fill="#17191A"/>
</svg>
