<svg width="24" height="24" viewBox="0 0 24 24" fill="none" xmlns="http://www.w3.org/2000/svg">
<path d="M7.25 18C7.25 16.7574 6.24264 15.75 5 15.75C3.75736 15.75 2.75 16.7574 2.75 18C2.75 19.2426 3.75736 20.25 5 20.25C6.24264 20.25 7.25 19.2426 7.25 18ZM8.75 18C8.75 20.0711 7.07107 21.75 5 21.75C2.92893 21.75 1.25 20.0711 1.25 18C1.25 15.9289 2.92893 14.25 5 14.25C7.07107 14.25 8.75 15.9289 8.75 18Z" fill="#17191A"/>
<path d="M20.25 18C20.25 16.7574 19.2426 15.75 18 15.75C16.7574 15.75 15.75 16.7574 15.75 18C15.75 19.2426 16.7574 20.25 18 20.25C19.2426 20.25 20.25 19.2426 20.25 18ZM21.75 18C21.75 20.0711 20.0711 21.75 18 21.75C15.9289 21.75 14.25 20.0711 14.25 18C14.25 15.9289 15.9289 14.25 18 14.25C20.0711 14.25 21.75 15.9289 21.75 18Z" fill="#17191A"/>
<path d="M9 7.25L9.07715 7.25391C9.45512 7.29253 9.75 7.61183 9.75 8V12C9.75 12.4142 9.41421 12.75 9 12.75H4C3.71592 12.75 3.45615 12.589 3.3291 12.335L1.3291 8.33496C1.21307 8.10255 1.22573 7.82646 1.3623 7.60547C1.49899 7.38453 1.74018 7.25 2 7.25H9ZM4.46387 11.25H8.25V8.75H3.21387L4.46387 11.25Z" fill="#17191A"/>
<path d="M15.1276 2.25L15.3961 2.2627C16.7212 2.39115 17.7825 3.46233 17.8727 4.81738L18.7487 17.9502C18.7762 18.3634 18.4627 18.7205 18.0495 18.748C17.6364 18.7754 17.2792 18.463 17.2516 18.0498L16.3756 4.91699C16.3346 4.30122 15.8525 3.81414 15.2497 3.75586L15.1276 3.75H13.027C12.6128 3.75 12.277 3.41421 12.277 3C12.277 2.58579 12.6128 2.25 13.027 2.25H15.1276Z" fill="#17191A"/>
<path d="M6.31641 11.6914C6.47241 11.3447 6.86888 11.1653 7.2373 11.2881C7.60564 11.4109 7.81547 11.7922 7.73242 12.1631L7.71191 12.2373L5.71191 18.2373C5.58093 18.6303 5.15565 18.8429 4.7627 18.7119C4.36974 18.5809 4.1571 18.1557 4.28809 17.7627L6.28809 11.7627L6.31641 11.6914Z" fill="#17191A"/>
<path d="M21 6.25L21.0771 6.25391C21.4551 6.29253 21.75 6.61183 21.75 7V12C21.75 12.1989 21.6709 12.3896 21.5303 12.5303C21.3896 12.6709 21.1989 12.75 21 12.75L15.8281 12.748L13.4609 14.5918C13.3293 14.6943 13.1669 14.75 13 14.75H9C8.58579 14.75 8.25 14.4142 8.25 14V8L8.2627 7.86133C8.32173 7.54622 8.57882 7.29691 8.90723 7.25586L16.9072 6.25586L17 6.25H21ZM9.75 8.66113V13.25H12.7422L15.1113 11.4062L15.2158 11.3379C15.3248 11.2791 15.4472 11.248 15.5723 11.248L20.25 11.249V7.75H17.0459L9.75 8.66113Z" fill="#17191A"/>
</svg>
