<svg width="24" height="24" viewBox="0 0 24 24" fill="none" xmlns="http://www.w3.org/2000/svg">
<path d="M21.0004 13C21.2664 13 21.5204 12.895 21.7074 12.707C21.8944 12.519 22.0004 12.266 22.0004 12V7C22.0004 6.448 21.5534 6 21.0004 6H18.2024L18.1224 4.8C18.0174 3.23 16.7024 2 15.1284 2H13.0274C12.4744 2 12.0274 2.448 12.0274 3C12.0274 3.552 12.4744 4 13.0274 4H15.1284C15.6524 4 16.0914 4.41 16.1264 4.934L16.2034 6.092L8.93841 7H2.00041C1.65341 7 1.33241 7.18 1.14941 7.474C0.96741 7.769 0.950409 8.137 1.10541 8.447L3.10541 12.447C3.27441 12.786 3.62141 13 4.00041 13H5.61241L5.27041 14.027C5.17941 14.021 5.09241 14 5.00041 14C2.79441 14 1.00041 15.794 1.00041 18C1.00041 20.206 2.79441 22 5.00041 22C7.20641 22 9.00041 20.206 9.00041 18C9.00041 16.595 8.26941 15.363 7.17141 14.649L7.72141 13H8.00041V14C8.00041 14.553 8.44841 15 9.00041 15H13.0004C13.2234 15 13.4384 14.926 13.6144 14.789L15.9154 12.998H16.6644L16.7464 14.221C15.1574 14.751 14.0014 16.235 14.0014 18C14.0014 20.206 15.7954 22 18.0014 22C20.2074 22 22.0014 20.206 22.0014 18C22.0014 16.048 20.5944 14.424 18.7424 14.075L18.6704 12.999H21.0014L21.0004 13ZM7.00041 18C7.00041 19.103 6.10341 20 5.00041 20C3.89741 20 3.00041 19.103 3.00041 18C3.00041 17.035 3.68841 16.227 4.59941 16.041L4.05141 17.684C3.87641 18.208 4.15941 18.775 4.68341 18.949C4.78841 18.984 4.89541 19.001 4.99941 19.001C5.41841 19.001 5.80841 18.736 5.94841 18.317L6.49241 16.684C6.80441 17.037 6.99941 17.495 6.99941 18.001L7.00041 18ZM20.0004 18C20.0004 19.103 19.1034 20 18.0004 20C16.8974 20 16.0004 19.103 16.0004 18C16.0004 17.309 16.3524 16.699 16.8874 16.34L17.0024 18.067C17.0374 18.595 17.4774 19.001 17.9994 19.001C18.0214 19.001 18.0444 19.001 18.0664 18.999C18.6174 18.962 19.0344 18.485 18.9984 17.935L18.8834 16.216C19.5424 16.544 20.0004 17.216 20.0004 18Z" fill="#17191A"/>
</svg>
