<svg width="24" height="24" viewBox="0 0 24 24" fill="none" xmlns="http://www.w3.org/2000/svg">
<path d="M8.94905 7.25C9.19981 7.25001 9.43399 7.37534 9.57308 7.58398L13.0086 12.7383L15.4002 9.5498L15.4588 9.48047C15.6043 9.32893 15.8086 9.24409 16.0213 9.25C16.2644 9.2569 16.4889 9.38164 16.6239 9.58398L22.6239 18.584L22.6746 18.6729C22.7785 18.887 22.7752 19.14 22.661 19.3535C22.5305 19.5974 22.2764 19.75 21.9998 19.75H1.61702C1.34044 19.75 1.08641 19.5974 0.955891 19.3535C0.825527 19.1097 0.839655 18.814 0.993 18.584L8.32503 7.58398L8.38167 7.50977C8.52311 7.34605 8.72967 7.25 8.94905 7.25ZM13.8905 14.0615L16.6825 18.25H20.5985L15.9637 11.2979L13.8905 14.0615ZM3.01839 18.25H14.8797L8.94905 9.35156L3.01839 18.25Z" fill="#17191A"/>
<path d="M20.25 5C20.25 4.30964 19.6904 3.75 19 3.75C18.3097 3.75 17.75 4.30964 17.75 5C17.75 5.69036 18.3097 6.25 19 6.25C19.6904 6.25 20.25 5.69036 20.25 5ZM21.75 5C21.75 6.51878 20.5188 7.75 19 7.75C17.4812 7.75 16.25 6.51878 16.25 5C16.25 3.48122 17.4812 2.25 19 2.25C20.5188 2.25 21.75 3.48122 21.75 5Z" fill="#17191A"/>
</svg>
