<svg width="24" height="24" viewBox="0 0 24 24" fill="none" xmlns="http://www.w3.org/2000/svg">
<path d="M22.8325 18.4451L16.8325 9.44509C16.6525 9.17509 16.3535 9.00909 16.0275 9.00009C15.6935 8.97709 15.3935 9.14009 15.2005 9.39909L13.0205 12.3051L9.78149 7.44509C9.41049 6.88809 8.48849 6.88809 8.11749 7.44509L0.78549 18.4451C0.58049 18.7521 0.56149 19.1461 0.73549 19.4711C0.90949 19.7961 1.24849 19.9991 1.61749 19.9991H22.0005C22.3695 19.9991 22.7085 19.7961 22.8825 19.4711C23.0565 19.1461 23.0375 18.7511 22.8325 18.4451ZM3.48549 18.0001L8.94949 9.80309L14.4135 18.0001H3.48549Z" fill="#17191A"/>
<path d="M19.0005 8C20.6545 8 22.0005 6.654 22.0005 5C22.0005 3.346 20.6545 2 19.0005 2C17.3465 2 16.0005 3.346 16.0005 5C16.0005 6.654 17.3465 8 19.0005 8ZM19.0005 4C19.5525 4 20.0005 4.449 20.0005 5C20.0005 5.551 19.5525 6 19.0005 6C18.4485 6 18.0005 5.551 18.0005 5C18.0005 4.449 18.4485 4 19.0005 4Z" fill="#17191A"/>
</svg>
