<svg width="24" height="24" viewBox="0 0 24 24" fill="none" xmlns="http://www.w3.org/2000/svg">
<path fill-rule="evenodd" clip-rule="evenodd" d="M11.25 9V4H12.75V9H11.25Z" fill="#17191A"/>
<path fill-rule="evenodd" clip-rule="evenodd" d="M12 3.75C9.37665 3.75 7.25 5.87665 7.25 8.5V15.5C7.25 18.1234 9.37665 20.25 12 20.25C14.6234 20.25 16.75 18.1234 16.75 15.5V8.5C16.75 5.87665 14.6234 3.75 12 3.75ZM5.75 8.5C5.75 5.04822 8.54822 2.25 12 2.25C15.4518 2.25 18.25 5.04822 18.25 8.5V15.5C18.25 18.9518 15.4518 21.75 12 21.75C8.54822 21.75 5.75 18.9518 5.75 15.5V8.5Z" fill="#17191A"/>
</svg>
