<svg width="24" height="24" viewBox="0 0 24 24" fill="none" xmlns="http://www.w3.org/2000/svg">
<path fill-rule="evenodd" clip-rule="evenodd" d="M7.25 15.6849C6.2835 15.6849 5.5 16.4684 5.5 17.4349C5.5 18.4014 6.2835 19.1849 7.25 19.1849C8.2165 19.1849 9 18.4014 9 17.4349C9 16.4684 8.2165 15.6849 7.25 15.6849ZM4 17.4349C4 15.64 5.45507 14.1849 7.25 14.1849C9.04493 14.1849 10.5 15.64 10.5 17.4349C10.5 19.2299 9.04493 20.6849 7.25 20.6849C5.45507 20.6849 4 19.2299 4 17.4349Z" fill="#17191A"/>
<path fill-rule="evenodd" clip-rule="evenodd" d="M16.25 13.6849C15.2835 13.6849 14.5 14.4684 14.5 15.4349C14.5 16.4014 15.2835 17.1849 16.25 17.1849C17.2165 17.1849 18 16.4014 18 15.4349C18 14.4684 17.2165 13.6849 16.25 13.6849ZM13 15.4349C13 13.64 14.4551 12.1849 16.25 12.1849C18.0449 12.1849 19.5 13.64 19.5 15.4349C19.5 17.2299 18.0449 18.6849 16.25 18.6849C14.4551 18.6849 13 17.2299 13 15.4349Z" fill="#17191A"/>
<path fill-rule="evenodd" clip-rule="evenodd" d="M19.5 3V15.4349H18V4.86992L10.5 6.53659V17.455H9V5.33333L19.5 3Z" fill="#17191A"/>
</svg>
