<svg width="24" height="24" viewBox="0 0 24 24" fill="none" xmlns="http://www.w3.org/2000/svg">
<path fill-rule="evenodd" clip-rule="evenodd" d="M12.0749 4.07403C12.3347 4.19892 12.5 4.4617 12.5 4.75001V18.75C12.5 19.0383 12.3347 19.3011 12.0749 19.426C11.815 19.5509 11.5066 19.5158 11.2815 19.3357L6.48691 15.5H2.75C2.33579 15.5 2 15.1642 2 14.75V8.75001C2 8.33579 2.33579 8.00001 2.75 8.00001H6.48691L11.2815 4.16436C11.5066 3.98425 11.815 3.94914 12.0749 4.07403ZM11 6.31048L7.21852 9.33566C7.08554 9.44205 6.9203 9.50001 6.75 9.50001H3.5V14H6.75C6.9203 14 7.08554 14.058 7.21852 14.1644L11 17.1895V6.31048Z" fill="#17191A"/>
<path fill-rule="evenodd" clip-rule="evenodd" d="M14.4197 14.2197L20.4197 8.21967L21.4803 9.28033L15.4803 15.2803L14.4197 14.2197Z" fill="#17191A"/>
<path fill-rule="evenodd" clip-rule="evenodd" d="M20.4197 15.2803L14.4197 9.28033L15.4803 8.21967L21.4803 14.2197L20.4197 15.2803Z" fill="#17191A"/>
</svg>
