<svg width="24" height="24" viewBox="0 0 24 24" fill="none" xmlns="http://www.w3.org/2000/svg">
<path d="M12.3 4.08558H12.4C12.1 3.88558 11.6 4.08558 11.3 4.18558L6.6 7.98558H3C2.4 7.98558 2 8.38558 2 8.98558V14.9856C2 15.5856 2.4 15.9856 3 15.9856H6.6L11.3 19.7856C11.5 19.8856 11.7 19.9856 11.9 19.9856H12.3C12.6 19.7856 12.9 19.4856 12.9 19.0856V4.98558C12.9 4.58558 12.7 4.28558 12.3 4.08558Z" fill="#17191A"/>
<path d="M21.9 9.68564L20.5 8.28564L18.2 10.5856L15.9 8.28564L14.5 9.68564L16.8 11.9856L14.5 14.2856L15.9 15.6856L18.2 13.3856L20.5 15.6856L21.9 14.2856L19.6 11.9856L21.9 9.68564Z" fill="#17191A"/>
</svg>
