<svg width="24" height="24" viewBox="0 0 24 24" fill="none" xmlns="http://www.w3.org/2000/svg">
<path d="M17 1C18.52 1 19.75 2.23 19.75 3.75V19.75C19.75 21.27 18.52 22.5 17 22.5H7C5.48 22.5 4.25 21.27 4.25 19.75V3.75C4.25 2.23 5.48 1 7 1H17ZM7 2.5C6.31 2.5 5.75 3.06 5.75 3.75V19.75C5.75 20.44 6.31 21 7 21H17C17.69 21 18.25 20.44 18.25 19.75V3.75C18.25 3.06 17.69 2.5 17 2.5H15.75V3.75C15.75 4.71 14.96 5.5 14 5.5H10C9.04 5.5 8.25 4.71 8.25 3.75V2.5H7ZM14 18C14.41 18 14.75 18.34 14.75 18.75C14.75 19.16 14.41 19.5 14 19.5H10C9.59 19.5 9.25 19.16 9.25 18.75C9.25 18.34 9.59 18 10 18H14ZM11.9902 8.25C12.5601 8.25009 13.0801 8.57015 13.3301 9.08008V9.08984L15.3398 13.0801C15.6098 13.6199 15.5401 14.2598 15.1504 14.7197C14.8604 15.0597 14.43 15.25 14 15.25C13.85 15.25 13.6996 15.2197 13.5596 15.1797L12 14.7002L10.4404 15.1797C10.3004 15.2297 10.15 15.25 10 15.25C9.57001 15.25 9.15035 15.0597 8.86035 14.7197C8.47035 14.2597 8.39016 13.6201 8.66016 13.0801L10.6504 9.08008C10.9004 8.57013 11.4203 8.25 11.9902 8.25ZM9.99023 13.75L11.6201 13.25C11.7401 13.21 11.87 13.1904 12 13.1904C12.13 13.1904 12.2501 13.2002 12.3701 13.2402H12.3604L13.9902 13.7402L11.9805 9.75L9.99023 13.75ZM9.75 3.75C9.75 3.89 9.86 4 10 4H14C14.14 4 14.25 3.89 14.25 3.75V2.5H9.75V3.75Z" fill="#17191A"/>
</svg>
