<svg width="24" height="24" viewBox="0 0 24 24" fill="none" xmlns="http://www.w3.org/2000/svg">
<path fill-rule="evenodd" clip-rule="evenodd" d="M12 2.25C12.2841 2.25 12.5438 2.4105 12.6708 2.66459L21.6708 20.6646C21.8124 20.9477 21.761 21.2893 21.5423 21.5182C21.3236 21.747 20.9847 21.8139 20.6954 21.6854L12 17.8207L3.30462 21.6854C3.01534 21.8139 2.67648 21.747 2.45778 21.5182C2.23908 21.2893 2.18762 20.9477 2.3292 20.6646L11.3292 2.66459C11.4562 2.4105 11.7159 2.25 12 2.25ZM4.60574 19.4656L11.6954 16.3146C11.8893 16.2285 12.1107 16.2285 12.3046 16.3146L19.3943 19.4656L12 4.67705L4.60574 19.4656Z" fill="#17191A"/>
</svg>
