<svg width="24" height="24" viewBox="0 0 24 24" fill="none" xmlns="http://www.w3.org/2000/svg">
<path d="M13.782 9.10102C13.442 8.42602 12.751 7.99902 11.995 7.99902H11.992C11.235 7.99902 10.543 8.42902 10.206 9.10702L8.21199 13.107C7.85499 13.824 7.95899 14.684 8.47799 15.295C8.86399 15.75 9.42499 16 10.002 16C10.2 16 10.399 15.971 10.594 15.91L12.01 15.471L13.418 15.901C13.611 15.96 13.807 15.988 14.002 15.988C14.582 15.988 15.145 15.735 15.531 15.277C16.047 14.665 16.149 13.804 15.789 13.089L13.783 9.10002L13.782 9.10102ZM12.368 13.49C12.248 13.454 12.125 13.435 12.002 13.435C11.874 13.435 11.747 13.455 11.626 13.495L9.99999 13.999L11.994 9.99902L14 13.989L12.368 13.49Z" fill="#17191A"/>
<path d="M17 1H7C5.346 1 4 2.346 4 4V20C4 21.654 5.346 23 7 23H17C18.654 23 20 21.654 20 20V4C20 2.346 18.654 1 17 1ZM10 3H14V4H10V3ZM18 20C18 20.552 17.552 21 17 21H7C6.449 21 6 20.552 6 20V4C6 3.449 6.449 3 7 3H8V4C8 5.103 8.897 6 10 6H14C15.103 6 16 5.103 16 4V3H17C17.552 3 18 3.449 18 4V20Z" fill="#17191A"/>
<path d="M14 18H10C9.448 18 9 18.447 9 19C9 19.553 9.448 20 10 20H14C14.553 20 15 19.553 15 19C15 18.447 14.553 18 14 18Z" fill="#17191A"/>
</svg>
