<svg width="24" height="24" viewBox="0 0 24 24" fill="none" xmlns="http://www.w3.org/2000/svg">
<path fill-rule="evenodd" clip-rule="evenodd" d="M5 3.75C4.86221 3.75 4.75 3.86221 4.75 4V20C4.75 20.1378 4.86221 20.25 5 20.25H13.6893L19.25 14.6893V4C19.25 3.86221 19.1378 3.75 19 3.75H5ZM3.25 4C3.25 3.03379 4.03379 2.25 5 2.25H19C19.9662 2.25 20.75 3.03379 20.75 4V15.3107L14.3107 21.75H5C4.03379 21.75 3.25 20.9662 3.25 20V4Z" fill="#17191A"/>
<path fill-rule="evenodd" clip-rule="evenodd" d="M13.25 14.25H20V15.75H14.75V21H13.25V14.25Z" fill="#17191A"/>
</svg>
