<svg width="24" height="24" viewBox="0 0 24 24" fill="none" xmlns="http://www.w3.org/2000/svg">
<path fill-rule="evenodd" clip-rule="evenodd" d="M11.9996 1.13965L21.6496 6.561V16.3388L12.0033 21.7581L2.34961 16.4431V6.561L11.9996 1.13965ZM3.84961 7.43881V15.5567L11.9959 20.0417L20.1496 15.461V7.43881L11.9996 2.86015L3.84961 7.43881Z" fill="#17191A"/>
<path fill-rule="evenodd" clip-rule="evenodd" d="M21.267 7.75378L12.367 12.7538L11.6323 11.446L20.5323 6.44602L21.267 7.75378Z" fill="#17191A"/>
<path fill-rule="evenodd" clip-rule="evenodd" d="M11.2496 20.9999V12.0999H12.7496V20.9999H11.2496Z" fill="#17191A"/>
<path fill-rule="evenodd" clip-rule="evenodd" d="M3.4725 6.34917L12.3725 11.4492L11.6267 12.7506L2.72672 7.65063L3.4725 6.34917Z" fill="#17191A"/>
<path fill-rule="evenodd" clip-rule="evenodd" d="M7.23226 8.84602L16.1323 3.84602L16.867 5.15378L7.96696 10.1538L7.23226 8.84602Z" fill="#17191A"/>
</svg>
