<svg width="24" height="24" viewBox="0 0 24 24" fill="none" xmlns="http://www.w3.org/2000/svg">
<path fill-rule="evenodd" clip-rule="evenodd" d="M7 3.75C6.86221 3.75 6.75 3.86221 6.75 4V11.25H17.25V4C17.25 3.86221 17.1378 3.75 17 3.75H7ZM5.25 4C5.25 3.03379 6.03379 2.25 7 2.25H17C17.9662 2.25 18.75 3.03379 18.75 4V12C18.75 12.4142 18.4142 12.75 18 12.75H6C5.58579 12.75 5.25 12.4142 5.25 12V4Z" fill="#17191A"/>
<path fill-rule="evenodd" clip-rule="evenodd" d="M4.25 12C4.25 11.5858 4.58579 11.25 5 11.25H19C19.4142 11.25 19.75 11.5858 19.75 12V16C19.75 16.4142 19.4142 16.75 19 16.75H14.75V22C14.75 22.4142 14.4142 22.75 14 22.75H10C9.58579 22.75 9.25 22.4142 9.25 22V16.75H5C4.58579 16.75 4.25 16.4142 4.25 16V12ZM5.75 12.75V15.25H10C10.4142 15.25 10.75 15.5858 10.75 16V21.25H13.25V16C13.25 15.5858 13.5858 15.25 14 15.25H18.25V12.75H5.75Z" fill="#17191A"/>
</svg>
