<svg width="24" height="24" viewBox="0 0 24 24" fill="none" xmlns="http://www.w3.org/2000/svg">
<path fill-rule="evenodd" clip-rule="evenodd" d="M18.25 6C18.25 5.58579 18.5858 5.25 19 5.25H21C21.9662 5.25 22.75 6.03379 22.75 7V11C22.75 11.9662 21.9662 12.75 21 12.75H13C12.8622 12.75 12.75 12.8622 12.75 13V15C12.75 15.4142 12.4142 15.75 12 15.75C11.5858 15.75 11.25 15.4142 11.25 15V13C11.25 12.0338 12.0338 11.25 13 11.25H21C21.1378 11.25 21.25 11.1378 21.25 11V7C21.25 6.86221 21.1378 6.75 21 6.75H19C18.5858 6.75 18.25 6.41421 18.25 6Z" fill="#17191A"/>
<path fill-rule="evenodd" clip-rule="evenodd" d="M9.25 15C9.25 14.5858 9.58579 14.25 10 14.25H14C14.4142 14.25 14.75 14.5858 14.75 15V22C14.75 22.4142 14.4142 22.75 14 22.75H10C9.58579 22.75 9.25 22.4142 9.25 22V15ZM10.75 15.75V21.25H13.25V15.75H10.75Z" fill="#17191A"/>
<path fill-rule="evenodd" clip-rule="evenodd" d="M7 3.75C6.30964 3.75 5.75 4.30964 5.75 5V7C5.75 7.69036 6.30964 8.25 7 8.25H17C17.6904 8.25 18.25 7.69036 18.25 7V5C18.25 4.30964 17.6904 3.75 17 3.75H7ZM4.25 5C4.25 3.48122 5.48122 2.25 7 2.25H17C18.5188 2.25 19.75 3.48122 19.75 5V7C19.75 8.51878 18.5188 9.75 17 9.75H7C5.48122 9.75 4.25 8.51878 4.25 7V5Z" fill="#17191A"/>
</svg>
