<svg width="24" height="24" viewBox="0 0 24 24" fill="none" xmlns="http://www.w3.org/2000/svg">
<path fill-rule="evenodd" clip-rule="evenodd" d="M1.25001 11.8358C1.27976 6.51687 6.20143 2.25 11.992 2.25C17.9062 2.25 22.742 7.08579 22.742 13C22.742 19.0358 17.2812 22.75 12 22.75C11.7993 22.75 11.5802 22.6924 11.3907 22.541C11.2099 22.3964 11.1155 22.214 11.0661 22.0665C10.9758 21.7974 10.9894 21.5061 11.0108 21.2983C11.0526 20.8912 11.1795 20.3792 11.2908 19.93C11.3 19.8929 11.3091 19.8563 11.318 19.8202C11.4232 19.3939 11.5089 19.0292 11.5464 18.75H8C6.31632 18.75 4.6272 18.1983 3.35054 17.0342C2.06147 15.8588 1.25 14.1103 1.25 11.84L1.25001 11.8358ZM2.75 11.8421C2.75049 13.7307 3.41338 15.0615 4.36121 15.9258C5.3218 16.8017 6.63268 17.25 8 17.25H12C12.1888 17.25 12.3949 17.2967 12.5824 17.4234C12.7675 17.5483 12.8816 17.7154 12.9495 17.8694C13.0725 18.1486 13.0743 18.4542 13.0609 18.6713C13.0327 19.128 12.8928 19.6998 12.7743 20.1798L12.7589 20.2419C12.6632 20.6293 12.5801 20.9658 12.5335 21.236C17.054 20.9995 21.242 17.7768 21.242 13C21.242 7.91421 17.0778 3.75 11.992 3.75C6.86139 3.75 2.77556 7.50592 2.75 11.8421Z" fill="#17191A"/>
<path d="M6.5 13C7.32843 13 8 12.3284 8 11.5C8 10.6716 7.32843 10 6.5 10C5.67157 10 5 10.6716 5 11.5C5 12.3284 5.67157 13 6.5 13Z" fill="#17191A"/>
<path d="M10.5 10C11.3284 10 12 9.32843 12 8.5C12 7.67157 11.3284 7 10.5 7C9.67157 7 9 7.67157 9 8.5C9 9.32843 9.67157 10 10.5 10Z" fill="#17191A"/>
<path d="M15.5 11C16.3284 11 17 10.3284 17 9.5C17 8.67157 16.3284 8 15.5 8C14.6716 8 14 8.67157 14 9.5C14 10.3284 14.6716 11 15.5 11Z" fill="#17191A"/>
</svg>
