<svg width="24" height="24" viewBox="0 0 24 24" fill="none" xmlns="http://www.w3.org/2000/svg">
<path d="M11.992 2C5.961 2 1.03 6.412 1 11.834V11.839C1 16.759 4.628 18.999 8 18.999H11.25C11.193 19.283 11.112 19.612 11.052 19.853C10.757 21.045 10.544 21.907 11.037 22.537C11.267 22.831 11.618 23 11.999 23C17.402 23 22.991 19.26 22.991 13C22.991 6.935 18.057 2 11.992 2ZM6.5 13C5.672 13 5 12.328 5 11.5C5 10.672 5.672 10 6.5 10C7.328 10 8 10.672 8 11.5C8 12.328 7.328 13 6.5 13ZM10.5 10C9.672 10 9 9.328 9 8.5C9 7.672 9.672 7 10.5 7C11.328 7 12 7.672 12 8.5C12 9.328 11.328 10 10.5 10ZM15.5 11C14.672 11 14 10.328 14 9.5C14 8.672 14.672 8 15.5 8C16.328 8 17 8.672 17 9.5C17 10.328 16.328 11 15.5 11Z" fill="#17191A"/>
</svg>
