<svg width="24" height="24" viewBox="0 0 24 24" fill="none" xmlns="http://www.w3.org/2000/svg">
<path d="M19.9999 5.25L20.1357 5.2627C20.4446 5.31938 20.6918 5.56571 20.7412 5.88574L22.7412 18.8857C22.7744 19.102 22.7117 19.3222 22.5693 19.4883C22.4268 19.6544 22.2188 19.75 21.9999 19.75H13.7998C13.4424 19.7499 13.1346 19.4978 13.0644 19.1475L12.3847 15.75H11.6152L10.9355 19.1475C10.8653 19.4978 10.5575 19.7499 10.2001 19.75H1.99995C1.78112 19.75 1.57309 19.6544 1.43061 19.4883C1.28818 19.3222 1.22547 19.102 1.25873 18.8857L3.25873 5.88574L3.29194 5.75391C3.39492 5.45702 3.67599 5.25 3.99995 5.25H19.9999ZM2.87397 18.25H9.58491L10.2646 14.8525L10.3017 14.7266C10.4124 14.4433 10.6871 14.25 10.9999 14.25H12.9999C13.3573 14.25 13.665 14.5022 13.7353 14.8525L14.415 18.25H21.1259L19.3564 6.75H4.6435L2.87397 18.25Z" fill="#17191A"/>
<path d="M10.7499 4V9H9.24995V4H10.7499Z" fill="#17191A"/>
<path d="M14.7499 4V8H13.2499V4H14.7499Z" fill="#17191A"/>
<path d="M16.2499 9.33301V6H17.7499V9.33301C17.75 9.86893 18.1586 10.2498 18.5996 10.25H20.7685V11.75H18.5996C17.2728 11.7498 16.2499 10.6388 16.2499 9.33301Z" fill="#17191A"/>
<path d="M6.2495 9.33301V6H7.7495V9.33301C7.7495 10.6389 6.72681 11.75 5.39989 11.75H3.23095V10.25H5.39989C5.84097 10.25 6.2495 9.86909 6.2495 9.33301Z" fill="#17191A"/>
</svg>
