<svg width="24" height="24" viewBox="0 0 24 24" fill="none" xmlns="http://www.w3.org/2000/svg">
<path d="M20.9875 5.848C20.9125 5.36 20.4925 5 19.9995 5H14.9995V4H12.9995V5H10.9995V4H8.99946V5H3.99946C3.50546 5 3.08646 5.36 3.01146 5.848L1.01146 18.848C0.967463 19.137 1.05146 19.43 1.24046 19.652C1.42946 19.874 1.70746 20.001 1.99946 20.001H10.1995C10.6765 20.001 11.0865 19.664 11.1795 19.197L11.8185 16.001H12.1785L12.8185 19.197C12.9125 19.664 13.3225 20.001 13.7985 20.001H21.9985C22.2905 20.001 22.5675 19.874 22.7575 19.652C22.9475 19.43 23.0315 19.137 22.9865 18.848L20.9865 5.848H20.9875ZM19.6025 10H18.5985C18.2675 10 17.9985 9.701 17.9985 9.333V7H19.1405L19.6025 10ZM5.99946 7V9.333C5.99946 9.701 5.73046 10 5.39946 10H4.39546L4.85746 7H5.99946ZM14.6195 18L13.9795 14.804C13.8855 14.337 13.4755 14 12.9995 14H10.9995C10.5225 14 10.1125 14.337 10.0195 14.804L9.38046 18H3.16546L4.08846 12H5.39946C6.83346 12 7.99946 10.804 7.99946 9.333V7H8.99946V9H10.9995V7H12.9995V8H14.9995V7H15.9995V9.333C15.9995 10.804 17.1655 12 18.5995 12H19.9105L20.8335 18H14.6195Z" fill="#17191A"/>
</svg>
