<svg width="24" height="24" viewBox="0 0 24 24" fill="none" xmlns="http://www.w3.org/2000/svg">
<path d="M20.6972 11.1876L13.0922 18.6926C12.1202 19.6646 10.8082 20.1996 9.39922 20.1996C7.99022 20.1996 6.67922 19.6646 5.73622 18.7236C4.73022 17.6266 4.19922 16.3386 4.19922 14.9986C4.19922 13.5476 4.70622 12.3056 5.70022 11.3106L12.1512 4.95663C12.6222 4.41863 13.4242 4.09863 14.2982 4.09863C15.1522 4.09863 15.8902 4.40363 16.4912 5.00563C17.0932 5.60863 17.3982 6.34563 17.3982 7.19863C17.3982 8.05163 17.0922 8.78863 16.4972 9.38563L10.0912 15.6906C9.66522 16.1166 8.92922 16.1156 8.50522 15.6906C8.29322 15.4786 8.19822 15.2336 8.19822 14.8976C8.19822 14.5616 8.29222 14.3166 8.50522 14.1046L14.9052 7.70463L13.4912 6.29063L7.09122 12.6906C6.50722 13.2736 6.19822 14.0376 6.19822 14.8986C6.19822 15.7596 6.50722 16.5206 7.09222 17.1066C7.67622 17.6896 8.44022 17.9986 9.29822 17.9986C10.1562 17.9986 10.9212 17.6896 11.5002 17.1116L17.9062 10.8056C18.8832 9.82763 19.3992 8.58063 19.3992 7.19863C19.3992 5.81663 18.8822 4.56863 17.9062 3.59163C16.9292 2.61463 15.6822 2.09863 14.2992 2.09863C12.8352 2.09863 11.5042 2.66063 10.6972 3.58563L4.29222 9.89163C2.92322 11.2596 2.19922 13.0256 2.19922 14.9986C2.19922 16.8476 2.91222 18.6026 4.29222 20.1056C5.64322 21.4556 7.45622 22.1986 9.39922 22.1986C11.3422 22.1986 13.1562 21.4556 14.5012 20.1106L22.1022 12.6106L20.6982 11.1866L20.6972 11.1876Z" fill="#17191A"/>
</svg>
