<svg width="24" height="24" viewBox="0 0 24 24" fill="none" xmlns="http://www.w3.org/2000/svg">
<path fill-rule="evenodd" clip-rule="evenodd" d="M10.4051 3.43402C11.2789 2.45092 12.5955 2 13.85 2C15.1452 2 16.3371 2.47644 17.2803 3.41967C18.2236 4.3629 18.7 5.55476 18.7 6.85C18.7 8.14524 18.2236 9.3371 17.2803 10.2803L17.2762 10.2845L10.878 16.5827C10.3285 17.1309 9.63441 17.4 8.85 17.4C8.06448 17.4 7.36952 17.1302 6.81967 16.5803C6.26982 16.0305 6 15.3355 6 14.55C6 13.7645 6.26982 13.0695 6.81967 12.5197L13.2197 6.11967L14.2803 7.18033L7.88033 13.5803C7.63018 13.8305 7.5 14.1355 7.5 14.55C7.5 14.9645 7.63018 15.2695 7.88033 15.5197C8.13048 15.7698 8.43552 15.9 8.85 15.9C9.26448 15.9 9.56952 15.7698 9.81967 15.5197L9.82385 15.5155L16.2217 9.21762C16.8771 8.56122 17.2 7.75382 17.2 6.85C17.2 5.94524 16.8764 5.1371 16.2197 4.48033C15.5629 3.82356 14.7548 3.5 13.85 3.5C12.9138 3.5 12.0408 3.84233 11.5144 4.44388L11.496 4.4649L5.07832 10.7823C4.02515 11.8365 3.5 13.1429 3.5 14.65C3.5 16.1261 4.10271 17.4472 5.09177 18.5311C6.14068 19.5737 7.54065 20.1 8.95 20.1C10.3645 20.1 11.7695 19.5698 12.8197 18.5197L12.8232 18.5162L20.4232 11.0162L21.4768 12.0838L13.8803 19.5803C13.8797 19.5809 13.8791 19.5816 13.8785 19.5822C12.5289 20.9308 10.7347 21.6 8.95 21.6C7.16448 21.6 5.36952 20.9302 4.01967 19.5803L4.00815 19.5688L3.99713 19.5568C2.79279 18.243 2 16.5684 2 14.65C2 12.758 2.67419 11.0652 4.01967 9.71967L4.02385 9.71549L10.4051 3.43402Z" fill="#17191A"/>
</svg>
