<svg width="24" height="24" viewBox="0 0 24 24" fill="none" xmlns="http://www.w3.org/2000/svg">
<path d="M9.70003 7.73779C8.93903 8.27579 8.38303 9.07379 8.14203 9.99979H9.07803C9.18903 9.14979 9.41703 8.38379 9.70003 7.73779Z" fill="#17191A"/>
<path d="M8.14203 12C8.38303 12.927 8.93903 13.724 9.70003 14.262C9.41703 13.615 9.18903 12.849 9.07803 12H8.14203Z" fill="#17191A"/>
<path d="M15.858 9.99979C15.617 9.07279 15.061 8.27579 14.3 7.73779C14.583 8.38479 14.811 9.15079 14.922 9.99979H15.858Z" fill="#17191A"/>
<path d="M12 14.334C12.354 13.762 12.735 12.968 12.906 12H11.094C11.265 12.967 11.646 13.762 12 14.334Z" fill="#17191A"/>
<path d="M18 1H6C4.346 1 3 2.346 3 4V20C3 21.654 4.346 23 6 23H18C19.654 23 21 21.654 21 20V4C21 2.346 19.654 1 18 1ZM16 20H8V18H16V20ZM12 17C8.691 17 6 14.309 6 11C6 7.691 8.691 5 12 5C15.309 5 18 7.691 18 11C18 14.309 15.309 17 12 17Z" fill="#17191A"/>
<path d="M11.094 10H12.906C12.735 9.03302 12.354 8.23902 12 7.66602C11.646 8.23802 11.265 9.03302 11.094 10Z" fill="#17191A"/>
<path d="M14.3 14.263C15.061 13.725 15.617 12.927 15.858 12H14.922C14.811 12.85 14.583 13.616 14.3 14.263Z" fill="#17191A"/>
</svg>
