<svg width="24" height="24" viewBox="0 0 24 24" fill="none" xmlns="http://www.w3.org/2000/svg">
<path d="M19.25 4C19.25 3.30964 18.6904 2.75 18 2.75H6C5.30964 2.75 4.75 3.30964 4.75 4V20C4.75 20.6904 5.30964 21.25 6 21.25H18C18.6904 21.25 19.25 20.6904 19.25 20V4ZM20.75 20C20.75 21.5188 19.5188 22.75 18 22.75H6C4.48122 22.75 3.25 21.5188 3.25 20V4C3.25 2.48122 4.48122 1.25 6 1.25H18C19.5188 1.25 20.75 2.48122 20.75 4V20Z" fill="#17191A"/>
<path d="M16 18.25V19.75H8V18.25H16Z" fill="#17191A"/>
<path d="M16.25 11C16.25 8.65279 14.3472 6.75 12 6.75C9.65279 6.75 7.75 8.65279 7.75 11C7.75 13.3472 9.65279 15.25 12 15.25C14.3472 15.25 16.25 13.3472 16.25 11ZM17.75 11C17.75 14.1756 15.1756 16.75 12 16.75C8.82436 16.75 6.25 14.1756 6.25 11C6.25 7.82436 8.82436 5.25 12 5.25C15.1756 5.25 17.75 7.82436 17.75 11Z" fill="#17191A"/>
<path d="M17 10.25V11.75H7V10.25H17Z" fill="#17191A"/>
<path d="M9.25 11C9.25 9.33223 9.80534 7.95373 10.3486 7.00293C10.6212 6.52597 10.8942 6.14983 11.1016 5.89062C11.2054 5.76079 11.2936 5.65957 11.3574 5.58887C11.3893 5.55354 11.4156 5.52581 11.4346 5.50586C11.444 5.49593 11.4521 5.48748 11.458 5.48145L11.4697 5.46973L12.5303 6.53027L12.5205 6.54004C12.5102 6.55083 12.4934 6.56955 12.4707 6.59473C12.4252 6.64512 12.357 6.72364 12.2734 6.82812C12.1058 7.03765 11.8788 7.34908 11.6514 7.74707C11.1947 8.54627 10.75 9.66783 10.75 11C10.75 12.3322 11.1947 13.4537 11.6514 14.2529C11.8788 14.6509 12.1058 14.9623 12.2734 15.1719C12.357 15.2764 12.4252 15.3549 12.4707 15.4053C12.4934 15.4304 12.5102 15.4492 12.5205 15.46L12.5303 15.4697L11.4697 16.5303L11.458 16.5186C11.4521 16.5125 11.444 16.5041 11.4346 16.4941C11.4156 16.4742 11.3893 16.4465 11.3574 16.4111C11.2936 16.3404 11.2054 16.2392 11.1016 16.1094C10.8942 15.8502 10.6212 15.474 10.3486 14.9971C9.80534 14.0463 9.25 12.6678 9.25 11Z" fill="#17191A"/>
<path d="M13.25 11C13.25 9.66783 12.8053 8.54627 12.3486 7.74707C12.1212 7.34908 11.8942 7.03765 11.7266 6.82812C11.643 6.72364 11.5748 6.64512 11.5293 6.59473C11.5066 6.56955 11.4898 6.55083 11.4795 6.54004L11.4697 6.53027L12.5303 5.46973L12.542 5.48145C12.5479 5.48748 12.556 5.49593 12.5654 5.50586C12.5844 5.52581 12.6107 5.55354 12.6426 5.58887C12.7064 5.65957 12.7946 5.76079 12.8984 5.89062C13.1058 6.14983 13.3788 6.52597 13.6514 7.00293C14.1947 7.95373 14.75 9.33223 14.75 11C14.75 12.6678 14.1947 14.0463 13.6514 14.9971C13.3788 15.474 13.1058 15.8502 12.8984 16.1094C12.7946 16.2392 12.7064 16.3404 12.6426 16.4111C12.6107 16.4465 12.5844 16.4742 12.5654 16.4941C12.556 16.5041 12.5479 16.5125 12.542 16.5186L12.5303 16.5303L11.4697 15.4697L11.4795 15.46C11.4898 15.4492 11.5066 15.4304 11.5293 15.4053C11.5748 15.3549 11.643 15.2764 11.7266 15.1719C11.8942 14.9623 12.1212 14.6509 12.3486 14.2529C12.8053 13.4537 13.25 12.3322 13.25 11Z" fill="#17191A"/>
</svg>
