<svg width="24" height="24" viewBox="0 0 24 24" fill="none" xmlns="http://www.w3.org/2000/svg">
<path d="M20.0469 5H4.04688C2.39287 5 1.04688 6.346 1.04688 8V16C1.04688 17.654 2.39287 19 4.04688 19H20.0469C21.7009 19 23.0469 17.654 23.0469 16V8C23.0469 6.346 21.7009 5 20.0469 5ZM8.91488 13.25C8.72888 13.571 8.39388 13.75 8.04788 13.75C7.93488 13.75 7.82288 13.723 7.71287 13.684C7.62387 14.145 7.23688 14.5 6.74988 14.5C6.26288 14.5 5.87588 14.145 5.78688 13.684C5.67688 13.723 5.56488 13.75 5.45188 13.75C5.10588 13.75 4.76988 13.571 4.58488 13.25C4.33988 12.824 4.45687 12.307 4.81887 12C4.45687 11.693 4.33888 11.175 4.58488 10.75C4.83088 10.325 5.33787 10.167 5.78487 10.328C5.86888 9.861 6.25887 9.5 6.74988 9.5C7.24088 9.5 7.63088 9.861 7.71488 10.328C8.16088 10.167 8.66787 10.325 8.91488 10.75C9.15987 11.175 9.04287 11.693 8.68087 12C9.04287 12.307 9.16088 12.824 8.91488 13.25ZM14.1649 13.25C13.9789 13.571 13.6439 13.75 13.2979 13.75C13.1849 13.75 13.0729 13.723 12.9629 13.684C12.8739 14.145 12.4879 14.5 11.9999 14.5C11.5119 14.5 11.1259 14.145 11.0369 13.684C10.9269 13.723 10.8149 13.75 10.7019 13.75C10.3559 13.75 10.0199 13.571 9.83488 13.25C9.58988 12.824 9.70687 12.307 10.0689 12C9.70687 11.693 9.58887 11.175 9.83488 10.75C10.0809 10.325 10.5879 10.167 11.0349 10.328C11.1189 9.861 11.5089 9.5 11.9999 9.5C12.4909 9.5 12.8809 9.861 12.9649 10.328C13.4109 10.167 13.9189 10.324 14.1649 10.75C14.4109 11.175 14.2929 11.693 13.9309 12C14.2929 12.307 14.4109 12.824 14.1649 13.25ZM19.4149 13.25C19.2289 13.571 18.8939 13.75 18.5479 13.75C18.4349 13.75 18.3229 13.723 18.2129 13.684C18.1239 14.145 17.7379 14.5 17.2499 14.5C16.7619 14.5 16.3759 14.145 16.2869 13.684C16.1769 13.723 16.0649 13.75 15.9519 13.75C15.6059 13.75 15.2699 13.571 15.0849 13.25C14.8389 12.824 14.9569 12.307 15.3189 12C14.9569 11.693 14.8389 11.175 15.0849 10.75C15.3309 10.324 15.8379 10.167 16.2849 10.328C16.3689 9.861 16.7589 9.5 17.2499 9.5C17.7409 9.5 18.1309 9.861 18.2149 10.327C18.6599 10.166 19.1679 10.324 19.4149 10.75C19.6609 11.175 19.5429 11.693 19.1809 12C19.5429 12.307 19.6609 12.824 19.4149 13.25Z" fill="#17191A"/>
</svg>
