<svg width="24" height="24" viewBox="0 0 24 24" fill="none" xmlns="http://www.w3.org/2000/svg">
<path d="M6.75 9.75C7.16421 9.75 7.5 10.0858 7.5 10.5V10.7002L7.67383 10.6006L7.74219 10.5654C8.08887 10.4096 8.50401 10.5388 8.69824 10.875C8.89234 11.2113 8.79653 11.6351 8.48828 11.8574L8.42383 11.8994L8.24902 11.999L8.42383 12.1006L8.48828 12.1426C8.79653 12.3649 8.89234 12.7887 8.69824 13.125C8.50401 13.4612 8.08887 13.5904 7.74219 13.4346L7.67383 13.3994L7.5 13.2988V13.5C7.5 13.9142 7.16421 14.25 6.75 14.25C6.33579 14.25 6 13.9142 6 13.5V13.2988L5.82617 13.3994C5.46749 13.6065 5.0089 13.4836 4.80176 13.125C4.59465 12.7663 4.71748 12.3077 5.07617 12.1006L5.25 11.999L5.07617 11.8994L5.01172 11.8574C4.70354 11.635 4.60763 11.2112 4.80176 10.875C4.99594 10.5388 5.41113 10.4096 5.75781 10.5654L5.82617 10.6006L6 10.7002V10.5C6 10.0858 6.33579 9.75 6.75 9.75Z" fill="#17191A"/>
<path d="M12 9.75C12.4142 9.75 12.75 10.0858 12.75 10.5V10.7002L12.9238 10.6006L12.9922 10.5654C13.3389 10.4096 13.754 10.5388 13.9482 10.875C14.1423 11.2113 14.0465 11.6351 13.7383 11.8574L13.6738 11.8994L13.499 11.999L13.6738 12.1006L13.7383 12.1426C14.0465 12.3649 14.1423 12.7887 13.9482 13.125C13.754 13.4612 13.3389 13.5904 12.9922 13.4346L12.9238 13.3994L12.75 13.2988V13.5C12.75 13.9142 12.4142 14.25 12 14.25C11.5858 14.25 11.25 13.9142 11.25 13.5V13.2988L11.0762 13.3994C10.7175 13.6065 10.2589 13.4836 10.0518 13.125C9.84465 12.7663 9.96748 12.3077 10.3262 12.1006L10.5 11.999L10.3262 11.8994L10.2617 11.8574C9.95354 11.635 9.85763 11.2112 10.0518 10.875C10.2459 10.5388 10.6611 10.4096 11.0078 10.5654L11.0762 10.6006L11.25 10.7002V10.5C11.25 10.0858 11.5858 9.75 12 9.75Z" fill="#17191A"/>
<path d="M17.25 9.75C17.6642 9.75 18 10.0858 18 10.5V10.7002L18.1738 10.6006L18.2422 10.5654C18.5889 10.4096 19.004 10.5388 19.1982 10.875C19.3923 11.2113 19.2965 11.6351 18.9883 11.8574L18.9238 11.8994L18.749 11.999L18.9238 12.1006L18.9883 12.1426C19.2965 12.3649 19.3923 12.7887 19.1982 13.125C19.004 13.4612 18.5889 13.5904 18.2422 13.4346L18.1738 13.3994L18 13.2988V13.5C18 13.9142 17.6642 14.25 17.25 14.25C16.8358 14.25 16.5 13.9142 16.5 13.5V13.2988L16.3262 13.3994C15.9675 13.6065 15.5089 13.4836 15.3018 13.125C15.0947 12.7663 15.2175 12.3077 15.5762 12.1006L15.75 11.999L15.5762 11.8994L15.5117 11.8574C15.2035 11.635 15.1076 11.2112 15.3018 10.875C15.4959 10.5388 15.9111 10.4096 16.2578 10.5654L16.3262 10.6006L16.5 10.7002V10.5C16.5 10.0858 16.8358 9.75 17.25 9.75Z" fill="#17191A"/>
<path fill-rule="evenodd" clip-rule="evenodd" d="M20.0469 5.25C21.5657 5.25 22.7969 6.48122 22.7969 8V16C22.7969 17.5188 21.5657 18.75 20.0469 18.75H4.04688C2.52815 18.7499 1.29688 17.5187 1.29688 16V8C1.29688 6.48126 2.52815 5.25007 4.04688 5.25H20.0469ZM4.04688 6.75C3.35658 6.75007 2.79688 7.30968 2.79688 8V16C2.79688 16.6903 3.35658 17.2499 4.04688 17.25H20.0469C20.7372 17.25 21.2969 16.6904 21.2969 16V8C21.2969 7.30964 20.7372 6.75 20.0469 6.75H4.04688Z" fill="#17191A"/>
</svg>
