<svg width="24" height="24" viewBox="0 0 24 24" fill="none" xmlns="http://www.w3.org/2000/svg">
<path fill-rule="evenodd" clip-rule="evenodd" d="M19.1492 11.548C18.5672 14.526 16.6722 16.014 13.4662 16.014H13.0242C12.8562 16.014 12.7102 16.07 12.5802 16.18C12.4542 16.29 12.3722 16.433 12.3412 16.607L12.3002 16.796L11.7472 20.275L11.7262 20.426C11.6932 20.601 11.6112 20.742 11.4792 20.852C11.3492 20.963 11.2012 21.018 11.0322 21.018H8.50924C8.36724 21.018 8.25724 20.969 8.17824 20.868C8.09824 20.766 8.06824 20.647 8.08824 20.505C8.14924 20.132 8.23624 19.567 8.35524 18.816C8.47224 18.066 8.56124 17.502 8.62224 17.127C8.68324 16.752 8.77224 16.189 8.89424 15.442C9.01524 14.694 9.10624 14.132 9.16524 13.757C9.19824 13.509 9.34424 13.386 9.59824 13.386H10.9142C11.8072 13.399 12.5962 13.329 13.2892 13.175C14.4612 12.913 15.4232 12.431 16.1752 11.726C16.8602 11.089 17.3782 10.264 17.7352 9.253C17.8972 8.783 18.0122 8.336 18.0872 7.915C18.0932 7.874 18.1012 7.849 18.1122 7.841C18.1202 7.83 18.1342 7.827 18.1472 7.83C18.1592 7.834 18.1792 7.846 18.2092 7.865C18.7332 8.263 19.0632 8.806 19.1892 9.497C19.3102 10.06 19.2952 10.743 19.1492 11.548ZM16.9962 9.035C16.4592 10.597 15.4492 11.653 13.9592 12.203C13.2012 12.472 12.3572 12.611 11.4242 12.628C11.4242 12.634 11.1232 12.635 10.5202 12.635L9.61724 12.628C8.94524 12.628 8.55024 12.948 8.43024 13.592C8.41724 13.645 8.13224 15.422 7.57524 18.921C7.56724 18.987 7.52724 19.023 7.45424 19.023H4.48924C4.34124 19.023 4.21824 18.968 4.12024 18.858C4.02224 18.746 3.98524 18.617 4.00524 18.468L6.33724 3.673C6.36924 3.478 6.46224 3.319 6.61324 3.19C6.76424 3.063 6.93824 3 7.13224 3H13.1462C13.3742 3 13.7012 3.044 14.1252 3.131C14.5532 3.215 14.9262 3.325 15.2482 3.452C15.9662 3.726 16.5142 4.14 16.8932 4.689C17.2722 5.241 17.4612 5.896 17.4612 6.661C17.4612 7.378 17.3072 8.169 16.9962 9.035Z" fill="#17191A"/>
</svg>
