<svg width="24" height="24" viewBox="0 0 24 24" fill="none" xmlns="http://www.w3.org/2000/svg">
<path d="M12 10C10.86 10 10 10.86 10 12C10 13.14 10.86 14 12 14C13.14 14 14 13.141 14 12C14 10.859 13.141 10 12 10Z" fill="#17191A"/>
<path d="M20 3H4C2.346 3 1 4.346 1 6V18C1 19.654 2.346 21 4 21H20C21.654 21 23 19.654 23 18V6C23 4.346 21.654 3 20 3ZM16 12C16 12.75 15.79 13.437 15.444 14.03L16.949 15.535L15.535 16.949L14.03 15.444C13.436 15.789 12.75 16 12 16C11.25 16 10.563 15.79 9.97 15.444L8.465 16.949L7.051 15.535L8.556 14.03C8.211 13.436 8 12.75 8 12C8 11.25 8.21 10.563 8.556 9.97L7.05 8.464L8.464 7.05L9.97 8.556C10.564 8.211 11.25 8 12 8C12.75 8 13.437 8.21 14.03 8.556L15.536 7.05L16.95 8.464L15.444 9.97C15.789 10.564 16 11.25 16 12Z" fill="#17191A"/>
</svg>
