<svg width="24" height="24" viewBox="0 0 24 24" fill="none" xmlns="http://www.w3.org/2000/svg">
<path fill-rule="evenodd" clip-rule="evenodd" d="M16.7734 8.28711L15.1416 9.91797C15.5272 10.5089 15.75 11.2217 15.75 12C15.75 12.778 15.527 13.4903 15.1416 14.0811L16.7725 15.7119L15.7119 16.7725L14.0811 15.1416C13.4903 15.527 12.778 15.75 12 15.75C11.2217 15.75 10.5089 15.5272 9.91797 15.1416L8.28809 16.7725L7.22754 15.7119L8.85742 14.0811C8.47223 13.4904 8.25 12.7778 8.25 12C8.25 11.2219 8.47196 10.5088 8.85742 9.91797L7.22656 8.28711L8.28711 7.22656L9.91797 8.85742C10.5088 8.47196 11.2219 8.25 12 8.25C12.7778 8.25 13.4904 8.47223 14.0811 8.85742L15.7129 7.22656L16.7734 8.28711ZM12 9.75C10.7142 9.75 9.75 10.7142 9.75 12C9.75 13.2858 10.7142 14.25 12 14.25C13.2858 14.25 14.25 13.2858 14.25 12C14.25 10.7142 13.2858 9.75 12 9.75Z" fill="#17191A"/>
<path fill-rule="evenodd" clip-rule="evenodd" d="M20 3.25C21.5188 3.25 22.75 4.48122 22.75 6V18C22.75 19.5188 21.5188 20.75 20 20.75H4C2.48122 20.75 1.25 19.5188 1.25 18V6C1.25 4.48122 2.48122 3.25 4 3.25H20ZM4 4.75C3.30964 4.75 2.75 5.30964 2.75 6V18C2.75 18.6904 3.30964 19.25 4 19.25H20C20.6904 19.25 21.25 18.6904 21.25 18V6C21.25 5.30964 20.6904 4.75 20 4.75H4Z" fill="#17191A"/>
</svg>
