<svg width="24" height="24" viewBox="0 0 24 24" fill="none" xmlns="http://www.w3.org/2000/svg">
<path fill-rule="evenodd" clip-rule="evenodd" d="M6.3658 3.50613C6.05182 3.46919 5.48938 3.59455 4.60674 4.43073C3.84715 5.15034 3.53683 6.13189 3.50308 7.23421C3.46914 8.34316 3.71946 9.50462 4.0093 10.4708C4.58213 12.3802 5.62779 14.4625 7.32126 16.1559L7.3293 16.164L7.33708 16.1722C8.80817 17.7353 10.0641 18.2871 12.6363 19.1775C13.8626 19.602 15.222 19.8336 16.4193 19.7991C17.6422 19.7638 18.5595 19.457 19.0606 18.9559C20.1869 17.8297 19.8087 16.6139 19.1883 16.219L19.179 16.2131L16.3998 14.3272C15.764 13.9876 15.0555 14.0881 14.6273 14.5106L13.3834 15.82L12.959 15.7139C12.0106 15.4768 10.6557 14.7029 9.69266 13.8468C9.14038 13.3559 8.73857 12.7095 8.45451 12.1279C8.16704 11.5393 7.97775 10.9702 7.86979 10.5923L7.74856 10.168L9.07826 8.83828L9.09706 8.82183C9.59973 8.38199 9.6572 7.62462 9.29093 7.13626L9.28029 7.12207L7.36688 4.3023C7.01518 3.77476 6.68072 3.54318 6.3658 3.50613ZM8.61319 3.46757C8.16491 2.79602 7.49988 2.1292 6.54107 2.0164C5.58005 1.90334 4.59249 2.37798 3.57513 3.3418C2.43471 4.42219 2.04504 5.84064 2.00379 7.18832C1.96273 8.52937 2.2624 9.86791 2.57256 10.9018C3.19885 12.9894 4.35083 15.3035 6.25256 17.2085C7.97834 19.0392 9.52175 19.6867 12.1456 20.595C13.5193 21.0705 15.0598 21.3389 16.4626 21.2985C17.8397 21.2587 19.2224 20.9155 20.1213 20.0166C21.7914 18.3464 21.5741 15.9688 20.0036 14.9599L17.1844 13.0469L17.1552 13.0306C16.0008 12.3893 14.527 12.4895 13.5606 13.4559L13.5538 13.4627L12.9236 14.1261C12.2653 13.8644 11.3741 13.3345 10.6892 12.7257C10.3415 12.4166 10.0433 11.963 9.80236 11.4696C9.65268 11.1631 9.53351 10.8588 9.4428 10.5951L10.105 9.93287C11.1789 8.97478 11.3182 7.35617 10.5024 6.25169L8.61319 3.46757Z" fill="#17191A"/>
</svg>
