<svg width="24" height="24" viewBox="0 0 24 24" fill="none" xmlns="http://www.w3.org/2000/svg">
<path d="M20.5152 14.9149L17.7152 13.0149C16.5152 12.2149 14.8152 12.3149 13.7152 13.4149L13.1152 14.0149C12.5152 13.8149 11.6152 13.4149 11.1152 12.8149C10.7152 12.4149 10.3152 11.7149 10.0152 10.8149L10.6152 10.2149C11.7152 9.1149 11.8152 7.5149 11.0152 6.2149L9.11524 3.4149C8.61524 2.6149 7.71524 2.1149 6.81524 2.0149C5.71524 1.9149 4.61524 2.3149 3.61524 3.3149C1.91524 5.0149 1.51524 7.6149 2.61524 11.1149C3.11524 12.8149 4.21524 15.3149 6.41524 17.5149C8.21524 19.3149 10.7152 20.3149 12.4152 20.9149C13.7152 21.3149 15.1152 21.6149 16.5152 21.6149C17.9152 21.6149 19.7152 21.2149 20.6152 20.3149C21.5152 19.4149 22.0152 18.3149 21.8152 17.1149C21.8152 16.2149 21.2152 15.3149 20.4152 14.8149L20.5152 14.9149Z" fill="#17191A"/>
</svg>
