<svg width="24" height="24" viewBox="0 0 24 24" fill="none" xmlns="http://www.w3.org/2000/svg">
<path fill-rule="evenodd" clip-rule="evenodd" d="M12 2.25C17.3848 2.25 21.75 6.61522 21.75 12C21.75 17.3848 17.3848 21.75 12 21.75C6.61522 21.75 2.25 17.3848 2.25 12C2.25 6.61522 6.61522 2.25 12 2.25ZM12.75 12.75H3.78613C4.16516 16.9548 7.69654 20.25 12 20.25C16.5563 20.25 20.25 16.5563 20.25 12C20.25 7.69651 16.9548 4.16414 12.75 3.78516V12.75ZM11.25 3.78516C7.29228 4.14187 4.14289 7.2923 3.78613 11.25H11.25V3.78516Z" fill="#17191A"/>
</svg>
