<svg width="24" height="24" viewBox="0 0 24 24" fill="none" xmlns="http://www.w3.org/2000/svg">
<path fill-rule="evenodd" clip-rule="evenodd" d="M12 3.75C7.44365 3.75 3.75 7.44365 3.75 12C3.75 16.5563 7.44365 20.25 12 20.25C16.5563 20.25 20.25 16.5563 20.25 12C20.25 7.44365 16.5563 3.75 12 3.75ZM2.25 12C2.25 6.61522 6.61522 2.25 12 2.25C17.3848 2.25 21.75 6.61522 21.75 12C21.75 17.3848 17.3848 21.75 12 21.75C6.61522 21.75 2.25 17.3848 2.25 12Z" fill="#17191A"/>
<path fill-rule="evenodd" clip-rule="evenodd" d="M12 11.25H21V12.75H12V11.25Z" fill="#17191A"/>
<path fill-rule="evenodd" clip-rule="evenodd" d="M12.75 11.7226V3H11.25V12.2774L17.4306 19.4881L18.5694 18.5119L12.75 11.7226Z" fill="#17191A"/>
</svg>
