<svg width="24" height="24" viewBox="0 0 24 24" fill="none" xmlns="http://www.w3.org/2000/svg">
<path d="M19 3C20.1046 3 21 3.89543 21 5C21 6.10457 20.1046 7 19 7C18.7227 7 18.4588 6.94285 18.2188 6.84082L6.84082 18.2188C6.84522 18.2291 6.84929 18.2396 6.85352 18.25H17.1465C17.4433 17.5172 18.1608 17 19 17C20.1046 17 21 17.8954 21 19C21 20.1046 20.1046 21 19 21C18.1608 21 17.4433 20.4828 17.1465 19.75H6.85352C6.55673 20.4828 5.8392 21 5 21C3.89543 21 3 20.1046 3 19C3 17.8954 3.89543 17 5 17C5.27687 17 5.54049 17.0565 5.78027 17.1582L17.1582 5.78027C17.154 5.77032 17.1505 5.76004 17.1465 5.75H6.85352C6.55673 6.48275 5.8392 7 5 7C3.89543 7 3 6.10457 3 5C3 3.89543 3.89543 3 5 3C5.8392 3 6.55673 3.51725 6.85352 4.25H17.1465C17.4433 3.51725 18.1608 3 19 3Z" fill="#17191A"/>
</svg>
