<svg width="24" height="24" viewBox="0 0 24 24" fill="none" xmlns="http://www.w3.org/2000/svg">
<path d="M19 17C18.262 17 17.624 17.405 17.277 18H7.414L18.488 6.926C18.652 6.97 18.822 7 19 7C20.105 7 21 6.105 21 5C21 3.895 20.105 3 19 3C18.262 3 17.624 3.405 17.277 4H6.723C6.377 3.405 5.739 3 5 3C3.895 3 3 3.895 3 5C3 6.105 3.895 7 5 7C5.738 7 6.376 6.595 6.723 6H16.586L5.512 17.074C5.348 17.03 5.178 17 5 17C3.895 17 3 17.895 3 19C3 20.105 3.895 21 5 21C5.738 21 6.376 20.595 6.723 20H17.278C17.624 20.595 18.262 21 19.001 21C20.106 21 21.001 20.105 21.001 19C21.001 17.895 20.105 17 19 17Z" fill="#17191A"/>
</svg>
