<svg width="24" height="24" viewBox="0 0 24 24" fill="none" xmlns="http://www.w3.org/2000/svg">
<path d="M21.335 16.4641C21.348 16.4311 21.366 16.3991 21.378 16.3671C22.686 13.0451 21.906 9.27408 19.393 6.76208L18.592 5.96108C17.665 5.03408 16.541 4.33408 15.251 3.88108C15.246 3.87908 15.241 3.88008 15.237 3.87808C13.093 3.12908 10.757 3.21308 8.712 4.09508L6.573 1.95608C5.342 0.725078 3.183 0.726078 1.954 1.95608C1.339 2.57108 1 3.39208 1 4.26608C1 5.14008 1.339 5.96008 1.954 6.57608L4.093 8.71508C3.21 10.7631 3.127 13.1061 3.881 15.2541C3.882 15.2581 3.885 15.2611 3.887 15.2651C4.34 16.5511 5.038 17.6711 5.961 18.5941L6.762 19.3951C8.465 21.0991 10.746 22.0051 13.075 22.0051C14.18 22.0051 15.298 21.8011 16.368 21.3801C16.401 21.3671 16.432 21.3501 16.464 21.3371C17.039 21.7511 17.739 22.0021 18.5 22.0021C20.43 22.0021 22 20.4321 22 18.5021C22 17.7411 21.749 17.0411 21.335 16.4661V16.4641ZM5.408 12.9221C5.277 11.5621 5.534 10.1861 6.182 8.98108C6.391 8.59208 6.32 8.11208 6.008 7.80008L3.367 5.15908C3.13 4.92208 2.999 4.60308 2.999 4.26308C2.999 3.92308 3.13 3.60508 3.368 3.36708C3.841 2.89308 4.684 2.89208 5.159 3.36708L7.8 6.00808C8.112 6.32008 8.592 6.39108 8.981 6.18108C10.186 5.53408 11.561 5.27608 12.921 5.40708L5.409 12.9201L5.408 12.9221ZM18.5 20.0001C17.673 20.0001 17 19.3271 17 18.5001C17 17.6731 17.673 17.0001 18.5 17.0001C19.327 17.0001 20 17.6731 20 18.5001C20 19.3271 19.327 20.0001 18.5 20.0001Z" fill="#17191A"/>
</svg>
