<svg width="24" height="24" viewBox="0 0 24 24" fill="none" xmlns="http://www.w3.org/2000/svg">
<path fill-rule="evenodd" clip-rule="evenodd" d="M18.4998 16.7497C17.5333 16.7497 16.7498 17.5332 16.7498 18.4997C16.7498 19.4662 17.5333 20.2497 18.4998 20.2497C19.4662 20.2497 20.2498 19.4662 20.2498 18.4997C20.2498 17.5332 19.4662 16.7497 18.4998 16.7497ZM15.2498 18.4997C15.2498 16.7048 16.7048 15.2497 18.4998 15.2497C20.2947 15.2497 21.7498 16.7048 21.7498 18.4997C21.7498 20.2947 20.2947 21.7497 18.4998 21.7497C16.7048 21.7497 15.2498 20.2947 15.2498 18.4997Z" fill="#17191A"/>
<path fill-rule="evenodd" clip-rule="evenodd" d="M2.13042 2.1314C3.30431 0.957503 5.22219 0.957503 6.39608 2.1314L8.65648 4.39179C10.7136 3.4553 13.058 3.37703 15.1679 4.11699C15.5588 4.25406 15.7646 4.68205 15.6275 5.07293C15.4904 5.4638 15.0624 5.66954 14.6716 5.53247C12.7703 4.86572 10.6499 5.00157 8.86203 5.96324C8.57045 6.12007 8.21053 6.06717 7.97642 5.83306L5.33542 3.19206C4.74731 2.60395 3.77919 2.60395 3.19108 3.19206C2.60297 3.78016 2.60297 4.74829 3.19108 5.3364L5.83208 7.9774C6.06619 8.21151 6.1191 8.57143 5.96226 8.863C5.00059 10.6509 4.86475 12.7713 5.53149 14.6725C5.66857 15.0634 5.46282 15.4914 5.07195 15.6285C4.68107 15.7655 4.25309 15.5598 4.11601 15.1689C3.37605 13.0589 3.45433 10.7146 4.39082 8.65745L2.13042 6.39706C0.956527 5.22316 0.956527 3.30529 2.13042 2.1314Z" fill="#17191A"/>
<path fill-rule="evenodd" clip-rule="evenodd" d="M14.3894 4.29342C14.5933 4.08952 14.8959 4.02152 15.1679 4.11699C16.3459 4.53029 17.4656 5.1869 18.4151 6.1364L19.2161 6.9374C21.7319 9.45323 22.3711 13.1559 21.145 16.2735C21.0522 16.511 20.948 16.7432 20.8352 16.9699C20.6507 17.3407 20.2005 17.4917 19.8296 17.3072C19.4588 17.1227 19.3078 16.6724 19.4923 16.3016C19.5874 16.1105 19.6731 15.919 19.7482 15.7268L19.7488 15.7252C20.7663 13.1389 20.2314 10.074 18.1554 7.99806L17.3544 7.19706C16.6946 6.53723 15.9289 6.04439 15.1056 5.69854L5.69964 15.1055C6.04556 15.9284 6.53843 16.6947 7.19808 17.3544L7.99908 18.1554C10.075 20.2313 13.1389 20.7663 15.7263 19.7488C15.9198 19.6724 16.1094 19.5884 16.2943 19.4959C16.6648 19.3107 17.1153 19.4608 17.3006 19.8313C17.4858 20.2018 17.3356 20.6523 16.9652 20.8375C16.7383 20.951 16.5081 21.0528 16.2759 21.1444C13.1573 22.3709 9.45449 21.7321 6.93842 19.2161L6.13742 18.4151C5.1878 17.4654 4.53034 16.3448 4.11712 15.1682C4.02156 14.8961 4.09048 14.5934 4.29439 14.3894L14.3894 4.29342Z" fill="#17191A"/>
</svg>
