<svg width="24" height="24" viewBox="0 0 24 24" fill="none" xmlns="http://www.w3.org/2000/svg">
<path d="M20.0954 13.7091L20.5554 13.2491C20.9464 12.8591 20.9464 12.2261 20.5554 11.8351C20.1664 11.4451 19.5384 11.4461 19.1474 11.8301L18.3774 10.3041L21.2444 7.04108C22.3134 5.82108 22.2394 3.98308 21.0734 2.85508C19.9464 1.76608 18.1404 1.71908 16.9604 2.75208L13.6844 5.61908L12.1704 4.85608C12.5564 4.46508 12.5564 3.83608 12.1674 3.44708C11.7784 3.05808 11.1444 3.05608 10.7534 3.44708L10.2914 3.90908L7.64638 2.57708C7.26138 2.38308 6.79438 2.45808 6.48938 2.76308L4.90238 4.34908C4.70138 4.55008 4.59538 4.82608 4.61038 5.10908C4.62538 5.39308 4.75938 5.65608 4.98038 5.83408L6.85338 7.34608L6.55938 7.64008C6.16838 8.03108 6.16838 8.66308 6.55938 9.05408C6.75438 9.24908 7.01038 9.34708 7.26638 9.34708C7.52238 9.34708 7.77838 9.24908 7.97338 9.05408L8.41838 8.60908L10.0234 9.90508L7.80138 12.6271L3.00938 12.5801C2.59538 12.6131 2.21138 12.8361 2.06338 13.2291C1.91638 13.6231 2.03038 14.0671 2.35038 14.3391L6.28838 17.7061L9.64838 21.6321C9.65538 21.6401 9.66638 21.6431 9.67338 21.6511C9.68438 21.6631 9.68838 21.6791 9.69938 21.6901L9.70938 21.7001C9.74638 21.7371 9.78438 21.7711 9.82538 21.8011C9.87238 21.8361 9.92638 21.8541 9.97738 21.8801C9.98738 21.8851 9.99638 21.8911 10.0064 21.8951C10.1364 21.9541 10.2714 21.9951 10.4114 21.9951C10.6104 21.9951 10.8014 21.9171 10.9724 21.7981C10.9964 21.7821 11.0214 21.7691 11.0444 21.7501C11.0684 21.7301 11.0994 21.7211 11.1224 21.6981C11.1484 21.6721 11.1534 21.6361 11.1764 21.6081C11.2364 21.5351 11.2834 21.4541 11.3204 21.3671C11.3394 21.3201 11.3604 21.2771 11.3724 21.2281C11.3944 21.1431 11.4104 21.0561 11.4094 20.9661L11.3354 16.2121L14.0904 13.9641L15.3964 15.5801L14.9494 16.0271C14.5584 16.4181 14.5584 17.0501 14.9494 17.4411C15.1444 17.6361 15.4004 17.7341 15.6564 17.7341C15.9124 17.7341 16.1684 17.6361 16.3634 17.4411L16.6604 17.1441L18.1744 19.0171C18.3524 19.2371 18.6154 19.3711 18.8994 19.3871C19.1834 19.4021 19.4584 19.2961 19.6594 19.0951L21.2454 17.5101C21.5514 17.2051 21.6254 16.7391 21.4314 16.3531L20.0974 13.7081L20.0954 13.7091ZM19.0304 16.8961L15.0124 11.9271C14.8454 11.7201 14.6034 11.5881 14.3384 11.5611C14.0664 11.5321 13.8084 11.6131 13.6034 11.7811L9.69338 14.9711C9.45638 15.1641 9.32138 15.4551 9.32538 15.7611L9.36338 18.2281L7.75538 16.3481C7.72138 16.3091 7.68538 16.2721 7.64538 16.2391L5.73838 14.6091L8.26038 14.6331C8.57338 14.6501 8.85238 14.5011 9.04438 14.2661L12.2074 10.3921C12.3754 10.1861 12.4544 9.92108 12.4274 9.65708C12.4004 9.39208 12.2684 9.14908 12.0614 8.98208L7.10238 4.97808L7.39138 4.68908L13.3854 7.70908C13.7484 7.89208 14.1894 7.83708 14.4934 7.56808L18.2764 4.25708C18.6794 3.90308 19.2974 3.92008 19.6824 4.29208C20.0794 4.67708 20.1064 5.30508 19.7414 5.72108L16.4294 9.49108C16.1594 9.79808 16.1064 10.2371 16.2894 10.6011L19.3174 16.6071L19.0294 16.8951L19.0304 16.8961Z" fill="#17191A"/>
</svg>
