<svg width="24" height="24" viewBox="0 0 24 24" fill="none" xmlns="http://www.w3.org/2000/svg">
<path d="M10.1412 20.2821C10.4187 20.1771 10.7288 20.2476 10.9361 20.4559L10.9371 20.4549L10.9693 20.4871L10.984 20.5037L11.0709 20.6248C11.2423 20.9205 11.1935 21.304 10.9352 21.5467C10.6399 21.824 10.1777 21.8165 9.89121 21.5301L9.87656 21.5155C9.87051 21.5094 9.86677 21.5012 9.86094 21.495L9.85899 21.4969L9.84434 21.4793L9.84629 21.4774C9.72651 21.341 9.65684 21.1678 9.65684 20.9852V20.9832L9.66563 20.868C9.70655 20.6043 9.8862 20.3787 10.1412 20.2821Z" fill="#17191A"/>
<path d="M17.3368 2.77344C18.4203 1.99488 19.924 2.08998 20.9012 3.03515L21.0897 3.23633C21.9154 4.20886 21.973 5.62479 21.2293 6.66113L21.0575 6.87695L18.0799 10.2646L21.2078 16.4678C21.3535 16.7569 21.2972 17.1071 21.0682 17.3359L19.4823 18.9209C19.3319 19.0712 19.1243 19.1509 18.9119 19.1396C18.6997 19.1283 18.5026 19.0266 18.369 18.8613L14.1258 13.6133L11.0819 16.0957L11.158 20.9717C11.1629 21.2875 10.969 21.5726 10.6737 21.6846C10.378 21.7964 10.0433 21.7108 9.83773 21.4707L6.46175 17.5273L2.51253 14.1514C2.27287 13.9465 2.18714 13.6136 2.29769 13.3184C2.40838 13.023 2.69227 12.8279 3.00765 12.8311L7.91976 12.8789L10.3758 9.87012L5.13851 5.64062C4.97305 5.50695 4.87241 5.3091 4.86117 5.09668C4.84998 4.88427 4.92946 4.67673 5.07992 4.52637L6.66683 2.94043L6.75765 2.86328C6.98187 2.70119 7.28111 2.67438 7.53402 2.80176L13.7225 5.91894L17.1258 2.94043L17.3368 2.77344ZM19.8582 4.11328C19.4067 3.67665 18.7115 3.63235 18.2108 3.99219L18.1141 4.06933L14.3309 7.38086C14.1012 7.58184 13.7725 7.62344 13.4998 7.48633L7.34359 4.38476L6.73031 4.99805L11.9051 9.17676C12.0603 9.30211 12.1589 9.48419 12.1795 9.68262C12.2001 9.88116 12.1407 10.0798 12.0145 10.2344L8.85238 14.1074C8.70831 14.2838 8.49222 14.385 8.26449 14.3828L5.05453 14.3506L7.48421 16.4277L7.56624 16.5107L9.62581 18.916L9.57699 15.7568C9.57344 15.5276 9.67476 15.3091 9.85238 15.1641L13.7616 11.9756L13.8856 11.8936C14.0159 11.8247 14.1646 11.7951 14.3133 11.8105C14.5117 11.8312 14.6938 11.9299 14.8192 12.085L19.0106 17.2705L19.6229 16.6572L16.5145 10.4902C16.5097 10.4808 16.5033 10.4716 16.4989 10.4619C16.3774 10.1936 16.4237 9.8785 16.618 9.65723L19.9305 5.88769L20.0096 5.78808C20.3534 5.30918 20.3265 4.65523 19.9452 4.20605L19.8582 4.11328Z" fill="#17191A"/>
<path d="M10.9878 3.57321C11.2824 3.33328 11.7163 3.35065 11.9908 3.62497C12.2837 3.91786 12.2837 4.39262 11.9908 4.68551L11.0181 5.65817C10.7252 5.95106 10.2505 5.95106 9.95756 5.65817C9.66484 5.36526 9.66473 4.89046 9.95756 4.59762L10.9302 3.62497L10.9878 3.57321Z" fill="#17191A"/>
<path d="M7.81762 6.73697C8.11051 6.4441 8.58528 6.44408 8.87817 6.73697C9.17102 7.02985 9.17102 7.50463 8.87817 7.79751L7.79711 8.87857C7.50423 9.17142 7.02945 9.17142 6.73656 8.87857C6.44368 8.58568 6.4437 8.11092 6.73656 7.81802L7.81762 6.73697Z" fill="#17191A"/>
<path d="M16.2642 15.0712C16.5588 14.8309 16.9935 14.8484 17.2681 15.123C17.5427 15.3976 17.5602 15.8323 17.3199 16.1269L17.2681 16.1835L16.1861 17.2655C15.8932 17.5584 15.4185 17.5584 15.1256 17.2655C14.8327 16.9727 14.8327 16.4979 15.1256 16.205L16.2076 15.123L16.2642 15.0712Z" fill="#17191A"/>
<path d="M19.3202 12.012C19.6132 11.7193 20.088 11.7189 20.3807 12.012C20.6734 12.305 20.6727 12.7798 20.3798 13.0725L19.4071 14.0452C19.1141 14.3378 18.6393 14.3371 18.3466 14.0442C18.0539 13.7512 18.0536 13.2764 18.3466 12.9836L19.3202 12.012Z" fill="#17191A"/>
</svg>
