<svg width="24" height="24" viewBox="0 0 24 24" fill="none" xmlns="http://www.w3.org/2000/svg">
<path fill-rule="evenodd" clip-rule="evenodd" d="M15.911 8.64503L6.36 3.27703C5.727 2.93503 5.134 2.88703 4.614 3.26103L12.954 11.602L15.911 8.64503ZM19.489 13.335C20.089 12.999 20.418 12.523 20.418 11.995C20.418 11.468 20.089 10.991 19.49 10.655L16.707 9.09203L13.574 12.224L16.415 15.064L19.489 13.335ZM4 4.64603V19.351C4 19.732 4.084 20.06 4.236 20.321L12.333 12.223L4.1 3.98803C4.036 4.18503 4 4.40503 4 4.64603ZM4.902 20.896C5.056 20.955 5.222 20.986 5.397 20.986C5.709 20.986 6.034 20.894 6.365 20.71L15.62 15.513L12.954 12.843L4.902 20.896Z" fill="#17191A"/>
</svg>
