<svg width="24" height="24" viewBox="0 0 24 24" fill="none" xmlns="http://www.w3.org/2000/svg">
<path fill-rule="evenodd" clip-rule="evenodd" d="M9.3906 7.23472C9.6314 7.10326 9.92478 7.11376 10.1556 7.26212L16.1556 11.1191C16.3702 11.2571 16.5 11.4948 16.5 11.75C16.5 12.0052 16.3702 12.2429 16.1556 12.3809L10.1556 16.2379C9.92478 16.3863 9.6314 16.3968 9.3906 16.2653C9.1498 16.1338 9 15.8814 9 15.607V7.89301C9 7.61865 9.1498 7.36619 9.3906 7.23472ZM10.5 9.26673V14.2333L14.363 11.75L10.5 9.26673Z" fill="#17191A"/>
<path fill-rule="evenodd" clip-rule="evenodd" d="M1 11.75C1 5.83579 5.83579 1 11.75 1C17.6642 1 22.5 5.83579 22.5 11.75C22.5 17.6642 17.6642 22.5 11.75 22.5C5.83579 22.5 1 17.6642 1 11.75ZM11.75 2.5C6.66421 2.5 2.5 6.66421 2.5 11.75C2.5 16.8358 6.66421 21 11.75 21C16.8358 21 21 16.8358 21 11.75C21 6.66421 16.8358 2.5 11.75 2.5Z" fill="#17191A"/>
</svg>
