<svg width="24" height="24" viewBox="0 0 24 24" fill="none" xmlns="http://www.w3.org/2000/svg">
<path fill-rule="evenodd" clip-rule="evenodd" d="M17 3V3.75C17 3 16.9996 3 17 3L17.0017 3L17.0037 3.00001L17.0089 3.00004L17.0236 3.00022C17.0353 3.00041 17.0508 3.00076 17.0699 3.00139C17.1081 3.00266 17.1605 3.00509 17.2253 3.00972C17.3546 3.01896 17.5345 3.03707 17.7483 3.0727C18.1724 3.14339 18.7494 3.28616 19.3354 3.57918C19.9244 3.87367 20.5362 4.32717 20.999 5.02147C21.465 5.72047 21.75 6.61876 21.75 7.75C21.75 8.84684 21.4803 10.1713 21.2276 11.1819C21.0992 11.6957 20.9709 12.1446 20.8746 12.4655C20.8264 12.6261 20.7861 12.7551 20.7577 12.8446C20.7434 12.8893 20.7321 12.9243 20.7243 12.9483L20.7151 12.9762L20.7126 12.9839L20.7119 12.9861C20.7118 12.9862 20.7115 12.9872 20 12.75C19.2885 12.5128 19.2885 12.5129 19.2885 12.5129L19.2888 12.5118L19.2906 12.5064L19.2982 12.4833C19.305 12.4625 19.3152 12.431 19.3283 12.3898C19.3545 12.3074 19.3923 12.1864 19.4379 12.0345C19.5291 11.7304 19.6508 11.3043 19.7724 10.8181C20.0197 9.82868 20.25 8.65316 20.25 7.75C20.25 6.88124 20.035 6.27953 19.751 5.85353C19.4638 5.42283 19.0756 5.12633 18.6646 4.92082C18.3494 4.7632 18.0289 4.66343 17.75 4.60082V16.75H16.25V3H17ZM16.9969 4.49999C16.9969 4.49999 16.9969 4.49999 16.9969 4.49999V4.49999Z" fill="#17191A"/>
<path fill-rule="evenodd" clip-rule="evenodd" d="M14 6.5H2V5H14V6.5Z" fill="#17191A"/>
<path fill-rule="evenodd" clip-rule="evenodd" d="M14 10.5H2V9H14V10.5Z" fill="#17191A"/>
<path fill-rule="evenodd" clip-rule="evenodd" d="M9 14.5H2V13H9V14.5Z" fill="#17191A"/>
<path fill-rule="evenodd" clip-rule="evenodd" d="M14 14.5C12.7574 14.5 11.75 15.5074 11.75 16.75C11.75 17.9926 12.7574 19 14 19C15.2426 19 16.25 17.9926 16.25 16.75C16.25 15.5074 15.2426 14.5 14 14.5ZM10.25 16.75C10.25 14.6789 11.9289 13 14 13C16.0711 13 17.75 14.6789 17.75 16.75C17.75 18.8211 16.0711 20.5 14 20.5C11.9289 20.5 10.25 18.8211 10.25 16.75Z" fill="#17191A"/>
</svg>
