<svg width="24" height="24" viewBox="0 0 24 24" fill="none" xmlns="http://www.w3.org/2000/svg">
<path d="M17 3H16V13.556C15.409 13.212 14.732 13 14 13C11.794 13 10 14.794 10 17C10 19.206 11.794 21 14 21C16.206 21 18 19.206 18 17V5.154C18.89 5.417 20 6.121 20 8C20 9.812 19.061 12.655 19.051 12.684L20.948 13.316C20.991 13.187 22 10.137 22 8C22 4.045 18.729 3 17 3Z" fill="#17191A"/>
<path d="M14 5H2V7H14V5Z" fill="#17191A"/>
<path d="M14 9H2V11H14V9Z" fill="#17191A"/>
<path d="M9 13H2V15H9V13Z" fill="#17191A"/>
</svg>
