<svg width="24" height="24" viewBox="0 0 24 24" fill="none" xmlns="http://www.w3.org/2000/svg">
<path d="M12 1C5.935 1 1 5.935 1 12C1 18.065 5.935 23 12 23C18.065 23 23 18.065 23 12C23 5.935 18.065 1 12 1ZM16.541 12.841L10.541 16.698C10.376 16.803 10.188 16.857 10 16.857C9.835 16.857 9.67 16.816 9.521 16.735C9.2 16.559 9 16.223 9 15.857V8.143C9 7.777 9.2 7.44 9.521 7.265C9.841 7.089 10.233 7.103 10.541 7.302L16.541 11.159C16.827 11.343 17 11.66 17 12C17 12.34 16.827 12.657 16.541 12.841Z" fill="#17191A"/>
</svg>
