<svg width="24" height="24" viewBox="0 0 24 24" fill="none" xmlns="http://www.w3.org/2000/svg">
<path fill-rule="evenodd" clip-rule="evenodd" d="M1 11.75C1 5.83579 5.83579 1 11.75 1C17.6642 1 22.5 5.83579 22.5 11.75C22.5 17.6642 17.6642 22.5 11.75 22.5C5.83579 22.5 1 17.6642 1 11.75ZM11.75 2.5C6.66421 2.5 2.5 6.66421 2.5 11.75C2.5 16.8358 6.66421 21 11.75 21C16.8358 21 21 16.8358 21 11.75C21 6.66421 16.8358 2.5 11.75 2.5Z" fill="#17191A"/>
<path fill-rule="evenodd" clip-rule="evenodd" d="M11 15.75V7.75H12.5V15.75H11Z" fill="#17191A"/>
<path fill-rule="evenodd" clip-rule="evenodd" d="M7.75 11H15.75V12.5H7.75V11Z" fill="#17191A"/>
</svg>
