<svg width="24" height="24" viewBox="0 0 24 24" fill="none" xmlns="http://www.w3.org/2000/svg">
<path fill-rule="evenodd" clip-rule="evenodd" d="M12 3.75C7.44321 3.75 3.75 7.44321 3.75 12C3.75 16.5568 7.44321 20.25 12 20.25C16.5568 20.25 20.25 16.5568 20.25 12C20.25 11.5858 20.5858 11.25 21 11.25C21.4142 11.25 21.75 11.5858 21.75 12C21.75 17.3852 17.3852 21.75 12 21.75C6.61479 21.75 2.25 17.3852 2.25 12C2.25 6.61479 6.61479 2.25 12 2.25C12.4142 2.25 12.75 2.58579 12.75 3C12.75 3.41421 12.4142 3.75 12 3.75Z" fill="#17191A"/>
<path fill-rule="evenodd" clip-rule="evenodd" d="M12 3.75C7.44321 3.75 3.75 7.44321 3.75 12C3.75 16.5568 7.44321 20.25 12 20.25C16.5568 20.25 20.25 16.5568 20.25 12C20.25 7.44365 16.5563 3.75 12 3.75ZM2.25 12C2.25 6.61479 6.61479 2.25 12 2.25C17.3848 2.25 21.75 6.61522 21.75 12C21.75 17.3852 17.3852 21.75 12 21.75C6.61479 21.75 2.25 17.3852 2.25 12Z" fill="#17191A"/>
<path fill-rule="evenodd" clip-rule="evenodd" d="M9.5 12.25C9.91421 12.25 10.25 12.5858 10.25 13V16C10.25 16.4142 9.91421 16.75 9.5 16.75C9.08579 16.75 8.75 16.4142 8.75 16V13C8.75 12.5858 9.08579 12.25 9.5 12.25Z" fill="#17191A"/>
<path fill-rule="evenodd" clip-rule="evenodd" d="M8.75 8C8.75 7.58579 9.08579 7.25 9.5 7.25H13C14.7942 7.25 16.25 8.70579 16.25 10.5C16.25 12.2942 14.7942 13.75 13 13.75H9.5C9.08579 13.75 8.75 13.4142 8.75 13V8ZM10.25 8.75V12.25H13C13.9658 12.25 14.75 11.4658 14.75 10.5C14.75 9.53421 13.9658 8.75 13 8.75H10.25Z" fill="#17191A"/>
</svg>
