<svg width="24" height="24" viewBox="0 0 24 24" fill="none" xmlns="http://www.w3.org/2000/svg">
<path d="M15.5 17.5C17.1569 17.5 18.5 16.1569 18.5 14.5C18.5 12.8431 17.1569 11.5 15.5 11.5C13.8431 11.5 12.5 12.8431 12.5 14.5C12.5 16.1569 13.8431 17.5 15.5 17.5Z" fill="#17191A"/>
<path d="M20 7H19V2H8V7H6V5H4V7C2.346 7 1 8.346 1 10V19C1 20.654 2.346 22 4 22H20C21.654 22 23 20.654 23 19V10C23 8.346 21.654 7 20 7ZM9 13H5V11H9V13ZM10 4H17V7H10V4ZM15.5 19.5C12.743 19.5 10.5 17.257 10.5 14.5C10.5 11.743 12.743 9.5 15.5 9.5C18.257 9.5 20.5 11.743 20.5 14.5C20.5 17.257 18.257 19.5 15.5 19.5Z" fill="#17191A"/>
</svg>
