<svg width="24" height="24" viewBox="0 0 24 24" fill="none" xmlns="http://www.w3.org/2000/svg">
<path d="M21.25 10C21.25 9.30964 20.6904 8.75 20 8.75H4C3.30964 8.75 2.75 9.30964 2.75 10V19C2.75 19.6904 3.30964 20.25 4 20.25H20C20.6904 20.25 21.25 19.6904 21.25 19V10ZM22.75 19C22.75 20.5188 21.5188 21.75 20 21.75H4C2.48122 21.75 1.25 20.5188 1.25 19V10C1.25 8.48122 2.48122 7.25 4 7.25H20C21.5188 7.25 22.75 8.48122 22.75 10V19Z" fill="#17191A"/>
<path d="M9 11.25V12.75H5V11.25H9Z" fill="#17191A"/>
<path d="M5.75 5V8H4.25V5H5.75Z" fill="#17191A"/>
<path d="M18.75 2.25V8.75H8.25V2.25H18.75ZM9.75 7.25H17.25V3.75H9.75V7.25Z" fill="#17191A"/>
<path d="M18.75 14.5C18.75 12.7051 17.2949 11.25 15.5 11.25C13.7051 11.25 12.25 12.7051 12.25 14.5C12.25 16.2949 13.7051 17.75 15.5 17.75C17.2949 17.75 18.75 16.2949 18.75 14.5ZM20.25 14.5C20.25 17.1234 18.1234 19.25 15.5 19.25C12.8766 19.25 10.75 17.1234 10.75 14.5C10.75 11.8766 12.8766 9.75 15.5 9.75C18.1234 9.75 20.25 11.8766 20.25 14.5Z" fill="#17191A"/>
</svg>
