<svg width="24" height="24" viewBox="0 0 24 24" fill="none" xmlns="http://www.w3.org/2000/svg">
<path fill-rule="evenodd" clip-rule="evenodd" d="M7.98394 16.7511C7.44033 16.7394 6.92641 16.9964 6.60959 17.4383C6.00754 18.278 5.03248 18.7684 4.00006 18.7514C2.96764 18.7684 1.99257 18.278 1.39053 17.4383C1.14918 17.1017 1.22642 16.6331 1.56305 16.3918C1.89969 16.1504 2.36824 16.2277 2.60959 16.5643C2.92641 17.0062 3.44033 17.2632 3.98394 17.2515C3.99468 17.2512 4.00543 17.2512 4.01617 17.2515C4.55979 17.2632 5.0737 17.0062 5.39053 16.5643C5.99257 15.7246 6.96764 15.2343 8.00006 15.2512C9.03248 15.2343 10.0075 15.7246 10.6096 16.5643C10.9264 17.0062 11.4403 17.2632 11.9839 17.2515C11.9947 17.2512 12.0054 17.2512 12.0162 17.2515C12.5598 17.2632 13.0737 17.0062 13.3905 16.5643C13.9926 15.7246 14.9676 15.2343 16.0001 15.2512C17.0325 15.2343 18.0075 15.7246 18.6096 16.5643C18.9264 17.0062 19.4403 17.2632 19.9839 17.2515C19.9947 17.2512 20.0054 17.2512 20.0162 17.2515C20.5598 17.2632 21.0737 17.0062 21.3905 16.5643C21.6319 16.2277 22.1004 16.1504 22.4371 16.3918C22.7737 16.6331 22.8509 17.1017 22.6096 17.4383C22.0075 18.278 21.0325 18.7684 20.0001 18.7514C18.9676 18.7684 17.9926 18.278 17.3905 17.4383C17.0737 16.9964 16.5598 16.7394 16.0162 16.7511C16.0054 16.7514 15.9947 16.7514 15.9839 16.7511C15.4403 16.7394 14.9264 16.9964 14.6096 17.4383C14.0075 18.278 13.0325 18.7684 12.0001 18.7514C10.9676 18.7684 9.99257 18.278 9.39053 17.4383C9.0737 16.9964 8.55979 16.7394 8.01617 16.7511C8.00543 16.7514 7.99468 16.7514 7.98394 16.7511Z" fill="#17191A"/>
<path fill-rule="evenodd" clip-rule="evenodd" d="M3.25006 6.5103C3.25006 5.01174 4.51815 3.8623 6.00006 3.8623C7.48196 3.8623 8.75006 5.01174 8.75006 6.5103V16.0003C8.75006 16.4145 8.41427 16.7503 8.00006 16.7503C7.58584 16.7503 7.25006 16.4145 7.25006 16.0003V6.5103C7.25006 5.91287 6.72815 5.3623 6.00006 5.3623C5.27196 5.3623 4.75006 5.91287 4.75006 6.5103C4.75006 6.92452 4.41427 7.2603 4.00006 7.2603C3.58584 7.2603 3.25006 6.92452 3.25006 6.5103Z" fill="#17191A"/>
<path fill-rule="evenodd" clip-rule="evenodd" d="M7.25006 9.0003C7.25006 8.58609 7.58584 8.2503 8.00006 8.2503H16.0001C16.4143 8.2503 16.7501 8.58609 16.7501 9.0003C16.7501 9.41452 16.4143 9.7503 16.0001 9.7503H8.00006C7.58584 9.7503 7.25006 9.41452 7.25006 9.0003Z" fill="#17191A"/>
<path fill-rule="evenodd" clip-rule="evenodd" d="M7.25006 13.0003C7.25006 12.5861 7.58584 12.2503 8.00006 12.2503H16.0001C16.4143 12.2503 16.7501 12.5861 16.7501 13.0003C16.7501 13.4145 16.4143 13.7503 16.0001 13.7503H8.00006C7.58584 13.7503 7.25006 13.4145 7.25006 13.0003Z" fill="#17191A"/>
<path fill-rule="evenodd" clip-rule="evenodd" d="M11.2501 6.5103C11.2501 5.01174 12.5182 3.8623 14.0001 3.8623C15.482 3.8623 16.7501 5.01174 16.7501 6.5103V16.0003C16.7501 16.4145 16.4143 16.7503 16.0001 16.7503C15.5858 16.7503 15.2501 16.4145 15.2501 16.0003V6.5103C15.2501 5.91287 14.7282 5.3623 14.0001 5.3623C13.272 5.3623 12.7501 5.91287 12.7501 6.5103C12.7501 6.92452 12.4143 7.2603 12.0001 7.2603C11.5858 7.2603 11.2501 6.92452 11.2501 6.5103Z" fill="#17191A"/>
</svg>
