<svg width="24" height="24" viewBox="0 0 24 24" fill="none" xmlns="http://www.w3.org/2000/svg">
<path d="M22.5839 16.1883C22.1349 15.8653 21.5099 15.9673 21.1879 16.4173C20.9239 16.7843 20.5009 17.0013 20.0109 17.0013C19.9899 17.0013 19.9669 17.0013 19.9489 17.0013C19.4989 17.0013 19.0749 16.7843 18.8119 16.4173C18.3599 15.7873 17.7109 15.3533 16.9999 15.1443V6.5103C16.9999 4.9123 15.6539 3.6123 13.9999 3.6123C12.3459 3.6123 10.9999 4.9123 10.9999 6.5103C10.9999 7.0623 11.4479 7.5103 11.9999 7.5103C12.5519 7.5103 12.9999 7.0623 12.9999 6.5103C12.9999 6.01531 13.4479 5.6123 13.9999 5.6123C14.5519 5.6123 14.9999 6.01531 14.9999 6.5103V8.0003H8.99985V6.5103C8.99985 4.9123 7.65385 3.6123 5.99985 3.6123C4.34585 3.6123 2.99985 4.9123 2.99985 6.5103C2.99985 7.0623 3.44785 7.5103 3.99985 7.5103C4.55185 7.5103 4.99985 7.0623 4.99985 6.5103C4.99985 6.01531 5.44885 5.6123 5.99985 5.6123C6.55085 5.6123 6.99985 6.01531 6.99985 6.5103V15.1723C6.28385 15.3843 5.63385 15.7953 5.18785 16.4183C4.91885 16.7933 4.46085 16.9963 3.97985 17.0013C3.50785 16.9983 3.08185 16.7933 2.81285 16.4183C2.49085 15.9693 1.86585 15.8653 1.41685 16.1893C0.967853 16.5113 0.865853 17.1353 1.18785 17.5853C1.84085 18.4963 2.91385 19.0183 3.97985 19.0023C5.11185 19.0093 6.15985 18.4963 6.81285 17.5853C7.08185 17.2093 7.50985 16.9973 8.02085 17.0023C8.47885 16.9993 8.91785 17.2103 9.18785 17.5853C9.84085 18.4963 10.8959 19.0183 11.9799 19.0023C13.0909 18.9983 14.1589 18.4963 14.8129 17.5853C15.0829 17.2113 15.5259 17.0013 16.0209 17.0023C16.5099 16.9943 16.9189 17.2093 17.1879 17.5853C17.8279 18.4773 18.8549 19.0033 19.9109 19.0033H20.0519C21.1459 19.0033 22.1739 18.4773 22.8139 17.5853C23.1359 17.1363 23.0329 16.5123 22.5849 16.1893L22.5839 16.1883ZM15.0009 10.0003V12.0003H9.00085V10.0003H15.0009ZM13.1889 16.4183C12.9189 16.7933 12.4699 16.9963 11.9809 17.0013C11.5209 16.9983 11.0839 16.7933 10.8139 16.4183C10.3629 15.7883 9.71385 15.3683 9.00185 15.1593V14.0003H15.0019V15.1513C14.2829 15.3623 13.6379 15.7933 13.1899 16.4183H13.1889Z" fill="#17191A"/>
</svg>
