<svg width="24" height="24" viewBox="0 0 24 24" fill="none" xmlns="http://www.w3.org/2000/svg">
<path d="M17 10C17.5523 10 18 9.55228 18 9C18 8.44772 17.5523 8 17 8C16.4477 8 16 8.44772 16 9C16 9.55228 16.4477 10 17 10Z" fill="#17191A"/>
<path fill-rule="evenodd" clip-rule="evenodd" d="M5 5.75C4.31421 5.75 3.75 6.31421 3.75 7V14C3.75 14.6858 4.31421 15.25 5 15.25H6V16.75H5C3.48579 16.75 2.25 15.5142 2.25 14V7C2.25 5.48579 3.48579 4.25 5 4.25H19C20.5142 4.25 21.75 5.48579 21.75 7V14C21.75 15.5142 20.5142 16.75 19 16.75H18V15.25H19C19.6858 15.25 20.25 14.6858 20.25 14V7C20.25 6.31421 19.6858 5.75 19 5.75H5Z" fill="#17191A"/>
<path fill-rule="evenodd" clip-rule="evenodd" d="M9 2.75C8.31421 2.75 7.75 3.31421 7.75 4V4.25H16.25V4C16.25 3.31421 15.6858 2.75 15 2.75H9ZM6.25 4C6.25 2.48579 7.48579 1.25 9 1.25H15C16.5142 1.25 17.75 2.48579 17.75 4V5.75H6.25V4Z" fill="#17191A"/>
<path fill-rule="evenodd" clip-rule="evenodd" d="M5.25 13.25H18.75V20.75H5.25V13.25ZM6.75 14.75V19.25H17.25V14.75H6.75Z" fill="#17191A"/>
</svg>
