<svg width="24" height="24" viewBox="0 0 24 24" fill="none" xmlns="http://www.w3.org/2000/svg">
<path d="M17 12.6504C17.2884 12.6504 17.551 12.8161 17.6758 13.0762L18.7021 15.2139L21.1064 15.5576C21.3875 15.5979 21.6221 15.7941 21.7119 16.0635C21.8014 16.3328 21.731 16.6304 21.5303 16.8311L19.8066 18.5537L20.2383 20.9688C20.2883 21.2499 20.1744 21.5359 19.9443 21.7051C19.7142 21.8741 19.4077 21.8972 19.1543 21.7656L17 20.6455L14.8457 21.7656C14.5923 21.8972 14.2858 21.8741 14.0557 21.7051C13.8256 21.5359 13.7117 21.2499 13.7617 20.9688L14.1924 18.5537L12.4697 16.8311C12.269 16.6304 12.1986 16.3328 12.2881 16.0635C12.3779 15.7941 12.6125 15.5979 12.8936 15.5576L15.2969 15.2139L16.3242 13.0762L16.377 12.9824C16.5149 12.7768 16.7478 12.6504 17 12.6504ZM7.75 4.25H16.25V2H17.75V4.25H20C20.9642 4.25 21.75 5.03579 21.75 6V13H20.25V11.75H3.75V20C3.75 20.1358 3.86421 20.25 4 20.25H12V21.75H4C3.03579 21.75 2.25 20.9642 2.25 20V6C2.25 5.03579 3.03579 4.25 4 4.25H6.25V2H7.75V4.25ZM16.4766 16.2246C16.3682 16.4501 16.1539 16.6071 15.9062 16.6426L14.5898 16.8301L15.5303 17.7705C15.7034 17.9439 15.7814 18.1913 15.7383 18.4326L15.5059 19.7314L16.6543 19.1348L16.7373 19.0977C16.9348 19.0238 17.1561 19.0363 17.3457 19.1348L18.4932 19.7314L18.2617 18.4326C18.2186 18.1913 18.2966 17.9439 18.4697 17.7705L19.4092 16.8301L18.0938 16.6426C17.8461 16.6071 17.6318 16.4501 17.5234 16.2246L17 15.1328L16.4766 16.2246ZM4 5.75C3.86421 5.75 3.75 5.86421 3.75 6V10.25H20.25V6C20.25 5.86421 20.1358 5.75 20 5.75H17.75V8H16.25V5.75H7.75V8H6.25V5.75H4Z" fill="#17191A"/>
</svg>
