<svg width="24" height="24" viewBox="0 0 24 24" fill="none" xmlns="http://www.w3.org/2000/svg">
<path d="M20 4H18V2H16V4H8V2H6V4H4C2.9 4 2 4.9 2 6V20C2 21.1 2.9 22 4 22H12V20H4V12H20V13H22V6C22 4.9 21.1 4 20 4ZM4 10V6H6V8H8V6H16V8H18V6H20V10H4Z" fill="#17191A"/>
<path d="M21.14 15.3099L18.87 14.9899L17.9 12.9699C17.73 12.6199 17.38 12.3999 17 12.3999C16.62 12.3999 16.26 12.6199 16.1 12.9699L15.13 14.9899L12.86 15.3099C12.48 15.3599 12.17 15.6199 12.05 15.9799C11.93 16.3399 12.02 16.7399 12.29 16.9999L13.92 18.6299L13.51 20.9199C13.44 21.2999 13.59 21.6799 13.9 21.8999C14.21 22.1299 14.62 22.1599 14.95 21.9799L16.99 20.9199L19.03 21.9799C19.17 22.0599 19.33 22.0899 19.49 22.0899C19.7 22.0899 19.91 22.0199 20.08 21.8999C20.39 21.6699 20.54 21.2899 20.47 20.9199L20.06 18.6299L21.69 16.9999C21.96 16.7299 22.05 16.3399 21.93 15.9799C21.81 15.6199 21.5 15.3599 21.12 15.3099H21.14Z" fill="#17191A"/>
</svg>
