<svg width="24" height="24" viewBox="0 0 24 24" fill="none" xmlns="http://www.w3.org/2000/svg">
<path fill-rule="evenodd" clip-rule="evenodd" d="M6.87467 14.6606C7.28306 14.5913 7.67023 14.8663 7.73945 15.2747L8.73945 21.1747C8.80867 21.5831 8.53372 21.9703 8.12533 22.0395C7.71694 22.1087 7.32976 21.8337 7.26054 21.4254L6.26054 15.5254C6.19132 15.117 6.46628 14.7298 6.87467 14.6606Z" fill="#17191A"/>
<path fill-rule="evenodd" clip-rule="evenodd" d="M11.0726 15.4607C11.4808 15.3904 11.8687 15.6642 11.9391 16.0724L12.9391 21.8724C13.0095 22.2806 12.7356 22.6685 12.3274 22.7389C11.9193 22.8093 11.5313 22.5354 11.4609 22.1273L10.4609 16.3273C10.3905 15.9191 10.6644 15.5311 11.0726 15.4607Z" fill="#17191A"/>
<path fill-rule="evenodd" clip-rule="evenodd" d="M15.1747 14.6606C15.583 14.5913 15.9702 14.8663 16.0394 15.2747L17.0394 21.1747C17.1087 21.5831 16.8337 21.9703 16.4253 22.0395C16.0169 22.1087 15.6297 21.8337 15.5605 21.4254L14.5605 15.5254C14.4913 15.117 14.7663 14.7298 15.1747 14.6606Z" fill="#17191A"/>
<path fill-rule="evenodd" clip-rule="evenodd" d="M11 3.75C8.11421 3.75 5.75 6.11421 5.75 9V9.8874L5.3046 10.0854C4.44298 10.4683 3.83435 10.8542 3.425 11.4C3.0253 11.9329 2.75 12.7086 2.75 14C2.75 16.3858 4.61421 18.25 7 18.25V19.75C3.78579 19.75 1.25 17.2142 1.25 14C1.25 12.4914 1.5747 11.3671 2.225 10.5C2.76339 9.78215 3.47883 9.3045 4.25044 8.92277C4.29217 5.2438 7.31156 2.25 11 2.25C12.8835 2.25 14.4382 3.08037 15.5612 4.17558C16.5015 5.09274 17.1697 6.224 17.4937 7.28495C18.6587 7.42277 19.71 7.9598 20.506 8.74551C21.8467 9.87469 22.75 11.5697 22.75 13.5C22.75 17.0231 19.9053 19.75 16.5 19.75V18.25C19.0947 18.25 21.25 16.1769 21.25 13.5C21.25 12.0427 20.5649 10.7471 19.5199 9.87617L19.4937 9.85439L19.4697 9.83033C18.8009 9.16151 17.8881 8.75 16.9 8.75H16.2794L16.1632 8.14033C15.9944 7.25398 15.426 6.1391 14.5138 5.24942C13.6118 4.36963 12.4165 3.75 11 3.75Z" fill="#17191A"/>
</svg>
