<svg width="24" height="24" viewBox="0 0 24 24" fill="none" xmlns="http://www.w3.org/2000/svg">
<path fill-rule="evenodd" clip-rule="evenodd" d="M3.25 4.8C3.25 3.38579 4.38579 2.25 5.8 2.25H18.4C19.8142 2.25 20.95 3.38579 20.95 4.8V21C20.95 21.2766 20.7978 21.5307 20.5539 21.6613C20.31 21.7918 20.0141 21.7775 19.784 21.624L17.5 20.1014L15.216 21.624C14.9528 21.7995 14.6078 21.791 14.3536 21.6027L12.1 19.9334L9.84642 21.6027C9.59222 21.791 9.24719 21.7995 8.98397 21.624L6.7 20.1014L4.41603 21.624C4.18588 21.7775 3.88997 21.7918 3.64611 21.6613C3.40224 21.5307 3.25 21.2766 3.25 21V4.8ZM5.8 3.75C5.21421 3.75 4.75 4.21421 4.75 4.8V19.5986L6.28397 18.576C6.5359 18.408 6.8641 18.408 7.11602 18.576L9.37729 20.0835L11.6536 18.3973C11.9188 18.2009 12.2812 18.2009 12.5464 18.3973L14.8227 20.0835L17.084 18.576C17.3359 18.408 17.6641 18.408 17.916 18.576L19.45 19.5986V4.8C19.45 4.21421 18.9858 3.75 18.4 3.75H5.8Z" fill="#17191A"/>
<path fill-rule="evenodd" clip-rule="evenodd" d="M17 7.75H7V6.25H17V7.75Z" fill="#17191A"/>
<path fill-rule="evenodd" clip-rule="evenodd" d="M17 11.75H7V10.25H17V11.75Z" fill="#17191A"/>
<path fill-rule="evenodd" clip-rule="evenodd" d="M12 15.75H7V14.25H12V15.75Z" fill="#17191A"/>
</svg>
