<svg width="24" height="24" viewBox="0 0 24 24" fill="none" xmlns="http://www.w3.org/2000/svg">
<path d="M18.4 2H5.8C4.256 2 3 3.256 3 4.8V21C3 21.369 3.203 21.708 3.528 21.882C3.851 22.055 4.246 22.036 4.554 21.832L6.7 20.402L8.845 21.832C9.013 21.944 9.206 22 9.4 22C9.609 22 9.819 21.935 9.995 21.804L12.1 20.244L14.204 21.804C14.544 22.055 15.004 22.067 15.354 21.832L17.5 20.402L19.646 21.832C19.952 22.036 20.348 22.056 20.672 21.882C20.997 21.708 21.2 21.369 21.2 21V4.8C21.2 3.256 19.944 2 18.4 2ZM12 16H7V14H12V16ZM17 12H7V10H17V12ZM17 8H7V6H17V8Z" fill="#17191A"/>
</svg>
