<svg width="24" height="24" viewBox="0 0 24 24" fill="none" xmlns="http://www.w3.org/2000/svg">
<path fill-rule="evenodd" clip-rule="evenodd" d="M20 8V2.75H21.5V9.5H15.75V8H20Z" fill="#17191A"/>
<path fill-rule="evenodd" clip-rule="evenodd" d="M11.75 3.5C7.19321 3.5 3.5 7.19321 3.5 11.75C3.5 16.3068 7.19321 20 11.75 20C16.3068 20 20 16.3068 20 11.75H21.5C21.5 17.1352 17.1352 21.5 11.75 21.5C6.36479 21.5 2 17.1352 2 11.75C2 6.36479 6.36479 2 11.75 2C15.4948 2 18.7452 4.1118 20.3778 7.20508C20.4017 7.23239 20.4336 7.26829 20.4721 7.31146C20.5609 7.41098 20.6773 7.54003 20.7963 7.67202L20.8073 7.68421C20.9292 7.81934 21.0531 7.95673 21.1478 8.06302C21.1949 8.11586 21.2371 8.16358 21.2691 8.20055C21.2847 8.21855 21.301 8.23769 21.3154 8.25519C21.3222 8.26352 21.3325 8.27614 21.3433 8.29052C21.3487 8.29761 21.3574 8.30933 21.3674 8.32386C21.3737 8.33318 21.3974 8.36781 21.4208 8.41459L20.0792 9.08541C20.1017 9.13038 20.1238 9.16273 20.129 9.17029C20.1374 9.18255 20.1444 9.19198 20.1474 9.19586C20.1534 9.20383 20.157 9.2082 20.1557 9.20658C20.1537 9.20416 20.1473 9.19655 20.1347 9.18193C20.1102 9.15366 20.0741 9.11268 20.0281 9.06116C19.9369 8.95877 19.8162 8.82491 19.6934 8.68879L19.6805 8.67442C19.5629 8.54406 19.4444 8.4127 19.3531 8.31035C19.306 8.25758 19.2639 8.21007 19.232 8.17338C19.2165 8.15549 19.2004 8.13672 19.1863 8.11971C19.1796 8.11159 19.1698 8.09954 19.1594 8.08593C19.1542 8.07922 19.146 8.06824 19.1365 8.0547C19.1304 8.04598 19.1082 8.01405 19.0856 7.97101L19.0838 7.9674C17.7114 5.31269 14.9416 3.5 11.75 3.5Z" fill="#17191A"/>
</svg>
