<svg width="24" height="24" viewBox="0 0 24 24" fill="none" xmlns="http://www.w3.org/2000/svg">
<path fill-rule="evenodd" clip-rule="evenodd" d="M20.25 8.25V3H21.75V9.75H16V8.25H20.25Z" fill="#17191A"/>
<path fill-rule="evenodd" clip-rule="evenodd" d="M12 3.75C7.44321 3.75 3.75 7.44321 3.75 12H2.25C2.25 6.61479 6.61479 2.25 12 2.25C15.7448 2.25 18.9952 4.3618 20.6278 7.45508C20.6517 7.48239 20.6836 7.51829 20.7221 7.56146C20.8109 7.66098 20.9273 7.79003 21.0463 7.92202L21.0573 7.93421C21.1792 8.06934 21.3031 8.20673 21.3978 8.31302C21.4449 8.36586 21.4871 8.41358 21.5191 8.45055C21.5347 8.46855 21.551 8.48769 21.5654 8.50519C21.5722 8.51352 21.5825 8.52614 21.5933 8.54052C21.5987 8.54761 21.6074 8.55933 21.6174 8.57386C21.6237 8.58318 21.6474 8.61781 21.6708 8.66459L20.3292 9.33541C20.3517 9.38038 20.3738 9.41273 20.379 9.42029C20.3874 9.43255 20.3944 9.44198 20.3974 9.44586C20.4034 9.45383 20.407 9.4582 20.4057 9.45658C20.4037 9.45416 20.3973 9.44655 20.3847 9.43193C20.3602 9.40366 20.3241 9.36268 20.2781 9.31116C20.1869 9.20877 20.0662 9.07491 19.9434 8.93879L19.9305 8.92442C19.8129 8.79406 19.6944 8.6627 19.6031 8.56035C19.556 8.50758 19.5139 8.46007 19.482 8.42338C19.4665 8.40549 19.4504 8.38672 19.4363 8.36971C19.4296 8.36159 19.4198 8.34954 19.4094 8.33593C19.4042 8.32922 19.396 8.31824 19.3865 8.3047C19.3804 8.29598 19.3582 8.26405 19.3356 8.22101L19.3338 8.2174C17.9614 5.56269 15.1916 3.75 12 3.75Z" fill="#17191A"/>
<path fill-rule="evenodd" clip-rule="evenodd" d="M12 20.25C16.5568 20.25 20.25 16.5568 20.25 12H21.75C21.75 17.3852 17.3852 21.75 12 21.75C7.75322 21.75 4.14347 19.0362 2.80487 15.25L4.21909 14.75C5.35249 17.9558 8.40873 20.25 12 20.25Z" fill="#17191A"/>
<path fill-rule="evenodd" clip-rule="evenodd" d="M2.25 14.25H8V15.75H3.75V21H2.25V14.25Z" fill="#17191A"/>
</svg>
