<svg width="24" height="24" viewBox="0 0 24 24" fill="none" xmlns="http://www.w3.org/2000/svg">
<path d="M5.40002 9C5.40002 8.4 5.60002 7.9 6.10002 7.3C6.70002 6.8 7.30002 6.6 7.90002 6.6H18.1L15.7 9L17.1 10.4L21.8 5.7L17.1 1L15.7 2.4L17.9 4.6H7.90002C6.80002 4.6 5.70002 5 4.70002 5.8H4.60002C3.80002 6.9 3.40002 7.9 3.40002 9V10.7H5.40002V9Z" fill="#17191A"/>
<path d="M19.4 14.4C19.4 15 19.2 15.5 18.7 16.1C18.2 16.6 17.5 16.8 16.9 16.8H6.7L9.1 14.4L7.7 13L3 17.7L7.7 22.4L9.1 21L6.9 18.8H16.9C18 18.8 19.1 18.4 20.1 17.6H20.2C21 16.5 21.4 15.5 21.4 14.4V12.7H19.4V14.4Z" fill="#17191A"/>
</svg>
