<svg width="24" height="24" viewBox="0 0 24 24" fill="none" xmlns="http://www.w3.org/2000/svg">
<path fill-rule="evenodd" clip-rule="evenodd" d="M19.0001 5.53033L15.5304 2.06066L16.5911 1L21.1214 5.53033L16.5911 10.0607L15.5304 9L19.0001 5.53033Z" fill="#17191A"/>
<path fill-rule="evenodd" clip-rule="evenodd" d="M5.59239 6.96297C6.17925 6.47503 6.89313 6.18036 7.56067 6.18036H19.9607V4.68036H7.56067C6.44484 4.68036 5.37769 5.17082 4.57258 5.86092L4.52877 5.89846L4.49123 5.94227C3.81817 6.7275 3.31067 7.69428 3.31067 8.83036V10.5304H4.81067V8.83036C4.81067 8.18245 5.08923 7.56378 5.59239 6.96297Z" fill="#17191A"/>
<path fill-rule="evenodd" clip-rule="evenodd" d="M5.12132 17.5303L8.59099 14.0607L7.53033 13L3 17.5303L7.53033 22.0607L8.59099 21L5.12132 17.5303Z" fill="#17191A"/>
<path fill-rule="evenodd" clip-rule="evenodd" d="M19.3107 14.2303V12.5303H20.8107V14.2303C20.8107 15.3664 20.3032 16.3332 19.6301 17.1184L19.5926 17.1622L19.5488 17.1998C18.7436 17.8899 17.6765 18.3803 16.5607 18.3803H4.06067V16.8803H16.5607C17.2282 16.8803 17.9421 16.5857 18.5289 16.0977C19.0321 15.4969 19.3107 14.8782 19.3107 14.2303Z" fill="#17191A"/>
</svg>
