<svg width="24" height="24" viewBox="0 0 24 24" fill="none" xmlns="http://www.w3.org/2000/svg">
<path fill-rule="evenodd" clip-rule="evenodd" d="M10.3099 3.31704C10.5779 3.43864 10.75 3.70573 10.75 4.00001V7.3594C13.8043 7.8648 16.4981 8.64682 18.4588 10.3019C20.6032 12.1121 21.75 14.8551 21.75 19C21.75 19.3228 21.5434 19.6094 21.2372 19.7115C20.9309 19.8136 20.5937 19.7083 20.4 19.45C18.9685 17.5414 17.4709 16.3837 15.8115 15.6923C14.329 15.0746 12.6755 14.8114 10.75 14.7597V18C10.75 18.2943 10.5779 18.5614 10.3099 18.683C10.0419 18.8046 9.72759 18.7582 9.50612 18.5644L1.50612 11.5644C1.34336 11.422 1.25 11.2163 1.25 11C1.25 10.7837 1.34336 10.578 1.50612 10.4356L9.50612 3.43558C9.72759 3.24179 10.0419 3.19543 10.3099 3.31704ZM3.13894 11L9.25 16.3472V14C9.25 13.5858 9.58579 13.25 10 13.25C12.3489 13.25 14.46 13.5042 16.3885 14.3077C17.7364 14.8693 18.9694 15.6885 20.1224 16.8373C19.7941 14.2596 18.8495 12.5948 17.4912 11.4481C15.7372 9.96747 13.1711 9.23904 9.88765 8.74155C9.521 8.686 9.25 8.37084 9.25 8.00001V5.65284L3.13894 11Z" fill="#17191A"/>
</svg>
