<svg width="24" height="24" viewBox="0 0 24 24" fill="none" xmlns="http://www.w3.org/2000/svg">
<path d="M11 7.14724V4.00024C11 3.60724 10.771 3.25124 10.413 3.08924C10.056 2.92724 9.637 2.98924 9.341 3.24724L1.341 10.2482C1.124 10.4382 1 10.7122 1 11.0002C1 11.2882 1.125 11.5622 1.341 11.7522L9.341 18.7522C9.637 19.0102 10.055 19.0722 10.413 18.9092C10.77 18.7472 11 18.3912 11 17.9992V15.0162C14.681 15.1452 17.562 16.0812 20.2 19.5992C20.392 19.8562 20.691 19.9992 21 19.9992C21.105 19.9992 21.212 19.9822 21.316 19.9472C21.724 19.8112 22 19.4292 22 18.9992C22 10.0582 16.472 8.06824 11 7.14724Z" fill="#17191A"/>
</svg>
