<svg width="24" height="24" viewBox="0 0 24 24" fill="none" xmlns="http://www.w3.org/2000/svg">
<path fill-rule="evenodd" clip-rule="evenodd" d="M4.12132 7.53033L7.59099 4.06066L6.53033 3L2 7.53033L6.53033 12.0607L7.59099 11L4.12132 7.53033Z" fill="#17191A"/>
<path fill-rule="evenodd" clip-rule="evenodd" d="M3.31067 15.2803H2.06067V13.7803H4.81067V21.5303H3.31067V15.2803Z" fill="#17191A"/>
<path fill-rule="evenodd" clip-rule="evenodd" d="M6.97028 14.4381C7.39231 14.0175 7.96345 13.7803 8.56067 13.7803C9.15713 13.7803 9.73002 14.017 10.152 14.439L10.1529 14.4399C10.5735 14.862 10.8107 15.4331 10.8107 16.0303V19.0303C10.8107 19.6268 10.574 20.1997 10.152 20.6217L10.1511 20.6226C9.72903 21.0431 9.15789 21.2803 8.56067 21.2803C7.96421 21.2803 7.39131 21.0436 6.96934 20.6217L6.9684 20.6207C6.54787 20.1987 6.31067 19.6276 6.31067 19.0303V16.0303C6.31067 15.4339 6.54737 14.861 6.96934 14.439L6.97028 14.4381ZM8.02953 15.5001C7.8898 15.6401 7.81067 15.831 7.81067 16.0303V19.0303C7.81067 19.2289 7.8893 19.4196 8.03049 19.5615C8.17047 19.7012 8.36136 19.7803 8.56067 19.7803C8.75923 19.7803 8.94989 19.7017 9.09181 19.5605C9.23154 19.4206 9.31067 19.2297 9.31067 19.0303V16.0303C9.31067 15.8318 9.23205 15.6411 9.09089 15.4992C8.9509 15.3595 8.76 15.2803 8.56067 15.2803C8.36211 15.2803 8.17145 15.359 8.02953 15.5001Z" fill="#17191A"/>
<path fill-rule="evenodd" clip-rule="evenodd" d="M3.06067 6.78033H15.0627C16.7531 6.78484 18.3811 7.42256 19.6234 8.56921C20.865 9.71525 21.6334 11.2855 21.7741 12.9699C21.9147 14.654 21.4186 16.3301 20.3836 17.6665C19.343 19.0103 17.3255 20.2803 15.0607 20.2803H13.0607V18.7803H15.0607C16.7958 18.7803 18.3983 17.7803 19.1977 16.7481C20.0027 15.7086 20.3886 14.4047 20.2793 13.0947C20.1699 11.7852 19.5723 10.5634 18.606 9.67146C17.6405 8.78033 16.3748 8.28408 15.0596 8.28033H3.06067V6.78033Z" fill="#17191A"/>
</svg>
