<svg width="24" height="24" viewBox="0 0 24 24" fill="none" xmlns="http://www.w3.org/2000/svg">
<path d="M17.7071 10.707L22.4141 5.99997L17.7071 1.29297L16.2931 2.70697L18.5861 4.99997H8.9981C7.2391 5.00397 5.5591 5.66397 4.2681 6.85497C2.9761 8.04697 2.1841 9.66797 2.0381 11.419C1.8921 13.171 2.4041 14.9 3.4791 16.289C4.4471 17.539 6.4741 19 9.0001 19H11.0001V17H9.0001C7.3131 17 5.8071 16.028 5.0611 15.064C4.2921 14.072 3.9271 12.836 4.0311 11.585C4.1351 10.335 4.7011 9.17697 5.6241 8.32497C6.5461 7.47397 7.7461 7.00397 9.0001 6.99997H18.5861L16.2931 9.29297L17.7071 10.707Z" fill="#17191A"/>
<path d="M13.0001 14H14.0001V20H16.0001V12H13.0001V14Z" fill="#17191A"/>
<path d="M17.7331 12.731C17.2671 13.195 17.0001 13.841 17.0001 14.5V17.5C17.0001 18.168 17.2601 18.795 17.7311 19.267C18.1951 19.733 18.8401 20 19.5001 20C20.1681 20 20.7951 19.74 21.2671 19.269C21.7331 18.805 22.0001 18.16 22.0001 17.5V14.5C22.0001 13.832 21.7401 13.205 21.2691 12.733C20.3341 11.795 18.6691 11.795 17.7331 12.731ZM20.0001 17.5C20.0001 17.632 19.9471 17.76 19.8541 17.854C19.6661 18.042 19.3361 18.042 19.1471 17.854C19.0521 17.759 19.0011 17.634 19.0011 17.5V14.5C19.0011 14.368 19.0541 14.24 19.1471 14.146C19.2421 14.051 19.3671 14 19.5011 14C19.6331 14 19.7611 14.053 19.8551 14.146C19.9501 14.241 20.0011 14.366 20.0011 14.5L20.0001 17.5Z" fill="#17191A"/>
</svg>
