<svg width="24" height="24" viewBox="0 0 24 24" fill="none" xmlns="http://www.w3.org/2000/svg">
<path d="M1.99988 14H2.99988V20H4.99988V12H1.99988V14Z" fill="#17191A"/>
<path d="M6.73188 12.732C6.26688 13.196 5.99988 13.841 5.99988 14.5V17.5C5.99988 18.167 6.25988 18.795 6.73188 19.268C7.19688 19.734 7.84188 20 8.49988 20C9.16688 20 9.79388 19.74 10.2679 19.269C10.7329 18.804 10.9999 18.16 10.9999 17.5V14.5C10.9999 13.833 10.7399 13.205 10.2679 12.732C9.33188 11.796 7.67388 11.794 6.73188 12.732ZM8.99988 17.5C8.99988 17.632 8.94688 17.761 8.85488 17.853C8.66488 18.041 8.33288 18.041 8.14688 17.855C8.05288 17.76 8.00088 17.634 8.00088 17.501V14.501C8.00088 14.369 8.05388 14.24 8.14588 14.148C8.24188 14.053 8.36788 14.001 8.50088 14.001C8.63288 14.001 8.76188 14.055 8.85488 14.147C8.94888 14.242 9.00088 14.368 9.00088 14.501V17.501L8.99988 17.5Z" fill="#17191A"/>
<path d="M21.9619 11.419C21.8159 9.66797 21.0239 8.04697 19.7329 6.85497C18.4419 5.66397 16.7619 5.00397 15.0009 4.99997H5.41394L7.70694 2.70697L6.29294 1.29297L1.58594 5.99997L6.29294 10.707L7.70694 9.29297L5.41394 6.99997H14.9969C16.2539 7.00297 17.4539 7.47397 18.3759 8.32497C19.2989 9.17697 19.8649 10.335 19.9699 11.585C20.0739 12.837 19.7079 14.072 18.9409 15.064C18.1939 16.027 16.6859 17 15.0009 17H13.0009V19H15.0009C17.5249 19 19.5529 17.54 20.5219 16.289C21.5969 14.9 22.1089 13.171 21.9619 11.419Z" fill="#17191A"/>
</svg>
