<svg width="24" height="24" viewBox="0 0 24 24" fill="none" xmlns="http://www.w3.org/2000/svg">
<path fill-rule="evenodd" clip-rule="evenodd" d="M19.6762 7.53033L16.2065 4.06066L17.2672 3L21.7975 7.53033L17.2672 12.0607L16.2065 11L19.6762 7.53033Z" fill="#17191A"/>
<path fill-rule="evenodd" clip-rule="evenodd" d="M13.9868 15.2803H12.7368V13.7803H15.4868V21.5303H13.9868V15.2803Z" fill="#17191A"/>
<path fill-rule="evenodd" clip-rule="evenodd" d="M17.6464 14.4381C18.0685 14.0175 18.6396 13.7803 19.2368 13.7803C19.8333 13.7803 20.4062 14.017 20.8281 14.439L20.8291 14.4399C21.2496 14.862 21.4868 15.4331 21.4868 16.0303V19.0303C21.4868 19.6268 21.2501 20.1997 20.8281 20.6217L20.8272 20.6226C20.4052 21.0431 19.834 21.2803 19.2368 21.2803C18.6404 21.2803 18.0675 21.0436 17.6455 20.6217L17.6445 20.6207C17.224 20.1987 16.9868 19.6276 16.9868 19.0303V16.0303C16.9868 15.4339 17.2235 14.861 17.6455 14.439L17.6464 14.4381ZM18.7057 15.5001C18.5659 15.6401 18.4868 15.831 18.4868 16.0303V19.0303C18.4868 19.2289 18.5655 19.4196 18.7066 19.5615C18.8466 19.7012 19.0375 19.7803 19.2368 19.7803C19.4354 19.7803 19.626 19.7017 19.768 19.5605C19.9077 19.4206 19.9868 19.2297 19.9868 19.0303V16.0303C19.9868 15.8318 19.9082 15.6411 19.767 15.4992C19.6271 15.3595 19.4361 15.2803 19.2368 15.2803C19.0383 15.2803 18.8476 15.359 18.7057 15.5001Z" fill="#17191A"/>
<path fill-rule="evenodd" clip-rule="evenodd" d="M8.73483 6.78034L8.73682 6.78033L20.7368 6.78034V8.28034H8.73785C7.42268 8.28408 6.15698 8.78033 5.19151 9.67146C4.22515 10.5634 3.62757 11.7852 3.51822 13.0947C3.40884 14.4047 3.79475 15.7086 4.5998 16.7481C5.39917 17.7803 7.00168 18.7803 8.73682 18.7803H10.7368V20.2803H8.73682C6.47197 20.2803 4.45448 19.0103 3.41384 17.6665C2.3789 16.3301 1.88281 14.654 2.02343 12.9699C2.16407 11.2855 2.9325 9.71525 4.17414 8.56922C5.41643 7.42257 7.04434 6.78484 8.73483 6.78034Z" fill="#17191A"/>
</svg>
