<svg width="24" height="24" viewBox="0 0 24 24" fill="none" xmlns="http://www.w3.org/2000/svg">
<path d="M22.4489 1.75001C22.4089 1.41001 22.1389 1.15001 21.7989 1.10001C17.3889 0.520011 12.6989 2.49001 9.04891 6.30001C4.53891 5.38001 2.00891 8.60001 1.15891 9.68001C1.01891 9.86001 0.968909 10.09 1.01891 10.31C1.06891 10.53 1.21891 10.72 1.41891 10.82C2.60891 11.4 3.78891 12.08 5.19891 12.92C5.19891 12.92 5.19891 12.92 5.20891 12.93C6.05891 13.45 6.96891 14.03 7.87891 14.65L6.32891 16.2C6.03891 16.49 6.03891 16.97 6.32891 17.26C6.47891 17.41 6.66891 17.48 6.85891 17.48C7.04891 17.48 7.23891 17.41 7.38891 17.26L8.93891 15.71C9.56891 16.66 10.1189 17.51 10.6189 18.33C10.6389 18.37 10.6889 18.39 10.7089 18.42C11.5289 19.8 12.1989 20.95 12.7589 22.12C12.8589 22.33 13.0389 22.47 13.2589 22.53C13.3189 22.54 13.3689 22.55 13.4289 22.55C13.5989 22.55 13.7589 22.5 13.8889 22.39C14.9689 21.54 18.1889 19.02 17.2789 14.5C21.0589 10.85 23.0089 6.15001 22.4389 1.75001H22.4489ZM7.85891 7.65001C7.64891 7.91001 7.43891 8.18001 7.23891 8.45001C6.59891 9.29001 5.97891 10.2 5.34891 11.26C4.51891 10.77 3.70891 10.3 2.93891 9.90001C4.02891 8.69001 5.60891 7.51001 7.86891 7.65001H7.85891ZM11.3889 12.2C11.0989 11.91 10.6189 11.91 10.3289 12.2L8.96891 13.56C8.16891 13.02 7.38891 12.5 6.62891 12.03C7.23891 11.01 7.81891 10.15 8.43891 9.34001C11.7789 4.77001 16.5589 2.19001 21.0189 2.53001C21.3489 7.02001 18.7689 11.81 14.1989 15.15C13.3889 15.74 12.4889 16.34 11.5089 16.92C11.0589 16.21 10.5689 15.45 10.0189 14.63L11.3889 13.26C11.6789 12.97 11.6789 12.49 11.3889 12.2ZM13.6789 20.61C13.2789 19.84 12.8089 19.03 12.2989 18.18C13.2889 17.58 14.2389 16.98 15.0689 16.37C15.3589 16.16 15.6389 15.93 15.9189 15.71C16.0489 17.96 14.8789 19.53 13.6689 20.62L13.6789 20.61Z" fill="#17191A"/>
<path d="M14.8489 11.3999C16.3689 11.3999 17.5989 10.1699 17.5989 8.6499C17.5989 7.1299 16.3689 5.8999 14.8489 5.8999C13.3289 5.8999 12.0989 7.1299 12.0989 8.6499C12.0989 10.1699 13.3289 11.3999 14.8489 11.3999ZM14.8489 7.3999C15.5389 7.3999 16.0989 7.9599 16.0989 8.6499C16.0989 9.3399 15.5389 9.8999 14.8489 9.8999C14.1589 9.8999 13.5989 9.3399 13.5989 8.6499C13.5989 7.9599 14.1589 7.3999 14.8489 7.3999Z" fill="#17191A"/>
<path d="M7.9789 18.42C7.6289 18.2 7.1689 18.31 6.9489 18.66C6.8889 18.75 5.6489 20.66 2.9389 20.66C2.8989 20.66 2.8589 20.66 2.8189 20.66C2.7289 17.87 4.6889 16.56 4.7789 16.51C5.1289 16.29 5.2389 15.83 5.0089 15.47C4.7789 15.11 4.3189 15.02 3.9789 15.24C3.8489 15.32 0.838899 17.27 1.3889 21.46C1.4289 21.8 1.6989 22.07 2.0389 22.11C2.3589 22.15 2.6689 22.17 2.9589 22.17C6.5089 22.17 8.1589 19.57 8.2289 19.46C8.4489 19.11 8.3389 18.65 7.9889 18.43L7.9789 18.42Z" fill="#17191A"/>
</svg>
