<svg width="24" height="24" viewBox="0 0 24 24" fill="none" xmlns="http://www.w3.org/2000/svg">
<path d="M8.32187 18.4357C7.85787 18.1457 7.24087 18.2857 6.94587 18.7477C6.89387 18.8297 5.74887 20.5747 3.27387 20.6347C3.30787 18.1587 5.04087 16.9957 5.11587 16.9467C5.58287 16.6517 5.72287 16.0347 5.42787 15.5677C5.13387 15.1007 4.51587 14.9617 4.04887 15.2557C3.91487 15.3407 0.773868 17.3757 1.33987 21.7167C1.39887 22.1707 1.75787 22.5267 2.21287 22.5807C2.54387 22.6197 2.85987 22.6387 3.16387 22.6387C6.85287 22.6387 8.56787 19.9297 8.64487 19.8047C8.93387 19.3367 8.78887 18.7287 8.32287 18.4367L8.32187 18.4357Z" fill="#17191A"/>
<path d="M22.8979 1.94375C22.8399 1.49375 22.4859 1.13975 22.0369 1.08075C17.5959 0.50175 12.8619 2.45675 9.17187 6.25275C4.59087 5.39075 2.02987 8.65175 1.16687 9.75575C0.980867 9.99375 0.912867 10.3038 0.980867 10.5977C1.04987 10.8927 1.24787 11.1398 1.51987 11.2718C2.70287 11.8428 3.87087 12.5248 5.27287 13.3568C5.27787 13.3608 5.28087 13.3658 5.28687 13.3698C6.05787 13.8438 6.87387 14.3647 7.69587 14.9128L6.35587 16.2528C5.96487 16.6438 5.96487 17.2757 6.35587 17.6667C6.55087 17.8617 6.80687 17.9597 7.06287 17.9597C7.31887 17.9597 7.57487 17.8617 7.76987 17.6667L9.09987 16.3368C9.66287 17.1857 10.1529 17.9508 10.6099 18.6938C10.6529 18.7638 10.7049 18.8247 10.7619 18.8797C11.5469 20.2037 12.1989 21.3298 12.7429 22.4568C12.8739 22.7288 13.1219 22.9277 13.4159 22.9958C13.4909 23.0138 13.5669 23.0217 13.6439 23.0217C13.8649 23.0217 14.0819 22.9487 14.2589 22.8097C15.3629 21.9467 18.6189 19.3888 17.7639 14.8108C21.5389 11.1158 23.4769 6.38975 22.8989 1.94275L22.8979 1.94375ZM5.46187 11.1488C4.80487 10.7638 4.16387 10.3938 3.54387 10.0608C4.79787 8.76075 6.10087 8.12875 7.57287 8.10275C7.46387 8.24475 7.35087 8.38075 7.24487 8.52575C6.63787 9.31475 6.05987 10.1658 5.46187 11.1488ZM13.9549 20.4338C13.6229 19.8148 13.2489 19.1678 12.8529 18.4918C13.7729 17.9318 14.6519 17.3647 15.4339 16.7927C15.5979 16.6727 15.7519 16.5468 15.9109 16.4228C15.8799 17.8878 15.2489 19.1858 13.9549 20.4338ZM15.0579 11.8837C13.4039 11.8837 12.0579 10.5378 12.0579 8.88375C12.0579 7.22975 13.4039 5.88375 15.0579 5.88375C16.7119 5.88375 18.0579 7.22975 18.0579 8.88375C18.0579 10.5378 16.7119 11.8837 15.0579 11.8837Z" fill="#17191A"/>
</svg>
