<svg width="24" height="24" viewBox="0 0 24 24" fill="none" xmlns="http://www.w3.org/2000/svg">
<path d="M19 14H17.006C16.456 14 16.007 13.553 16.006 13.003C16.006 12.735 16.11 12.483 16.298 12.294C16.487 12.105 16.738 12 17.006 12H18C18.145 12 18.281 11.966 18.405 11.911C18.439 11.896 18.465 11.868 18.497 11.849C18.583 11.798 18.665 11.744 18.732 11.671C18.741 11.662 18.754 11.658 18.762 11.648C19.024 11.34 19.285 11.055 19.534 10.784C20.494 9.738 21.4 8.749 21.4 7.43C21.4 5.603 19.811 4 18 4C16.189 4 14.6 5.603 14.6 7.43C14.6 8.521 15.201 9.369 15.937 10.203C15.547 10.352 15.187 10.577 14.882 10.881C14.315 11.45 14.004 12.205 14.006 13.008C14.01 14.657 15.357 15.999 17.006 15.999H19C19.552 15.999 20 16.447 20 16.999C20 17.551 19.552 17.999 19 17.999H11C10.448 17.999 10 18.446 10 18.999C10 19.552 10.448 19.999 11 19.999H19C20.654 19.999 22 18.653 22 16.999C22 15.345 20.654 13.999 19 13.999V14ZM18 6C18.775 6 19.4 6.782 19.4 7.43C19.4 7.971 18.779 8.648 18.06 9.431L17.998 9.498C17.971 9.469 17.943 9.439 17.917 9.411C17.181 8.614 16.599 7.984 16.599 7.43C16.599 6.769 17.211 6 18 6Z" fill="#17191A"/>
<path d="M7.5 3.75C4.038 3.75 1 6.819 1 10.319C1 12.878 2.805 14.832 4.894 17.094C5.486 17.736 6.113 18.413 6.738 19.149C6.928 19.372 7.207 19.501 7.5 19.501C7.793 19.501 8.072 19.372 8.262 19.149C8.873 18.43 9.484 17.764 10.064 17.131C12.176 14.828 14 12.839 14 10.319C14 6.881 10.902 3.75 7.5 3.75ZM7.5 12.899C6.014 12.899 4.85 11.735 4.85 10.25C4.85 8.765 6.014 7.6 7.5 7.6C8.986 7.6 10.15 8.764 10.15 10.25C10.15 11.736 8.986 12.899 7.5 12.899Z" fill="#17191A"/>
</svg>
