<svg width="24" height="24" viewBox="0 0 24 24" fill="none" xmlns="http://www.w3.org/2000/svg">
<path d="M20.25 17C20.25 16.3092 19.6908 15.75 19 15.75H17.0059C15.5856 15.7499 14.4148 14.6724 14.2705 13.2891L14.2559 13.0078C14.2519 11.4862 15.4837 10.2501 17.0059 10.25H18C18.4142 10.25 18.75 10.5858 18.75 11C18.75 11.4142 18.4142 11.75 18 11.75H17.0059C16.3142 11.7501 15.754 12.3117 15.7559 13.0039L15.7627 13.1318C15.8284 13.76 16.3603 14.2499 17.0059 14.25H19C20.5192 14.25 21.75 15.4808 21.75 17C21.75 18.5192 20.5192 19.75 19 19.75H11C10.5858 19.75 10.25 19.4142 10.25 19C10.25 18.5858 10.5858 18.25 11 18.25H19C19.6908 18.25 20.25 17.6908 20.25 17Z" fill="#17191A"/>
<path d="M12.25 10.3193C12.25 9.16307 11.7243 7.94985 10.8408 7.02051C9.96074 6.09486 8.77363 5.5 7.5 5.5C4.91875 5.5 2.75 7.88438 2.75 10.3193C2.75011 11.4692 3.30616 12.538 4.30469 13.7861C4.80121 14.4068 5.38473 15.0458 6.03125 15.7461C6.49744 16.2511 6.99397 16.7864 7.49902 17.3564C8.00373 16.7852 8.50072 16.2471 8.9668 15.7383C9.61272 15.0332 10.1974 14.388 10.6943 13.7627C11.6965 12.5016 12.2499 11.433 12.25 10.3193ZM13.75 10.3193C13.7499 11.9553 12.9282 13.3614 11.8682 14.6953C11.3339 15.3676 10.7153 16.05 10.0723 16.752C9.42419 17.4594 8.74784 18.1914 8.07129 18.9863C7.92879 19.1537 7.71983 19.25 7.5 19.25C7.28017 19.25 7.07121 19.1537 6.92871 18.9863C6.25309 18.1925 5.57736 17.4653 4.92969 16.7637C4.28724 16.0677 3.66747 15.3919 3.13281 14.7236C2.06907 13.394 1.25011 11.9881 1.25 10.3193C1.25 7.11629 4.03125 4 7.5 4C9.25129 4 10.8141 4.81507 11.9277 5.98633C13.0379 7.15396 13.75 8.7257 13.75 10.3193Z" fill="#17191A"/>
<path d="M8.3998 10.2504C8.3998 9.72973 8.02098 9.35019 7.50039 9.35C6.9796 9.35 6.6 9.7296 6.6 10.2504C6.60019 10.771 6.97973 11.1498 7.50039 11.1498C8.02085 11.1496 8.39961 10.7708 8.3998 10.2504ZM9.89981 10.2504C9.8996 11.5993 8.84929 12.6496 7.50039 12.6498C6.15131 12.6498 5.1002 11.5994 5.1 10.2504C5.1 8.90118 6.15118 7.85 7.50039 7.85C8.84942 7.8502 9.89981 8.90131 9.89981 10.2504Z" fill="#17191A"/>
<path d="M19.6498 7.42969C19.6497 7.04855 19.4732 6.62044 19.1518 6.28223C18.8337 5.94768 18.4214 5.75012 18.0004 5.75C17.1242 5.75 16.3502 6.58386 16.35 7.42969C16.35 7.7852 16.5185 8.15694 16.9359 8.67871C17.1419 8.93617 17.387 9.20477 17.6703 9.51172C17.7757 9.6259 17.8853 9.74546 17.9984 9.86914C18.1118 9.74453 18.2229 9.62507 18.3285 9.50977C18.6112 9.20112 18.8565 8.92956 19.0629 8.66992C19.484 8.14008 19.6498 7.76851 19.6498 7.42969ZM21.1498 7.42969C21.1498 8.29087 20.7157 8.99988 20.2367 9.60254C19.9931 9.9091 19.7137 10.2171 19.434 10.5225C19.2916 10.6778 19.1483 10.8337 19.0043 10.9932L18.5707 11.4863C18.4283 11.6534 18.2196 11.7499 18 11.75C17.8078 11.75 17.6241 11.6763 17.4857 11.5459L17.4291 11.4863C17.141 11.1478 16.8521 10.8373 16.5678 10.5293C16.2886 10.2269 16.0081 9.92125 15.7641 9.61621C15.2815 9.013 14.85 8.30416 14.85 7.42969C14.8502 5.81573 16.2368 4.25 18.0004 4.25C18.8991 4.25012 19.6869 4.66779 20.2387 5.24805C20.7869 5.82461 21.1497 6.61116 21.1498 7.42969Z" fill="#17191A"/>
</svg>
