<svg width="24" height="24" viewBox="0 0 24 24" fill="none" xmlns="http://www.w3.org/2000/svg">
<path d="M12.999 5C14.1036 5 14.999 4.10457 14.999 3C14.999 1.89543 14.1036 1 12.999 1C11.8945 1 10.999 1.89543 10.999 3C10.999 4.10457 11.8945 5 12.999 5Z" fill="#17191A"/>
<path d="M15.399 10.7998C15.795 11.0968 16.353 11.0588 16.706 10.7068L19.706 7.70676C20.097 7.31576 20.097 6.68376 19.706 6.29276C19.315 5.90176 18.683 5.90176 18.292 6.29276L15.905 8.67976L12.598 6.20076C12.58 6.18776 12.559 6.18076 12.54 6.16776C12.516 6.15176 12.492 6.13976 12.466 6.12576C12.376 6.07776 12.281 6.04176 12.182 6.02276C12.168 6.01976 12.156 6.01376 12.142 6.01176C12.027 5.99476 11.911 6.00376 11.796 6.02776C11.782 6.03076 11.769 6.02576 11.756 6.02976L7.75605 7.02976C7.39805 7.11976 7.11805 7.39976 7.02805 7.75776L6.02805 11.7578C5.89405 12.2938 6.22005 12.8368 6.75605 12.9698C6.83805 12.9908 6.91905 12.9998 7.00005 12.9998C7.44805 12.9998 7.85505 12.6968 7.96905 12.2418L8.82305 8.82476L10.761 8.33976L10.037 12.6858L8.38005 15.9988H3.99805C3.44605 15.9988 2.99805 16.4458 2.99805 16.9988C2.99805 17.5518 3.44605 17.9988 3.99805 17.9988H8.99805C9.37705 17.9988 9.72305 17.7848 9.89305 17.4458L11.34 14.5528L15.169 17.6148L17.07 22.3698C17.226 22.7618 17.602 22.9988 17.999 22.9988C18.123 22.9988 18.249 22.9768 18.37 22.9278C18.883 22.7228 19.133 22.1408 18.928 21.6278L16.928 16.6278C16.864 16.4668 16.759 16.3258 16.624 16.2178L12.082 12.5848L12.715 8.78576L15.4 10.7988L15.399 10.7998Z" fill="#17191A"/>
</svg>
