<svg width="24" height="24" viewBox="0 0 24 24" fill="none" xmlns="http://www.w3.org/2000/svg">
<path d="M18.4697 6.46973C18.7626 6.17683 19.2374 6.17683 19.5303 6.46973C19.8232 6.76262 19.8232 7.23738 19.5303 7.53027L16.5303 10.5303C16.2664 10.7942 15.8484 10.8236 15.5498 10.5996L12.5371 8.33984L11.8125 12.6885L16.4688 16.4141L16.54 16.4795C16.6071 16.5491 16.6602 16.6314 16.6963 16.7217L18.6963 21.7217L18.7217 21.7939C18.8265 22.1594 18.6389 22.5521 18.2783 22.6963C17.9179 22.8403 17.5121 22.6852 17.3359 22.3486L17.3037 22.2783L15.377 17.4629L11.2549 14.165L9.6709 17.335C9.54385 17.589 9.28408 17.75 9 17.75H4C3.58579 17.75 3.25 17.4142 3.25 17C3.25 16.5858 3.58579 16.25 4 16.25H8.53613L10.2773 12.7666L11.0713 8.00488L8.61816 8.61816L7.72754 12.1816C7.6271 12.5834 7.22013 12.8279 6.81836 12.7275C6.41659 12.6271 6.17215 12.2201 6.27246 11.8184L7.27246 7.81836L7.30371 7.7207C7.39246 7.49935 7.58305 7.33129 7.81836 7.27246L11.8096 6.27441C11.8125 6.27365 11.8154 6.27318 11.8184 6.27246C11.846 6.26555 11.8738 6.26054 11.9014 6.25684C11.9105 6.25564 11.9196 6.25477 11.9287 6.25391C11.9454 6.25229 11.962 6.25147 11.9785 6.25098C12.0204 6.24983 12.0621 6.25201 12.1035 6.25781C12.117 6.2597 12.1302 6.26301 12.1436 6.26562C12.1727 6.27133 12.2012 6.27895 12.2295 6.28809C12.2426 6.29231 12.2558 6.29586 12.2686 6.30078C12.3326 6.32537 12.3939 6.3582 12.4502 6.40039L15.9287 9.00977L18.4697 6.46973ZM13 1C14.1046 1 15 1.89543 15 3C15 4.10457 14.1046 5 13 5C11.8954 5 11 4.10457 11 3C11 1.89543 11.8954 1 13 1Z" fill="#17191A"/>
</svg>
