<svg width="24" height="24" viewBox="0 0 24 24" fill="none" xmlns="http://www.w3.org/2000/svg">
<path d="M17.707 16.293L14.433 13.019C14.784 12.424 15 11.739 15 11C15 8.794 13.206 7 11 7C8.794 7 7 8.794 7 11C7 13.206 8.794 15 11 15C11.74 15 12.424 14.785 13.019 14.433L16.293 17.707L17.707 16.293ZM9 11C9 9.897 9.897 9 11 9C12.103 9 13 9.897 13 11C13 12.103 12.103 13 11 13C9.897 13 9 12.103 9 11Z" fill="#17191A"/>
<path d="M4 4H7V2H4C2.897 2 2 2.897 2 4V7H4V4Z" fill="#17191A"/>
<path d="M20 2H17V4H20V7H22V4C22 2.897 21.103 2 20 2Z" fill="#17191A"/>
<path d="M20 20H17V22H20C21.103 22 22 21.103 22 20V17H20V20Z" fill="#17191A"/>
<path d="M4 17H2V20C2 21.103 2.897 22 4 22H7V20H4V17Z" fill="#17191A"/>
</svg>
