<svg width="24" height="24" viewBox="0 0 24 24" fill="none" xmlns="http://www.w3.org/2000/svg">
<path fill-rule="evenodd" clip-rule="evenodd" d="M11 8.75C9.75736 8.75 8.75 9.75736 8.75 11C8.75 12.2426 9.75736 13.25 11 13.25C12.2426 13.25 13.25 12.2426 13.25 11C13.25 9.75736 12.2426 8.75 11 8.75ZM7.25 11C7.25 8.92893 8.92893 7.25 11 7.25C13.0711 7.25 14.75 8.92893 14.75 11C14.75 13.0711 13.0711 14.75 11 14.75C8.92893 14.75 7.25 13.0711 7.25 11Z" fill="#17191A"/>
<path fill-rule="evenodd" clip-rule="evenodd" d="M13.6303 12.5697L17.5303 16.4697L16.4697 17.5303L12.5697 13.6303L13.6303 12.5697Z" fill="#17191A"/>
<path fill-rule="evenodd" clip-rule="evenodd" d="M4 3.75C3.86221 3.75 3.75 3.86221 3.75 4V7H2.25V4C2.25 3.03379 3.03379 2.25 4 2.25H7V3.75H4Z" fill="#17191A"/>
<path fill-rule="evenodd" clip-rule="evenodd" d="M20 3.75H17V2.25H20C20.9662 2.25 21.75 3.03379 21.75 4V7H20.25V4C20.25 3.86221 20.1378 3.75 20 3.75Z" fill="#17191A"/>
<path fill-rule="evenodd" clip-rule="evenodd" d="M20.25 20V17H21.75V20C21.75 20.9662 20.9662 21.75 20 21.75H17V20.25H20C20.1378 20.25 20.25 20.1378 20.25 20Z" fill="#17191A"/>
<path fill-rule="evenodd" clip-rule="evenodd" d="M3.75 17V20C3.75 20.1378 3.86221 20.25 4 20.25H7V21.75H4C3.03379 21.75 2.25 20.9662 2.25 20V17H3.75Z" fill="#17191A"/>
</svg>
