<svg width="24" height="24" viewBox="0 0 24 24" fill="none" xmlns="http://www.w3.org/2000/svg">
<path d="M12 14C13.1046 14 14 13.1046 14 12C14 10.8954 13.1046 10 12 10C10.8954 10 10 10.8954 10 12C10 13.1046 10.8954 14 12 14Z" fill="#17191A"/>
<path d="M4 4H7V2H4C2.897 2 2 2.897 2 4V7H4V4Z" fill="#17191A"/>
<path d="M20 2H17V4H20V7H22V4C22 2.897 21.103 2 20 2Z" fill="#17191A"/>
<path d="M20 20H17V22H20C21.103 22 22 21.103 22 20V17H20V20Z" fill="#17191A"/>
<path d="M4 17H2V20C2 21.103 2.897 22 4 22H7V20H4V17Z" fill="#17191A"/>
<path d="M18.937 12.352L19.069 12L18.937 11.648C17.892 8.868 15.105 7 12 7C8.895 7 6.108 8.868 5.064 11.648L4.932 12L5.064 12.352C6.108 15.132 8.896 17 12 17C15.104 17 17.892 15.132 18.937 12.352ZM12 15C9.86 15 7.933 13.809 7.084 12C7.933 10.191 9.86 9 12 9C14.14 9 16.067 10.191 16.916 12C16.067 13.809 14.14 15 12 15Z" fill="#17191A"/>
</svg>
