<svg width="24" height="24" viewBox="0 0 24 24" fill="none" xmlns="http://www.w3.org/2000/svg">
<path d="M12 14.291C10.093 14.291 8.851 12.432 8.839 12.414L7.159 13.499C7.232 13.613 8.989 16.291 12 16.291C15.011 16.291 16.768 13.613 16.841 13.499L15.161 12.414C15.149 12.433 13.907 14.291 12 14.291Z" fill="#17191A"/>
<path d="M2 4V7H4V4H7V2H4C2.897 2 2 2.897 2 4Z" fill="#17191A"/>
<path d="M20 2H17V4H20V7H22V4C22 2.897 21.103 2 20 2Z" fill="#17191A"/>
<path d="M20 20H17V22H20C21.103 22 22 21.103 22 20V17H20V20Z" fill="#17191A"/>
<path d="M4 17H2V20C2 21.103 2.897 22 4 22H7V20H4V17Z" fill="#17191A"/>
<path d="M9 10C9.55228 10 10 9.55228 10 9C10 8.44772 9.55228 8 9 8C8.44772 8 8 8.44772 8 9C8 9.55228 8.44772 10 9 10Z" fill="#17191A"/>
<path d="M15 10C15.5523 10 16 9.55228 16 9C16 8.44772 15.5523 8 15 8C14.4477 8 14 8.44772 14 9C14 9.55228 14.4477 10 15 10Z" fill="#17191A"/>
</svg>
