<svg width="24" height="24" viewBox="0 0 24 24" fill="none" xmlns="http://www.w3.org/2000/svg">
<path d="M12 14C13.1046 14 14 13.1046 14 12C14 10.8954 13.1046 10 12 10C10.8954 10 10 10.8954 10 12C10 13.1046 10.8954 14 12 14Z" fill="#17191A"/>
<path fill-rule="evenodd" clip-rule="evenodd" d="M4 3.75C3.86221 3.75 3.75 3.86221 3.75 4V7H2.25V4C2.25 3.03379 3.03379 2.25 4 2.25H7V3.75H4Z" fill="#17191A"/>
<path fill-rule="evenodd" clip-rule="evenodd" d="M20 3.75H17V2.25H20C20.9662 2.25 21.75 3.03379 21.75 4V7H20.25V4C20.25 3.86221 20.1378 3.75 20 3.75Z" fill="#17191A"/>
<path fill-rule="evenodd" clip-rule="evenodd" d="M20.25 20V17H21.75V20C21.75 20.9662 20.9662 21.75 20 21.75H17V20.25H20C20.1378 20.25 20.25 20.1378 20.25 20Z" fill="#17191A"/>
<path fill-rule="evenodd" clip-rule="evenodd" d="M3.75 17V20C3.75 20.1378 3.86221 20.25 4 20.25H7V21.75H4C3.03379 21.75 2.25 20.9662 2.25 20V17H3.75Z" fill="#17191A"/>
<path fill-rule="evenodd" clip-rule="evenodd" d="M5.29791 11.7362C6.28675 9.10424 8.92689 7.25 12 7.25C15.0731 7.25 17.7133 9.10424 18.7021 11.7362L18.8012 12L18.7021 12.2638C17.7133 14.8958 15.0731 16.75 12 16.75C8.92689 16.75 6.28675 14.8958 5.29791 12.2638L5.19882 12L5.29791 11.7362ZM6.80986 12C7.64551 13.8901 9.63764 15.25 12 15.25C14.3624 15.25 16.3545 13.8901 17.1901 12C16.3545 10.1099 14.3624 8.75 12 8.75C9.63764 8.75 7.64551 10.1099 6.80986 12Z" fill="#17191A"/>
</svg>
