<svg width="24" height="24" viewBox="0 0 24 24" fill="none" xmlns="http://www.w3.org/2000/svg">
<path d="M8 8H6V16H8V8Z" fill="#17191A"/>
<path d="M11 8H9V16H11V8Z" fill="#17191A"/>
<path d="M18 8H16V16H18V8Z" fill="#17191A"/>
<path d="M4 4H7V2H4C2.897 2 2 2.897 2 4V7H4V4Z" fill="#17191A"/>
<path d="M20 2H17V4H20V7H22V4C22 2.897 21.103 2 20 2Z" fill="#17191A"/>
<path d="M20 20H17V22H20C21.103 22 22 21.103 22 20V17H20V20Z" fill="#17191A"/>
<path d="M4 17H2V20C2 21.103 2.897 22 4 22H7V20H4V17Z" fill="#17191A"/>
<path d="M15 8H13V16H15V8Z" fill="#17191A"/>
</svg>
