<svg width="24" height="24" viewBox="0 0 24 24" fill="none" xmlns="http://www.w3.org/2000/svg">
<path fill-rule="evenodd" clip-rule="evenodd" d="M7.36946 13.3641C7.3693 13.3639 7.36914 13.3636 8 12.958C8.63086 12.5524 8.63071 12.5522 8.63057 12.5519L8.62992 12.5509C8.62982 12.5508 8.62997 12.551 8.63057 12.5519L8.63803 12.563C8.64598 12.5747 8.65939 12.5942 8.67813 12.6202C8.71568 12.6724 8.77431 12.7507 8.85295 12.8464C9.011 13.0388 9.24556 13.2963 9.54769 13.5526C10.1584 14.0707 10.992 14.541 12 14.541C13.008 14.541 13.8416 14.0707 14.4523 13.5526C14.7544 13.2963 14.989 13.0388 15.1471 12.8464C15.2257 12.7507 15.2843 12.6724 15.3219 12.6202C15.3406 12.5942 15.354 12.5747 15.362 12.563L15.3697 12.5515C15.3696 12.5517 15.3691 12.5524 16 12.958C16.6309 13.3636 16.6307 13.3639 16.6305 13.3641L16.6294 13.3659L16.6273 13.3691L16.6215 13.3779L16.6031 13.4054C16.5879 13.4278 16.5666 13.4585 16.5395 13.4963C16.4852 13.5717 16.4071 13.6756 16.3061 13.7986C16.1048 14.0437 15.8081 14.3695 15.4227 14.6964C14.6584 15.3448 13.492 16.041 12 16.041C10.508 16.041 9.34156 15.3448 8.57731 14.6964C8.19194 14.3695 7.89525 14.0437 7.69393 13.7986C7.59288 13.6756 7.51478 13.5717 7.46054 13.4963C7.43339 13.4585 7.41213 13.4278 7.39688 13.4054L7.37849 13.3779L7.37268 13.3691L7.37063 13.3659L7.36946 13.3641ZM15.3705 12.5503C15.3705 12.5503 15.3705 12.5503 15.3705 12.5503V12.5503Z" fill="#17191A"/>
<path fill-rule="evenodd" clip-rule="evenodd" d="M4 3.75C3.86221 3.75 3.75 3.86221 3.75 4V7H2.25V4C2.25 3.03379 3.03379 2.25 4 2.25H7V3.75H4Z" fill="#17191A"/>
<path fill-rule="evenodd" clip-rule="evenodd" d="M20 3.75H17V2.25H20C20.9662 2.25 21.75 3.03379 21.75 4V7H20.25V4C20.25 3.86221 20.1378 3.75 20 3.75Z" fill="#17191A"/>
<path fill-rule="evenodd" clip-rule="evenodd" d="M20.25 20V17H21.75V20C21.75 20.9662 20.9662 21.75 20 21.75H17V20.25H20C20.1378 20.25 20.25 20.1378 20.25 20Z" fill="#17191A"/>
<path fill-rule="evenodd" clip-rule="evenodd" d="M3.75 17V20C3.75 20.1378 3.86221 20.25 4 20.25H7V21.75H4C3.03379 21.75 2.25 20.9662 2.25 20V17H3.75Z" fill="#17191A"/>
<path d="M9 10C9.55228 10 10 9.55228 10 9C10 8.44772 9.55228 8 9 8C8.44772 8 8 8.44772 8 9C8 9.55228 8.44772 10 9 10Z" fill="#17191A"/>
<path d="M15 10C15.5523 10 16 9.55228 16 9C16 8.44772 15.5523 8 15 8C14.4477 8 14 8.44772 14 9C14 9.55228 14.4477 10 15 10Z" fill="#17191A"/>
</svg>
