<svg width="24" height="24" viewBox="0 0 24 24" fill="none" xmlns="http://www.w3.org/2000/svg">
<path d="M18.0009 14C17.1039 14 16.2839 14.307 15.6159 14.807L3.65093 5.22003C3.22093 4.87503 2.59093 4.94403 2.24493 5.37503C1.89993 5.80603 1.96893 6.43603 2.39993 6.78103L14.3599 16.364C14.1339 16.865 14.0009 17.416 14.0009 18.001C14.0009 20.207 15.7949 22.001 18.0009 22.001C20.2069 22.001 22.0009 20.207 22.0009 18.001C22.0009 15.795 20.2069 14.001 18.0009 14.001V14ZM18.0009 20C16.8979 20 16.0009 19.103 16.0009 18C16.0009 16.897 16.8979 16 18.0009 16C19.1039 16 20.0009 16.897 20.0009 18C20.0009 19.103 19.1039 20 18.0009 20Z" fill="#17191A"/>
<path d="M13.0179 10.994C13.2369 10.994 13.4569 10.922 13.6419 10.774L15.6169 9.192C16.2849 9.692 17.1049 10 18.0019 10C20.2079 10 22.0019 8.206 22.0019 6C22.0019 3.794 20.2079 2 18.0019 2C15.7959 2 14.0019 3.794 14.0019 6C14.0019 6.584 14.1349 7.136 14.3609 7.637L12.3919 9.214C11.9609 9.559 11.8919 10.189 12.2369 10.62C12.4339 10.866 12.7249 10.994 13.0179 10.994ZM18.0009 4C19.1039 4 20.0009 4.897 20.0009 6C20.0009 7.103 19.1039 8 18.0009 8C16.8979 8 16.0009 7.103 16.0009 6C16.0009 4.897 16.8979 4 18.0009 4Z" fill="#17191A"/>
<path d="M7.37494 13.233L2.40094 17.219C1.96994 17.565 1.90094 18.194 2.24594 18.624C2.44294 18.871 2.73394 18.999 3.02694 18.999C3.24694 18.999 3.46694 18.927 3.65194 18.779L8.62594 14.793C9.05694 14.447 9.12594 13.818 8.78094 13.388C8.43494 12.956 7.80594 12.888 7.37494 13.233Z" fill="#17191A"/>
</svg>
