<svg width="24" height="24" viewBox="0 0 24 24" fill="none" xmlns="http://www.w3.org/2000/svg">
<path fill-rule="evenodd" clip-rule="evenodd" d="M14.2504 18C14.2504 15.9288 15.9292 14.25 18.0004 14.25C20.0716 14.25 21.7504 15.9288 21.7504 18C21.7504 20.0712 20.0716 21.75 18.0004 21.75C15.9292 21.75 14.2504 20.0712 14.2504 18ZM18.0004 15.75C16.7576 15.75 15.7504 16.7572 15.7504 18C15.7504 19.2428 16.7576 20.25 18.0004 20.25C19.2432 20.25 20.2504 19.2428 20.2504 18C20.2504 16.7572 19.2432 15.75 18.0004 15.75Z" fill="#17191A"/>
<path fill-rule="evenodd" clip-rule="evenodd" d="M14.2504 6C14.2504 3.92879 15.9292 2.25 18.0004 2.25C20.0716 2.25 21.7504 3.92879 21.7504 6C21.7504 8.07121 20.0716 9.75 18.0004 9.75C15.9292 9.75 14.2504 8.07121 14.2504 6ZM18.0004 3.75C16.7576 3.75 15.7504 4.75721 15.7504 6C15.7504 7.24279 16.7576 8.25 18.0004 8.25C19.2432 8.25 20.2504 7.24279 20.2504 6C20.2504 4.75721 19.2432 3.75 18.0004 3.75Z" fill="#17191A"/>
<path fill-rule="evenodd" clip-rule="evenodd" d="M2.44014 5.53101C2.69916 5.20777 3.17117 5.15571 3.49441 5.41472L16.1324 15.5417C16.4556 15.8007 16.5077 16.2728 16.2487 16.596C15.9897 16.9192 15.5177 16.9713 15.1944 16.7123L2.55643 6.58528C2.23319 6.32626 2.18113 5.85425 2.44014 5.53101Z" fill="#17191A"/>
<path fill-rule="evenodd" clip-rule="evenodd" d="M16.2487 7.40402C16.5077 7.72726 16.4556 8.19927 16.1324 8.45828L13.4854 10.5793C13.1622 10.8383 12.6901 10.7862 12.4311 10.463C12.1721 10.1397 12.2242 9.66773 12.5474 9.40872L15.1944 7.28772C15.5177 7.02871 15.9897 7.08078 16.2487 7.40402Z" fill="#17191A"/>
<path fill-rule="evenodd" clip-rule="evenodd" d="M8.58468 13.545C8.84371 13.8682 8.79166 14.3402 8.46843 14.5993L3.49443 18.5853C3.1712 18.8443 2.69918 18.7922 2.44016 18.469C2.18113 18.1458 2.23318 17.6738 2.55641 17.4147L7.53041 13.4287C7.85364 13.1697 8.32565 13.2218 8.58468 13.545Z" fill="#17191A"/>
</svg>
