<svg width="24" height="24" viewBox="0 0 24 24" fill="none" xmlns="http://www.w3.org/2000/svg">
<path fill-rule="evenodd" clip-rule="evenodd" d="M1.04796 3.4862C1.15786 3.19371 1.43758 3 1.75003 3H21.75C22.0191 3 22.2675 3.1441 22.4011 3.37764C22.5346 3.61118 22.5329 3.89837 22.3965 4.13027L12.3965 21.1303C12.2388 21.3984 11.932 21.5413 11.6252 21.4895C11.3185 21.4378 11.0756 21.2021 11.0146 20.8971L9.06453 11.1468L1.25616 4.31443C1.02101 4.10868 0.938057 3.7787 1.04796 3.4862ZM3.74612 4.5L10.2439 10.1856C10.3682 10.2943 10.4531 10.441 10.4855 10.6029L12.1 18.6758L20.4387 4.5H3.74612Z" fill="#17191A"/>
<path fill-rule="evenodd" clip-rule="evenodd" d="M22.1279 4.39784L10.1279 11.3978L9.37213 10.1022L21.3721 3.10217L22.1279 4.39784Z" fill="#17191A"/>
</svg>
