<svg width="24" height="24" viewBox="0 0 24 24" fill="none" xmlns="http://www.w3.org/2000/svg">
<path d="M22.8677 4.503C22.6897 4.192 22.3577 4 21.9997 4H1.99974C1.58274 4 1.20974 4.258 1.06374 4.648C0.917736 5.038 1.02774 5.478 1.34074 5.752L8.29474 11.837L16.5387 6.833C17.0157 6.555 17.6287 6.716 17.9067 7.193C18.1837 7.67 18.0227 8.282 17.5467 8.561L9.29474 13.57L11.0197 22.196C11.1007 22.602 11.4247 22.917 11.8337 22.986C11.8897 22.995 11.9447 23 12.0007 23C12.3507 23 12.6807 22.815 12.8617 22.507L22.8617 5.507C23.0437 5.198 23.0457 4.815 22.8677 4.504V4.503Z" fill="#17191A"/>
</svg>
