<svg width="24" height="24" viewBox="0 0 24 24" fill="none" xmlns="http://www.w3.org/2000/svg">
<path fill-rule="evenodd" clip-rule="evenodd" d="M6.5 14.75C4.98122 14.75 3.75 15.9812 3.75 17.5C3.75 19.0188 4.98122 20.25 6.5 20.25C8.01878 20.25 9.25 19.0188 9.25 17.5C9.25 15.9812 8.01878 14.75 6.5 14.75ZM2.25 17.5C2.25 15.1528 4.15279 13.25 6.5 13.25C8.84721 13.25 10.75 15.1528 10.75 17.5C10.75 19.8472 8.84721 21.75 6.5 21.75C4.15279 21.75 2.25 19.8472 2.25 17.5Z" fill="#17191A"/>
<path fill-rule="evenodd" clip-rule="evenodd" d="M13.25 14C13.25 13.5858 13.5858 13.25 14 13.25H21C21.4142 13.25 21.75 13.5858 21.75 14V21C21.75 21.4142 21.4142 21.75 21 21.75H14C13.5858 21.75 13.25 21.4142 13.25 21V14ZM14.75 14.75V20.25H20.25V14.75H14.75Z" fill="#17191A"/>
<path fill-rule="evenodd" clip-rule="evenodd" d="M12 1.25C12.271 1.25 12.5208 1.39615 12.6537 1.6323L17.1537 9.6323C17.2843 9.86453 17.2819 10.1486 17.1474 10.3786C17.0129 10.6086 16.7664 10.75 16.5 10.75H7.5C7.23355 10.75 6.98711 10.6086 6.85259 10.3786C6.71808 10.1486 6.71569 9.86453 6.84632 9.6323L11.3463 1.6323C11.4792 1.39615 11.729 1.25 12 1.25ZM8.78239 9.25H15.2176L12 3.5298L8.78239 9.25Z" fill="#17191A"/>
</svg>
