<svg width="24" height="24" viewBox="0 0 24 24" fill="none" xmlns="http://www.w3.org/2000/svg">
<path d="M6.5 21.9995C8.98528 21.9995 11 19.9848 11 17.4995C11 15.0142 8.98528 12.9995 6.5 12.9995C4.01472 12.9995 2 15.0142 2 17.4995C2 19.9848 4.01472 21.9995 6.5 21.9995Z" fill="#17191A"/>
<path d="M21 12.9995H14C13.4477 12.9995 13 13.4472 13 13.9995V20.9995C13 21.5518 13.4477 21.9995 14 21.9995H21C21.5523 21.9995 22 21.5518 22 20.9995V13.9995C22 13.4472 21.5523 12.9995 21 12.9995Z" fill="#17191A"/>
<path d="M7.49999 10.9996H16.5C16.855 10.9996 17.184 10.8116 17.363 10.5046C17.542 10.1976 17.546 9.81861 17.371 9.50961L12.872 1.50961C12.518 0.879609 11.483 0.879609 11.129 1.50961L6.62899 9.50961C6.45499 9.81961 6.45799 10.1976 6.63699 10.5046C6.81599 10.8116 7.14499 10.9996 7.49999 10.9996Z" fill="#17191A"/>
</svg>
