<svg width="24" height="24" viewBox="0 0 24 24" fill="none" xmlns="http://www.w3.org/2000/svg">
<path fill-rule="evenodd" clip-rule="evenodd" d="M3 11.25C3 9.43579 4.43579 8 6.25 8C8.06421 8 9.5 9.43579 9.5 11.25C9.5 13.0642 8.06421 14.5 6.25 14.5C4.43579 14.5 3 13.0642 3 11.25ZM6.25 9.5C5.26421 9.5 4.5 10.2642 4.5 11.25C4.5 12.2358 5.26421 13 6.25 13C7.23579 13 8 12.2358 8 11.25C8 10.2642 7.23579 9.5 6.25 9.5Z" fill="#17191A"/>
<path fill-rule="evenodd" clip-rule="evenodd" d="M15 5.25C15 3.43579 16.4358 2 18.25 2C20.0642 2 21.5 3.43579 21.5 5.25C21.5 7.06421 20.0642 8.5 18.25 8.5C16.4358 8.5 15 7.06421 15 5.25ZM18.25 3.5C17.2642 3.5 16.5 4.26421 16.5 5.25C16.5 6.23579 17.2642 7 18.25 7C19.2358 7 20 6.23579 20 5.25C20 4.26421 19.2358 3.5 18.25 3.5Z" fill="#17191A"/>
<path fill-rule="evenodd" clip-rule="evenodd" d="M15 18.25C15 16.4358 16.4358 15 18.25 15C20.0642 15 21.5 16.4358 21.5 18.25C21.5 20.0642 20.0642 21.5 18.25 21.5C16.4358 21.5 15 20.0642 15 18.25ZM18.25 16.5C17.2642 16.5 16.5 17.2642 16.5 18.25C16.5 19.2358 17.2642 20 18.25 20C19.2358 20 20 19.2358 20 18.25C20 17.2642 19.2358 16.5 18.25 16.5Z" fill="#17191A"/>
<path fill-rule="evenodd" clip-rule="evenodd" d="M16.7294 6.03232C16.9049 6.40755 16.7429 6.85395 16.3677 7.02938L8.66768 10.6294C8.29245 10.8048 7.84605 10.6428 7.67062 10.2676C7.49519 9.89239 7.65716 9.44599 8.03238 9.27056L15.7324 5.67056C16.1076 5.49513 16.554 5.65709 16.7294 6.03232Z" fill="#17191A"/>
<path fill-rule="evenodd" clip-rule="evenodd" d="M7.6988 12.1779C7.90431 11.8183 8.36245 11.6933 8.72209 11.8988L16.4221 16.2988C16.7817 16.5043 16.9067 16.9625 16.7012 17.3221C16.4957 17.6817 16.0375 17.8067 15.6779 17.6012L7.97788 13.2012C7.61824 12.9957 7.49329 12.5375 7.6988 12.1779Z" fill="#17191A"/>
</svg>
