<svg width="24" height="24" viewBox="0 0 24 24" fill="none" xmlns="http://www.w3.org/2000/svg">
<path fill-rule="evenodd" clip-rule="evenodd" d="M4.49467 10.4947C4.82925 10.1601 5.27956 10 5.75 10H7.75V11.5H5.75C5.62044 11.5 5.57075 11.5399 5.55533 11.5553C5.53991 11.5707 5.5 11.6204 5.5 11.75V19.75C5.5 19.8796 5.53991 19.9293 5.55533 19.9447C5.57075 19.9601 5.62044 20 5.75 20H17.75C17.8796 20 17.9293 19.9601 17.9447 19.9447C17.9601 19.9293 18 19.8796 18 19.75V11.75C18 11.6204 17.9601 11.5707 17.9447 11.5553C17.9293 11.5399 17.8796 11.5 17.75 11.5H15.75V10H17.75C18.2204 10 18.6707 10.1601 19.0053 10.4947C19.3399 10.8293 19.5 11.2796 19.5 11.75V19.75C19.5 20.2204 19.3399 20.6707 19.0053 21.0053C18.6707 21.3399 18.2204 21.5 17.75 21.5H5.75C5.27956 21.5 4.82925 21.3399 4.49467 21.0053C4.16009 20.6707 4 20.2204 4 19.75V11.75C4 11.2796 4.16009 10.8293 4.49467 10.4947Z" fill="#17191A"/>
<path fill-rule="evenodd" clip-rule="evenodd" d="M12.5 2.75V14.75H11V2.75H12.5Z" fill="#17191A"/>
<path fill-rule="evenodd" clip-rule="evenodd" d="M11.2197 2.21967C11.5126 1.92678 11.9875 1.92678 12.2804 2.21967L16.2804 6.21967L15.2197 7.28033L11.7501 3.81066L8.28039 7.28033L7.21973 6.21967L11.2197 2.21967Z" fill="#17191A"/>
</svg>
