<svg width="24" height="24" viewBox="0 0 24 24" fill="none" xmlns="http://www.w3.org/2000/svg">
<path d="M18 9.99976H16V11.9998H18V19.9998H6V11.9998H8V9.99976H6C4.841 9.99976 4 10.8408 4 11.9998V19.9998C4 21.1588 4.841 21.9998 6 21.9998H18C19.159 21.9998 20 21.1588 20 19.9998V11.9998C20 10.8408 19.159 9.99976 18 9.99976Z" fill="#17191A"/>
<path d="M11 5.41376V14.9998H13V5.41376L15.293 7.70676L16.707 6.29276L12.707 2.29276C12.316 1.90176 11.684 1.90176 11.293 2.29276L7.29303 6.29276L8.70703 7.70676L11 5.41376Z" fill="#17191A"/>
</svg>
