<svg width="24" height="24" viewBox="0 0 24 24" fill="none" xmlns="http://www.w3.org/2000/svg">
<path d="M22.7 9.25981L14.7 2.25981C14.4 1.95981 14 1.95981 13.6 2.05981C13.2 2.25981 13 2.55981 13 2.95981V6.05981C7.5 6.95981 2 8.95981 2 17.9598C2 26.9598 3 19.5 3 19.5C3 19.5 3.53911 18.8511 3.8 18.4598C6.4 14.9598 9.3 13.9598 13 13.8598V16.8598C13 17.2598 13.2 17.5598 13.6 17.7598C14 17.9598 14.4 17.8598 14.7 17.5598L22.7 10.5598C22.9 10.3598 23 10.0598 23 9.75981C23 9.45981 22.9 9.15981 22.7 8.95981V9.25981Z" fill="#17191A"/>
</svg>
