<svg width="24" height="24" viewBox="0 0 24 24" fill="none" xmlns="http://www.w3.org/2000/svg">
<path d="M17.4 15.1C16.5 15.1 15.6 15.5 15 16L8.8 12.4C8.8 12.1 8.9 11.8 8.9 11.5C8.9 11.2 8.9 11 8.9 10.7L14.9 7.9C15.5 8.6 16.4 9 17.5 9C19.5 9 21 7.5 21 5.5C21 3.5 19.5 2 17.5 2C15.5 2 14 3.5 14 5.5C14 7.5 14 5.9 14 6.1L7.9 9C7.3 8.4 6.4 8 5.5 8C3.5 8 2 9.5 2 11.5C2 13.5 3.5 15 5.5 15C7.5 15 7.2 14.7 7.9 14.1L14.2 17.7C14.2 18 14.1 18.2 14.1 18.5C14.1 20.5 15.6 22 17.6 22C19.6 22 21.1 20.5 21.1 18.5C21.1 16.5 19.6 15 17.6 15L17.4 15.1Z" fill="#17191A"/>
</svg>
