<svg width="24" height="24" viewBox="0 0 24 24" fill="none" xmlns="http://www.w3.org/2000/svg">
<path d="M20.7144 14.25V15.75H2.857V14.25H20.7144Z" fill="#17191A"/>
<path d="M7.75 2V6H6.25V2H7.75Z" fill="#17191A"/>
<path d="M7 10C7.55228 10 8 9.55228 8 9C8 8.44772 7.55228 8 7 8C6.44772 8 6 8.44772 6 9C6 9.55228 6.44772 10 7 10Z" fill="#17191A"/>
<path d="M10 10C10.5523 10 11 9.55228 11 9C11 8.44772 10.5523 8 10 8C9.44771 8 9 8.44772 9 9C9 9.55228 9.44771 10 10 10Z" fill="#17191A"/>
<path d="M13 10C13.5523 10 14 9.55228 14 9C14 8.44772 13.5523 8 13 8C12.4477 8 12 8.44772 12 9C12 9.55228 12.4477 10 13 10Z" fill="#17191A"/>
<path d="M23.1377 11.25L19.6895 19.2959L19.4941 19.75H3.43457L1.00586 11.25H23.1377ZM4.56543 18.25H18.5049L20.8623 12.75H2.99414L4.56543 18.25Z" fill="#17191A"/>
<path d="M17.1426 5.25L20.1025 12.75H3.11426L4.36426 5.25H17.1426ZM4.88574 11.25H17.8984L16.1221 6.75H5.63574L4.88574 11.25Z" fill="#17191A"/>
<path d="M10.75 3V6H9.25V3H10.75Z" fill="#17191A"/>
</svg>
