<svg width="24" height="24" viewBox="0 0 24 24" fill="none" xmlns="http://www.w3.org/2000/svg">
<path d="M19.6798 11L17.3118 5H10.9998V3H8.99983V5H7.99983V2H5.99983V5H4.15283L3.15283 11H0.673828L3.24483 20H19.6588L23.5158 11H19.6798ZM12.9998 8C13.5518 8 13.9998 8.448 13.9998 9C13.9998 9.552 13.5518 10 12.9998 10C12.4478 10 11.9998 9.552 11.9998 9C11.9998 8.448 12.4478 8 12.9998 8ZM9.99983 8C10.5518 8 10.9998 8.448 10.9998 9C10.9998 9.552 10.5518 10 9.99983 10C9.44783 10 8.99983 9.552 8.99983 9C8.99983 8.448 9.44783 8 9.99983 8ZM6.99983 8C7.55183 8 7.99983 8.448 7.99983 9C7.99983 9.552 7.55183 10 6.99983 10C6.44783 10 5.99983 9.552 5.99983 9C5.99983 8.448 6.44783 8 6.99983 8ZM18.3408 18H4.75383L4.18283 16H19.1978L18.3408 18ZM3.61083 14L3.32483 13H20.4828L20.0538 14H3.61083Z" fill="#17191A"/>
</svg>
