<svg width="24" height="24" viewBox="0 0 24 24" fill="none" xmlns="http://www.w3.org/2000/svg">
<path d="M11.9994 16C14.2085 16 15.9994 14.2091 15.9994 12C15.9994 9.79086 14.2085 8 11.9994 8C9.79025 8 7.99939 9.79086 7.99939 12C7.99939 14.2091 9.79025 16 11.9994 16Z" fill="#17191A"/>
<path d="M22.9084 11.584C22.2034 10.039 19.3304 5 11.9994 5C4.66839 5 1.79639 10.04 1.09039 11.584L0.900391 12L1.09039 12.416C1.79639 13.96 4.66939 19 12.0004 19C19.3314 19 22.2034 13.961 22.9094 12.416L23.0994 12L22.9084 11.584ZM11.9994 17C6.42239 17 3.95539 13.579 3.11539 12C3.95639 10.421 6.42639 7 11.9994 7C17.5724 7 20.0434 10.421 20.8844 12C20.0424 13.579 17.5734 17 11.9994 17Z" fill="#17191A"/>
</svg>
