<svg width="24" height="24" viewBox="0 0 24 24" fill="none" xmlns="http://www.w3.org/2000/svg">
<path fill-rule="evenodd" clip-rule="evenodd" d="M8.25049 12C8.25049 9.94479 9.94527 8.25 12.0005 8.25C14.0555 8.25 15.7505 9.94362 15.7505 12C15.7505 14.0562 14.0567 15.75 12.0005 15.75C9.94427 15.75 8.25049 14.0562 8.25049 12ZM12.0005 9.75C10.7737 9.75 9.75049 10.7732 9.75049 12C9.75049 13.2278 10.7727 14.25 12.0005 14.25C13.2283 14.25 14.2505 13.2278 14.2505 12C14.2505 10.7724 13.2274 9.75 12.0005 9.75Z" fill="#17191A"/>
<path fill-rule="evenodd" clip-rule="evenodd" d="M2.83392 12.0001C3.62458 13.5433 6.13011 17.25 12.0005 17.25C17.872 17.25 20.3748 13.5463 21.167 11.9999C20.3764 10.4567 17.8709 6.75 12.0005 6.75C6.12901 6.75 3.6262 10.4537 2.83392 12.0001ZM1.31848 11.6879C2.00694 10.1833 4.82314 5.25 12.0005 5.25C19.1779 5.25 21.9971 10.1884 22.6826 11.6882L22.8252 12.0002L22.6825 12.3121C21.994 13.8167 19.1778 18.75 12.0005 18.75C4.82309 18.75 2.00385 13.8116 1.31835 12.3118L1.17578 11.9998L1.31848 11.6879Z" fill="#17191A"/>
</svg>
