<svg width="24" height="24" viewBox="0 0 24 24" fill="none" xmlns="http://www.w3.org/2000/svg">
<path fill-rule="evenodd" clip-rule="evenodd" d="M19.9394 6.53033L17.4697 4.06066L18.5304 3L22.0607 6.53033L18.5304 10.0607L17.4697 9L19.9394 6.53033Z" fill="#17191A"/>
<path fill-rule="evenodd" clip-rule="evenodd" d="M18.5304 13L22.0607 16.5303L18.5304 20.0607L17.4697 19L19.9394 16.5303L17.4697 14.0607L18.5304 13Z" fill="#17191A"/>
<path fill-rule="evenodd" clip-rule="evenodd" d="M6 7.28033H2V5.78033H6C9.21421 5.78033 11.75 8.31612 11.75 11.5303C11.75 13.9161 13.6142 15.7803 16 15.7803H21V17.2803H16C12.7858 17.2803 10.25 14.7445 10.25 11.5303C10.25 9.14455 8.38579 7.28033 6 7.28033Z" fill="#17191A"/>
<path fill-rule="evenodd" clip-rule="evenodd" d="M12.5395 6.93832C13.5845 6.1256 14.7508 5.78033 16 5.78033H21V7.28033H16C15.0492 7.28033 14.2155 7.53506 13.4605 8.12235L12.5395 6.93832ZM6 15.7803C6.95085 15.7803 7.78446 15.5256 8.53954 14.9383L9.46046 16.1223C8.41553 16.9351 7.24915 17.2803 6 17.2803H2V15.7803H6Z" fill="#17191A"/>
</svg>
