<svg width="24" height="24" viewBox="0 0 24 24" fill="none" xmlns="http://www.w3.org/2000/svg">
<path d="M17.3 14.4L18.6 15.7H16C13.8 15.7 12 13.9 12 11.7C12 8.29995 9.4 5.69995 6 5.69995H2V7.69995H6C8.2 7.69995 10 9.49995 10 11.7C10 15.1 12.6 17.7 16 17.7H18.6L17.3 19L18.7 20.4L22.4 16.7L18.7 13L17.3 14.4Z" fill="#17191A"/>
<path d="M16 7.7H18.6L17.3 9L18.7 10.4L22.4 6.7L18.7 3L17.3 4.4L18.6 5.7H16C14.6 5.7 13.4 6.1 12.4 6.9L13.6 8.5C14.3 8 15.1 7.7 16 7.7Z" fill="#17191A"/>
<path d="M6 15.6999H2V17.6999H6C7.4 17.6999 8.6 17.2999 9.6 16.4999L8.4 14.8999C7.7 15.3999 6.9 15.6999 6 15.6999Z" fill="#17191A"/>
</svg>
