<svg width="24" height="24" viewBox="0 0 24 24" fill="none" xmlns="http://www.w3.org/2000/svg">
<path d="M18.8105 3.25L22.0605 6.5L18.8105 9.75H4.25V3.25H18.8105ZM5.75 8.25H18.1895L19.9395 6.5L18.1895 4.75H5.75V8.25Z" fill="#17191A"/>
<path d="M16 21.25V22.75H8V21.25H16Z" fill="#17191A"/>
<path d="M19.75 11.25V17.75H5.18945L1.93945 14.5L5.18945 11.25H19.75ZM4.06055 14.5L5.81055 16.25H18.25V12.75H5.81055L4.06055 14.5Z" fill="#17191A"/>
<path d="M12.75 17V22H11.25V17H12.75Z" fill="#17191A"/>
<path d="M12.75 9V12H11.25V9H12.75Z" fill="#17191A"/>
<path d="M12.75 1V4H11.25V1H12.75Z" fill="#17191A"/>
</svg>
