<svg width="24" height="24" viewBox="0 0 24 24" fill="none" xmlns="http://www.w3.org/2000/svg">
<path fill-rule="evenodd" clip-rule="evenodd" d="M4.104 16.775C2.946 16.775 2 15.828 2 14.668C2 13.508 2.946 12.562 4.104 12.562H6.207V14.668C6.207 15.828 5.264 16.775 4.104 16.775ZM9.372 12.562C10.528 12.562 11.475 13.508 11.475 14.668V19.942C11.475 21.102 10.529 22.048 9.372 22.048C8.212 22.048 7.268 21.102 7.268 19.942V14.668C7.268 13.508 8.212 12.562 9.372 12.562ZM7.268 4.106C7.268 2.947 8.212 2 9.372 2C10.528 2 11.475 2.946 11.475 4.106V6.213H9.372C8.212 6.213 7.268 5.265 7.268 4.106ZM11.475 9.38C11.475 10.54 10.529 11.486 9.372 11.486H4.105C2.947 11.486 2.001 10.54 2.001 9.38C2.001 8.22 2.947 7.273 4.105 7.273H9.372C10.528 7.273 11.475 8.22 11.475 9.38ZM19.922 7.273C21.08 7.273 22.026 8.22 22.026 9.38C22.026 10.54 21.08 11.486 19.922 11.486H17.819V9.38C17.819 8.22 18.762 7.273 19.922 7.273ZM14.654 11.486C13.498 11.486 12.551 10.54 12.551 9.38V4.106C12.551 2.946 13.497 2 14.654 2C15.814 2 16.758 2.946 16.758 4.106V9.38C16.758 10.54 15.814 11.486 14.654 11.486ZM16.758 19.942C16.758 21.101 15.814 22.048 14.654 22.048C13.498 22.048 12.551 21.102 12.551 19.942V17.835H14.654C15.814 17.835 16.758 18.783 16.758 19.942ZM12.551 14.668C12.551 13.508 13.497 12.562 14.654 12.562H19.922C21.08 12.562 22.026 13.508 22.026 14.668C22.026 15.828 21.08 16.775 19.922 16.775H14.654C13.498 16.775 12.551 15.828 12.551 14.668Z" fill="#17191A"/>
</svg>
