<svg width="24" height="24" viewBox="0 0 24 24" fill="none" xmlns="http://www.w3.org/2000/svg">
<path d="M16.9343 6.073C17.3603 7.032 17.2583 8.662 17.1743 9.971L17.1723 10.018C17.1613 10.164 17.1543 10.296 17.1483 10.428C17.2093 10.465 17.3123 10.5 17.4703 10.5C17.7113 10.487 18.0003 10.404 18.3013 10.259C18.4343 10.189 18.5773 10.175 18.6743 10.175C18.8203 10.175 18.9633 10.198 19.0833 10.247C19.4443 10.367 19.6733 10.632 19.6733 10.921C19.6863 11.282 19.3603 11.596 18.6983 11.86C18.6273 11.883 18.5293 11.921 18.4223 11.956C18.0593 12.065 17.5053 12.245 17.3493 12.607C17.2773 12.788 17.3003 13.028 17.4473 13.304L17.4593 13.317C17.5073 13.426 18.6873 16.112 21.3133 16.546C21.5173 16.581 21.6623 16.763 21.6503 16.955C21.6503 17.015 21.6373 17.074 21.6143 17.136C21.4213 17.593 20.5913 17.931 19.0843 18.157C19.0373 18.23 18.9883 18.459 18.9523 18.616C18.9303 18.76 18.8923 18.905 18.8453 19.06C18.7843 19.278 18.6283 19.385 18.3993 19.385H18.3753C18.2683 19.385 18.1243 19.362 17.9423 19.326C17.6533 19.265 17.3283 19.218 16.9183 19.218C16.6783 19.218 16.4383 19.23 16.1863 19.278C15.7033 19.362 15.2823 19.651 14.8003 19.988C14.1133 20.469 13.3313 21.024 12.1513 21.024C12.1033 21.024 12.0553 21.012 12.0053 21.012H11.8863C10.7053 21.012 9.93532 20.469 9.24932 19.976C8.76832 19.638 8.35932 19.35 7.87632 19.265C7.62432 19.23 7.37032 19.205 7.13132 19.205C6.69632 19.205 6.36032 19.277 6.10832 19.325C5.93832 19.36 5.79432 19.384 5.67332 19.384C5.37232 19.384 5.25332 19.205 5.20332 19.047C5.15532 18.893 5.13232 18.734 5.09632 18.591C5.05832 18.445 5.01132 18.195 4.96332 18.133C3.42032 17.954 2.59032 17.616 2.39832 17.147C2.37332 17.096 2.35632 17.027 2.35432 16.966C2.34132 16.771 2.48732 16.592 2.69132 16.557C5.31632 16.123 6.49632 13.438 6.54532 13.325L6.55832 13.302C6.70332 13.025 6.73832 12.782 6.65432 12.603C6.49832 12.254 5.94332 12.074 5.58432 11.953C5.48632 11.93 5.39032 11.893 5.30532 11.857C4.41532 11.507 4.29432 11.109 4.34332 10.833C4.41532 10.449 4.88432 10.196 5.28232 10.196C5.39932 10.196 5.49932 10.219 5.59032 10.256C5.92732 10.411 6.22532 10.497 6.47832 10.497C6.66632 10.497 6.78732 10.449 6.85132 10.412L6.81032 9.954C6.73032 8.647 6.62832 7.019 7.05732 6.065C8.29332 3.229 10.9863 3.011 11.7813 3.011L12.1163 3H12.1653C12.9613 3 15.6603 3.223 16.9343 6.073Z" fill="#17191A"/>
</svg>
