<svg width="24" height="24" viewBox="0 0 24 24" fill="none" xmlns="http://www.w3.org/2000/svg">
<path d="M13.3 20.2002C14.1284 20.2002 14.8 19.5286 14.8 18.7002C14.8 17.8718 14.1284 17.2002 13.3 17.2002C12.4716 17.2002 11.8 17.8718 11.8 18.7002C11.8 19.5286 12.4716 20.2002 13.3 20.2002Z" fill="#17191A"/>
<path d="M9.90002 23.1001C10.7285 23.1001 11.4 22.4285 11.4 21.6001C11.4 20.7717 10.7285 20.1001 9.90002 20.1001C9.0716 20.1001 8.40002 20.7717 8.40002 21.6001C8.40002 22.4285 9.0716 23.1001 9.90002 23.1001Z" fill="#17191A"/>
<path d="M9.79999 17.2002C10.6284 17.2002 11.3 16.5286 11.3 15.7002C11.3 14.8718 10.6284 14.2002 9.79999 14.2002C8.97156 14.2002 8.29999 14.8718 8.29999 15.7002C8.29999 16.5286 8.97156 17.2002 9.79999 17.2002Z" fill="#17191A"/>
<path fill-rule="evenodd" clip-rule="evenodd" d="M11 3.75C8.11421 3.75 5.75 6.11421 5.75 9V9.8874L5.3046 10.0854C4.44298 10.4683 3.83435 10.8542 3.425 11.4C3.0253 11.9329 2.75 12.7086 2.75 14C2.75 16.3858 4.61421 18.25 7 18.25C7.41421 18.25 7.75 18.5858 7.75 19C7.75 19.4142 7.41421 19.75 7 19.75C3.78579 19.75 1.25 17.2142 1.25 14C1.25 12.4914 1.5747 11.3671 2.225 10.5C2.76339 9.78215 3.47883 9.3045 4.25044 8.92277C4.29217 5.2438 7.31156 2.25 11 2.25C12.8835 2.25 14.4382 3.08037 15.5612 4.17558C16.5015 5.09274 17.1697 6.224 17.4937 7.28495C18.6587 7.42277 19.71 7.9598 20.506 8.74551C21.8467 9.87469 22.75 11.5697 22.75 13.5C22.75 17.0231 19.9053 19.75 16.5 19.75C16.0858 19.75 15.75 19.4142 15.75 19C15.75 18.5858 16.0858 18.25 16.5 18.25C19.0947 18.25 21.25 16.1769 21.25 13.5C21.25 12.0427 20.5649 10.7471 19.5199 9.87617L19.4937 9.85439L19.4697 9.83033C18.8009 9.16151 17.8881 8.75 16.9 8.75H16.2794L16.1632 8.14033C15.9944 7.25398 15.426 6.1391 14.5138 5.24942C13.6118 4.36963 12.4165 3.75 11 3.75Z" fill="#17191A"/>
</svg>
