<svg width="24" height="24" viewBox="0 0 24 24" fill="none" xmlns="http://www.w3.org/2000/svg">
<path fill-rule="evenodd" clip-rule="evenodd" d="M8.25 12C8.25 9.92879 9.92879 8.25 12 8.25C14.0712 8.25 15.75 9.92879 15.75 12C15.75 14.0712 14.0712 15.75 12 15.75C9.92879 15.75 8.25 14.0712 8.25 12ZM12 9.75C10.7572 9.75 9.75 10.7572 9.75 12C9.75 13.2428 10.7572 14.25 12 14.25C13.2428 14.25 14.25 13.2428 14.25 12C14.25 10.7572 13.2428 9.75 12 9.75Z" fill="#17191A"/>
<path fill-rule="evenodd" clip-rule="evenodd" d="M4.25 10.75H2V9.25H5.75V14.75H2V13.25H4.25V10.75Z" fill="#17191A"/>
<path fill-rule="evenodd" clip-rule="evenodd" d="M18.25 9.25H22V10.75H19.75V13.25H22V14.75H18.25V9.25Z" fill="#17191A"/>
<path fill-rule="evenodd" clip-rule="evenodd" d="M11.25 19V5H12.75V19H11.25Z" fill="#17191A"/>
<path fill-rule="evenodd" clip-rule="evenodd" d="M1.25 4.25H22.75V19.75H1.25V4.25ZM2.75 5.75V18.25H21.25V5.75H2.75Z" fill="#17191A"/>
</svg>
