<svg width="24" height="24" viewBox="0 0 24 24" fill="none" xmlns="http://www.w3.org/2000/svg">
<path d="M1 4V20H23V4H1ZM11 13.722C10.405 13.375 10 12.737 10 12C10 11.263 10.405 10.625 11 10.278V13.722ZM13 10.278C13.595 10.625 14 11.263 14 12C14 12.737 13.595 13.375 13 13.722V10.279V10.278ZM3 11H4V13H3V11ZM3 15H6V9H3V6H11V8.142C9.28 8.589 8 10.142 8 12C8 13.858 9.28 15.411 11 15.858V18H3V15ZM13 18V15.858C14.721 15.411 16 13.859 16 12C16 10.141 14.721 8.589 13 8.142V6H21V9H18V15H21V18H13ZM21 11V13H20V11H21Z" fill="#17191A"/>
</svg>
