<svg width="24" height="24" viewBox="0 0 24 24" fill="none" xmlns="http://www.w3.org/2000/svg">
<path d="M8.8 3H5.2C3.98497 3 3 3.98497 3 5.2V8.8C3 10.015 3.98497 11 5.2 11H8.8C10.015 11 11 10.015 11 8.8V5.2C11 3.98497 10.015 3 8.8 3Z" fill="#17191A"/>
<path d="M8.8 13H5.2C3.98497 13 3 13.985 3 15.2V18.8C3 20.015 3.98497 21 5.2 21H8.8C10.015 21 11 20.015 11 18.8V15.2C11 13.985 10.015 13 8.8 13Z" fill="#17191A"/>
<path d="M20.293 14.293L18 16.586V3H16V16.586L13.707 14.293L12.293 15.707L17 20.414L21.707 15.707L20.293 14.293Z" fill="#17191A"/>
</svg>
