<svg width="24" height="24" viewBox="0 0 24 24" fill="none" xmlns="http://www.w3.org/2000/svg">
<path fill-rule="evenodd" clip-rule="evenodd" d="M5.2 4.75C4.95121 4.75 4.75 4.95121 4.75 5.2V8.8C4.75 9.04879 4.95121 9.25 5.2 9.25H8.8C9.04879 9.25 9.25 9.04879 9.25 8.8V5.2C9.25 4.95121 9.04879 4.75 8.8 4.75H5.2ZM3.25 5.2C3.25 4.12279 4.12279 3.25 5.2 3.25H8.8C9.87721 3.25 10.75 4.12279 10.75 5.2V8.8C10.75 9.87721 9.87721 10.75 8.8 10.75H5.2C4.12279 10.75 3.25 9.87721 3.25 8.8V5.2Z" fill="#17191A"/>
<path fill-rule="evenodd" clip-rule="evenodd" d="M5.2 14.75C4.95121 14.75 4.75 14.9512 4.75 15.2V18.8C4.75 19.0488 4.95121 19.25 5.2 19.25H8.8C9.04879 19.25 9.25 19.0488 9.25 18.8V15.2C9.25 14.9512 9.04879 14.75 8.8 14.75H5.2ZM3.25 15.2C3.25 14.1228 4.12279 13.25 5.2 13.25H8.8C9.87721 13.25 10.75 14.1228 10.75 15.2V18.8C10.75 19.8772 9.87721 20.75 8.8 20.75H5.2C4.12279 20.75 3.25 19.8772 3.25 18.8V15.2Z" fill="#17191A"/>
<path fill-rule="evenodd" clip-rule="evenodd" d="M17 3.93945L21.5303 8.46978L20.4697 9.53044L17 6.06077L13.5303 9.53044L12.4697 8.46978L17 3.93945Z" fill="#17191A"/>
<path fill-rule="evenodd" clip-rule="evenodd" d="M16.25 21V5H17.75V21H16.25Z" fill="#17191A"/>
</svg>
