<svg width="24" height="24" viewBox="0 0 24 24" fill="none" xmlns="http://www.w3.org/2000/svg">
<path d="M8.8 3H5.2C3.98497 3 3 3.98497 3 5.2V8.8C3 10.015 3.98497 11 5.2 11H8.8C10.015 11 11 10.015 11 8.8V5.2C11 3.98497 10.015 3 8.8 3Z" fill="#17191A"/>
<path d="M8.8 13H5.2C3.98497 13 3 13.985 3 15.2V18.8C3 20.015 3.98497 21 5.2 21H8.8C10.015 21 11 20.015 11 18.8V15.2C11 13.985 10.015 13 8.8 13Z" fill="#17191A"/>
<path d="M21.707 8.29294L17 3.58594L12.293 8.29294L13.707 9.70694L16 7.41394V20.9999H18V7.41394L20.293 9.70694L21.707 8.29294Z" fill="#17191A"/>
</svg>
