<svg width="24" height="24" viewBox="0 0 24 24" fill="none" xmlns="http://www.w3.org/2000/svg">
<path d="M6.5 4.99977C6.5 5.07477 6.451 5.15577 6.363 5.22877C5.937 5.58077 5.878 6.21077 6.23 6.63677C6.428 6.87577 6.713 6.99977 7.001 6.99977C7.226 6.99977 7.451 6.92477 7.638 6.77077C8.186 6.31677 8.501 5.67177 8.501 4.99977C8.501 4.32777 8.187 3.68277 7.638 3.22877C7.55 3.15577 7.501 3.07377 7.501 2.99977C7.501 2.92577 7.55 2.84377 7.638 2.77077C8.064 2.41877 8.123 1.78877 7.771 1.36277C7.418 0.936773 6.788 0.877773 6.363 1.22977C5.815 1.68377 5.5 2.32877 5.5 3.00077C5.5 3.67277 5.814 4.31777 6.363 4.77177C6.451 4.84477 6.5 4.92577 6.5 4.99977Z" fill="#17191A"/>
<path d="M11.5 4.99977C11.5 5.07477 11.451 5.15577 11.363 5.22877C10.937 5.58077 10.878 6.21077 11.23 6.63677C11.428 6.87577 11.713 6.99977 12.001 6.99977C12.226 6.99977 12.451 6.92477 12.638 6.77077C13.186 6.31677 13.501 5.67177 13.501 4.99977C13.501 4.32777 13.187 3.68277 12.638 3.22877C12.55 3.15577 12.501 3.07377 12.501 2.99977C12.501 2.92577 12.55 2.84377 12.638 2.77077C13.063 2.41877 13.124 1.78877 12.771 1.36277C12.419 0.936773 11.789 0.877773 11.363 1.22977C10.815 1.68377 10.5 2.32877 10.5 3.00077C10.5 3.67277 10.814 4.31777 11.363 4.77177C11.451 4.84477 11.5 4.92577 11.5 4.99977Z" fill="#17191A"/>
<path d="M20 7.99977H4C2.897 7.99977 2 8.89677 2 9.99977V13.4998C2 16.0118 3.695 18.1308 6 18.7868V19.9998C6 21.1028 6.897 21.9998 8 21.9998H16C17.103 21.9998 18 21.1028 18 19.9998V18.7868C20.305 18.1318 22 16.0118 22 13.4998V9.99977C22 8.89677 21.103 7.99977 20 7.99977ZM20 13.4998C20 15.4298 18.43 16.9998 16.5 16.9998H7.5C5.57 16.9998 4 15.4298 4 13.4998V9.99977H20V13.4998Z" fill="#17191A"/>
<path d="M16.5 4.99977C16.5 5.07477 16.451 5.15577 16.362 5.22877C15.937 5.58077 15.877 6.21077 16.229 6.63677C16.426 6.87577 16.712 6.99977 17 6.99977C17.224 6.99977 17.45 6.92477 17.637 6.77077C18.185 6.31677 18.499 5.67177 18.499 4.99977C18.499 4.32777 18.185 3.68277 17.637 3.22877C17.548 3.15577 17.499 3.07377 17.499 2.99977C17.499 2.92577 17.548 2.84377 17.637 2.77077C18.062 2.41877 18.122 1.78877 17.77 1.36277C17.42 0.937773 16.789 0.876773 16.362 1.22977C15.814 1.68377 15.5 2.32877 15.5 3.00077C15.5 3.67277 15.814 4.31777 16.362 4.77177C16.451 4.84477 16.5 4.92577 16.5 4.99977Z" fill="#17191A"/>
</svg>
