<svg width="24" height="24" viewBox="0 0 24 24" fill="none" xmlns="http://www.w3.org/2000/svg">
<path fill-rule="evenodd" clip-rule="evenodd" d="M7.5778 1.52184C7.84189 1.84095 7.79728 2.31373 7.47818 2.57782C7.30329 2.72255 7.24975 2.87852 7.24975 3.00002C7.24975 3.12152 7.30329 3.27749 7.47818 3.42222C7.97029 3.82949 8.25025 4.39752 8.25025 5.00002C8.25025 5.60252 7.97029 6.17055 7.47818 6.57782C7.15907 6.84191 6.68629 6.7973 6.4222 6.4782C6.15812 6.15909 6.20272 5.68631 6.52182 5.42222C6.69671 5.27749 6.75025 5.12152 6.75025 5.00002C6.75025 4.87852 6.69671 4.72255 6.52182 4.57782C6.02971 4.17055 5.74975 3.60252 5.74975 3.00002C5.74975 2.39752 6.02971 1.82949 6.52182 1.42222C6.84093 1.15814 7.31371 1.20274 7.5778 1.52184Z" fill="#17191A"/>
<path fill-rule="evenodd" clip-rule="evenodd" d="M12.5778 1.52184C12.8419 1.84095 12.7973 2.31373 12.4782 2.57782C12.3033 2.72255 12.2498 2.87852 12.2498 3.00002C12.2498 3.12152 12.3033 3.27749 12.4782 3.42222C12.9703 3.82949 13.2502 4.39752 13.2502 5.00002C13.2502 5.60252 12.9703 6.17055 12.4782 6.57782C12.1591 6.84191 11.6863 6.7973 11.4222 6.4782C11.1581 6.15909 11.2027 5.68631 11.5218 5.42222C11.6967 5.27749 11.7502 5.12152 11.7502 5.00002C11.7502 4.87852 11.6967 4.72255 11.5218 4.57782C11.0297 4.17055 10.7498 3.60252 10.7498 3.00002C10.7498 2.39752 11.0297 1.82949 11.5218 1.42222C11.8409 1.15814 12.3137 1.20274 12.5778 1.52184Z" fill="#17191A"/>
<path fill-rule="evenodd" clip-rule="evenodd" d="M4 9.75002C3.86221 9.75002 3.75 9.86223 3.75 10V13.5C3.75 15.5698 5.43021 17.25 7.5 17.25H16.5C18.5698 17.25 20.25 15.5698 20.25 13.5V10C20.25 9.86223 20.1378 9.75002 20 9.75002H4ZM2.25 10C2.25 9.03381 3.03379 8.25002 4 8.25002H20C20.9662 8.25002 21.75 9.03381 21.75 10V13.5C21.75 16.3982 19.3982 18.75 16.5 18.75H7.5C4.60179 18.75 2.25 16.3982 2.25 13.5V10Z" fill="#17191A"/>
<path fill-rule="evenodd" clip-rule="evenodd" d="M6.25 18C6.25 17.5858 6.58579 17.25 7 17.25H17C17.4142 17.25 17.75 17.5858 17.75 18V20C17.75 20.9662 16.9662 21.75 16 21.75H8C7.03379 21.75 6.25 20.9662 6.25 20V18ZM7.75 18.75V20C7.75 20.1378 7.86221 20.25 8 20.25H16C16.1378 20.25 16.25 20.1378 16.25 20V18.75H7.75Z" fill="#17191A"/>
<path fill-rule="evenodd" clip-rule="evenodd" d="M17.5778 1.52184C17.8419 1.84095 17.7973 2.31373 17.4782 2.57782C17.3033 2.72255 17.2498 2.87852 17.2498 3.00002C17.2498 3.12152 17.3033 3.27749 17.4782 3.42222C17.9703 3.82949 18.2502 4.39752 18.2502 5.00002C18.2502 5.60252 17.9703 6.17055 17.4782 6.57782C17.1591 6.84191 16.6863 6.7973 16.4222 6.4782C16.1581 6.15909 16.2027 5.68631 16.5218 5.42222C16.6967 5.27749 16.7502 5.12152 16.7502 5.00002C16.7502 4.87852 16.6967 4.72255 16.5218 4.57782C16.0297 4.17055 15.7498 3.60252 15.7498 3.00002C15.7498 2.39752 16.0297 1.82949 16.5218 1.42222C16.8409 1.15814 17.3137 1.20274 17.5778 1.52184Z" fill="#17191A"/>
</svg>
