<svg width="24" height="24" viewBox="0 0 24 24" fill="none" xmlns="http://www.w3.org/2000/svg">
<path fill-rule="evenodd" clip-rule="evenodd" d="M9 2.75C7.20507 2.75 5.75 4.20507 5.75 6V18C5.75 19.7949 7.20507 21.25 9 21.25H15C16.7949 21.25 18.25 19.7949 18.25 18V6C18.25 4.20507 16.7949 2.75 15 2.75H9ZM4.25 6C4.25 3.37665 6.37665 1.25 9 1.25H15C17.6234 1.25 19.75 3.37665 19.75 6V18C19.75 20.6234 17.6234 22.75 15 22.75H9C6.37665 22.75 4.25 20.6234 4.25 18V6Z" fill="#17191A"/>
<path fill-rule="evenodd" clip-rule="evenodd" d="M9.25 7C9.25 5.48579 10.4858 4.25 12 4.25C13.5142 4.25 14.75 5.48579 14.75 7C14.75 8.51421 13.5142 9.75 12 9.75C10.4858 9.75 9.25 8.51421 9.25 7ZM12 5.75C11.3142 5.75 10.75 6.31421 10.75 7C10.75 7.68579 11.3142 8.25 12 8.25C12.6858 8.25 13.25 7.68579 13.25 7C13.25 6.31421 12.6858 5.75 12 5.75Z" fill="#17191A"/>
<path fill-rule="evenodd" clip-rule="evenodd" d="M8.25 15C8.25 12.8858 9.88579 11.25 12 11.25C14.1142 11.25 15.75 12.8858 15.75 15C15.75 17.1142 14.1142 18.75 12 18.75C9.88579 18.75 8.25 17.1142 8.25 15ZM12 12.75C10.7142 12.75 9.75 13.7142 9.75 15C9.75 16.2858 10.7142 17.25 12 17.25C13.2858 17.25 14.25 16.2858 14.25 15C14.25 13.7142 13.2858 12.75 12 12.75Z" fill="#17191A"/>
</svg>
