<svg width="24" height="24" viewBox="0 0 24 24" fill="none" xmlns="http://www.w3.org/2000/svg">
<path d="M12 13C10.86 13 10 13.859 10 15C10 16.141 10.86 17 12 17C13.14 17 14 16.141 14 15C14 13.859 13.141 13 12 13Z" fill="#17191A"/>
<path d="M12 8C12.5523 8 13 7.55228 13 7C13 6.44772 12.5523 6 12 6C11.4477 6 11 6.44772 11 7C11 7.55228 11.4477 8 12 8Z" fill="#17191A"/>
<path d="M15 1H9C6.243 1 4 3.243 4 6V18C4 20.757 6.243 23 9 23H15C17.757 23 20 20.757 20 18V6C20 3.243 17.757 1 15 1ZM12 4C13.654 4 15 5.346 15 7C15 8.654 13.654 10 12 10C10.346 10 9 8.654 9 7C9 5.346 10.346 4 12 4ZM12 19C9.757 19 8 17.243 8 15C8 12.757 9.757 11 12 11C14.243 11 16 12.757 16 15C16 17.243 14.243 19 12 19Z" fill="#17191A"/>
</svg>
