<svg width="24" height="24" viewBox="0 0 24 24" fill="none" xmlns="http://www.w3.org/2000/svg">
<path d="M21.2004 10.1998C20.4004 8.39981 19.2004 6.7998 17.5004 5.6998C14.2004 3.4998 9.70039 3.4998 6.40039 5.6998C4.70039 6.7998 3.50039 8.39981 2.70039 10.1998C1.90039 11.9998 1.70039 13.9998 2.10039 15.9998C2.40039 17.2998 2.90039 18.4998 3.60039 19.5998L5.30039 18.4998C4.70039 17.5998 4.30039 16.5998 4.10039 15.5998C3.80039 13.9998 4.00039 12.3998 4.60039 10.9998C5.20039 9.4998 6.20039 8.29981 7.50039 7.39981C10.1004 5.59981 13.7004 5.59981 16.4004 7.39981C17.7004 8.29981 18.7004 9.4998 19.3004 10.9998C19.9004 12.3998 20.1004 13.9998 19.8004 15.5998C19.6004 16.5998 19.2004 17.5998 18.6004 18.4998L20.3004 19.5998C21.1004 18.4998 21.6004 17.2998 21.8004 15.8998C22.2004 13.8998 22.0004 11.8998 21.2004 10.0998V10.1998Z" fill="#17191A"/>
<path d="M15.3286 9.22779L11.2981 13.2583L12.7123 14.6725L16.7428 10.642L15.3286 9.22779Z" fill="#17191A"/>
</svg>
