<svg width="24" height="24" viewBox="0 0 24 24" fill="none" xmlns="http://www.w3.org/2000/svg">
<path fill-rule="evenodd" clip-rule="evenodd" d="M11.7496 5.5C10.1186 5.5 8.52366 5.98565 7.16664 6.89339C5.80963 7.80112 4.75616 9.08385 4.13306 10.5958L4.13097 10.6009C3.50106 12.098 3.34341 13.7554 3.65525 15.3637C3.87553 16.4446 4.30623 17.4616 4.92077 18.3696L3.67852 19.2104C2.95367 18.1393 2.44461 16.9374 2.18469 15.6595L2.18338 15.653C1.81623 13.7633 1.9985 11.8028 2.74727 10.0217C3.48431 8.2347 4.73041 6.71838 6.33265 5.64661C7.93563 4.57435 9.82067 4 11.7496 4C13.6786 4 15.5637 4.57435 17.1666 5.64661C18.7689 6.71841 20.0151 8.23481 20.7521 10.0219C21.5008 11.803 21.683 13.7634 21.3159 15.653L21.3146 15.6595C21.0547 16.9374 20.5456 18.1393 19.8208 19.2104L18.5785 18.3696C19.1931 17.4616 19.6238 16.4445 19.8441 15.3636C20.1559 13.7553 19.9982 12.098 19.3683 10.6009L19.3662 10.5958C18.7431 9.08386 17.6897 7.80112 16.3326 6.89339C14.9756 5.98565 13.3807 5.5 11.7496 5.5Z" fill="#17191A"/>
<path fill-rule="evenodd" clip-rule="evenodd" d="M11.2193 13.2197L15.2193 9.21973L16.28 10.2804L12.28 14.2804L11.2193 13.2197Z" fill="#17191A"/>
</svg>
