<svg width="24" height="24" viewBox="0 0 24 24" fill="none" xmlns="http://www.w3.org/2000/svg">
<path fill-rule="evenodd" clip-rule="evenodd" d="M17.2399 14.595H18.8399V21H4.38086V14.595H5.97886V19.399H17.2399V14.595ZM15.6369 17.8V16.196H7.58186V17.8H15.6369ZM15.6359 15.801L15.9759 14.249L8.11486 12.607L7.77686 14.16L15.6359 15.801ZM16.0759 13.764L16.7539 12.301L9.47286 8.90202L8.79486 10.356V10.366L16.0759 13.764ZM16.9979 11.919L18.0159 10.703L11.8539 5.56302L10.8379 6.77602L10.8319 6.77702L16.9979 11.919ZM13.5029 3.96802L18.3059 10.422L19.6189 9.45102L14.8119 2.99902H14.8139L13.5029 3.96802Z" fill="#17191A"/>
</svg>
