<svg width="24" height="24" viewBox="0 0 24 24" fill="none" xmlns="http://www.w3.org/2000/svg">
<path d="M8.90002 8.3L2.00002 9.3L7.00002 14.1L5.80002 21L12 17.8V2L8.90002 8.3Z" fill="#17191A"/>
<path fill-rule="evenodd" clip-rule="evenodd" d="M12 1.25C12.2858 1.25 12.5468 1.41243 12.673 1.66887L15.5986 7.61442L22.1076 8.55775C22.3898 8.59866 22.6244 8.79607 22.713 9.06715C22.8015 9.33823 22.7286 9.63606 22.525 9.83566L17.8065 14.4598L18.9389 20.9715C18.9877 21.2521 18.8734 21.5361 18.6439 21.7046C18.4143 21.8731 18.1091 21.8971 17.856 21.7665L12 18.744L6.144 21.7665C5.89095 21.8971 5.58575 21.8731 5.35619 21.7046C5.12663 21.5361 5.01232 21.2521 5.06111 20.9715L6.19358 14.4598L1.47508 9.83566C1.2714 9.63606 1.19855 9.33823 1.28708 9.06715C1.37562 8.79607 1.61023 8.59866 1.89245 8.55775L8.40149 7.61442L11.3271 1.66887C11.4533 1.41243 11.7142 1.25 12 1.25ZM12 3.69872L9.57296 8.63113C9.4638 8.85299 9.2523 9.00678 9.00759 9.04225L3.60719 9.82491L7.52497 13.6643C7.7012 13.8371 7.78121 14.0854 7.73893 14.3285L6.79761 19.7411L11.656 17.2335C11.8718 17.1222 12.1282 17.1222 12.344 17.2335L17.2024 19.7411L16.2611 14.3285C16.2188 14.0854 16.2988 13.8371 16.4751 13.6643L20.3929 9.82491L14.9925 9.04225C14.7477 9.00678 14.5362 8.85299 14.4271 8.63113L12 3.69872Z" fill="#17191A"/>
</svg>
