<svg width="24" height="24" viewBox="0 0 24 24" fill="none" xmlns="http://www.w3.org/2000/svg">
<path d="M22.9495 8.989C22.8325 8.628 22.5185 8.364 22.1425 8.31L15.7635 7.386L12.8965 1.559C12.7285 1.217 12.3795 1 11.9995 1C11.6195 1 11.2705 1.217 11.1025 1.559L8.23545 7.386L1.85645 8.31C1.48045 8.365 1.16745 8.628 1.04945 8.989C0.931454 9.35 1.02845 9.748 1.29945 10.014L5.92445 14.547L4.81445 20.929C4.74945 21.303 4.90145 21.681 5.20845 21.906C5.51445 22.131 5.92145 22.162 6.25845 21.989L12.0005 19.026L17.7415 21.989C17.8865 22.063 18.0435 22.1 18.2005 22.1C18.4095 22.1 18.6175 22.035 18.7925 21.906C19.0985 21.681 19.2505 21.303 19.1865 20.929L18.0765 14.547L22.7015 10.014C22.9725 9.748 23.0695 9.35 22.9515 8.989H22.9495ZM16.2995 13.486C16.0655 13.715 15.9575 14.048 16.0145 14.371L16.8695 19.288L12.4575 17.012C12.3135 16.938 12.1565 16.901 11.9995 16.901V4.265L14.2015 8.741C14.3475 9.037 14.6295 9.242 14.9555 9.289L19.8565 9.999L16.2995 13.486Z" fill="#17191A"/>
</svg>
