<svg width="24" height="24" viewBox="0 0 24 24" fill="none" xmlns="http://www.w3.org/2000/svg">
<path fill-rule="evenodd" clip-rule="evenodd" d="M11.75 2C12.0358 2 12.2968 2.16243 12.423 2.41887L15.3486 8.36442L21.8576 9.30775C22.1398 9.34866 22.3744 9.54607 22.463 9.81715C22.5515 10.0882 22.4786 10.3861 22.275 10.5857L17.5565 15.2098L18.6889 21.7215C18.7377 22.0021 18.6234 22.2861 18.3939 22.4546C18.1643 22.6231 17.8591 22.6471 17.606 22.5165L11.75 19.494L5.894 22.5165C5.64095 22.6471 5.33575 22.6231 5.10619 22.4546C4.87663 22.2861 4.76232 22.0021 4.81111 21.7215L5.94358 15.2098L1.22508 10.5857C1.0214 10.3861 0.948548 10.0882 1.03708 9.81715C1.12562 9.54607 1.36023 9.34866 1.64245 9.30775L8.15149 8.36442L11.0771 2.41887C11.2033 2.16243 11.4642 2 11.75 2ZM11.75 4.44872L9.32296 9.38113C9.2138 9.60299 9.0023 9.75678 8.75759 9.79225L3.35719 10.5749L7.27497 14.4143C7.4512 14.5871 7.53121 14.8354 7.48893 15.0785L6.54761 20.4911L11.406 17.9835C11.6218 17.8722 11.8782 17.8722 12.094 17.9835L16.9524 20.4911L16.0111 15.0785C15.9688 14.8354 16.0488 14.5871 16.2251 14.4143L20.1429 10.5749L14.7425 9.79225C14.4977 9.75678 14.2862 9.60299 14.1771 9.38113L11.75 4.44872Z" fill="#17191A"/>
</svg>
