<svg width="24" height="24" viewBox="0 0 24 24" fill="none" xmlns="http://www.w3.org/2000/svg">
<path d="M23.0375 8.925C22.9375 8.525 22.6375 8.325 22.2375 8.225L15.8375 7.325L12.9375 1.525C12.6375 0.825 11.4375 0.825 11.1375 1.525L8.2375 7.325L1.8375 8.225C1.4375 8.225 1.1375 8.525 1.0375 8.925C0.9375 9.325 1.0375 9.725 1.3375 9.925L5.9375 14.425L4.8375 20.825C4.8375 21.225 4.8375 21.625 5.2375 21.825C5.5375 22.025 5.9375 22.125 6.3375 21.825L12.0375 18.825L17.7375 21.825C17.8375 21.825 18.0375 21.925 18.2375 21.925C18.4375 21.925 18.6375 21.925 18.8375 21.725C19.1375 21.525 19.3375 21.125 19.2375 20.725L18.1375 14.325L22.7375 9.825C23.0375 9.525 23.1375 9.125 23.0375 8.825V8.925Z" fill="#17191A"/>
</svg>
