<svg width="24" height="24" viewBox="0 0 24 24" fill="none" xmlns="http://www.w3.org/2000/svg">
<path fill-rule="evenodd" clip-rule="evenodd" d="M12 6.75C8.27208 6.75 5.25 9.77208 5.25 13.5C5.25 17.2279 8.27208 20.25 12 20.25C15.7279 20.25 18.75 17.2279 18.75 13.5C18.75 9.77208 15.7279 6.75 12 6.75ZM3.75 13.5C3.75 8.94365 7.44365 5.25 12 5.25C16.5563 5.25 20.25 8.94365 20.25 13.5C20.25 18.0563 16.5563 21.75 12 21.75C7.44365 21.75 3.75 18.0563 3.75 13.5Z" fill="#17191A"/>
<path fill-rule="evenodd" clip-rule="evenodd" d="M12.75 9V13H11.25V9H12.75Z" fill="#17191A"/>
<path fill-rule="evenodd" clip-rule="evenodd" d="M15 3.75H9V2.25H15V3.75Z" fill="#17191A"/>
<path fill-rule="evenodd" clip-rule="evenodd" d="M20.4697 7.53033L18.4697 5.53033L19.5303 4.46967L21.5303 6.46967L20.4697 7.53033Z" fill="#17191A"/>
</svg>
