<svg width="24" height="24" viewBox="0 0 24 24" fill="none" xmlns="http://www.w3.org/2000/svg">
<path d="M19 2H5C3.346 2 2 3.346 2 5V7.6C2 8.566 2.379 9.42 3 10.04V22H21V10.116C21.634 9.513 22 8.649 22 7.6V5C22 3.346 20.654 2 19 2ZM5 20V10.994C5.808 11.08 6.645 10.82 7.323 10.245C7.389 10.189 7.452 10.131 7.513 10.071C7.992 10.54 8.617 10.866 9.335 10.986C10.193 11.13 11.099 10.859 11.823 10.245C11.889 10.189 11.952 10.131 12.013 10.071C12.492 10.54 13.117 10.866 13.835 10.986C14.692 11.13 15.598 10.859 16.322 10.245C16.371 10.204 16.418 10.162 16.464 10.119C16.512 10.167 16.562 10.213 16.613 10.258C17.192 10.759 17.907 11.024 18.666 11.024C18.776 11.024 18.887 11.011 18.999 11V20H5Z" fill="#17191A"/>
<path d="M14 12C12.346 12 11 13.346 11 15V18H17V15C17 13.346 15.654 12 14 12ZM15 16H13V15C13 14.448 13.448 14 14 14C14.552 14 15 14.448 15 15V16Z" fill="#17191A"/>
</svg>
