<svg width="24" height="24" viewBox="0 0 24 24" fill="none" xmlns="http://www.w3.org/2000/svg">
<path fill-rule="evenodd" clip-rule="evenodd" d="M11.2785 11.3038C11.6631 11.4577 11.8502 11.8942 11.6964 12.2787L10.1078 16.2502H13C13.2489 16.2502 13.4815 16.3736 13.6211 16.5797C13.7606 16.7858 13.7888 17.0477 13.6964 17.2787L11.6964 22.2787C11.5425 22.6633 11.106 22.8504 10.7215 22.6966C10.3369 22.5427 10.1498 22.1062 10.3036 21.7217L11.8922 17.7502H9C8.75114 17.7502 8.51848 17.6268 8.37895 17.4207C8.23943 17.2146 8.21122 16.9527 8.30365 16.7217L10.3036 11.7217C10.4575 11.3371 10.894 11.15 11.2785 11.3038Z" fill="#17191A"/>
<path fill-rule="evenodd" clip-rule="evenodd" d="M11 3.75C8.11421 3.75 5.75 6.11421 5.75 9V9.8874L5.3046 10.0854C4.44298 10.4683 3.83435 10.8542 3.425 11.4C3.0253 11.9329 2.75 12.7086 2.75 14C2.75 16.3858 4.61421 18.25 7 18.25C7.41421 18.25 7.75 18.5858 7.75 19C7.75 19.4142 7.41421 19.75 7 19.75C3.78579 19.75 1.25 17.2142 1.25 14C1.25 12.4914 1.5747 11.3671 2.225 10.5C2.76339 9.78215 3.47883 9.3045 4.25044 8.92277C4.29217 5.2438 7.31156 2.25 11 2.25C12.8835 2.25 14.4382 3.08037 15.5612 4.17558C16.5015 5.09274 17.1697 6.224 17.4937 7.28495C18.6587 7.42277 19.71 7.9598 20.506 8.74551C21.8467 9.87469 22.75 11.5697 22.75 13.5C22.75 17.0231 19.9053 19.75 16.5 19.75C16.0858 19.75 15.75 19.4142 15.75 19C15.75 18.5858 16.0858 18.25 16.5 18.25C19.0947 18.25 21.25 16.1769 21.25 13.5C21.25 12.0427 20.5649 10.7471 19.5199 9.87617L19.4937 9.85439L19.4697 9.83033C18.8009 9.16151 17.8881 8.75 16.9 8.75H16.2794L16.1632 8.14033C15.9944 7.25398 15.426 6.1391 14.5138 5.24942C13.6118 4.36963 12.4165 3.75 11 3.75Z" fill="#17191A"/>
</svg>
