<svg width="24" height="24" viewBox="0 0 24 24" fill="none" xmlns="http://www.w3.org/2000/svg">
<path fill-rule="evenodd" clip-rule="evenodd" d="M2 5.75C2 4.23579 3.23579 3 4.75 3H18.75C20.2642 3 21.5 4.23579 21.5 5.75V8.35C21.5 9.06952 21.3201 9.79295 20.8708 10.3806C20.4119 10.9807 19.7255 11.3683 18.8561 11.4925C17.7712 11.6474 16.8274 11.2212 16.2194 10.5064C16.1317 10.6035 16.0388 10.6945 15.9418 10.7788C15.3344 11.3062 14.491 11.6338 13.6267 11.4898C12.862 11.3623 12.2221 10.9853 11.7653 10.4544C11.6644 10.5712 11.5559 10.6796 11.4418 10.7788C10.8344 11.3062 9.99101 11.6338 9.1267 11.4898C8.36202 11.3623 7.72209 10.9853 7.26535 10.4544C7.16441 10.5712 7.05592 10.6796 6.94176 10.7788C6.33442 11.3062 5.49101 11.6338 4.6267 11.4898C3.04724 11.2266 2 9.89826 2 8.35V5.75ZM8 8.35C8 9.20174 8.55276 9.87345 9.3733 10.0102C9.70899 10.0662 10.1156 9.94379 10.4582 9.64623C10.7981 9.35109 11 8.94721 11 8.55V8.35C11 7.93579 11.3358 7.6 11.75 7.6C12.1642 7.6 12.5 7.93579 12.5 8.35C12.5 9.20174 13.0528 9.87345 13.8733 10.0102C14.209 10.0662 14.6156 9.94379 14.9582 9.64623C15.2981 9.35109 15.5 8.94721 15.5 8.55C15.5 8.13579 15.8358 7.8 16.25 7.8C16.6642 7.8 17 8.13579 17 8.55C17 9.43605 17.7368 10.1371 18.6439 10.0075C19.1745 9.93174 19.4881 9.71929 19.6792 9.46941C19.8799 9.20705 20 8.83048 20 8.35V5.75C20 5.06421 19.4358 4.5 18.75 4.5H4.75C4.06421 4.5 3.5 5.06421 3.5 5.75V8.35C3.5 9.20174 4.05276 9.87345 4.8733 10.0102C5.20899 10.0662 5.61558 9.94379 5.95824 9.64623C6.29809 9.35109 6.5 8.94721 6.5 8.55V8.35C6.5 7.93579 6.83579 7.6 7.25 7.6C7.66421 7.6 8 7.93579 8 8.35Z" fill="#17191A"/>
<path fill-rule="evenodd" clip-rule="evenodd" d="M4.5 20V10.65H3V21.5H20.5V10.65H19V20H4.5Z" fill="#17191A"/>
<path fill-rule="evenodd" clip-rule="evenodd" d="M13.75 14.5C13.0642 14.5 12.5 15.0642 12.5 15.75V17H15V15.75C15 15.0642 14.4358 14.5 13.75 14.5ZM11 15.75C11 14.2358 12.2358 13 13.75 13C15.2642 13 16.5 14.2358 16.5 15.75V18.5H11V15.75Z" fill="#17191A"/>
</svg>
