<svg width="24" height="24" viewBox="0 0 24 24" fill="none" xmlns="http://www.w3.org/2000/svg">
<path d="M17.25 8C17.25 7.86193 17.1381 7.75 17 7.75H7C6.86193 7.75 6.75 7.86193 6.75 8V20C6.75 20.1381 6.86193 20.25 7 20.25H17C17.1381 20.25 17.25 20.1381 17.25 20V8ZM18.75 20C18.75 20.9665 17.9665 21.75 17 21.75H7C6.0335 21.75 5.25 20.9665 5.25 20V8C5.25 7.0335 6.0335 6.25 7 6.25H17C17.9665 6.25 18.75 7.0335 18.75 8V20Z" fill="#17191A"/>
<path d="M15.25 4C15.25 3.31021 14.6898 2.75 14 2.75H10C9.31021 2.75 8.75 3.31021 8.75 4V6.25H15.25V4ZM16.75 7.75H7.25V4C7.25 2.48179 8.48179 1.25 10 1.25H14C15.5182 1.25 16.75 2.48179 16.75 4V7.75Z" fill="#17191A"/>
<path d="M7.75 21V23H6.25V21H7.75Z" fill="#17191A"/>
<path d="M17.75 21V23H16.25V21H17.75Z" fill="#17191A"/>
</svg>
