<svg width="24" height="24" viewBox="0 0 24 24" fill="none" xmlns="http://www.w3.org/2000/svg">
<path d="M12 18C15.3137 18 18 15.3137 18 12C18 8.68629 15.3137 6 12 6C8.68629 6 6 8.68629 6 12C6 15.3137 8.68629 18 12 18Z" fill="#17191A"/>
<path d="M13 2H11V5H13V2Z" fill="#17191A"/>
<path d="M13 19H11V22H13V19Z" fill="#17191A"/>
<path d="M18.3241 4.24684L16.2028 6.36816L17.617 7.78238L19.7383 5.66106L18.3241 4.24684Z" fill="#17191A"/>
<path d="M6.32411 16.2175L4.20279 18.3389L5.617 19.7531L7.73832 17.6318L6.32411 16.2175Z" fill="#17191A"/>
<path d="M22 11H19V13H22V11Z" fill="#17191A"/>
<path d="M5 11H2V13H5V11Z" fill="#17191A"/>
<path d="M17.6023 16.2323L16.1881 17.6465L18.3094 19.7678L19.7236 18.3536L17.6023 16.2323Z" fill="#17191A"/>
<path d="M5.63174 4.23227L4.21753 5.64648L6.33885 7.7678L7.75306 6.35359L5.63174 4.23227Z" fill="#17191A"/>
</svg>
