<svg width="24" height="24" viewBox="0 0 24 24" fill="none" xmlns="http://www.w3.org/2000/svg">
<path fill-rule="evenodd" clip-rule="evenodd" d="M12 7.75C9.65279 7.75 7.75 9.65279 7.75 12C7.75 14.3472 9.65279 16.25 12 16.25C14.3472 16.25 16.25 14.3472 16.25 12C16.25 9.65279 14.3472 7.75 12 7.75ZM6.25 12C6.25 8.82436 8.82436 6.25 12 6.25C15.1756 6.25 17.75 8.82436 17.75 12C17.75 15.1756 15.1756 17.75 12 17.75C8.82436 17.75 6.25 15.1756 6.25 12Z" fill="#17191A"/>
<path fill-rule="evenodd" clip-rule="evenodd" d="M11.25 5V2H12.75V5H11.25Z" fill="#17191A"/>
<path fill-rule="evenodd" clip-rule="evenodd" d="M11.25 22V19H12.75V22H11.25Z" fill="#17191A"/>
<path fill-rule="evenodd" clip-rule="evenodd" d="M16.3697 6.56963L18.5697 4.36963L19.6303 5.43029L17.4303 7.63029L16.3697 6.56963Z" fill="#17191A"/>
<path fill-rule="evenodd" clip-rule="evenodd" d="M4.36966 18.5696L6.56966 16.3696L7.63032 17.4303L5.43032 19.6303L4.36966 18.5696Z" fill="#17191A"/>
<path fill-rule="evenodd" clip-rule="evenodd" d="M19 11.25H22V12.75H19V11.25Z" fill="#17191A"/>
<path fill-rule="evenodd" clip-rule="evenodd" d="M2 11.25H5V12.75H2V11.25Z" fill="#17191A"/>
<path fill-rule="evenodd" clip-rule="evenodd" d="M17.4303 16.3696L19.6303 18.5696L18.5697 19.6303L16.3697 17.4303L17.4303 16.3696Z" fill="#17191A"/>
<path fill-rule="evenodd" clip-rule="evenodd" d="M5.43032 4.36963L7.63032 6.56963L6.56966 7.63029L4.36966 5.43029L5.43032 4.36963Z" fill="#17191A"/>
</svg>
