<svg width="24" height="24" viewBox="0 0 24 24" fill="none" xmlns="http://www.w3.org/2000/svg">
<path d="M12 1C8.428 1 6.5 7.098 6.5 12.835C6.5 16.514 7.225 19.892 8.49 22.105C8.862 22.753 9.342 22.943 9.679 22.988C9.745 22.998 9.81 23.002 9.874 23.002C10.582 23.002 11.107 22.477 11.537 22.048C11.667 21.918 11.865 21.72 12.001 21.618C12.137 21.72 12.336 21.918 12.465 22.048C12.933 22.515 13.516 23.094 14.322 22.988C14.66 22.942 15.14 22.753 15.51 22.103C16.775 19.89 17.5 16.512 17.5 12.835C17.5 7.098 15.572 1 12 1ZM8.527 14H15.472C15.456 14.337 15.433 14.67 15.403 15H8.596C8.567 14.671 8.543 14.338 8.527 14ZM11 3.518V10C11 10.552 11.448 11 12 11C12.552 11 13 10.552 13 10V3.518C14.172 4.661 15.346 7.671 15.483 12H8.518C8.655 7.671 9.829 4.661 11.001 3.518H11ZM13.974 20.728C13.94 20.695 13.908 20.662 13.878 20.632C13.406 20.161 12.819 19.574 12 19.574C11.181 19.574 10.594 20.161 10.123 20.632L10.023 20.732C9.518 19.726 9.127 18.439 8.865 17.001H15.133C14.872 18.428 14.481 19.71 13.973 20.729L13.974 20.728Z" fill="#17191A"/>
</svg>
