<svg width="24" height="24" viewBox="0 0 24 24" fill="none" xmlns="http://www.w3.org/2000/svg">
<path d="M16.5 12.25V13.75H7.5V12.25H16.5Z" fill="#17191A"/>
<path d="M16.2996 15.25V16.75H7.7V15.25H16.2996Z" fill="#17191A"/>
<path d="M11.25 10V2C11.25 1.58579 11.5858 1.25 12 1.25C12.4142 1.25 12.75 1.58579 12.75 2V10C12.75 10.4142 12.4142 10.75 12 10.75C11.5858 10.75 11.25 10.4142 11.25 10Z" fill="#17191A"/>
<path d="M15.75 12.835C15.75 9.917 15.2573 7.31015 14.4893 5.46094C14.1046 4.53491 13.6658 3.83435 13.2168 3.37695C12.7702 2.92209 12.3591 2.75 12 2.75C11.6409 2.75 11.2298 2.92209 10.7832 3.37695C10.3342 3.83435 9.89538 4.53491 9.51074 5.46094C8.74269 7.31015 8.25 9.917 8.25 12.835C8.25 16.3012 8.94641 19.3077 9.95605 21.1357C9.99024 21.1062 10.0288 21.0724 10.0713 21.0322C10.2314 20.8808 10.5414 20.555 10.793 20.3438C11.0512 20.1269 11.4709 19.8242 12 19.8242L12.1934 19.8379C12.6316 19.8988 12.9812 20.1541 13.207 20.3438C13.4585 20.5549 13.7677 20.8809 13.9277 21.0322C13.9702 21.0724 14.0088 21.1063 14.043 21.1357C15.053 19.3078 15.75 16.3019 15.75 12.835ZM17.25 12.835C17.25 16.2898 16.5956 19.439 15.5146 21.5664L15.293 21.9785C15.1644 22.2033 14.9917 22.4229 14.75 22.5723C14.4876 22.7344 14.1996 22.7793 13.9258 22.7314C13.676 22.6878 13.4693 22.5725 13.3174 22.4688C13.162 22.3626 13.0189 22.2369 12.8975 22.1221C12.6131 21.8531 12.4627 21.6773 12.2422 21.4922C12.1008 21.3735 12.0249 21.3383 12 21.3281C11.9751 21.3383 11.8992 21.3735 11.7578 21.4922C11.5374 21.6773 11.3868 21.8532 11.1025 22.1221C10.9811 22.2369 10.838 22.3635 10.6826 22.4697C10.5309 22.5734 10.3244 22.6876 10.0752 22.7314C9.8015 22.7795 9.51258 22.7353 9.25 22.5732C9.0688 22.4614 8.92657 22.3099 8.8125 22.1465L8.70703 21.9795C7.49436 19.8589 6.75 16.5201 6.75 12.835C6.75 9.76896 7.26528 6.95801 8.12598 4.88574C8.55554 3.85156 9.08551 2.96523 9.71289 2.32617C10.343 1.68447 11.1166 1.25 12 1.25C12.8834 1.25 13.657 1.68447 14.2871 2.32617C14.9145 2.96523 15.4445 3.85156 15.874 4.88574C16.7347 6.95801 17.25 9.76896 17.25 12.835Z" fill="#17191A"/>
</svg>
