<svg width="24" height="24" viewBox="0 0 24 24" fill="none" xmlns="http://www.w3.org/2000/svg">
<path fill-rule="evenodd" clip-rule="evenodd" d="M13.2502 8C13.2502 6.48079 14.481 5.25 16.0002 5.25C17.5194 5.25 18.7502 6.48079 18.7502 8C18.7502 9.51921 17.5194 10.75 16.0002 10.75C14.481 10.75 13.2502 9.51921 13.2502 8ZM16.0002 6.75C15.3094 6.75 14.7502 7.30921 14.7502 8C14.7502 8.69079 15.3094 9.25 16.0002 9.25C16.691 9.25 17.2502 8.69079 17.2502 8C17.2502 7.30921 16.691 6.75 16.0002 6.75Z" fill="#17191A"/>
<path fill-rule="evenodd" clip-rule="evenodd" d="M8.61429 6.35688C8.93619 6.16374 9.35131 6.23834 9.58582 6.53148L13.5858 11.5315C13.8246 11.8299 13.8007 12.2601 13.5305 12.5303L10.5305 15.5303C10.2376 15.8232 9.76273 15.8232 9.46983 15.5303C9.17694 15.2374 9.17694 14.7626 9.46983 14.4697L11.9952 11.9443L8.82398 7.98035L4.38604 10.6431C4.03085 10.8562 3.57016 10.7411 3.35705 10.3859C3.14393 10.0307 3.25911 9.56999 3.61429 9.35688L8.61429 6.35688Z" fill="#17191A"/>
<path fill-rule="evenodd" clip-rule="evenodd" d="M7.98405 15.2498C7.44043 15.2381 6.92652 15.4951 6.6097 15.937C6.00452 16.7811 5.02243 17.2721 3.98405 17.2498L3.97862 17.2497C3.52259 17.2366 3.0747 17.1251 2.66562 16.9213C2.2949 16.7365 2.14415 16.2862 2.32891 15.9155C2.51368 15.5447 2.96399 15.394 3.33471 15.5787C3.54682 15.6845 3.77997 15.743 4.01899 15.7502C4.5616 15.761 5.07434 15.5042 5.39063 15.063C5.99268 14.2233 6.96774 13.7329 8.00016 13.7499C9.03259 13.7329 10.0077 14.2233 10.6097 15.063C10.9265 15.5049 11.4404 15.7619 11.984 15.7502C11.9948 15.7499 12.0055 15.7499 12.0163 15.7502C12.5599 15.7619 13.0738 15.5049 13.3906 15.063C13.9927 14.2233 14.9677 13.7329 16.0002 13.7499C17.0326 13.7329 18.0077 14.2233 18.6097 15.063C18.926 15.5042 19.4387 15.761 19.9813 15.7502C20.2204 15.743 20.4535 15.6845 20.6656 15.5787C21.0363 15.394 21.4867 15.5447 21.6714 15.9155C21.8562 16.2862 21.7054 16.7365 21.3347 16.9213C20.9256 17.1251 20.4777 17.2366 20.0217 17.2497L20.0163 17.2498C18.9779 17.2721 17.9958 16.7811 17.3906 15.937C17.0738 15.4951 16.5599 15.2381 16.0163 15.2498C16.0055 15.2501 15.9948 15.2501 15.984 15.2498C15.4404 15.2381 14.9265 15.4951 14.6097 15.937C14.0077 16.7767 13.0326 17.2671 12.0002 17.2501C10.9677 17.2671 9.99268 16.7767 9.39063 15.937C9.07381 15.4951 8.5599 15.2381 8.01628 15.2498C8.00554 15.2501 7.99479 15.2501 7.98405 15.2498Z" fill="#17191A"/>
</svg>
