<svg width="24" height="24" viewBox="0 0 24 24" fill="none" xmlns="http://www.w3.org/2000/svg">
<path d="M15.9996 11C17.6565 11 18.9996 9.65685 18.9996 8C18.9996 6.34315 17.6565 5 15.9996 5C14.3428 5 12.9996 6.34315 12.9996 8C12.9996 9.65685 14.3428 11 15.9996 11Z" fill="#17191A"/>
<path d="M21.8946 15.8028C21.6466 15.3088 21.0456 15.1108 20.5526 15.3558C20.3746 15.4448 20.1736 15.4958 19.9796 15.5008C19.9686 15.5008 19.9586 15.5008 19.9496 15.5008C19.4996 15.5008 19.0756 15.2838 18.8126 14.9168C18.1726 14.0248 17.1456 13.4988 16.0896 13.4988H15.9486C14.8546 13.4988 13.8266 14.0248 13.1866 14.9168C12.9166 15.2918 12.4676 15.4938 11.9786 15.4998C11.6836 15.5008 11.4036 15.4068 11.1666 15.2468L13.7066 12.7068C14.0666 12.3468 14.0996 11.7728 13.7806 11.3748L9.78064 6.37483C9.46864 5.98383 8.91464 5.88483 8.48564 6.14183L3.48564 9.14183C3.01164 9.42583 2.85864 10.0398 3.14264 10.5138C3.42764 10.9878 4.04164 11.1408 4.51464 10.8568L8.76464 8.30683L11.6596 11.9258L9.66064 13.9248C9.15764 13.6568 8.59664 13.5058 8.02064 13.4998C6.91364 13.5088 5.84064 14.0058 5.18764 14.9168C4.91864 15.2908 4.49464 15.5478 4.02764 15.4998C3.82364 15.4948 3.62764 15.4458 3.44664 15.3548C2.95064 15.1048 2.35164 15.3098 2.10564 15.8028C1.85864 16.2968 2.05964 16.8978 2.55364 17.1438C2.99764 17.3658 3.47464 17.4848 3.97964 17.4988C5.11164 17.5008 6.15964 16.9928 6.81264 16.0818C7.08164 15.7068 7.50964 15.4928 8.02064 15.4988C8.47864 15.5008 8.91764 15.7068 9.18764 16.0818C9.82664 16.9738 10.8546 17.4998 11.9106 17.4998H12.0516C13.1456 17.4998 14.1736 16.9738 14.8136 16.0818C15.0836 15.7078 15.5266 15.4988 16.0216 15.4988C16.5106 15.4968 16.9196 15.7068 17.1886 16.0818C17.8426 16.9918 18.8986 17.5018 20.0296 17.4988C20.5206 17.4838 21.0106 17.3618 21.4486 17.1438C21.9426 16.8968 22.1426 16.2958 21.8956 15.8018L21.8946 15.8028Z" fill="#17191A"/>
</svg>
