<svg width="24" height="24" viewBox="0 0 24 24" fill="none" xmlns="http://www.w3.org/2000/svg">
<path d="M12 19C12.6 19 13 18.6 13 18C13 17.4 12.6 17 12 17C11.4 17 11 17.4 11 18C11 18.6 11.4 19 12 19Z" fill="#17191A"/>
<path fill-rule="evenodd" clip-rule="evenodd" d="M6 2.75C5.30964 2.75 4.75 3.30964 4.75 4V20C4.75 20.6904 5.30964 21.25 6 21.25H18C18.6904 21.25 19.25 20.6904 19.25 20V4C19.25 3.30964 18.6904 2.75 18 2.75H6ZM3.25 4C3.25 2.48122 4.48122 1.25 6 1.25H18C19.5188 1.25 20.75 2.48122 20.75 4V20C20.75 21.5188 19.5188 22.75 18 22.75H6C4.48122 22.75 3.25 21.5188 3.25 20V4Z" fill="#17191A"/>
</svg>
