<svg width="24" height="24" viewBox="0 0 24 24" fill="none" xmlns="http://www.w3.org/2000/svg">
<path d="M23.597 5.3389C23.51 4.9979 23.251 4.7279 22.915 4.6269L20.996 4.0499C21.019 3.7669 20.934 3.4769 20.717 3.2609C20.5 3.0449 20.209 2.9619 19.926 2.9869L19.342 1.0719C19.239 0.735901 18.968 0.477901 18.627 0.392901C18.285 0.309901 17.926 0.409901 17.677 0.658901L13.861 4.4959C13.6 4.7579 13.506 5.1429 13.615 5.4959L14.437 8.1569L11.304 11.3059C10.914 11.6969 10.916 12.3299 11.308 12.7199C11.503 12.9139 11.758 13.0109 12.013 13.0109C12.27 13.0109 12.527 12.9129 12.722 12.7169L15.856 9.5669L18.521 10.3769C18.617 10.4059 18.714 10.4199 18.812 10.4199C19.074 10.4199 19.331 10.3169 19.521 10.1249L23.337 6.2889C23.585 6.0399 23.684 5.6789 23.598 5.3379L23.597 5.3389ZM15.702 5.4809L17.917 3.2539L18.245 4.3289L16.033 6.5529L15.702 5.4809ZM18.525 8.2889L17.451 7.9629L19.663 5.7389L20.741 6.0629L18.525 8.2899V8.2889Z" fill="#17191A"/>
<path d="M12 22C6.486 22 2 17.514 2 12C2 6.486 6.486 2 12 2C12.552 2 13 2.448 13 3C13 3.552 12.552 4 12 4C7.589 4 4 7.589 4 12C4 16.411 7.589 20 12 20C16.411 20 20 16.411 20 12C20 11.448 20.447 11 21 11C21.553 11 22 11.448 22 12C22 17.514 17.514 22 12 22Z" fill="#17191A"/>
<path d="M12 18C8.691 18 6 15.309 6 12C6 8.691 8.691 6 12 6C12.552 6 13 6.448 13 7C13 7.552 12.552 8 12 8C9.794 8 8 9.794 8 12C8 14.206 9.794 16 12 16C14.206 16 16 14.206 16 12C16 11.448 16.447 11 17 11C17.553 11 18 11.448 18 12C18 15.309 15.309 18 12 18Z" fill="#17191A"/>
</svg>
