<svg width="24" height="24" viewBox="0 0 24 24" fill="none" xmlns="http://www.w3.org/2000/svg">
<path d="M22.59 5.25015L20.46 4.61015C20.56 4.34015 20.5 4.04015 20.29 3.82015C20.08 3.61015 19.77 3.55015 19.5 3.65015L18.85 1.52015C18.77 1.27015 18.57 1.07015 18.31 1.01015C18.06 0.950152 17.78 1.02015 17.6 1.21015L13.78 5.05015C13.58 5.25015 13.51 5.53015 13.6 5.80015L14.47 8.61015L11.23 11.8602C10.94 12.1502 10.94 12.6302 11.23 12.9202C11.38 13.0702 11.57 13.1402 11.76 13.1402C11.95 13.1402 12.15 13.0702 12.29 12.9202L15.53 9.66015L18.34 10.5102C18.41 10.5302 18.48 10.5402 18.56 10.5402C18.76 10.5402 18.95 10.4602 19.09 10.3202L22.91 6.48015C23.1 6.29015 23.17 6.02015 23.11 5.77015C23.05 5.51015 22.85 5.31015 22.6 5.24015L22.59 5.25015ZM15.17 5.80015L17.79 3.17015L18.28 4.79015L15.67 7.41015L15.17 5.80015ZM18.35 8.96015L16.73 8.47015L19.34 5.85015L20.96 6.34015L18.34 8.97015L18.35 8.96015Z" fill="#17191A"/>
<path d="M20.75 11.6302C20.34 11.6302 20 11.9702 20 12.3802C20 16.9302 16.3 20.6302 11.75 20.6302C7.2 20.6302 3.5 16.9302 3.5 12.3802C3.5 7.83015 7.2 4.13015 11.75 4.13015C12.16 4.13015 12.5 3.79015 12.5 3.38015C12.5 2.97015 12.16 2.63015 11.75 2.63015C6.37 2.63015 2 7.01015 2 12.3802C2 17.7502 6.37 22.1302 11.75 22.1302C17.13 22.1302 21.5 17.7602 21.5 12.3802C21.5 11.9702 21.16 11.6302 20.75 11.6302Z" fill="#17191A"/>
<path d="M11.75 8.13015C12.16 8.13015 12.5 7.79015 12.5 7.38015C12.5 6.97015 12.16 6.63015 11.75 6.63015C8.58 6.63015 6 9.21015 6 12.3802C6 15.5502 8.58 18.1301 11.75 18.1301C14.92 18.1301 17.5 15.5502 17.5 12.3802C17.5 11.9702 17.16 11.6302 16.75 11.6302C16.34 11.6302 16 11.9702 16 12.3802C16 14.7202 14.09 16.6302 11.75 16.6302C9.41 16.6302 7.5 14.7202 7.5 12.3802C7.5 10.0402 9.41 8.13015 11.75 8.13015Z" fill="#17191A"/>
</svg>
