<svg width="24" height="24" viewBox="0 0 24 24" fill="none" xmlns="http://www.w3.org/2000/svg">
<path fill-rule="evenodd" clip-rule="evenodd" d="M5 3.75C4.30964 3.75 3.75 4.30964 3.75 5V19C3.75 19.6904 4.30964 20.25 5 20.25H19C19.6904 20.25 20.25 19.6904 20.25 19V5C20.25 4.30964 19.6904 3.75 19 3.75H5ZM2.25 5C2.25 3.48122 3.48122 2.25 5 2.25H19C20.5188 2.25 21.75 3.48122 21.75 5V19C21.75 20.5188 20.5188 21.75 19 21.75H5C3.48122 21.75 2.25 20.5188 2.25 19V5ZM8 7.75C7.86193 7.75 7.75 7.86193 7.75 8V16C7.75 16.1381 7.86193 16.25 8 16.25H9C9.13807 16.25 9.25 16.1381 9.25 16V8C9.25 7.86193 9.13807 7.75 9 7.75H8ZM6.25 8C6.25 7.0335 7.0335 6.25 8 6.25H9C9.9665 6.25 10.75 7.0335 10.75 8V16C10.75 16.9665 9.9665 17.75 9 17.75H8C7.0335 17.75 6.25 16.9665 6.25 16V8ZM15 7.75C14.8619 7.75 14.75 7.86193 14.75 8V11C14.75 11.1381 14.8619 11.25 15 11.25H16C16.1381 11.25 16.25 11.1381 16.25 11V8C16.25 7.86193 16.1381 7.75 16 7.75H15ZM13.25 8C13.25 7.0335 14.0335 6.25 15 6.25H16C16.9665 6.25 17.75 7.0335 17.75 8V11C17.75 11.9665 16.9665 12.75 16 12.75H15C14.0335 12.75 13.25 11.9665 13.25 11V8Z" fill="#17191A"/>
</svg>
