<svg width="24" height="24" viewBox="0 0 24 24" fill="none" xmlns="http://www.w3.org/2000/svg">
<path d="M15 17.25V18.75H8V17.25H15Z" fill="#17191A"/>
<path d="M21.25 13C21.25 12.8622 21.1378 12.75 21 12.75H17.459L15.46 6.75H4.54102L2.75 12.123V17.25H4V18.75H1.25V11.8779L1.28809 11.7627L3.45898 5.25H16.542L18.541 11.25H21C21.9662 11.25 22.75 12.0338 22.75 13V18.75H19V17.25H21.25V13Z" fill="#17191A"/>
<path d="M21 14.25V15.75H18V14.25H21Z" fill="#17191A"/>
<path d="M18 11.25V12.75H2V11.25H18Z" fill="#17191A"/>
<path d="M10.75 6V12H9.25V6H10.75Z" fill="#17191A"/>
<path d="M7.25 18C7.25 17.3096 6.69036 16.75 6 16.75C5.30964 16.75 4.75 17.3096 4.75 18C4.75 18.6904 5.30964 19.25 6 19.25C6.69036 19.25 7.25 18.6904 7.25 18ZM8.75 18C8.75 19.5188 7.51878 20.75 6 20.75C4.48122 20.75 3.25 19.5188 3.25 18C3.25 16.4812 4.48122 15.25 6 15.25C7.51878 15.25 8.75 16.4812 8.75 18Z" fill="#17191A"/>
<path d="M18.25 18C18.25 17.3096 17.6904 16.75 17 16.75C16.3096 16.75 15.75 17.3096 15.75 18C15.75 18.6904 16.3096 19.25 17 19.25C17.6904 19.25 18.25 18.6904 18.25 18ZM19.75 18C19.75 19.5188 18.5188 20.75 17 20.75C15.4812 20.75 14.25 19.5188 14.25 18C14.25 16.4812 15.4812 15.25 17 15.25C18.5188 15.25 19.75 16.4812 19.75 18Z" fill="#17191A"/>
<path d="M12.25 4C12.25 3.86221 12.1378 3.75 12 3.75H8C7.86221 3.75 7.75 3.86221 7.75 4V5.25H12.25V4ZM13.75 6.75H6.25V4C6.25 3.03379 7.03379 2.25 8 2.25H12C12.9662 2.25 13.75 3.03379 13.75 4V6.75Z" fill="#17191A"/>
</svg>
