<svg width="24" height="24" viewBox="0 0 24 24" fill="none" xmlns="http://www.w3.org/2000/svg">
<path d="M23 13C23 11.897 22.103 11 21 11H18.721L16.722 5H14V4C14 2.897 13.103 2 12 2H8C6.897 2 6 2.897 6 4V5H3.279L1 11.838V19H3.184C3.598 20.161 4.698 21 6 21C7.302 21 8.402 20.161 8.816 19H14.185C14.599 20.161 15.699 21 17.001 21C18.303 21 19.403 20.161 19.817 19H23.001L23 13ZM15.28 7L16.613 11H11V7H15.28ZM8.001 4H12V5H8V4H8.001ZM6 7H9V11H3.387L4.72 7H6ZM6 19C5.449 19 5 18.552 5 18C5 17.448 5.449 17 6 17C6.551 17 7 17.448 7 18C7 18.552 6.551 19 6 19ZM17 19C16.448 19 16 18.552 16 18C16 17.448 16.448 17 17 17C17.552 17 18 17.448 18 18C18 18.552 17.552 19 17 19ZM21 17H19.816C19.683 16.626 19.481 16.289 19.22 16H21V17Z" fill="#17191A"/>
</svg>
