<svg width="24" height="24" viewBox="0 0 24 24" fill="none" xmlns="http://www.w3.org/2000/svg">
<path d="M9.166 4V19H7.666V4H9.166Z" fill="#17191A"/>
<path d="M23 18.25V19.75H1V18.25H23Z" fill="#17191A"/>
<path d="M16.7519 18.3698C17.0998 18.5944 17.2001 19.0589 16.9755 19.4069C16.7509 19.7548 16.2864 19.8549 15.9384 19.6305L16.7519 18.3698ZM8.38566 5.36098C8.70212 5.34816 8.99247 5.53516 9.11124 5.82875L9.11222 5.8307C9.11265 5.83178 9.11335 5.83356 9.11417 5.83559L9.15812 5.94301C9.1894 6.01881 9.23606 6.13123 9.29679 6.27504C9.41849 6.56324 9.59659 6.97878 9.82218 7.485C10.2739 8.49856 10.9138 9.87247 11.6659 11.318C12.4193 12.7659 13.279 14.2725 14.1698 15.5563C15.0729 16.8577 15.9602 17.8588 16.7519 18.3698L16.3446 18.9996L15.9384 19.6305C14.8901 18.954 13.866 17.7499 12.9374 16.4118C11.9966 15.056 11.1037 13.4881 10.3349 12.0104C9.59362 10.5858 8.96134 9.23239 8.5048 8.21254C8.15415 9.22363 7.67484 10.5497 7.11417 11.944C6.5208 13.4195 5.83236 14.9848 5.10636 16.3385C4.39349 17.6677 3.59835 18.8828 2.76847 19.5758C2.45069 19.841 1.97831 19.7985 1.7128 19.4811C1.4473 19.1632 1.4896 18.69 1.80753 18.4245C2.39961 17.93 3.08141 16.9397 3.78409 15.6295C4.47372 14.3437 5.13944 12.8345 5.72257 11.3844C6.30471 9.93678 6.79975 8.5605 7.14933 7.54555C7.32396 7.03853 7.46231 6.62239 7.55655 6.33363C7.60365 6.18933 7.63972 6.07668 7.66398 6.00063L7.69816 5.8932C7.6989 5.89085 7.69976 5.88845 7.70011 5.88734L7.74405 5.77797C7.86414 5.53476 8.10854 5.37225 8.38566 5.36098Z" fill="#17191A"/>
<path d="M14 5.25L14.1123 5.25879C14.3694 5.29767 14.5918 5.46771 14.6933 5.71289C15.3729 7.35389 16.6581 10.095 18.1181 12.6582C18.8479 13.9394 19.6143 15.1643 20.3642 16.1807C21.0292 17.0819 21.652 17.7782 22.1963 18.2119L22.4853 18.4277C22.7756 18.6733 22.8377 19.1036 22.6181 19.4238C22.3985 19.744 21.9752 19.8404 21.6416 19.6582L21.5762 19.6182L21.2724 19.3936C20.5634 18.8308 19.846 18.0048 19.1572 17.0713C18.3601 15.9911 17.5613 14.7116 16.8144 13.4004C15.4502 11.0052 14.2383 8.4631 13.5039 6.75H8.416C8.00179 6.75 7.666 6.41421 7.666 6C7.666 5.58579 8.00179 5.25 8.416 5.25H14Z" fill="#17191A"/>
</svg>
