<svg width="24" height="24" viewBox="0 0 24 24" fill="none" xmlns="http://www.w3.org/2000/svg">
<path d="M21.0249 8.97742C20.4579 8.35642 19.6499 8.00042 18.8089 8.00042H15.9989V5.00042C15.9989 3.66842 15.3289 2.39042 14.2079 1.58242C12.9719 0.691417 11.3809 0.498417 9.72395 1.03842C9.29995 1.17642 8.99895 1.55742 8.99895 2.00342V8.00042H7.99695L7.99895 19.0004C7.99895 20.1044 8.89495 21.0004 9.99895 21.0004H17.2579C19.3269 21.0004 21.0549 19.4224 21.2429 17.3614L21.7969 11.2714C21.8729 10.4344 21.5909 9.59742 21.0249 8.97742Z" fill="#17191A"/>
<path d="M6 8.00037H3C2.44772 8.00037 2 8.44808 2 9.00037V20.0004C2 20.5527 2.44772 21.0004 3 21.0004H6C6.55228 21.0004 7 20.5527 7 20.0004V9.00037C7 8.44808 6.55228 8.00037 6 8.00037Z" fill="#17191A"/>
</svg>
