<svg width="24" height="24" viewBox="0 0 24 24" fill="none" xmlns="http://www.w3.org/2000/svg">
<path fill-rule="evenodd" clip-rule="evenodd" d="M6.73979 4.75C5.57537 4.75 4.60368 5.63749 4.49873 6.79568L3.94474 12.8866C3.87865 13.6187 4.45511 14.25 5.18979 14.25H8.99979C9.414 14.25 9.74979 14.5858 9.74979 15V19C9.74979 20.3389 11.0463 21.8915 13.2498 21.4283V15C13.2498 14.5858 13.5856 14.25 13.9998 14.25H15.2498V7C15.2498 6.2306 15.0145 5.68634 14.664 5.33583C14.3134 4.98532 13.7692 4.75 12.9998 4.75H6.73979ZM15.258 3.88872C14.6313 3.46141 13.8551 3.25 12.9998 3.25H6.73979C4.80029 3.25 3.18004 4.72838 3.00487 6.66007C3.00487 6.66015 3.00488 6.65998 3.00487 6.66007L2.45087 12.7511C2.30515 14.3609 3.57258 15.75 5.18979 15.75H8.24979V19C8.24979 21.4623 10.7508 23.8736 14.237 22.7115C14.5432 22.6094 14.7498 22.3228 14.7498 22V15.75H20.9998C21.414 15.75 21.7498 15.4142 21.7498 15V4C21.7498 3.58579 21.414 3.25 20.9998 3.25H15.9998C15.6234 3.25 15.3117 3.52728 15.258 3.88872ZM16.7498 4.75V14.25H20.2498V4.75H16.7498Z" fill="#17191A"/>
</svg>
