<svg width="24" height="24" viewBox="0 0 24 24" fill="none" xmlns="http://www.w3.org/2000/svg">
<path fill-rule="evenodd" clip-rule="evenodd" d="M10.75 2.57128V8.99958C10.75 9.41379 10.4142 9.74958 10 9.74958H8.75V16.9996C8.75 17.769 8.98532 18.3132 9.33583 18.6637C9.68634 19.0143 10.2306 19.2496 11 19.2496H17.26C18.4244 19.2496 19.3961 18.3621 19.5011 17.2039L20.0551 11.113C20.055 11.1131 20.0551 11.1129 20.0551 11.113C20.1211 10.3809 19.5447 9.74958 18.81 9.74958H15C14.5858 9.74958 14.25 9.41379 14.25 8.99958V4.99958C14.25 3.66068 12.9535 2.1081 10.75 2.57128ZM7.25 19.2496V9.74958H3.75V19.2496H7.25ZM3 8.24958C2.58579 8.24958 2.25 8.58536 2.25 8.99958V19.9996C2.25 20.4138 2.58579 20.7496 3 20.7496H8C8.3764 20.7496 8.68804 20.4723 8.7418 20.1109C9.36853 20.5382 10.1447 20.7496 11 20.7496H17.26C19.1995 20.7496 20.8197 19.2712 20.9949 17.3395C20.9949 17.3396 20.9949 17.3394 20.9949 17.3395L21.5489 11.2485C21.6946 9.6387 20.4272 8.24958 18.81 8.24958H15.75V4.99958C15.75 2.53725 13.249 0.125993 9.76283 1.28806C9.45657 1.39015 9.25 1.67675 9.25 1.99958V8.24958H3Z" fill="#17191A"/>
</svg>
