<svg width="24" height="24" viewBox="0 0 24 24" fill="none" xmlns="http://www.w3.org/2000/svg">
<path d="M2.9756 15.023C3.5426 15.644 4.3506 16 5.1916 16H8.0016V19C8.0016 20.332 8.6716 21.61 9.7926 22.418C11.0286 23.309 12.6196 23.502 14.2766 22.962C14.7006 22.824 15.0016 22.443 15.0016 21.997V16H16.0036L16.0016 5C16.0016 3.896 15.1056 3 14.0016 3H6.7426C4.6736 3 2.9456 4.578 2.7576 6.639L2.2036 12.729C2.1276 13.566 2.4096 14.403 2.9756 15.023Z" fill="#17191A"/>
<path d="M18.0006 16H21.0006C21.5529 16 22.0006 15.5523 22.0006 15V4C22.0006 3.44771 21.5529 3 21.0006 3H18.0006C17.4483 3 17.0006 3.44771 17.0006 4V15C17.0006 15.5523 17.4483 16 18.0006 16Z" fill="#17191A"/>
</svg>
