<svg width="24" height="24" viewBox="0 0 24 24" fill="none" xmlns="http://www.w3.org/2000/svg">
<path d="M19.5 15V4C19.5 2.346 18.154 1 16.5 1H15.351C14.481 1 13.709 1.585 13.43 2.458C13.23 3.082 12.656 3.5 12 3.5C11.344 3.5 10.77 3.081 10.571 2.458C10.292 1.586 9.52 1 8.649 1H7.5C5.846 1 4.5 2.346 4.5 4V15H8.5V17H4.5V20C4.5 21.654 5.846 23 7.5 23H8.649C9.52 23 10.292 22.414 10.571 21.542C10.77 20.919 11.344 20.5 12 20.5C12.656 20.5 13.229 20.919 13.43 21.544C13.71 22.415 14.482 23 15.351 23H16.5C18.154 23 19.5 21.654 19.5 20V17H15.5V15H19.5ZM8.5 7H15.5V9H8.5V7ZM13.5 17H10.5V15H13.5V17ZM8.5 13V11H15.5V13H8.5Z" fill="#17191A"/>
</svg>
