<svg width="24" height="24" viewBox="0 0 24 24" fill="none" xmlns="http://www.w3.org/2000/svg">
<path d="M18.5 15.25V16.75H15.5V15.25H18.5Z" fill="#17191A"/>
<path d="M13.5 15.25V16.75H10.5V15.25H13.5Z" fill="#17191A"/>
<path d="M8.5 15.25V16.75H5.5V15.25H8.5Z" fill="#17191A"/>
<path d="M12 18.75C13.4505 18.75 14.6782 19.6998 15.0967 21.0098L15.1211 21.0723C15.1489 21.13 15.1843 21.1732 15.2188 21.2012C15.2611 21.2356 15.304 21.2499 15.3506 21.25H16.5C17.1908 21.25 17.75 20.6908 17.75 20V4C17.75 3.30921 17.1908 2.75 16.5 2.75H15.3506C15.3034 2.75009 15.2608 2.76472 15.2188 2.79883C15.1846 2.82655 15.1488 2.86909 15.1211 2.92676L15.0967 2.99023C14.6782 4.30023 13.4505 5.25 12 5.25C10.6402 5.25 9.47617 4.41524 8.99121 3.23145L8.90332 2.99023C8.87454 2.9003 8.82716 2.83614 8.78125 2.79883C8.73886 2.76442 8.69599 2.75009 8.64941 2.75H7.5C6.80921 2.75 6.25 3.30921 6.25 4V20C6.25 20.6908 6.80921 21.25 7.5 21.25H8.64941C8.69657 21.2499 8.73919 21.2353 8.78125 21.2012C8.82685 21.1642 8.87449 21.1002 8.90332 21.0098L8.99121 20.7686C9.47617 19.5848 10.6402 18.75 12 18.75ZM19.25 20C19.25 21.5192 18.0192 22.75 16.5 22.75H15.3506C14.5037 22.7498 13.8875 22.1529 13.668 21.4668C13.4424 20.7609 12.7795 20.25 12 20.25C11.2209 20.25 10.5579 20.7594 10.332 21.4648L10.333 21.4658C10.1134 22.1543 9.49577 22.7498 8.64941 22.75H7.5C5.98079 22.75 4.75 21.5192 4.75 20V4C4.75 2.48079 5.98079 1.25 7.5 1.25H8.64941C9.49626 1.25019 10.1125 1.84712 10.332 2.5332L10.3799 2.66406C10.6414 3.3017 11.2693 3.75 12 3.75C12.7793 3.75 13.4413 3.23991 13.667 2.53418L13.7129 2.40625C13.9647 1.77348 14.5571 1.25018 15.3506 1.25H16.5C18.0192 1.25 19.25 2.48079 19.25 4V20Z" fill="#17191A"/>
<path d="M15.5 7.25V8.75H8.5V7.25H15.5Z" fill="#17191A"/>
<path d="M15.5 11.25V12.75H8.5V11.25H15.5Z" fill="#17191A"/>
</svg>
