<svg width="24" height="24" viewBox="0 0 24 24" fill="none" xmlns="http://www.w3.org/2000/svg">
<path d="M17.6621 2.10059L22.4297 6.86914L17.25 12.0479L21.75 16.5342V21.75H16.5342L12.0488 17.249L6.86914 22.4297L2.10059 17.6621L1.57031 17.1309L6.75977 11.9424L3.32129 8.49316C2.63606 7.80779 2.25005 6.87819 2.25 5.9082C2.25 4.93882 2.63426 4.00732 3.32129 3.32129L3.45312 3.19629C4.12369 2.58921 4.99876 2.25 5.9082 2.25C6.87774 2.25005 7.80909 2.63498 8.49512 3.32227L11.9434 6.75879L17.1309 1.57031L17.6621 2.10059ZM6.28418 14.5391L7.75098 16.0059L6.69043 17.0664L5.22266 15.5986L3.69141 17.1309L6.86914 20.3086L10.9893 16.1875L7.81836 13.0049L6.28418 14.5391ZM6.84668 9.90527L17.1572 20.25H20.25V17.1562L15.665 12.5859C15.6629 12.5838 15.6603 12.5822 15.6582 12.5801C15.656 12.5779 15.6536 12.5755 15.6514 12.5732L9.90625 6.8457L6.84668 9.90527ZM15.5869 5.23438L17.0586 6.70605L15.998 7.7666L14.5273 6.2959L13.0049 7.81738L16.1875 10.9893L20.3086 6.86914L17.1309 3.69141L15.5869 5.23438ZM5.9082 3.75C5.3364 3.75 4.78736 3.97826 4.38281 4.38281C3.97815 4.78674 3.75 5.33581 3.75 5.9082C3.75005 6.4085 3.92463 6.89145 4.23926 7.27539L4.38281 7.43359L5.78809 8.84277L8.84375 5.78711L7.43457 4.38281L7.43359 4.38184C7.02972 3.97722 6.48052 3.75005 5.9082 3.75Z" fill="#17191A"/>
</svg>
