<svg width="24" height="24" viewBox="0 0 24 24" fill="none" xmlns="http://www.w3.org/2000/svg">
<path d="M22.7828 6.8688L17.1308 1.2168L11.9428 6.4058L8.6718 3.1458C7.9348 2.4068 6.9528 1.9998 5.9088 1.9998C4.8808 1.9998 3.8728 2.4168 3.1458 3.1448C2.4178 3.8718 1.9998 4.8788 1.9998 5.9088C1.9998 6.9388 2.4168 7.9438 3.1438 8.6708L6.4058 11.9438L1.2168 17.1318L6.8688 22.7838L12.0478 17.6048L16.4298 22.0008H21.9988V16.4318L17.6028 12.0498L22.7828 6.8688ZM14.5278 6.6488L15.8218 7.9428L17.2358 6.5288L15.9418 5.2348L17.1318 4.0448L19.9558 6.8688L16.1878 10.6368L13.3598 7.8178L14.5278 6.6488ZM3.9998 5.9078C3.9998 5.4058 4.2038 4.9138 4.5588 4.5588C5.2748 3.8418 6.5408 3.8408 7.2578 4.5598L8.4898 5.7878L5.7878 8.4898L4.5588 7.2568C4.2038 6.9018 3.9998 6.4098 3.9998 5.9078ZM6.8688 19.9548L4.0448 17.1308L5.2238 15.9528L6.5148 17.2438L7.9288 15.8298L6.6388 14.5398L7.8188 13.3598L10.6378 16.1878L6.8698 19.9558L6.8688 19.9548Z" fill="#17191A"/>
</svg>
