<svg width="24" height="24" viewBox="0 0 24 24" fill="none" xmlns="http://www.w3.org/2000/svg">
<path d="M16 4H1V18C1 19.654 2.346 21 4 21C4.771 21 5.468 20.699 6 20.22C6.532 20.7 7.229 21 8 21C9.654 21 11 19.654 11 18H15C15 19.654 16.346 21 18 21C19.654 21 21 19.654 21 18C22.103 18 23 17.103 23 16V11C23 7.14 19.859 4 16 4ZM4 19C3.449 19 3 18.552 3 18H5C5 18.552 4.551 19 4 19ZM8 19C7.449 19 7 18.552 7 18H9C9 18.552 8.551 19 8 19ZM18 19C17.448 19 17 18.552 17 18H19C19 18.552 18.552 19 18 19ZM3 16V14H11V12H3V6H13V9C13 10.654 14.346 12 16 12H21V16H3Z" fill="#17191A"/>
</svg>
