<svg width="24" height="24" viewBox="0 0 24 24" fill="none" xmlns="http://www.w3.org/2000/svg">
<path d="M21.25 11C21.25 8.10021 18.8998 5.75 16 5.75H2.75V16.25H21C21.1378 16.25 21.25 16.1378 21.25 16V11ZM22.75 16C22.75 16.9662 21.9662 17.75 21 17.75H1.25V4.25H16C19.7282 4.25 22.75 7.27179 22.75 11V16Z" fill="#17191A"/>
<path d="M11 12.25V13.75H2V12.25H11Z" fill="#17191A"/>
<path d="M13.25 9V5H14.75V9C14.75 9.69079 15.3092 10.25 16 10.25H22V11.75H16C14.4808 11.75 13.25 10.5192 13.25 9Z" fill="#17191A"/>
<path d="M2.75 18C2.75 18.6908 3.30921 19.25 4 19.25C4.69079 19.25 5.25 18.6908 5.25 18H6.75C6.75 19.5192 5.51921 20.75 4 20.75C2.48079 20.75 1.25 19.5192 1.25 18H2.75Z" fill="#17191A"/>
<path d="M16.75 18C16.75 18.6908 17.3092 19.25 18 19.25C18.6908 19.25 19.25 18.6908 19.25 18H20.75C20.75 19.5192 19.5192 20.75 18 20.75C16.4808 20.75 15.25 19.5192 15.25 18H16.75Z" fill="#17191A"/>
<path d="M6.75 18C6.75 18.6908 7.30921 19.25 8 19.25C8.69079 19.25 9.25 18.6908 9.25 18H10.75C10.75 19.5192 9.51921 20.75 8 20.75C6.48079 20.75 5.25 19.5192 5.25 18H6.75Z" fill="#17191A"/>
</svg>
