<svg width="24" height="24" viewBox="0 0 24 24" fill="none" xmlns="http://www.w3.org/2000/svg">
<path d="M20 1H12C10.346 1 9 2.346 9 4V8H4C2.346 8 1 9.346 1 11V22C1 22.379 1.214 22.725 1.553 22.895C1.695 22.965 1.848 23 2 23C2.212 23 2.423 22.933 2.6 22.8L6.333 20H14C14.553 20 15 19.553 15 19V14H17.667L21.4 16.8C21.576 16.933 21.788 17 22 17C22.152 17 22.306 16.965 22.447 16.895C22.786 16.725 23 16.379 23 16V4C23 2.346 21.654 1 20 1ZM13 18H6C5.784 18 5.573 18.07 5.4 18.2L3 20V11C3 10.449 3.449 10 4 10H12C12.552 10 13 10.449 13 11V18ZM21 14L18.6 12.2C18.427 12.07 18.217 12 18 12H15V8.85H17V11H19V7C19 5.346 17.654 4 16 4C14.346 4 13 5.346 13 7V8.184C12.686 8.072 12.352 8 12 8H11V4C11 3.449 11.449 3 12 3H20C20.552 3 21 3.449 21 4V14ZM15.03 6.85C15.105 6.373 15.501 6 16 6C16.499 6 16.894 6.373 16.97 6.85H15.03Z" fill="#17191A"/>
<path d="M9 11H7V12H5V14H6.868C6.581 14.576 5.845 15 5 15V17C6.2 17 7.266 16.523 8 15.784C8.734 16.523 9.8 17 11 17V15C10.155 15 9.419 14.576 9.132 14H11V12H9V11Z" fill="#17191A"/>
</svg>
