<svg width="24" height="24" viewBox="0 0 24 24" fill="none" xmlns="http://www.w3.org/2000/svg">
<path d="M13.25 11C13.25 10.3092 12.6908 9.75 12 9.75H4C3.30921 9.75 2.75 10.3092 2.75 11V20.5L5.5498 18.4004L5.65234 18.3359C5.75916 18.28 5.87825 18.25 6 18.25H13.25V11ZM14.75 19C14.75 19.4142 14.4142 19.75 14 19.75H6.25L2.4502 22.5996C2.22305 22.77 1.91905 22.7977 1.66504 22.6709C1.41095 22.5439 1.25 22.2841 1.25 22V11C1.25 9.48079 2.48079 8.25 4 8.25H12C13.5192 8.25 14.75 9.48079 14.75 11V19Z" fill="#17191A"/>
<path d="M11 12.25V13.75H5V12.25H11Z" fill="#17191A"/>
<path d="M18 7.1V8.6H14V7.1H18Z" fill="#17191A"/>
<path d="M21.25 4C21.25 3.30921 20.6908 2.75 20 2.75H12C11.3092 2.75 10.75 3.30921 10.75 4V9.15039H9.25V4C9.25 2.48079 10.4808 1.25 12 1.25H20C21.5192 1.25 22.75 2.48079 22.75 4V16C22.75 16.2841 22.589 16.5439 22.335 16.6709C22.081 16.7977 21.777 16.77 21.5498 16.5996L17.75 13.75H14V12.25H18C18.1623 12.25 18.3204 12.303 18.4502 12.4004L21.25 14.5V4Z" fill="#17191A"/>
<path d="M17.25 7C17.25 6.30921 16.6908 5.75 16 5.75C15.3092 5.75 14.75 6.30921 14.75 7V11H13.25V7C13.25 5.48079 14.4808 4.25 16 4.25C17.5192 4.25 18.75 5.48079 18.75 7V11H17.25V7Z" fill="#17191A"/>
<path d="M7.25 13.4824V11H8.75V13.4824C8.74974 15.4051 6.9426 16.75 5 16.75V15.25C6.37104 15.25 7.24971 14.3413 7.25 13.4824Z" fill="#17191A"/>
<path d="M8.75 13.4824C8.75 14.3415 9.62874 15.2496 11 15.2496V16.7496C9.05726 16.7496 7.25 15.4054 7.25 13.4824H8.75Z" fill="#17191A"/>
</svg>
