<svg width="24" height="24" viewBox="0 0 24 24" fill="none" xmlns="http://www.w3.org/2000/svg">
<path fill-rule="evenodd" clip-rule="evenodd" d="M6.75 6V19C6.75 19.6908 7.30921 20.25 8 20.25H16C16.6908 20.25 17.25 19.6908 17.25 19V6H18.75V19C18.75 20.5192 17.5192 21.75 16 21.75H8C6.48079 21.75 5.25 20.5192 5.25 19V6H6.75Z" fill="#17191A"/>
<path fill-rule="evenodd" clip-rule="evenodd" d="M21 6.75H3V5.25H21V6.75Z" fill="#17191A"/>
<path fill-rule="evenodd" clip-rule="evenodd" d="M7.25 4C7.25 3.03379 8.03379 2.25 9 2.25H15C15.9662 2.25 16.75 3.03379 16.75 4V6H15.25V4C15.25 3.86221 15.1378 3.75 15 3.75H9C8.86221 3.75 8.75 3.86221 8.75 4V6H7.25V4Z" fill="#17191A"/>
<path fill-rule="evenodd" clip-rule="evenodd" d="M9.25 16V9H10.75V16H9.25Z" fill="#17191A"/>
<path fill-rule="evenodd" clip-rule="evenodd" d="M13.25 16V9H14.75V16H13.25Z" fill="#17191A"/>
</svg>
