<svg width="24" height="24" viewBox="0 0 24 24" fill="none" xmlns="http://www.w3.org/2000/svg">
<path d="M19.8851 1.57711C19.5101 1.42111 19.0791 1.50611 18.7931 1.79311L1.79311 18.7931C1.50611 19.0791 1.42111 19.5111 1.57711 19.8851C1.73211 20.2571 2.09711 20.5001 2.50011 20.5001H2.50311L19.4371 20.4401C19.9861 20.4381 20.4311 19.9941 20.4331 19.4441L20.4991 2.50411C20.5011 2.09911 20.2591 1.73311 19.8851 1.57711ZM18.4381 18.4441L4.92311 18.4911L6.75711 16.6571L8.17111 18.0711L9.58511 16.6571L8.17111 15.2431L9.58511 13.8291L11.0001 15.2441L12.4141 13.8301L10.9991 12.4151L12.4141 11.0001L13.8281 12.4141L15.2421 11.0001L13.8281 9.58611L15.2431 8.17111L16.6581 9.58611L18.0721 8.17211L16.6571 6.75711L18.4901 4.92411L18.4371 18.4451L18.4381 18.4441Z" fill="#17191A"/>
</svg>
