<svg width="24" height="24" viewBox="0 0 24 24" fill="none" xmlns="http://www.w3.org/2000/svg">
<path d="M18.9697 1.96973C19.1845 1.75492 19.5076 1.69092 19.7881 1.80762C20.0335 1.90988 20.2043 2.13291 20.2422 2.39062L20.25 2.50293L20.1836 19.4434C20.1817 19.8551 19.8483 20.1889 19.4365 20.1904L2.50293 20.25C2.19914 20.2511 1.92441 20.0685 1.80762 19.7881C1.69092 19.5076 1.75492 19.1845 1.96973 18.9697L18.9697 1.96973ZM16.3027 6.75684L17.8945 8.34863L16.834 9.40918L15.2422 7.81738L13.4736 9.58496L15.0654 11.1768L14.0049 12.2373L12.4131 10.6455L10.6455 12.4141L12.2373 14.0059L11.1768 15.0664L9.58496 13.4746L7.81738 15.2412L9.4082 16.832L8.34766 17.8926L6.75684 16.3018L4.31641 18.7432L18.6855 18.6924L18.7422 4.31738L16.3027 6.75684Z" fill="#17191A"/>
</svg>
