<svg width="24" height="24" viewBox="0 0 24 24" fill="none" xmlns="http://www.w3.org/2000/svg">
<path d="M6.32227 1.58301C6.53809 1.38165 6.85711 1.32363 7.13477 1.44531L12.999 4.01465L13.1025 4.07031C13.3321 4.21733 13.4664 4.48077 13.4453 4.75879C13.4241 5.03657 13.2518 5.27596 13.0029 5.38672L12.8916 5.42676L8.78711 6.52539L9.25 8.25H13.1533L14.2373 5.09668L14.2666 5.02637C14.3409 4.86576 14.4698 4.73523 14.6318 4.66016L19.6855 2.31934C20.0614 2.14526 20.5075 2.30881 20.6816 2.68457C20.8554 3.06029 20.692 3.5066 20.3164 3.68066L15.5518 5.88672L14.7393 8.25H15.5674C16.43 8.25 17.2983 8.59096 17.8926 9.26953L18.1035 9.52148C19.1331 10.804 19.7509 12.4252 19.751 14.1846C19.7508 18.3757 16.2758 21.7373 12.0244 21.75L11.6104 21.7412C7.70803 21.5538 4.50966 18.4571 4.26562 14.6562L4.25195 14.2861C4.22635 12.3717 4.93219 10.6164 6.10645 9.27344V9.27246L6.2207 9.14941C6.63435 8.72962 7.16045 8.4578 7.71777 8.33203L7.33789 6.91406L3.0752 8.05664C2.76544 8.13962 2.43657 8.01624 2.25781 7.75C2.07915 7.48378 2.09014 7.13317 2.28418 6.87793L6.23633 1.67773L6.32227 1.58301ZM5.79883 13.4326C5.76408 13.7051 5.74819 13.9834 5.75195 14.2656L5.7627 14.5596C5.95746 17.5743 8.51574 20.0911 11.6826 20.2432L12.0195 20.25C15.4344 20.2405 18.1717 17.5857 18.2471 14.3223C17.295 14.4788 16.1888 14.4895 15.2305 14.1318V14.1328C14.8778 14.0024 14.195 13.9413 13.3955 13.9707C12.618 13.9994 11.8637 14.108 11.4248 14.2314L11.4238 14.2305C10.7384 14.4286 9.61386 14.8227 8.42285 14.7041C7.52066 14.6142 6.62387 14.2436 5.79883 13.4326ZM9.8877 10.6309L9.90332 10.7061C9.96387 11.0811 9.73225 11.4492 9.35742 11.5498C8.98259 11.6502 8.59716 11.4477 8.46191 11.0928L8.43848 11.0195L8.10645 9.78027C7.75759 9.84598 7.44865 10.0154 7.23438 10.2598L7.23535 10.2607C6.85645 10.6941 6.54032 11.1798 6.29785 11.7041C7.08341 12.81 7.87654 13.1426 8.57129 13.2119C9.40963 13.2954 10.2088 13.0204 11.0137 12.7881L11.0176 12.7871L11.2529 12.7275C11.8292 12.5932 12.5967 12.4991 13.3398 12.4717C14.0638 12.445 14.8719 12.476 15.4961 12.6445L15.751 12.7256L15.918 12.7812C16.5603 12.9739 17.3556 12.9587 18.0938 12.8271C17.8667 11.864 17.4031 10.9874 16.7646 10.2588V10.2578C16.487 9.94064 16.0486 9.75 15.5674 9.75H14.2236L13.71 11.2441C13.575 11.6353 13.1482 11.8434 12.7568 11.709C12.3655 11.5742 12.1576 11.1474 12.292 10.7559L12.6377 9.75H9.65137L9.8877 10.6309ZM4.80469 6.03906L10.4385 4.53027L7.07324 3.05469L4.80469 6.03906Z" fill="#17191A"/>
</svg>
