<svg width="24" height="24" viewBox="0 0 24 24" fill="none" xmlns="http://www.w3.org/2000/svg">
<path d="M20.9076 2.57983C20.6766 2.07983 20.0827 1.86283 19.5807 2.09283L14.5267 4.43383C14.2797 4.54783 14.0887 4.75883 14.0017 5.01583L12.9757 7.99983H9.44165L9.09365 6.70283L12.9567 5.66783C13.3667 5.55783 13.6627 5.20083 13.6947 4.77783C13.7267 4.35483 13.4877 3.95683 13.0987 3.78583L7.23465 1.21583C6.81265 1.03083 6.31765 1.15883 6.03765 1.52683L2.08465 6.72683C1.82565 7.06683 1.81265 7.53483 2.05065 7.88983C2.23865 8.17083 2.55265 8.33183 2.88065 8.33183C2.96665 8.33183 3.05365 8.32083 3.13965 8.29783L7.16165 7.21983L7.41565 8.16883C6.83665 8.34683 6.31165 8.65683 5.91765 9.10783C4.65665 10.5488 3.97665 12.3898 4.00165 14.2878C4.05565 18.4048 7.39365 21.7888 11.5987 21.9898C11.7357 21.9968 11.8707 21.9998 12.0067 21.9998C14.1087 21.9998 16.0767 21.2188 17.5887 19.7778C19.1447 18.2948 20.0007 16.3078 20.0007 14.1828C20.0007 12.3198 19.3187 10.5158 18.0807 9.10283C17.4657 8.40083 16.5497 7.99783 15.5677 7.99783H15.0887L15.7527 6.06683L20.4197 3.90483C20.9217 3.67283 21.1397 3.07883 20.9067 2.57683L20.9076 2.57983ZM16.2087 18.3318C14.9987 19.4828 13.3977 20.0698 11.6947 19.9928C8.59465 19.8448 6.04165 17.2738 6.00165 14.2628C6.00065 14.1618 6.02165 14.0638 6.02565 13.9638C6.97165 14.7288 7.95565 14.9778 8.86065 14.9778C9.78865 14.9778 10.6317 14.7278 11.2567 14.5418L11.4927 14.4728C12.4477 14.2018 14.4277 14.1018 15.1407 14.3668C16.1077 14.7288 17.1517 14.7198 17.9797 14.6138C17.8747 16.0228 17.2577 17.3308 16.2087 18.3318ZM15.5677 9.99983C15.9727 9.99983 16.3397 10.1538 16.5767 10.4228C17.1377 11.0638 17.5237 11.8178 17.7547 12.6168C17.1027 12.7018 16.3997 12.7008 15.8377 12.4918C14.4877 11.9918 11.9767 12.2578 10.9427 12.5488L10.6857 12.6248C9.32665 13.0268 7.92565 13.4398 6.60265 11.6978C6.82365 11.2468 7.08465 10.8118 7.42265 10.4258C7.55265 10.2768 7.73165 10.1658 7.93065 10.0928L8.19665 11.0838C8.31665 11.5308 8.71965 11.8258 9.16165 11.8258C9.24665 11.8258 9.33465 11.8148 9.42065 11.7908C9.95465 11.6478 10.2707 11.0998 10.1277 10.5658L9.97565 9.99983H12.2867L12.0547 10.6748C11.8747 11.1968 12.1527 11.7658 12.6747 11.9458C12.7817 11.9828 12.8927 11.9998 12.9997 11.9998C13.4147 11.9998 13.8027 11.7398 13.9447 11.3248L14.4007 9.99983H15.5667H15.5677Z" fill="#17191A"/>
</svg>
