<svg width="24" height="24" viewBox="0 0 24 24" fill="none" xmlns="http://www.w3.org/2000/svg">
<path fill-rule="evenodd" clip-rule="evenodd" d="M5 11.75C4.86193 11.75 4.75 11.8619 4.75 12V20C4.75 20.1381 4.86193 20.25 5 20.25H19C19.1381 20.25 19.25 20.1381 19.25 20V12C19.25 11.8619 19.1381 11.75 19 11.75H5ZM3.25 12C3.25 11.0335 4.0335 10.25 5 10.25H19C19.9665 10.25 20.75 11.0335 20.75 12V20C20.75 20.9665 19.9665 21.75 19 21.75H5C4.0335 21.75 3.25 20.9665 3.25 20V12Z" fill="#17191A"/>
<path fill-rule="evenodd" clip-rule="evenodd" d="M12 3.75C10.2142 3.75 8.75 5.21421 8.75 7V11H7.25V7C7.25 4.38579 9.38579 2.25 12 2.25C14.6142 2.25 16.75 4.38579 16.75 7V8H15.25V7C15.25 5.21421 13.7858 3.75 12 3.75Z" fill="#17191A"/>
</svg>
