<svg width="24" height="24" viewBox="0 0 24 24" fill="none" xmlns="http://www.w3.org/2000/svg">
<path d="M22.2001 9.00005H19V5.80005H17V9.00005H13.8V11H17V14.2H19V11H22.2001V9.00005Z" fill="#17191A"/>
<path d="M9 11C10.2 11 11.2 10.5 11.8 9.8C12.6 9 13 8.1 13 7C13 5.9 12.5 4.8 11.8 4.2C11 3.4 10.1 3 9 3C7.9 3 6.8 3.5 6.2 4.2C5.4 5 5 5.9 5 7C5 8.1 5.5 9.2 6.2 9.8C7 10.6 7.9 11 9 11Z" fill="#17191A"/>
<path d="M11 13H7C5.7 13 4.5 13.5 3.5 14.4C2.5 15.3 2 16.5 2 18V21H16V18C16 16.7 15.5 15.5 14.6 14.5C13.7 13.5 12.5 13 11 13Z" fill="#17191A"/>
</svg>
