<svg width="24" height="24" viewBox="0 0 24 24" fill="none" xmlns="http://www.w3.org/2000/svg">
<path fill-rule="evenodd" clip-rule="evenodd" d="M6.34638 5.39313C7.01997 4.60402 8.04107 4.25 9 4.25C10.0011 4.25 10.8802 4.63024 11.6069 5.34638C12.396 6.01997 12.75 7.04107 12.75 8C12.75 9.00112 12.3698 9.8802 11.6536 10.6069C10.98 11.396 9.95893 11.75 9 11.75C7.99888 11.75 7.1198 11.3698 6.39313 10.6536C5.60402 9.98003 5.25 8.95893 5.25 8C5.25 6.99888 5.63024 6.1198 6.34638 5.39313ZM9 5.75C8.36969 5.75 7.80296 5.98799 7.47617 6.38014L7.45439 6.40627L7.43033 6.43033C6.96151 6.89915 6.75 7.41192 6.75 8C6.75 8.63031 6.98799 9.19704 7.38014 9.52383L7.40627 9.54561L7.43033 9.56967C7.89915 10.0385 8.41191 10.25 9 10.25C9.63031 10.25 10.197 10.012 10.5238 9.61986L10.5456 9.59373L10.5697 9.56967C11.0385 9.10085 11.25 8.58809 11.25 8C11.25 7.36969 11.012 6.80296 10.6199 6.47617L10.5937 6.45439L10.5697 6.43033C10.1009 5.96151 9.58809 5.75 9 5.75Z" fill="#17191A"/>
<path fill-rule="evenodd" clip-rule="evenodd" d="M7 15.75C6.20517 15.75 5.39417 16.0665 4.73033 16.7303L4.71267 16.748L4.69388 16.7644C4.07864 17.3028 3.75 18.0852 3.75 19V22H2.25V19C2.25 17.7231 2.71531 16.5129 3.68719 15.6522C4.62064 14.7275 5.80233 14.25 7 14.25H11C12.2769 14.25 13.4871 14.7153 14.3478 15.6872C15.2725 16.6206 15.75 17.8023 15.75 19V22H14.25V19C14.25 18.2052 13.9335 17.3942 13.2697 16.7303L13.252 16.7127L13.2356 16.6939C12.6972 16.0786 11.9148 15.75 11 15.75H7Z" fill="#17191A"/>
<path fill-rule="evenodd" clip-rule="evenodd" d="M13.8 10.25H22.2V11.75H13.8V10.25Z" fill="#17191A"/>
</svg>
