<svg width="24" height="24" viewBox="0 0 24 24" fill="none" xmlns="http://www.w3.org/2000/svg">
<path fill-rule="evenodd" clip-rule="evenodd" d="M16.75 11.2893L20.9197 7.11963L21.9803 8.18029L16.75 13.4106L13.5197 10.1803L14.5803 9.11963L16.75 11.2893Z" fill="#17191A"/>
<path fill-rule="evenodd" clip-rule="evenodd" d="M6.09638 4.14313C6.76997 3.35402 7.79107 3 8.75 3C9.75112 3 10.6302 3.38024 11.3569 4.09638C12.146 4.76997 12.5 5.79107 12.5 6.75C12.5 7.75112 12.1198 8.6302 11.4036 9.35687C10.73 10.146 9.70893 10.5 8.75 10.5C7.74888 10.5 6.8698 10.1198 6.14313 9.40362C5.35402 8.73003 5 7.70893 5 6.75C5 5.74888 5.38024 4.8698 6.09638 4.14313ZM8.75 4.5C8.11969 4.5 7.55296 4.73799 7.22617 5.13014L7.20439 5.15627L7.18033 5.18033C6.71151 5.64915 6.5 6.16192 6.5 6.75C6.5 7.38031 6.73799 7.94704 7.13014 8.27383L7.15627 8.29561L7.18033 8.31967C7.64915 8.78849 8.16191 9 8.75 9C9.38031 9 9.94704 8.76201 10.2738 8.36986L10.2956 8.34373L10.3197 8.31967C10.7885 7.85085 11 7.33809 11 6.75C11 6.11969 10.762 5.55296 10.3699 5.22617L10.3437 5.20439L10.3197 5.18033C9.85085 4.71151 9.33809 4.5 8.75 4.5Z" fill="#17191A"/>
<path fill-rule="evenodd" clip-rule="evenodd" d="M6.75 14.5C5.95517 14.5 5.14417 14.8165 4.48033 15.4803L4.46267 15.498L4.44388 15.5144C3.82864 16.0528 3.5 16.8352 3.5 17.75V20.75H2V17.75C2 16.4731 2.46531 15.2629 3.43719 14.4022C4.37064 13.4775 5.55233 13 6.75 13H10.75C12.0269 13 13.2371 13.4653 14.0978 14.4372C15.0225 15.3706 15.5 16.5523 15.5 17.75V20.75H14V17.75C14 16.9552 13.6835 16.1442 13.0197 15.4803L13.002 15.4627L12.9856 15.4439C12.4472 14.8286 11.6648 14.5 10.75 14.5H6.75Z" fill="#17191A"/>
</svg>
