<svg width="24" height="24" viewBox="0 0 24 24" fill="none" xmlns="http://www.w3.org/2000/svg">
<path d="M19.1 2L17.7 3.4C19.2 4.9 20 6.9 20 9.1C20 11.3 19.2 13.3 17.7 14.8L19.1 16.2C21 14.3 22 11.8 22 9.1C22 6.4 21 3.9 19.1 2Z" fill="#17191A"/>
<path d="M16.2 4.90002L14.9 6.40002C15.6 7.10002 16.1 8.10002 16.1 9.20002C16.1 10.3 15.6 11.2 14.9 12L16.3 13.4C17.4 12.3 18.1 10.7 18.1 9.20002C18.1 7.70002 17.4 6.00002 16.3 5.00002L16.2 4.90002Z" fill="#17191A"/>
<path d="M9 12.1C10.2 12.1 11.2 11.6 11.8 10.9C12.6 10.1 13 9.19998 13 8.09998C13 6.99998 12.5 5.89998 11.8 5.29998C11 4.49998 10.1 4.09998 9 4.09998C7.9 4.09998 6.8 4.59998 6.2 5.29998C5.4 6.09998 5 6.99998 5 8.09998C5 9.19998 5.5 10.3 6.2 10.9C7 11.7 7.9 12.1 9 12.1Z" fill="#17191A"/>
<path d="M11 14.1H7C5.7 14.1 4.5 14.6 3.5 15.5C2.5 16.4 2 17.6 2 19.1V22.1H16V19.1C16 17.8 15.5 16.6 14.6 15.6C13.7 14.6 12.5 14.1 11 14.1Z" fill="#17191A"/>
</svg>
