<svg width="24" height="24" viewBox="0 0 24 24" fill="none" xmlns="http://www.w3.org/2000/svg">
<path fill-rule="evenodd" clip-rule="evenodd" d="M12 10C10.9 10 10 9.2 10 8C10 6.8 10.9 6 12 6C13.1 6 14 6.8 14 8C14 9.2 13.2 10 12 10Z" fill="#17191A"/>
<path fill-rule="evenodd" clip-rule="evenodd" d="M12 11C14.2 11 16 12.6 16 14.6V15H8V14.6C8 12.6 9.8 11 12 11Z" fill="#17191A"/>
<path fill-rule="evenodd" clip-rule="evenodd" d="M5 3.75C4.31421 3.75 3.75 4.31421 3.75 5V16C3.75 16.6858 4.31421 17.25 5 17.25H9.31066L12 19.9393L14.6893 17.25H19C19.6858 17.25 20.25 16.6858 20.25 16V5C20.25 4.31421 19.6858 3.75 19 3.75H5ZM2.25 5C2.25 3.48579 3.48579 2.25 5 2.25H19C20.5142 2.25 21.75 3.48579 21.75 5V16C21.75 17.5142 20.5142 18.75 19 18.75H15.3107L12 22.0607L8.68934 18.75H5C3.48579 18.75 2.25 17.5142 2.25 16V5Z" fill="#17191A"/>
</svg>
