<svg width="24" height="24" viewBox="0 0 24 24" fill="none" xmlns="http://www.w3.org/2000/svg">
<path fill-rule="evenodd" clip-rule="evenodd" d="M5.40235 3.43707C6.2704 2.45834 7.58316 2 8.75 2C9.94772 2 11.1295 2.47754 12.0629 3.40235C13.0417 4.27041 13.5 5.58316 13.5 6.75C13.5 7.94772 13.0225 9.12946 12.0976 10.0629C11.2296 11.0417 9.91684 11.5 8.75 11.5C7.55233 11.5 6.37064 11.0225 5.43719 10.0978C4.46531 9.2371 4 8.02694 4 6.75C4 5.55228 4.47754 4.37054 5.40235 3.43707ZM8.75 3.5C7.92439 3.5 7.04658 3.83571 6.51443 4.44388L6.49799 4.46267L6.48033 4.48033C5.81649 5.14417 5.5 5.95517 5.5 6.75C5.5 7.66479 5.82864 8.44724 6.44388 8.98557L6.46267 9.00201L6.48033 9.01967C7.14417 9.68351 7.95517 10 8.75 10C9.57561 10 10.4534 9.66429 10.9856 9.05612L11.002 9.03733L11.0197 9.01967C11.6835 8.35583 12 7.54483 12 6.75C12 5.92439 11.6643 5.04658 11.0561 4.51443L11.0373 4.49799L11.0197 4.48033C10.3558 3.81649 9.54483 3.5 8.75 3.5Z" fill="#17191A"/>
<path fill-rule="evenodd" clip-rule="evenodd" d="M6.75 15.5C5.95517 15.5 5.14417 15.8165 4.48033 16.4803L4.46267 16.498L4.44388 16.5144C3.82864 17.0528 3.5 17.8352 3.5 18.75V21.75H2V18.75C2 17.4731 2.46531 16.2629 3.43719 15.4022C4.37064 14.4775 5.55233 14 6.75 14H10.75C12.0269 14 13.2371 14.4653 14.0978 15.4372C15.0225 16.3706 15.5 17.5523 15.5 18.75V21.75H14V18.75C14 17.9552 13.6835 17.1442 13.0197 16.4803L13.002 16.4627L12.9856 16.4439C12.4472 15.8286 11.6648 15.5 10.75 15.5H6.75Z" fill="#17191A"/>
<path fill-rule="evenodd" clip-rule="evenodd" d="M17.3584 4.71254C16.8414 4.11691 16.2807 3.73629 15.5873 3.5822L15.9127 2.11792C17.0094 2.36163 17.8426 2.97231 18.5194 3.76197L18.541 3.78715L18.5603 3.81413C19.1494 4.63895 19.5 5.69084 19.5 6.75006C19.5 7.80928 19.1494 8.86117 18.5603 9.68599C17.9406 10.5536 16.9718 11.1468 15.9127 11.3822L15.5873 9.91792C16.3281 9.75328 16.9594 9.34655 17.3397 8.81413C17.7505 8.23895 18 7.49084 18 6.75006C18 6.02063 17.7581 5.28409 17.3584 4.71254Z" fill="#17191A"/>
<path fill-rule="evenodd" clip-rule="evenodd" d="M17.9127 14.2179C18.9718 14.4533 19.9406 15.0465 20.5603 15.9141C21.1379 16.7228 21.5 17.6724 21.5 18.75V21.75H20V18.75C20 18.0277 19.762 17.3773 19.3397 16.786C18.9594 16.2535 18.3281 15.8468 17.5873 15.6822L17.9127 14.2179Z" fill="#17191A"/>
</svg>
