<svg width="24" height="24" viewBox="0 0 24 24" fill="none" xmlns="http://www.w3.org/2000/svg">
<path fill-rule="evenodd" clip-rule="evenodd" d="M18.6803 2C20.5287 3.84837 21.5 6.34261 21.5 8.93033C21.5 11.5181 20.5287 14.0123 18.6803 15.8607L17.6196 14.8C19.1713 13.2484 20 11.1426 20 8.93033C20 6.71805 19.1713 4.61229 17.6196 3.06066L18.6803 2Z" fill="#17191A"/>
<path fill-rule="evenodd" clip-rule="evenodd" d="M15.7518 4.8728C16.929 5.93227 17.5001 7.44487 17.5001 8.93027C17.5001 10.45 16.8056 11.9354 15.7804 12.9606L14.7197 11.8999C15.4945 11.1252 16.0001 10.0105 16.0001 8.93027C16.0001 7.81568 15.5711 6.72827 14.7483 5.98774L15.7518 4.8728Z" fill="#17191A"/>
<path fill-rule="evenodd" clip-rule="evenodd" d="M6.09638 6.32343C6.76997 5.53432 7.79107 5.1803 8.75 5.1803C9.75112 5.1803 10.6302 5.56054 11.3569 6.27668C12.146 6.95027 12.5 7.97137 12.5 8.9303C12.5 9.93141 12.1198 10.8105 11.4036 11.5372C10.73 12.3263 9.70893 12.6803 8.75 12.6803C7.74888 12.6803 6.8698 12.3001 6.14313 11.5839C5.35402 10.9103 5 9.88923 5 8.9303C5 7.92918 5.38024 7.0501 6.09638 6.32343ZM8.75 6.6803C8.11969 6.6803 7.55296 6.91829 7.22617 7.31044L7.20439 7.33657L7.18033 7.36063C6.71151 7.82944 6.5 8.34221 6.5 8.9303C6.5 9.56061 6.73799 10.1273 7.13014 10.4541L7.15627 10.4759L7.18033 10.5C7.64915 10.9688 8.16191 11.1803 8.75 11.1803C9.38031 11.1803 9.94704 10.9423 10.2738 10.5502L10.2956 10.524L10.3197 10.5C10.7885 10.0312 11 9.51838 11 8.9303C11 8.29999 10.762 7.73326 10.3699 7.40646L10.3437 7.38468L10.3197 7.36063C9.85085 6.89181 9.33809 6.6803 8.75 6.6803Z" fill="#17191A"/>
<path fill-rule="evenodd" clip-rule="evenodd" d="M6.75 16.6803C5.95517 16.6803 5.14417 16.9968 4.48033 17.6606L4.46267 17.6783L4.44388 17.6947C3.82864 18.2331 3.5 19.0155 3.5 19.9303V22.9303H2V19.9303C2 18.6534 2.46531 17.4432 3.43719 16.5825C4.37064 15.6578 5.55233 15.1803 6.75 15.1803H10.75C12.0269 15.1803 13.2371 15.6456 14.0978 16.6175C15.0225 17.5509 15.5 18.7326 15.5 19.9303V22.9303H14V19.9303C14 19.1355 13.6835 18.3245 13.0197 17.6606L13.002 17.643L12.9856 17.6242C12.4472 17.0089 11.6648 16.6803 10.75 16.6803H6.75Z" fill="#17191A"/>
</svg>
