<svg width="24" height="24" viewBox="0 0 24 24" fill="none" xmlns="http://www.w3.org/2000/svg">
<path d="M14.8 7.7C14 6.9 13.1 6.5 12 6.5C10.9 6.5 9.8 7 9.2 7.7C8.4 8.5 8 9.4 8 10.5C8 11.6 8.5 12.7 9.2 13.3C10 14.1 10.9 14.5 12 14.5C13.1 14.5 14.2 14 14.8 13.3C15.6 12.5 16 11.6 16 10.5C16 9.4 15.5 8.3 14.8 7.7Z" fill="#17191A"/>
<path d="M12 1C5.9 1 1 5.9 1 12C1 18.1 5.9 23 12 23C18.1 23 23 18.1 23 12C23 5.9 18.1 1 12 1ZM18.4 18.3C18.2 17.8 17.9 17.4 17.5 16.9C16.6 15.9 15.4 15.4 14 15.4H10C8.7 15.4 7.2 16 6.4 16.9C6 17.3 5.8 17.7 5.6 18.2C4.1 16.6 3.1 14.4 3.1 12C3 7 7 3 12 3C17 3 21 7 21 12C21 16.5 19 17.5 18.4 18.3Z" fill="#17191A"/>
</svg>
