<svg width="24" height="24" viewBox="0 0 24 24" fill="none" xmlns="http://www.w3.org/2000/svg">
<path fill-rule="evenodd" clip-rule="evenodd" d="M21.1195 6.09735C21.3546 6.23048 21.5 6.4798 21.5 6.75V16.75C21.5 17.0202 21.3546 17.2695 21.1195 17.4026C20.8844 17.5358 20.5958 17.5321 20.3641 17.3931L15.3641 14.3931C15.0089 14.18 14.8938 13.7193 15.1069 13.3641C15.32 13.0089 15.7807 12.8938 16.1359 13.1069L20 15.4254V8.07464L16.1359 10.3931C15.7807 10.6062 15.32 10.4911 15.1069 10.1359C14.8938 9.78069 15.0089 9.31999 15.3641 9.10688L20.3641 6.10688C20.5958 5.96786 20.8844 5.96422 21.1195 6.09735Z" fill="#17191A"/>
<path fill-rule="evenodd" clip-rule="evenodd" d="M2 5.75C2 5.33579 2.33579 5 2.75 5H15.75C16.1642 5 16.5 5.33579 16.5 5.75V17.75C16.5 18.1642 16.1642 18.5 15.75 18.5H2.75C2.33579 18.5 2 18.1642 2 17.75V5.75ZM3.5 6.5V17H15V6.5H3.5Z" fill="#17191A"/>
</svg>
