<svg width="24" height="24" viewBox="0 0 24 24" fill="none" xmlns="http://www.w3.org/2000/svg">
<path fill-rule="evenodd" clip-rule="evenodd" d="M12.0749 4.17401C12.3347 4.2989 12.5 4.56168 12.5 4.84998V18.85C12.5 19.1383 12.3347 19.4011 12.0749 19.526C11.815 19.6508 11.5066 19.6157 11.2815 19.4356L6.48691 15.6H2.75C2.33579 15.6 2 15.2642 2 14.85V8.84998C2 8.43577 2.33579 8.09998 2.75 8.09998H6.48691L11.2815 4.26433C11.5066 4.08423 11.815 4.04912 12.0749 4.17401ZM11 6.41045L7.21852 9.43563C7.08554 9.54202 6.9203 9.59998 6.75 9.59998H3.5V14.1H6.75C6.9203 14.1 7.08554 14.1579 7.21852 14.2643L11 17.2895V6.41045Z" fill="#17191A"/>
<path fill-rule="evenodd" clip-rule="evenodd" d="M17.3196 4.21967C17.6125 3.92678 18.0874 3.92678 18.3803 4.21967C20.4261 6.2655 21.5 8.95853 21.5 11.85C21.5 14.7584 20.3146 17.4389 18.3944 19.4658C18.1096 19.7665 17.6349 19.7793 17.3342 19.4945C17.0335 19.2096 17.0206 18.7349 17.3055 18.4342C18.9853 16.6611 20 14.3416 20 11.85C20 9.34147 19.0738 7.0345 17.3196 5.28033C17.0268 4.98744 17.0268 4.51256 17.3196 4.21967Z" fill="#17191A"/>
<path fill-rule="evenodd" clip-rule="evenodd" d="M14.7197 7.81965C15.0126 7.52675 15.4874 7.52675 15.7803 7.81965C16.8055 8.84485 17.5 10.3302 17.5 11.85C17.5 13.3354 16.9289 14.848 15.7517 15.9074C15.4438 16.1845 14.9696 16.1596 14.6925 15.8517C14.4154 15.5438 14.4404 15.0696 14.7483 14.7925C15.5711 14.052 16 12.9646 16 11.85C16 10.7697 15.4945 9.6551 14.7197 8.88031C14.4268 8.58741 14.4268 8.11254 14.7197 7.81965Z" fill="#17191A"/>
</svg>
