<svg width="24" height="24" viewBox="0 0 24 24" fill="none" xmlns="http://www.w3.org/2000/svg">
<path d="M12.4 4.19996C12.1 3.99996 11.6 4.09996 11.3 4.29996L6.6 8.09996H3C2.4 8.09996 2 8.49996 2 9.09996V15.1C2 15.7 2.4 16.1 3 16.1H6.6L11.3 19.9C11.5 20 11.7 20.1 11.9 20.1C12.1 20.1 12.2 20.1 12.3 20.1C12.6 19.9 12.9 19.6 12.9 19.2V5.09996C12.9 4.69996 12.7 4.39996 12.3 4.19996H12.4Z" fill="#17191A"/>
<path d="M18.8 4.3C18.4 3.9 17.8 3.9 17.4 4.3C17 4.7 17 5.3 17.4 5.7C19.1 7.4 20 9.6 20 12.1C20 14.6 19.1 16.7 17.4 18.5C17 18.9 17 19.5 17.4 19.9C17.6 20.1 17.8 20.2 18.1 20.2C18.4 20.2 18.6 20.1 18.8 19.9C20.8 17.7 22 15 22 12.1C22 9.2 20.9 6.4 18.8 4.3Z" fill="#17191A"/>
<path d="M16.2 7.89998C15.8 7.49998 15.2 7.49998 14.8 7.89998C14.4 8.29998 14.4 8.89997 14.8 9.29997C15.5 9.99997 16 11.1 16 12.1C16 13.1 15.6 14.2 14.8 14.9C14.4 15.3 14.4 15.9 14.8 16.3C15 16.5 15.3 16.6 15.5 16.6C15.7 16.6 16 16.6 16.2 16.3C17.4 15.3 18 13.7 18 12.1C18 10.5 17.3 8.99998 16.2 7.89998Z" fill="#17191A"/>
</svg>
