<svg width="24" height="24" viewBox="0 0 24 24" fill="none" xmlns="http://www.w3.org/2000/svg">
<path d="M14.4 4.10902C14.1 3.90902 13.6 4.00902 13.3 4.20902L8.6 8.00902H5C4.4 8.00902 4 8.40902 4 9.00902V15.009C4 15.609 4.4 16.009 5 16.009H8.6L13.3 19.809C13.5 19.909 13.7 20.009 13.9 20.009C14.1 20.009 14.2 20.009 14.3 20.009C14.6 19.809 14.9 19.509 14.9 19.109V5.00902C14.9 4.60902 14.7 4.30902 14.3 4.10902H14.4Z" fill="#17191A"/>
<path d="M19.2 7.80903C18.8 7.40903 18.2 7.40903 17.8 7.80903C17.4 8.20903 17.4 8.80903 17.8 9.20903C18.5 9.90903 19 11.009 19 12.009C19 13.009 18.6 14.109 17.8 14.809C17.4 15.209 17.4 15.809 17.8 16.209C18 16.409 18.3 16.509 18.5 16.509C18.7 16.509 19 16.509 19.2 16.209C20.4 15.209 21 13.609 21 12.009C21 10.409 20.3 8.90903 19.2 7.80903Z" fill="#17191A"/>
</svg>
