<svg width="24" height="24" viewBox="0 0 24 24" fill="none" xmlns="http://www.w3.org/2000/svg">
<path fill-rule="evenodd" clip-rule="evenodd" d="M14.0749 4.07403C14.3347 4.19892 14.5 4.4617 14.5 4.75001V18.75C14.5 19.0383 14.3347 19.3011 14.0749 19.426C13.815 19.5509 13.5066 19.5158 13.2815 19.3357L8.48691 15.5H4.75C4.33579 15.5 4 15.1642 4 14.75V8.75001C4 8.33579 4.33579 8.00001 4.75 8.00001H8.48691L13.2815 4.16436C13.5066 3.98425 13.815 3.94914 14.0749 4.07403ZM13 6.31048L9.21852 9.33566C9.08554 9.44205 8.9203 9.50001 8.75 9.50001H5.5V14H8.75C8.9203 14 9.08554 14.058 9.21852 14.1644L13 17.1895V6.31048Z" fill="#17191A"/>
<path fill-rule="evenodd" clip-rule="evenodd" d="M17.7197 7.71967C18.0126 7.42678 18.4874 7.42678 18.7803 7.71967C19.8055 8.74488 20.5 10.2303 20.5 11.75C20.5 13.2354 19.9289 14.748 18.7517 15.8075C18.4438 16.0846 17.9696 16.0596 17.6925 15.7517C17.4154 15.4438 17.4404 14.9696 17.7483 14.6925C18.5711 13.952 19 12.8646 19 11.75C19 10.6697 18.4945 9.55512 17.7197 8.78033C17.4268 8.48744 17.4268 8.01256 17.7197 7.71967Z" fill="#17191A"/>
</svg>
