<svg width="24" height="24" viewBox="0 0 24 24" fill="none" xmlns="http://www.w3.org/2000/svg">
<path d="M12.999 5C14.1036 5 14.999 4.10457 14.999 3C14.999 1.89543 14.1036 1 12.999 1C11.8945 1 10.999 1.89543 10.999 3C10.999 4.10457 11.8945 5 12.999 5Z" fill="#17191A"/>
<path d="M18.5541 12.168L15.6971 10.2629L12.8001 6.39995C12.7271 6.30195 12.6351 6.22695 12.5361 6.16395C12.5061 6.14495 12.4751 6.13095 12.4441 6.11495C12.3671 6.07695 12.2881 6.04895 12.2041 6.03195C12.1711 6.02495 12.1411 6.01595 12.1081 6.01195C11.9941 5.99995 11.8791 5.99995 11.7641 6.02895H11.7631C11.7581 6.02995 11.7541 6.03395 11.7491 6.03495C11.6351 6.06495 11.5331 6.11795 11.4391 6.18295C11.4271 6.19095 11.4131 6.19195 11.4021 6.20095L7.40205 9.20095C7.21805 9.33895 7.08805 9.53495 7.03205 9.75795L6.03205 13.758C5.89805 14.293 6.22405 14.836 6.76005 14.97C6.84205 14.991 6.92305 15 7.00405 15C7.45205 15 7.85905 14.6969 7.97305 14.242L8.88705 10.587L10.6071 9.29695L10.0201 12.818L9.08205 17.506L6.29605 20.292C5.90505 20.6829 5.90505 21.3149 6.29605 21.7059C6.49105 21.9009 6.74705 21.999 7.00305 21.999C7.25905 21.999 7.51505 21.9009 7.71005 21.7059L10.7101 18.7059C10.8501 18.5659 10.9451 18.389 10.9831 18.195L11.5451 15.387L13.1241 17.492L15.0741 22.3689C15.2301 22.761 15.6061 22.9979 16.0031 22.9979C16.1271 22.9979 16.2531 22.976 16.3741 22.927C16.8871 22.722 17.1371 22.14 16.9321 21.627L14.9321 16.627C14.8991 16.545 14.8561 16.469 14.8031 16.398L12.0601 12.74L12.6061 9.46795L14.2041 11.5979C14.2711 11.6889 14.3541 11.767 14.4491 11.83L17.4491 13.83C17.9091 14.135 18.5291 14.012 18.8361 13.553C19.1431 13.093 19.0191 12.473 18.5591 12.166L18.5541 12.168Z" fill="#17191A"/>
</svg>
