<svg width="24" height="24" viewBox="0 0 24 24" fill="none" xmlns="http://www.w3.org/2000/svg">
<path fill-rule="evenodd" clip-rule="evenodd" d="M3 5.25C3.41421 5.25 3.75 5.58579 3.75 6C3.75 6.76491 4.28914 7.25 4.8 7.25H18C19.5142 7.25 20.75 8.48579 20.75 10V12C20.75 12.4142 20.4142 12.75 20 12.75C19.5858 12.75 19.25 12.4142 19.25 12V10C19.25 9.31421 18.6858 8.75 18 8.75H4.8C4.41831 8.75 4.06476 8.66361 3.75 8.51096V18C3.75 18.7649 4.28914 19.25 4.8 19.25H18.2C18.7109 19.25 19.25 18.7649 19.25 18V16C19.25 15.5858 19.5858 15.25 20 15.25C20.4142 15.25 20.75 15.5858 20.75 16V18C20.75 19.4351 19.6891 20.75 18.2 20.75H4.8C3.31086 20.75 2.25 19.4351 2.25 18V6C2.25 5.58579 2.58579 5.25 3 5.25Z" fill="#17191A"/>
<path fill-rule="evenodd" clip-rule="evenodd" d="M5 4.75C4.31421 4.75 3.75 5.31421 3.75 6C3.75 6.68579 4.31421 7.25 5 7.25H17.25V6C17.25 5.31421 16.6858 4.75 16 4.75H5ZM2.25 6C2.25 4.48579 3.48579 3.25 5 3.25H16C17.5142 3.25 18.75 4.48579 18.75 6V8C18.75 8.41421 18.4142 8.75 18 8.75H5C3.48579 8.75 2.25 7.51421 2.25 6Z" fill="#17191A"/>
<path fill-rule="evenodd" clip-rule="evenodd" d="M17 12.75C16.3142 12.75 15.75 13.3142 15.75 14C15.75 14.6858 16.3142 15.25 17 15.25H21.25V12.75H17ZM14.25 14C14.25 12.4858 15.4858 11.25 17 11.25H22C22.4142 11.25 22.75 11.5858 22.75 12V16C22.75 16.4142 22.4142 16.75 22 16.75H17C15.4858 16.75 14.25 15.5142 14.25 14Z" fill="#17191A"/>
</svg>
