<svg width="24" height="24" viewBox="0 0 24 24" fill="none" xmlns="http://www.w3.org/2000/svg">
<path d="M21.5 11H20.5V10C20.5 8.698 19.661 7.598 18.5 7.184V6C18.5 4.346 17.154 3 15.5 3H4.5C2.846 3 1.5 4.346 1.5 6V18C1.5 19.654 2.756 21 4.3 21H17.7C19.244 21 20.5 19.654 20.5 18V17H21.5C22.053 17 22.5 16.553 22.5 16V12C22.5 11.448 22.053 11 21.5 11ZM4.5 5H15.5C16.052 5 16.5 5.449 16.5 6V7H4.5C3.949 7 3.5 6.551 3.5 6C3.5 5.449 3.949 5 4.5 5ZM20.5 15H16.5C15.948 15 15.5 14.552 15.5 14C15.5 13.448 15.948 13 16.5 13H20.5V15Z" fill="#17191A"/>
</svg>
