<svg width="24" height="24" viewBox="0 0 24 24" fill="none" xmlns="http://www.w3.org/2000/svg">
<path fill-rule="evenodd" clip-rule="evenodd" d="M12 2.25C12.2658 2.25 12.5117 2.39066 12.6465 2.61973L22.6465 19.6197C22.7829 19.8516 22.7846 20.1388 22.651 20.3724C22.5175 20.6059 22.269 20.75 22 20.75H2C1.73096 20.75 1.48253 20.6059 1.34896 20.3724C1.21539 20.1388 1.21714 19.8516 1.35355 19.6197L11.3535 2.61973C11.4883 2.39066 11.7342 2.25 12 2.25ZM3.31131 19.25H20.6887L12 4.47923L3.31131 19.25Z" fill="#17191A"/>
<path fill-rule="evenodd" clip-rule="evenodd" d="M11.25 14V9H12.75V14H11.25Z" fill="#17191A"/>
<path fill-rule="evenodd" clip-rule="evenodd" d="M11.25 17V15H12.75V17H11.25Z" fill="#17191A"/>
</svg>
