<svg width="24" height="24" viewBox="0 0 24 24" fill="none" xmlns="http://www.w3.org/2000/svg">
<path fill-rule="evenodd" clip-rule="evenodd" d="M8.25 2.25H15.75V6.75H8.25V2.25ZM9.75 3.75V5.25H14.25V3.75H9.75Z" fill="#17191A"/>
<path fill-rule="evenodd" clip-rule="evenodd" d="M8.25 17.25H15.75V21.75H8.25V17.25ZM9.75 18.75V20.25H14.25V18.75H9.75Z" fill="#17191A"/>
<path fill-rule="evenodd" clip-rule="evenodd" d="M9 6.75C7.75736 6.75 6.75 7.75736 6.75 9V15C6.75 16.2426 7.75736 17.25 9 17.25H15C16.2426 17.25 17.25 16.2426 17.25 15V9C17.25 7.75736 16.2426 6.75 15 6.75H9ZM5.25 9C5.25 6.92893 6.92893 5.25 9 5.25H15C17.0711 5.25 18.75 6.92893 18.75 9V15C18.75 17.0711 17.0711 18.75 15 18.75H9C6.92893 18.75 5.25 17.0711 5.25 15V9Z" fill="#17191A"/>
</svg>
