<svg width="24" height="24" viewBox="0 0 24 24" fill="none" xmlns="http://www.w3.org/2000/svg">
<path fill-rule="evenodd" clip-rule="evenodd" d="M12.0003 4.44043C7.89675 4.44043 4.19323 6.12875 1.5377 8.85659L0.462891 7.81027C3.38936 4.80411 7.47584 2.94043 12.0003 2.94043C16.5248 2.94043 20.6113 4.80412 23.5378 7.81136L22.4628 8.85749C19.8073 6.12873 16.1038 4.44043 12.0003 4.44043Z" fill="#17191A"/>
<path fill-rule="evenodd" clip-rule="evenodd" d="M12.0003 9.51543C9.30713 9.51543 6.86085 10.6438 5.13111 12.4441L4.04948 11.4048C6.04974 9.32303 8.88146 8.01543 12.0003 8.01543C15.1192 8.01543 17.9499 9.3231 19.951 11.4046L18.8696 12.4442C17.1387 10.6438 14.6934 9.51543 12.0003 9.51543Z" fill="#17191A"/>
<path fill-rule="evenodd" clip-rule="evenodd" d="M12.0003 14.7164C10.7436 14.7164 9.61132 15.2463 8.82436 16.1089L7.71623 15.0979C8.78128 13.9305 10.3129 13.2164 12.0003 13.2164C13.6876 13.2164 15.2193 13.9305 16.2844 15.0979L15.1762 16.1089C14.3893 15.2463 13.2569 14.7164 12.0003 14.7164Z" fill="#17191A"/>
<path d="M12.0003 20.0004C12.5526 20.0004 13.0003 19.5527 13.0003 19.0004C13.0003 18.4481 12.5526 18.0004 12.0003 18.0004C11.448 18.0004 11.0003 18.4481 11.0003 19.0004C11.0003 19.5527 11.448 20.0004 12.0003 20.0004Z" fill="#17191A"/>
</svg>
