<svg width="24" height="24" viewBox="0 0 24 24" fill="none" xmlns="http://www.w3.org/2000/svg">
<path d="M12.0002 2.69045C7.5492 2.69045 3.3882 4.44645 0.283203 7.63545L1.7172 9.03145C4.4422 6.23245 8.0932 4.69045 12.0002 4.69045C15.9072 4.69045 19.5592 6.23245 22.2832 9.03145L23.7172 7.63645C20.6132 4.44645 16.4512 2.68945 12.0002 2.68945V2.69045Z" fill="#17191A"/>
<path d="M3.86923 11.2314L5.31122 12.6174C7.05223 10.8054 9.49123 9.76538 12.0002 9.76538C14.5092 9.76538 16.9462 10.8054 18.6892 12.6174L20.1302 11.2314C18.0132 9.02838 15.0492 7.76538 11.9992 7.76538C8.94922 7.76538 5.98522 9.02838 3.86923 11.2314Z" fill="#17191A"/>
<path d="M7.53122 14.9296L9.00922 16.2776C9.76922 15.4446 10.8592 14.9666 12.0002 14.9666C13.1412 14.9666 14.2312 15.4446 14.9922 16.2786L16.4692 14.9286C15.3302 13.6816 13.7012 12.9666 12.0002 12.9666C10.2992 12.9666 8.66922 13.6826 7.53122 14.9296Z" fill="#17191A"/>
<path d="M12.0002 20.0005C12.5525 20.0005 13.0002 19.5528 13.0002 19.0005C13.0002 18.4482 12.5525 18.0005 12.0002 18.0005C11.4479 18.0005 11.0002 18.4482 11.0002 19.0005C11.0002 19.5528 11.4479 20.0005 12.0002 20.0005Z" fill="#17191A"/>
</svg>
