<svg width="24" height="24" viewBox="0 0 24 24" fill="none" xmlns="http://www.w3.org/2000/svg">
<path d="M18 5C15.645 5 14 6.645 14 9H16C16 7.144 17.531 7 18 7C19.103 7 20 7.897 20 9C20 10.14 19.141 11 18 11H2V13H18C20.243 13 22 11.243 22 9C22 6.794 20.206 5 18 5Z" fill="#17191A"/>
<path d="M16.5 15H4V17H16.5C17.341 17 18 17.659 18 18.5C18 19.384 17.21 20 16.5 20C16.049 20 15 19.854 15 18.5H13C13 20.561 14.439 22 16.5 22C18.397 22 20 20.397 20 18.5C20 16.537 18.463 15 16.5 15Z" fill="#17191A"/>
<path d="M12.8 5.5C12.8 3.603 11.197 2 9.3 2C7.239 2 5.8 3.439 5.8 5.5H7.8C7.8 4.146 8.849 4 9.3 4C10.009 4 10.8 4.616 10.8 5.5C10.8 6.341 10.141 7 9.3 7H3V9H9.3C11.262 9 12.8 7.462 12.8 5.5Z" fill="#17191A"/>
</svg>
