<svg width="24" height="24" viewBox="0 0 24 24" fill="none" xmlns="http://www.w3.org/2000/svg">
<path fill-rule="evenodd" clip-rule="evenodd" d="M5 4.75C4.30964 4.75 3.75 5.30964 3.75 6V18C3.75 18.6904 4.30964 19.25 5 19.25H19C19.6904 19.25 20.25 18.6904 20.25 18V6C20.25 5.30964 19.6904 4.75 19 4.75H5ZM2.25 6C2.25 4.48122 3.48122 3.25 5 3.25H19C20.5188 3.25 21.75 4.48122 21.75 6V18C21.75 19.5188 20.5188 20.75 19 20.75H5C3.48122 20.75 2.25 19.5188 2.25 18V6Z" fill="#17191A"/>
<path fill-rule="evenodd" clip-rule="evenodd" d="M8.93934 12.0001L6.46967 9.53039L7.53033 8.46973L11.0607 12.0001L7.53033 15.5304L6.46967 14.4697L8.93934 12.0001Z" fill="#17191A"/>
<path fill-rule="evenodd" clip-rule="evenodd" d="M18 15.75H13V14.25H18V15.75Z" fill="#17191A"/>
</svg>
