<svg width="24" height="24" viewBox="0 0 24 24" fill="none" xmlns="http://www.w3.org/2000/svg">
<path fill-rule="evenodd" clip-rule="evenodd" d="M15.3955 6.19504C16.1075 5.54779 17.0485 5.25 18 5.25C19.9979 5.25 21.75 6.86963 21.75 9C21.75 11.1142 20.1142 12.75 18 12.75H2V11.25H18C19.2858 11.25 20.25 10.2858 20.25 9C20.25 7.73037 19.2021 6.75 18 6.75C17.3515 6.75 16.7925 6.95222 16.4045 7.30496C16.028 7.64724 15.75 8.187 15.75 9H14.25C14.25 7.813 14.672 6.85276 15.3955 6.19504Z" fill="#17191A"/>
<path fill-rule="evenodd" clip-rule="evenodd" d="M16.5 16.75H4V15.25H16.5C18.3142 15.25 19.75 16.6858 19.75 18.5C19.75 20.3335 18.1947 21.75 16.5 21.75C15.7026 21.75 14.8883 21.5047 14.2633 20.9472C13.6243 20.3773 13.25 19.5401 13.25 18.5H14.75C14.75 19.1599 14.9757 19.5726 15.2617 19.8278C15.5617 20.0953 15.9974 20.25 16.5 20.25C17.4053 20.25 18.25 19.4665 18.25 18.5C18.25 17.5142 17.4858 16.75 16.5 16.75Z" fill="#17191A"/>
<path fill-rule="evenodd" clip-rule="evenodd" d="M7.06329 3.05278C7.68834 2.4953 8.50262 2.25 9.3 2.25C10.9947 2.25 12.55 3.66655 12.55 5.5C12.55 7.31421 11.1142 8.75 9.3 8.75H3V7.25H9.3C10.2858 7.25 11.05 6.48579 11.05 5.5C11.05 4.53345 10.2053 3.75 9.3 3.75C8.79738 3.75 8.36166 3.9047 8.06171 4.17222C7.77566 4.42735 7.55 4.84006 7.55 5.5H6.05C6.05 4.45994 6.42434 3.62265 7.06329 3.05278Z" fill="#17191A"/>
</svg>
