<svg width="24" height="24" viewBox="0 0 24 24" fill="none" xmlns="http://www.w3.org/2000/svg">
<path d="M12 2C6.486 2 2 6.486 2 12C2 17.514 6.486 22 12 22C17.514 22 22 17.514 22 12C22 6.486 17.514 2 12 2ZM17.372 13H16.068L15.186 15.352C15.04 15.741 14.668 15.999 14.252 16H14.249C13.834 16 13.463 15.744 13.314 15.356L11.976 11.848L10.687 15.346C10.542 15.739 10.169 15.999 9.751 16H9.748C9.331 16 8.958 15.741 8.811 15.352L7.929 13H6.608C6.056 13 5.608 12.553 5.608 12C5.608 11.447 6.056 11 6.608 11H7.179L6.561 9.351C6.367 8.834 6.629 8.258 7.146 8.063C7.664 7.872 8.239 8.131 8.434 8.648L9.74 12.13L11.021 8.653C11.166 8.262 11.537 8.001 11.954 7.999H11.959C12.374 7.999 12.745 8.255 12.894 8.643L14.24 12.172L14.446 11.623C14.449 11.616 14.451 11.609 14.454 11.602L15.562 8.648C15.756 8.13 16.333 7.87 16.85 8.063C17.367 8.257 17.628 8.834 17.435 9.351L16.817 11H17.371C17.924 11 18.371 11.448 18.371 12C18.371 12.552 17.925 13 17.372 13Z" fill="#17191A"/>
</svg>
