<svg width="24" height="24" viewBox="0 0 24 24" fill="none" xmlns="http://www.w3.org/2000/svg">
<path d="M12 2.25C17.3848 2.25 21.75 6.61522 21.75 12C21.75 17.3852 17.3852 21.75 12 21.75C6.61479 21.75 2.25 17.3852 2.25 12C2.25 6.61479 6.61479 2.25 12 2.25ZM12 3.75C7.44321 3.75 3.75 7.44321 3.75 12C3.75 16.5568 7.44321 20.25 12 20.25C16.5568 20.25 20.25 16.5568 20.25 12C20.25 7.44365 16.5563 3.75 12 3.75ZM11.958 8.25C12.2705 8.24834 12.5517 8.44047 12.6631 8.73242L14.2441 12.8789L14.6689 11.7451C14.6754 11.7274 14.6808 11.7094 14.6885 11.6924L15.7979 8.73633C15.9434 8.3487 16.3759 8.15245 16.7637 8.29785C17.1513 8.44341 17.3475 8.87594 17.2021 9.26367L16.457 11.25H17.3721C17.7863 11.25 18.1221 11.5858 18.1221 12C18.1221 12.4142 17.7863 12.75 17.3721 12.75H15.8945L14.9521 15.2637C14.8426 15.5555 14.5637 15.7491 14.252 15.75C13.9402 15.7508 13.66 15.5588 13.5488 15.2676L11.9736 11.1367L10.4541 15.2598C10.3457 15.5537 10.0653 15.7491 9.75195 15.75C9.47766 15.7507 9.22838 15.602 9.09668 15.3682L9.04785 15.2637L8.10547 12.75H6.61133C6.19711 12.75 5.86133 12.4142 5.86133 12C5.86133 11.5858 6.19711 11.25 6.61133 11.25H7.54297L6.79785 9.26367L6.77441 9.19043C6.67748 8.82287 6.87286 8.43434 7.23633 8.29785C7.5999 8.16151 8.00309 8.32545 8.17188 8.66602L8.20215 8.73633L9.74316 12.8467L11.2578 8.74023L11.3066 8.63574C11.4367 8.40163 11.6843 8.25152 11.958 8.25Z" fill="#17191A"/>
</svg>
