<svg width="24" height="24" viewBox="0 0 24 24" fill="none" xmlns="http://www.w3.org/2000/svg">
<path fill-rule="evenodd" clip-rule="evenodd" d="M2.25 12C2.25 6.58579 6.58579 2.25 12 2.25C17.4142 2.25 21.75 6.58579 21.75 12C21.75 17.4142 17.4142 21.75 12 21.75C6.58579 21.75 2.25 17.4142 2.25 12ZM12 3.75C7.41421 3.75 3.75 7.41421 3.75 12C3.75 16.5858 7.41421 20.25 12 20.25C16.5858 20.25 20.25 16.5858 20.25 12C20.25 7.41421 16.5858 3.75 12 3.75Z" fill="#17191A"/>
<path fill-rule="evenodd" clip-rule="evenodd" d="M21 12.75H3V11.25H21V12.75Z" fill="#17191A"/>
<path fill-rule="evenodd" clip-rule="evenodd" d="M19.7 17.25H4.2V15.75H19.7V17.25Z" fill="#17191A"/>
<path fill-rule="evenodd" clip-rule="evenodd" d="M19.7 8.25H4.2V6.75H19.7V8.25Z" fill="#17191A"/>
<path fill-rule="evenodd" clip-rule="evenodd" d="M7.275 12.05C7.275 8.72383 8.69928 5.44442 11.4599 2.57958L12.5401 3.62042C10.0007 6.25558 8.775 9.17617 8.775 12.05C8.775 14.9238 10.0007 17.8444 12.5401 20.4796L11.4599 21.5204C8.69928 18.6556 7.275 15.3762 7.275 12.05Z" fill="#17191A"/>
<path fill-rule="evenodd" clip-rule="evenodd" d="M15.225 12.05C15.225 9.17617 13.9993 6.25558 11.4599 3.62042L12.5401 2.57958C15.3007 5.44442 16.725 8.72383 16.725 12.05C16.725 15.3762 15.3007 18.6556 12.5401 21.5204L11.4599 20.4796C13.9993 17.8444 15.225 14.9238 15.225 12.05Z" fill="#17191A"/>
</svg>
