<svg width="24" height="24" viewBox="0 0 24 24" fill="none" xmlns="http://www.w3.org/2000/svg">
<path d="M5.34088 5.18052C5.63264 4.92427 6.06733 4.93541 6.34577 5.1942L6.39948 5.24888L6.83991 5.74986H8.27838L8.35455 5.75377C8.73277 5.7921 9.02831 6.11155 9.02838 6.49986C9.02838 6.88822 8.7328 7.2076 8.35455 7.24595L8.27838 7.24986H6.16022L5.27252 6.23912L5.22467 6.17857C5.00414 5.86913 5.04928 5.43674 5.34088 5.18052Z" fill="#17191A"/>
<path d="M9.75 6.5C9.75 4.70507 8.29493 3.25 6.5 3.25C4.70507 3.25 3.25 4.70507 3.25 6.5C3.25 8.29493 4.70507 9.75 6.5 9.75C8.29493 9.75 9.75 8.29493 9.75 6.5ZM11.25 6.5C11.25 9.12335 9.12335 11.25 6.5 11.25C3.87665 11.25 1.75 9.12335 1.75 6.5C1.75 3.87665 3.87665 1.75 6.5 1.75C9.12335 1.75 11.25 3.87665 11.25 6.5Z" fill="#17191A"/>
<path d="M17.8987 5.16362C18.212 4.8929 18.6854 4.92759 18.9563 5.24077C19.227 5.55397 19.1931 6.02745 18.8801 6.29838L18.138 6.93803L17.6341 8.34526L17.6038 8.41655C17.4397 8.7593 17.0395 8.92868 16.6741 8.79741C16.2846 8.65721 16.082 8.22808 16.2219 7.83842L16.7942 6.24662L16.8606 6.06108L17.0091 5.93315L17.8987 5.16362Z" fill="#17191A"/>
<path d="M20.75 6.5C20.75 4.70507 19.2949 3.25 17.5 3.25C15.7051 3.25 14.25 4.70507 14.25 6.5C14.25 8.29493 15.7051 9.75 17.5 9.75C19.2949 9.75 20.75 8.29493 20.75 6.5ZM22.25 6.5C22.25 9.12335 20.1234 11.25 17.5 11.25C14.8766 11.25 12.75 9.12335 12.75 6.5C12.75 3.87665 14.8766 1.75 17.5 1.75C20.1234 1.75 22.25 3.87665 22.25 6.5Z" fill="#17191A"/>
<path d="M8.27806 16.75L8.35423 16.7539C8.73264 16.7921 9.02806 17.1115 9.02806 17.5C9.02806 17.8885 8.73264 18.2079 8.35423 18.2461L8.27806 18.25H7.05345L6.8308 18.9717C6.70846 19.3673 6.28799 19.589 5.89232 19.4668C5.49674 19.3445 5.27502 18.924 5.3972 18.5283L5.78295 17.2783L5.94701 16.75H8.27806Z" fill="#17191A"/>
<path d="M9.75 17.5C9.75 15.7051 8.29493 14.25 6.5 14.25C4.70507 14.25 3.25 15.7051 3.25 17.5C3.25 19.2949 4.70507 20.75 6.5 20.75C8.29493 20.75 9.75 19.2949 9.75 17.5ZM11.25 17.5C11.25 20.1234 9.12335 22.25 6.5 22.25C3.87665 22.25 1.75 20.1234 1.75 17.5C1.75 14.8766 3.87665 12.75 6.5 12.75C9.12335 12.75 11.25 14.8766 11.25 17.5Z" fill="#17191A"/>
<path d="M16.75 15.842C16.75 15.4278 17.0858 15.092 17.5 15.092C17.9142 15.092 18.25 15.4278 18.25 15.842V16.7502H18.833L18.9102 16.7541C19.2881 16.7927 19.583 17.112 19.583 17.5002C19.5829 17.8883 19.2881 18.2077 18.9102 18.2463L18.833 18.2502H16.75V15.842Z" fill="#17191A"/>
<path d="M20.75 17.5C20.75 15.7051 19.2949 14.25 17.5 14.25C15.7051 14.25 14.25 15.7051 14.25 17.5C14.25 19.2949 15.7051 20.75 17.5 20.75C19.2949 20.75 20.75 19.2949 20.75 17.5ZM22.25 17.5C22.25 20.1234 20.1234 22.25 17.5 22.25C14.8766 22.25 12.75 20.1234 12.75 17.5C12.75 14.8766 14.8766 12.75 17.5 12.75C20.1234 12.75 22.25 14.8766 22.25 17.5Z" fill="#17191A"/>
</svg>
