<svg width="24" height="24" viewBox="0 0 24 24" fill="none" xmlns="http://www.w3.org/2000/svg">
<path d="M6.5 1.5C3.743 1.5 1.5 3.743 1.5 6.5C1.5 9.257 3.743 11.5 6.5 11.5C9.257 11.5 11.5 9.257 11.5 6.5C11.5 3.743 9.257 1.5 6.5 1.5ZM8.278 7.5H6.048L5.085 6.404C4.721 5.989 4.762 5.357 5.176 4.992C5.592 4.628 6.224 4.668 6.588 5.083L6.953 5.499H8.278C8.83 5.499 9.278 5.947 9.278 6.499C9.278 7.051 8.83 7.5 8.278 7.5Z" fill="#17191A"/>
<path d="M17.5 1.5C14.743 1.5 12.5 3.743 12.5 6.5C12.5 9.257 14.743 11.5 17.5 11.5C20.257 11.5 22.5 9.257 22.5 6.5C22.5 3.743 20.257 1.5 17.5 1.5ZM19.043 6.487L18.353 7.085L17.87 8.43C17.723 8.838 17.339 9.092 16.929 9.092C16.817 9.092 16.702 9.073 16.591 9.032C16.07 8.845 15.801 8.273 15.987 7.753L16.648 5.915L17.735 4.975C18.153 4.614 18.785 4.659 19.145 5.077C19.506 5.494 19.461 6.125 19.043 6.487Z" fill="#17191A"/>
<path d="M17.5 12.5C14.743 12.5 12.5 14.743 12.5 17.5C12.5 20.257 14.743 22.5 17.5 22.5C20.257 22.5 22.5 20.257 22.5 17.5C22.5 14.743 20.257 12.5 17.5 12.5ZM18.833 18.5H16.5V15.842C16.5 15.289 16.947 14.842 17.5 14.842C18.053 14.842 18.5 15.289 18.5 15.842V16.5H18.833C19.386 16.5 19.833 16.947 19.833 17.5C19.833 18.053 19.386 18.5 18.833 18.5Z" fill="#17191A"/>
<path d="M6.5 12.5C3.743 12.5 1.5 14.743 1.5 17.5C1.5 20.257 3.743 22.5 6.5 22.5C9.257 22.5 11.5 20.257 11.5 17.5C11.5 14.743 9.257 12.5 6.5 12.5ZM7.238 18.5L7.07 19.045C6.937 19.475 6.542 19.75 6.115 19.75C6.017 19.75 5.918 19.735 5.819 19.705C5.292 19.542 4.996 18.982 5.159 18.455L5.763 16.5H8.279C8.831 16.5 9.279 16.947 9.279 17.5C9.279 18.053 8.831 18.5 8.279 18.5H7.238Z" fill="#17191A"/>
</svg>
