<svg width="24" height="24" viewBox="0 0 24 24" fill="none" xmlns="http://www.w3.org/2000/svg">
<path d="M10.2728 17.4995C10.7258 18.4885 11.2968 19.4585 12.0008 20.3955C12.7048 19.4575 13.2758 18.4885 13.7288 17.4995H10.2728Z" fill="#17191A"/>
<path d="M9.07777 12.9995C9.14477 13.8375 9.29177 14.6725 9.52577 15.4995H14.4778C14.7118 14.6725 14.8588 13.8375 14.9258 12.9995H9.07777Z" fill="#17191A"/>
<path d="M15.8988 6.49954H20.3438C18.7898 4.15054 16.2728 2.50154 13.3598 2.10254C14.4518 3.50354 15.3088 4.97754 15.8998 6.49954H15.8988Z" fill="#17191A"/>
<path d="M16.5098 15.4995H21.3558C21.6538 14.7075 21.8628 13.8725 21.9498 12.9995H16.8968C16.8398 13.8375 16.7088 14.6715 16.5098 15.4995Z" fill="#17191A"/>
<path d="M14.4768 8.49951H9.52478C9.29078 9.32651 9.14378 10.1615 9.07678 10.9995H14.9238C14.8568 10.1615 14.7108 9.32651 14.4768 8.49951Z" fill="#17191A"/>
<path d="M16.5098 8.49951C16.7088 9.32751 16.8408 10.1615 16.8968 10.9995H21.9498C21.8628 10.1265 21.6538 9.29151 21.3558 8.49951H16.5098Z" fill="#17191A"/>
<path d="M15.8988 17.4995C15.3078 19.0215 14.4508 20.4955 13.3588 21.8965C16.2718 21.4985 18.7888 19.8485 20.3428 17.4995H15.8988Z" fill="#17191A"/>
<path d="M13.7288 6.49952C13.2758 5.51052 12.7048 4.54052 12.0008 3.60352C11.2968 4.54152 10.7258 5.51052 10.2728 6.49952H13.7288Z" fill="#17191A"/>
<path d="M8.10278 17.4995H3.65778C5.21178 19.8485 7.72878 21.4975 10.6418 21.8965C9.54978 20.4955 8.69278 19.0215 8.10278 17.4995Z" fill="#17191A"/>
<path d="M2.64478 8.49951C2.34778 9.29151 2.13778 10.1265 2.05078 10.9995H7.10378C7.16078 10.1615 7.29178 9.32751 7.49078 8.49951H2.64478Z" fill="#17191A"/>
<path d="M8.10278 6.49954C8.69378 4.97754 9.55078 3.50354 10.6418 2.10254C7.72878 2.50054 5.21078 4.15054 3.65778 6.49954H8.10278Z" fill="#17191A"/>
<path d="M7.10478 12.9995H2.05178C2.13878 13.8725 2.34778 14.7075 2.64578 15.4995H7.49278C7.29378 14.6715 7.16078 13.8375 7.10478 12.9995Z" fill="#17191A"/>
</svg>
