<svg width="24" height="24" viewBox="0 0 24 24" fill="none" xmlns="http://www.w3.org/2000/svg">
<path d="M17 18.9996C17 19.2626 16.894 19.5206 16.707 19.7066C16.52 19.8926 16.263 19.9996 16 19.9996H5C4.737 19.9996 4.479 19.8936 4.293 19.7066C4.107 19.5196 4 19.2626 4 18.9996V7.99963C4 7.73663 4.107 7.47863 4.293 7.29263C4.48 7.10663 4.737 6.99963 5 6.99963H8V4.99963H5C4.21 4.99963 3.438 5.31963 2.879 5.87863C2.32 6.43763 2 7.21063 2 7.99963V18.9996C2 19.8006 2.312 20.5546 2.879 21.1206C3.438 21.6796 4.211 21.9996 5 21.9996H16C16.801 21.9996 17.555 21.6876 18.121 21.1206C18.687 20.5536 19 19.8006 19 18.9996V15.9996H17V18.9996Z" fill="#17191A"/>
<path d="M21.093 2.90865C19.92 1.73565 17.876 1.73965 16.709 2.90765L7 12.5846V16.9996H11.415L21.093 7.29065C21.678 6.70565 22 5.92765 22 5.09965C22 4.27165 21.677 3.49165 21.093 2.90865ZM17.574 7.98765L16.012 6.42565L17.428 5.01365L18.985 6.57065L17.573 7.98665L17.574 7.98765Z" fill="#17191A"/>
</svg>
