<svg width="24" height="24" viewBox="0 0 24 24" fill="none" xmlns="http://www.w3.org/2000/svg">
<path fill-rule="evenodd" clip-rule="evenodd" d="M2.80567 5.80567C3.32116 5.29018 4.02086 5 4.75 5H7.75V6.5H4.75C4.41914 6.5 4.10084 6.63182 3.86633 6.86633C3.63182 7.10084 3.5 7.41914 3.5 7.75V18.75C3.5 19.0809 3.63182 19.3992 3.86633 19.6337C4.10084 19.8682 4.41914 20 4.75 20H15.75C16.0809 20 16.3992 19.8682 16.6337 19.6337C16.8682 19.3992 17 19.0809 17 18.75V15.75H18.5V18.75C18.5 19.4791 18.2098 20.1788 17.6943 20.6943C17.1788 21.2098 16.4791 21.5 15.75 21.5H4.75C4.02086 21.5 3.32116 21.2098 2.80567 20.6943C2.29018 20.1788 2 19.4791 2 18.75V7.75C2 7.02086 2.29018 6.32116 2.80567 5.80567Z" fill="#17191A"/>
<path fill-rule="evenodd" clip-rule="evenodd" d="M16.6352 2.83418C17.1699 2.29974 17.8945 2 18.65 2C19.4058 2 20.1306 2.29992 20.6653 2.83467C21.2001 3.36942 21.5 4.09422 21.5 4.85C21.5 5.60549 21.2003 6.33004 20.6659 6.86473L11.0614 16.5H7V12.4386L16.6352 2.83418ZM18.65 3.5C18.2918 3.5 17.9486 3.64208 17.6953 3.89533L8.5 13.0614V15H10.4386L19.6047 5.80467C19.8579 5.55142 20 5.20822 20 4.85C20 4.49178 19.8579 4.14858 19.6047 3.89533C19.3514 3.64208 19.0082 3.5 18.65 3.5Z" fill="#17191A"/>
<path fill-rule="evenodd" clip-rule="evenodd" d="M18.2197 8.28033L15.2197 5.28033L16.2803 4.21967L19.2803 7.21967L18.2197 8.28033Z" fill="#17191A"/>
</svg>
