<svg width="24" height="24" viewBox="0 0 24 24" fill="none" xmlns="http://www.w3.org/2000/svg">
<path fill-rule="evenodd" clip-rule="evenodd" d="M19.845 5.43712C18.801 5.15046 16.1907 5.00479 12.014 5.00012C7.83804 4.99546 5.22771 5.13012 4.18304 5.40412C3.34304 5.63312 2.64904 6.32512 2.41704 7.18212C2.14171 8.22612 2.00271 9.83079 2.00004 11.9961C1.99737 14.1721 2.13271 15.7768 2.40604 16.8101C2.63604 17.6671 3.31104 18.3441 4.16904 18.5751C5.22371 18.8618 7.83371 19.0075 11.999 19.0121C16.1757 19.0168 18.786 18.8825 19.83 18.6091C20.686 18.3791 21.364 17.7031 21.597 16.8461C21.873 15.8028 22.0121 14.1988 22.0142 12.0341C22.0274 9.85746 21.8917 8.24712 21.607 7.20312C21.377 6.34512 20.702 5.66812 19.845 5.43712ZM10.015 9.00512L15.222 12.0101L10.01 15.0051L10.015 9.00512Z" fill="#17191A"/>
</svg>
