<svg width="24" height="24" viewBox="0 0 24 24" fill="none" xmlns="http://www.w3.org/2000/svg">
<path fill-rule="evenodd" clip-rule="evenodd" d="M2.25 11C2.25 6.18579 6.18579 2.25 11 2.25C15.8142 2.25 19.75 6.18579 19.75 11C19.75 15.8142 15.8142 19.75 11 19.75C6.18579 19.75 2.25 15.8142 2.25 11ZM11 3.75C7.01421 3.75 3.75 7.01421 3.75 11C3.75 14.9858 7.01421 18.25 11 18.25C14.9858 18.25 18.25 14.9858 18.25 11C18.25 7.01421 14.9858 3.75 11 3.75Z" fill="#17191A"/>
<path fill-rule="evenodd" clip-rule="evenodd" d="M17.1303 16.0697L21.5303 20.4697L20.4696 21.5303L16.0696 17.1303L17.1303 16.0697Z" fill="#17191A"/>
<path fill-rule="evenodd" clip-rule="evenodd" d="M8 10.25H14V11.75H8V10.25Z" fill="#17191A"/>
</svg>
